{
  "schemaVersion" : "1.0",
  "file" : {
    "filename" : "azul.mid",
    "format" : 1,
    "division" : 240,
    "durationTicks" : 48960,
    "durationSeconds" : 105.517164
  },
  "metadata" : {
    "tempoMap" : [ {
      "tick" : 0,
      "microsecondsPerQuarter" : 517241,
      "bpm" : 116.00008506672904
    } ],
    "timeSignatures" : [ {
      "tick" : 0,
      "numerator" : 4,
      "denominator" : 4,
      "clocksPerClick" : 24,
      "thirtySecondsPer24Clocks" : 8
    } ],
    "keySignatures" : [ {
      "tick" : 0,
      "sharpsFlats" : 0,
      "majorMinor" : 0
    } ]
  },
  "tracks" : [ {
    "index" : 0,
    "name" : "",
    "programChanges" : [ ],
    "events" : [ {
      "type" : "meta",
      "tick" : 0,
      "timeSeconds" : 0.0,
      "text" : "track_name: "
    }, {
      "type" : "meta",
      "tick" : 0,
      "timeSeconds" : 0.0,
      "text" : "text: #jeff.midmania.com.br\n"
    }, {
      "type" : "meta",
      "tick" : 0,
      "timeSeconds" : 0.0,
      "text" : "marker: Azul (Djavan)"
    }, {
      "type" : "meta",
      "tick" : 5760,
      "timeSeconds" : 12.413784,
      "text" : "marker: Sequenciado por Beto Miyasaki"
    }, {
      "type" : "meta",
      "tick" : 19200,
      "timeSeconds" : 41.37928,
      "text" : "marker: miyasaki@onda.com.br"
    }, {
      "type" : "meta",
      "tick" : 28800,
      "timeSeconds" : 62.06892,
      "text" : "marker: Tel: 043 338 3981"
    }, {
      "type" : "meta",
      "tick" : 39360,
      "timeSeconds" : 84.827524,
      "text" : "marker: refra"
    } ]
  }, {
    "index" : 1,
    "name" : "",
    "programChanges" : [ {
      "tick" : 2,
      "channel" : 0,
      "program" : 73
    } ],
    "events" : [ {
      "type" : "meta",
      "tick" : 0,
      "timeSeconds" : 0.0,
      "text" : "track_name: "
    }, {
      "type" : "control_change",
      "tick" : 0,
      "timeSeconds" : 0.0,
      "channel" : 0,
      "controller" : 7,
      "value" : 108
    }, {
      "type" : "control_change",
      "tick" : 0,
      "timeSeconds" : 0.0,
      "channel" : 0,
      "controller" : 10,
      "value" : 97
    }, {
      "type" : "control_change",
      "tick" : 0,
      "timeSeconds" : 0.0,
      "channel" : 0,
      "controller" : 0,
      "value" : 0
    }, {
      "type" : "control_change",
      "tick" : 0,
      "timeSeconds" : 0.0,
      "channel" : 0,
      "controller" : 91,
      "value" : 117
    }, {
      "type" : "control_change",
      "tick" : 0,
      "timeSeconds" : 0.0,
      "channel" : 0,
      "controller" : 94,
      "value" : 0
    }, {
      "type" : "control_change",
      "tick" : 0,
      "timeSeconds" : 0.0,
      "channel" : 0,
      "controller" : 1,
      "value" : 0
    }, {
      "type" : "control_change",
      "tick" : 0,
      "timeSeconds" : 0.0,
      "channel" : 0,
      "controller" : 93,
      "value" : 0
    }, {
      "type" : "control_change",
      "tick" : 0,
      "timeSeconds" : 0.0,
      "channel" : 0,
      "controller" : 11,
      "value" : 127
    }, {
      "type" : "control_change",
      "tick" : 0,
      "timeSeconds" : 0.0,
      "channel" : 0,
      "controller" : 121,
      "value" : 0
    }, {
      "type" : "control_change",
      "tick" : 2,
      "timeSeconds" : 0.004310341666666667,
      "channel" : 0,
      "controller" : 32,
      "value" : 0
    }, {
      "type" : "control_change",
      "tick" : 2,
      "timeSeconds" : 0.004310341666666667,
      "channel" : 0,
      "controller" : 0,
      "value" : 0
    }, {
      "type" : "control_change",
      "tick" : 2,
      "timeSeconds" : 0.004310341666666667,
      "channel" : 0,
      "controller" : 32,
      "value" : 0
    }, {
      "type" : "note",
      "tick" : 703,
      "timeSeconds" : 1.5150850958333333,
      "channel" : 0,
      "noteNumber" : 77,
      "noteName" : "F5",
      "velocity" : 83,
      "durationTicks" : 49,
      "durationSeconds" : 0.10560337083333349
    }, {
      "type" : "note",
      "tick" : 756,
      "timeSeconds" : 1.62930915,
      "channel" : 0,
      "noteNumber" : 79,
      "noteName" : "G5",
      "velocity" : 89,
      "durationTicks" : 45,
      "durationSeconds" : 0.09698268749999994
    }, {
      "type" : "note",
      "tick" : 897,
      "timeSeconds" : 1.9331882375,
      "channel" : 0,
      "noteNumber" : 77,
      "noteName" : "F5",
      "velocity" : 76,
      "durationTicks" : 31,
      "durationSeconds" : 0.06681029583333342
    }, {
      "type" : "note",
      "tick" : 934,
      "timeSeconds" : 2.0129295583333335,
      "channel" : 0,
      "noteNumber" : 86,
      "noteName" : "D6",
      "velocity" : 83,
      "durationTicks" : 19,
      "durationSeconds" : 0.04094824583333301
    }, {
      "type" : "note",
      "tick" : 953,
      "timeSeconds" : 2.0538778041666665,
      "channel" : 0,
      "noteNumber" : 89,
      "noteName" : "F6",
      "velocity" : 88,
      "durationTicks" : 79,
      "durationSeconds" : 0.17025849583333352
    }, {
      "type" : "note",
      "tick" : 1187,
      "timeSeconds" : 2.5581877791666665,
      "channel" : 0,
      "noteNumber" : 86,
      "noteName" : "D6",
      "velocity" : 95,
      "durationTicks" : 80,
      "durationSeconds" : 0.1724136666666669
    }, {
      "type" : "note",
      "tick" : 1416,
      "timeSeconds" : 3.0517219,
      "channel" : 0,
      "noteNumber" : 80,
      "noteName" : "G#5",
      "velocity" : 90,
      "durationTicks" : 181,
      "durationSeconds" : 0.39008592083333316
    }, {
      "type" : "note",
      "tick" : 1658,
      "timeSeconds" : 3.5732732416666666,
      "channel" : 0,
      "noteNumber" : 79,
      "noteName" : "G5",
      "velocity" : 74,
      "durationTicks" : 111,
      "durationSeconds" : 0.2392239625000001
    }, {
      "type" : "note",
      "tick" : 1802,
      "timeSeconds" : 3.8836178416666667,
      "channel" : 0,
      "noteNumber" : 77,
      "noteName" : "F5",
      "velocity" : 81,
      "durationTicks" : 192,
      "durationSeconds" : 0.41379279999999996
    }, {
      "type" : "note",
      "tick" : 2038,
      "timeSeconds" : 4.392238158333333,
      "channel" : 0,
      "noteNumber" : 79,
      "noteName" : "G5",
      "velocity" : 79,
      "durationTicks" : 132,
      "durationSeconds" : 0.2844825500000008
    }, {
      "type" : "note",
      "tick" : 2199,
      "timeSeconds" : 4.7392206625,
      "channel" : 0,
      "noteNumber" : 80,
      "noteName" : "G#5",
      "velocity" : 65,
      "durationTicks" : 26,
      "durationSeconds" : 0.05603444166666627
    }, {
      "type" : "note",
      "tick" : 2228,
      "timeSeconds" : 4.801720616666667,
      "channel" : 0,
      "noteNumber" : 81,
      "noteName" : "A5",
      "velocity" : 91,
      "durationTicks" : 140,
      "durationSeconds" : 0.301723916666667
    }, {
      "type" : "note",
      "tick" : 2381,
      "timeSeconds" : 5.131461754166667,
      "channel" : 0,
      "noteNumber" : 77,
      "noteName" : "F5",
      "velocity" : 81,
      "durationTicks" : 246,
      "durationSeconds" : 0.5301720249999997
    }, {
      "type" : "note",
      "tick" : 2640,
      "timeSeconds" : 5.689651,
      "channel" : 0,
      "noteNumber" : 74,
      "noteName" : "D5",
      "velocity" : 80,
      "durationTicks" : 148,
      "durationSeconds" : 0.31896528333333407
    }, {
      "type" : "note",
      "tick" : 2987,
      "timeSeconds" : 6.437495279166667,
      "channel" : 0,
      "noteNumber" : 74,
      "noteName" : "D5",
      "velocity" : 81,
      "durationTicks" : 123,
      "durationSeconds" : 0.2650860124999994
    }, {
      "type" : "note",
      "tick" : 3125,
      "timeSeconds" : 6.734908854166667,
      "channel" : 0,
      "noteNumber" : 77,
      "noteName" : "F5",
      "velocity" : 77,
      "durationTicks" : 91,
      "durationSeconds" : 0.19612054583333283
    }, {
      "type" : "note",
      "tick" : 3236,
      "timeSeconds" : 6.974132816666667,
      "channel" : 0,
      "noteNumber" : 74,
      "noteName" : "D5",
      "velocity" : 80,
      "durationTicks" : 89,
      "durationSeconds" : 0.19181020416666694
    }, {
      "type" : "note",
      "tick" : 3323,
      "timeSeconds" : 7.161632679166667,
      "channel" : 0,
      "noteNumber" : 77,
      "noteName" : "F5",
      "velocity" : 71,
      "durationTicks" : 18,
      "durationSeconds" : 0.038793075000000066
    }, {
      "type" : "note",
      "tick" : 3336,
      "timeSeconds" : 7.1896499,
      "channel" : 0,
      "noteNumber" : 79,
      "noteName" : "G5",
      "velocity" : 79,
      "durationTicks" : 28,
      "durationSeconds" : 0.06034478333333304
    }, {
      "type" : "note",
      "tick" : 3364,
      "timeSeconds" : 7.249994683333333,
      "channel" : 0,
      "noteNumber" : 80,
      "noteName" : "G#5",
      "velocity" : 90,
      "durationTicks" : 91,
      "durationSeconds" : 0.19612054583333371
    }, {
      "type" : "note",
      "tick" : 3472,
      "timeSeconds" : 7.4827531333333335,
      "channel" : 0,
      "noteNumber" : 79,
      "noteName" : "G5",
      "velocity" : 78,
      "durationTicks" : 110,
      "durationSeconds" : 0.23706879166666628
    }, {
      "type" : "note",
      "tick" : 3598,
      "timeSeconds" : 7.754304658333333,
      "channel" : 0,
      "noteNumber" : 74,
      "noteName" : "D5",
      "velocity" : 80,
      "durationTicks" : 90,
      "durationSeconds" : 0.19396537500000033
    }, {
      "type" : "note",
      "tick" : 3715,
      "timeSeconds" : 8.006459645833333,
      "channel" : 0,
      "noteNumber" : 77,
      "noteName" : "F5",
      "velocity" : 80,
      "durationTicks" : 184,
      "durationSeconds" : 0.3965514333333342
    }, {
      "type" : "note",
      "tick" : 3944,
      "timeSeconds" : 8.499993766666666,
      "channel" : 0,
      "noteNumber" : 79,
      "noteName" : "G5",
      "velocity" : 79,
      "durationTicks" : 168,
      "durationSeconds" : 0.3620687
    }, {
      "type" : "note",
      "tick" : 4134,
      "timeSeconds" : 8.909476225,
      "channel" : 0,
      "noteNumber" : 81,
      "noteName" : "A5",
      "velocity" : 80,
      "durationTicks" : 154,
      "durationSeconds" : 0.3318963083333326
    }, {
      "type" : "note",
      "tick" : 4309,
      "timeSeconds" : 9.286631120833333,
      "channel" : 0,
      "noteNumber" : 79,
      "noteName" : "G5",
      "velocity" : 90,
      "durationTicks" : 212,
      "durationSeconds" : 0.45689621666666724
    }, {
      "type" : "note",
      "tick" : 4550,
      "timeSeconds" : 9.806027291666666,
      "channel" : 0,
      "noteNumber" : 77,
      "noteName" : "F5",
      "velocity" : 82,
      "durationTicks" : 198,
      "durationSeconds" : 0.42672382499999983
    }, {
      "type" : "note",
      "tick" : 4747,
      "timeSeconds" : 10.230595945833333,
      "channel" : 0,
      "noteNumber" : 79,
      "noteName" : "G5",
      "velocity" : 80,
      "durationTicks" : 26,
      "durationSeconds" : 0.056034441666668044
    }, {
      "type" : "note",
      "tick" : 4759,
      "timeSeconds" : 10.256457995833333,
      "channel" : 0,
      "noteNumber" : 81,
      "noteName" : "A5",
      "velocity" : 84,
      "durationTicks" : 33,
      "durationSeconds" : 0.07112063749999997
    }, {
      "type" : "note",
      "tick" : 4798,
      "timeSeconds" : 10.340509658333334,
      "channel" : 0,
      "noteNumber" : 88,
      "noteName" : "E6",
      "velocity" : 97,
      "durationTicks" : 8,
      "durationSeconds" : 0.01724136666666709
    }, {
      "type" : "note",
      "tick" : 4797,
      "timeSeconds" : 10.3383544875,
      "channel" : 0,
      "noteNumber" : 89,
      "noteName" : "F6",
      "velocity" : 97,
      "durationTicks" : 72,
      "durationSeconds" : 0.15517230000000026
    }, {
      "type" : "note",
      "tick" : 5020,
      "timeSeconds" : 10.818957583333333,
      "channel" : 0,
      "noteNumber" : 86,
      "noteName" : "D6",
      "velocity" : 103,
      "durationTicks" : 137,
      "durationSeconds" : 0.2952584041666668
    }, {
      "type" : "note",
      "tick" : 5261,
      "timeSeconds" : 11.338353754166667,
      "channel" : 0,
      "noteNumber" : 80,
      "noteName" : "G#5",
      "velocity" : 86,
      "durationTicks" : 123,
      "durationSeconds" : 0.2650860124999994
    }, {
      "type" : "note",
      "tick" : 5378,
      "timeSeconds" : 11.590508741666667,
      "channel" : 0,
      "noteNumber" : 79,
      "noteName" : "G5",
      "velocity" : 70,
      "durationTicks" : 185,
      "durationSeconds" : 0.3987066041666658
    }, {
      "type" : "note",
      "tick" : 5640,
      "timeSeconds" : 12.1551635,
      "channel" : 0,
      "noteNumber" : 77,
      "noteName" : "F5",
      "velocity" : 84,
      "durationTicks" : 213,
      "durationSeconds" : 0.45905138749999885
    }, {
      "type" : "note",
      "tick" : 5872,
      "timeSeconds" : 12.655163133333334,
      "channel" : 0,
      "noteNumber" : 74,
      "noteName" : "D5",
      "velocity" : 70,
      "durationTicks" : 114,
      "durationSeconds" : 0.24568947499999894
    }, {
      "type" : "note",
      "tick" : 5998,
      "timeSeconds" : 12.926714658333333,
      "channel" : 0,
      "noteNumber" : 77,
      "noteName" : "F5",
      "velocity" : 83,
      "durationTicks" : 97,
      "durationSeconds" : 0.20905157083333314
    }, {
      "type" : "note",
      "tick" : 6106,
      "timeSeconds" : 13.159473108333334,
      "channel" : 0,
      "noteNumber" : 80,
      "noteName" : "G#5",
      "velocity" : 107,
      "durationTicks" : 116,
      "durationSeconds" : 0.2499998166666657
    }, {
      "type" : "note",
      "tick" : 6239,
      "timeSeconds" : 13.446110829166667,
      "channel" : 0,
      "noteNumber" : 79,
      "noteName" : "G5",
      "velocity" : 86,
      "durationTicks" : 221,
      "durationSeconds" : 0.47629275416666594
    }, {
      "type" : "note",
      "tick" : 6471,
      "timeSeconds" : 13.9461104625,
      "channel" : 0,
      "noteNumber" : 74,
      "noteName" : "D5",
      "velocity" : 79,
      "durationTicks" : 107,
      "durationSeconds" : 0.230603279166667
    }, {
      "type" : "note",
      "tick" : 6590,
      "timeSeconds" : 14.202575791666666,
      "channel" : 0,
      "noteNumber" : 77,
      "noteName" : "F5",
      "velocity" : 86,
      "durationTicks" : 222,
      "durationSeconds" : 0.4784479250000011
    }, {
      "type" : "note",
      "tick" : 6831,
      "timeSeconds" : 14.7219719625,
      "channel" : 0,
      "noteNumber" : 74,
      "noteName" : "D5",
      "velocity" : 74,
      "durationTicks" : 99,
      "durationSeconds" : 0.21336191249999992
    }, {
      "type" : "note",
      "tick" : 6950,
      "timeSeconds" : 14.978437291666667,
      "channel" : 0,
      "noteNumber" : 77,
      "noteName" : "F5",
      "velocity" : 75,
      "durationTicks" : 109,
      "durationSeconds" : 0.234913620833332
    }, {
      "type" : "note",
      "tick" : 7076,
      "timeSeconds" : 15.249988816666667,
      "channel" : 0,
      "noteNumber" : 80,
      "noteName" : "G#5",
      "velocity" : 74,
      "durationTicks" : 118,
      "durationSeconds" : 0.2543101583333325
    }, {
      "type" : "note",
      "tick" : 7196,
      "timeSeconds" : 15.508609316666666,
      "channel" : 0,
      "noteNumber" : 79,
      "noteName" : "G5",
      "velocity" : 75,
      "durationTicks" : 229,
      "durationSeconds" : 0.49353412083333303
    }, {
      "type" : "note",
      "tick" : 7428,
      "timeSeconds" : 16.00860895,
      "channel" : 0,
      "noteNumber" : 77,
      "noteName" : "F5",
      "velocity" : 80,
      "durationTicks" : 110,
      "durationSeconds" : 0.23706879166666894
    }, {
      "type" : "note",
      "tick" : 7550,
      "timeSeconds" : 16.271539791666665,
      "channel" : 0,
      "noteNumber" : 74,
      "noteName" : "D5",
      "velocity" : 80,
      "durationTicks" : 699,
      "durationSeconds" : 1.5064644125000015
    }, {
      "type" : "note",
      "tick" : 8388,
      "timeSeconds" : 18.07757295,
      "channel" : 0,
      "noteNumber" : 77,
      "noteName" : "F5",
      "velocity" : 82,
      "durationTicks" : 40,
      "durationSeconds" : 0.0862068333333319
    }, {
      "type" : "note",
      "tick" : 8439,
      "timeSeconds" : 18.1874866625,
      "channel" : 0,
      "noteNumber" : 79,
      "noteName" : "G5",
      "velocity" : 75,
      "durationTicks" : 29,
      "durationSeconds" : 0.062499954166668203
    }, {
      "type" : "note",
      "tick" : 8552,
      "timeSeconds" : 18.431020966666665,
      "channel" : 0,
      "noteNumber" : 77,
      "noteName" : "F5",
      "velocity" : 76,
      "durationTicks" : 34,
      "durationSeconds" : 0.07327580833333514
    }, {
      "type" : "note",
      "tick" : 8611,
      "timeSeconds" : 18.558176045833335,
      "channel" : 0,
      "noteNumber" : 89,
      "noteName" : "F6",
      "velocity" : 94,
      "durationTicks" : 53,
      "durationSeconds" : 0.11422405416666592
    }, {
      "type" : "note",
      "tick" : 8871,
      "timeSeconds" : 19.1185204625,
      "channel" : 0,
      "noteNumber" : 86,
      "noteName" : "D6",
      "velocity" : 98,
      "durationTicks" : 48,
      "durationSeconds" : 0.10344819999999899
    }, {
      "type" : "note",
      "tick" : 9105,
      "timeSeconds" : 19.6228304375,
      "channel" : 0,
      "noteNumber" : 80,
      "noteName" : "G#5",
      "velocity" : 74,
      "durationTicks" : 213,
      "durationSeconds" : 0.45905138750000063
    }, {
      "type" : "note",
      "tick" : 9351,
      "timeSeconds" : 20.1530024625,
      "channel" : 0,
      "noteNumber" : 79,
      "noteName" : "G5",
      "velocity" : 76,
      "durationTicks" : 97,
      "durationSeconds" : 0.20905157083333137
    }, {
      "type" : "note",
      "tick" : 9472,
      "timeSeconds" : 20.413778133333334,
      "channel" : 0,
      "noteNumber" : 77,
      "noteName" : "F5",
      "velocity" : 77,
      "durationTicks" : 229,
      "durationSeconds" : 0.49353412083333126
    }, {
      "type" : "note",
      "tick" : 9711,
      "timeSeconds" : 20.9288639625,
      "channel" : 0,
      "noteNumber" : 79,
      "noteName" : "G5",
      "velocity" : 79,
      "durationTicks" : 158,
      "durationSeconds" : 0.34051699166666793
    }, {
      "type" : "note",
      "tick" : 9863,
      "timeSeconds" : 21.256449929166667,
      "channel" : 0,
      "noteNumber" : 80,
      "noteName" : "G#5",
      "velocity" : 64,
      "durationTicks" : 35,
      "durationSeconds" : 0.07543097916666497
    }, {
      "type" : "note",
      "tick" : 9903,
      "timeSeconds" : 21.3426567625,
      "channel" : 0,
      "noteNumber" : 81,
      "noteName" : "A5",
      "velocity" : 83,
      "durationTicks" : 160,
      "durationSeconds" : 0.3448273333333347
    }, {
      "type" : "note",
      "tick" : 10073,
      "timeSeconds" : 21.709035804166668,
      "channel" : 0,
      "noteNumber" : 77,
      "noteName" : "F5",
      "velocity" : 82,
      "durationTicks" : 234,
      "durationSeconds" : 0.5043099749999982
    }, {
      "type" : "note",
      "tick" : 10307,
      "timeSeconds" : 22.213345779166666,
      "channel" : 0,
      "noteNumber" : 74,
      "noteName" : "D5",
      "velocity" : 74,
      "durationTicks" : 147,
      "durationSeconds" : 0.3168101125000007
    }, {
      "type" : "note",
      "tick" : 10668,
      "timeSeconds" : 22.99136245,
      "channel" : 0,
      "noteNumber" : 74,
      "noteName" : "D5",
      "velocity" : 80,
      "durationTicks" : 115,
      "durationSeconds" : 0.24784464583333232
    }, {
      "type" : "note",
      "tick" : 10800,
      "timeSeconds" : 23.275845,
      "channel" : 0,
      "noteNumber" : 77,
      "noteName" : "F5",
      "velocity" : 83,
      "durationTicks" : 94,
      "durationSeconds" : 0.20258605833333476
    }, {
      "type" : "note",
      "tick" : 10903,
      "timeSeconds" : 23.497827595833332,
      "channel" : 0,
      "noteNumber" : 80,
      "noteName" : "G#5",
      "velocity" : 78,
      "durationTicks" : 112,
      "durationSeconds" : 0.24137913333333572
    }, {
      "type" : "note",
      "tick" : 11057,
      "timeSeconds" : 23.829723904166666,
      "channel" : 0,
      "noteNumber" : 80,
      "noteName" : "G#5",
      "velocity" : 54,
      "durationTicks" : 16,
      "durationSeconds" : 0.03448273333333418
    }, {
      "type" : "note",
      "tick" : 11026,
      "timeSeconds" : 23.762913608333335,
      "channel" : 0,
      "noteNumber" : 79,
      "noteName" : "G5",
      "velocity" : 70,
      "durationTicks" : 233,
      "durationSeconds" : 0.5021548041666648
    }, {
      "type" : "note",
      "tick" : 11272,
      "timeSeconds" : 24.293085633333334,
      "channel" : 0,
      "noteNumber" : 74,
      "noteName" : "D5",
      "velocity" : 76,
      "durationTicks" : 113,
      "durationSeconds" : 0.24353430416666555
    }, {
      "type" : "note",
      "tick" : 11389,
      "timeSeconds" : 24.545240620833333,
      "channel" : 0,
      "noteNumber" : 77,
      "noteName" : "F5",
      "velocity" : 86,
      "durationTicks" : 234,
      "durationSeconds" : 0.5043099750000017
    }, {
      "type" : "note",
      "tick" : 11630,
      "timeSeconds" : 25.06463679166667,
      "channel" : 0,
      "noteNumber" : 79,
      "noteName" : "G5",
      "velocity" : 82,
      "durationTicks" : 165,
      "durationSeconds" : 0.3556031874999981
    }, {
      "type" : "note",
      "tick" : 11798,
      "timeSeconds" : 25.426705491666667,
      "channel" : 0,
      "noteNumber" : 80,
      "noteName" : "G#5",
      "velocity" : 47,
      "durationTicks" : 13,
      "durationSeconds" : 0.028017220833334022
    }, {
      "type" : "note",
      "tick" : 11820,
      "timeSeconds" : 25.47411925,
      "channel" : 0,
      "noteNumber" : 81,
      "noteName" : "A5",
      "velocity" : 78,
      "durationTicks" : 145,
      "durationSeconds" : 0.3124997708333339
    }, {
      "type" : "note",
      "tick" : 11975,
      "timeSeconds" : 25.808170729166665,
      "channel" : 0,
      "noteNumber" : 79,
      "noteName" : "G5",
      "velocity" : 90,
      "durationTicks" : 218,
      "durationSeconds" : 0.46982724166666756
    }, {
      "type" : "note",
      "tick" : 12392,
      "timeSeconds" : 26.706876966666666,
      "channel" : 0,
      "noteNumber" : 78,
      "noteName" : "F#5",
      "velocity" : 80,
      "durationTicks" : 15,
      "durationSeconds" : 0.032327562500000795
    }, {
      "type" : "note",
      "tick" : 12221,
      "timeSeconds" : 26.338342754166668,
      "channel" : 0,
      "noteNumber" : 77,
      "noteName" : "F5",
      "velocity" : 88,
      "durationTicks" : 218,
      "durationSeconds" : 0.469827241666664
    }, {
      "type" : "note",
      "tick" : 12433,
      "timeSeconds" : 26.795238970833335,
      "channel" : 0,
      "noteNumber" : 88,
      "noteName" : "E6",
      "velocity" : 74,
      "durationTicks" : 16,
      "durationSeconds" : 0.03448273333333063
    }, {
      "type" : "note",
      "tick" : 12408,
      "timeSeconds" : 26.7413597,
      "channel" : 0,
      "noteNumber" : 79,
      "noteName" : "G5",
      "velocity" : 46,
      "durationTicks" : 43,
      "durationSeconds" : 0.09267234583333206
    }, {
      "type" : "note",
      "tick" : 12435,
      "timeSeconds" : 26.7995493125,
      "channel" : 0,
      "noteNumber" : 81,
      "noteName" : "A5",
      "velocity" : 106,
      "durationTicks" : 23,
      "durationSeconds" : 0.04956892916666433
    }, {
      "type" : "note",
      "tick" : 12448,
      "timeSeconds" : 26.827566533333332,
      "channel" : 0,
      "noteNumber" : 84,
      "noteName" : "C6",
      "velocity" : 80,
      "durationTicks" : 15,
      "durationSeconds" : 0.032327562500000795
    }, {
      "type" : "note",
      "tick" : 12448,
      "timeSeconds" : 26.827566533333332,
      "channel" : 0,
      "noteNumber" : 83,
      "noteName" : "B5",
      "velocity" : 80,
      "durationTicks" : 15,
      "durationSeconds" : 0.032327562500000795
    }, {
      "type" : "note",
      "tick" : 12461,
      "timeSeconds" : 26.855583754166666,
      "channel" : 0,
      "noteNumber" : 89,
      "noteName" : "F6",
      "velocity" : 93,
      "durationTicks" : 87,
      "durationSeconds" : 0.18749986250000106
    }, {
      "type" : "note",
      "tick" : 12713,
      "timeSeconds" : 27.398686804166665,
      "channel" : 0,
      "noteNumber" : 86,
      "noteName" : "D6",
      "velocity" : 104,
      "durationTicks" : 56,
      "durationSeconds" : 0.12068956666666963
    }, {
      "type" : "note",
      "tick" : 12966,
      "timeSeconds" : 27.943945025,
      "channel" : 0,
      "noteNumber" : 80,
      "noteName" : "G#5",
      "velocity" : 92,
      "durationTicks" : 206,
      "durationSeconds" : 0.4439651916666669
    }, {
      "type" : "note",
      "tick" : 13208,
      "timeSeconds" : 28.465496366666667,
      "channel" : 0,
      "noteNumber" : 79,
      "noteName" : "G5",
      "velocity" : 66,
      "durationTicks" : 92,
      "durationSeconds" : 0.198275716666668
    }, {
      "type" : "note",
      "tick" : 13314,
      "timeSeconds" : 28.693944475,
      "channel" : 0,
      "noteNumber" : 77,
      "noteName" : "F5",
      "velocity" : 82,
      "durationTicks" : 176,
      "durationSeconds" : 0.3793100666666689
    }, {
      "type" : "note",
      "tick" : 13564,
      "timeSeconds" : 29.232737183333334,
      "channel" : 0,
      "noteNumber" : 74,
      "noteName" : "D5",
      "velocity" : 100,
      "durationTicks" : 43,
      "durationSeconds" : 0.09267234583333206
    }, {
      "type" : "note",
      "tick" : 13685,
      "timeSeconds" : 29.493512854166667,
      "channel" : 0,
      "noteNumber" : 79,
      "noteName" : "G5",
      "velocity" : 100,
      "durationTicks" : 83,
      "durationSeconds" : 0.1788791791666675
    }, {
      "type" : "note",
      "tick" : 13768,
      "timeSeconds" : 29.672392033333335,
      "channel" : 0,
      "noteNumber" : 80,
      "noteName" : "G#5",
      "velocity" : 100,
      "durationTicks" : 108,
      "durationSeconds" : 0.23275844999999862
    }, {
      "type" : "note",
      "tick" : 13893,
      "timeSeconds" : 29.9417883875,
      "channel" : 0,
      "noteNumber" : 79,
      "noteName" : "G5",
      "velocity" : 100,
      "durationTicks" : 258,
      "durationSeconds" : 0.5560340749999995
    }, {
      "type" : "note",
      "tick" : 14166,
      "timeSeconds" : 30.530150025,
      "channel" : 0,
      "noteNumber" : 74,
      "noteName" : "D5",
      "velocity" : 100,
      "durationTicks" : 112,
      "durationSeconds" : 0.24137913333333216
    }, {
      "type" : "note",
      "tick" : 14284,
      "timeSeconds" : 30.784460183333334,
      "channel" : 0,
      "noteNumber" : 77,
      "noteName" : "F5",
      "velocity" : 100,
      "durationTicks" : 232,
      "durationSeconds" : 0.4999996333333314
    }, {
      "type" : "note",
      "tick" : 14521,
      "timeSeconds" : 31.295235670833332,
      "channel" : 0,
      "noteNumber" : 74,
      "noteName" : "D5",
      "velocity" : 100,
      "durationTicks" : 106,
      "durationSeconds" : 0.2284481083333354
    }, {
      "type" : "note",
      "tick" : 14637,
      "timeSeconds" : 31.5452354875,
      "channel" : 0,
      "noteNumber" : 79,
      "noteName" : "G5",
      "velocity" : 100,
      "durationTicks" : 114,
      "durationSeconds" : 0.24568947499999894
    }, {
      "type" : "note",
      "tick" : 14755,
      "timeSeconds" : 31.799545645833334,
      "channel" : 0,
      "noteNumber" : 80,
      "noteName" : "G#5",
      "velocity" : 100,
      "durationTicks" : 103,
      "durationSeconds" : 0.2219825958333317
    }, {
      "type" : "note",
      "tick" : 14869,
      "timeSeconds" : 32.04523512083333,
      "channel" : 0,
      "noteNumber" : 79,
      "noteName" : "G5",
      "velocity" : 100,
      "durationTicks" : 36,
      "durationSeconds" : 0.07758615000000191
    }, {
      "type" : "note",
      "tick" : 14900,
      "timeSeconds" : 32.11204541666667,
      "channel" : 0,
      "noteNumber" : 80,
      "noteName" : "G#5",
      "velocity" : 100,
      "durationTicks" : 41,
      "durationSeconds" : 0.08836200416666884
    }, {
      "type" : "note",
      "tick" : 14925,
      "timeSeconds" : 32.1659246875,
      "channel" : 0,
      "noteNumber" : 79,
      "noteName" : "G5",
      "velocity" : 100,
      "durationTicks" : 175,
      "durationSeconds" : 0.3771548958333284
    }, {
      "type" : "note",
      "tick" : 15100,
      "timeSeconds" : 32.54307958333333,
      "channel" : 0,
      "noteNumber" : 77,
      "noteName" : "F5",
      "velocity" : 100,
      "durationTicks" : 126,
      "durationSeconds" : 0.27155152499999957
    }, {
      "type" : "note",
      "tick" : 15228,
      "timeSeconds" : 32.81894145,
      "channel" : 0,
      "noteNumber" : 74,
      "noteName" : "D5",
      "velocity" : 100,
      "durationTicks" : 722,
      "durationSeconds" : 1.5560333416666694
    }, {
      "type" : "note",
      "tick" : 43194,
      "timeSeconds" : 93.090448975,
      "channel" : 0,
      "noteNumber" : 77,
      "noteName" : "F5",
      "velocity" : 51,
      "durationTicks" : 47,
      "durationSeconds" : 0.10129302916666916
    }, {
      "type" : "note",
      "tick" : 43225,
      "timeSeconds" : 93.15725927083334,
      "channel" : 0,
      "noteNumber" : 79,
      "noteName" : "G5",
      "velocity" : 77,
      "durationTicks" : 463,
      "durationSeconds" : 0.9978440958333294
    }, {
      "type" : "note",
      "tick" : 43678,
      "timeSeconds" : 94.13355165833333,
      "channel" : 0,
      "noteNumber" : 77,
      "noteName" : "F5",
      "velocity" : 73,
      "durationTicks" : 381,
      "durationSeconds" : 0.821120087500006
    }, {
      "type" : "note",
      "tick" : 44062,
      "timeSeconds" : 94.96113725833334,
      "channel" : 0,
      "noteNumber" : 79,
      "noteName" : "G5",
      "velocity" : 50,
      "durationTicks" : 57,
      "durationSeconds" : 0.12284473749998881
    }, {
      "type" : "note",
      "tick" : 44115,
      "timeSeconds" : 95.0753613125,
      "channel" : 0,
      "noteNumber" : 77,
      "noteName" : "F5",
      "velocity" : 48,
      "durationTicks" : 37,
      "durationSeconds" : 0.0797413208333353
    }, {
      "type" : "note",
      "tick" : 44142,
      "timeSeconds" : 95.133550925,
      "channel" : 0,
      "noteNumber" : 74,
      "noteName" : "D5",
      "velocity" : 55,
      "durationTicks" : 496,
      "durationSeconds" : 1.0689647333333454
    }, {
      "type" : "note",
      "tick" : 44621,
      "timeSeconds" : 96.16587775416667,
      "channel" : 0,
      "noteNumber" : 77,
      "noteName" : "F5",
      "velocity" : 58,
      "durationTicks" : 132,
      "durationSeconds" : 0.2844825499999928
    }, {
      "type" : "note",
      "tick" : 44742,
      "timeSeconds" : 96.426653425,
      "channel" : 0,
      "noteNumber" : 74,
      "noteName" : "D5",
      "velocity" : 52,
      "durationTicks" : 159,
      "durationSeconds" : 0.3426721625000084
    }, {
      "type" : "note",
      "tick" : 44872,
      "timeSeconds" : 96.70682563333334,
      "channel" : 0,
      "noteNumber" : 77,
      "noteName" : "F5",
      "velocity" : 51,
      "durationTicks" : 129,
      "durationSeconds" : 0.2780170374999926
    }, {
      "type" : "note",
      "tick" : 44991,
      "timeSeconds" : 96.9632909625,
      "channel" : 0,
      "noteNumber" : 74,
      "noteName" : "D5",
      "velocity" : 51,
      "durationTicks" : 107,
      "durationSeconds" : 0.23060327916667234
    }, {
      "type" : "note",
      "tick" : 45101,
      "timeSeconds" : 97.20035975416667,
      "channel" : 0,
      "noteNumber" : 77,
      "noteName" : "F5",
      "velocity" : 48,
      "durationTicks" : 39,
      "durationSeconds" : 0.08405166250000207
    }, {
      "type" : "note",
      "tick" : 45121,
      "timeSeconds" : 97.24346317083334,
      "channel" : 0,
      "noteNumber" : 79,
      "noteName" : "G5",
      "velocity" : 67,
      "durationTicks" : 482,
      "durationSeconds" : 1.0387923416666638
    }, {
      "type" : "note",
      "tick" : 45587,
      "timeSeconds" : 98.24777277916667,
      "channel" : 0,
      "noteNumber" : 77,
      "noteName" : "F5",
      "velocity" : 64,
      "durationTicks" : 372,
      "durationSeconds" : 0.8017235500000055
    }, {
      "type" : "note",
      "tick" : 45954,
      "timeSeconds" : 99.038720475,
      "channel" : 0,
      "noteNumber" : 79,
      "noteName" : "G5",
      "velocity" : 66,
      "durationTicks" : 56,
      "durationSeconds" : 0.12068956666665542
    }, {
      "type" : "note",
      "tick" : 46000,
      "timeSeconds" : 99.13785833333333,
      "channel" : 0,
      "noteNumber" : 77,
      "noteName" : "F5",
      "velocity" : 66,
      "durationTicks" : 29,
      "durationSeconds" : 0.062499954166668203
    }, {
      "type" : "note",
      "tick" : 46022,
      "timeSeconds" : 99.18527209166666,
      "channel" : 0,
      "noteNumber" : 74,
      "noteName" : "D5",
      "velocity" : 53,
      "durationTicks" : 675,
      "durationSeconds" : 1.4547403125000073
    }, {
      "type" : "note",
      "tick" : 46965,
      "timeSeconds" : 101.2175981875,
      "channel" : 0,
      "noteNumber" : 77,
      "noteName" : "F5",
      "velocity" : 39,
      "durationTicks" : 58,
      "durationSeconds" : 0.12499990833333641
    }, {
      "type" : "note",
      "tick" : 46987,
      "timeSeconds" : 101.26501194583334,
      "channel" : 0,
      "noteNumber" : 79,
      "noteName" : "G5",
      "velocity" : 81,
      "durationTicks" : 41,
      "durationSeconds" : 0.08836200416666884
    }, {
      "type" : "note",
      "tick" : 46985,
      "timeSeconds" : 101.26070160416667,
      "channel" : 0,
      "noteNumber" : 84,
      "noteName" : "C6",
      "velocity" : 56,
      "durationTicks" : 45,
      "durationSeconds" : 0.09698268750000238
    }, {
      "type" : "note",
      "tick" : 47022,
      "timeSeconds" : 101.340442925,
      "channel" : 0,
      "noteNumber" : 81,
      "noteName" : "A5",
      "velocity" : 51,
      "durationTicks" : 12,
      "durationSeconds" : 0.025862050000000636
    }, {
      "type" : "note",
      "tick" : 47016,
      "timeSeconds" : 101.3275119,
      "channel" : 0,
      "noteNumber" : 86,
      "noteName" : "D6",
      "velocity" : 63,
      "durationTicks" : 37,
      "durationSeconds" : 0.0797413208333353
    }, {
      "type" : "note",
      "tick" : 47031,
      "timeSeconds" : 101.3598394625,
      "channel" : 0,
      "noteNumber" : 88,
      "noteName" : "E6",
      "velocity" : 73,
      "durationTicks" : 31,
      "durationSeconds" : 0.06681029583333498
    }, {
      "type" : "note",
      "tick" : 47056,
      "timeSeconds" : 101.41371873333334,
      "channel" : 0,
      "noteNumber" : 89,
      "noteName" : "F6",
      "velocity" : 94,
      "durationTicks" : 68,
      "durationSeconds" : 0.14655161666665606
    }, {
      "type" : "note",
      "tick" : 47283,
      "timeSeconds" : 101.9029425125,
      "channel" : 0,
      "noteNumber" : 86,
      "noteName" : "D6",
      "velocity" : 94,
      "durationTicks" : 68,
      "durationSeconds" : 0.14655161666665606
    }, {
      "type" : "note",
      "tick" : 47509,
      "timeSeconds" : 102.39001112083334,
      "channel" : 0,
      "noteNumber" : 80,
      "noteName" : "G#5",
      "velocity" : 73,
      "durationTicks" : 238,
      "durationSeconds" : 0.5129306583333317
    }, {
      "type" : "note",
      "tick" : 47758,
      "timeSeconds" : 102.92664865833333,
      "channel" : 0,
      "noteNumber" : 79,
      "noteName" : "G5",
      "velocity" : 79,
      "durationTicks" : 117,
      "durationSeconds" : 0.252154987499992
    }, {
      "type" : "note",
      "tick" : 47880,
      "timeSeconds" : 103.1895795,
      "channel" : 0,
      "noteNumber" : 77,
      "noteName" : "F5",
      "velocity" : 59,
      "durationTicks" : 238,
      "durationSeconds" : 0.512930658333346
    }, {
      "type" : "note",
      "tick" : 48125,
      "timeSeconds" : 103.71759635416667,
      "channel" : 0,
      "noteNumber" : 74,
      "noteName" : "D5",
      "velocity" : 62,
      "durationTicks" : 105,
      "durationSeconds" : 0.22629293749999135
    }, {
      "type" : "note",
      "tick" : 48226,
      "timeSeconds" : 103.93526860833333,
      "channel" : 0,
      "noteNumber" : 77,
      "noteName" : "F5",
      "velocity" : 73,
      "durationTicks" : 107,
      "durationSeconds" : 0.23060327916667234
    }, {
      "type" : "note",
      "tick" : 48334,
      "timeSeconds" : 104.16802705833334,
      "channel" : 0,
      "noteNumber" : 80,
      "noteName" : "G#5",
      "velocity" : 87,
      "durationTicks" : 110,
      "durationSeconds" : 0.23706879166665829
    }, {
      "type" : "note",
      "tick" : 48460,
      "timeSeconds" : 104.43957858333333,
      "channel" : 0,
      "noteNumber" : 79,
      "noteName" : "G5",
      "velocity" : 104,
      "durationTicks" : 36,
      "durationSeconds" : 0.07758615000000191
    }, {
      "type" : "note",
      "tick" : 48489,
      "timeSeconds" : 104.5020785375,
      "channel" : 0,
      "noteNumber" : 80,
      "noteName" : "G#5",
      "velocity" : 83,
      "durationTicks" : 39,
      "durationSeconds" : 0.08405166250000207
    }, {
      "type" : "note",
      "tick" : 48518,
      "timeSeconds" : 104.56457849166667,
      "channel" : 0,
      "noteNumber" : 79,
      "noteName" : "G5",
      "velocity" : 101,
      "durationTicks" : 195,
      "durationSeconds" : 0.4202583124999961
    }, {
      "type" : "note",
      "tick" : 48718,
      "timeSeconds" : 104.99561265833333,
      "channel" : 0,
      "noteNumber" : 74,
      "noteName" : "D5",
      "velocity" : 57,
      "durationTicks" : 122,
      "durationSeconds" : 0.26293084166667313
    }, {
      "type" : "note",
      "tick" : 48837,
      "timeSeconds" : 105.2520779875,
      "channel" : 0,
      "noteNumber" : 77,
      "noteName" : "F5",
      "velocity" : 79,
      "durationTicks" : 123,
      "durationSeconds" : 0.2650860124999923
    } ]
  }, {
    "index" : 2,
    "name" : "",
    "programChanges" : [ {
      "tick" : 2,
      "channel" : 1,
      "program" : 35
    } ],
    "events" : [ {
      "type" : "meta",
      "tick" : 0,
      "timeSeconds" : 0.0,
      "text" : "track_name: "
    }, {
      "type" : "control_change",
      "tick" : 0,
      "timeSeconds" : 0.0,
      "channel" : 1,
      "controller" : 7,
      "value" : 93
    }, {
      "type" : "control_change",
      "tick" : 0,
      "timeSeconds" : 0.0,
      "channel" : 1,
      "controller" : 10,
      "value" : 64
    }, {
      "type" : "control_change",
      "tick" : 0,
      "timeSeconds" : 0.0,
      "channel" : 1,
      "controller" : 0,
      "value" : 0
    }, {
      "type" : "control_change",
      "tick" : 0,
      "timeSeconds" : 0.0,
      "channel" : 1,
      "controller" : 91,
      "value" : 0
    }, {
      "type" : "control_change",
      "tick" : 0,
      "timeSeconds" : 0.0,
      "channel" : 1,
      "controller" : 1,
      "value" : 0
    }, {
      "type" : "control_change",
      "tick" : 0,
      "timeSeconds" : 0.0,
      "channel" : 1,
      "controller" : 94,
      "value" : 0
    }, {
      "type" : "control_change",
      "tick" : 0,
      "timeSeconds" : 0.0,
      "channel" : 1,
      "controller" : 93,
      "value" : 18
    }, {
      "type" : "control_change",
      "tick" : 0,
      "timeSeconds" : 0.0,
      "channel" : 1,
      "controller" : 11,
      "value" : 127
    }, {
      "type" : "control_change",
      "tick" : 0,
      "timeSeconds" : 0.0,
      "channel" : 1,
      "controller" : 121,
      "value" : 0
    }, {
      "type" : "control_change",
      "tick" : 2,
      "timeSeconds" : 0.004310341666666667,
      "channel" : 1,
      "controller" : 32,
      "value" : 0
    }, {
      "type" : "control_change",
      "tick" : 2,
      "timeSeconds" : 0.004310341666666667,
      "channel" : 1,
      "controller" : 0,
      "value" : 0
    }, {
      "type" : "control_change",
      "tick" : 2,
      "timeSeconds" : 0.004310341666666667,
      "channel" : 1,
      "controller" : 32,
      "value" : 0
    }, {
      "type" : "note",
      "tick" : 660,
      "timeSeconds" : 1.42241275,
      "channel" : 1,
      "noteNumber" : 42,
      "noteName" : "F#2",
      "velocity" : 95,
      "durationTicks" : 16,
      "durationSeconds" : 0.034482733333333515
    }, {
      "type" : "note",
      "tick" : 720,
      "timeSeconds" : 1.551723,
      "channel" : 1,
      "noteNumber" : 30,
      "noteName" : "F#1",
      "velocity" : 127,
      "durationTicks" : 202,
      "durationSeconds" : 0.4353445083333334
    }, {
      "type" : "note",
      "tick" : 1200,
      "timeSeconds" : 2.586205,
      "channel" : 1,
      "noteNumber" : 31,
      "noteName" : "G1",
      "velocity" : 104,
      "durationTicks" : 98,
      "durationSeconds" : 0.21120674166666653
    }, {
      "type" : "note",
      "tick" : 1320,
      "timeSeconds" : 2.8448255,
      "channel" : 1,
      "noteNumber" : 31,
      "noteName" : "G1",
      "velocity" : 117,
      "durationTicks" : 80,
      "durationSeconds" : 0.1724136666666669
    }, {
      "type" : "note",
      "tick" : 1680,
      "timeSeconds" : 3.620687,
      "channel" : 1,
      "noteNumber" : 37,
      "noteName" : "C#2",
      "velocity" : 76,
      "durationTicks" : 93,
      "durationSeconds" : 0.2004308874999996
    }, {
      "type" : "note",
      "tick" : 1800,
      "timeSeconds" : 3.8793075,
      "channel" : 1,
      "noteNumber" : 37,
      "noteName" : "C#2",
      "velocity" : 87,
      "durationTicks" : 102,
      "durationSeconds" : 0.21982742500000052
    }, {
      "type" : "note",
      "tick" : 2160,
      "timeSeconds" : 4.655169,
      "channel" : 1,
      "noteNumber" : 38,
      "noteName" : "D2",
      "velocity" : 104,
      "durationTicks" : 81,
      "durationSeconds" : 0.17456883749999985
    }, {
      "type" : "note",
      "tick" : 2280,
      "timeSeconds" : 4.9137895,
      "channel" : 1,
      "noteNumber" : 38,
      "noteName" : "D2",
      "velocity" : 122,
      "durationTicks" : 74,
      "durationSeconds" : 0.15948264166666704
    }, {
      "type" : "note",
      "tick" : 2640,
      "timeSeconds" : 5.689651,
      "channel" : 1,
      "noteNumber" : 42,
      "noteName" : "F#2",
      "velocity" : 91,
      "durationTicks" : 93,
      "durationSeconds" : 0.2004308875000005
    }, {
      "type" : "note",
      "tick" : 2760,
      "timeSeconds" : 5.9482715,
      "channel" : 1,
      "noteNumber" : 42,
      "noteName" : "F#2",
      "velocity" : 91,
      "durationTicks" : 101,
      "durationSeconds" : 0.2176722541666667
    }, {
      "type" : "note",
      "tick" : 3120,
      "timeSeconds" : 6.724133,
      "channel" : 1,
      "noteNumber" : 43,
      "noteName" : "G2",
      "velocity" : 104,
      "durationTicks" : 98,
      "durationSeconds" : 0.21120674166666653
    }, {
      "type" : "note",
      "tick" : 3240,
      "timeSeconds" : 6.9827535,
      "channel" : 1,
      "noteNumber" : 43,
      "noteName" : "G2",
      "velocity" : 108,
      "durationTicks" : 85,
      "durationSeconds" : 0.1831895208333334
    }, {
      "type" : "note",
      "tick" : 3600,
      "timeSeconds" : 7.758615,
      "channel" : 1,
      "noteNumber" : 37,
      "noteName" : "C#2",
      "velocity" : 95,
      "durationTicks" : 91,
      "durationSeconds" : 0.19612054583333371
    }, {
      "type" : "note",
      "tick" : 3720,
      "timeSeconds" : 8.0172355,
      "channel" : 1,
      "noteNumber" : 37,
      "noteName" : "C#2",
      "velocity" : 80,
      "durationTicks" : 96,
      "durationSeconds" : 0.20689639999999976
    }, {
      "type" : "note",
      "tick" : 4080,
      "timeSeconds" : 8.793097,
      "channel" : 1,
      "noteNumber" : 38,
      "noteName" : "D2",
      "velocity" : 108,
      "durationTicks" : 80,
      "durationSeconds" : 0.17241366666666735
    }, {
      "type" : "note",
      "tick" : 4200,
      "timeSeconds" : 9.0517175,
      "channel" : 1,
      "noteNumber" : 38,
      "noteName" : "D2",
      "velocity" : 104,
      "durationTicks" : 97,
      "durationSeconds" : 0.20905157083333314
    }, {
      "type" : "note",
      "tick" : 4500,
      "timeSeconds" : 9.69826875,
      "channel" : 1,
      "noteNumber" : 42,
      "noteName" : "F#2",
      "velocity" : 104,
      "durationTicks" : 13,
      "durationSeconds" : 0.028017220833332246
    }, {
      "type" : "note",
      "tick" : 4560,
      "timeSeconds" : 9.827579,
      "channel" : 1,
      "noteNumber" : 30,
      "noteName" : "F#1",
      "velocity" : 91,
      "durationTicks" : 56,
      "durationSeconds" : 0.12068956666666608
    }, {
      "type" : "note",
      "tick" : 4680,
      "timeSeconds" : 10.0861995,
      "channel" : 1,
      "noteNumber" : 30,
      "noteName" : "F#1",
      "velocity" : 100,
      "durationTicks" : 111,
      "durationSeconds" : 0.23922396250000055
    }, {
      "type" : "note",
      "tick" : 5040,
      "timeSeconds" : 10.862061,
      "channel" : 1,
      "noteNumber" : 31,
      "noteName" : "G1",
      "velocity" : 117,
      "durationTicks" : 85,
      "durationSeconds" : 0.1831895208333325
    }, {
      "type" : "note",
      "tick" : 5160,
      "timeSeconds" : 11.1206815,
      "channel" : 1,
      "noteNumber" : 31,
      "noteName" : "G1",
      "velocity" : 113,
      "durationTicks" : 87,
      "durationSeconds" : 0.18749986249999928
    }, {
      "type" : "note",
      "tick" : 5520,
      "timeSeconds" : 11.896543,
      "channel" : 1,
      "noteNumber" : 37,
      "noteName" : "C#2",
      "velocity" : 80,
      "durationTicks" : 78,
      "durationSeconds" : 0.16810332500000058
    }, {
      "type" : "note",
      "tick" : 5640,
      "timeSeconds" : 12.1551635,
      "channel" : 1,
      "noteNumber" : 37,
      "noteName" : "C#2",
      "velocity" : 95,
      "durationTicks" : 95,
      "durationSeconds" : 0.20474122916666637
    }, {
      "type" : "note",
      "tick" : 6000,
      "timeSeconds" : 12.931025,
      "channel" : 1,
      "noteNumber" : 38,
      "noteName" : "D2",
      "velocity" : 113,
      "durationTicks" : 79,
      "durationSeconds" : 0.17025849583333397
    }, {
      "type" : "note",
      "tick" : 6120,
      "timeSeconds" : 13.1896455,
      "channel" : 1,
      "noteNumber" : 38,
      "noteName" : "D2",
      "velocity" : 104,
      "durationTicks" : 111,
      "durationSeconds" : 0.23922396250000055
    }, {
      "type" : "note",
      "tick" : 6480,
      "timeSeconds" : 13.965507,
      "channel" : 1,
      "noteNumber" : 41,
      "noteName" : "F2",
      "velocity" : 104,
      "durationTicks" : 100,
      "durationSeconds" : 0.2155170833333333
    }, {
      "type" : "note",
      "tick" : 6600,
      "timeSeconds" : 14.2241275,
      "channel" : 1,
      "noteNumber" : 41,
      "noteName" : "F2",
      "velocity" : 101,
      "durationTicks" : 75,
      "durationSeconds" : 0.16163781250000042
    }, {
      "type" : "note",
      "tick" : 6960,
      "timeSeconds" : 14.999989,
      "channel" : 1,
      "noteNumber" : 34,
      "noteName" : "A#1",
      "velocity" : 73,
      "durationTicks" : 89,
      "durationSeconds" : 0.19181020416666783
    }, {
      "type" : "note",
      "tick" : 7080,
      "timeSeconds" : 15.2586095,
      "channel" : 1,
      "noteNumber" : 34,
      "noteName" : "A#1",
      "velocity" : 100,
      "durationTicks" : 98,
      "durationSeconds" : 0.21120674166666653
    }, {
      "type" : "note",
      "tick" : 7440,
      "timeSeconds" : 16.034471,
      "channel" : 1,
      "noteNumber" : 33,
      "noteName" : "A1",
      "velocity" : 122,
      "durationTicks" : 78,
      "durationSeconds" : 0.16810332500000058
    }, {
      "type" : "note",
      "tick" : 7560,
      "timeSeconds" : 16.2930915,
      "channel" : 1,
      "noteNumber" : 33,
      "noteName" : "A1",
      "velocity" : 108,
      "durationTicks" : 92,
      "durationSeconds" : 0.198275716666668
    }, {
      "type" : "note",
      "tick" : 7920,
      "timeSeconds" : 17.068953,
      "channel" : 1,
      "noteNumber" : 38,
      "noteName" : "D2",
      "velocity" : 104,
      "durationTicks" : 55,
      "durationSeconds" : 0.1185343958333327
    }, {
      "type" : "note",
      "tick" : 7920,
      "timeSeconds" : 17.068953,
      "channel" : 1,
      "noteNumber" : 36,
      "noteName" : "C2",
      "velocity" : 101,
      "durationTicks" : 59,
      "durationSeconds" : 0.12715507916666624
    }, {
      "type" : "note",
      "tick" : 8040,
      "timeSeconds" : 17.3275735,
      "channel" : 1,
      "noteNumber" : 38,
      "noteName" : "D2",
      "velocity" : 117,
      "durationTicks" : 167,
      "durationSeconds" : 0.3599135291666684
    }, {
      "type" : "note",
      "tick" : 8340,
      "timeSeconds" : 17.97412475,
      "channel" : 1,
      "noteNumber" : 45,
      "noteName" : "A2",
      "velocity" : 127,
      "durationTicks" : 16,
      "durationSeconds" : 0.03448273333333063
    }, {
      "type" : "note",
      "tick" : 8400,
      "timeSeconds" : 18.103435,
      "channel" : 1,
      "noteNumber" : 38,
      "noteName" : "D2",
      "velocity" : 127,
      "durationTicks" : 108,
      "durationSeconds" : 0.23275844999999862
    }, {
      "type" : "note",
      "tick" : 8520,
      "timeSeconds" : 18.3620555,
      "channel" : 1,
      "noteNumber" : 45,
      "noteName" : "A2",
      "velocity" : 127,
      "durationTicks" : 54,
      "durationSeconds" : 0.11637922499999931
    }, {
      "type" : "note",
      "tick" : 8880,
      "timeSeconds" : 19.137917,
      "channel" : 1,
      "noteNumber" : 31,
      "noteName" : "G1",
      "velocity" : 122,
      "durationTicks" : 82,
      "durationSeconds" : 0.17672400833333057
    }, {
      "type" : "note",
      "tick" : 9000,
      "timeSeconds" : 19.3965375,
      "channel" : 1,
      "noteNumber" : 31,
      "noteName" : "G1",
      "velocity" : 117,
      "durationTicks" : 88,
      "durationSeconds" : 0.1896550333333309
    }, {
      "type" : "note",
      "tick" : 9360,
      "timeSeconds" : 20.172399,
      "channel" : 1,
      "noteNumber" : 37,
      "noteName" : "C#2",
      "velocity" : 104,
      "durationTicks" : 76,
      "durationSeconds" : 0.1637929833333338
    }, {
      "type" : "note",
      "tick" : 9480,
      "timeSeconds" : 20.4310195,
      "channel" : 1,
      "noteNumber" : 37,
      "noteName" : "C#2",
      "velocity" : 104,
      "durationTicks" : 82,
      "durationSeconds" : 0.17672400833333057
    }, {
      "type" : "note",
      "tick" : 9840,
      "timeSeconds" : 21.206881,
      "channel" : 1,
      "noteNumber" : 38,
      "noteName" : "D2",
      "velocity" : 122,
      "durationTicks" : 77,
      "durationSeconds" : 0.1659481541666672
    }, {
      "type" : "note",
      "tick" : 9960,
      "timeSeconds" : 21.4655015,
      "channel" : 1,
      "noteNumber" : 38,
      "noteName" : "D2",
      "velocity" : 122,
      "durationTicks" : 83,
      "durationSeconds" : 0.1788791791666675
    }, {
      "type" : "note",
      "tick" : 10260,
      "timeSeconds" : 22.11205275,
      "channel" : 1,
      "noteNumber" : 42,
      "noteName" : "F#2",
      "velocity" : 100,
      "durationTicks" : 19,
      "durationSeconds" : 0.04094824583333434
    }, {
      "type" : "note",
      "tick" : 10320,
      "timeSeconds" : 22.241363,
      "channel" : 1,
      "noteNumber" : 30,
      "noteName" : "F#1",
      "velocity" : 104,
      "durationTicks" : 83,
      "durationSeconds" : 0.1788791791666675
    }, {
      "type" : "note",
      "tick" : 10440,
      "timeSeconds" : 22.4999835,
      "channel" : 1,
      "noteNumber" : 30,
      "noteName" : "F#1",
      "velocity" : 104,
      "durationTicks" : 101,
      "durationSeconds" : 0.21767225416666847
    }, {
      "type" : "note",
      "tick" : 10800,
      "timeSeconds" : 23.275845,
      "channel" : 1,
      "noteNumber" : 31,
      "noteName" : "G1",
      "velocity" : 122,
      "durationTicks" : 76,
      "durationSeconds" : 0.1637929833333338
    }, {
      "type" : "note",
      "tick" : 10920,
      "timeSeconds" : 23.5344655,
      "channel" : 1,
      "noteNumber" : 31,
      "noteName" : "G1",
      "velocity" : 117,
      "durationTicks" : 100,
      "durationSeconds" : 0.21551708333333508
    }, {
      "type" : "note",
      "tick" : 11280,
      "timeSeconds" : 24.310327,
      "channel" : 1,
      "noteNumber" : 37,
      "noteName" : "C#2",
      "velocity" : 104,
      "durationTicks" : 80,
      "durationSeconds" : 0.17241366666666735
    }, {
      "type" : "note",
      "tick" : 11400,
      "timeSeconds" : 24.5689475,
      "channel" : 1,
      "noteNumber" : 37,
      "noteName" : "C#2",
      "velocity" : 100,
      "durationTicks" : 91,
      "durationSeconds" : 0.1961205458333346
    }, {
      "type" : "note",
      "tick" : 11760,
      "timeSeconds" : 25.344809,
      "channel" : 1,
      "noteNumber" : 38,
      "noteName" : "D2",
      "velocity" : 117,
      "durationTicks" : 85,
      "durationSeconds" : 0.18318952083333073
    }, {
      "type" : "note",
      "tick" : 11880,
      "timeSeconds" : 25.6034295,
      "channel" : 1,
      "noteNumber" : 38,
      "noteName" : "D2",
      "velocity" : 122,
      "durationTicks" : 87,
      "durationSeconds" : 0.1874998624999975
    }, {
      "type" : "note",
      "tick" : 12180,
      "timeSeconds" : 26.24998075,
      "channel" : 1,
      "noteNumber" : 42,
      "noteName" : "F#2",
      "velocity" : 104,
      "durationTicks" : 12,
      "durationSeconds" : 0.025862050000000636
    }, {
      "type" : "note",
      "tick" : 12240,
      "timeSeconds" : 26.379291,
      "channel" : 1,
      "noteNumber" : 30,
      "noteName" : "F#1",
      "velocity" : 104,
      "durationTicks" : 107,
      "durationSeconds" : 0.23060327916666878
    }, {
      "type" : "note",
      "tick" : 12360,
      "timeSeconds" : 26.6379115,
      "channel" : 1,
      "noteNumber" : 42,
      "noteName" : "F#2",
      "velocity" : 104,
      "durationTicks" : 56,
      "durationSeconds" : 0.12068956666666608
    }, {
      "type" : "note",
      "tick" : 12720,
      "timeSeconds" : 27.413773,
      "channel" : 1,
      "noteNumber" : 31,
      "noteName" : "G1",
      "velocity" : 122,
      "durationTicks" : 88,
      "durationSeconds" : 0.18965503333333444
    }, {
      "type" : "note",
      "tick" : 12840,
      "timeSeconds" : 27.6723935,
      "channel" : 1,
      "noteNumber" : 31,
      "noteName" : "G1",
      "velocity" : 113,
      "durationTicks" : 84,
      "durationSeconds" : 0.1810343500000009
    }, {
      "type" : "note",
      "tick" : 13200,
      "timeSeconds" : 28.448255,
      "channel" : 1,
      "noteNumber" : 37,
      "noteName" : "C#2",
      "velocity" : 80,
      "durationTicks" : 82,
      "durationSeconds" : 0.17672400833333413
    }, {
      "type" : "note",
      "tick" : 13320,
      "timeSeconds" : 28.7068755,
      "channel" : 1,
      "noteNumber" : 37,
      "noteName" : "C#2",
      "velocity" : 95,
      "durationTicks" : 77,
      "durationSeconds" : 0.1659481541666672
    }, {
      "type" : "note",
      "tick" : 13620,
      "timeSeconds" : 29.35342675,
      "channel" : 1,
      "noteNumber" : 49,
      "noteName" : "C#3",
      "velocity" : 83,
      "durationTicks" : 9,
      "durationSeconds" : 0.019396537500000477
    }, {
      "type" : "note",
      "tick" : 13680,
      "timeSeconds" : 29.482737,
      "channel" : 1,
      "noteNumber" : 37,
      "noteName" : "C#2",
      "velocity" : 91,
      "durationTicks" : 121,
      "durationSeconds" : 0.26077567083333264
    }, {
      "type" : "note",
      "tick" : 13800,
      "timeSeconds" : 29.7413575,
      "channel" : 1,
      "noteNumber" : 38,
      "noteName" : "D2",
      "velocity" : 108,
      "durationTicks" : 92,
      "durationSeconds" : 0.198275716666668
    }, {
      "type" : "note",
      "tick" : 14160,
      "timeSeconds" : 30.517219,
      "channel" : 1,
      "noteNumber" : 29,
      "noteName" : "F1",
      "velocity" : 86,
      "durationTicks" : 77,
      "durationSeconds" : 0.1659481541666672
    }, {
      "type" : "note",
      "tick" : 14280,
      "timeSeconds" : 30.7758395,
      "channel" : 1,
      "noteNumber" : 29,
      "noteName" : "F1",
      "velocity" : 113,
      "durationTicks" : 88,
      "durationSeconds" : 0.18965503333333444
    }, {
      "type" : "note",
      "tick" : 14640,
      "timeSeconds" : 31.551701,
      "channel" : 1,
      "noteNumber" : 34,
      "noteName" : "A#1",
      "velocity" : 91,
      "durationTicks" : 77,
      "durationSeconds" : 0.16594815416666364
    }, {
      "type" : "note",
      "tick" : 14760,
      "timeSeconds" : 31.8103215,
      "channel" : 1,
      "noteNumber" : 34,
      "noteName" : "A#1",
      "velocity" : 87,
      "durationTicks" : 69,
      "durationSeconds" : 0.1487067875000001
    }, {
      "type" : "note",
      "tick" : 15120,
      "timeSeconds" : 32.586183,
      "channel" : 1,
      "noteNumber" : 33,
      "noteName" : "A1",
      "velocity" : 113,
      "durationTicks" : 81,
      "durationSeconds" : 0.1745688375000043
    }, {
      "type" : "note",
      "tick" : 15240,
      "timeSeconds" : 32.8448035,
      "channel" : 1,
      "noteNumber" : 33,
      "noteName" : "A1",
      "velocity" : 101,
      "durationTicks" : 74,
      "durationSeconds" : 0.1594826416666706
    }, {
      "type" : "note",
      "tick" : 15480,
      "timeSeconds" : 33.3620445,
      "channel" : 1,
      "noteNumber" : 38,
      "noteName" : "D2",
      "velocity" : 127,
      "durationTicks" : 55,
      "durationSeconds" : 0.11853439583332914
    }, {
      "type" : "note",
      "tick" : 15720,
      "timeSeconds" : 33.8792855,
      "channel" : 1,
      "noteNumber" : 38,
      "noteName" : "D2",
      "velocity" : 122,
      "durationTicks" : 201,
      "durationSeconds" : 0.43318933749999644
    }, {
      "type" : "note",
      "tick" : 16080,
      "timeSeconds" : 34.655147,
      "channel" : 1,
      "noteNumber" : 38,
      "noteName" : "D2",
      "velocity" : 59,
      "durationTicks" : 9,
      "durationSeconds" : 0.019396537500000477
    }, {
      "type" : "note",
      "tick" : 16320,
      "timeSeconds" : 35.172388,
      "channel" : 1,
      "noteNumber" : 31,
      "noteName" : "G1",
      "velocity" : 62,
      "durationTicks" : 26,
      "durationSeconds" : 0.056034441666668044
    }, {
      "type" : "note",
      "tick" : 16560,
      "timeSeconds" : 35.689629,
      "channel" : 1,
      "noteNumber" : 31,
      "noteName" : "G1",
      "velocity" : 104,
      "durationTicks" : 76,
      "durationSeconds" : 0.16379298333333736
    }, {
      "type" : "note",
      "tick" : 16680,
      "timeSeconds" : 35.9482495,
      "channel" : 1,
      "noteNumber" : 31,
      "noteName" : "G1",
      "velocity" : 113,
      "durationTicks" : 96,
      "durationSeconds" : 0.20689639999999798
    }, {
      "type" : "note",
      "tick" : 17040,
      "timeSeconds" : 36.724111,
      "channel" : 1,
      "noteNumber" : 37,
      "noteName" : "C#2",
      "velocity" : 87,
      "durationTicks" : 79,
      "durationSeconds" : 0.17025849583333041
    }, {
      "type" : "note",
      "tick" : 17160,
      "timeSeconds" : 36.9827315,
      "channel" : 1,
      "noteNumber" : 37,
      "noteName" : "C#2",
      "velocity" : 83,
      "durationTicks" : 92,
      "durationSeconds" : 0.19827571666666444
    }, {
      "type" : "note",
      "tick" : 17520,
      "timeSeconds" : 37.758593,
      "channel" : 1,
      "noteNumber" : 38,
      "noteName" : "D2",
      "velocity" : 91,
      "durationTicks" : 95,
      "durationSeconds" : 0.2047412291666717
    }, {
      "type" : "note",
      "tick" : 17640,
      "timeSeconds" : 38.0172135,
      "channel" : 1,
      "noteNumber" : 38,
      "noteName" : "D2",
      "velocity" : 97,
      "durationTicks" : 71,
      "durationSeconds" : 0.15301712916667043
    }, {
      "type" : "note",
      "tick" : 17940,
      "timeSeconds" : 38.66376475,
      "channel" : 1,
      "noteNumber" : 41,
      "noteName" : "F2",
      "velocity" : 113,
      "durationTicks" : 22,
      "durationSeconds" : 0.0474137583333345
    }, {
      "type" : "note",
      "tick" : 18000,
      "timeSeconds" : 38.793075,
      "channel" : 1,
      "noteNumber" : 29,
      "noteName" : "F1",
      "velocity" : 122,
      "durationTicks" : 112,
      "durationSeconds" : 0.24137913333333216
    }, {
      "type" : "note",
      "tick" : 18120,
      "timeSeconds" : 39.0516955,
      "channel" : 1,
      "noteNumber" : 41,
      "noteName" : "F2",
      "velocity" : 122,
      "durationTicks" : 60,
      "durationSeconds" : 0.12931024999999607
    }, {
      "type" : "note",
      "tick" : 18480,
      "timeSeconds" : 39.827557,
      "channel" : 1,
      "noteNumber" : 34,
      "noteName" : "A#1",
      "velocity" : 95,
      "durationTicks" : 95,
      "durationSeconds" : 0.2047412291666646
    }, {
      "type" : "note",
      "tick" : 18600,
      "timeSeconds" : 40.0861775,
      "channel" : 1,
      "noteNumber" : 34,
      "noteName" : "A#1",
      "velocity" : 91,
      "durationTicks" : 72,
      "durationSeconds" : 0.15517230000000382
    }, {
      "type" : "note",
      "tick" : 18960,
      "timeSeconds" : 40.862039,
      "channel" : 1,
      "noteNumber" : 33,
      "noteName" : "A1",
      "velocity" : 94,
      "durationTicks" : 91,
      "durationSeconds" : 0.19612054583333105
    }, {
      "type" : "note",
      "tick" : 19080,
      "timeSeconds" : 41.1206595,
      "channel" : 1,
      "noteNumber" : 33,
      "noteName" : "A1",
      "velocity" : 108,
      "durationTicks" : 89,
      "durationSeconds" : 0.19181020416666428
    }, {
      "type" : "note",
      "tick" : 19440,
      "timeSeconds" : 41.896521,
      "channel" : 1,
      "noteNumber" : 38,
      "noteName" : "D2",
      "velocity" : 97,
      "durationTicks" : 75,
      "durationSeconds" : 0.16163781249999687
    }, {
      "type" : "note",
      "tick" : 19560,
      "timeSeconds" : 42.1551415,
      "channel" : 1,
      "noteNumber" : 38,
      "noteName" : "D2",
      "velocity" : 108,
      "durationTicks" : 78,
      "durationSeconds" : 0.16810332500000413
    }, {
      "type" : "note",
      "tick" : 19860,
      "timeSeconds" : 42.80169275,
      "channel" : 1,
      "noteNumber" : 50,
      "noteName" : "D3",
      "velocity" : 77,
      "durationTicks" : 46,
      "durationSeconds" : 0.09913785833333577
    }, {
      "type" : "note",
      "tick" : 19920,
      "timeSeconds" : 42.931003,
      "channel" : 1,
      "noteNumber" : 42,
      "noteName" : "F#2",
      "velocity" : 80,
      "durationTicks" : 86,
      "durationSeconds" : 0.18534469166667122
    }, {
      "type" : "note",
      "tick" : 20040,
      "timeSeconds" : 43.1896235,
      "channel" : 1,
      "noteNumber" : 42,
      "noteName" : "F#2",
      "velocity" : 95,
      "durationTicks" : 84,
      "durationSeconds" : 0.18103434999999735
    }, {
      "type" : "note",
      "tick" : 20400,
      "timeSeconds" : 43.965485,
      "channel" : 1,
      "noteNumber" : 43,
      "noteName" : "G2",
      "velocity" : 94,
      "durationTicks" : 93,
      "durationSeconds" : 0.20043088749999782
    }, {
      "type" : "note",
      "tick" : 20520,
      "timeSeconds" : 44.2241055,
      "channel" : 1,
      "noteNumber" : 43,
      "noteName" : "G2",
      "velocity" : 97,
      "durationTicks" : 58,
      "durationSeconds" : 0.12499990833333641
    }, {
      "type" : "note",
      "tick" : 20760,
      "timeSeconds" : 44.7413465,
      "channel" : 1,
      "noteNumber" : 31,
      "noteName" : "G1",
      "velocity" : 101,
      "durationTicks" : 109,
      "durationSeconds" : 0.234913620833332
    }, {
      "type" : "note",
      "tick" : 20880,
      "timeSeconds" : 44.999967,
      "channel" : 1,
      "noteNumber" : 39,
      "noteName" : "D#2",
      "velocity" : 91,
      "durationTicks" : 68,
      "durationSeconds" : 0.14655161666667027
    }, {
      "type" : "note",
      "tick" : 21000,
      "timeSeconds" : 45.2585875,
      "channel" : 1,
      "noteNumber" : 37,
      "noteName" : "C#2",
      "velocity" : 100,
      "durationTicks" : 74,
      "durationSeconds" : 0.1594826416666706
    }, {
      "type" : "note",
      "tick" : 21360,
      "timeSeconds" : 46.034449,
      "channel" : 1,
      "noteNumber" : 38,
      "noteName" : "D2",
      "velocity" : 113,
      "durationTicks" : 87,
      "durationSeconds" : 0.1874998624999975
    }, {
      "type" : "note",
      "tick" : 21480,
      "timeSeconds" : 46.2930695,
      "channel" : 1,
      "noteNumber" : 38,
      "noteName" : "D2",
      "velocity" : 108,
      "durationTicks" : 71,
      "durationSeconds" : 0.15301712916666332
    }, {
      "type" : "note",
      "tick" : 21780,
      "timeSeconds" : 46.93962075,
      "channel" : 1,
      "noteNumber" : 41,
      "noteName" : "F2",
      "velocity" : 113,
      "durationTicks" : 20,
      "durationSeconds" : 0.04310341666666062
    }, {
      "type" : "note",
      "tick" : 21840,
      "timeSeconds" : 47.068931,
      "channel" : 1,
      "noteNumber" : 29,
      "noteName" : "F1",
      "velocity" : 122,
      "durationTicks" : 91,
      "durationSeconds" : 0.19612054583333105
    }, {
      "type" : "note",
      "tick" : 21960,
      "timeSeconds" : 47.3275515,
      "channel" : 1,
      "noteNumber" : 41,
      "noteName" : "F2",
      "velocity" : 117,
      "durationTicks" : 65,
      "durationSeconds" : 0.1400861041666701
    }, {
      "type" : "note",
      "tick" : 22320,
      "timeSeconds" : 48.103413,
      "channel" : 1,
      "noteNumber" : 34,
      "noteName" : "A#1",
      "velocity" : 91,
      "durationTicks" : 69,
      "durationSeconds" : 0.14870678749999655
    }, {
      "type" : "note",
      "tick" : 22440,
      "timeSeconds" : 48.3620335,
      "channel" : 1,
      "noteNumber" : 34,
      "noteName" : "A#1",
      "velocity" : 95,
      "durationTicks" : 62,
      "durationSeconds" : 0.13362059166666285
    }, {
      "type" : "note",
      "tick" : 22800,
      "timeSeconds" : 49.137895,
      "channel" : 1,
      "noteNumber" : 34,
      "noteName" : "A#1",
      "velocity" : 87,
      "durationTicks" : 40,
      "durationSeconds" : 0.08620683333333545
    }, {
      "type" : "note",
      "tick" : 22920,
      "timeSeconds" : 49.3965155,
      "channel" : 1,
      "noteNumber" : 34,
      "noteName" : "A#1",
      "velocity" : 91,
      "durationTicks" : 79,
      "durationSeconds" : 0.17025849583333041
    }, {
      "type" : "note",
      "tick" : 23280,
      "timeSeconds" : 50.172377,
      "channel" : 1,
      "noteNumber" : 40,
      "noteName" : "E2",
      "velocity" : 108,
      "durationTicks" : 89,
      "durationSeconds" : 0.19181020416667138
    }, {
      "type" : "note",
      "tick" : 23400,
      "timeSeconds" : 50.4309975,
      "channel" : 1,
      "noteNumber" : 40,
      "noteName" : "E2",
      "velocity" : 97,
      "durationTicks" : 65,
      "durationSeconds" : 0.1400861041666701
    }, {
      "type" : "note",
      "tick" : 23700,
      "timeSeconds" : 51.07754875,
      "channel" : 1,
      "noteNumber" : 40,
      "noteName" : "E2",
      "velocity" : 77,
      "durationTicks" : 16,
      "durationSeconds" : 0.03448273333333418
    }, {
      "type" : "note",
      "tick" : 23760,
      "timeSeconds" : 51.206859,
      "channel" : 1,
      "noteNumber" : 30,
      "noteName" : "F#1",
      "velocity" : 87,
      "durationTicks" : 51,
      "durationSeconds" : 0.1099137124999956
    }, {
      "type" : "note",
      "tick" : 23880,
      "timeSeconds" : 51.4654795,
      "channel" : 1,
      "noteNumber" : 30,
      "noteName" : "F#1",
      "velocity" : 95,
      "durationTicks" : 85,
      "durationSeconds" : 0.18318952083333073
    }, {
      "type" : "note",
      "tick" : 24240,
      "timeSeconds" : 52.241341,
      "channel" : 1,
      "noteNumber" : 31,
      "noteName" : "G1",
      "velocity" : 113,
      "durationTicks" : 80,
      "durationSeconds" : 0.1724136666666709
    }, {
      "type" : "note",
      "tick" : 24360,
      "timeSeconds" : 52.4999615,
      "channel" : 1,
      "noteNumber" : 31,
      "noteName" : "G1",
      "velocity" : 113,
      "durationTicks" : 75,
      "durationSeconds" : 0.16163781250000397
    }, {
      "type" : "note",
      "tick" : 24720,
      "timeSeconds" : 53.275823,
      "channel" : 1,
      "noteNumber" : 37,
      "noteName" : "C#2",
      "velocity" : 91,
      "durationTicks" : 88,
      "durationSeconds" : 0.1896550333333309
    }, {
      "type" : "note",
      "tick" : 24840,
      "timeSeconds" : 53.5344435,
      "channel" : 1,
      "noteNumber" : 37,
      "noteName" : "C#2",
      "velocity" : 87,
      "durationTicks" : 76,
      "durationSeconds" : 0.16379298333333026
    }, {
      "type" : "note",
      "tick" : 25200,
      "timeSeconds" : 54.310305,
      "channel" : 1,
      "noteNumber" : 38,
      "noteName" : "D2",
      "velocity" : 101,
      "durationTicks" : 88,
      "durationSeconds" : 0.1896550333333309
    }, {
      "type" : "note",
      "tick" : 25320,
      "timeSeconds" : 54.5689255,
      "channel" : 1,
      "noteNumber" : 38,
      "noteName" : "D2",
      "velocity" : 108,
      "durationTicks" : 87,
      "durationSeconds" : 0.1874998625000046
    }, {
      "type" : "note",
      "tick" : 25680,
      "timeSeconds" : 55.344787,
      "channel" : 1,
      "noteNumber" : 29,
      "noteName" : "F1",
      "velocity" : 108,
      "durationTicks" : 100,
      "durationSeconds" : 0.21551708333333863
    }, {
      "type" : "note",
      "tick" : 25800,
      "timeSeconds" : 55.6034075,
      "channel" : 1,
      "noteNumber" : 41,
      "noteName" : "F2",
      "velocity" : 113,
      "durationTicks" : 71,
      "durationSeconds" : 0.15301712916666332
    }, {
      "type" : "note",
      "tick" : 26160,
      "timeSeconds" : 56.379269,
      "channel" : 1,
      "noteNumber" : 34,
      "noteName" : "A#1",
      "velocity" : 83,
      "durationTicks" : 89,
      "durationSeconds" : 0.19181020416666428
    }, {
      "type" : "note",
      "tick" : 26280,
      "timeSeconds" : 56.6378895,
      "channel" : 1,
      "noteNumber" : 34,
      "noteName" : "A#1",
      "velocity" : 91,
      "durationTicks" : 73,
      "durationSeconds" : 0.1573274708333301
    }, {
      "type" : "note",
      "tick" : 26640,
      "timeSeconds" : 57.413751,
      "channel" : 1,
      "noteNumber" : 33,
      "noteName" : "A1",
      "velocity" : 101,
      "durationTicks" : 79,
      "durationSeconds" : 0.17025849583333752
    }, {
      "type" : "note",
      "tick" : 26760,
      "timeSeconds" : 57.6723715,
      "channel" : 1,
      "noteNumber" : 33,
      "noteName" : "A1",
      "velocity" : 117,
      "durationTicks" : 75,
      "durationSeconds" : 0.16163781250000397
    }, {
      "type" : "note",
      "tick" : 27120,
      "timeSeconds" : 58.448233,
      "channel" : 1,
      "noteNumber" : 38,
      "noteName" : "D2",
      "velocity" : 122,
      "durationTicks" : 83,
      "durationSeconds" : 0.17887917916666396
    }, {
      "type" : "note",
      "tick" : 27240,
      "timeSeconds" : 58.7068535,
      "channel" : 1,
      "noteNumber" : 38,
      "noteName" : "D2",
      "velocity" : 108,
      "durationTicks" : 77,
      "durationSeconds" : 0.16594815416666364
    }, {
      "type" : "note",
      "tick" : 27540,
      "timeSeconds" : 59.35340475,
      "channel" : 1,
      "noteNumber" : 42,
      "noteName" : "F#2",
      "velocity" : 104,
      "durationTicks" : 11,
      "durationSeconds" : 0.02370687916666725
    }, {
      "type" : "note",
      "tick" : 27600,
      "timeSeconds" : 59.482715,
      "channel" : 1,
      "noteNumber" : 30,
      "noteName" : "F#1",
      "velocity" : 104,
      "durationTicks" : 100,
      "durationSeconds" : 0.21551708333333153
    }, {
      "type" : "note",
      "tick" : 27720,
      "timeSeconds" : 59.7413355,
      "channel" : 1,
      "noteNumber" : 42,
      "noteName" : "F#2",
      "velocity" : 104,
      "durationTicks" : 47,
      "durationSeconds" : 0.10129302916666916
    }, {
      "type" : "note",
      "tick" : 28080,
      "timeSeconds" : 60.517197,
      "channel" : 1,
      "noteNumber" : 31,
      "noteName" : "G1",
      "velocity" : 117,
      "durationTicks" : 88,
      "durationSeconds" : 0.1896550333333309
    }, {
      "type" : "note",
      "tick" : 28200,
      "timeSeconds" : 60.7758175,
      "channel" : 1,
      "noteNumber" : 31,
      "noteName" : "G1",
      "velocity" : 117,
      "durationTicks" : 84,
      "durationSeconds" : 0.18103434999999735
    }, {
      "type" : "note",
      "tick" : 28560,
      "timeSeconds" : 61.551679,
      "channel" : 1,
      "noteNumber" : 37,
      "noteName" : "C#2",
      "velocity" : 91,
      "durationTicks" : 92,
      "durationSeconds" : 0.19827571666666444
    }, {
      "type" : "note",
      "tick" : 28680,
      "timeSeconds" : 61.8102995,
      "channel" : 1,
      "noteNumber" : 37,
      "noteName" : "C#2",
      "velocity" : 83,
      "durationTicks" : 101,
      "durationSeconds" : 0.2176722541666649
    }, {
      "type" : "note",
      "tick" : 29040,
      "timeSeconds" : 62.586161,
      "channel" : 1,
      "noteNumber" : 38,
      "noteName" : "D2",
      "velocity" : 117,
      "durationTicks" : 85,
      "durationSeconds" : 0.18318952083333784
    }, {
      "type" : "note",
      "tick" : 29160,
      "timeSeconds" : 62.8447815,
      "channel" : 1,
      "noteNumber" : 38,
      "noteName" : "D2",
      "velocity" : 113,
      "durationTicks" : 84,
      "durationSeconds" : 0.18103434999999735
    }, {
      "type" : "note",
      "tick" : 29520,
      "timeSeconds" : 63.620643,
      "channel" : 1,
      "noteNumber" : 41,
      "noteName" : "F2",
      "velocity" : 101,
      "durationTicks" : 84,
      "durationSeconds" : 0.18103434999999735
    }, {
      "type" : "note",
      "tick" : 29640,
      "timeSeconds" : 63.8792635,
      "channel" : 1,
      "noteNumber" : 41,
      "noteName" : "F2",
      "velocity" : 117,
      "durationTicks" : 85,
      "durationSeconds" : 0.18318952083333073
    }, {
      "type" : "note",
      "tick" : 30000,
      "timeSeconds" : 64.655125,
      "channel" : 1,
      "noteNumber" : 34,
      "noteName" : "A#1",
      "velocity" : 87,
      "durationTicks" : 85,
      "durationSeconds" : 0.18318952083333784
    }, {
      "type" : "note",
      "tick" : 30120,
      "timeSeconds" : 64.9137455,
      "channel" : 1,
      "noteNumber" : 34,
      "noteName" : "A#1",
      "velocity" : 104,
      "durationTicks" : 73,
      "durationSeconds" : 0.157327470833323
    }, {
      "type" : "note",
      "tick" : 30480,
      "timeSeconds" : 65.689607,
      "channel" : 1,
      "noteNumber" : 34,
      "noteName" : "A#1",
      "velocity" : 83,
      "durationTicks" : 56,
      "durationSeconds" : 0.12068956666666963
    }, {
      "type" : "note",
      "tick" : 30600,
      "timeSeconds" : 65.9482275,
      "channel" : 1,
      "noteNumber" : 34,
      "noteName" : "A#1",
      "velocity" : 100,
      "durationTicks" : 70,
      "durationSeconds" : 0.15086195833333704
    }, {
      "type" : "note",
      "tick" : 30960,
      "timeSeconds" : 66.724089,
      "channel" : 1,
      "noteNumber" : 40,
      "noteName" : "E2",
      "velocity" : 108,
      "durationTicks" : 68,
      "durationSeconds" : 0.14655161666665606
    }, {
      "type" : "note",
      "tick" : 31080,
      "timeSeconds" : 66.9827095,
      "channel" : 1,
      "noteNumber" : 40,
      "noteName" : "E2",
      "velocity" : 97,
      "durationTicks" : 87,
      "durationSeconds" : 0.1874998625000046
    }, {
      "type" : "note",
      "tick" : 31380,
      "timeSeconds" : 67.62926075,
      "channel" : 1,
      "noteNumber" : 42,
      "noteName" : "F#2",
      "velocity" : 104,
      "durationTicks" : 9,
      "durationSeconds" : 0.019396537500000477
    }, {
      "type" : "note",
      "tick" : 31440,
      "timeSeconds" : 67.758571,
      "channel" : 1,
      "noteNumber" : 30,
      "noteName" : "F#1",
      "velocity" : 104,
      "durationTicks" : 87,
      "durationSeconds" : 0.1874998624999904
    }, {
      "type" : "note",
      "tick" : 31560,
      "timeSeconds" : 68.0171915,
      "channel" : 1,
      "noteNumber" : 42,
      "noteName" : "F#2",
      "velocity" : 110,
      "durationTicks" : 62,
      "durationSeconds" : 0.13362059166666995
    }, {
      "type" : "note",
      "tick" : 31920,
      "timeSeconds" : 68.793053,
      "channel" : 1,
      "noteNumber" : 31,
      "noteName" : "G1",
      "velocity" : 127,
      "durationTicks" : 65,
      "durationSeconds" : 0.1400861041666701
    }, {
      "type" : "note",
      "tick" : 32040,
      "timeSeconds" : 69.0516735,
      "channel" : 1,
      "noteNumber" : 31,
      "noteName" : "G1",
      "velocity" : 122,
      "durationTicks" : 76,
      "durationSeconds" : 0.16379298333332315
    }, {
      "type" : "note",
      "tick" : 32400,
      "timeSeconds" : 69.827535,
      "channel" : 1,
      "noteNumber" : 37,
      "noteName" : "C#2",
      "velocity" : 110,
      "durationTicks" : 65,
      "durationSeconds" : 0.1400861041666701
    }, {
      "type" : "note",
      "tick" : 32520,
      "timeSeconds" : 70.0861555,
      "channel" : 1,
      "noteNumber" : 37,
      "noteName" : "C#2",
      "velocity" : 110,
      "durationTicks" : 74,
      "durationSeconds" : 0.15948264166665638
    }, {
      "type" : "note",
      "tick" : 32880,
      "timeSeconds" : 70.862017,
      "channel" : 1,
      "noteNumber" : 38,
      "noteName" : "D2",
      "velocity" : 117,
      "durationTicks" : 71,
      "durationSeconds" : 0.15301712916667043
    }, {
      "type" : "note",
      "tick" : 33000,
      "timeSeconds" : 71.1206375,
      "channel" : 1,
      "noteNumber" : 38,
      "noteName" : "D2",
      "velocity" : 122,
      "durationTicks" : 77,
      "durationSeconds" : 0.16594815416667075
    }, {
      "type" : "note",
      "tick" : 33360,
      "timeSeconds" : 71.896499,
      "channel" : 1,
      "noteNumber" : 41,
      "noteName" : "F2",
      "velocity" : 127,
      "durationTicks" : 95,
      "durationSeconds" : 0.2047412291666575
    }, {
      "type" : "note",
      "tick" : 33480,
      "timeSeconds" : 72.1551195,
      "channel" : 1,
      "noteNumber" : 41,
      "noteName" : "F2",
      "velocity" : 117,
      "durationTicks" : 77,
      "durationSeconds" : 0.16594815416667075
    }, {
      "type" : "note",
      "tick" : 33840,
      "timeSeconds" : 72.930981,
      "channel" : 1,
      "noteNumber" : 34,
      "noteName" : "A#1",
      "velocity" : 87,
      "durationTicks" : 58,
      "durationSeconds" : 0.12499990833333641
    }, {
      "type" : "note",
      "tick" : 33960,
      "timeSeconds" : 73.1896015,
      "channel" : 1,
      "noteNumber" : 34,
      "noteName" : "A#1",
      "velocity" : 100,
      "durationTicks" : 80,
      "durationSeconds" : 0.1724136666666709
    }, {
      "type" : "note",
      "tick" : 34320,
      "timeSeconds" : 73.965463,
      "channel" : 1,
      "noteNumber" : 33,
      "noteName" : "A1",
      "velocity" : 127,
      "durationTicks" : 63,
      "durationSeconds" : 0.13577576250000334
    }, {
      "type" : "note",
      "tick" : 34440,
      "timeSeconds" : 74.2240835,
      "channel" : 1,
      "noteNumber" : 33,
      "noteName" : "A1",
      "velocity" : 127,
      "durationTicks" : 79,
      "durationSeconds" : 0.1702584958333233
    }, {
      "type" : "note",
      "tick" : 34800,
      "timeSeconds" : 74.999945,
      "channel" : 1,
      "noteNumber" : 38,
      "noteName" : "D2",
      "velocity" : 122,
      "durationTicks" : 76,
      "durationSeconds" : 0.16379298333333736
    }, {
      "type" : "note",
      "tick" : 34920,
      "timeSeconds" : 75.2585655,
      "channel" : 1,
      "noteNumber" : 38,
      "noteName" : "D2",
      "velocity" : 117,
      "durationTicks" : 76,
      "durationSeconds" : 0.16379298333332315
    }, {
      "type" : "note",
      "tick" : 35220,
      "timeSeconds" : 75.90511675,
      "channel" : 1,
      "noteNumber" : 41,
      "noteName" : "F2",
      "velocity" : 117,
      "durationTicks" : 19,
      "durationSeconds" : 0.04094824583333434
    }, {
      "type" : "note",
      "tick" : 35280,
      "timeSeconds" : 76.034427,
      "channel" : 1,
      "noteNumber" : 30,
      "noteName" : "F#1",
      "velocity" : 91,
      "durationTicks" : 102,
      "durationSeconds" : 0.2198274250000054
    }, {
      "type" : "note",
      "tick" : 35400,
      "timeSeconds" : 76.2930475,
      "channel" : 1,
      "noteNumber" : 42,
      "noteName" : "F#2",
      "velocity" : 95,
      "durationTicks" : 47,
      "durationSeconds" : 0.10129302916666916
    }, {
      "type" : "note",
      "tick" : 35760,
      "timeSeconds" : 77.068909,
      "channel" : 1,
      "noteNumber" : 31,
      "noteName" : "G1",
      "velocity" : 122,
      "durationTicks" : 76,
      "durationSeconds" : 0.16379298333332315
    }, {
      "type" : "note",
      "tick" : 35880,
      "timeSeconds" : 77.3275295,
      "channel" : 1,
      "noteNumber" : 31,
      "noteName" : "G1",
      "velocity" : 117,
      "durationTicks" : 88,
      "durationSeconds" : 0.189655033333338
    }, {
      "type" : "note",
      "tick" : 36240,
      "timeSeconds" : 78.103391,
      "channel" : 1,
      "noteNumber" : 37,
      "noteName" : "C#2",
      "velocity" : 110,
      "durationTicks" : 61,
      "durationSeconds" : 0.13146542083333657
    }, {
      "type" : "note",
      "tick" : 36360,
      "timeSeconds" : 78.3620115,
      "channel" : 1,
      "noteNumber" : 37,
      "noteName" : "C#2",
      "velocity" : 100,
      "durationTicks" : 79,
      "durationSeconds" : 0.17025849583333752
    }, {
      "type" : "note",
      "tick" : 36720,
      "timeSeconds" : 79.137873,
      "channel" : 1,
      "noteNumber" : 38,
      "noteName" : "D2",
      "velocity" : 127,
      "durationTicks" : 66,
      "durationSeconds" : 0.1422412750000035
    }, {
      "type" : "note",
      "tick" : 36840,
      "timeSeconds" : 79.3964935,
      "channel" : 1,
      "noteNumber" : 38,
      "noteName" : "D2",
      "velocity" : 122,
      "durationTicks" : 74,
      "durationSeconds" : 0.15948264166665638
    }, {
      "type" : "note",
      "tick" : 37200,
      "timeSeconds" : 80.172355,
      "channel" : 1,
      "noteNumber" : 41,
      "noteName" : "F2",
      "velocity" : 117,
      "durationTicks" : 67,
      "durationSeconds" : 0.14439644583333688
    }, {
      "type" : "note",
      "tick" : 37320,
      "timeSeconds" : 80.4309755,
      "channel" : 1,
      "noteNumber" : 41,
      "noteName" : "F2",
      "velocity" : 122,
      "durationTicks" : 73,
      "durationSeconds" : 0.1573274708333372
    }, {
      "type" : "note",
      "tick" : 37440,
      "timeSeconds" : 80.689596,
      "channel" : 1,
      "noteNumber" : 38,
      "noteName" : "D2",
      "velocity" : 113,
      "durationTicks" : 107,
      "durationSeconds" : 0.23060327916667234
    }, {
      "type" : "note",
      "tick" : 37560,
      "timeSeconds" : 80.9482165,
      "channel" : 1,
      "noteNumber" : 41,
      "noteName" : "F2",
      "velocity" : 113,
      "durationTicks" : 110,
      "durationSeconds" : 0.2370687916666725
    }, {
      "type" : "note",
      "tick" : 37680,
      "timeSeconds" : 81.206837,
      "channel" : 1,
      "noteNumber" : 34,
      "noteName" : "A#1",
      "velocity" : 87,
      "durationTicks" : 96,
      "durationSeconds" : 0.2068964000000051
    }, {
      "type" : "note",
      "tick" : 37800,
      "timeSeconds" : 81.4654575,
      "channel" : 1,
      "noteNumber" : 38,
      "noteName" : "D2",
      "velocity" : 113,
      "durationTicks" : 103,
      "durationSeconds" : 0.2219825958333388
    }, {
      "type" : "pitch_bend",
      "tick" : 38049,
      "timeSeconds" : 82.0020950375,
      "channel" : 1,
      "pitchBend" : -1
    }, {
      "type" : "note",
      "tick" : 37920,
      "timeSeconds" : 81.724078,
      "channel" : 1,
      "noteNumber" : 41,
      "noteName" : "F2",
      "velocity" : 97,
      "durationTicks" : 135,
      "durationSeconds" : 0.29094806249999294
    }, {
      "type" : "pitch_bend",
      "tick" : 38057,
      "timeSeconds" : 82.01933640416667,
      "channel" : 1,
      "pitchBend" : -1058
    }, {
      "type" : "pitch_bend",
      "tick" : 38065,
      "timeSeconds" : 82.03657777083333,
      "channel" : 1,
      "pitchBend" : -2380
    }, {
      "type" : "pitch_bend",
      "tick" : 38072,
      "timeSeconds" : 82.05166396666667,
      "channel" : 1,
      "pitchBend" : -3965
    }, {
      "type" : "pitch_bend",
      "tick" : 38078,
      "timeSeconds" : 82.06459499166667,
      "channel" : 1,
      "pitchBend" : -5814
    }, {
      "type" : "pitch_bend",
      "tick" : 38084,
      "timeSeconds" : 82.07752601666667,
      "channel" : 1,
      "pitchBend" : -7664
    }, {
      "type" : "pitch_bend",
      "tick" : 38094,
      "timeSeconds" : 82.099077725,
      "channel" : 1,
      "pitchBend" : -8192
    }, {
      "type" : "pitch_bend",
      "tick" : 38129,
      "timeSeconds" : 82.17450870416667,
      "channel" : 1,
      "pitchBend" : -6871
    }, {
      "type" : "pitch_bend",
      "tick" : 38136,
      "timeSeconds" : 82.1895949,
      "channel" : 1,
      "pitchBend" : -4758
    }, {
      "type" : "pitch_bend",
      "tick" : 38142,
      "timeSeconds" : 82.202525925,
      "channel" : 1,
      "pitchBend" : -2908
    }, {
      "type" : "pitch_bend",
      "tick" : 38149,
      "timeSeconds" : 82.21761212083334,
      "channel" : 1,
      "pitchBend" : -1587
    }, {
      "type" : "pitch_bend",
      "tick" : 38156,
      "timeSeconds" : 82.23269831666667,
      "channel" : 1,
      "pitchBend" : -530
    }, {
      "type" : "pitch_bend",
      "tick" : 38165,
      "timeSeconds" : 82.25209485416667,
      "channel" : 1,
      "pitchBend" : 0
    }, {
      "type" : "note",
      "tick" : 38640,
      "timeSeconds" : 83.275801,
      "channel" : 1,
      "noteNumber" : 45,
      "noteName" : "A2",
      "velocity" : 108,
      "durationTicks" : 77,
      "durationSeconds" : 0.16594815416667075
    }, {
      "type" : "note",
      "tick" : 38760,
      "timeSeconds" : 83.5344215,
      "channel" : 1,
      "noteNumber" : 45,
      "noteName" : "A2",
      "velocity" : 117,
      "durationTicks" : 74,
      "durationSeconds" : 0.1594826416666706
    }, {
      "type" : "note",
      "tick" : 39060,
      "timeSeconds" : 84.18097275,
      "channel" : 1,
      "noteNumber" : 45,
      "noteName" : "A2",
      "velocity" : 117,
      "durationTicks" : 62,
      "durationSeconds" : 0.13362059166666995
    }, {
      "type" : "note",
      "tick" : 39120,
      "timeSeconds" : 84.310283,
      "channel" : 1,
      "noteNumber" : 42,
      "noteName" : "F#2",
      "velocity" : 104,
      "durationTicks" : 91,
      "durationSeconds" : 0.19612054583333816
    }, {
      "type" : "note",
      "tick" : 39240,
      "timeSeconds" : 84.5689035,
      "channel" : 1,
      "noteNumber" : 42,
      "noteName" : "F#2",
      "velocity" : 104,
      "durationTicks" : 58,
      "durationSeconds" : 0.1249999083333222
    }, {
      "type" : "note",
      "tick" : 39540,
      "timeSeconds" : 85.21545475,
      "channel" : 1,
      "noteNumber" : 43,
      "noteName" : "G2",
      "velocity" : 113,
      "durationTicks" : 13,
      "durationSeconds" : 0.028017220833334022
    }, {
      "type" : "note",
      "tick" : 39600,
      "timeSeconds" : 85.344765,
      "channel" : 1,
      "noteNumber" : 31,
      "noteName" : "G1",
      "velocity" : 127,
      "durationTicks" : 113,
      "durationSeconds" : 0.24353430416667265
    }, {
      "type" : "note",
      "tick" : 39720,
      "timeSeconds" : 85.6033855,
      "channel" : 1,
      "noteNumber" : 31,
      "noteName" : "G1",
      "velocity" : 117,
      "durationTicks" : 75,
      "durationSeconds" : 0.16163781250000397
    }, {
      "type" : "note",
      "tick" : 40020,
      "timeSeconds" : 86.24993675,
      "channel" : 1,
      "noteNumber" : 37,
      "noteName" : "C#2",
      "velocity" : 104,
      "durationTicks" : 90,
      "durationSeconds" : 0.19396537499999056
    }, {
      "type" : "note",
      "tick" : 40200,
      "timeSeconds" : 86.6378675,
      "channel" : 1,
      "noteNumber" : 37,
      "noteName" : "C#2",
      "velocity" : 110,
      "durationTicks" : 99,
      "durationSeconds" : 0.21336191250000525
    }, {
      "type" : "note",
      "tick" : 40560,
      "timeSeconds" : 87.413729,
      "channel" : 1,
      "noteNumber" : 38,
      "noteName" : "D2",
      "velocity" : 127,
      "durationTicks" : 64,
      "durationSeconds" : 0.13793093333333672
    }, {
      "type" : "note",
      "tick" : 40680,
      "timeSeconds" : 87.6723495,
      "channel" : 1,
      "noteNumber" : 38,
      "noteName" : "D2",
      "velocity" : 122,
      "durationTicks" : 101,
      "durationSeconds" : 0.21767225416667202
    }, {
      "type" : "note",
      "tick" : 40860,
      "timeSeconds" : 88.06028025,
      "channel" : 1,
      "noteNumber" : 50,
      "noteName" : "D3",
      "velocity" : 117,
      "durationTicks" : 19,
      "durationSeconds" : 0.04094824583333434
    }, {
      "type" : "note",
      "tick" : 40980,
      "timeSeconds" : 88.31890075,
      "channel" : 1,
      "noteNumber" : 45,
      "noteName" : "A2",
      "velocity" : 127,
      "durationTicks" : 8,
      "durationSeconds" : 0.01724136666666709
    }, {
      "type" : "note",
      "tick" : 41040,
      "timeSeconds" : 88.448211,
      "channel" : 1,
      "noteNumber" : 29,
      "noteName" : "F1",
      "velocity" : 127,
      "durationTicks" : 81,
      "durationSeconds" : 0.1745688375000043
    }, {
      "type" : "note",
      "tick" : 41160,
      "timeSeconds" : 88.7068315,
      "channel" : 1,
      "noteNumber" : 29,
      "noteName" : "F1",
      "velocity" : 113,
      "durationTicks" : 95,
      "durationSeconds" : 0.2047412291666575
    }, {
      "type" : "note",
      "tick" : 41280,
      "timeSeconds" : 88.965452,
      "channel" : 1,
      "noteNumber" : 41,
      "noteName" : "F2",
      "velocity" : 91,
      "durationTicks" : 112,
      "durationSeconds" : 0.24137913333333927
    }, {
      "type" : "note",
      "tick" : 41460,
      "timeSeconds" : 89.35338275,
      "channel" : 1,
      "noteNumber" : 46,
      "noteName" : "A#2",
      "velocity" : 100,
      "durationTicks" : 18,
      "durationSeconds" : 0.038793075000000954
    }, {
      "type" : "note",
      "tick" : 41520,
      "timeSeconds" : 89.482693,
      "channel" : 1,
      "noteNumber" : 34,
      "noteName" : "A#1",
      "velocity" : 110,
      "durationTicks" : 85,
      "durationSeconds" : 0.18318952083333784
    }, {
      "type" : "note",
      "tick" : 41640,
      "timeSeconds" : 89.7413135,
      "channel" : 1,
      "noteNumber" : 34,
      "noteName" : "A#1",
      "velocity" : 104,
      "durationTicks" : 86,
      "durationSeconds" : 0.185344691666657
    }, {
      "type" : "note",
      "tick" : 42000,
      "timeSeconds" : 90.517175,
      "channel" : 1,
      "noteNumber" : 33,
      "noteName" : "A1",
      "velocity" : 127,
      "durationTicks" : 72,
      "durationSeconds" : 0.15517230000000382
    }, {
      "type" : "note",
      "tick" : 42120,
      "timeSeconds" : 90.7757955,
      "channel" : 1,
      "noteNumber" : 33,
      "noteName" : "A1",
      "velocity" : 127,
      "durationTicks" : 121,
      "durationSeconds" : 0.26077567083332553
    }, {
      "type" : "note",
      "tick" : 42420,
      "timeSeconds" : 91.42234675,
      "channel" : 1,
      "noteNumber" : 38,
      "noteName" : "D2",
      "velocity" : 117,
      "durationTicks" : 27,
      "durationSeconds" : 0.05818961250000143
    }, {
      "type" : "note",
      "tick" : 42480,
      "timeSeconds" : 91.551657,
      "channel" : 1,
      "noteNumber" : 50,
      "noteName" : "D3",
      "velocity" : 127,
      "durationTicks" : 83,
      "durationSeconds" : 0.17887917916665685
    }, {
      "type" : "note",
      "tick" : 42600,
      "timeSeconds" : 91.8102775,
      "channel" : 1,
      "noteNumber" : 38,
      "noteName" : "D2",
      "velocity" : 127,
      "durationTicks" : 97,
      "durationSeconds" : 0.20905157083333847
    }, {
      "type" : "note",
      "tick" : 42720,
      "timeSeconds" : 92.068898,
      "channel" : 1,
      "noteNumber" : 42,
      "noteName" : "F#2",
      "velocity" : 95,
      "durationTicks" : 10,
      "durationSeconds" : 0.021551708333333863
    }, {
      "type" : "note",
      "tick" : 42900,
      "timeSeconds" : 92.45682875,
      "channel" : 1,
      "noteNumber" : 30,
      "noteName" : "F#1",
      "velocity" : 95,
      "durationTicks" : 19,
      "durationSeconds" : 0.04094824583333434
    }, {
      "type" : "note",
      "tick" : 42960,
      "timeSeconds" : 92.586139,
      "channel" : 1,
      "noteNumber" : 42,
      "noteName" : "F#2",
      "velocity" : 110,
      "durationTicks" : 24,
      "durationSeconds" : 0.05172410000000127
    }, {
      "type" : "note",
      "tick" : 43020,
      "timeSeconds" : 92.71544925,
      "channel" : 1,
      "noteNumber" : 30,
      "noteName" : "F#1",
      "velocity" : 110,
      "durationTicks" : 35,
      "durationSeconds" : 0.07543097916665431
    }, {
      "type" : "note",
      "tick" : 43080,
      "timeSeconds" : 92.8447595,
      "channel" : 1,
      "noteNumber" : 42,
      "noteName" : "F#2",
      "velocity" : 100,
      "durationTicks" : 10,
      "durationSeconds" : 0.021551708333333863
    }, {
      "type" : "note",
      "tick" : 43140,
      "timeSeconds" : 92.97406975,
      "channel" : 1,
      "noteNumber" : 42,
      "noteName" : "F#2",
      "velocity" : 100,
      "durationTicks" : 34,
      "durationSeconds" : 0.07327580833333514
    }, {
      "type" : "note",
      "tick" : 43200,
      "timeSeconds" : 93.10338,
      "channel" : 1,
      "noteNumber" : 31,
      "noteName" : "G1",
      "velocity" : 117,
      "durationTicks" : 73,
      "durationSeconds" : 0.1573274708333372
    }, {
      "type" : "note",
      "tick" : 43380,
      "timeSeconds" : 93.49131075,
      "channel" : 1,
      "noteNumber" : 43,
      "noteName" : "G2",
      "velocity" : 122,
      "durationTicks" : 16,
      "durationSeconds" : 0.03448273333333418
    }, {
      "type" : "note",
      "tick" : 43380,
      "timeSeconds" : 93.49131075,
      "channel" : 1,
      "noteNumber" : 31,
      "noteName" : "G1",
      "velocity" : 122,
      "durationTicks" : 57,
      "durationSeconds" : 0.12284473750000302
    }, {
      "type" : "note",
      "tick" : 43560,
      "timeSeconds" : 93.8792415,
      "channel" : 1,
      "noteNumber" : 31,
      "noteName" : "G1",
      "velocity" : 127,
      "durationTicks" : 124,
      "durationSeconds" : 0.2672411833333257
    }, {
      "type" : "note",
      "tick" : 43680,
      "timeSeconds" : 94.137862,
      "channel" : 1,
      "noteNumber" : 49,
      "noteName" : "C#3",
      "velocity" : 71,
      "durationTicks" : 34,
      "durationSeconds" : 0.07327580833333514
    }, {
      "type" : "note",
      "tick" : 43860,
      "timeSeconds" : 94.52579275,
      "channel" : 1,
      "noteNumber" : 49,
      "noteName" : "C#3",
      "velocity" : 95,
      "durationTicks" : 10,
      "durationSeconds" : 0.021551708333333863
    }, {
      "type" : "note",
      "tick" : 43920,
      "timeSeconds" : 94.655103,
      "channel" : 1,
      "noteNumber" : 37,
      "noteName" : "C#2",
      "velocity" : 110,
      "durationTicks" : 127,
      "durationSeconds" : 0.27370669583334006
    }, {
      "type" : "note",
      "tick" : 44040,
      "timeSeconds" : 94.9137235,
      "channel" : 1,
      "noteNumber" : 49,
      "noteName" : "C#3",
      "velocity" : 110,
      "durationTicks" : 60,
      "durationSeconds" : 0.12931025000000318
    }, {
      "type" : "note",
      "tick" : 44340,
      "timeSeconds" : 95.56027475,
      "channel" : 1,
      "noteNumber" : 50,
      "noteName" : "D3",
      "velocity" : 117,
      "durationTicks" : 14,
      "durationSeconds" : 0.03017239166666741
    }, {
      "type" : "note",
      "tick" : 44400,
      "timeSeconds" : 95.689585,
      "channel" : 1,
      "noteNumber" : 38,
      "noteName" : "D2",
      "velocity" : 127,
      "durationTicks" : 86,
      "durationSeconds" : 0.18534469166667122
    }, {
      "type" : "note",
      "tick" : 44580,
      "timeSeconds" : 96.07751575,
      "channel" : 1,
      "noteNumber" : 38,
      "noteName" : "D2",
      "velocity" : 66,
      "durationTicks" : 16,
      "durationSeconds" : 0.03448273333333418
    }, {
      "type" : "note",
      "tick" : 44820,
      "timeSeconds" : 96.59475675,
      "channel" : 1,
      "noteNumber" : 41,
      "noteName" : "F2",
      "velocity" : 127,
      "durationTicks" : 12,
      "durationSeconds" : 0.025862050000000636
    }, {
      "type" : "note",
      "tick" : 44880,
      "timeSeconds" : 96.724067,
      "channel" : 1,
      "noteNumber" : 29,
      "noteName" : "F1",
      "velocity" : 127,
      "durationTicks" : 125,
      "durationSeconds" : 0.2693963541666591
    }, {
      "type" : "note",
      "tick" : 45000,
      "timeSeconds" : 96.9826875,
      "channel" : 1,
      "noteNumber" : 41,
      "noteName" : "F2",
      "velocity" : 127,
      "durationTicks" : 88,
      "durationSeconds" : 0.189655033333338
    }, {
      "type" : "note",
      "tick" : 45300,
      "timeSeconds" : 97.62923875,
      "channel" : 1,
      "noteNumber" : 46,
      "noteName" : "A#2",
      "velocity" : 100,
      "durationTicks" : 10,
      "durationSeconds" : 0.021551708333333863
    }, {
      "type" : "note",
      "tick" : 45360,
      "timeSeconds" : 97.758549,
      "channel" : 1,
      "noteNumber" : 34,
      "noteName" : "A#1",
      "velocity" : 95,
      "durationTicks" : 67,
      "durationSeconds" : 0.14439644583333688
    }, {
      "type" : "note",
      "tick" : 45480,
      "timeSeconds" : 98.0171695,
      "channel" : 1,
      "noteNumber" : 34,
      "noteName" : "A#1",
      "velocity" : 110,
      "durationTicks" : 87,
      "durationSeconds" : 0.1874998625000046
    }, {
      "type" : "note",
      "tick" : 45780,
      "timeSeconds" : 98.66372075,
      "channel" : 1,
      "noteNumber" : 45,
      "noteName" : "A2",
      "velocity" : 122,
      "durationTicks" : 16,
      "durationSeconds" : 0.03448273333333418
    }, {
      "type" : "note",
      "tick" : 45840,
      "timeSeconds" : 98.793031,
      "channel" : 1,
      "noteNumber" : 33,
      "noteName" : "A1",
      "velocity" : 127,
      "durationTicks" : 69,
      "durationSeconds" : 0.14870678750000366
    }, {
      "type" : "note",
      "tick" : 45960,
      "timeSeconds" : 99.0516515,
      "channel" : 1,
      "noteNumber" : 33,
      "noteName" : "A1",
      "velocity" : 127,
      "durationTicks" : 121,
      "durationSeconds" : 0.26077567083332553
    }, {
      "type" : "note",
      "tick" : 46260,
      "timeSeconds" : 99.69820275,
      "channel" : 1,
      "noteNumber" : 38,
      "noteName" : "D2",
      "velocity" : 117,
      "durationTicks" : 8,
      "durationSeconds" : 0.01724136666666709
    }, {
      "type" : "note",
      "tick" : 46320,
      "timeSeconds" : 99.827513,
      "channel" : 1,
      "noteNumber" : 50,
      "noteName" : "D3",
      "velocity" : 127,
      "durationTicks" : 95,
      "durationSeconds" : 0.2047412291666717
    }, {
      "type" : "note",
      "tick" : 46440,
      "timeSeconds" : 100.0861335,
      "channel" : 1,
      "noteNumber" : 45,
      "noteName" : "A2",
      "velocity" : 79,
      "durationTicks" : 87,
      "durationSeconds" : 0.1874998624999904
    }, {
      "type" : "note",
      "tick" : 46680,
      "timeSeconds" : 100.6033745,
      "channel" : 1,
      "noteNumber" : 50,
      "noteName" : "D3",
      "velocity" : 101,
      "durationTicks" : 17,
      "durationSeconds" : 0.03663790416666757
    }, {
      "type" : "note",
      "tick" : 46740,
      "timeSeconds" : 100.73268475,
      "channel" : 1,
      "noteNumber" : 38,
      "noteName" : "D2",
      "velocity" : 127,
      "durationTicks" : 11,
      "durationSeconds" : 0.02370687916666725
    }, {
      "type" : "note",
      "tick" : 46800,
      "timeSeconds" : 100.861995,
      "channel" : 1,
      "noteNumber" : 45,
      "noteName" : "A2",
      "velocity" : 127,
      "durationTicks" : 79,
      "durationSeconds" : 0.17025849583333752
    }, {
      "type" : "note",
      "tick" : 46920,
      "timeSeconds" : 101.1206155,
      "channel" : 1,
      "noteNumber" : 42,
      "noteName" : "F#2",
      "velocity" : 104,
      "durationTicks" : 92,
      "durationSeconds" : 0.19827571666667154
    }, {
      "type" : "note",
      "tick" : 47220,
      "timeSeconds" : 101.76716675,
      "channel" : 1,
      "noteNumber" : 43,
      "noteName" : "G2",
      "velocity" : 108,
      "durationTicks" : 14,
      "durationSeconds" : 0.03017239166666741
    }, {
      "type" : "note",
      "tick" : 47280,
      "timeSeconds" : 101.896477,
      "channel" : 1,
      "noteNumber" : 31,
      "noteName" : "G1",
      "velocity" : 127,
      "durationTicks" : 110,
      "durationSeconds" : 0.23706879166665829
    }, {
      "type" : "note",
      "tick" : 47400,
      "timeSeconds" : 102.1550975,
      "channel" : 1,
      "noteNumber" : 43,
      "noteName" : "G2",
      "velocity" : 127,
      "durationTicks" : 50,
      "durationSeconds" : 0.10775854166666932
    }, {
      "type" : "note",
      "tick" : 47700,
      "timeSeconds" : 102.80164875,
      "channel" : 1,
      "noteNumber" : 49,
      "noteName" : "C#3",
      "velocity" : 104,
      "durationTicks" : 22,
      "durationSeconds" : 0.0474137583333345
    }, {
      "type" : "note",
      "tick" : 47760,
      "timeSeconds" : 102.930959,
      "channel" : 1,
      "noteNumber" : 37,
      "noteName" : "C#2",
      "velocity" : 110,
      "durationTicks" : 81,
      "durationSeconds" : 0.1745688375000043
    }, {
      "type" : "note",
      "tick" : 47880,
      "timeSeconds" : 103.1895795,
      "channel" : 1,
      "noteNumber" : 37,
      "noteName" : "C#2",
      "velocity" : 127,
      "durationTicks" : 104,
      "durationSeconds" : 0.22413776666667218
    }, {
      "type" : "note",
      "tick" : 48180,
      "timeSeconds" : 103.83613075,
      "channel" : 1,
      "noteNumber" : 50,
      "noteName" : "D3",
      "velocity" : 91,
      "durationTicks" : 15,
      "durationSeconds" : 0.032327562500000795
    }, {
      "type" : "note",
      "tick" : 48240,
      "timeSeconds" : 103.965441,
      "channel" : 1,
      "noteNumber" : 38,
      "noteName" : "D2",
      "velocity" : 127,
      "durationTicks" : 39,
      "durationSeconds" : 0.08405166250000207
    }, {
      "type" : "note",
      "tick" : 48360,
      "timeSeconds" : 104.2240615,
      "channel" : 1,
      "noteNumber" : 38,
      "noteName" : "D2",
      "velocity" : 127,
      "durationTicks" : 114,
      "durationSeconds" : 0.24568947499999183
    }, {
      "type" : "note",
      "tick" : 48660,
      "timeSeconds" : 104.87061275,
      "channel" : 1,
      "noteNumber" : 41,
      "noteName" : "F2",
      "velocity" : 127,
      "durationTicks" : 12,
      "durationSeconds" : 0.025862049999986425
    }, {
      "type" : "note",
      "tick" : 48720,
      "timeSeconds" : 104.999923,
      "channel" : 1,
      "noteNumber" : 29,
      "noteName" : "F1",
      "velocity" : 127,
      "durationTicks" : 102,
      "durationSeconds" : 0.2198274250000054
    }, {
      "type" : "note",
      "tick" : 48840,
      "timeSeconds" : 105.2585435,
      "channel" : 1,
      "noteNumber" : 41,
      "noteName" : "F2",
      "velocity" : 127,
      "durationTicks" : 89,
      "durationSeconds" : 0.19181020416667138
    } ]
  }, {
    "index" : 3,
    "name" : "",
    "programChanges" : [ {
      "tick" : 2,
      "channel" : 2,
      "program" : 24
    } ],
    "events" : [ {
      "type" : "meta",
      "tick" : 0,
      "timeSeconds" : 0.0,
      "text" : "track_name: "
    }, {
      "type" : "control_change",
      "tick" : 0,
      "timeSeconds" : 0.0,
      "channel" : 2,
      "controller" : 7,
      "value" : 79
    }, {
      "type" : "control_change",
      "tick" : 0,
      "timeSeconds" : 0.0,
      "channel" : 2,
      "controller" : 10,
      "value" : 31
    }, {
      "type" : "control_change",
      "tick" : 0,
      "timeSeconds" : 0.0,
      "channel" : 2,
      "controller" : 0,
      "value" : 0
    }, {
      "type" : "control_change",
      "tick" : 0,
      "timeSeconds" : 0.0,
      "channel" : 2,
      "controller" : 91,
      "value" : 76
    }, {
      "type" : "control_change",
      "tick" : 0,
      "timeSeconds" : 0.0,
      "channel" : 2,
      "controller" : 94,
      "value" : 0
    }, {
      "type" : "control_change",
      "tick" : 0,
      "timeSeconds" : 0.0,
      "channel" : 2,
      "controller" : 1,
      "value" : 0
    }, {
      "type" : "control_change",
      "tick" : 0,
      "timeSeconds" : 0.0,
      "channel" : 2,
      "controller" : 93,
      "value" : 0
    }, {
      "type" : "control_change",
      "tick" : 0,
      "timeSeconds" : 0.0,
      "channel" : 2,
      "controller" : 11,
      "value" : 127
    }, {
      "type" : "control_change",
      "tick" : 0,
      "timeSeconds" : 0.0,
      "channel" : 2,
      "controller" : 121,
      "value" : 0
    }, {
      "type" : "control_change",
      "tick" : 2,
      "timeSeconds" : 0.004310341666666667,
      "channel" : 2,
      "controller" : 32,
      "value" : 0
    }, {
      "type" : "control_change",
      "tick" : 2,
      "timeSeconds" : 0.004310341666666667,
      "channel" : 2,
      "controller" : 0,
      "value" : 0
    }, {
      "type" : "control_change",
      "tick" : 2,
      "timeSeconds" : 0.004310341666666667,
      "channel" : 2,
      "controller" : 32,
      "value" : 0
    }, {
      "type" : "note",
      "tick" : 720,
      "timeSeconds" : 1.551723,
      "channel" : 2,
      "noteNumber" : 52,
      "noteName" : "E3",
      "velocity" : 122,
      "durationTicks" : 122,
      "durationSeconds" : 0.2629308416666667
    }, {
      "type" : "note",
      "tick" : 720,
      "timeSeconds" : 1.551723,
      "channel" : 2,
      "noteNumber" : 58,
      "noteName" : "A#3",
      "velocity" : 127,
      "durationTicks" : 124,
      "durationSeconds" : 0.26724118333333347
    }, {
      "type" : "note",
      "tick" : 720,
      "timeSeconds" : 1.551723,
      "channel" : 2,
      "noteNumber" : 64,
      "noteName" : "E4",
      "velocity" : 113,
      "durationTicks" : 130,
      "durationSeconds" : 0.28017220833333334
    }, {
      "type" : "note",
      "tick" : 720,
      "timeSeconds" : 1.551723,
      "channel" : 2,
      "noteNumber" : 42,
      "noteName" : "F#2",
      "velocity" : 127,
      "durationTicks" : 133,
      "durationSeconds" : 0.2866377208333333
    }, {
      "type" : "note",
      "tick" : 1200,
      "timeSeconds" : 2.586205,
      "channel" : 2,
      "noteNumber" : 65,
      "noteName" : "F4",
      "velocity" : 88,
      "durationTicks" : 70,
      "durationSeconds" : 0.15086195833333305
    }, {
      "type" : "note",
      "tick" : 1200,
      "timeSeconds" : 2.586205,
      "channel" : 2,
      "noteNumber" : 62,
      "noteName" : "D4",
      "velocity" : 101,
      "durationTicks" : 77,
      "durationSeconds" : 0.16594815416666675
    }, {
      "type" : "note",
      "tick" : 1200,
      "timeSeconds" : 2.586205,
      "channel" : 2,
      "noteNumber" : 43,
      "noteName" : "G2",
      "velocity" : 113,
      "durationTicks" : 78,
      "durationSeconds" : 0.1681033249999997
    }, {
      "type" : "note",
      "tick" : 1200,
      "timeSeconds" : 2.586205,
      "channel" : 2,
      "noteNumber" : 53,
      "noteName" : "F3",
      "velocity" : 97,
      "durationTicks" : 78,
      "durationSeconds" : 0.1681033249999997
    }, {
      "type" : "note",
      "tick" : 1200,
      "timeSeconds" : 2.586205,
      "channel" : 2,
      "noteNumber" : 58,
      "noteName" : "A#3",
      "velocity" : 73,
      "durationTicks" : 80,
      "durationSeconds" : 0.17241366666666647
    }, {
      "type" : "note",
      "tick" : 1320,
      "timeSeconds" : 2.8448255,
      "channel" : 2,
      "noteNumber" : 43,
      "noteName" : "G2",
      "velocity" : 108,
      "durationTicks" : 61,
      "durationSeconds" : 0.13146542083333346
    }, {
      "type" : "note",
      "tick" : 1320,
      "timeSeconds" : 2.8448255,
      "channel" : 2,
      "noteNumber" : 65,
      "noteName" : "F4",
      "velocity" : 86,
      "durationTicks" : 65,
      "durationSeconds" : 0.140086104166667
    }, {
      "type" : "note",
      "tick" : 1320,
      "timeSeconds" : 2.8448255,
      "channel" : 2,
      "noteNumber" : 62,
      "noteName" : "D4",
      "velocity" : 97,
      "durationTicks" : 71,
      "durationSeconds" : 0.15301712916666688
    }, {
      "type" : "note",
      "tick" : 1320,
      "timeSeconds" : 2.8448255,
      "channel" : 2,
      "noteNumber" : 58,
      "noteName" : "A#3",
      "velocity" : 83,
      "durationTicks" : 76,
      "durationSeconds" : 0.16379298333333336
    }, {
      "type" : "note",
      "tick" : 1320,
      "timeSeconds" : 2.8448255,
      "channel" : 2,
      "noteNumber" : 53,
      "noteName" : "F3",
      "velocity" : 104,
      "durationTicks" : 78,
      "durationSeconds" : 0.16810332500000014
    }, {
      "type" : "note",
      "tick" : 1680,
      "timeSeconds" : 3.620687,
      "channel" : 2,
      "noteNumber" : 49,
      "noteName" : "C#3",
      "velocity" : 95,
      "durationTicks" : 59,
      "durationSeconds" : 0.12715507916666624
    }, {
      "type" : "note",
      "tick" : 1680,
      "timeSeconds" : 3.620687,
      "channel" : 2,
      "noteNumber" : 55,
      "noteName" : "G3",
      "velocity" : 104,
      "durationTicks" : 75,
      "durationSeconds" : 0.16163781249999998
    }, {
      "type" : "note",
      "tick" : 1680,
      "timeSeconds" : 3.620687,
      "channel" : 2,
      "noteNumber" : 64,
      "noteName" : "E4",
      "velocity" : 94,
      "durationTicks" : 81,
      "durationSeconds" : 0.17456883749999985
    }, {
      "type" : "note",
      "tick" : 1680,
      "timeSeconds" : 3.620687,
      "channel" : 2,
      "noteNumber" : 58,
      "noteName" : "A#3",
      "velocity" : 100,
      "durationTicks" : 83,
      "durationSeconds" : 0.17887917916666662
    }, {
      "type" : "note",
      "tick" : 1800,
      "timeSeconds" : 3.8793075,
      "channel" : 2,
      "noteNumber" : 64,
      "noteName" : "E4",
      "velocity" : 101,
      "durationTicks" : 54,
      "durationSeconds" : 0.1163792250000002
    }, {
      "type" : "note",
      "tick" : 1800,
      "timeSeconds" : 3.8793075,
      "channel" : 2,
      "noteNumber" : 49,
      "noteName" : "C#3",
      "velocity" : 87,
      "durationTicks" : 57,
      "durationSeconds" : 0.12284473749999991
    }, {
      "type" : "note",
      "tick" : 1800,
      "timeSeconds" : 3.8793075,
      "channel" : 2,
      "noteNumber" : 55,
      "noteName" : "G3",
      "velocity" : 104,
      "durationTicks" : 60,
      "durationSeconds" : 0.12931025000000007
    }, {
      "type" : "note",
      "tick" : 1800,
      "timeSeconds" : 3.8793075,
      "channel" : 2,
      "noteNumber" : 58,
      "noteName" : "A#3",
      "velocity" : 95,
      "durationTicks" : 65,
      "durationSeconds" : 0.140086104166667
    }, {
      "type" : "note",
      "tick" : 2160,
      "timeSeconds" : 4.655169,
      "channel" : 2,
      "noteNumber" : 50,
      "noteName" : "D3",
      "velocity" : 104,
      "durationTicks" : 59,
      "durationSeconds" : 0.12715507916666713
    }, {
      "type" : "note",
      "tick" : 2160,
      "timeSeconds" : 4.655169,
      "channel" : 2,
      "noteNumber" : 64,
      "noteName" : "E4",
      "velocity" : 91,
      "durationTicks" : 60,
      "durationSeconds" : 0.12931025000000052
    }, {
      "type" : "note",
      "tick" : 2160,
      "timeSeconds" : 4.655169,
      "channel" : 2,
      "noteNumber" : 53,
      "noteName" : "F3",
      "velocity" : 108,
      "durationTicks" : 68,
      "durationSeconds" : 0.14655161666666672
    }, {
      "type" : "note",
      "tick" : 2160,
      "timeSeconds" : 4.655169,
      "channel" : 2,
      "noteNumber" : 60,
      "noteName" : "C4",
      "velocity" : 104,
      "durationTicks" : 75,
      "durationSeconds" : 0.16163781250000042
    }, {
      "type" : "note",
      "tick" : 2280,
      "timeSeconds" : 4.9137895,
      "channel" : 2,
      "noteNumber" : 50,
      "noteName" : "D3",
      "velocity" : 94,
      "durationTicks" : 57,
      "durationSeconds" : 0.12284473750000036
    }, {
      "type" : "note",
      "tick" : 2280,
      "timeSeconds" : 4.9137895,
      "channel" : 2,
      "noteNumber" : 64,
      "noteName" : "E4",
      "velocity" : 101,
      "durationTicks" : 59,
      "durationSeconds" : 0.12715507916666624
    }, {
      "type" : "note",
      "tick" : 2280,
      "timeSeconds" : 4.9137895,
      "channel" : 2,
      "noteNumber" : 60,
      "noteName" : "C4",
      "velocity" : 108,
      "durationTicks" : 59,
      "durationSeconds" : 0.12715507916666624
    }, {
      "type" : "note",
      "tick" : 2280,
      "timeSeconds" : 4.9137895,
      "channel" : 2,
      "noteNumber" : 53,
      "noteName" : "F3",
      "velocity" : 101,
      "durationTicks" : 70,
      "durationSeconds" : 0.1508619583333335
    }, {
      "type" : "note",
      "tick" : 2640,
      "timeSeconds" : 5.689651,
      "channel" : 2,
      "noteNumber" : 42,
      "noteName" : "F#2",
      "velocity" : 110,
      "durationTicks" : 65,
      "durationSeconds" : 0.14008610416666745
    }, {
      "type" : "note",
      "tick" : 2640,
      "timeSeconds" : 5.689651,
      "channel" : 2,
      "noteNumber" : 64,
      "noteName" : "E4",
      "velocity" : 101,
      "durationTicks" : 70,
      "durationSeconds" : 0.1508619583333335
    }, {
      "type" : "note",
      "tick" : 2640,
      "timeSeconds" : 5.689651,
      "channel" : 2,
      "noteNumber" : 58,
      "noteName" : "A#3",
      "velocity" : 100,
      "durationTicks" : 75,
      "durationSeconds" : 0.16163781250000042
    }, {
      "type" : "note",
      "tick" : 2640,
      "timeSeconds" : 5.689651,
      "channel" : 2,
      "noteNumber" : 52,
      "noteName" : "E3",
      "velocity" : 108,
      "durationTicks" : 77,
      "durationSeconds" : 0.1659481541666672
    }, {
      "type" : "note",
      "tick" : 2760,
      "timeSeconds" : 5.9482715,
      "channel" : 2,
      "noteNumber" : 42,
      "noteName" : "F#2",
      "velocity" : 104,
      "durationTicks" : 54,
      "durationSeconds" : 0.1163792250000002
    }, {
      "type" : "note",
      "tick" : 2760,
      "timeSeconds" : 5.9482715,
      "channel" : 2,
      "noteNumber" : 64,
      "noteName" : "E4",
      "velocity" : 101,
      "durationTicks" : 66,
      "durationSeconds" : 0.14224127499999994
    }, {
      "type" : "note",
      "tick" : 2760,
      "timeSeconds" : 5.9482715,
      "channel" : 2,
      "noteNumber" : 52,
      "noteName" : "E3",
      "velocity" : 101,
      "durationTicks" : 76,
      "durationSeconds" : 0.1637929833333338
    }, {
      "type" : "note",
      "tick" : 2760,
      "timeSeconds" : 5.9482715,
      "channel" : 2,
      "noteNumber" : 58,
      "noteName" : "A#3",
      "velocity" : 100,
      "durationTicks" : 79,
      "durationSeconds" : 0.17025849583333397
    }, {
      "type" : "note",
      "tick" : 3120,
      "timeSeconds" : 6.724133,
      "channel" : 2,
      "noteNumber" : 43,
      "noteName" : "G2",
      "velocity" : 113,
      "durationTicks" : 67,
      "durationSeconds" : 0.14439644583333333
    }, {
      "type" : "note",
      "tick" : 3120,
      "timeSeconds" : 6.724133,
      "channel" : 2,
      "noteNumber" : 62,
      "noteName" : "D4",
      "velocity" : 104,
      "durationTicks" : 68,
      "durationSeconds" : 0.14655161666666672
    }, {
      "type" : "note",
      "tick" : 3120,
      "timeSeconds" : 6.724133,
      "channel" : 2,
      "noteNumber" : 58,
      "noteName" : "A#3",
      "velocity" : 95,
      "durationTicks" : 68,
      "durationSeconds" : 0.14655161666666672
    }, {
      "type" : "note",
      "tick" : 3120,
      "timeSeconds" : 6.724133,
      "channel" : 2,
      "noteNumber" : 53,
      "noteName" : "F3",
      "velocity" : 108,
      "durationTicks" : 72,
      "durationSeconds" : 0.15517230000000026
    }, {
      "type" : "note",
      "tick" : 3240,
      "timeSeconds" : 6.9827535,
      "channel" : 2,
      "noteNumber" : 43,
      "noteName" : "G2",
      "velocity" : 104,
      "durationTicks" : 55,
      "durationSeconds" : 0.1185343958333327
    }, {
      "type" : "note",
      "tick" : 3240,
      "timeSeconds" : 6.9827535,
      "channel" : 2,
      "noteNumber" : 62,
      "noteName" : "D4",
      "velocity" : 97,
      "durationTicks" : 58,
      "durationSeconds" : 0.12499990833333285
    }, {
      "type" : "note",
      "tick" : 3240,
      "timeSeconds" : 6.9827535,
      "channel" : 2,
      "noteNumber" : 53,
      "noteName" : "F3",
      "velocity" : 108,
      "durationTicks" : 62,
      "durationSeconds" : 0.1336205916666664
    }, {
      "type" : "note",
      "tick" : 3240,
      "timeSeconds" : 6.9827535,
      "channel" : 2,
      "noteNumber" : 58,
      "noteName" : "A#3",
      "velocity" : 91,
      "durationTicks" : 70,
      "durationSeconds" : 0.1508619583333335
    }, {
      "type" : "note",
      "tick" : 3600,
      "timeSeconds" : 7.758615,
      "channel" : 2,
      "noteNumber" : 49,
      "noteName" : "C#3",
      "velocity" : 87,
      "durationTicks" : 64,
      "durationSeconds" : 0.13793093333333317
    }, {
      "type" : "note",
      "tick" : 3600,
      "timeSeconds" : 7.758615,
      "channel" : 2,
      "noteNumber" : 55,
      "noteName" : "G3",
      "velocity" : 104,
      "durationTicks" : 73,
      "durationSeconds" : 0.15732747083333365
    }, {
      "type" : "note",
      "tick" : 3600,
      "timeSeconds" : 7.758615,
      "channel" : 2,
      "noteNumber" : 58,
      "noteName" : "A#3",
      "velocity" : 100,
      "durationTicks" : 74,
      "durationSeconds" : 0.15948264166666704
    }, {
      "type" : "note",
      "tick" : 3600,
      "timeSeconds" : 7.758615,
      "channel" : 2,
      "noteNumber" : 64,
      "noteName" : "E4",
      "velocity" : 91,
      "durationTicks" : 77,
      "durationSeconds" : 0.1659481541666672
    }, {
      "type" : "note",
      "tick" : 3720,
      "timeSeconds" : 8.0172355,
      "channel" : 2,
      "noteNumber" : 49,
      "noteName" : "C#3",
      "velocity" : 95,
      "durationTicks" : 56,
      "durationSeconds" : 0.12068956666666608
    }, {
      "type" : "note",
      "tick" : 3720,
      "timeSeconds" : 8.0172355,
      "channel" : 2,
      "noteNumber" : 58,
      "noteName" : "A#3",
      "velocity" : 104,
      "durationTicks" : 65,
      "durationSeconds" : 0.14008610416666656
    }, {
      "type" : "note",
      "tick" : 3720,
      "timeSeconds" : 8.0172355,
      "channel" : 2,
      "noteNumber" : 64,
      "noteName" : "E4",
      "velocity" : 101,
      "durationTicks" : 68,
      "durationSeconds" : 0.14655161666666672
    }, {
      "type" : "note",
      "tick" : 3720,
      "timeSeconds" : 8.0172355,
      "channel" : 2,
      "noteNumber" : 55,
      "noteName" : "G3",
      "velocity" : 108,
      "durationTicks" : 77,
      "durationSeconds" : 0.1659481541666672
    }, {
      "type" : "note",
      "tick" : 4080,
      "timeSeconds" : 8.793097,
      "channel" : 2,
      "noteNumber" : 50,
      "noteName" : "D3",
      "velocity" : 113,
      "durationTicks" : 56,
      "durationSeconds" : 0.12068956666666786
    }, {
      "type" : "note",
      "tick" : 4080,
      "timeSeconds" : 8.793097,
      "channel" : 2,
      "noteNumber" : 60,
      "noteName" : "C4",
      "velocity" : 122,
      "durationTicks" : 64,
      "durationSeconds" : 0.13793093333333317
    }, {
      "type" : "note",
      "tick" : 4080,
      "timeSeconds" : 8.793097,
      "channel" : 2,
      "noteNumber" : 53,
      "noteName" : "F3",
      "velocity" : 108,
      "durationTicks" : 66,
      "durationSeconds" : 0.14224127499999994
    }, {
      "type" : "note",
      "tick" : 4080,
      "timeSeconds" : 8.793097,
      "channel" : 2,
      "noteNumber" : 64,
      "noteName" : "E4",
      "velocity" : 101,
      "durationTicks" : 66,
      "durationSeconds" : 0.14224127499999994
    }, {
      "type" : "note",
      "tick" : 4200,
      "timeSeconds" : 9.0517175,
      "channel" : 2,
      "noteNumber" : 64,
      "noteName" : "E4",
      "velocity" : 91,
      "durationTicks" : 60,
      "durationSeconds" : 0.12931024999999963
    }, {
      "type" : "note",
      "tick" : 4200,
      "timeSeconds" : 9.0517175,
      "channel" : 2,
      "noteNumber" : 50,
      "noteName" : "D3",
      "velocity" : 113,
      "durationTicks" : 61,
      "durationSeconds" : 0.131465420833333
    }, {
      "type" : "note",
      "tick" : 4200,
      "timeSeconds" : 9.0517175,
      "channel" : 2,
      "noteNumber" : 60,
      "noteName" : "C4",
      "velocity" : 101,
      "durationTicks" : 67,
      "durationSeconds" : 0.14439644583333333
    }, {
      "type" : "note",
      "tick" : 4200,
      "timeSeconds" : 9.0517175,
      "channel" : 2,
      "noteNumber" : 53,
      "noteName" : "F3",
      "velocity" : 101,
      "durationTicks" : 68,
      "durationSeconds" : 0.14655161666666672
    }, {
      "type" : "note",
      "tick" : 4560,
      "timeSeconds" : 9.827579,
      "channel" : 2,
      "noteNumber" : 64,
      "noteName" : "E4",
      "velocity" : 91,
      "durationTicks" : 64,
      "durationSeconds" : 0.13793093333333317
    }, {
      "type" : "note",
      "tick" : 4560,
      "timeSeconds" : 9.827579,
      "channel" : 2,
      "noteNumber" : 42,
      "noteName" : "F#2",
      "velocity" : 104,
      "durationTicks" : 68,
      "durationSeconds" : 0.14655161666666672
    }, {
      "type" : "note",
      "tick" : 4560,
      "timeSeconds" : 9.827579,
      "channel" : 2,
      "noteNumber" : 58,
      "noteName" : "A#3",
      "velocity" : 95,
      "durationTicks" : 68,
      "durationSeconds" : 0.14655161666666672
    }, {
      "type" : "note",
      "tick" : 4560,
      "timeSeconds" : 9.827579,
      "channel" : 2,
      "noteNumber" : 52,
      "noteName" : "E3",
      "velocity" : 101,
      "durationTicks" : 70,
      "durationSeconds" : 0.1508619583333335
    }, {
      "type" : "note",
      "tick" : 4680,
      "timeSeconds" : 10.0861995,
      "channel" : 2,
      "noteNumber" : 42,
      "noteName" : "F#2",
      "velocity" : 104,
      "durationTicks" : 59,
      "durationSeconds" : 0.12715507916666802
    }, {
      "type" : "note",
      "tick" : 4680,
      "timeSeconds" : 10.0861995,
      "channel" : 2,
      "noteNumber" : 64,
      "noteName" : "E4",
      "velocity" : 97,
      "durationTicks" : 71,
      "durationSeconds" : 0.15301712916666688
    }, {
      "type" : "note",
      "tick" : 4680,
      "timeSeconds" : 10.0861995,
      "channel" : 2,
      "noteNumber" : 58,
      "noteName" : "A#3",
      "velocity" : 100,
      "durationTicks" : 74,
      "durationSeconds" : 0.15948264166666704
    }, {
      "type" : "note",
      "tick" : 4680,
      "timeSeconds" : 10.0861995,
      "channel" : 2,
      "noteNumber" : 52,
      "noteName" : "E3",
      "velocity" : 97,
      "durationTicks" : 77,
      "durationSeconds" : 0.1659481541666672
    }, {
      "type" : "note",
      "tick" : 5040,
      "timeSeconds" : 10.862061,
      "channel" : 2,
      "noteNumber" : 53,
      "noteName" : "F3",
      "velocity" : 113,
      "durationTicks" : 58,
      "durationSeconds" : 0.12499990833333285
    }, {
      "type" : "note",
      "tick" : 5040,
      "timeSeconds" : 10.862061,
      "channel" : 2,
      "noteNumber" : 43,
      "noteName" : "G2",
      "velocity" : 104,
      "durationTicks" : 62,
      "durationSeconds" : 0.1336205916666664
    }, {
      "type" : "note",
      "tick" : 5040,
      "timeSeconds" : 10.862061,
      "channel" : 2,
      "noteNumber" : 58,
      "noteName" : "A#3",
      "velocity" : 87,
      "durationTicks" : 62,
      "durationSeconds" : 0.1336205916666664
    }, {
      "type" : "note",
      "tick" : 5040,
      "timeSeconds" : 10.862061,
      "channel" : 2,
      "noteNumber" : 62,
      "noteName" : "D4",
      "velocity" : 97,
      "durationTicks" : 65,
      "durationSeconds" : 0.14008610416666656
    }, {
      "type" : "note",
      "tick" : 5160,
      "timeSeconds" : 11.1206815,
      "channel" : 2,
      "noteNumber" : 62,
      "noteName" : "D4",
      "velocity" : 104,
      "durationTicks" : 64,
      "durationSeconds" : 0.13793093333333317
    }, {
      "type" : "note",
      "tick" : 5160,
      "timeSeconds" : 11.1206815,
      "channel" : 2,
      "noteNumber" : 53,
      "noteName" : "F3",
      "velocity" : 108,
      "durationTicks" : 70,
      "durationSeconds" : 0.1508619583333335
    }, {
      "type" : "note",
      "tick" : 5160,
      "timeSeconds" : 11.1206815,
      "channel" : 2,
      "noteNumber" : 58,
      "noteName" : "A#3",
      "velocity" : 91,
      "durationTicks" : 71,
      "durationSeconds" : 0.15301712916666688
    }, {
      "type" : "note",
      "tick" : 5160,
      "timeSeconds" : 11.1206815,
      "channel" : 2,
      "noteNumber" : 43,
      "noteName" : "G2",
      "velocity" : 104,
      "durationTicks" : 73,
      "durationSeconds" : 0.15732747083333365
    }, {
      "type" : "note",
      "tick" : 5520,
      "timeSeconds" : 11.896543,
      "channel" : 2,
      "noteNumber" : 49,
      "noteName" : "C#3",
      "velocity" : 95,
      "durationTicks" : 55,
      "durationSeconds" : 0.11853439583333447
    }, {
      "type" : "note",
      "tick" : 5520,
      "timeSeconds" : 11.896543,
      "channel" : 2,
      "noteNumber" : 64,
      "noteName" : "E4",
      "velocity" : 104,
      "durationTicks" : 60,
      "durationSeconds" : 0.1293102500000014
    }, {
      "type" : "note",
      "tick" : 5520,
      "timeSeconds" : 11.896543,
      "channel" : 2,
      "noteNumber" : 58,
      "noteName" : "A#3",
      "velocity" : 104,
      "durationTicks" : 61,
      "durationSeconds" : 0.1314654208333348
    }, {
      "type" : "note",
      "tick" : 5520,
      "timeSeconds" : 11.896543,
      "channel" : 2,
      "noteNumber" : 55,
      "noteName" : "G3",
      "velocity" : 113,
      "durationTicks" : 69,
      "durationSeconds" : 0.1487067875000001
    }, {
      "type" : "note",
      "tick" : 5640,
      "timeSeconds" : 12.1551635,
      "channel" : 2,
      "noteNumber" : 49,
      "noteName" : "C#3",
      "velocity" : 87,
      "durationTicks" : 60,
      "durationSeconds" : 0.12931024999999963
    }, {
      "type" : "note",
      "tick" : 5640,
      "timeSeconds" : 12.1551635,
      "channel" : 2,
      "noteNumber" : 64,
      "noteName" : "E4",
      "velocity" : 97,
      "durationTicks" : 62,
      "durationSeconds" : 0.1336205916666664
    }, {
      "type" : "note",
      "tick" : 5640,
      "timeSeconds" : 12.1551635,
      "channel" : 2,
      "noteNumber" : 58,
      "noteName" : "A#3",
      "velocity" : 100,
      "durationTicks" : 64,
      "durationSeconds" : 0.13793093333333317
    }, {
      "type" : "note",
      "tick" : 5640,
      "timeSeconds" : 12.1551635,
      "channel" : 2,
      "noteNumber" : 55,
      "noteName" : "G3",
      "velocity" : 81,
      "durationTicks" : 78,
      "durationSeconds" : 0.1681033249999988
    }, {
      "type" : "note",
      "tick" : 6000,
      "timeSeconds" : 12.931025,
      "channel" : 2,
      "noteNumber" : 50,
      "noteName" : "D3",
      "velocity" : 97,
      "durationTicks" : 61,
      "durationSeconds" : 0.131465420833333
    }, {
      "type" : "note",
      "tick" : 6000,
      "timeSeconds" : 12.931025,
      "channel" : 2,
      "noteNumber" : 64,
      "noteName" : "E4",
      "velocity" : 91,
      "durationTicks" : 62,
      "durationSeconds" : 0.1336205916666664
    }, {
      "type" : "note",
      "tick" : 6000,
      "timeSeconds" : 12.931025,
      "channel" : 2,
      "noteNumber" : 53,
      "noteName" : "F3",
      "velocity" : 104,
      "durationTicks" : 66,
      "durationSeconds" : 0.14224127499999994
    }, {
      "type" : "note",
      "tick" : 6000,
      "timeSeconds" : 12.931025,
      "channel" : 2,
      "noteNumber" : 60,
      "noteName" : "C4",
      "velocity" : 101,
      "durationTicks" : 67,
      "durationSeconds" : 0.14439644583333333
    }, {
      "type" : "note",
      "tick" : 6120,
      "timeSeconds" : 13.1896455,
      "channel" : 2,
      "noteNumber" : 53,
      "noteName" : "F3",
      "velocity" : 104,
      "durationTicks" : 60,
      "durationSeconds" : 0.1293102500000014
    }, {
      "type" : "note",
      "tick" : 6120,
      "timeSeconds" : 13.1896455,
      "channel" : 2,
      "noteNumber" : 50,
      "noteName" : "D3",
      "velocity" : 101,
      "durationTicks" : 62,
      "durationSeconds" : 0.13362059166666818
    }, {
      "type" : "note",
      "tick" : 6120,
      "timeSeconds" : 13.1896455,
      "channel" : 2,
      "noteNumber" : 64,
      "noteName" : "E4",
      "velocity" : 97,
      "durationTicks" : 72,
      "durationSeconds" : 0.15517230000000026
    }, {
      "type" : "note",
      "tick" : 6120,
      "timeSeconds" : 13.1896455,
      "channel" : 2,
      "noteNumber" : 60,
      "noteName" : "C4",
      "velocity" : 113,
      "durationTicks" : 74,
      "durationSeconds" : 0.15948264166666704
    }, {
      "type" : "note",
      "tick" : 6480,
      "timeSeconds" : 13.965507,
      "channel" : 2,
      "noteNumber" : 41,
      "noteName" : "F2",
      "velocity" : 104,
      "durationTicks" : 58,
      "durationSeconds" : 0.12499990833333285
    }, {
      "type" : "note",
      "tick" : 6480,
      "timeSeconds" : 13.965507,
      "channel" : 2,
      "noteNumber" : 63,
      "noteName" : "D#4",
      "velocity" : 95,
      "durationTicks" : 67,
      "durationSeconds" : 0.14439644583333333
    }, {
      "type" : "note",
      "tick" : 6480,
      "timeSeconds" : 13.965507,
      "channel" : 2,
      "noteNumber" : 67,
      "noteName" : "G4",
      "velocity" : 104,
      "durationTicks" : 74,
      "durationSeconds" : 0.15948264166666526
    }, {
      "type" : "note",
      "tick" : 6480,
      "timeSeconds" : 13.965507,
      "channel" : 2,
      "noteNumber" : 55,
      "noteName" : "G3",
      "velocity" : 101,
      "durationTicks" : 77,
      "durationSeconds" : 0.16594815416666542
    }, {
      "type" : "note",
      "tick" : 6600,
      "timeSeconds" : 14.2241275,
      "channel" : 2,
      "noteNumber" : 41,
      "noteName" : "F2",
      "velocity" : 101,
      "durationTicks" : 53,
      "durationSeconds" : 0.1142240541666677
    }, {
      "type" : "note",
      "tick" : 6600,
      "timeSeconds" : 14.2241275,
      "channel" : 2,
      "noteNumber" : 67,
      "noteName" : "G4",
      "velocity" : 113,
      "durationTicks" : 62,
      "durationSeconds" : 0.1336205916666664
    }, {
      "type" : "note",
      "tick" : 6600,
      "timeSeconds" : 14.2241275,
      "channel" : 2,
      "noteNumber" : 63,
      "noteName" : "D#4",
      "velocity" : 100,
      "durationTicks" : 64,
      "durationSeconds" : 0.13793093333333317
    }, {
      "type" : "note",
      "tick" : 6600,
      "timeSeconds" : 14.2241275,
      "channel" : 2,
      "noteNumber" : 55,
      "noteName" : "G3",
      "velocity" : 113,
      "durationTicks" : 72,
      "durationSeconds" : 0.15517230000000026
    }, {
      "type" : "note",
      "tick" : 6960,
      "timeSeconds" : 14.999989,
      "channel" : 2,
      "noteNumber" : 46,
      "noteName" : "A#2",
      "velocity" : 73,
      "durationTicks" : 54,
      "durationSeconds" : 0.11637922500000109
    }, {
      "type" : "note",
      "tick" : 6960,
      "timeSeconds" : 14.999989,
      "channel" : 2,
      "noteNumber" : 65,
      "noteName" : "F4",
      "velocity" : 91,
      "durationTicks" : 77,
      "durationSeconds" : 0.1659481541666672
    }, {
      "type" : "note",
      "tick" : 6960,
      "timeSeconds" : 14.999989,
      "channel" : 2,
      "noteNumber" : 62,
      "noteName" : "D4",
      "velocity" : 94,
      "durationTicks" : 78,
      "durationSeconds" : 0.16810332500000058
    }, {
      "type" : "note",
      "tick" : 6960,
      "timeSeconds" : 14.999989,
      "channel" : 2,
      "noteNumber" : 57,
      "noteName" : "A3",
      "velocity" : 91,
      "durationTicks" : 78,
      "durationSeconds" : 0.16810332500000058
    }, {
      "type" : "note",
      "tick" : 7080,
      "timeSeconds" : 15.2586095,
      "channel" : 2,
      "noteNumber" : 46,
      "noteName" : "A#2",
      "velocity" : 95,
      "durationTicks" : 57,
      "durationSeconds" : 0.12284473749999947
    }, {
      "type" : "note",
      "tick" : 7080,
      "timeSeconds" : 15.2586095,
      "channel" : 2,
      "noteNumber" : 62,
      "noteName" : "D4",
      "velocity" : 117,
      "durationTicks" : 67,
      "durationSeconds" : 0.14439644583333333
    }, {
      "type" : "note",
      "tick" : 7080,
      "timeSeconds" : 15.2586095,
      "channel" : 2,
      "noteNumber" : 65,
      "noteName" : "F4",
      "velocity" : 97,
      "durationTicks" : 70,
      "durationSeconds" : 0.1508619583333335
    }, {
      "type" : "note",
      "tick" : 7080,
      "timeSeconds" : 15.2586095,
      "channel" : 2,
      "noteNumber" : 57,
      "noteName" : "A3",
      "velocity" : 104,
      "durationTicks" : 75,
      "durationSeconds" : 0.16163781250000042
    }, {
      "type" : "note",
      "tick" : 7440,
      "timeSeconds" : 16.034471,
      "channel" : 2,
      "noteNumber" : 61,
      "noteName" : "C#4",
      "velocity" : 100,
      "durationTicks" : 63,
      "durationSeconds" : 0.13577576249999979
    }, {
      "type" : "note",
      "tick" : 7440,
      "timeSeconds" : 16.034471,
      "channel" : 2,
      "noteNumber" : 45,
      "noteName" : "A2",
      "velocity" : 101,
      "durationTicks" : 64,
      "durationSeconds" : 0.13793093333333317
    }, {
      "type" : "note",
      "tick" : 7440,
      "timeSeconds" : 16.034471,
      "channel" : 2,
      "noteNumber" : 55,
      "noteName" : "G3",
      "velocity" : 108,
      "durationTicks" : 66,
      "durationSeconds" : 0.14224127499999994
    }, {
      "type" : "note",
      "tick" : 7440,
      "timeSeconds" : 16.034471,
      "channel" : 2,
      "noteNumber" : 65,
      "noteName" : "F4",
      "velocity" : 101,
      "durationTicks" : 72,
      "durationSeconds" : 0.15517230000000026
    }, {
      "type" : "note",
      "tick" : 7560,
      "timeSeconds" : 16.2930915,
      "channel" : 2,
      "noteNumber" : 65,
      "noteName" : "F4",
      "velocity" : 101,
      "durationTicks" : 59,
      "durationSeconds" : 0.12715507916666624
    }, {
      "type" : "note",
      "tick" : 7560,
      "timeSeconds" : 16.2930915,
      "channel" : 2,
      "noteNumber" : 61,
      "noteName" : "C#4",
      "velocity" : 100,
      "durationTicks" : 65,
      "durationSeconds" : 0.14008610416666656
    }, {
      "type" : "note",
      "tick" : 7560,
      "timeSeconds" : 16.2930915,
      "channel" : 2,
      "noteNumber" : 55,
      "noteName" : "G3",
      "velocity" : 101,
      "durationTicks" : 68,
      "durationSeconds" : 0.14655161666666672
    }, {
      "type" : "note",
      "tick" : 7560,
      "timeSeconds" : 16.2930915,
      "channel" : 2,
      "noteNumber" : 45,
      "noteName" : "A2",
      "velocity" : 91,
      "durationTicks" : 74,
      "durationSeconds" : 0.15948264166666704
    }, {
      "type" : "note",
      "tick" : 7920,
      "timeSeconds" : 17.068953,
      "channel" : 2,
      "noteNumber" : 50,
      "noteName" : "D3",
      "velocity" : 97,
      "durationTicks" : 58,
      "durationSeconds" : 0.12499990833333285
    }, {
      "type" : "note",
      "tick" : 7920,
      "timeSeconds" : 17.068953,
      "channel" : 2,
      "noteNumber" : 53,
      "noteName" : "F3",
      "velocity" : 113,
      "durationTicks" : 60,
      "durationSeconds" : 0.12931024999999963
    }, {
      "type" : "note",
      "tick" : 7920,
      "timeSeconds" : 17.068953,
      "channel" : 2,
      "noteNumber" : 64,
      "noteName" : "E4",
      "velocity" : 77,
      "durationTicks" : 65,
      "durationSeconds" : 0.14008610416666656
    }, {
      "type" : "note",
      "tick" : 7920,
      "timeSeconds" : 17.068953,
      "channel" : 2,
      "noteNumber" : 60,
      "noteName" : "C4",
      "velocity" : 117,
      "durationTicks" : 70,
      "durationSeconds" : 0.1508619583333335
    }, {
      "type" : "note",
      "tick" : 8040,
      "timeSeconds" : 17.3275735,
      "channel" : 2,
      "noteNumber" : 64,
      "noteName" : "E4",
      "velocity" : 101,
      "durationTicks" : 54,
      "durationSeconds" : 0.11637922499999931
    }, {
      "type" : "note",
      "tick" : 8040,
      "timeSeconds" : 17.3275735,
      "channel" : 2,
      "noteNumber" : 50,
      "noteName" : "D3",
      "velocity" : 104,
      "durationTicks" : 59,
      "durationSeconds" : 0.12715507916666624
    }, {
      "type" : "note",
      "tick" : 8040,
      "timeSeconds" : 17.3275735,
      "channel" : 2,
      "noteNumber" : 53,
      "noteName" : "F3",
      "velocity" : 108,
      "durationTicks" : 62,
      "durationSeconds" : 0.1336205916666664
    }, {
      "type" : "note",
      "tick" : 8040,
      "timeSeconds" : 17.3275735,
      "channel" : 2,
      "noteNumber" : 60,
      "noteName" : "C4",
      "velocity" : 108,
      "durationTicks" : 65,
      "durationSeconds" : 0.14008610416666656
    }, {
      "type" : "note",
      "tick" : 8280,
      "timeSeconds" : 17.8448145,
      "channel" : 2,
      "noteNumber" : 50,
      "noteName" : "D3",
      "velocity" : 104,
      "durationTicks" : 44,
      "durationSeconds" : 0.094827516666669
    }, {
      "type" : "note",
      "tick" : 8280,
      "timeSeconds" : 17.8448145,
      "channel" : 2,
      "noteNumber" : 42,
      "noteName" : "F#2",
      "velocity" : 100,
      "durationTicks" : 56,
      "durationSeconds" : 0.12068956666666963
    }, {
      "type" : "note",
      "tick" : 8280,
      "timeSeconds" : 17.8448145,
      "channel" : 2,
      "noteNumber" : 62,
      "noteName" : "D4",
      "velocity" : 101,
      "durationTicks" : 58,
      "durationSeconds" : 0.12499990833333641
    }, {
      "type" : "note",
      "tick" : 8280,
      "timeSeconds" : 17.8448145,
      "channel" : 2,
      "noteNumber" : 52,
      "noteName" : "E3",
      "velocity" : 97,
      "durationTicks" : 64,
      "durationSeconds" : 0.13793093333333672
    }, {
      "type" : "note",
      "tick" : 8280,
      "timeSeconds" : 17.8448145,
      "channel" : 2,
      "noteNumber" : 58,
      "noteName" : "A#3",
      "velocity" : 95,
      "durationTicks" : 65,
      "durationSeconds" : 0.1400861041666701
    }, {
      "type" : "note",
      "tick" : 8520,
      "timeSeconds" : 18.3620555,
      "channel" : 2,
      "noteNumber" : 42,
      "noteName" : "F#2",
      "velocity" : 110,
      "durationTicks" : 53,
      "durationSeconds" : 0.11422405416666592
    }, {
      "type" : "note",
      "tick" : 8520,
      "timeSeconds" : 18.3620555,
      "channel" : 2,
      "noteNumber" : 62,
      "noteName" : "D4",
      "velocity" : 97,
      "durationTicks" : 70,
      "durationSeconds" : 0.1508619583333335
    }, {
      "type" : "note",
      "tick" : 8520,
      "timeSeconds" : 18.3620555,
      "channel" : 2,
      "noteNumber" : 58,
      "noteName" : "A#3",
      "velocity" : 110,
      "durationTicks" : 71,
      "durationSeconds" : 0.15301712916666688
    }, {
      "type" : "note",
      "tick" : 8520,
      "timeSeconds" : 18.3620555,
      "channel" : 2,
      "noteNumber" : 52,
      "noteName" : "E3",
      "velocity" : 117,
      "durationTicks" : 71,
      "durationSeconds" : 0.15301712916666688
    }, {
      "type" : "note",
      "tick" : 8880,
      "timeSeconds" : 19.137917,
      "channel" : 2,
      "noteNumber" : 43,
      "noteName" : "G2",
      "velocity" : 117,
      "durationTicks" : 61,
      "durationSeconds" : 0.131465420833333
    }, {
      "type" : "note",
      "tick" : 8880,
      "timeSeconds" : 19.137917,
      "channel" : 2,
      "noteNumber" : 62,
      "noteName" : "D4",
      "velocity" : 94,
      "durationTicks" : 68,
      "durationSeconds" : 0.14655161666666672
    }, {
      "type" : "note",
      "tick" : 8880,
      "timeSeconds" : 19.137917,
      "channel" : 2,
      "noteNumber" : 58,
      "noteName" : "A#3",
      "velocity" : 100,
      "durationTicks" : 69,
      "durationSeconds" : 0.1487067875000001
    }, {
      "type" : "note",
      "tick" : 8880,
      "timeSeconds" : 19.137917,
      "channel" : 2,
      "noteNumber" : 53,
      "noteName" : "F3",
      "velocity" : 117,
      "durationTicks" : 71,
      "durationSeconds" : 0.15301712916666332
    }, {
      "type" : "note",
      "tick" : 9000,
      "timeSeconds" : 19.3965375,
      "channel" : 2,
      "noteNumber" : 58,
      "noteName" : "A#3",
      "velocity" : 100,
      "durationTicks" : 55,
      "durationSeconds" : 0.1185343958333327
    }, {
      "type" : "note",
      "tick" : 9000,
      "timeSeconds" : 19.3965375,
      "channel" : 2,
      "noteNumber" : 62,
      "noteName" : "D4",
      "velocity" : 101,
      "durationTicks" : 56,
      "durationSeconds" : 0.12068956666666608
    }, {
      "type" : "note",
      "tick" : 9000,
      "timeSeconds" : 19.3965375,
      "channel" : 2,
      "noteNumber" : 53,
      "noteName" : "F3",
      "velocity" : 104,
      "durationTicks" : 59,
      "durationSeconds" : 0.12715507916666624
    }, {
      "type" : "note",
      "tick" : 9000,
      "timeSeconds" : 19.3965375,
      "channel" : 2,
      "noteNumber" : 43,
      "noteName" : "G2",
      "velocity" : 117,
      "durationTicks" : 61,
      "durationSeconds" : 0.131465420833333
    }, {
      "type" : "note",
      "tick" : 9360,
      "timeSeconds" : 20.172399,
      "channel" : 2,
      "noteNumber" : 49,
      "noteName" : "C#3",
      "velocity" : 91,
      "durationTicks" : 57,
      "durationSeconds" : 0.12284473750000302
    }, {
      "type" : "note",
      "tick" : 9360,
      "timeSeconds" : 20.172399,
      "channel" : 2,
      "noteNumber" : 64,
      "noteName" : "E4",
      "velocity" : 97,
      "durationTicks" : 65,
      "durationSeconds" : 0.14008610416666656
    }, {
      "type" : "note",
      "tick" : 9360,
      "timeSeconds" : 20.172399,
      "channel" : 2,
      "noteNumber" : 55,
      "noteName" : "G3",
      "velocity" : 117,
      "durationTicks" : 66,
      "durationSeconds" : 0.14224127499999994
    }, {
      "type" : "note",
      "tick" : 9360,
      "timeSeconds" : 20.172399,
      "channel" : 2,
      "noteNumber" : 58,
      "noteName" : "A#3",
      "velocity" : 104,
      "durationTicks" : 68,
      "durationSeconds" : 0.14655161666666672
    }, {
      "type" : "note",
      "tick" : 9480,
      "timeSeconds" : 20.4310195,
      "channel" : 2,
      "noteNumber" : 49,
      "noteName" : "C#3",
      "velocity" : 100,
      "durationTicks" : 56,
      "durationSeconds" : 0.12068956666666608
    }, {
      "type" : "note",
      "tick" : 9480,
      "timeSeconds" : 20.4310195,
      "channel" : 2,
      "noteNumber" : 55,
      "noteName" : "G3",
      "velocity" : 101,
      "durationTicks" : 63,
      "durationSeconds" : 0.13577576249999979
    }, {
      "type" : "note",
      "tick" : 9480,
      "timeSeconds" : 20.4310195,
      "channel" : 2,
      "noteNumber" : 58,
      "noteName" : "A#3",
      "velocity" : 100,
      "durationTicks" : 63,
      "durationSeconds" : 0.13577576249999979
    }, {
      "type" : "note",
      "tick" : 9480,
      "timeSeconds" : 20.4310195,
      "channel" : 2,
      "noteNumber" : 64,
      "noteName" : "E4",
      "velocity" : 91,
      "durationTicks" : 70,
      "durationSeconds" : 0.1508619583333335
    }, {
      "type" : "note",
      "tick" : 9840,
      "timeSeconds" : 21.206881,
      "channel" : 2,
      "noteNumber" : 50,
      "noteName" : "D3",
      "velocity" : 104,
      "durationTicks" : 61,
      "durationSeconds" : 0.131465420833333
    }, {
      "type" : "note",
      "tick" : 9840,
      "timeSeconds" : 21.206881,
      "channel" : 2,
      "noteNumber" : 60,
      "noteName" : "C4",
      "velocity" : 113,
      "durationTicks" : 69,
      "durationSeconds" : 0.1487067875000001
    }, {
      "type" : "note",
      "tick" : 9840,
      "timeSeconds" : 21.206881,
      "channel" : 2,
      "noteNumber" : 53,
      "noteName" : "F3",
      "velocity" : 108,
      "durationTicks" : 70,
      "durationSeconds" : 0.1508619583333335
    }, {
      "type" : "note",
      "tick" : 9840,
      "timeSeconds" : 21.206881,
      "channel" : 2,
      "noteNumber" : 64,
      "noteName" : "E4",
      "velocity" : 94,
      "durationTicks" : 71,
      "durationSeconds" : 0.15301712916666688
    }, {
      "type" : "note",
      "tick" : 9960,
      "timeSeconds" : 21.4655015,
      "channel" : 2,
      "noteNumber" : 60,
      "noteName" : "C4",
      "velocity" : 108,
      "durationTicks" : 49,
      "durationSeconds" : 0.10560337083333593
    }, {
      "type" : "note",
      "tick" : 9960,
      "timeSeconds" : 21.4655015,
      "channel" : 2,
      "noteNumber" : 64,
      "noteName" : "E4",
      "velocity" : 94,
      "durationTicks" : 51,
      "durationSeconds" : 0.1099137125000027
    }, {
      "type" : "note",
      "tick" : 9960,
      "timeSeconds" : 21.4655015,
      "channel" : 2,
      "noteNumber" : 50,
      "noteName" : "D3",
      "velocity" : 108,
      "durationTicks" : 51,
      "durationSeconds" : 0.1099137125000027
    }, {
      "type" : "note",
      "tick" : 9960,
      "timeSeconds" : 21.4655015,
      "channel" : 2,
      "noteNumber" : 53,
      "noteName" : "F3",
      "velocity" : 108,
      "durationTicks" : 55,
      "durationSeconds" : 0.11853439583333625
    }, {
      "type" : "note",
      "tick" : 10320,
      "timeSeconds" : 22.241363,
      "channel" : 2,
      "noteNumber" : 42,
      "noteName" : "F#2",
      "velocity" : 110,
      "durationTicks" : 61,
      "durationSeconds" : 0.131465420833333
    }, {
      "type" : "note",
      "tick" : 10320,
      "timeSeconds" : 22.241363,
      "channel" : 2,
      "noteNumber" : 58,
      "noteName" : "A#3",
      "velocity" : 100,
      "durationTicks" : 74,
      "durationSeconds" : 0.15948264166666704
    }, {
      "type" : "note",
      "tick" : 10320,
      "timeSeconds" : 22.241363,
      "channel" : 2,
      "noteNumber" : 64,
      "noteName" : "E4",
      "velocity" : 97,
      "durationTicks" : 76,
      "durationSeconds" : 0.1637929833333338
    }, {
      "type" : "note",
      "tick" : 10320,
      "timeSeconds" : 22.241363,
      "channel" : 2,
      "noteNumber" : 52,
      "noteName" : "E3",
      "velocity" : 113,
      "durationTicks" : 77,
      "durationSeconds" : 0.1659481541666672
    }, {
      "type" : "note",
      "tick" : 10440,
      "timeSeconds" : 22.4999835,
      "channel" : 2,
      "noteNumber" : 42,
      "noteName" : "F#2",
      "velocity" : 110,
      "durationTicks" : 53,
      "durationSeconds" : 0.11422405416666592
    }, {
      "type" : "note",
      "tick" : 10440,
      "timeSeconds" : 22.4999835,
      "channel" : 2,
      "noteNumber" : 64,
      "noteName" : "E4",
      "velocity" : 97,
      "durationTicks" : 68,
      "durationSeconds" : 0.14655161666666672
    }, {
      "type" : "note",
      "tick" : 10440,
      "timeSeconds" : 22.4999835,
      "channel" : 2,
      "noteNumber" : 52,
      "noteName" : "E3",
      "velocity" : 113,
      "durationTicks" : 72,
      "durationSeconds" : 0.15517230000000026
    }, {
      "type" : "note",
      "tick" : 10440,
      "timeSeconds" : 22.4999835,
      "channel" : 2,
      "noteNumber" : 58,
      "noteName" : "A#3",
      "velocity" : 104,
      "durationTicks" : 75,
      "durationSeconds" : 0.16163781250000042
    }, {
      "type" : "note",
      "tick" : 10800,
      "timeSeconds" : 23.275845,
      "channel" : 2,
      "noteNumber" : 53,
      "noteName" : "F3",
      "velocity" : 113,
      "durationTicks" : 50,
      "durationSeconds" : 0.10775854166666576
    }, {
      "type" : "note",
      "tick" : 10800,
      "timeSeconds" : 23.275845,
      "channel" : 2,
      "noteNumber" : 62,
      "noteName" : "D4",
      "velocity" : 108,
      "durationTicks" : 57,
      "durationSeconds" : 0.12284473749999947
    }, {
      "type" : "note",
      "tick" : 10800,
      "timeSeconds" : 23.275845,
      "channel" : 2,
      "noteNumber" : 58,
      "noteName" : "A#3",
      "velocity" : 91,
      "durationTicks" : 58,
      "durationSeconds" : 0.12499990833333285
    }, {
      "type" : "note",
      "tick" : 10800,
      "timeSeconds" : 23.275845,
      "channel" : 2,
      "noteNumber" : 43,
      "noteName" : "G2",
      "velocity" : 117,
      "durationTicks" : 61,
      "durationSeconds" : 0.131465420833333
    }, {
      "type" : "note",
      "tick" : 10920,
      "timeSeconds" : 23.5344655,
      "channel" : 2,
      "noteNumber" : 62,
      "noteName" : "D4",
      "velocity" : 94,
      "durationTicks" : 60,
      "durationSeconds" : 0.12931024999999963
    }, {
      "type" : "note",
      "tick" : 10920,
      "timeSeconds" : 23.5344655,
      "channel" : 2,
      "noteNumber" : 53,
      "noteName" : "F3",
      "velocity" : 104,
      "durationTicks" : 62,
      "durationSeconds" : 0.1336205916666664
    }, {
      "type" : "note",
      "tick" : 10920,
      "timeSeconds" : 23.5344655,
      "channel" : 2,
      "noteNumber" : 58,
      "noteName" : "A#3",
      "velocity" : 87,
      "durationTicks" : 68,
      "durationSeconds" : 0.14655161666666672
    }, {
      "type" : "note",
      "tick" : 10920,
      "timeSeconds" : 23.5344655,
      "channel" : 2,
      "noteNumber" : 43,
      "noteName" : "G2",
      "velocity" : 97,
      "durationTicks" : 71,
      "durationSeconds" : 0.15301712916666688
    }, {
      "type" : "note",
      "tick" : 11280,
      "timeSeconds" : 24.310327,
      "channel" : 2,
      "noteNumber" : 49,
      "noteName" : "C#3",
      "velocity" : 80,
      "durationTicks" : 59,
      "durationSeconds" : 0.12715507916666624
    }, {
      "type" : "note",
      "tick" : 11280,
      "timeSeconds" : 24.310327,
      "channel" : 2,
      "noteNumber" : 64,
      "noteName" : "E4",
      "velocity" : 91,
      "durationTicks" : 64,
      "durationSeconds" : 0.13793093333333317
    }, {
      "type" : "note",
      "tick" : 11280,
      "timeSeconds" : 24.310327,
      "channel" : 2,
      "noteNumber" : 55,
      "noteName" : "G3",
      "velocity" : 101,
      "durationTicks" : 64,
      "durationSeconds" : 0.13793093333333317
    }, {
      "type" : "note",
      "tick" : 11280,
      "timeSeconds" : 24.310327,
      "channel" : 2,
      "noteNumber" : 58,
      "noteName" : "A#3",
      "velocity" : 100,
      "durationTicks" : 66,
      "durationSeconds" : 0.14224127499999994
    }, {
      "type" : "note",
      "tick" : 11400,
      "timeSeconds" : 24.5689475,
      "channel" : 2,
      "noteNumber" : 49,
      "noteName" : "C#3",
      "velocity" : 87,
      "durationTicks" : 57,
      "durationSeconds" : 0.12284473749999947
    }, {
      "type" : "note",
      "tick" : 11400,
      "timeSeconds" : 24.5689475,
      "channel" : 2,
      "noteNumber" : 64,
      "noteName" : "E4",
      "velocity" : 97,
      "durationTicks" : 61,
      "durationSeconds" : 0.131465420833333
    }, {
      "type" : "note",
      "tick" : 11400,
      "timeSeconds" : 24.5689475,
      "channel" : 2,
      "noteNumber" : 58,
      "noteName" : "A#3",
      "velocity" : 100,
      "durationTicks" : 62,
      "durationSeconds" : 0.1336205916666664
    }, {
      "type" : "note",
      "tick" : 11400,
      "timeSeconds" : 24.5689475,
      "channel" : 2,
      "noteNumber" : 55,
      "noteName" : "G3",
      "velocity" : 97,
      "durationTicks" : 65,
      "durationSeconds" : 0.14008610416666656
    }, {
      "type" : "note",
      "tick" : 11760,
      "timeSeconds" : 25.344809,
      "channel" : 2,
      "noteNumber" : 50,
      "noteName" : "D3",
      "velocity" : 108,
      "durationTicks" : 49,
      "durationSeconds" : 0.10560337083333238
    }, {
      "type" : "note",
      "tick" : 11760,
      "timeSeconds" : 25.344809,
      "channel" : 2,
      "noteNumber" : 53,
      "noteName" : "F3",
      "velocity" : 104,
      "durationTicks" : 55,
      "durationSeconds" : 0.1185343958333327
    }, {
      "type" : "note",
      "tick" : 11760,
      "timeSeconds" : 25.344809,
      "channel" : 2,
      "noteNumber" : 64,
      "noteName" : "E4",
      "velocity" : 91,
      "durationTicks" : 56,
      "durationSeconds" : 0.12068956666666608
    }, {
      "type" : "note",
      "tick" : 11760,
      "timeSeconds" : 25.344809,
      "channel" : 2,
      "noteNumber" : 60,
      "noteName" : "C4",
      "velocity" : 108,
      "durationTicks" : 59,
      "durationSeconds" : 0.12715507916666624
    }, {
      "type" : "note",
      "tick" : 11880,
      "timeSeconds" : 25.6034295,
      "channel" : 2,
      "noteNumber" : 50,
      "noteName" : "D3",
      "velocity" : 108,
      "durationTicks" : 53,
      "durationSeconds" : 0.11422405416666592
    }, {
      "type" : "note",
      "tick" : 11880,
      "timeSeconds" : 25.6034295,
      "channel" : 2,
      "noteNumber" : 64,
      "noteName" : "E4",
      "velocity" : 88,
      "durationTicks" : 57,
      "durationSeconds" : 0.12284473749999947
    }, {
      "type" : "note",
      "tick" : 11880,
      "timeSeconds" : 25.6034295,
      "channel" : 2,
      "noteNumber" : 60,
      "noteName" : "C4",
      "velocity" : 101,
      "durationTicks" : 64,
      "durationSeconds" : 0.13793093333333317
    }, {
      "type" : "note",
      "tick" : 11880,
      "timeSeconds" : 25.6034295,
      "channel" : 2,
      "noteNumber" : 53,
      "noteName" : "F3",
      "velocity" : 101,
      "durationTicks" : 71,
      "durationSeconds" : 0.15301712916666688
    }, {
      "type" : "note",
      "tick" : 12240,
      "timeSeconds" : 26.379291,
      "channel" : 2,
      "noteNumber" : 42,
      "noteName" : "F#2",
      "velocity" : 104,
      "durationTicks" : 45,
      "durationSeconds" : 0.09698268750000238
    }, {
      "type" : "note",
      "tick" : 12240,
      "timeSeconds" : 26.379291,
      "channel" : 2,
      "noteNumber" : 62,
      "noteName" : "D4",
      "velocity" : 91,
      "durationTicks" : 58,
      "durationSeconds" : 0.12499990833333641
    }, {
      "type" : "note",
      "tick" : 12240,
      "timeSeconds" : 26.379291,
      "channel" : 2,
      "noteNumber" : 58,
      "noteName" : "A#3",
      "velocity" : 87,
      "durationTicks" : 62,
      "durationSeconds" : 0.13362059166666995
    }, {
      "type" : "note",
      "tick" : 12240,
      "timeSeconds" : 26.379291,
      "channel" : 2,
      "noteNumber" : 52,
      "noteName" : "E3",
      "velocity" : 94,
      "durationTicks" : 68,
      "durationSeconds" : 0.14655161666666672
    }, {
      "type" : "note",
      "tick" : 12360,
      "timeSeconds" : 26.6379115,
      "channel" : 2,
      "noteNumber" : 42,
      "noteName" : "F#2",
      "velocity" : 110,
      "durationTicks" : 47,
      "durationSeconds" : 0.1012930291666656
    }, {
      "type" : "note",
      "tick" : 12360,
      "timeSeconds" : 26.6379115,
      "channel" : 2,
      "noteNumber" : 52,
      "noteName" : "E3",
      "velocity" : 97,
      "durationTicks" : 65,
      "durationSeconds" : 0.14008610416666656
    }, {
      "type" : "note",
      "tick" : 12360,
      "timeSeconds" : 26.6379115,
      "channel" : 2,
      "noteNumber" : 62,
      "noteName" : "D4",
      "velocity" : 101,
      "durationTicks" : 66,
      "durationSeconds" : 0.14224127499999994
    }, {
      "type" : "note",
      "tick" : 12360,
      "timeSeconds" : 26.6379115,
      "channel" : 2,
      "noteNumber" : 58,
      "noteName" : "A#3",
      "velocity" : 91,
      "durationTicks" : 71,
      "durationSeconds" : 0.15301712916666688
    }, {
      "type" : "note",
      "tick" : 12720,
      "timeSeconds" : 27.413773,
      "channel" : 2,
      "noteNumber" : 43,
      "noteName" : "G2",
      "velocity" : 104,
      "durationTicks" : 60,
      "durationSeconds" : 0.12931024999999963
    }, {
      "type" : "note",
      "tick" : 12720,
      "timeSeconds" : 27.413773,
      "channel" : 2,
      "noteNumber" : 62,
      "noteName" : "D4",
      "velocity" : 101,
      "durationTicks" : 61,
      "durationSeconds" : 0.131465420833333
    }, {
      "type" : "note",
      "tick" : 12720,
      "timeSeconds" : 27.413773,
      "channel" : 2,
      "noteNumber" : 58,
      "noteName" : "A#3",
      "velocity" : 91,
      "durationTicks" : 63,
      "durationSeconds" : 0.13577576249999979
    }, {
      "type" : "note",
      "tick" : 12720,
      "timeSeconds" : 27.413773,
      "channel" : 2,
      "noteNumber" : 53,
      "noteName" : "F3",
      "velocity" : 117,
      "durationTicks" : 67,
      "durationSeconds" : 0.14439644583333333
    }, {
      "type" : "note",
      "tick" : 12840,
      "timeSeconds" : 27.6723935,
      "channel" : 2,
      "noteNumber" : 62,
      "noteName" : "D4",
      "velocity" : 91,
      "durationTicks" : 54,
      "durationSeconds" : 0.11637922500000286
    }, {
      "type" : "note",
      "tick" : 12840,
      "timeSeconds" : 27.6723935,
      "channel" : 2,
      "noteNumber" : 43,
      "noteName" : "G2",
      "velocity" : 113,
      "durationTicks" : 57,
      "durationSeconds" : 0.12284473750000302
    }, {
      "type" : "note",
      "tick" : 12840,
      "timeSeconds" : 27.6723935,
      "channel" : 2,
      "noteNumber" : 53,
      "noteName" : "F3",
      "velocity" : 108,
      "durationTicks" : 63,
      "durationSeconds" : 0.13577576250000334
    }, {
      "type" : "note",
      "tick" : 12840,
      "timeSeconds" : 27.6723935,
      "channel" : 2,
      "noteNumber" : 58,
      "noteName" : "A#3",
      "velocity" : 91,
      "durationTicks" : 68,
      "durationSeconds" : 0.14655161666666672
    }, {
      "type" : "note",
      "tick" : 13200,
      "timeSeconds" : 28.448255,
      "channel" : 2,
      "noteNumber" : 49,
      "noteName" : "C#3",
      "velocity" : 91,
      "durationTicks" : 56,
      "durationSeconds" : 0.12068956666666608
    }, {
      "type" : "note",
      "tick" : 13200,
      "timeSeconds" : 28.448255,
      "channel" : 2,
      "noteNumber" : 64,
      "noteName" : "E4",
      "velocity" : 101,
      "durationTicks" : 68,
      "durationSeconds" : 0.14655161666666672
    }, {
      "type" : "note",
      "tick" : 13200,
      "timeSeconds" : 28.448255,
      "channel" : 2,
      "noteNumber" : 58,
      "noteName" : "A#3",
      "velocity" : 100,
      "durationTicks" : 71,
      "durationSeconds" : 0.15301712916666688
    }, {
      "type" : "note",
      "tick" : 13200,
      "timeSeconds" : 28.448255,
      "channel" : 2,
      "noteNumber" : 55,
      "noteName" : "G3",
      "velocity" : 101,
      "durationTicks" : 72,
      "durationSeconds" : 0.15517230000000026
    }, {
      "type" : "note",
      "tick" : 13320,
      "timeSeconds" : 28.7068755,
      "channel" : 2,
      "noteNumber" : 55,
      "noteName" : "G3",
      "velocity" : 104,
      "durationTicks" : 55,
      "durationSeconds" : 0.1185343958333327
    }, {
      "type" : "note",
      "tick" : 13320,
      "timeSeconds" : 28.7068755,
      "channel" : 2,
      "noteNumber" : 64,
      "noteName" : "E4",
      "velocity" : 94,
      "durationTicks" : 59,
      "durationSeconds" : 0.12715507916666624
    }, {
      "type" : "note",
      "tick" : 13320,
      "timeSeconds" : 28.7068755,
      "channel" : 2,
      "noteNumber" : 49,
      "noteName" : "C#3",
      "velocity" : 91,
      "durationTicks" : 63,
      "durationSeconds" : 0.13577576249999979
    }, {
      "type" : "note",
      "tick" : 13320,
      "timeSeconds" : 28.7068755,
      "channel" : 2,
      "noteNumber" : 58,
      "noteName" : "A#3",
      "velocity" : 104,
      "durationTicks" : 64,
      "durationSeconds" : 0.13793093333333317
    }, {
      "type" : "note",
      "tick" : 13680,
      "timeSeconds" : 29.482737,
      "channel" : 2,
      "noteNumber" : 50,
      "noteName" : "D3",
      "velocity" : 104,
      "durationTicks" : 51,
      "durationSeconds" : 0.10991371249999915
    }, {
      "type" : "note",
      "tick" : 13680,
      "timeSeconds" : 29.482737,
      "channel" : 2,
      "noteNumber" : 53,
      "noteName" : "F3",
      "velocity" : 117,
      "durationTicks" : 55,
      "durationSeconds" : 0.1185343958333327
    }, {
      "type" : "note",
      "tick" : 13680,
      "timeSeconds" : 29.482737,
      "channel" : 2,
      "noteNumber" : 64,
      "noteName" : "E4",
      "velocity" : 94,
      "durationTicks" : 59,
      "durationSeconds" : 0.12715507916666624
    }, {
      "type" : "note",
      "tick" : 13680,
      "timeSeconds" : 29.482737,
      "channel" : 2,
      "noteNumber" : 60,
      "noteName" : "C4",
      "velocity" : 108,
      "durationTicks" : 61,
      "durationSeconds" : 0.131465420833333
    }, {
      "type" : "note",
      "tick" : 13800,
      "timeSeconds" : 29.7413575,
      "channel" : 2,
      "noteNumber" : 60,
      "noteName" : "C4",
      "velocity" : 104,
      "durationTicks" : 54,
      "durationSeconds" : 0.11637922499999931
    }, {
      "type" : "note",
      "tick" : 13800,
      "timeSeconds" : 29.7413575,
      "channel" : 2,
      "noteNumber" : 53,
      "noteName" : "F3",
      "velocity" : 108,
      "durationTicks" : 57,
      "durationSeconds" : 0.12284473749999947
    }, {
      "type" : "note",
      "tick" : 13800,
      "timeSeconds" : 29.7413575,
      "channel" : 2,
      "noteNumber" : 50,
      "noteName" : "D3",
      "velocity" : 117,
      "durationTicks" : 57,
      "durationSeconds" : 0.12284473749999947
    }, {
      "type" : "note",
      "tick" : 13800,
      "timeSeconds" : 29.7413575,
      "channel" : 2,
      "noteNumber" : 64,
      "noteName" : "E4",
      "velocity" : 88,
      "durationTicks" : 62,
      "durationSeconds" : 0.1336205916666664
    }, {
      "type" : "note",
      "tick" : 14160,
      "timeSeconds" : 30.517219,
      "channel" : 2,
      "noteNumber" : 55,
      "noteName" : "G3",
      "velocity" : 113,
      "durationTicks" : 54,
      "durationSeconds" : 0.11637922499999931
    }, {
      "type" : "note",
      "tick" : 14160,
      "timeSeconds" : 30.517219,
      "channel" : 2,
      "noteNumber" : 41,
      "noteName" : "F2",
      "velocity" : 117,
      "durationTicks" : 54,
      "durationSeconds" : 0.11637922499999931
    }, {
      "type" : "note",
      "tick" : 14160,
      "timeSeconds" : 30.517219,
      "channel" : 2,
      "noteNumber" : 67,
      "noteName" : "G4",
      "velocity" : 108,
      "durationTicks" : 55,
      "durationSeconds" : 0.1185343958333327
    }, {
      "type" : "note",
      "tick" : 14160,
      "timeSeconds" : 30.517219,
      "channel" : 2,
      "noteNumber" : 63,
      "noteName" : "D#4",
      "velocity" : 95,
      "durationTicks" : 56,
      "durationSeconds" : 0.12068956666666608
    }, {
      "type" : "note",
      "tick" : 14280,
      "timeSeconds" : 30.7758395,
      "channel" : 2,
      "noteNumber" : 67,
      "noteName" : "G4",
      "velocity" : 113,
      "durationTicks" : 49,
      "durationSeconds" : 0.10560337083333238
    }, {
      "type" : "note",
      "tick" : 14280,
      "timeSeconds" : 30.7758395,
      "channel" : 2,
      "noteNumber" : 41,
      "noteName" : "F2",
      "velocity" : 97,
      "durationTicks" : 58,
      "durationSeconds" : 0.12499990833333285
    }, {
      "type" : "note",
      "tick" : 14280,
      "timeSeconds" : 30.7758395,
      "channel" : 2,
      "noteNumber" : 63,
      "noteName" : "D#4",
      "velocity" : 100,
      "durationTicks" : 67,
      "durationSeconds" : 0.14439644583333333
    }, {
      "type" : "note",
      "tick" : 14280,
      "timeSeconds" : 30.7758395,
      "channel" : 2,
      "noteNumber" : 55,
      "noteName" : "G3",
      "velocity" : 101,
      "durationTicks" : 74,
      "durationSeconds" : 0.15948264166666704
    }, {
      "type" : "note",
      "tick" : 14640,
      "timeSeconds" : 31.551701,
      "channel" : 2,
      "noteNumber" : 46,
      "noteName" : "A#2",
      "velocity" : 95,
      "durationTicks" : 52,
      "durationSeconds" : 0.11206888333333254
    }, {
      "type" : "note",
      "tick" : 14640,
      "timeSeconds" : 31.551701,
      "channel" : 2,
      "noteNumber" : 62,
      "noteName" : "D4",
      "velocity" : 104,
      "durationTicks" : 66,
      "durationSeconds" : 0.14224127499999994
    }, {
      "type" : "note",
      "tick" : 14640,
      "timeSeconds" : 31.551701,
      "channel" : 2,
      "noteNumber" : 57,
      "noteName" : "A3",
      "velocity" : 101,
      "durationTicks" : 67,
      "durationSeconds" : 0.14439644583333333
    }, {
      "type" : "note",
      "tick" : 14640,
      "timeSeconds" : 31.551701,
      "channel" : 2,
      "noteNumber" : 65,
      "noteName" : "F4",
      "velocity" : 86,
      "durationTicks" : 71,
      "durationSeconds" : 0.15301712916666688
    }, {
      "type" : "note",
      "tick" : 14760,
      "timeSeconds" : 31.8103215,
      "channel" : 2,
      "noteNumber" : 46,
      "noteName" : "A#2",
      "velocity" : 95,
      "durationTicks" : 47,
      "durationSeconds" : 0.1012930291666656
    }, {
      "type" : "note",
      "tick" : 14760,
      "timeSeconds" : 31.8103215,
      "channel" : 2,
      "noteNumber" : 57,
      "noteName" : "A3",
      "velocity" : 104,
      "durationTicks" : 53,
      "durationSeconds" : 0.11422405416666592
    }, {
      "type" : "note",
      "tick" : 14760,
      "timeSeconds" : 31.8103215,
      "channel" : 2,
      "noteNumber" : 65,
      "noteName" : "F4",
      "velocity" : 104,
      "durationTicks" : 55,
      "durationSeconds" : 0.1185343958333327
    }, {
      "type" : "note",
      "tick" : 14760,
      "timeSeconds" : 31.8103215,
      "channel" : 2,
      "noteNumber" : 62,
      "noteName" : "D4",
      "velocity" : 113,
      "durationTicks" : 57,
      "durationSeconds" : 0.12284473749999947
    }, {
      "type" : "note",
      "tick" : 15120,
      "timeSeconds" : 32.586183,
      "channel" : 2,
      "noteNumber" : 45,
      "noteName" : "A2",
      "velocity" : 117,
      "durationTicks" : 60,
      "durationSeconds" : 0.12931025000000318
    }, {
      "type" : "note",
      "tick" : 15120,
      "timeSeconds" : 32.586183,
      "channel" : 2,
      "noteNumber" : 61,
      "noteName" : "C#4",
      "velocity" : 100,
      "durationTicks" : 63,
      "durationSeconds" : 0.13577576250000334
    }, {
      "type" : "note",
      "tick" : 15120,
      "timeSeconds" : 32.586183,
      "channel" : 2,
      "noteNumber" : 55,
      "noteName" : "G3",
      "velocity" : 108,
      "durationTicks" : 65,
      "durationSeconds" : 0.1400861041666701
    }, {
      "type" : "note",
      "tick" : 15120,
      "timeSeconds" : 32.586183,
      "channel" : 2,
      "noteNumber" : 65,
      "noteName" : "F4",
      "velocity" : 101,
      "durationTicks" : 68,
      "durationSeconds" : 0.14655161666667027
    }, {
      "type" : "note",
      "tick" : 15240,
      "timeSeconds" : 32.8448035,
      "channel" : 2,
      "noteNumber" : 65,
      "noteName" : "F4",
      "velocity" : 101,
      "durationTicks" : 49,
      "durationSeconds" : 0.10560337083333593
    }, {
      "type" : "note",
      "tick" : 15240,
      "timeSeconds" : 32.8448035,
      "channel" : 2,
      "noteNumber" : 45,
      "noteName" : "A2",
      "velocity" : 113,
      "durationTicks" : 56,
      "durationSeconds" : 0.12068956666666963
    }, {
      "type" : "note",
      "tick" : 15240,
      "timeSeconds" : 32.8448035,
      "channel" : 2,
      "noteNumber" : 55,
      "noteName" : "G3",
      "velocity" : 113,
      "durationTicks" : 60,
      "durationSeconds" : 0.12931025000000318
    }, {
      "type" : "note",
      "tick" : 15240,
      "timeSeconds" : 32.8448035,
      "channel" : 2,
      "noteNumber" : 61,
      "noteName" : "C#4",
      "velocity" : 104,
      "durationTicks" : 61,
      "durationSeconds" : 0.13146542083333657
    }, {
      "type" : "note",
      "tick" : 15600,
      "timeSeconds" : 33.620665,
      "channel" : 2,
      "noteNumber" : 50,
      "noteName" : "D3",
      "velocity" : 101,
      "durationTicks" : 49,
      "durationSeconds" : 0.10560337083332882
    }, {
      "type" : "note",
      "tick" : 15600,
      "timeSeconds" : 33.620665,
      "channel" : 2,
      "noteNumber" : 53,
      "noteName" : "F3",
      "velocity" : 108,
      "durationTicks" : 52,
      "durationSeconds" : 0.11206888333332898
    }, {
      "type" : "note",
      "tick" : 15600,
      "timeSeconds" : 33.620665,
      "channel" : 2,
      "noteNumber" : 60,
      "noteName" : "C4",
      "velocity" : 108,
      "durationTicks" : 55,
      "durationSeconds" : 0.11853439583332914
    }, {
      "type" : "note",
      "tick" : 15600,
      "timeSeconds" : 33.620665,
      "channel" : 2,
      "noteNumber" : 64,
      "noteName" : "E4",
      "velocity" : 88,
      "durationTicks" : 56,
      "durationSeconds" : 0.12068956666666253
    }, {
      "type" : "note",
      "tick" : 15720,
      "timeSeconds" : 33.8792855,
      "channel" : 2,
      "noteNumber" : 50,
      "noteName" : "D3",
      "velocity" : 108,
      "durationTicks" : 55,
      "durationSeconds" : 0.11853439583332914
    }, {
      "type" : "note",
      "tick" : 15720,
      "timeSeconds" : 33.8792855,
      "channel" : 2,
      "noteNumber" : 64,
      "noteName" : "E4",
      "velocity" : 91,
      "durationTicks" : 60,
      "durationSeconds" : 0.12931024999999607
    }, {
      "type" : "note",
      "tick" : 15720,
      "timeSeconds" : 33.8792855,
      "channel" : 2,
      "noteNumber" : 60,
      "noteName" : "C4",
      "velocity" : 113,
      "durationTicks" : 67,
      "durationSeconds" : 0.14439644583332978
    }, {
      "type" : "note",
      "tick" : 15720,
      "timeSeconds" : 33.8792855,
      "channel" : 2,
      "noteNumber" : 53,
      "noteName" : "F3",
      "velocity" : 108,
      "durationTicks" : 74,
      "durationSeconds" : 0.15948264166666348
    }, {
      "type" : "note",
      "tick" : 15960,
      "timeSeconds" : 34.3965265,
      "channel" : 2,
      "noteNumber" : 55,
      "noteName" : "G3",
      "velocity" : 97,
      "durationTicks" : 19,
      "durationSeconds" : 0.04094824583333434
    }, {
      "type" : "note",
      "tick" : 15960,
      "timeSeconds" : 34.3965265,
      "channel" : 2,
      "noteNumber" : 58,
      "noteName" : "A#3",
      "velocity" : 95,
      "durationTicks" : 30,
      "durationSeconds" : 0.06465512500000159
    }, {
      "type" : "note",
      "tick" : 15960,
      "timeSeconds" : 34.3965265,
      "channel" : 2,
      "noteNumber" : 53,
      "noteName" : "F3",
      "velocity" : 104,
      "durationTicks" : 35,
      "durationSeconds" : 0.07543097916666852
    }, {
      "type" : "note",
      "tick" : 15960,
      "timeSeconds" : 34.3965265,
      "channel" : 2,
      "noteNumber" : 64,
      "noteName" : "E4",
      "velocity" : 94,
      "durationTicks" : 42,
      "durationSeconds" : 0.09051717500000223
    }, {
      "type" : "note",
      "tick" : 15960,
      "timeSeconds" : 34.3965265,
      "channel" : 2,
      "noteNumber" : 42,
      "noteName" : "F#2",
      "velocity" : 100,
      "durationTicks" : 93,
      "durationSeconds" : 0.20043088749999782
    }, {
      "type" : "note",
      "tick" : 16200,
      "timeSeconds" : 34.9137675,
      "channel" : 2,
      "noteNumber" : 42,
      "noteName" : "F#2",
      "velocity" : 110,
      "durationTicks" : 45,
      "durationSeconds" : 0.09698268750000238
    }, {
      "type" : "note",
      "tick" : 16200,
      "timeSeconds" : 34.9137675,
      "channel" : 2,
      "noteNumber" : 64,
      "noteName" : "E4",
      "velocity" : 97,
      "durationTicks" : 49,
      "durationSeconds" : 0.10560337083333593
    }, {
      "type" : "note",
      "tick" : 16200,
      "timeSeconds" : 34.9137675,
      "channel" : 2,
      "noteNumber" : 52,
      "noteName" : "E3",
      "velocity" : 104,
      "durationTicks" : 52,
      "durationSeconds" : 0.11206888333333609
    }, {
      "type" : "note",
      "tick" : 16200,
      "timeSeconds" : 34.9137675,
      "channel" : 2,
      "noteNumber" : 58,
      "noteName" : "A#3",
      "velocity" : 95,
      "durationTicks" : 67,
      "durationSeconds" : 0.14439644583333688
    }, {
      "type" : "note",
      "tick" : 16560,
      "timeSeconds" : 35.689629,
      "channel" : 2,
      "noteNumber" : 53,
      "noteName" : "F3",
      "velocity" : 113,
      "durationTicks" : 54,
      "durationSeconds" : 0.11637922500000286
    }, {
      "type" : "note",
      "tick" : 16560,
      "timeSeconds" : 35.689629,
      "channel" : 2,
      "noteNumber" : 43,
      "noteName" : "G2",
      "velocity" : 108,
      "durationTicks" : 59,
      "durationSeconds" : 0.1271550791666698
    }, {
      "type" : "note",
      "tick" : 16560,
      "timeSeconds" : 35.689629,
      "channel" : 2,
      "noteNumber" : 62,
      "noteName" : "D4",
      "velocity" : 97,
      "durationTicks" : 64,
      "durationSeconds" : 0.13793093333333672
    }, {
      "type" : "note",
      "tick" : 16560,
      "timeSeconds" : 35.689629,
      "channel" : 2,
      "noteNumber" : 58,
      "noteName" : "A#3",
      "velocity" : 95,
      "durationTicks" : 65,
      "durationSeconds" : 0.1400861041666701
    }, {
      "type" : "note",
      "tick" : 16680,
      "timeSeconds" : 35.9482495,
      "channel" : 2,
      "noteNumber" : 53,
      "noteName" : "F3",
      "velocity" : 113,
      "durationTicks" : 38,
      "durationSeconds" : 0.08189649166666157
    }, {
      "type" : "note",
      "tick" : 16680,
      "timeSeconds" : 35.9482495,
      "channel" : 2,
      "noteNumber" : 58,
      "noteName" : "A#3",
      "velocity" : 100,
      "durationTicks" : 47,
      "durationSeconds" : 0.10129302916666205
    }, {
      "type" : "note",
      "tick" : 16680,
      "timeSeconds" : 35.9482495,
      "channel" : 2,
      "noteNumber" : 62,
      "noteName" : "D4",
      "velocity" : 86,
      "durationTicks" : 47,
      "durationSeconds" : 0.10129302916666205
    }, {
      "type" : "note",
      "tick" : 16680,
      "timeSeconds" : 35.9482495,
      "channel" : 2,
      "noteNumber" : 43,
      "noteName" : "G2",
      "velocity" : 101,
      "durationTicks" : 61,
      "durationSeconds" : 0.13146542083332946
    }, {
      "type" : "note",
      "tick" : 17040,
      "timeSeconds" : 36.724111,
      "channel" : 2,
      "noteNumber" : 49,
      "noteName" : "C#3",
      "velocity" : 83,
      "durationTicks" : 60,
      "durationSeconds" : 0.12931024999999607
    }, {
      "type" : "note",
      "tick" : 17040,
      "timeSeconds" : 36.724111,
      "channel" : 2,
      "noteNumber" : 62,
      "noteName" : "D4",
      "velocity" : 81,
      "durationTicks" : 64,
      "durationSeconds" : 0.13793093333332962
    }, {
      "type" : "note",
      "tick" : 17040,
      "timeSeconds" : 36.724111,
      "channel" : 2,
      "noteNumber" : 58,
      "noteName" : "A#3",
      "velocity" : 80,
      "durationTicks" : 67,
      "durationSeconds" : 0.14439644583332978
    }, {
      "type" : "note",
      "tick" : 17160,
      "timeSeconds" : 36.9827315,
      "channel" : 2,
      "noteNumber" : 62,
      "noteName" : "D4",
      "velocity" : 101,
      "durationTicks" : 63,
      "durationSeconds" : 0.13577576250000334
    }, {
      "type" : "note",
      "tick" : 17160,
      "timeSeconds" : 36.9827315,
      "channel" : 2,
      "noteNumber" : 49,
      "noteName" : "C#3",
      "velocity" : 95,
      "durationTicks" : 65,
      "durationSeconds" : 0.1400861041666701
    }, {
      "type" : "note",
      "tick" : 17160,
      "timeSeconds" : 36.9827315,
      "channel" : 2,
      "noteNumber" : 58,
      "noteName" : "A#3",
      "velocity" : 100,
      "durationTicks" : 67,
      "durationSeconds" : 0.14439644583333688
    }, {
      "type" : "note",
      "tick" : 17520,
      "timeSeconds" : 37.758593,
      "channel" : 2,
      "noteNumber" : 50,
      "noteName" : "D3",
      "velocity" : 101,
      "durationTicks" : 52,
      "durationSeconds" : 0.11206888333333609
    }, {
      "type" : "note",
      "tick" : 17520,
      "timeSeconds" : 37.758593,
      "channel" : 2,
      "noteNumber" : 64,
      "noteName" : "E4",
      "velocity" : 86,
      "durationTicks" : 66,
      "durationSeconds" : 0.1422412750000035
    }, {
      "type" : "note",
      "tick" : 17520,
      "timeSeconds" : 37.758593,
      "channel" : 2,
      "noteNumber" : 60,
      "noteName" : "C4",
      "velocity" : 97,
      "durationTicks" : 66,
      "durationSeconds" : 0.1422412750000035
    }, {
      "type" : "note",
      "tick" : 17520,
      "timeSeconds" : 37.758593,
      "channel" : 2,
      "noteNumber" : 53,
      "noteName" : "F3",
      "velocity" : 88,
      "durationTicks" : 69,
      "durationSeconds" : 0.14870678750000366
    }, {
      "type" : "note",
      "tick" : 17640,
      "timeSeconds" : 38.0172135,
      "channel" : 2,
      "noteNumber" : 53,
      "noteName" : "F3",
      "velocity" : 108,
      "durationTicks" : 48,
      "durationSeconds" : 0.10344820000000254
    }, {
      "type" : "note",
      "tick" : 17640,
      "timeSeconds" : 38.0172135,
      "channel" : 2,
      "noteNumber" : 60,
      "noteName" : "C4",
      "velocity" : 113,
      "durationTicks" : 56,
      "durationSeconds" : 0.12068956666666963
    }, {
      "type" : "note",
      "tick" : 17640,
      "timeSeconds" : 38.0172135,
      "channel" : 2,
      "noteNumber" : 50,
      "noteName" : "D3",
      "velocity" : 108,
      "durationTicks" : 57,
      "durationSeconds" : 0.12284473750000302
    }, {
      "type" : "note",
      "tick" : 17640,
      "timeSeconds" : 38.0172135,
      "channel" : 2,
      "noteNumber" : 64,
      "noteName" : "E4",
      "velocity" : 94,
      "durationTicks" : 62,
      "durationSeconds" : 0.13362059166666995
    }, {
      "type" : "note",
      "tick" : 18000,
      "timeSeconds" : 38.793075,
      "channel" : 2,
      "noteNumber" : 57,
      "noteName" : "A3",
      "velocity" : 94,
      "durationTicks" : 59,
      "durationSeconds" : 0.1271550791666627
    }, {
      "type" : "note",
      "tick" : 18000,
      "timeSeconds" : 38.793075,
      "channel" : 2,
      "noteNumber" : 41,
      "noteName" : "F2",
      "velocity" : 108,
      "durationTicks" : 61,
      "durationSeconds" : 0.13146542083332946
    }, {
      "type" : "note",
      "tick" : 18000,
      "timeSeconds" : 38.793075,
      "channel" : 2,
      "noteNumber" : 67,
      "noteName" : "G4",
      "velocity" : 108,
      "durationTicks" : 65,
      "durationSeconds" : 0.140086104166663
    }, {
      "type" : "note",
      "tick" : 18000,
      "timeSeconds" : 38.793075,
      "channel" : 2,
      "noteNumber" : 63,
      "noteName" : "D#4",
      "velocity" : 95,
      "durationTicks" : 69,
      "durationSeconds" : 0.14870678749999655
    }, {
      "type" : "note",
      "tick" : 18120,
      "timeSeconds" : 39.0516955,
      "channel" : 2,
      "noteNumber" : 67,
      "noteName" : "G4",
      "velocity" : 101,
      "durationTicks" : 50,
      "durationSeconds" : 0.10775854166666221
    }, {
      "type" : "note",
      "tick" : 18120,
      "timeSeconds" : 39.0516955,
      "channel" : 2,
      "noteNumber" : 41,
      "noteName" : "F2",
      "velocity" : 101,
      "durationTicks" : 60,
      "durationSeconds" : 0.12931024999999607
    }, {
      "type" : "note",
      "tick" : 18120,
      "timeSeconds" : 39.0516955,
      "channel" : 2,
      "noteNumber" : 57,
      "noteName" : "A3",
      "velocity" : 101,
      "durationTicks" : 63,
      "durationSeconds" : 0.13577576249999623
    }, {
      "type" : "note",
      "tick" : 18120,
      "timeSeconds" : 39.0516955,
      "channel" : 2,
      "noteNumber" : 63,
      "noteName" : "D#4",
      "velocity" : 91,
      "durationTicks" : 65,
      "durationSeconds" : 0.140086104166663
    }, {
      "type" : "note",
      "tick" : 18480,
      "timeSeconds" : 39.827557,
      "channel" : 2,
      "noteNumber" : 67,
      "noteName" : "G4",
      "velocity" : 104,
      "durationTicks" : 51,
      "durationSeconds" : 0.1099137125000027
    }, {
      "type" : "note",
      "tick" : 18480,
      "timeSeconds" : 39.827557,
      "channel" : 2,
      "noteNumber" : 57,
      "noteName" : "A3",
      "velocity" : 94,
      "durationTicks" : 54,
      "durationSeconds" : 0.11637922500000286
    }, {
      "type" : "note",
      "tick" : 18480,
      "timeSeconds" : 39.827557,
      "channel" : 2,
      "noteNumber" : 62,
      "noteName" : "D4",
      "velocity" : 94,
      "durationTicks" : 63,
      "durationSeconds" : 0.13577576250000334
    }, {
      "type" : "note",
      "tick" : 18480,
      "timeSeconds" : 39.827557,
      "channel" : 2,
      "noteNumber" : 46,
      "noteName" : "A#2",
      "velocity" : 80,
      "durationTicks" : 63,
      "durationSeconds" : 0.13577576250000334
    }, {
      "type" : "note",
      "tick" : 18600,
      "timeSeconds" : 40.0861775,
      "channel" : 2,
      "noteNumber" : 46,
      "noteName" : "A#2",
      "velocity" : 87,
      "durationTicks" : 55,
      "durationSeconds" : 0.11853439583333625
    }, {
      "type" : "note",
      "tick" : 18600,
      "timeSeconds" : 40.0861775,
      "channel" : 2,
      "noteNumber" : 57,
      "noteName" : "A3",
      "velocity" : 97,
      "durationTicks" : 58,
      "durationSeconds" : 0.12499990833333641
    }, {
      "type" : "note",
      "tick" : 18600,
      "timeSeconds" : 40.0861775,
      "channel" : 2,
      "noteNumber" : 67,
      "noteName" : "G4",
      "velocity" : 108,
      "durationTicks" : 58,
      "durationSeconds" : 0.12499990833333641
    }, {
      "type" : "note",
      "tick" : 18600,
      "timeSeconds" : 40.0861775,
      "channel" : 2,
      "noteNumber" : 62,
      "noteName" : "D4",
      "velocity" : 108,
      "durationTicks" : 70,
      "durationSeconds" : 0.15086195833333704
    }, {
      "type" : "note",
      "tick" : 18960,
      "timeSeconds" : 40.862039,
      "channel" : 2,
      "noteNumber" : 45,
      "noteName" : "A2",
      "velocity" : 104,
      "durationTicks" : 56,
      "durationSeconds" : 0.12068956666666253
    }, {
      "type" : "note",
      "tick" : 18960,
      "timeSeconds" : 40.862039,
      "channel" : 2,
      "noteNumber" : 55,
      "noteName" : "G3",
      "velocity" : 104,
      "durationTicks" : 63,
      "durationSeconds" : 0.13577576249999623
    }, {
      "type" : "note",
      "tick" : 18960,
      "timeSeconds" : 40.862039,
      "channel" : 2,
      "noteNumber" : 61,
      "noteName" : "C#4",
      "velocity" : 95,
      "durationTicks" : 65,
      "durationSeconds" : 0.140086104166663
    }, {
      "type" : "note",
      "tick" : 18960,
      "timeSeconds" : 40.862039,
      "channel" : 2,
      "noteNumber" : 65,
      "noteName" : "F4",
      "velocity" : 94,
      "durationTicks" : 65,
      "durationSeconds" : 0.140086104166663
    }, {
      "type" : "note",
      "tick" : 19080,
      "timeSeconds" : 41.1206595,
      "channel" : 2,
      "noteNumber" : 61,
      "noteName" : "C#4",
      "velocity" : 80,
      "durationTicks" : 55,
      "durationSeconds" : 0.11853439583332914
    }, {
      "type" : "note",
      "tick" : 19080,
      "timeSeconds" : 41.1206595,
      "channel" : 2,
      "noteNumber" : 45,
      "noteName" : "A2",
      "velocity" : 88,
      "durationTicks" : 55,
      "durationSeconds" : 0.11853439583332914
    }, {
      "type" : "note",
      "tick" : 19080,
      "timeSeconds" : 41.1206595,
      "channel" : 2,
      "noteNumber" : 65,
      "noteName" : "F4",
      "velocity" : 86,
      "durationTicks" : 57,
      "durationSeconds" : 0.12284473749999592
    }, {
      "type" : "note",
      "tick" : 19080,
      "timeSeconds" : 41.1206595,
      "channel" : 2,
      "noteNumber" : 55,
      "noteName" : "G3",
      "velocity" : 86,
      "durationTicks" : 59,
      "durationSeconds" : 0.1271550791666627
    }, {
      "type" : "note",
      "tick" : 19440,
      "timeSeconds" : 41.896521,
      "channel" : 2,
      "noteNumber" : 50,
      "noteName" : "D3",
      "velocity" : 101,
      "durationTicks" : 50,
      "durationSeconds" : 0.10775854166666932
    }, {
      "type" : "note",
      "tick" : 19440,
      "timeSeconds" : 41.896521,
      "channel" : 2,
      "noteNumber" : 53,
      "noteName" : "F3",
      "velocity" : 108,
      "durationTicks" : 64,
      "durationSeconds" : 0.13793093333333672
    }, {
      "type" : "note",
      "tick" : 19440,
      "timeSeconds" : 41.896521,
      "channel" : 2,
      "noteNumber" : 64,
      "noteName" : "E4",
      "velocity" : 88,
      "durationTicks" : 64,
      "durationSeconds" : 0.13793093333333672
    }, {
      "type" : "note",
      "tick" : 19440,
      "timeSeconds" : 41.896521,
      "channel" : 2,
      "noteNumber" : 60,
      "noteName" : "C4",
      "velocity" : 108,
      "durationTicks" : 68,
      "durationSeconds" : 0.14655161666667027
    }, {
      "type" : "note",
      "tick" : 19560,
      "timeSeconds" : 42.1551415,
      "channel" : 2,
      "noteNumber" : 50,
      "noteName" : "D3",
      "velocity" : 117,
      "durationTicks" : 50,
      "durationSeconds" : 0.10775854166666932
    }, {
      "type" : "note",
      "tick" : 19560,
      "timeSeconds" : 42.1551415,
      "channel" : 2,
      "noteNumber" : 53,
      "noteName" : "F3",
      "velocity" : 113,
      "durationTicks" : 55,
      "durationSeconds" : 0.11853439583333625
    }, {
      "type" : "note",
      "tick" : 19560,
      "timeSeconds" : 42.1551415,
      "channel" : 2,
      "noteNumber" : 60,
      "noteName" : "C4",
      "velocity" : 108,
      "durationTicks" : 56,
      "durationSeconds" : 0.12068956666666963
    }, {
      "type" : "note",
      "tick" : 19560,
      "timeSeconds" : 42.1551415,
      "channel" : 2,
      "noteNumber" : 64,
      "noteName" : "E4",
      "velocity" : 88,
      "durationTicks" : 57,
      "durationSeconds" : 0.12284473750000302
    }, {
      "type" : "note",
      "tick" : 19920,
      "timeSeconds" : 42.931003,
      "channel" : 2,
      "noteNumber" : 42,
      "noteName" : "F#2",
      "velocity" : 104,
      "durationTicks" : 52,
      "durationSeconds" : 0.11206888333333609
    }, {
      "type" : "note",
      "tick" : 19920,
      "timeSeconds" : 42.931003,
      "channel" : 2,
      "noteNumber" : 64,
      "noteName" : "E4",
      "velocity" : 91,
      "durationTicks" : 68,
      "durationSeconds" : 0.14655161666667027
    }, {
      "type" : "note",
      "tick" : 19920,
      "timeSeconds" : 42.931003,
      "channel" : 2,
      "noteNumber" : 52,
      "noteName" : "E3",
      "velocity" : 104,
      "durationTicks" : 72,
      "durationSeconds" : 0.15517230000000382
    }, {
      "type" : "note",
      "tick" : 19920,
      "timeSeconds" : 42.931003,
      "channel" : 2,
      "noteNumber" : 58,
      "noteName" : "A#3",
      "velocity" : 91,
      "durationTicks" : 73,
      "durationSeconds" : 0.1573274708333372
    }, {
      "type" : "note",
      "tick" : 20040,
      "timeSeconds" : 43.1896235,
      "channel" : 2,
      "noteNumber" : 42,
      "noteName" : "F#2",
      "velocity" : 104,
      "durationTicks" : 58,
      "durationSeconds" : 0.1249999083333293
    }, {
      "type" : "note",
      "tick" : 20040,
      "timeSeconds" : 43.1896235,
      "channel" : 2,
      "noteNumber" : 52,
      "noteName" : "E3",
      "velocity" : 97,
      "durationTicks" : 69,
      "durationSeconds" : 0.14870678749999655
    }, {
      "type" : "note",
      "tick" : 20040,
      "timeSeconds" : 43.1896235,
      "channel" : 2,
      "noteNumber" : 64,
      "noteName" : "E4",
      "velocity" : 97,
      "durationTicks" : 69,
      "durationSeconds" : 0.14870678749999655
    }, {
      "type" : "note",
      "tick" : 20040,
      "timeSeconds" : 43.1896235,
      "channel" : 2,
      "noteNumber" : 58,
      "noteName" : "A#3",
      "velocity" : 100,
      "durationTicks" : 71,
      "durationSeconds" : 0.15301712916666332
    }, {
      "type" : "note",
      "tick" : 20400,
      "timeSeconds" : 43.965485,
      "channel" : 2,
      "noteNumber" : 58,
      "noteName" : "A#3",
      "velocity" : 95,
      "durationTicks" : 51,
      "durationSeconds" : 0.1099137124999956
    }, {
      "type" : "note",
      "tick" : 20400,
      "timeSeconds" : 43.965485,
      "channel" : 2,
      "noteNumber" : 53,
      "noteName" : "F3",
      "velocity" : 104,
      "durationTicks" : 53,
      "durationSeconds" : 0.11422405416666237
    }, {
      "type" : "note",
      "tick" : 20400,
      "timeSeconds" : 43.965485,
      "channel" : 2,
      "noteNumber" : 62,
      "noteName" : "D4",
      "velocity" : 108,
      "durationTicks" : 56,
      "durationSeconds" : 0.12068956666666253
    }, {
      "type" : "note",
      "tick" : 20400,
      "timeSeconds" : 43.965485,
      "channel" : 2,
      "noteNumber" : 43,
      "noteName" : "G2",
      "velocity" : 108,
      "durationTicks" : 56,
      "durationSeconds" : 0.12068956666666253
    }, {
      "type" : "note",
      "tick" : 20520,
      "timeSeconds" : 44.2241055,
      "channel" : 2,
      "noteNumber" : 53,
      "noteName" : "F3",
      "velocity" : 113,
      "durationTicks" : 51,
      "durationSeconds" : 0.1099137125000027
    }, {
      "type" : "note",
      "tick" : 20520,
      "timeSeconds" : 44.2241055,
      "channel" : 2,
      "noteNumber" : 58,
      "noteName" : "A#3",
      "velocity" : 100,
      "durationTicks" : 60,
      "durationSeconds" : 0.12931025000000318
    }, {
      "type" : "note",
      "tick" : 20520,
      "timeSeconds" : 44.2241055,
      "channel" : 2,
      "noteNumber" : 62,
      "noteName" : "D4",
      "velocity" : 97,
      "durationTicks" : 60,
      "durationSeconds" : 0.12931025000000318
    }, {
      "type" : "note",
      "tick" : 20520,
      "timeSeconds" : 44.2241055,
      "channel" : 2,
      "noteNumber" : 43,
      "noteName" : "G2",
      "velocity" : 104,
      "durationTicks" : 70,
      "durationSeconds" : 0.15086195833332994
    }, {
      "type" : "note",
      "tick" : 20880,
      "timeSeconds" : 44.999967,
      "channel" : 2,
      "noteNumber" : 49,
      "noteName" : "C#3",
      "velocity" : 71,
      "durationTicks" : 60,
      "durationSeconds" : 0.12931025000000318
    }, {
      "type" : "note",
      "tick" : 20880,
      "timeSeconds" : 44.999967,
      "channel" : 2,
      "noteNumber" : 64,
      "noteName" : "E4",
      "velocity" : 81,
      "durationTicks" : 65,
      "durationSeconds" : 0.1400861041666701
    }, {
      "type" : "note",
      "tick" : 20880,
      "timeSeconds" : 44.999967,
      "channel" : 2,
      "noteNumber" : 58,
      "noteName" : "A#3",
      "velocity" : 87,
      "durationTicks" : 66,
      "durationSeconds" : 0.1422412750000035
    }, {
      "type" : "note",
      "tick" : 20880,
      "timeSeconds" : 44.999967,
      "channel" : 2,
      "noteNumber" : 55,
      "noteName" : "G3",
      "velocity" : 75,
      "durationTicks" : 66,
      "durationSeconds" : 0.1422412750000035
    }, {
      "type" : "note",
      "tick" : 21000,
      "timeSeconds" : 45.2585875,
      "channel" : 2,
      "noteNumber" : 58,
      "noteName" : "A#3",
      "velocity" : 104,
      "durationTicks" : 64,
      "durationSeconds" : 0.13793093333333672
    }, {
      "type" : "note",
      "tick" : 21000,
      "timeSeconds" : 45.2585875,
      "channel" : 2,
      "noteNumber" : 64,
      "noteName" : "E4",
      "velocity" : 97,
      "durationTicks" : 66,
      "durationSeconds" : 0.1422412750000035
    }, {
      "type" : "note",
      "tick" : 21000,
      "timeSeconds" : 45.2585875,
      "channel" : 2,
      "noteNumber" : 55,
      "noteName" : "G3",
      "velocity" : 101,
      "durationTicks" : 67,
      "durationSeconds" : 0.14439644583333688
    }, {
      "type" : "note",
      "tick" : 21000,
      "timeSeconds" : 45.2585875,
      "channel" : 2,
      "noteNumber" : 49,
      "noteName" : "C#3",
      "velocity" : 73,
      "durationTicks" : 67,
      "durationSeconds" : 0.14439644583333688
    }, {
      "type" : "note",
      "tick" : 21360,
      "timeSeconds" : 46.034449,
      "channel" : 2,
      "noteNumber" : 50,
      "noteName" : "D3",
      "velocity" : 104,
      "durationTicks" : 57,
      "durationSeconds" : 0.12284473749999592
    }, {
      "type" : "note",
      "tick" : 21360,
      "timeSeconds" : 46.034449,
      "channel" : 2,
      "noteNumber" : 53,
      "noteName" : "F3",
      "velocity" : 117,
      "durationTicks" : 62,
      "durationSeconds" : 0.13362059166666285
    }, {
      "type" : "note",
      "tick" : 21360,
      "timeSeconds" : 46.034449,
      "channel" : 2,
      "noteNumber" : 64,
      "noteName" : "E4",
      "velocity" : 94,
      "durationTicks" : 65,
      "durationSeconds" : 0.140086104166663
    }, {
      "type" : "note",
      "tick" : 21360,
      "timeSeconds" : 46.034449,
      "channel" : 2,
      "noteNumber" : 60,
      "noteName" : "C4",
      "velocity" : 117,
      "durationTicks" : 71,
      "durationSeconds" : 0.15301712916666332
    }, {
      "type" : "note",
      "tick" : 21480,
      "timeSeconds" : 46.2930695,
      "channel" : 2,
      "noteNumber" : 53,
      "noteName" : "F3",
      "velocity" : 97,
      "durationTicks" : 51,
      "durationSeconds" : 0.1099137124999956
    }, {
      "type" : "note",
      "tick" : 21480,
      "timeSeconds" : 46.2930695,
      "channel" : 2,
      "noteNumber" : 50,
      "noteName" : "D3",
      "velocity" : 104,
      "durationTicks" : 52,
      "durationSeconds" : 0.11206888333332898
    }, {
      "type" : "note",
      "tick" : 21480,
      "timeSeconds" : 46.2930695,
      "channel" : 2,
      "noteNumber" : 60,
      "noteName" : "C4",
      "velocity" : 101,
      "durationTicks" : 54,
      "durationSeconds" : 0.11637922499999576
    }, {
      "type" : "note",
      "tick" : 21480,
      "timeSeconds" : 46.2930695,
      "channel" : 2,
      "noteNumber" : 64,
      "noteName" : "E4",
      "velocity" : 86,
      "durationTicks" : 57,
      "durationSeconds" : 0.12284473749999592
    }, {
      "type" : "note",
      "tick" : 21840,
      "timeSeconds" : 47.068931,
      "channel" : 2,
      "noteNumber" : 41,
      "noteName" : "F2",
      "velocity" : 113,
      "durationTicks" : 61,
      "durationSeconds" : 0.13146542083333657
    }, {
      "type" : "note",
      "tick" : 21840,
      "timeSeconds" : 47.068931,
      "channel" : 2,
      "noteNumber" : 67,
      "noteName" : "G4",
      "velocity" : 108,
      "durationTicks" : 64,
      "durationSeconds" : 0.13793093333333672
    }, {
      "type" : "note",
      "tick" : 21840,
      "timeSeconds" : 47.068931,
      "channel" : 2,
      "noteNumber" : 55,
      "noteName" : "G3",
      "velocity" : 97,
      "durationTicks" : 73,
      "durationSeconds" : 0.1573274708333372
    }, {
      "type" : "note",
      "tick" : 21840,
      "timeSeconds" : 47.068931,
      "channel" : 2,
      "noteNumber" : 63,
      "noteName" : "D#4",
      "velocity" : 87,
      "durationTicks" : 73,
      "durationSeconds" : 0.1573274708333372
    }, {
      "type" : "note",
      "tick" : 21960,
      "timeSeconds" : 47.3275515,
      "channel" : 2,
      "noteNumber" : 67,
      "noteName" : "G4",
      "velocity" : 113,
      "durationTicks" : 49,
      "durationSeconds" : 0.10560337083333593
    }, {
      "type" : "note",
      "tick" : 21960,
      "timeSeconds" : 47.3275515,
      "channel" : 2,
      "noteNumber" : 55,
      "noteName" : "G3",
      "velocity" : 101,
      "durationTicks" : 56,
      "durationSeconds" : 0.12068956666666963
    }, {
      "type" : "note",
      "tick" : 21960,
      "timeSeconds" : 47.3275515,
      "channel" : 2,
      "noteNumber" : 41,
      "noteName" : "F2",
      "velocity" : 108,
      "durationTicks" : 66,
      "durationSeconds" : 0.1422412750000035
    }, {
      "type" : "note",
      "tick" : 21960,
      "timeSeconds" : 47.3275515,
      "channel" : 2,
      "noteNumber" : 63,
      "noteName" : "D#4",
      "velocity" : 95,
      "durationTicks" : 69,
      "durationSeconds" : 0.14870678750000366
    }, {
      "type" : "note",
      "tick" : 22320,
      "timeSeconds" : 48.103413,
      "channel" : 2,
      "noteNumber" : 46,
      "noteName" : "A#2",
      "velocity" : 87,
      "durationTicks" : 57,
      "durationSeconds" : 0.12284473749999592
    }, {
      "type" : "note",
      "tick" : 22320,
      "timeSeconds" : 48.103413,
      "channel" : 2,
      "noteNumber" : 67,
      "noteName" : "G4",
      "velocity" : 108,
      "durationTicks" : 65,
      "durationSeconds" : 0.140086104166663
    }, {
      "type" : "note",
      "tick" : 22320,
      "timeSeconds" : 48.103413,
      "channel" : 2,
      "noteNumber" : 57,
      "noteName" : "A3",
      "velocity" : 104,
      "durationTicks" : 66,
      "durationSeconds" : 0.1422412749999964
    }, {
      "type" : "note",
      "tick" : 22320,
      "timeSeconds" : 48.103413,
      "channel" : 2,
      "noteNumber" : 62,
      "noteName" : "D4",
      "velocity" : 108,
      "durationTicks" : 74,
      "durationSeconds" : 0.15948264166666348
    }, {
      "type" : "note",
      "tick" : 22440,
      "timeSeconds" : 48.3620335,
      "channel" : 2,
      "noteNumber" : 57,
      "noteName" : "A3",
      "velocity" : 101,
      "durationTicks" : 54,
      "durationSeconds" : 0.11637922499999576
    }, {
      "type" : "note",
      "tick" : 22440,
      "timeSeconds" : 48.3620335,
      "channel" : 2,
      "noteNumber" : 67,
      "noteName" : "G4",
      "velocity" : 104,
      "durationTicks" : 59,
      "durationSeconds" : 0.1271550791666627
    }, {
      "type" : "note",
      "tick" : 22440,
      "timeSeconds" : 48.3620335,
      "channel" : 2,
      "noteNumber" : 46,
      "noteName" : "A#2",
      "velocity" : 80,
      "durationTicks" : 59,
      "durationSeconds" : 0.1271550791666627
    }, {
      "type" : "note",
      "tick" : 22440,
      "timeSeconds" : 48.3620335,
      "channel" : 2,
      "noteNumber" : 62,
      "noteName" : "D4",
      "velocity" : 101,
      "durationTicks" : 64,
      "durationSeconds" : 0.13793093333332962
    }, {
      "type" : "note",
      "tick" : 22800,
      "timeSeconds" : 49.137895,
      "channel" : 2,
      "noteNumber" : 67,
      "noteName" : "G4",
      "velocity" : 113,
      "durationTicks" : 50,
      "durationSeconds" : 0.10775854166666932
    }, {
      "type" : "note",
      "tick" : 22800,
      "timeSeconds" : 49.137895,
      "channel" : 2,
      "noteNumber" : 46,
      "noteName" : "A#2",
      "velocity" : 95,
      "durationTicks" : 56,
      "durationSeconds" : 0.12068956666666963
    }, {
      "type" : "note",
      "tick" : 22800,
      "timeSeconds" : 49.137895,
      "channel" : 2,
      "noteNumber" : 62,
      "noteName" : "D4",
      "velocity" : 104,
      "durationTicks" : 59,
      "durationSeconds" : 0.1271550791666698
    }, {
      "type" : "note",
      "tick" : 22800,
      "timeSeconds" : 49.137895,
      "channel" : 2,
      "noteNumber" : 57,
      "noteName" : "A3",
      "velocity" : 101,
      "durationTicks" : 65,
      "durationSeconds" : 0.140086104166663
    }, {
      "type" : "note",
      "tick" : 22920,
      "timeSeconds" : 49.3965155,
      "channel" : 2,
      "noteNumber" : 67,
      "noteName" : "G4",
      "velocity" : 97,
      "durationTicks" : 41,
      "durationSeconds" : 0.08836200416666884
    }, {
      "type" : "note",
      "tick" : 22920,
      "timeSeconds" : 49.3965155,
      "channel" : 2,
      "noteNumber" : 46,
      "noteName" : "A#2",
      "velocity" : 80,
      "durationTicks" : 51,
      "durationSeconds" : 0.1099137125000027
    }, {
      "type" : "note",
      "tick" : 22920,
      "timeSeconds" : 49.3965155,
      "channel" : 2,
      "noteNumber" : 62,
      "noteName" : "D4",
      "velocity" : 97,
      "durationTicks" : 56,
      "durationSeconds" : 0.12068956666666963
    }, {
      "type" : "note",
      "tick" : 22920,
      "timeSeconds" : 49.3965155,
      "channel" : 2,
      "noteNumber" : 57,
      "noteName" : "A3",
      "velocity" : 86,
      "durationTicks" : 63,
      "durationSeconds" : 0.13577576250000334
    }, {
      "type" : "note",
      "tick" : 23280,
      "timeSeconds" : 50.172377,
      "channel" : 2,
      "noteNumber" : 55,
      "noteName" : "G3",
      "velocity" : 108,
      "durationTicks" : 56,
      "durationSeconds" : 0.12068956666666963
    }, {
      "type" : "note",
      "tick" : 23280,
      "timeSeconds" : 50.172377,
      "channel" : 2,
      "noteNumber" : 64,
      "noteName" : "E4",
      "velocity" : 94,
      "durationTicks" : 57,
      "durationSeconds" : 0.12284473750000302
    }, {
      "type" : "note",
      "tick" : 23280,
      "timeSeconds" : 50.172377,
      "channel" : 2,
      "noteNumber" : 52,
      "noteName" : "E3",
      "velocity" : 81,
      "durationTicks" : 59,
      "durationSeconds" : 0.1271550791666698
    }, {
      "type" : "note",
      "tick" : 23280,
      "timeSeconds" : 50.172377,
      "channel" : 2,
      "noteNumber" : 58,
      "noteName" : "A#3",
      "velocity" : 95,
      "durationTicks" : 60,
      "durationSeconds" : 0.12931025000000318
    }, {
      "type" : "note",
      "tick" : 23400,
      "timeSeconds" : 50.4309975,
      "channel" : 2,
      "noteNumber" : 55,
      "noteName" : "G3",
      "velocity" : 94,
      "durationTicks" : 63,
      "durationSeconds" : 0.13577576250000334
    }, {
      "type" : "note",
      "tick" : 23400,
      "timeSeconds" : 50.4309975,
      "channel" : 2,
      "noteNumber" : 52,
      "noteName" : "E3",
      "velocity" : 81,
      "durationTicks" : 65,
      "durationSeconds" : 0.1400861041666701
    }, {
      "type" : "note",
      "tick" : 23400,
      "timeSeconds" : 50.4309975,
      "channel" : 2,
      "noteNumber" : 58,
      "noteName" : "A#3",
      "velocity" : 87,
      "durationTicks" : 70,
      "durationSeconds" : 0.15086195833333704
    }, {
      "type" : "note",
      "tick" : 23400,
      "timeSeconds" : 50.4309975,
      "channel" : 2,
      "noteNumber" : 64,
      "noteName" : "E4",
      "velocity" : 88,
      "durationTicks" : 73,
      "durationSeconds" : 0.1573274708333372
    }, {
      "type" : "note",
      "tick" : 23760,
      "timeSeconds" : 51.206859,
      "channel" : 2,
      "noteNumber" : 42,
      "noteName" : "F#2",
      "velocity" : 100,
      "durationTicks" : 63,
      "durationSeconds" : 0.13577576249999623
    }, {
      "type" : "note",
      "tick" : 23760,
      "timeSeconds" : 51.206859,
      "channel" : 2,
      "noteNumber" : 64,
      "noteName" : "E4",
      "velocity" : 91,
      "durationTicks" : 67,
      "durationSeconds" : 0.14439644583332978
    }, {
      "type" : "note",
      "tick" : 23760,
      "timeSeconds" : 51.206859,
      "channel" : 2,
      "noteNumber" : 52,
      "noteName" : "E3",
      "velocity" : 101,
      "durationTicks" : 72,
      "durationSeconds" : 0.1551722999999967
    }, {
      "type" : "note",
      "tick" : 23760,
      "timeSeconds" : 51.206859,
      "channel" : 2,
      "noteNumber" : 58,
      "noteName" : "A#3",
      "velocity" : 91,
      "durationTicks" : 72,
      "durationSeconds" : 0.1551722999999967
    }, {
      "type" : "note",
      "tick" : 23880,
      "timeSeconds" : 51.4654795,
      "channel" : 2,
      "noteNumber" : 42,
      "noteName" : "F#2",
      "velocity" : 100,
      "durationTicks" : 55,
      "durationSeconds" : 0.11853439583332914
    }, {
      "type" : "note",
      "tick" : 23880,
      "timeSeconds" : 51.4654795,
      "channel" : 2,
      "noteNumber" : 64,
      "noteName" : "E4",
      "velocity" : 97,
      "durationTicks" : 74,
      "durationSeconds" : 0.15948264166666348
    }, {
      "type" : "note",
      "tick" : 23880,
      "timeSeconds" : 51.4654795,
      "channel" : 2,
      "noteNumber" : 52,
      "noteName" : "E3",
      "velocity" : 97,
      "durationTicks" : 74,
      "durationSeconds" : 0.15948264166666348
    }, {
      "type" : "note",
      "tick" : 23880,
      "timeSeconds" : 51.4654795,
      "channel" : 2,
      "noteNumber" : 58,
      "noteName" : "A#3",
      "velocity" : 95,
      "durationTicks" : 75,
      "durationSeconds" : 0.16163781249999687
    }, {
      "type" : "note",
      "tick" : 24240,
      "timeSeconds" : 52.241341,
      "channel" : 2,
      "noteNumber" : 43,
      "noteName" : "G2",
      "velocity" : 104,
      "durationTicks" : 54,
      "durationSeconds" : 0.11637922500000286
    }, {
      "type" : "note",
      "tick" : 24240,
      "timeSeconds" : 52.241341,
      "channel" : 2,
      "noteNumber" : 53,
      "noteName" : "F3",
      "velocity" : 113,
      "durationTicks" : 56,
      "durationSeconds" : 0.12068956666666963
    }, {
      "type" : "note",
      "tick" : 24240,
      "timeSeconds" : 52.241341,
      "channel" : 2,
      "noteNumber" : 62,
      "noteName" : "D4",
      "velocity" : 104,
      "durationTicks" : 62,
      "durationSeconds" : 0.13362059166666995
    }, {
      "type" : "note",
      "tick" : 24240,
      "timeSeconds" : 52.241341,
      "channel" : 2,
      "noteNumber" : 58,
      "noteName" : "A#3",
      "velocity" : 95,
      "durationTicks" : 65,
      "durationSeconds" : 0.1400861041666701
    }, {
      "type" : "note",
      "tick" : 24360,
      "timeSeconds" : 52.4999615,
      "channel" : 2,
      "noteNumber" : 53,
      "noteName" : "F3",
      "velocity" : 113,
      "durationTicks" : 48,
      "durationSeconds" : 0.10344820000000254
    }, {
      "type" : "note",
      "tick" : 24360,
      "timeSeconds" : 52.4999615,
      "channel" : 2,
      "noteNumber" : 43,
      "noteName" : "G2",
      "velocity" : 108,
      "durationTicks" : 50,
      "durationSeconds" : 0.10775854166666932
    }, {
      "type" : "note",
      "tick" : 24360,
      "timeSeconds" : 52.4999615,
      "channel" : 2,
      "noteNumber" : 62,
      "noteName" : "D4",
      "velocity" : 97,
      "durationTicks" : 60,
      "durationSeconds" : 0.12931025000000318
    }, {
      "type" : "note",
      "tick" : 24360,
      "timeSeconds" : 52.4999615,
      "channel" : 2,
      "noteNumber" : 58,
      "noteName" : "A#3",
      "velocity" : 95,
      "durationTicks" : 62,
      "durationSeconds" : 0.13362059166666995
    }, {
      "type" : "note",
      "tick" : 24720,
      "timeSeconds" : 53.275823,
      "channel" : 2,
      "noteNumber" : 49,
      "noteName" : "C#3",
      "velocity" : 91,
      "durationTicks" : 50,
      "durationSeconds" : 0.10775854166666221
    }, {
      "type" : "note",
      "tick" : 24720,
      "timeSeconds" : 53.275823,
      "channel" : 2,
      "noteNumber" : 55,
      "noteName" : "G3",
      "velocity" : 104,
      "durationTicks" : 55,
      "durationSeconds" : 0.11853439583332914
    }, {
      "type" : "note",
      "tick" : 24720,
      "timeSeconds" : 53.275823,
      "channel" : 2,
      "noteNumber" : 64,
      "noteName" : "E4",
      "velocity" : 91,
      "durationTicks" : 58,
      "durationSeconds" : 0.1249999083333293
    }, {
      "type" : "note",
      "tick" : 24720,
      "timeSeconds" : 53.275823,
      "channel" : 2,
      "noteNumber" : 58,
      "noteName" : "A#3",
      "velocity" : 95,
      "durationTicks" : 60,
      "durationSeconds" : 0.12931024999999607
    }, {
      "type" : "note",
      "tick" : 24840,
      "timeSeconds" : 53.5344435,
      "channel" : 2,
      "noteNumber" : 64,
      "noteName" : "E4",
      "velocity" : 88,
      "durationTicks" : 56,
      "durationSeconds" : 0.12068956666666253
    }, {
      "type" : "note",
      "tick" : 24840,
      "timeSeconds" : 53.5344435,
      "channel" : 2,
      "noteNumber" : 55,
      "noteName" : "G3",
      "velocity" : 97,
      "durationTicks" : 56,
      "durationSeconds" : 0.12068956666666253
    }, {
      "type" : "note",
      "tick" : 24840,
      "timeSeconds" : 53.5344435,
      "channel" : 2,
      "noteNumber" : 49,
      "noteName" : "C#3",
      "velocity" : 91,
      "durationTicks" : 63,
      "durationSeconds" : 0.13577576249999623
    }, {
      "type" : "note",
      "tick" : 24840,
      "timeSeconds" : 53.5344435,
      "channel" : 2,
      "noteNumber" : 58,
      "noteName" : "A#3",
      "velocity" : 95,
      "durationTicks" : 71,
      "durationSeconds" : 0.15301712916666332
    }, {
      "type" : "note",
      "tick" : 25200,
      "timeSeconds" : 54.310305,
      "channel" : 2,
      "noteNumber" : 64,
      "noteName" : "E4",
      "velocity" : 94,
      "durationTicks" : 44,
      "durationSeconds" : 0.094827516666669
    }, {
      "type" : "note",
      "tick" : 25200,
      "timeSeconds" : 54.310305,
      "channel" : 2,
      "noteNumber" : 50,
      "noteName" : "D3",
      "velocity" : 108,
      "durationTicks" : 44,
      "durationSeconds" : 0.094827516666669
    }, {
      "type" : "note",
      "tick" : 25200,
      "timeSeconds" : 54.310305,
      "channel" : 2,
      "noteNumber" : 53,
      "noteName" : "F3",
      "velocity" : 113,
      "durationTicks" : 45,
      "durationSeconds" : 0.09698268750000238
    }, {
      "type" : "note",
      "tick" : 25200,
      "timeSeconds" : 54.310305,
      "channel" : 2,
      "noteNumber" : 60,
      "noteName" : "C4",
      "velocity" : 104,
      "durationTicks" : 48,
      "durationSeconds" : 0.10344820000000254
    }, {
      "type" : "note",
      "tick" : 25320,
      "timeSeconds" : 54.5689255,
      "channel" : 2,
      "noteNumber" : 53,
      "noteName" : "F3",
      "velocity" : 108,
      "durationTicks" : 51,
      "durationSeconds" : 0.1099137125000027
    }, {
      "type" : "note",
      "tick" : 25320,
      "timeSeconds" : 54.5689255,
      "channel" : 2,
      "noteNumber" : 60,
      "noteName" : "C4",
      "velocity" : 117,
      "durationTicks" : 58,
      "durationSeconds" : 0.12499990833333641
    }, {
      "type" : "note",
      "tick" : 25320,
      "timeSeconds" : 54.5689255,
      "channel" : 2,
      "noteNumber" : 64,
      "noteName" : "E4",
      "velocity" : 101,
      "durationTicks" : 61,
      "durationSeconds" : 0.13146542083333657
    }, {
      "type" : "note",
      "tick" : 25320,
      "timeSeconds" : 54.5689255,
      "channel" : 2,
      "noteNumber" : 50,
      "noteName" : "D3",
      "velocity" : 108,
      "durationTicks" : 61,
      "durationSeconds" : 0.13146542083333657
    }, {
      "type" : "note",
      "tick" : 25680,
      "timeSeconds" : 55.344787,
      "channel" : 2,
      "noteNumber" : 67,
      "noteName" : "G4",
      "velocity" : 108,
      "durationTicks" : 58,
      "durationSeconds" : 0.12499990833333641
    }, {
      "type" : "note",
      "tick" : 25680,
      "timeSeconds" : 55.344787,
      "channel" : 2,
      "noteNumber" : 57,
      "noteName" : "A3",
      "velocity" : 101,
      "durationTicks" : 63,
      "durationSeconds" : 0.13577576250000334
    }, {
      "type" : "note",
      "tick" : 25680,
      "timeSeconds" : 55.344787,
      "channel" : 2,
      "noteNumber" : 63,
      "noteName" : "D#4",
      "velocity" : 87,
      "durationTicks" : 64,
      "durationSeconds" : 0.13793093333333672
    }, {
      "type" : "note",
      "tick" : 25680,
      "timeSeconds" : 55.344787,
      "channel" : 2,
      "noteNumber" : 41,
      "noteName" : "F2",
      "velocity" : 101,
      "durationTicks" : 75,
      "durationSeconds" : 0.16163781250000397
    }, {
      "type" : "note",
      "tick" : 25800,
      "timeSeconds" : 55.6034075,
      "channel" : 2,
      "noteNumber" : 67,
      "noteName" : "G4",
      "velocity" : 104,
      "durationTicks" : 51,
      "durationSeconds" : 0.1099137124999956
    }, {
      "type" : "note",
      "tick" : 25800,
      "timeSeconds" : 55.6034075,
      "channel" : 2,
      "noteNumber" : 57,
      "noteName" : "A3",
      "velocity" : 104,
      "durationTicks" : 55,
      "durationSeconds" : 0.11853439583332914
    }, {
      "type" : "note",
      "tick" : 25800,
      "timeSeconds" : 55.6034075,
      "channel" : 2,
      "noteNumber" : 63,
      "noteName" : "D#4",
      "velocity" : 100,
      "durationTicks" : 60,
      "durationSeconds" : 0.12931024999999607
    }, {
      "type" : "note",
      "tick" : 25800,
      "timeSeconds" : 55.6034075,
      "channel" : 2,
      "noteNumber" : 41,
      "noteName" : "F2",
      "velocity" : 108,
      "durationTicks" : 63,
      "durationSeconds" : 0.13577576249999623
    }, {
      "type" : "note",
      "tick" : 26160,
      "timeSeconds" : 56.379269,
      "channel" : 2,
      "noteNumber" : 46,
      "noteName" : "A#2",
      "velocity" : 91,
      "durationTicks" : 47,
      "durationSeconds" : 0.10129302916666916
    }, {
      "type" : "note",
      "tick" : 26160,
      "timeSeconds" : 56.379269,
      "channel" : 2,
      "noteNumber" : 67,
      "noteName" : "G4",
      "velocity" : 108,
      "durationTicks" : 50,
      "durationSeconds" : 0.10775854166666932
    }, {
      "type" : "note",
      "tick" : 26160,
      "timeSeconds" : 56.379269,
      "channel" : 2,
      "noteNumber" : 57,
      "noteName" : "A3",
      "velocity" : 97,
      "durationTicks" : 58,
      "durationSeconds" : 0.1249999083333293
    }, {
      "type" : "note",
      "tick" : 26160,
      "timeSeconds" : 56.379269,
      "channel" : 2,
      "noteNumber" : 62,
      "noteName" : "D4",
      "velocity" : 104,
      "durationTicks" : 61,
      "durationSeconds" : 0.13146542083332946
    }, {
      "type" : "note",
      "tick" : 26280,
      "timeSeconds" : 56.6378895,
      "channel" : 2,
      "noteNumber" : 67,
      "noteName" : "G4",
      "velocity" : 104,
      "durationTicks" : 46,
      "durationSeconds" : 0.09913785833333577
    }, {
      "type" : "note",
      "tick" : 26280,
      "timeSeconds" : 56.6378895,
      "channel" : 2,
      "noteNumber" : 46,
      "noteName" : "A#2",
      "velocity" : 91,
      "durationTicks" : 55,
      "durationSeconds" : 0.11853439583333625
    }, {
      "type" : "note",
      "tick" : 26280,
      "timeSeconds" : 56.6378895,
      "channel" : 2,
      "noteNumber" : 57,
      "noteName" : "A3",
      "velocity" : 91,
      "durationTicks" : 58,
      "durationSeconds" : 0.12499990833333641
    }, {
      "type" : "note",
      "tick" : 26280,
      "timeSeconds" : 56.6378895,
      "channel" : 2,
      "noteNumber" : 62,
      "noteName" : "D4",
      "velocity" : 104,
      "durationTicks" : 61,
      "durationSeconds" : 0.13146542083333657
    }, {
      "type" : "note",
      "tick" : 26640,
      "timeSeconds" : 57.413751,
      "channel" : 2,
      "noteNumber" : 45,
      "noteName" : "A2",
      "velocity" : 117,
      "durationTicks" : 48,
      "durationSeconds" : 0.10344820000000254
    }, {
      "type" : "note",
      "tick" : 26640,
      "timeSeconds" : 57.413751,
      "channel" : 2,
      "noteNumber" : 61,
      "noteName" : "C#4",
      "velocity" : 95,
      "durationTicks" : 56,
      "durationSeconds" : 0.12068956666666963
    }, {
      "type" : "note",
      "tick" : 26640,
      "timeSeconds" : 57.413751,
      "channel" : 2,
      "noteNumber" : 55,
      "noteName" : "G3",
      "velocity" : 101,
      "durationTicks" : 57,
      "durationSeconds" : 0.12284473750000302
    }, {
      "type" : "note",
      "tick" : 26640,
      "timeSeconds" : 57.413751,
      "channel" : 2,
      "noteNumber" : 65,
      "noteName" : "F4",
      "velocity" : 94,
      "durationTicks" : 61,
      "durationSeconds" : 0.13146542083333657
    }, {
      "type" : "note",
      "tick" : 26760,
      "timeSeconds" : 57.6723715,
      "channel" : 2,
      "noteNumber" : 55,
      "noteName" : "G3",
      "velocity" : 101,
      "durationTicks" : 52,
      "durationSeconds" : 0.11206888333333609
    }, {
      "type" : "note",
      "tick" : 26760,
      "timeSeconds" : 57.6723715,
      "channel" : 2,
      "noteNumber" : 45,
      "noteName" : "A2",
      "velocity" : 101,
      "durationTicks" : 54,
      "durationSeconds" : 0.11637922500000286
    }, {
      "type" : "note",
      "tick" : 26760,
      "timeSeconds" : 57.6723715,
      "channel" : 2,
      "noteNumber" : 65,
      "noteName" : "F4",
      "velocity" : 86,
      "durationTicks" : 57,
      "durationSeconds" : 0.12284473750000302
    }, {
      "type" : "note",
      "tick" : 26760,
      "timeSeconds" : 57.6723715,
      "channel" : 2,
      "noteNumber" : 61,
      "noteName" : "C#4",
      "velocity" : 95,
      "durationTicks" : 64,
      "durationSeconds" : 0.13793093333333672
    }, {
      "type" : "note",
      "tick" : 27120,
      "timeSeconds" : 58.448233,
      "channel" : 2,
      "noteNumber" : 50,
      "noteName" : "D3",
      "velocity" : 97,
      "durationTicks" : 51,
      "durationSeconds" : 0.1099137124999956
    }, {
      "type" : "note",
      "tick" : 27120,
      "timeSeconds" : 58.448233,
      "channel" : 2,
      "noteNumber" : 64,
      "noteName" : "E4",
      "velocity" : 88,
      "durationTicks" : 57,
      "durationSeconds" : 0.12284473749999592
    }, {
      "type" : "note",
      "tick" : 27120,
      "timeSeconds" : 58.448233,
      "channel" : 2,
      "noteNumber" : 53,
      "noteName" : "F3",
      "velocity" : 113,
      "durationTicks" : 58,
      "durationSeconds" : 0.1249999083333293
    }, {
      "type" : "note",
      "tick" : 27120,
      "timeSeconds" : 58.448233,
      "channel" : 2,
      "noteNumber" : 60,
      "noteName" : "C4",
      "velocity" : 104,
      "durationTicks" : 64,
      "durationSeconds" : 0.13793093333332962
    }, {
      "type" : "note",
      "tick" : 27240,
      "timeSeconds" : 58.7068535,
      "channel" : 2,
      "noteNumber" : 64,
      "noteName" : "E4",
      "velocity" : 91,
      "durationTicks" : 51,
      "durationSeconds" : 0.1099137124999956
    }, {
      "type" : "note",
      "tick" : 27240,
      "timeSeconds" : 58.7068535,
      "channel" : 2,
      "noteNumber" : 50,
      "noteName" : "D3",
      "velocity" : 117,
      "durationTicks" : 55,
      "durationSeconds" : 0.11853439583332914
    }, {
      "type" : "note",
      "tick" : 27240,
      "timeSeconds" : 58.7068535,
      "channel" : 2,
      "noteNumber" : 60,
      "noteName" : "C4",
      "velocity" : 108,
      "durationTicks" : 60,
      "durationSeconds" : 0.12931024999999607
    }, {
      "type" : "note",
      "tick" : 27240,
      "timeSeconds" : 58.7068535,
      "channel" : 2,
      "noteNumber" : 53,
      "noteName" : "F3",
      "velocity" : 104,
      "durationTicks" : 64,
      "durationSeconds" : 0.13793093333332962
    }, {
      "type" : "note",
      "tick" : 27600,
      "timeSeconds" : 59.482715,
      "channel" : 2,
      "noteNumber" : 42,
      "noteName" : "F#2",
      "velocity" : 110,
      "durationTicks" : 44,
      "durationSeconds" : 0.094827516666669
    }, {
      "type" : "note",
      "tick" : 27600,
      "timeSeconds" : 59.482715,
      "channel" : 2,
      "noteNumber" : 64,
      "noteName" : "E4",
      "velocity" : 86,
      "durationTicks" : 63,
      "durationSeconds" : 0.13577576250000334
    }, {
      "type" : "note",
      "tick" : 27600,
      "timeSeconds" : 59.482715,
      "channel" : 2,
      "noteNumber" : 52,
      "noteName" : "E3",
      "velocity" : 113,
      "durationTicks" : 67,
      "durationSeconds" : 0.14439644583333688
    }, {
      "type" : "note",
      "tick" : 27600,
      "timeSeconds" : 59.482715,
      "channel" : 2,
      "noteNumber" : 58,
      "noteName" : "A#3",
      "velocity" : 100,
      "durationTicks" : 68,
      "durationSeconds" : 0.14655161666667027
    }, {
      "type" : "note",
      "tick" : 27720,
      "timeSeconds" : 59.7413355,
      "channel" : 2,
      "noteNumber" : 42,
      "noteName" : "F#2",
      "velocity" : 104,
      "durationTicks" : 55,
      "durationSeconds" : 0.11853439583333625
    }, {
      "type" : "note",
      "tick" : 27720,
      "timeSeconds" : 59.7413355,
      "channel" : 2,
      "noteNumber" : 64,
      "noteName" : "E4",
      "velocity" : 101,
      "durationTicks" : 60,
      "durationSeconds" : 0.12931025000000318
    }, {
      "type" : "note",
      "tick" : 27720,
      "timeSeconds" : 59.7413355,
      "channel" : 2,
      "noteNumber" : 52,
      "noteName" : "E3",
      "velocity" : 94,
      "durationTicks" : 69,
      "durationSeconds" : 0.14870678750000366
    }, {
      "type" : "note",
      "tick" : 27720,
      "timeSeconds" : 59.7413355,
      "channel" : 2,
      "noteNumber" : 58,
      "noteName" : "A#3",
      "velocity" : 95,
      "durationTicks" : 71,
      "durationSeconds" : 0.15301712916667043
    }, {
      "type" : "note",
      "tick" : 28080,
      "timeSeconds" : 60.517197,
      "channel" : 2,
      "noteNumber" : 62,
      "noteName" : "D4",
      "velocity" : 104,
      "durationTicks" : 39,
      "durationSeconds" : 0.08405166249999496
    }, {
      "type" : "note",
      "tick" : 28080,
      "timeSeconds" : 60.517197,
      "channel" : 2,
      "noteNumber" : 43,
      "noteName" : "G2",
      "velocity" : 113,
      "durationTicks" : 48,
      "durationSeconds" : 0.10344819999999544
    }, {
      "type" : "note",
      "tick" : 28080,
      "timeSeconds" : 60.517197,
      "channel" : 2,
      "noteNumber" : 58,
      "noteName" : "A#3",
      "velocity" : 95,
      "durationTicks" : 49,
      "durationSeconds" : 0.10560337083332882
    }, {
      "type" : "note",
      "tick" : 28080,
      "timeSeconds" : 60.517197,
      "channel" : 2,
      "noteNumber" : 53,
      "noteName" : "F3",
      "velocity" : 97,
      "durationTicks" : 50,
      "durationSeconds" : 0.10775854166666221
    }, {
      "type" : "note",
      "tick" : 28200,
      "timeSeconds" : 60.7758175,
      "channel" : 2,
      "noteNumber" : 53,
      "noteName" : "F3",
      "velocity" : 108,
      "durationTicks" : 47,
      "durationSeconds" : 0.10129302916666205
    }, {
      "type" : "note",
      "tick" : 28200,
      "timeSeconds" : 60.7758175,
      "channel" : 2,
      "noteNumber" : 62,
      "noteName" : "D4",
      "velocity" : 101,
      "durationTicks" : 49,
      "durationSeconds" : 0.10560337083332882
    }, {
      "type" : "note",
      "tick" : 28200,
      "timeSeconds" : 60.7758175,
      "channel" : 2,
      "noteNumber" : 43,
      "noteName" : "G2",
      "velocity" : 113,
      "durationTicks" : 50,
      "durationSeconds" : 0.10775854166666221
    }, {
      "type" : "note",
      "tick" : 28200,
      "timeSeconds" : 60.7758175,
      "channel" : 2,
      "noteNumber" : 58,
      "noteName" : "A#3",
      "velocity" : 100,
      "durationTicks" : 54,
      "durationSeconds" : 0.11637922499999576
    }, {
      "type" : "note",
      "tick" : 28560,
      "timeSeconds" : 61.551679,
      "channel" : 2,
      "noteNumber" : 49,
      "noteName" : "C#3",
      "velocity" : 91,
      "durationTicks" : 41,
      "durationSeconds" : 0.08836200416666884
    }, {
      "type" : "note",
      "tick" : 28560,
      "timeSeconds" : 61.551679,
      "channel" : 2,
      "noteNumber" : 55,
      "noteName" : "G3",
      "velocity" : 104,
      "durationTicks" : 45,
      "durationSeconds" : 0.09698268750000238
    }, {
      "type" : "note",
      "tick" : 28560,
      "timeSeconds" : 61.551679,
      "channel" : 2,
      "noteNumber" : 64,
      "noteName" : "E4",
      "velocity" : 97,
      "durationTicks" : 51,
      "durationSeconds" : 0.1099137125000027
    }, {
      "type" : "note",
      "tick" : 28560,
      "timeSeconds" : 61.551679,
      "channel" : 2,
      "noteNumber" : 58,
      "noteName" : "A#3",
      "velocity" : 100,
      "durationTicks" : 52,
      "durationSeconds" : 0.11206888333333609
    }, {
      "type" : "note",
      "tick" : 28680,
      "timeSeconds" : 61.8102995,
      "channel" : 2,
      "noteNumber" : 55,
      "noteName" : "G3",
      "velocity" : 101,
      "durationTicks" : 39,
      "durationSeconds" : 0.08405166250000207
    }, {
      "type" : "note",
      "tick" : 28680,
      "timeSeconds" : 61.8102995,
      "channel" : 2,
      "noteNumber" : 49,
      "noteName" : "C#3",
      "velocity" : 95,
      "durationTicks" : 48,
      "durationSeconds" : 0.10344820000000254
    }, {
      "type" : "note",
      "tick" : 28680,
      "timeSeconds" : 61.8102995,
      "channel" : 2,
      "noteNumber" : 64,
      "noteName" : "E4",
      "velocity" : 97,
      "durationTicks" : 54,
      "durationSeconds" : 0.11637922500000286
    }, {
      "type" : "note",
      "tick" : 28680,
      "timeSeconds" : 61.8102995,
      "channel" : 2,
      "noteNumber" : 58,
      "noteName" : "A#3",
      "velocity" : 100,
      "durationTicks" : 57,
      "durationSeconds" : 0.12284473750000302
    }, {
      "type" : "note",
      "tick" : 29040,
      "timeSeconds" : 62.586161,
      "channel" : 2,
      "noteNumber" : 57,
      "noteName" : "A3",
      "velocity" : 97,
      "durationTicks" : 44,
      "durationSeconds" : 0.094827516666669
    }, {
      "type" : "note",
      "tick" : 29040,
      "timeSeconds" : 62.586161,
      "channel" : 2,
      "noteNumber" : 60,
      "noteName" : "C4",
      "velocity" : 113,
      "durationTicks" : 48,
      "durationSeconds" : 0.10344820000000254
    }, {
      "type" : "note",
      "tick" : 29040,
      "timeSeconds" : 62.586161,
      "channel" : 2,
      "noteNumber" : 50,
      "noteName" : "D3",
      "velocity" : 101,
      "durationTicks" : 52,
      "durationSeconds" : 0.11206888333333609
    }, {
      "type" : "note",
      "tick" : 29040,
      "timeSeconds" : 62.586161,
      "channel" : 2,
      "noteNumber" : 67,
      "noteName" : "G4",
      "velocity" : 101,
      "durationTicks" : 52,
      "durationSeconds" : 0.11206888333333609
    }, {
      "type" : "note",
      "tick" : 29160,
      "timeSeconds" : 62.8447815,
      "channel" : 2,
      "noteNumber" : 57,
      "noteName" : "A3",
      "velocity" : 91,
      "durationTicks" : 46,
      "durationSeconds" : 0.09913785833332867
    }, {
      "type" : "note",
      "tick" : 29160,
      "timeSeconds" : 62.8447815,
      "channel" : 2,
      "noteNumber" : 67,
      "noteName" : "G4",
      "velocity" : 104,
      "durationTicks" : 49,
      "durationSeconds" : 0.10560337083332882
    }, {
      "type" : "note",
      "tick" : 29160,
      "timeSeconds" : 62.8447815,
      "channel" : 2,
      "noteNumber" : 50,
      "noteName" : "D3",
      "velocity" : 108,
      "durationTicks" : 58,
      "durationSeconds" : 0.1249999083333293
    }, {
      "type" : "note",
      "tick" : 29160,
      "timeSeconds" : 62.8447815,
      "channel" : 2,
      "noteNumber" : 60,
      "noteName" : "C4",
      "velocity" : 104,
      "durationTicks" : 60,
      "durationSeconds" : 0.12931024999999607
    }, {
      "type" : "note",
      "tick" : 29520,
      "timeSeconds" : 63.620643,
      "channel" : 2,
      "noteNumber" : 67,
      "noteName" : "G4",
      "velocity" : 113,
      "durationTicks" : 49,
      "durationSeconds" : 0.10560337083332882
    }, {
      "type" : "note",
      "tick" : 29520,
      "timeSeconds" : 63.620643,
      "channel" : 2,
      "noteNumber" : 63,
      "noteName" : "D#4",
      "velocity" : 100,
      "durationTicks" : 53,
      "durationSeconds" : 0.11422405416666237
    }, {
      "type" : "note",
      "tick" : 29520,
      "timeSeconds" : 63.620643,
      "channel" : 2,
      "noteNumber" : 41,
      "noteName" : "F2",
      "velocity" : 97,
      "durationTicks" : 55,
      "durationSeconds" : 0.11853439583332914
    }, {
      "type" : "note",
      "tick" : 29520,
      "timeSeconds" : 63.620643,
      "channel" : 2,
      "noteNumber" : 57,
      "noteName" : "A3",
      "velocity" : 97,
      "durationTicks" : 55,
      "durationSeconds" : 0.11853439583332914
    }, {
      "type" : "note",
      "tick" : 29640,
      "timeSeconds" : 63.8792635,
      "channel" : 2,
      "noteNumber" : 67,
      "noteName" : "G4",
      "velocity" : 104,
      "durationTicks" : 49,
      "durationSeconds" : 0.10560337083333593
    }, {
      "type" : "note",
      "tick" : 29640,
      "timeSeconds" : 63.8792635,
      "channel" : 2,
      "noteNumber" : 57,
      "noteName" : "A3",
      "velocity" : 97,
      "durationTicks" : 52,
      "durationSeconds" : 0.11206888333333609
    }, {
      "type" : "note",
      "tick" : 29640,
      "timeSeconds" : 63.8792635,
      "channel" : 2,
      "noteNumber" : 63,
      "noteName" : "D#4",
      "velocity" : 95,
      "durationTicks" : 63,
      "durationSeconds" : 0.13577576249999623
    }, {
      "type" : "note",
      "tick" : 29640,
      "timeSeconds" : 63.8792635,
      "channel" : 2,
      "noteNumber" : 41,
      "noteName" : "F2",
      "velocity" : 108,
      "durationTicks" : 66,
      "durationSeconds" : 0.1422412749999964
    }, {
      "type" : "note",
      "tick" : 30000,
      "timeSeconds" : 64.655125,
      "channel" : 2,
      "noteNumber" : 46,
      "noteName" : "A#2",
      "velocity" : 95,
      "durationTicks" : 43,
      "durationSeconds" : 0.09267234583333561
    }, {
      "type" : "note",
      "tick" : 30000,
      "timeSeconds" : 64.655125,
      "channel" : 2,
      "noteNumber" : 67,
      "noteName" : "G4",
      "velocity" : 101,
      "durationTicks" : 44,
      "durationSeconds" : 0.094827516666669
    }, {
      "type" : "note",
      "tick" : 30000,
      "timeSeconds" : 64.655125,
      "channel" : 2,
      "noteNumber" : 57,
      "noteName" : "A3",
      "velocity" : 101,
      "durationTicks" : 47,
      "durationSeconds" : 0.10129302916666916
    }, {
      "type" : "note",
      "tick" : 30000,
      "timeSeconds" : 64.655125,
      "channel" : 2,
      "noteNumber" : 62,
      "noteName" : "D4",
      "velocity" : 104,
      "durationTicks" : 50,
      "durationSeconds" : 0.10775854166666932
    }, {
      "type" : "note",
      "tick" : 30120,
      "timeSeconds" : 64.9137455,
      "channel" : 2,
      "noteNumber" : 46,
      "noteName" : "A#2",
      "velocity" : 91,
      "durationTicks" : 52,
      "durationSeconds" : 0.11206888333332188
    }, {
      "type" : "note",
      "tick" : 30120,
      "timeSeconds" : 64.9137455,
      "channel" : 2,
      "noteNumber" : 67,
      "noteName" : "G4",
      "velocity" : 104,
      "durationTicks" : 52,
      "durationSeconds" : 0.11206888333332188
    }, {
      "type" : "note",
      "tick" : 30120,
      "timeSeconds" : 64.9137455,
      "channel" : 2,
      "noteNumber" : 57,
      "noteName" : "A3",
      "velocity" : 104,
      "durationTicks" : 56,
      "durationSeconds" : 0.12068956666665542
    }, {
      "type" : "note",
      "tick" : 30120,
      "timeSeconds" : 64.9137455,
      "channel" : 2,
      "noteNumber" : 62,
      "noteName" : "D4",
      "velocity" : 113,
      "durationTicks" : 64,
      "durationSeconds" : 0.13793093333332251
    }, {
      "type" : "note",
      "tick" : 30480,
      "timeSeconds" : 65.689607,
      "channel" : 2,
      "noteNumber" : 67,
      "noteName" : "G4",
      "velocity" : 104,
      "durationTicks" : 47,
      "durationSeconds" : 0.10129302916666916
    }, {
      "type" : "note",
      "tick" : 30480,
      "timeSeconds" : 65.689607,
      "channel" : 2,
      "noteNumber" : 46,
      "noteName" : "A#2",
      "velocity" : 95,
      "durationTicks" : 48,
      "durationSeconds" : 0.10344820000000254
    }, {
      "type" : "note",
      "tick" : 30480,
      "timeSeconds" : 65.689607,
      "channel" : 2,
      "noteNumber" : 57,
      "noteName" : "A3",
      "velocity" : 94,
      "durationTicks" : 52,
      "durationSeconds" : 0.11206888333333609
    }, {
      "type" : "note",
      "tick" : 30480,
      "timeSeconds" : 65.689607,
      "channel" : 2,
      "noteNumber" : 62,
      "noteName" : "D4",
      "velocity" : 97,
      "durationTicks" : 53,
      "durationSeconds" : 0.11422405416666948
    }, {
      "type" : "note",
      "tick" : 30600,
      "timeSeconds" : 65.9482275,
      "channel" : 2,
      "noteNumber" : 67,
      "noteName" : "G4",
      "velocity" : 101,
      "durationTicks" : 50,
      "durationSeconds" : 0.10775854166666932
    }, {
      "type" : "note",
      "tick" : 30600,
      "timeSeconds" : 65.9482275,
      "channel" : 2,
      "noteNumber" : 46,
      "noteName" : "A#2",
      "velocity" : 95,
      "durationTicks" : 55,
      "durationSeconds" : 0.11853439583333625
    }, {
      "type" : "note",
      "tick" : 30600,
      "timeSeconds" : 65.9482275,
      "channel" : 2,
      "noteNumber" : 62,
      "noteName" : "D4",
      "velocity" : 101,
      "durationTicks" : 68,
      "durationSeconds" : 0.14655161666667027
    }, {
      "type" : "note",
      "tick" : 30600,
      "timeSeconds" : 65.9482275,
      "channel" : 2,
      "noteNumber" : 57,
      "noteName" : "A3",
      "velocity" : 94,
      "durationTicks" : 69,
      "durationSeconds" : 0.14870678750000366
    }, {
      "type" : "note",
      "tick" : 30960,
      "timeSeconds" : 66.724089,
      "channel" : 2,
      "noteNumber" : 67,
      "noteName" : "G4",
      "velocity" : 108,
      "durationTicks" : 52,
      "durationSeconds" : 0.11206888333332188
    }, {
      "type" : "note",
      "tick" : 30960,
      "timeSeconds" : 66.724089,
      "channel" : 2,
      "noteNumber" : 58,
      "noteName" : "A#3",
      "velocity" : 95,
      "durationTicks" : 55,
      "durationSeconds" : 0.11853439583332204
    }, {
      "type" : "note",
      "tick" : 30960,
      "timeSeconds" : 66.724089,
      "channel" : 2,
      "noteNumber" : 52,
      "noteName" : "E3",
      "velocity" : 101,
      "durationTicks" : 56,
      "durationSeconds" : 0.12068956666665542
    }, {
      "type" : "note",
      "tick" : 30960,
      "timeSeconds" : 66.724089,
      "channel" : 2,
      "noteNumber" : 55,
      "noteName" : "G3",
      "velocity" : 108,
      "durationTicks" : 59,
      "durationSeconds" : 0.12715507916665558
    }, {
      "type" : "note",
      "tick" : 31080,
      "timeSeconds" : 66.9827095,
      "channel" : 2,
      "noteNumber" : 67,
      "noteName" : "G4",
      "velocity" : 113,
      "durationTicks" : 53,
      "durationSeconds" : 0.11422405416666948
    }, {
      "type" : "note",
      "tick" : 31080,
      "timeSeconds" : 66.9827095,
      "channel" : 2,
      "noteNumber" : 52,
      "noteName" : "E3",
      "velocity" : 104,
      "durationTicks" : 57,
      "durationSeconds" : 0.12284473750000302
    }, {
      "type" : "note",
      "tick" : 31080,
      "timeSeconds" : 66.9827095,
      "channel" : 2,
      "noteNumber" : 58,
      "noteName" : "A#3",
      "velocity" : 95,
      "durationTicks" : 68,
      "durationSeconds" : 0.14655161666667027
    }, {
      "type" : "note",
      "tick" : 31080,
      "timeSeconds" : 66.9827095,
      "channel" : 2,
      "noteNumber" : 55,
      "noteName" : "G3",
      "velocity" : 108,
      "durationTicks" : 72,
      "durationSeconds" : 0.15517230000000382
    }, {
      "type" : "note",
      "tick" : 31440,
      "timeSeconds" : 67.758571,
      "channel" : 2,
      "noteNumber" : 42,
      "noteName" : "F#2",
      "velocity" : 104,
      "durationTicks" : 58,
      "durationSeconds" : 0.12499990833333641
    }, {
      "type" : "note",
      "tick" : 31440,
      "timeSeconds" : 67.758571,
      "channel" : 2,
      "noteNumber" : 64,
      "noteName" : "E4",
      "velocity" : 101,
      "durationTicks" : 71,
      "durationSeconds" : 0.15301712916665622
    }, {
      "type" : "note",
      "tick" : 31440,
      "timeSeconds" : 67.758571,
      "channel" : 2,
      "noteNumber" : 58,
      "noteName" : "A#3",
      "velocity" : 95,
      "durationTicks" : 71,
      "durationSeconds" : 0.15301712916665622
    }, {
      "type" : "note",
      "tick" : 31440,
      "timeSeconds" : 67.758571,
      "channel" : 2,
      "noteNumber" : 52,
      "noteName" : "E3",
      "velocity" : 108,
      "durationTicks" : 73,
      "durationSeconds" : 0.157327470833323
    }, {
      "type" : "note",
      "tick" : 31560,
      "timeSeconds" : 68.0171915,
      "channel" : 2,
      "noteNumber" : 42,
      "noteName" : "F#2",
      "velocity" : 104,
      "durationTicks" : 62,
      "durationSeconds" : 0.13362059166666995
    }, {
      "type" : "note",
      "tick" : 31560,
      "timeSeconds" : 68.0171915,
      "channel" : 2,
      "noteNumber" : 52,
      "noteName" : "E3",
      "velocity" : 108,
      "durationTicks" : 72,
      "durationSeconds" : 0.15517230000000382
    }, {
      "type" : "note",
      "tick" : 31560,
      "timeSeconds" : 68.0171915,
      "channel" : 2,
      "noteNumber" : 64,
      "noteName" : "E4",
      "velocity" : 97,
      "durationTicks" : 76,
      "durationSeconds" : 0.16379298333333736
    }, {
      "type" : "note",
      "tick" : 31560,
      "timeSeconds" : 68.0171915,
      "channel" : 2,
      "noteNumber" : 58,
      "noteName" : "A#3",
      "velocity" : 95,
      "durationTicks" : 78,
      "durationSeconds" : 0.16810332500000413
    }, {
      "type" : "note",
      "tick" : 31920,
      "timeSeconds" : 68.793053,
      "channel" : 2,
      "noteNumber" : 43,
      "noteName" : "G2",
      "velocity" : 101,
      "durationTicks" : 52,
      "durationSeconds" : 0.11206888333333609
    }, {
      "type" : "note",
      "tick" : 31920,
      "timeSeconds" : 68.793053,
      "channel" : 2,
      "noteNumber" : 53,
      "noteName" : "F3",
      "velocity" : 108,
      "durationTicks" : 55,
      "durationSeconds" : 0.11853439583333625
    }, {
      "type" : "note",
      "tick" : 31920,
      "timeSeconds" : 68.793053,
      "channel" : 2,
      "noteNumber" : 62,
      "noteName" : "D4",
      "velocity" : 101,
      "durationTicks" : 55,
      "durationSeconds" : 0.11853439583333625
    }, {
      "type" : "note",
      "tick" : 31920,
      "timeSeconds" : 68.793053,
      "channel" : 2,
      "noteNumber" : 58,
      "noteName" : "A#3",
      "velocity" : 87,
      "durationTicks" : 60,
      "durationSeconds" : 0.12931025000000318
    }, {
      "type" : "note",
      "tick" : 32040,
      "timeSeconds" : 69.0516735,
      "channel" : 2,
      "noteNumber" : 53,
      "noteName" : "F3",
      "velocity" : 104,
      "durationTicks" : 48,
      "durationSeconds" : 0.10344819999998833
    }, {
      "type" : "note",
      "tick" : 32040,
      "timeSeconds" : 69.0516735,
      "channel" : 2,
      "noteNumber" : 62,
      "noteName" : "D4",
      "velocity" : 97,
      "durationTicks" : 58,
      "durationSeconds" : 0.1249999083333222
    }, {
      "type" : "note",
      "tick" : 32040,
      "timeSeconds" : 69.0516735,
      "channel" : 2,
      "noteNumber" : 58,
      "noteName" : "A#3",
      "velocity" : 95,
      "durationTicks" : 61,
      "durationSeconds" : 0.13146542083332236
    }, {
      "type" : "note",
      "tick" : 32040,
      "timeSeconds" : 69.0516735,
      "channel" : 2,
      "noteNumber" : 43,
      "noteName" : "G2",
      "velocity" : 108,
      "durationTicks" : 64,
      "durationSeconds" : 0.13793093333332251
    }, {
      "type" : "note",
      "tick" : 32400,
      "timeSeconds" : 69.827535,
      "channel" : 2,
      "noteNumber" : 49,
      "noteName" : "C#3",
      "velocity" : 104,
      "durationTicks" : 49,
      "durationSeconds" : 0.10560337083333593
    }, {
      "type" : "note",
      "tick" : 32400,
      "timeSeconds" : 69.827535,
      "channel" : 2,
      "noteNumber" : 64,
      "noteName" : "E4",
      "velocity" : 86,
      "durationTicks" : 63,
      "durationSeconds" : 0.13577576250000334
    }, {
      "type" : "note",
      "tick" : 32400,
      "timeSeconds" : 69.827535,
      "channel" : 2,
      "noteNumber" : 58,
      "noteName" : "A#3",
      "velocity" : 100,
      "durationTicks" : 66,
      "durationSeconds" : 0.1422412750000035
    }, {
      "type" : "note",
      "tick" : 32400,
      "timeSeconds" : 69.827535,
      "channel" : 2,
      "noteNumber" : 55,
      "noteName" : "G3",
      "velocity" : 88,
      "durationTicks" : 66,
      "durationSeconds" : 0.1422412750000035
    }, {
      "type" : "note",
      "tick" : 32520,
      "timeSeconds" : 70.0861555,
      "channel" : 2,
      "noteNumber" : 64,
      "noteName" : "E4",
      "velocity" : 94,
      "durationTicks" : 60,
      "durationSeconds" : 0.12931025000000318
    }, {
      "type" : "note",
      "tick" : 32520,
      "timeSeconds" : 70.0861555,
      "channel" : 2,
      "noteNumber" : 49,
      "noteName" : "C#3",
      "velocity" : 95,
      "durationTicks" : 66,
      "durationSeconds" : 0.1422412749999893
    }, {
      "type" : "note",
      "tick" : 32520,
      "timeSeconds" : 70.0861555,
      "channel" : 2,
      "noteNumber" : 58,
      "noteName" : "A#3",
      "velocity" : 100,
      "durationTicks" : 71,
      "durationSeconds" : 0.15301712916665622
    }, {
      "type" : "note",
      "tick" : 32520,
      "timeSeconds" : 70.0861555,
      "channel" : 2,
      "noteNumber" : 55,
      "noteName" : "G3",
      "velocity" : 101,
      "durationTicks" : 75,
      "durationSeconds" : 0.16163781249998976
    }, {
      "type" : "note",
      "tick" : 32880,
      "timeSeconds" : 70.862017,
      "channel" : 2,
      "noteNumber" : 50,
      "noteName" : "D3",
      "velocity" : 104,
      "durationTicks" : 56,
      "durationSeconds" : 0.12068956666666963
    }, {
      "type" : "note",
      "tick" : 32880,
      "timeSeconds" : 70.862017,
      "channel" : 2,
      "noteNumber" : 64,
      "noteName" : "E4",
      "velocity" : 88,
      "durationTicks" : 70,
      "durationSeconds" : 0.15086195833333704
    }, {
      "type" : "note",
      "tick" : 32880,
      "timeSeconds" : 70.862017,
      "channel" : 2,
      "noteNumber" : 53,
      "noteName" : "F3",
      "velocity" : 104,
      "durationTicks" : 73,
      "durationSeconds" : 0.1573274708333372
    }, {
      "type" : "note",
      "tick" : 32880,
      "timeSeconds" : 70.862017,
      "channel" : 2,
      "noteNumber" : 60,
      "noteName" : "C4",
      "velocity" : 104,
      "durationTicks" : 76,
      "durationSeconds" : 0.16379298333333736
    }, {
      "type" : "note",
      "tick" : 33000,
      "timeSeconds" : 71.1206375,
      "channel" : 2,
      "noteNumber" : 53,
      "noteName" : "F3",
      "velocity" : 101,
      "durationTicks" : 56,
      "durationSeconds" : 0.12068956666666963
    }, {
      "type" : "note",
      "tick" : 33000,
      "timeSeconds" : 71.1206375,
      "channel" : 2,
      "noteNumber" : 60,
      "noteName" : "C4",
      "velocity" : 113,
      "durationTicks" : 65,
      "durationSeconds" : 0.1400861041666701
    }, {
      "type" : "note",
      "tick" : 33000,
      "timeSeconds" : 71.1206375,
      "channel" : 2,
      "noteNumber" : 50,
      "noteName" : "D3",
      "velocity" : 101,
      "durationTicks" : 65,
      "durationSeconds" : 0.1400861041666701
    }, {
      "type" : "note",
      "tick" : 33000,
      "timeSeconds" : 71.1206375,
      "channel" : 2,
      "noteNumber" : 64,
      "noteName" : "E4",
      "velocity" : 97,
      "durationTicks" : 70,
      "durationSeconds" : 0.15086195833333704
    }, {
      "type" : "note",
      "tick" : 33360,
      "timeSeconds" : 71.896499,
      "channel" : 2,
      "noteNumber" : 57,
      "noteName" : "A3",
      "velocity" : 88,
      "durationTicks" : 59,
      "durationSeconds" : 0.12715507916665558
    }, {
      "type" : "note",
      "tick" : 33360,
      "timeSeconds" : 71.896499,
      "channel" : 2,
      "noteNumber" : 41,
      "noteName" : "F2",
      "velocity" : 91,
      "durationTicks" : 63,
      "durationSeconds" : 0.13577576249998913
    }, {
      "type" : "note",
      "tick" : 33360,
      "timeSeconds" : 71.896499,
      "channel" : 2,
      "noteNumber" : 67,
      "noteName" : "G4",
      "velocity" : 108,
      "durationTicks" : 71,
      "durationSeconds" : 0.15301712916665622
    }, {
      "type" : "note",
      "tick" : 33360,
      "timeSeconds" : 71.896499,
      "channel" : 2,
      "noteNumber" : 63,
      "noteName" : "D#4",
      "velocity" : 87,
      "durationTicks" : 73,
      "durationSeconds" : 0.157327470833323
    }, {
      "type" : "note",
      "tick" : 33480,
      "timeSeconds" : 72.1551195,
      "channel" : 2,
      "noteNumber" : 67,
      "noteName" : "G4",
      "velocity" : 104,
      "durationTicks" : 62,
      "durationSeconds" : 0.13362059166666995
    }, {
      "type" : "note",
      "tick" : 33480,
      "timeSeconds" : 72.1551195,
      "channel" : 2,
      "noteNumber" : 41,
      "noteName" : "F2",
      "velocity" : 94,
      "durationTicks" : 66,
      "durationSeconds" : 0.1422412750000035
    }, {
      "type" : "note",
      "tick" : 33480,
      "timeSeconds" : 72.1551195,
      "channel" : 2,
      "noteNumber" : 63,
      "noteName" : "D#4",
      "velocity" : 91,
      "durationTicks" : 67,
      "durationSeconds" : 0.14439644583333688
    }, {
      "type" : "note",
      "tick" : 33480,
      "timeSeconds" : 72.1551195,
      "channel" : 2,
      "noteNumber" : 57,
      "noteName" : "A3",
      "velocity" : 97,
      "durationTicks" : 70,
      "durationSeconds" : 0.15086195833333704
    }, {
      "type" : "note",
      "tick" : 33840,
      "timeSeconds" : 72.930981,
      "channel" : 2,
      "noteNumber" : 67,
      "noteName" : "G4",
      "velocity" : 101,
      "durationTicks" : 57,
      "durationSeconds" : 0.12284473750000302
    }, {
      "type" : "note",
      "tick" : 33840,
      "timeSeconds" : 72.930981,
      "channel" : 2,
      "noteNumber" : 46,
      "noteName" : "A#2",
      "velocity" : 87,
      "durationTicks" : 58,
      "durationSeconds" : 0.12499990833333641
    }, {
      "type" : "note",
      "tick" : 33840,
      "timeSeconds" : 72.930981,
      "channel" : 2,
      "noteNumber" : 62,
      "noteName" : "D4",
      "velocity" : 104,
      "durationTicks" : 70,
      "durationSeconds" : 0.15086195833333704
    }, {
      "type" : "note",
      "tick" : 33840,
      "timeSeconds" : 72.930981,
      "channel" : 2,
      "noteNumber" : 57,
      "noteName" : "A3",
      "velocity" : 101,
      "durationTicks" : 70,
      "durationSeconds" : 0.15086195833333704
    }, {
      "type" : "note",
      "tick" : 33960,
      "timeSeconds" : 73.1896015,
      "channel" : 2,
      "noteNumber" : 67,
      "noteName" : "G4",
      "velocity" : 104,
      "durationTicks" : 48,
      "durationSeconds" : 0.10344820000000254
    }, {
      "type" : "note",
      "tick" : 33960,
      "timeSeconds" : 73.1896015,
      "channel" : 2,
      "noteNumber" : 46,
      "noteName" : "A#2",
      "velocity" : 95,
      "durationTicks" : 53,
      "durationSeconds" : 0.11422405416666948
    }, {
      "type" : "note",
      "tick" : 33960,
      "timeSeconds" : 73.1896015,
      "channel" : 2,
      "noteNumber" : 57,
      "noteName" : "A3",
      "velocity" : 104,
      "durationTicks" : 60,
      "durationSeconds" : 0.12931025000000318
    }, {
      "type" : "note",
      "tick" : 33960,
      "timeSeconds" : 73.1896015,
      "channel" : 2,
      "noteNumber" : 62,
      "noteName" : "D4",
      "velocity" : 104,
      "durationTicks" : 63,
      "durationSeconds" : 0.13577576250000334
    }, {
      "type" : "note",
      "tick" : 34320,
      "timeSeconds" : 73.965463,
      "channel" : 2,
      "noteNumber" : 45,
      "noteName" : "A2",
      "velocity" : 108,
      "durationTicks" : 58,
      "durationSeconds" : 0.12499990833333641
    }, {
      "type" : "note",
      "tick" : 34320,
      "timeSeconds" : 73.965463,
      "channel" : 2,
      "noteNumber" : 55,
      "noteName" : "G3",
      "velocity" : 94,
      "durationTicks" : 72,
      "durationSeconds" : 0.15517230000000382
    }, {
      "type" : "note",
      "tick" : 34320,
      "timeSeconds" : 73.965463,
      "channel" : 2,
      "noteNumber" : 61,
      "noteName" : "C#4",
      "velocity" : 91,
      "durationTicks" : 75,
      "durationSeconds" : 0.16163781250000397
    }, {
      "type" : "note",
      "tick" : 34320,
      "timeSeconds" : 73.965463,
      "channel" : 2,
      "noteNumber" : 65,
      "noteName" : "F4",
      "velocity" : 88,
      "durationTicks" : 77,
      "durationSeconds" : 0.16594815416667075
    }, {
      "type" : "note",
      "tick" : 34440,
      "timeSeconds" : 74.2240835,
      "channel" : 2,
      "noteNumber" : 65,
      "noteName" : "F4",
      "velocity" : 91,
      "durationTicks" : 57,
      "durationSeconds" : 0.12284473749998881
    }, {
      "type" : "note",
      "tick" : 34440,
      "timeSeconds" : 74.2240835,
      "channel" : 2,
      "noteNumber" : 45,
      "noteName" : "A2",
      "velocity" : 113,
      "durationTicks" : 60,
      "durationSeconds" : 0.12931024999998897
    }, {
      "type" : "note",
      "tick" : 34440,
      "timeSeconds" : 74.2240835,
      "channel" : 2,
      "noteNumber" : 61,
      "noteName" : "C#4",
      "velocity" : 100,
      "durationTicks" : 61,
      "durationSeconds" : 0.13146542083332236
    }, {
      "type" : "note",
      "tick" : 34440,
      "timeSeconds" : 74.2240835,
      "channel" : 2,
      "noteNumber" : 55,
      "noteName" : "G3",
      "velocity" : 101,
      "durationTicks" : 70,
      "durationSeconds" : 0.15086195833332283
    }, {
      "type" : "note",
      "tick" : 34800,
      "timeSeconds" : 74.999945,
      "channel" : 2,
      "noteNumber" : 53,
      "noteName" : "F3",
      "velocity" : 108,
      "durationTicks" : 52,
      "durationSeconds" : 0.11206888333333609
    }, {
      "type" : "note",
      "tick" : 34800,
      "timeSeconds" : 74.999945,
      "channel" : 2,
      "noteNumber" : 50,
      "noteName" : "D3",
      "velocity" : 91,
      "durationTicks" : 52,
      "durationSeconds" : 0.11206888333333609
    }, {
      "type" : "note",
      "tick" : 34800,
      "timeSeconds" : 74.999945,
      "channel" : 2,
      "noteNumber" : 64,
      "noteName" : "E4",
      "velocity" : 88,
      "durationTicks" : 61,
      "durationSeconds" : 0.13146542083333657
    }, {
      "type" : "note",
      "tick" : 34800,
      "timeSeconds" : 74.999945,
      "channel" : 2,
      "noteNumber" : 60,
      "noteName" : "C4",
      "velocity" : 97,
      "durationTicks" : 64,
      "durationSeconds" : 0.13793093333333672
    }, {
      "type" : "note",
      "tick" : 34920,
      "timeSeconds" : 75.2585655,
      "channel" : 2,
      "noteNumber" : 53,
      "noteName" : "F3",
      "velocity" : 113,
      "durationTicks" : 49,
      "durationSeconds" : 0.10560337083333593
    }, {
      "type" : "note",
      "tick" : 34920,
      "timeSeconds" : 75.2585655,
      "channel" : 2,
      "noteNumber" : 50,
      "noteName" : "D3",
      "velocity" : 122,
      "durationTicks" : 52,
      "durationSeconds" : 0.11206888333333609
    }, {
      "type" : "note",
      "tick" : 34920,
      "timeSeconds" : 75.2585655,
      "channel" : 2,
      "noteNumber" : 64,
      "noteName" : "E4",
      "velocity" : 97,
      "durationTicks" : 54,
      "durationSeconds" : 0.11637922500000286
    }, {
      "type" : "note",
      "tick" : 34920,
      "timeSeconds" : 75.2585655,
      "channel" : 2,
      "noteNumber" : 60,
      "noteName" : "C4",
      "velocity" : 117,
      "durationTicks" : 59,
      "durationSeconds" : 0.1271550791666698
    }, {
      "type" : "note",
      "tick" : 35280,
      "timeSeconds" : 76.034427,
      "channel" : 2,
      "noteNumber" : 42,
      "noteName" : "F#2",
      "velocity" : 100,
      "durationTicks" : 60,
      "durationSeconds" : 0.12931025000000318
    }, {
      "type" : "note",
      "tick" : 35280,
      "timeSeconds" : 76.034427,
      "channel" : 2,
      "noteNumber" : 52,
      "noteName" : "E3",
      "velocity" : 104,
      "durationTicks" : 64,
      "durationSeconds" : 0.13793093333333672
    }, {
      "type" : "note",
      "tick" : 35280,
      "timeSeconds" : 76.034427,
      "channel" : 2,
      "noteNumber" : 64,
      "noteName" : "E4",
      "velocity" : 86,
      "durationTicks" : 67,
      "durationSeconds" : 0.14439644583333688
    }, {
      "type" : "note",
      "tick" : 35280,
      "timeSeconds" : 76.034427,
      "channel" : 2,
      "noteNumber" : 58,
      "noteName" : "A#3",
      "velocity" : 95,
      "durationTicks" : 69,
      "durationSeconds" : 0.14870678750000366
    }, {
      "type" : "note",
      "tick" : 35400,
      "timeSeconds" : 76.2930475,
      "channel" : 2,
      "noteNumber" : 52,
      "noteName" : "E3",
      "velocity" : 97,
      "durationTicks" : 62,
      "durationSeconds" : 0.13362059166666995
    }, {
      "type" : "note",
      "tick" : 35400,
      "timeSeconds" : 76.2930475,
      "channel" : 2,
      "noteNumber" : 42,
      "noteName" : "F#2",
      "velocity" : 100,
      "durationTicks" : 62,
      "durationSeconds" : 0.13362059166666995
    }, {
      "type" : "note",
      "tick" : 35400,
      "timeSeconds" : 76.2930475,
      "channel" : 2,
      "noteNumber" : 64,
      "noteName" : "E4",
      "velocity" : 97,
      "durationTicks" : 75,
      "durationSeconds" : 0.16163781250000397
    }, {
      "type" : "note",
      "tick" : 35400,
      "timeSeconds" : 76.2930475,
      "channel" : 2,
      "noteNumber" : 58,
      "noteName" : "A#3",
      "velocity" : 100,
      "durationTicks" : 80,
      "durationSeconds" : 0.1724136666666709
    }, {
      "type" : "note",
      "tick" : 35760,
      "timeSeconds" : 77.068909,
      "channel" : 2,
      "noteNumber" : 53,
      "noteName" : "F3",
      "velocity" : 108,
      "durationTicks" : 64,
      "durationSeconds" : 0.13793093333332251
    }, {
      "type" : "note",
      "tick" : 35760,
      "timeSeconds" : 77.068909,
      "channel" : 2,
      "noteNumber" : 43,
      "noteName" : "G2",
      "velocity" : 97,
      "durationTicks" : 65,
      "durationSeconds" : 0.1400861041666559
    }, {
      "type" : "note",
      "tick" : 35760,
      "timeSeconds" : 77.068909,
      "channel" : 2,
      "noteNumber" : 62,
      "noteName" : "D4",
      "velocity" : 108,
      "durationTicks" : 70,
      "durationSeconds" : 0.15086195833332283
    }, {
      "type" : "note",
      "tick" : 35760,
      "timeSeconds" : 77.068909,
      "channel" : 2,
      "noteNumber" : 58,
      "noteName" : "A#3",
      "velocity" : 91,
      "durationTicks" : 72,
      "durationSeconds" : 0.1551722999999896
    }, {
      "type" : "note",
      "tick" : 35880,
      "timeSeconds" : 77.3275295,
      "channel" : 2,
      "noteNumber" : 53,
      "noteName" : "F3",
      "velocity" : 113,
      "durationTicks" : 50,
      "durationSeconds" : 0.10775854166666932
    }, {
      "type" : "note",
      "tick" : 35880,
      "timeSeconds" : 77.3275295,
      "channel" : 2,
      "noteNumber" : 62,
      "noteName" : "D4",
      "velocity" : 97,
      "durationTicks" : 60,
      "durationSeconds" : 0.12931025000000318
    }, {
      "type" : "note",
      "tick" : 35880,
      "timeSeconds" : 77.3275295,
      "channel" : 2,
      "noteNumber" : 43,
      "noteName" : "G2",
      "velocity" : 113,
      "durationTicks" : 67,
      "durationSeconds" : 0.14439644583333688
    }, {
      "type" : "note",
      "tick" : 35880,
      "timeSeconds" : 77.3275295,
      "channel" : 2,
      "noteNumber" : 58,
      "noteName" : "A#3",
      "velocity" : 95,
      "durationTicks" : 70,
      "durationSeconds" : 0.15086195833333704
    }, {
      "type" : "note",
      "tick" : 36240,
      "timeSeconds" : 78.103391,
      "channel" : 2,
      "noteNumber" : 49,
      "noteName" : "C#3",
      "velocity" : 71,
      "durationTicks" : 54,
      "durationSeconds" : 0.11637922500000286
    }, {
      "type" : "note",
      "tick" : 36240,
      "timeSeconds" : 78.103391,
      "channel" : 2,
      "noteNumber" : 64,
      "noteName" : "E4",
      "velocity" : 97,
      "durationTicks" : 71,
      "durationSeconds" : 0.15301712916667043
    }, {
      "type" : "note",
      "tick" : 36240,
      "timeSeconds" : 78.103391,
      "channel" : 2,
      "noteNumber" : 58,
      "noteName" : "A#3",
      "velocity" : 100,
      "durationTicks" : 74,
      "durationSeconds" : 0.1594826416666706
    }, {
      "type" : "note",
      "tick" : 36240,
      "timeSeconds" : 78.103391,
      "channel" : 2,
      "noteNumber" : 55,
      "noteName" : "G3",
      "velocity" : 108,
      "durationTicks" : 75,
      "durationSeconds" : 0.16163781250000397
    }, {
      "type" : "note",
      "tick" : 36360,
      "timeSeconds" : 78.3620115,
      "channel" : 2,
      "noteNumber" : 49,
      "noteName" : "C#3",
      "velocity" : 100,
      "durationTicks" : 52,
      "durationSeconds" : 0.11206888333333609
    }, {
      "type" : "note",
      "tick" : 36360,
      "timeSeconds" : 78.3620115,
      "channel" : 2,
      "noteNumber" : 55,
      "noteName" : "G3",
      "velocity" : 104,
      "durationTicks" : 57,
      "durationSeconds" : 0.12284473750000302
    }, {
      "type" : "note",
      "tick" : 36360,
      "timeSeconds" : 78.3620115,
      "channel" : 2,
      "noteNumber" : 58,
      "noteName" : "A#3",
      "velocity" : 104,
      "durationTicks" : 61,
      "durationSeconds" : 0.13146542083333657
    }, {
      "type" : "note",
      "tick" : 36360,
      "timeSeconds" : 78.3620115,
      "channel" : 2,
      "noteNumber" : 64,
      "noteName" : "E4",
      "velocity" : 101,
      "durationTicks" : 65,
      "durationSeconds" : 0.1400861041666701
    }, {
      "type" : "note",
      "tick" : 36720,
      "timeSeconds" : 79.137873,
      "channel" : 2,
      "noteNumber" : 50,
      "noteName" : "D3",
      "velocity" : 113,
      "durationTicks" : 49,
      "durationSeconds" : 0.10560337083333593
    }, {
      "type" : "note",
      "tick" : 36720,
      "timeSeconds" : 79.137873,
      "channel" : 2,
      "noteNumber" : 64,
      "noteName" : "E4",
      "velocity" : 86,
      "durationTicks" : 58,
      "durationSeconds" : 0.12499990833333641
    }, {
      "type" : "note",
      "tick" : 36720,
      "timeSeconds" : 79.137873,
      "channel" : 2,
      "noteNumber" : 60,
      "noteName" : "C4",
      "velocity" : 117,
      "durationTicks" : 61,
      "durationSeconds" : 0.13146542083333657
    }, {
      "type" : "note",
      "tick" : 36720,
      "timeSeconds" : 79.137873,
      "channel" : 2,
      "noteNumber" : 53,
      "noteName" : "F3",
      "velocity" : 101,
      "durationTicks" : 67,
      "durationSeconds" : 0.14439644583333688
    }, {
      "type" : "note",
      "tick" : 36840,
      "timeSeconds" : 79.3964935,
      "channel" : 2,
      "noteNumber" : 53,
      "noteName" : "F3",
      "velocity" : 104,
      "durationTicks" : 49,
      "durationSeconds" : 0.10560337083332172
    }, {
      "type" : "note",
      "tick" : 36840,
      "timeSeconds" : 79.3964935,
      "channel" : 2,
      "noteNumber" : 50,
      "noteName" : "D3",
      "velocity" : 122,
      "durationTicks" : 55,
      "durationSeconds" : 0.11853439583332204
    }, {
      "type" : "note",
      "tick" : 36840,
      "timeSeconds" : 79.3964935,
      "channel" : 2,
      "noteNumber" : 64,
      "noteName" : "E4",
      "velocity" : 91,
      "durationTicks" : 60,
      "durationSeconds" : 0.12931024999998897
    }, {
      "type" : "note",
      "tick" : 36840,
      "timeSeconds" : 79.3964935,
      "channel" : 2,
      "noteNumber" : 60,
      "noteName" : "C4",
      "velocity" : 113,
      "durationTicks" : 60,
      "durationSeconds" : 0.12931024999998897
    }, {
      "type" : "note",
      "tick" : 37200,
      "timeSeconds" : 80.172355,
      "channel" : 2,
      "noteNumber" : 57,
      "noteName" : "A3",
      "velocity" : 101,
      "durationTicks" : 57,
      "durationSeconds" : 0.12284473750000302
    }, {
      "type" : "note",
      "tick" : 37200,
      "timeSeconds" : 80.172355,
      "channel" : 2,
      "noteNumber" : 41,
      "noteName" : "F2",
      "velocity" : 97,
      "durationTicks" : 58,
      "durationSeconds" : 0.12499990833333641
    }, {
      "type" : "note",
      "tick" : 37200,
      "timeSeconds" : 80.172355,
      "channel" : 2,
      "noteNumber" : 67,
      "noteName" : "G4",
      "velocity" : 108,
      "durationTicks" : 65,
      "durationSeconds" : 0.1400861041666701
    }, {
      "type" : "note",
      "tick" : 37200,
      "timeSeconds" : 80.172355,
      "channel" : 2,
      "noteNumber" : 63,
      "noteName" : "D#4",
      "velocity" : 87,
      "durationTicks" : 68,
      "durationSeconds" : 0.14655161666667027
    }, {
      "type" : "note",
      "tick" : 37320,
      "timeSeconds" : 80.4309755,
      "channel" : 2,
      "noteNumber" : 67,
      "noteName" : "G4",
      "velocity" : 108,
      "durationTicks" : 54,
      "durationSeconds" : 0.11637922500000286
    }, {
      "type" : "note",
      "tick" : 37320,
      "timeSeconds" : 80.4309755,
      "channel" : 2,
      "noteNumber" : 41,
      "noteName" : "F2",
      "velocity" : 104,
      "durationTicks" : 57,
      "durationSeconds" : 0.12284473750000302
    }, {
      "type" : "note",
      "tick" : 37320,
      "timeSeconds" : 80.4309755,
      "channel" : 2,
      "noteNumber" : 57,
      "noteName" : "A3",
      "velocity" : 97,
      "durationTicks" : 65,
      "durationSeconds" : 0.1400861041666701
    }, {
      "type" : "note",
      "tick" : 37320,
      "timeSeconds" : 80.4309755,
      "channel" : 2,
      "noteNumber" : 63,
      "noteName" : "D#4",
      "velocity" : 95,
      "durationTicks" : 68,
      "durationSeconds" : 0.14655161666667027
    }, {
      "type" : "note",
      "tick" : 37680,
      "timeSeconds" : 81.206837,
      "channel" : 2,
      "noteNumber" : 46,
      "noteName" : "A#2",
      "velocity" : 95,
      "durationTicks" : 45,
      "durationSeconds" : 0.09698268750000238
    }, {
      "type" : "note",
      "tick" : 37680,
      "timeSeconds" : 81.206837,
      "channel" : 2,
      "noteNumber" : 57,
      "noteName" : "A3",
      "velocity" : 101,
      "durationTicks" : 49,
      "durationSeconds" : 0.10560337083333593
    }, {
      "type" : "note",
      "tick" : 37680,
      "timeSeconds" : 81.206837,
      "channel" : 2,
      "noteNumber" : 67,
      "noteName" : "G4",
      "velocity" : 104,
      "durationTicks" : 50,
      "durationSeconds" : 0.10775854166666932
    }, {
      "type" : "note",
      "tick" : 37680,
      "timeSeconds" : 81.206837,
      "channel" : 2,
      "noteNumber" : 62,
      "noteName" : "D4",
      "velocity" : 104,
      "durationTicks" : 56,
      "durationSeconds" : 0.12068956666666963
    }, {
      "type" : "note",
      "tick" : 37800,
      "timeSeconds" : 81.4654575,
      "channel" : 2,
      "noteNumber" : 57,
      "noteName" : "A3",
      "velocity" : 104,
      "durationTicks" : 47,
      "durationSeconds" : 0.10129302916666916
    }, {
      "type" : "note",
      "tick" : 37800,
      "timeSeconds" : 81.4654575,
      "channel" : 2,
      "noteNumber" : 67,
      "noteName" : "G4",
      "velocity" : 104,
      "durationTicks" : 50,
      "durationSeconds" : 0.10775854166666932
    }, {
      "type" : "note",
      "tick" : 37800,
      "timeSeconds" : 81.4654575,
      "channel" : 2,
      "noteNumber" : 62,
      "noteName" : "D4",
      "velocity" : 113,
      "durationTicks" : 53,
      "durationSeconds" : 0.11422405416666948
    }, {
      "type" : "note",
      "tick" : 37800,
      "timeSeconds" : 81.4654575,
      "channel" : 2,
      "noteNumber" : 46,
      "noteName" : "A#2",
      "velocity" : 91,
      "durationTicks" : 55,
      "durationSeconds" : 0.11853439583333625
    }, {
      "type" : "note",
      "tick" : 38160,
      "timeSeconds" : 82.241319,
      "channel" : 2,
      "noteNumber" : 46,
      "noteName" : "A#2",
      "velocity" : 91,
      "durationTicks" : 49,
      "durationSeconds" : 0.10560337083333593
    }, {
      "type" : "note",
      "tick" : 38160,
      "timeSeconds" : 82.241319,
      "channel" : 2,
      "noteNumber" : 57,
      "noteName" : "A3",
      "velocity" : 108,
      "durationTicks" : 58,
      "durationSeconds" : 0.1249999083333222
    }, {
      "type" : "note",
      "tick" : 38160,
      "timeSeconds" : 82.241319,
      "channel" : 2,
      "noteNumber" : 67,
      "noteName" : "G4",
      "velocity" : 104,
      "durationTicks" : 60,
      "durationSeconds" : 0.12931024999998897
    }, {
      "type" : "note",
      "tick" : 38160,
      "timeSeconds" : 82.241319,
      "channel" : 2,
      "noteNumber" : 62,
      "noteName" : "D4",
      "velocity" : 108,
      "durationTicks" : 69,
      "durationSeconds" : 0.14870678749998945
    }, {
      "type" : "note",
      "tick" : 38280,
      "timeSeconds" : 82.4999395,
      "channel" : 2,
      "noteNumber" : 67,
      "noteName" : "G4",
      "velocity" : 104,
      "durationTicks" : 49,
      "durationSeconds" : 0.10560337083333593
    }, {
      "type" : "note",
      "tick" : 38280,
      "timeSeconds" : 82.4999395,
      "channel" : 2,
      "noteNumber" : 46,
      "noteName" : "A#2",
      "velocity" : 76,
      "durationTicks" : 50,
      "durationSeconds" : 0.10775854166666932
    }, {
      "type" : "note",
      "tick" : 38280,
      "timeSeconds" : 82.4999395,
      "channel" : 2,
      "noteNumber" : 62,
      "noteName" : "D4",
      "velocity" : 104,
      "durationTicks" : 57,
      "durationSeconds" : 0.12284473750000302
    }, {
      "type" : "note",
      "tick" : 38280,
      "timeSeconds" : 82.4999395,
      "channel" : 2,
      "noteNumber" : 57,
      "noteName" : "A3",
      "velocity" : 97,
      "durationTicks" : 57,
      "durationSeconds" : 0.12284473750000302
    }, {
      "type" : "note",
      "tick" : 38640,
      "timeSeconds" : 83.275801,
      "channel" : 2,
      "noteNumber" : 45,
      "noteName" : "A2",
      "velocity" : 108,
      "durationTicks" : 60,
      "durationSeconds" : 0.12931025000000318
    }, {
      "type" : "note",
      "tick" : 38640,
      "timeSeconds" : 83.275801,
      "channel" : 2,
      "noteNumber" : 55,
      "noteName" : "G3",
      "velocity" : 97,
      "durationTicks" : 61,
      "durationSeconds" : 0.13146542083333657
    }, {
      "type" : "note",
      "tick" : 38640,
      "timeSeconds" : 83.275801,
      "channel" : 2,
      "noteNumber" : 65,
      "noteName" : "F4",
      "velocity" : 97,
      "durationTicks" : 64,
      "durationSeconds" : 0.13793093333333672
    }, {
      "type" : "note",
      "tick" : 38640,
      "timeSeconds" : 83.275801,
      "channel" : 2,
      "noteNumber" : 61,
      "noteName" : "C#4",
      "velocity" : 95,
      "durationTicks" : 65,
      "durationSeconds" : 0.1400861041666701
    }, {
      "type" : "note",
      "tick" : 38760,
      "timeSeconds" : 83.5344215,
      "channel" : 2,
      "noteNumber" : 45,
      "noteName" : "A2",
      "velocity" : 122,
      "durationTicks" : 58,
      "durationSeconds" : 0.12499990833333641
    }, {
      "type" : "note",
      "tick" : 38760,
      "timeSeconds" : 83.5344215,
      "channel" : 2,
      "noteNumber" : 65,
      "noteName" : "F4",
      "velocity" : 101,
      "durationTicks" : 61,
      "durationSeconds" : 0.13146542083333657
    }, {
      "type" : "note",
      "tick" : 38760,
      "timeSeconds" : 83.5344215,
      "channel" : 2,
      "noteNumber" : 61,
      "noteName" : "C#4",
      "velocity" : 100,
      "durationTicks" : 64,
      "durationSeconds" : 0.13793093333333672
    }, {
      "type" : "note",
      "tick" : 38760,
      "timeSeconds" : 83.5344215,
      "channel" : 2,
      "noteNumber" : 55,
      "noteName" : "G3",
      "velocity" : 104,
      "durationTicks" : 67,
      "durationSeconds" : 0.14439644583333688
    }, {
      "type" : "note",
      "tick" : 39120,
      "timeSeconds" : 84.310283,
      "channel" : 2,
      "noteNumber" : 42,
      "noteName" : "F#2",
      "velocity" : 110,
      "durationTicks" : 60,
      "durationSeconds" : 0.12931025000000318
    }, {
      "type" : "note",
      "tick" : 39120,
      "timeSeconds" : 84.310283,
      "channel" : 2,
      "noteNumber" : 64,
      "noteName" : "E4",
      "velocity" : 101,
      "durationTicks" : 71,
      "durationSeconds" : 0.15301712916667043
    }, {
      "type" : "note",
      "tick" : 39120,
      "timeSeconds" : 84.310283,
      "channel" : 2,
      "noteNumber" : 52,
      "noteName" : "E3",
      "velocity" : 113,
      "durationTicks" : 71,
      "durationSeconds" : 0.15301712916667043
    }, {
      "type" : "note",
      "tick" : 39120,
      "timeSeconds" : 84.310283,
      "channel" : 2,
      "noteNumber" : 58,
      "noteName" : "A#3",
      "velocity" : 100,
      "durationTicks" : 72,
      "durationSeconds" : 0.15517230000000382
    }, {
      "type" : "note",
      "tick" : 39240,
      "timeSeconds" : 84.5689035,
      "channel" : 2,
      "noteNumber" : 42,
      "noteName" : "F#2",
      "velocity" : 104,
      "durationTicks" : 60,
      "durationSeconds" : 0.12931024999998897
    }, {
      "type" : "note",
      "tick" : 39240,
      "timeSeconds" : 84.5689035,
      "channel" : 2,
      "noteNumber" : 52,
      "noteName" : "E3",
      "velocity" : 108,
      "durationTicks" : 68,
      "durationSeconds" : 0.14655161666665606
    }, {
      "type" : "note",
      "tick" : 39240,
      "timeSeconds" : 84.5689035,
      "channel" : 2,
      "noteNumber" : 64,
      "noteName" : "E4",
      "velocity" : 97,
      "durationTicks" : 75,
      "durationSeconds" : 0.16163781249998976
    }, {
      "type" : "note",
      "tick" : 39240,
      "timeSeconds" : 84.5689035,
      "channel" : 2,
      "noteNumber" : 58,
      "noteName" : "A#3",
      "velocity" : 100,
      "durationTicks" : 78,
      "durationSeconds" : 0.16810332499998992
    }, {
      "type" : "note",
      "tick" : 39600,
      "timeSeconds" : 85.344765,
      "channel" : 2,
      "noteNumber" : 53,
      "noteName" : "F3",
      "velocity" : 117,
      "durationTicks" : 47,
      "durationSeconds" : 0.10129302916666916
    }, {
      "type" : "note",
      "tick" : 39600,
      "timeSeconds" : 85.344765,
      "channel" : 2,
      "noteNumber" : 43,
      "noteName" : "G2",
      "velocity" : 113,
      "durationTicks" : 54,
      "durationSeconds" : 0.11637922500000286
    }, {
      "type" : "note",
      "tick" : 39600,
      "timeSeconds" : 85.344765,
      "channel" : 2,
      "noteNumber" : 58,
      "noteName" : "A#3",
      "velocity" : 95,
      "durationTicks" : 57,
      "durationSeconds" : 0.12284473750000302
    }, {
      "type" : "note",
      "tick" : 39600,
      "timeSeconds" : 85.344765,
      "channel" : 2,
      "noteNumber" : 62,
      "noteName" : "D4",
      "velocity" : 113,
      "durationTicks" : 58,
      "durationSeconds" : 0.12499990833333641
    }, {
      "type" : "note",
      "tick" : 39720,
      "timeSeconds" : 85.6033855,
      "channel" : 2,
      "noteNumber" : 53,
      "noteName" : "F3",
      "velocity" : 113,
      "durationTicks" : 57,
      "durationSeconds" : 0.12284473750000302
    }, {
      "type" : "note",
      "tick" : 39720,
      "timeSeconds" : 85.6033855,
      "channel" : 2,
      "noteNumber" : 43,
      "noteName" : "G2",
      "velocity" : 117,
      "durationTicks" : 60,
      "durationSeconds" : 0.12931025000000318
    }, {
      "type" : "note",
      "tick" : 39720,
      "timeSeconds" : 85.6033855,
      "channel" : 2,
      "noteNumber" : 58,
      "noteName" : "A#3",
      "velocity" : 95,
      "durationTicks" : 66,
      "durationSeconds" : 0.1422412750000035
    }, {
      "type" : "note",
      "tick" : 39720,
      "timeSeconds" : 85.6033855,
      "channel" : 2,
      "noteNumber" : 62,
      "noteName" : "D4",
      "velocity" : 94,
      "durationTicks" : 69,
      "durationSeconds" : 0.14870678750000366
    }, {
      "type" : "note",
      "tick" : 40080,
      "timeSeconds" : 86.379247,
      "channel" : 2,
      "noteNumber" : 55,
      "noteName" : "G3",
      "velocity" : 104,
      "durationTicks" : 48,
      "durationSeconds" : 0.10344819999998833
    }, {
      "type" : "note",
      "tick" : 40080,
      "timeSeconds" : 86.379247,
      "channel" : 2,
      "noteNumber" : 58,
      "noteName" : "A#3",
      "velocity" : 100,
      "durationTicks" : 50,
      "durationSeconds" : 0.1077585416666551
    }, {
      "type" : "note",
      "tick" : 40080,
      "timeSeconds" : 86.379247,
      "channel" : 2,
      "noteNumber" : 49,
      "noteName" : "C#3",
      "velocity" : 100,
      "durationTicks" : 54,
      "durationSeconds" : 0.11637922499998865
    }, {
      "type" : "note",
      "tick" : 40080,
      "timeSeconds" : 86.379247,
      "channel" : 2,
      "noteNumber" : 64,
      "noteName" : "E4",
      "velocity" : 97,
      "durationTicks" : 56,
      "durationSeconds" : 0.12068956666665542
    }, {
      "type" : "note",
      "tick" : 40200,
      "timeSeconds" : 86.6378675,
      "channel" : 2,
      "noteNumber" : 49,
      "noteName" : "C#3",
      "velocity" : 104,
      "durationTicks" : 50,
      "durationSeconds" : 0.10775854166666932
    }, {
      "type" : "note",
      "tick" : 40200,
      "timeSeconds" : 86.6378675,
      "channel" : 2,
      "noteNumber" : 55,
      "noteName" : "G3",
      "velocity" : 108,
      "durationTicks" : 57,
      "durationSeconds" : 0.12284473750000302
    }, {
      "type" : "note",
      "tick" : 40200,
      "timeSeconds" : 86.6378675,
      "channel" : 2,
      "noteNumber" : 64,
      "noteName" : "E4",
      "velocity" : 104,
      "durationTicks" : 61,
      "durationSeconds" : 0.13146542083333657
    }, {
      "type" : "note",
      "tick" : 40200,
      "timeSeconds" : 86.6378675,
      "channel" : 2,
      "noteNumber" : 58,
      "noteName" : "A#3",
      "velocity" : 100,
      "durationTicks" : 70,
      "durationSeconds" : 0.15086195833333704
    }, {
      "type" : "note",
      "tick" : 40560,
      "timeSeconds" : 87.413729,
      "channel" : 2,
      "noteNumber" : 50,
      "noteName" : "D3",
      "velocity" : 117,
      "durationTicks" : 51,
      "durationSeconds" : 0.1099137125000027
    }, {
      "type" : "note",
      "tick" : 40560,
      "timeSeconds" : 87.413729,
      "channel" : 2,
      "noteNumber" : 67,
      "noteName" : "G4",
      "velocity" : 117,
      "durationTicks" : 58,
      "durationSeconds" : 0.12499990833333641
    }, {
      "type" : "note",
      "tick" : 40560,
      "timeSeconds" : 87.413729,
      "channel" : 2,
      "noteNumber" : 57,
      "noteName" : "A3",
      "velocity" : 104,
      "durationTicks" : 60,
      "durationSeconds" : 0.12931025000000318
    }, {
      "type" : "note",
      "tick" : 40560,
      "timeSeconds" : 87.413729,
      "channel" : 2,
      "noteNumber" : 64,
      "noteName" : "E4",
      "velocity" : 108,
      "durationTicks" : 68,
      "durationSeconds" : 0.14655161666665606
    }, {
      "type" : "note",
      "tick" : 40680,
      "timeSeconds" : 87.6723495,
      "channel" : 2,
      "noteNumber" : 69,
      "noteName" : "A4",
      "velocity" : 91,
      "durationTicks" : 32,
      "durationSeconds" : 0.06896546666666836
    }, {
      "type" : "note",
      "tick" : 40680,
      "timeSeconds" : 87.6723495,
      "channel" : 2,
      "noteNumber" : 67,
      "noteName" : "G4",
      "velocity" : 97,
      "durationTicks" : 35,
      "durationSeconds" : 0.07543097916666852
    }, {
      "type" : "note",
      "tick" : 40680,
      "timeSeconds" : 87.6723495,
      "channel" : 2,
      "noteNumber" : 57,
      "noteName" : "A3",
      "velocity" : 101,
      "durationTicks" : 50,
      "durationSeconds" : 0.10775854166666932
    }, {
      "type" : "note",
      "tick" : 40680,
      "timeSeconds" : 87.6723495,
      "channel" : 2,
      "noteNumber" : 50,
      "noteName" : "D3",
      "velocity" : 113,
      "durationTicks" : 53,
      "durationSeconds" : 0.11422405416666948
    }, {
      "type" : "note",
      "tick" : 40680,
      "timeSeconds" : 87.6723495,
      "channel" : 2,
      "noteNumber" : 64,
      "noteName" : "E4",
      "velocity" : 113,
      "durationTicks" : 55,
      "durationSeconds" : 0.11853439583333625
    }, {
      "type" : "note",
      "tick" : 41040,
      "timeSeconds" : 88.448211,
      "channel" : 2,
      "noteNumber" : 57,
      "noteName" : "A3",
      "velocity" : 113,
      "durationTicks" : 56,
      "durationSeconds" : 0.12068956666666963
    }, {
      "type" : "note",
      "tick" : 41040,
      "timeSeconds" : 88.448211,
      "channel" : 2,
      "noteNumber" : 63,
      "noteName" : "D#4",
      "velocity" : 104,
      "durationTicks" : 57,
      "durationSeconds" : 0.12284473750000302
    }, {
      "type" : "note",
      "tick" : 41040,
      "timeSeconds" : 88.448211,
      "channel" : 2,
      "noteNumber" : 67,
      "noteName" : "G4",
      "velocity" : 117,
      "durationTicks" : 58,
      "durationSeconds" : 0.12499990833333641
    }, {
      "type" : "note",
      "tick" : 41040,
      "timeSeconds" : 88.448211,
      "channel" : 2,
      "noteNumber" : 41,
      "noteName" : "F2",
      "velocity" : 127,
      "durationTicks" : 60,
      "durationSeconds" : 0.12931025000000318
    }, {
      "type" : "note",
      "tick" : 41160,
      "timeSeconds" : 88.7068315,
      "channel" : 2,
      "noteNumber" : 67,
      "noteName" : "G4",
      "velocity" : 117,
      "durationTicks" : 52,
      "durationSeconds" : 0.11206888333332188
    }, {
      "type" : "note",
      "tick" : 41160,
      "timeSeconds" : 88.7068315,
      "channel" : 2,
      "noteNumber" : 57,
      "noteName" : "A3",
      "velocity" : 113,
      "durationTicks" : 57,
      "durationSeconds" : 0.12284473749998881
    }, {
      "type" : "note",
      "tick" : 41160,
      "timeSeconds" : 88.7068315,
      "channel" : 2,
      "noteNumber" : 63,
      "noteName" : "D#4",
      "velocity" : 104,
      "durationTicks" : 60,
      "durationSeconds" : 0.12931024999998897
    }, {
      "type" : "note",
      "tick" : 41160,
      "timeSeconds" : 88.7068315,
      "channel" : 2,
      "noteNumber" : 41,
      "noteName" : "F2",
      "velocity" : 113,
      "durationTicks" : 61,
      "durationSeconds" : 0.13146542083332236
    }, {
      "type" : "note",
      "tick" : 41520,
      "timeSeconds" : 89.482693,
      "channel" : 2,
      "noteNumber" : 46,
      "noteName" : "A#2",
      "velocity" : 104,
      "durationTicks" : 52,
      "durationSeconds" : 0.11206888333333609
    }, {
      "type" : "note",
      "tick" : 41520,
      "timeSeconds" : 89.482693,
      "channel" : 2,
      "noteNumber" : 57,
      "noteName" : "A3",
      "velocity" : 117,
      "durationTicks" : 55,
      "durationSeconds" : 0.11853439583333625
    }, {
      "type" : "note",
      "tick" : 41520,
      "timeSeconds" : 89.482693,
      "channel" : 2,
      "noteNumber" : 67,
      "noteName" : "G4",
      "velocity" : 122,
      "durationTicks" : 61,
      "durationSeconds" : 0.13146542083333657
    }, {
      "type" : "note",
      "tick" : 41520,
      "timeSeconds" : 89.482693,
      "channel" : 2,
      "noteNumber" : 62,
      "noteName" : "D4",
      "velocity" : 122,
      "durationTicks" : 62,
      "durationSeconds" : 0.13362059166666995
    }, {
      "type" : "note",
      "tick" : 41640,
      "timeSeconds" : 89.7413135,
      "channel" : 2,
      "noteNumber" : 67,
      "noteName" : "G4",
      "velocity" : 122,
      "durationTicks" : 54,
      "durationSeconds" : 0.11637922500000286
    }, {
      "type" : "note",
      "tick" : 41640,
      "timeSeconds" : 89.7413135,
      "channel" : 2,
      "noteNumber" : 46,
      "noteName" : "A#2",
      "velocity" : 110,
      "durationTicks" : 56,
      "durationSeconds" : 0.12068956666666963
    }, {
      "type" : "note",
      "tick" : 41640,
      "timeSeconds" : 89.7413135,
      "channel" : 2,
      "noteNumber" : 62,
      "noteName" : "D4",
      "velocity" : 127,
      "durationTicks" : 67,
      "durationSeconds" : 0.14439644583332267
    }, {
      "type" : "note",
      "tick" : 41640,
      "timeSeconds" : 89.7413135,
      "channel" : 2,
      "noteNumber" : 57,
      "noteName" : "A3",
      "velocity" : 117,
      "durationTicks" : 72,
      "durationSeconds" : 0.1551722999999896
    }, {
      "type" : "note",
      "tick" : 42000,
      "timeSeconds" : 90.517175,
      "channel" : 2,
      "noteNumber" : 55,
      "noteName" : "G3",
      "velocity" : 117,
      "durationTicks" : 49,
      "durationSeconds" : 0.10560337083333593
    }, {
      "type" : "note",
      "tick" : 42000,
      "timeSeconds" : 90.517175,
      "channel" : 2,
      "noteNumber" : 45,
      "noteName" : "A2",
      "velocity" : 122,
      "durationTicks" : 52,
      "durationSeconds" : 0.11206888333333609
    }, {
      "type" : "note",
      "tick" : 42000,
      "timeSeconds" : 90.517175,
      "channel" : 2,
      "noteNumber" : 61,
      "noteName" : "C#4",
      "velocity" : 110,
      "durationTicks" : 59,
      "durationSeconds" : 0.1271550791666698
    }, {
      "type" : "note",
      "tick" : 42000,
      "timeSeconds" : 90.517175,
      "channel" : 2,
      "noteNumber" : 65,
      "noteName" : "F4",
      "velocity" : 94,
      "durationTicks" : 63,
      "durationSeconds" : 0.13577576250000334
    }, {
      "type" : "note",
      "tick" : 42120,
      "timeSeconds" : 90.7757955,
      "channel" : 2,
      "noteNumber" : 45,
      "noteName" : "A2",
      "velocity" : 117,
      "durationTicks" : 49,
      "durationSeconds" : 0.10560337083333593
    }, {
      "type" : "note",
      "tick" : 42120,
      "timeSeconds" : 90.7757955,
      "channel" : 2,
      "noteNumber" : 61,
      "noteName" : "C#4",
      "velocity" : 104,
      "durationTicks" : 57,
      "durationSeconds" : 0.12284473750000302
    }, {
      "type" : "note",
      "tick" : 42120,
      "timeSeconds" : 90.7757955,
      "channel" : 2,
      "noteNumber" : 65,
      "noteName" : "F4",
      "velocity" : 101,
      "durationTicks" : 59,
      "durationSeconds" : 0.1271550791666698
    }, {
      "type" : "note",
      "tick" : 42120,
      "timeSeconds" : 90.7757955,
      "channel" : 2,
      "noteNumber" : 55,
      "noteName" : "G3",
      "velocity" : 113,
      "durationTicks" : 67,
      "durationSeconds" : 0.14439644583333688
    }, {
      "type" : "note",
      "tick" : 42480,
      "timeSeconds" : 91.551657,
      "channel" : 2,
      "noteNumber" : 50,
      "noteName" : "D3",
      "velocity" : 122,
      "durationTicks" : 49,
      "durationSeconds" : 0.10560337083332172
    }, {
      "type" : "note",
      "tick" : 42480,
      "timeSeconds" : 91.551657,
      "channel" : 2,
      "noteNumber" : 64,
      "noteName" : "E4",
      "velocity" : 104,
      "durationTicks" : 52,
      "durationSeconds" : 0.11206888333332188
    }, {
      "type" : "note",
      "tick" : 42480,
      "timeSeconds" : 91.551657,
      "channel" : 2,
      "noteNumber" : 53,
      "noteName" : "F3",
      "velocity" : 113,
      "durationTicks" : 55,
      "durationSeconds" : 0.11853439583332204
    }, {
      "type" : "note",
      "tick" : 42480,
      "timeSeconds" : 91.551657,
      "channel" : 2,
      "noteNumber" : 60,
      "noteName" : "C4",
      "velocity" : 117,
      "durationTicks" : 62,
      "durationSeconds" : 0.13362059166665574
    }, {
      "type" : "note",
      "tick" : 42600,
      "timeSeconds" : 91.8102775,
      "channel" : 2,
      "noteNumber" : 53,
      "noteName" : "F3",
      "velocity" : 122,
      "durationTicks" : 51,
      "durationSeconds" : 0.1099137125000027
    }, {
      "type" : "note",
      "tick" : 42600,
      "timeSeconds" : 91.8102775,
      "channel" : 2,
      "noteNumber" : 50,
      "noteName" : "D3",
      "velocity" : 127,
      "durationTicks" : 53,
      "durationSeconds" : 0.11422405416666948
    }, {
      "type" : "note",
      "tick" : 42600,
      "timeSeconds" : 91.8102775,
      "channel" : 2,
      "noteNumber" : 60,
      "noteName" : "C4",
      "velocity" : 122,
      "durationTicks" : 60,
      "durationSeconds" : 0.12931025000000318
    }, {
      "type" : "note",
      "tick" : 42600,
      "timeSeconds" : 91.8102775,
      "channel" : 2,
      "noteNumber" : 64,
      "noteName" : "E4",
      "velocity" : 101,
      "durationTicks" : 61,
      "durationSeconds" : 0.13146542083333657
    }, {
      "type" : "note",
      "tick" : 42960,
      "timeSeconds" : 92.586139,
      "channel" : 2,
      "noteNumber" : 42,
      "noteName" : "F#2",
      "velocity" : 104,
      "durationTicks" : 42,
      "durationSeconds" : 0.09051717500000223
    }, {
      "type" : "note",
      "tick" : 42960,
      "timeSeconds" : 92.586139,
      "channel" : 2,
      "noteNumber" : 64,
      "noteName" : "E4",
      "velocity" : 101,
      "durationTicks" : 68,
      "durationSeconds" : 0.14655161666667027
    }, {
      "type" : "note",
      "tick" : 42960,
      "timeSeconds" : 92.586139,
      "channel" : 2,
      "noteNumber" : 58,
      "noteName" : "A#3",
      "velocity" : 100,
      "durationTicks" : 70,
      "durationSeconds" : 0.15086195833333704
    }, {
      "type" : "note",
      "tick" : 42960,
      "timeSeconds" : 92.586139,
      "channel" : 2,
      "noteNumber" : 52,
      "noteName" : "E3",
      "velocity" : 101,
      "durationTicks" : 71,
      "durationSeconds" : 0.15301712916667043
    }, {
      "type" : "note",
      "tick" : 43080,
      "timeSeconds" : 92.8447595,
      "channel" : 2,
      "noteNumber" : 42,
      "noteName" : "F#2",
      "velocity" : 110,
      "durationTicks" : 54,
      "durationSeconds" : 0.11637922500000286
    }, {
      "type" : "note",
      "tick" : 43080,
      "timeSeconds" : 92.8447595,
      "channel" : 2,
      "noteNumber" : 64,
      "noteName" : "E4",
      "velocity" : 108,
      "durationTicks" : 62,
      "durationSeconds" : 0.13362059166666995
    }, {
      "type" : "note",
      "tick" : 43080,
      "timeSeconds" : 92.8447595,
      "channel" : 2,
      "noteNumber" : 52,
      "noteName" : "E3",
      "velocity" : 113,
      "durationTicks" : 65,
      "durationSeconds" : 0.1400861041666701
    }, {
      "type" : "note",
      "tick" : 43080,
      "timeSeconds" : 92.8447595,
      "channel" : 2,
      "noteNumber" : 58,
      "noteName" : "A#3",
      "velocity" : 104,
      "durationTicks" : 73,
      "durationSeconds" : 0.1573274708333372
    }, {
      "type" : "note",
      "tick" : 43440,
      "timeSeconds" : 93.620621,
      "channel" : 2,
      "noteNumber" : 43,
      "noteName" : "G2",
      "velocity" : 122,
      "durationTicks" : 55,
      "durationSeconds" : 0.11853439583333625
    }, {
      "type" : "note",
      "tick" : 43440,
      "timeSeconds" : 93.620621,
      "channel" : 2,
      "noteNumber" : 58,
      "noteName" : "A#3",
      "velocity" : 100,
      "durationTicks" : 61,
      "durationSeconds" : 0.13146542083333657
    }, {
      "type" : "note",
      "tick" : 43440,
      "timeSeconds" : 93.620621,
      "channel" : 2,
      "noteNumber" : 53,
      "noteName" : "F3",
      "velocity" : 117,
      "durationTicks" : 63,
      "durationSeconds" : 0.13577576250000334
    }, {
      "type" : "note",
      "tick" : 43440,
      "timeSeconds" : 93.620621,
      "channel" : 2,
      "noteNumber" : 62,
      "noteName" : "D4",
      "velocity" : 113,
      "durationTicks" : 66,
      "durationSeconds" : 0.1422412750000035
    }, {
      "type" : "note",
      "tick" : 43560,
      "timeSeconds" : 93.8792415,
      "channel" : 2,
      "noteNumber" : 53,
      "noteName" : "F3",
      "velocity" : 117,
      "durationTicks" : 63,
      "durationSeconds" : 0.13577576249998913
    }, {
      "type" : "note",
      "tick" : 43560,
      "timeSeconds" : 93.8792415,
      "channel" : 2,
      "noteNumber" : 43,
      "noteName" : "G2",
      "velocity" : 127,
      "durationTicks" : 69,
      "durationSeconds" : 0.14870678749998945
    }, {
      "type" : "note",
      "tick" : 43560,
      "timeSeconds" : 93.8792415,
      "channel" : 2,
      "noteNumber" : 58,
      "noteName" : "A#3",
      "velocity" : 104,
      "durationTicks" : 69,
      "durationSeconds" : 0.14870678749998945
    }, {
      "type" : "note",
      "tick" : 43560,
      "timeSeconds" : 93.8792415,
      "channel" : 2,
      "noteNumber" : 62,
      "noteName" : "D4",
      "velocity" : 108,
      "durationTicks" : 71,
      "durationSeconds" : 0.15301712916665622
    }, {
      "type" : "note",
      "tick" : 43920,
      "timeSeconds" : 94.655103,
      "channel" : 2,
      "noteNumber" : 49,
      "noteName" : "C#3",
      "velocity" : 87,
      "durationTicks" : 49,
      "durationSeconds" : 0.10560337083333593
    }, {
      "type" : "note",
      "tick" : 43920,
      "timeSeconds" : 94.655103,
      "channel" : 2,
      "noteNumber" : 55,
      "noteName" : "G3",
      "velocity" : 108,
      "durationTicks" : 57,
      "durationSeconds" : 0.12284473750000302
    }, {
      "type" : "note",
      "tick" : 43920,
      "timeSeconds" : 94.655103,
      "channel" : 2,
      "noteNumber" : 58,
      "noteName" : "A#3",
      "velocity" : 100,
      "durationTicks" : 63,
      "durationSeconds" : 0.13577576250000334
    }, {
      "type" : "note",
      "tick" : 43920,
      "timeSeconds" : 94.655103,
      "channel" : 2,
      "noteNumber" : 64,
      "noteName" : "E4",
      "velocity" : 97,
      "durationTicks" : 68,
      "durationSeconds" : 0.14655161666667027
    }, {
      "type" : "note",
      "tick" : 44040,
      "timeSeconds" : 94.9137235,
      "channel" : 2,
      "noteNumber" : 49,
      "noteName" : "C#3",
      "velocity" : 95,
      "durationTicks" : 55,
      "durationSeconds" : 0.11853439583333625
    }, {
      "type" : "note",
      "tick" : 44040,
      "timeSeconds" : 94.9137235,
      "channel" : 2,
      "noteNumber" : 58,
      "noteName" : "A#3",
      "velocity" : 104,
      "durationTicks" : 65,
      "durationSeconds" : 0.1400861041666701
    }, {
      "type" : "note",
      "tick" : 44040,
      "timeSeconds" : 94.9137235,
      "channel" : 2,
      "noteNumber" : 64,
      "noteName" : "E4",
      "velocity" : 101,
      "durationTicks" : 77,
      "durationSeconds" : 0.16594815416665654
    }, {
      "type" : "note",
      "tick" : 44040,
      "timeSeconds" : 94.9137235,
      "channel" : 2,
      "noteNumber" : 55,
      "noteName" : "G3",
      "velocity" : 113,
      "durationTicks" : 86,
      "durationSeconds" : 0.185344691666657
    }, {
      "type" : "note",
      "tick" : 44400,
      "timeSeconds" : 95.689585,
      "channel" : 2,
      "noteNumber" : 50,
      "noteName" : "D3",
      "velocity" : 108,
      "durationTicks" : 46,
      "durationSeconds" : 0.09913785833333577
    }, {
      "type" : "note",
      "tick" : 44400,
      "timeSeconds" : 95.689585,
      "channel" : 2,
      "noteNumber" : 53,
      "noteName" : "F3",
      "velocity" : 113,
      "durationTicks" : 57,
      "durationSeconds" : 0.12284473750000302
    }, {
      "type" : "note",
      "tick" : 44400,
      "timeSeconds" : 95.689585,
      "channel" : 2,
      "noteNumber" : 64,
      "noteName" : "E4",
      "velocity" : 94,
      "durationTicks" : 62,
      "durationSeconds" : 0.13362059166666995
    }, {
      "type" : "note",
      "tick" : 44400,
      "timeSeconds" : 95.689585,
      "channel" : 2,
      "noteNumber" : 60,
      "noteName" : "C4",
      "velocity" : 113,
      "durationTicks" : 70,
      "durationSeconds" : 0.15086195833333704
    }, {
      "type" : "note",
      "tick" : 44520,
      "timeSeconds" : 95.9482055,
      "channel" : 2,
      "noteNumber" : 53,
      "noteName" : "F3",
      "velocity" : 117,
      "durationTicks" : 50,
      "durationSeconds" : 0.10775854166666932
    }, {
      "type" : "note",
      "tick" : 44520,
      "timeSeconds" : 95.9482055,
      "channel" : 2,
      "noteNumber" : 50,
      "noteName" : "D3",
      "velocity" : 117,
      "durationTicks" : 53,
      "durationSeconds" : 0.11422405416666948
    }, {
      "type" : "note",
      "tick" : 44520,
      "timeSeconds" : 95.9482055,
      "channel" : 2,
      "noteNumber" : 60,
      "noteName" : "C4",
      "velocity" : 127,
      "durationTicks" : 53,
      "durationSeconds" : 0.11422405416666948
    }, {
      "type" : "note",
      "tick" : 44520,
      "timeSeconds" : 95.9482055,
      "channel" : 2,
      "noteNumber" : 64,
      "noteName" : "E4",
      "velocity" : 101,
      "durationTicks" : 54,
      "durationSeconds" : 0.11637922500000286
    }, {
      "type" : "note",
      "tick" : 44880,
      "timeSeconds" : 96.724067,
      "channel" : 2,
      "noteNumber" : 57,
      "noteName" : "A3",
      "velocity" : 108,
      "durationTicks" : 49,
      "durationSeconds" : 0.10560337083332172
    }, {
      "type" : "note",
      "tick" : 44880,
      "timeSeconds" : 96.724067,
      "channel" : 2,
      "noteNumber" : 67,
      "noteName" : "G4",
      "velocity" : 113,
      "durationTicks" : 54,
      "durationSeconds" : 0.11637922499998865
    }, {
      "type" : "note",
      "tick" : 44880,
      "timeSeconds" : 96.724067,
      "channel" : 2,
      "noteNumber" : 63,
      "noteName" : "D#4",
      "velocity" : 104,
      "durationTicks" : 54,
      "durationSeconds" : 0.11637922499998865
    }, {
      "type" : "note",
      "tick" : 44880,
      "timeSeconds" : 96.724067,
      "channel" : 2,
      "noteNumber" : 41,
      "noteName" : "F2",
      "velocity" : 122,
      "durationTicks" : 55,
      "durationSeconds" : 0.11853439583332204
    }, {
      "type" : "note",
      "tick" : 45000,
      "timeSeconds" : 96.9826875,
      "channel" : 2,
      "noteNumber" : 41,
      "noteName" : "F2",
      "velocity" : 113,
      "durationTicks" : 63,
      "durationSeconds" : 0.13577576250000334
    }, {
      "type" : "note",
      "tick" : 45000,
      "timeSeconds" : 96.9826875,
      "channel" : 2,
      "noteNumber" : 67,
      "noteName" : "G4",
      "velocity" : 108,
      "durationTicks" : 64,
      "durationSeconds" : 0.13793093333333672
    }, {
      "type" : "note",
      "tick" : 45000,
      "timeSeconds" : 96.9826875,
      "channel" : 2,
      "noteNumber" : 57,
      "noteName" : "A3",
      "velocity" : 104,
      "durationTicks" : 65,
      "durationSeconds" : 0.1400861041666701
    }, {
      "type" : "note",
      "tick" : 45000,
      "timeSeconds" : 96.9826875,
      "channel" : 2,
      "noteNumber" : 63,
      "noteName" : "D#4",
      "velocity" : 100,
      "durationTicks" : 70,
      "durationSeconds" : 0.15086195833333704
    }, {
      "type" : "note",
      "tick" : 45360,
      "timeSeconds" : 97.758549,
      "channel" : 2,
      "noteNumber" : 46,
      "noteName" : "A#2",
      "velocity" : 104,
      "durationTicks" : 47,
      "durationSeconds" : 0.10129302916666916
    }, {
      "type" : "note",
      "tick" : 45360,
      "timeSeconds" : 97.758549,
      "channel" : 2,
      "noteNumber" : 57,
      "noteName" : "A3",
      "velocity" : 104,
      "durationTicks" : 50,
      "durationSeconds" : 0.10775854166666932
    }, {
      "type" : "note",
      "tick" : 45360,
      "timeSeconds" : 97.758549,
      "channel" : 2,
      "noteNumber" : 67,
      "noteName" : "G4",
      "velocity" : 108,
      "durationTicks" : 51,
      "durationSeconds" : 0.1099137125000027
    }, {
      "type" : "note",
      "tick" : 45360,
      "timeSeconds" : 97.758549,
      "channel" : 2,
      "noteNumber" : 62,
      "noteName" : "D4",
      "velocity" : 117,
      "durationTicks" : 55,
      "durationSeconds" : 0.11853439583333625
    }, {
      "type" : "note",
      "tick" : 45480,
      "timeSeconds" : 98.0171695,
      "channel" : 2,
      "noteNumber" : 67,
      "noteName" : "G4",
      "velocity" : 104,
      "durationTicks" : 52,
      "durationSeconds" : 0.11206888333333609
    }, {
      "type" : "note",
      "tick" : 45480,
      "timeSeconds" : 98.0171695,
      "channel" : 2,
      "noteNumber" : 62,
      "noteName" : "D4",
      "velocity" : 113,
      "durationTicks" : 64,
      "durationSeconds" : 0.13793093333333672
    }, {
      "type" : "note",
      "tick" : 45480,
      "timeSeconds" : 98.0171695,
      "channel" : 2,
      "noteNumber" : 46,
      "noteName" : "A#2",
      "velocity" : 104,
      "durationTicks" : 64,
      "durationSeconds" : 0.13793093333333672
    }, {
      "type" : "note",
      "tick" : 45480,
      "timeSeconds" : 98.0171695,
      "channel" : 2,
      "noteNumber" : 57,
      "noteName" : "A3",
      "velocity" : 104,
      "durationTicks" : 71,
      "durationSeconds" : 0.15301712916667043
    }, {
      "type" : "note",
      "tick" : 45840,
      "timeSeconds" : 98.793031,
      "channel" : 2,
      "noteNumber" : 55,
      "noteName" : "G3",
      "velocity" : 117,
      "durationTicks" : 47,
      "durationSeconds" : 0.10129302916666916
    }, {
      "type" : "note",
      "tick" : 45840,
      "timeSeconds" : 98.793031,
      "channel" : 2,
      "noteNumber" : 45,
      "noteName" : "A2",
      "velocity" : 122,
      "durationTicks" : 49,
      "durationSeconds" : 0.10560337083333593
    }, {
      "type" : "note",
      "tick" : 45840,
      "timeSeconds" : 98.793031,
      "channel" : 2,
      "noteNumber" : 61,
      "noteName" : "C#4",
      "velocity" : 104,
      "durationTicks" : 51,
      "durationSeconds" : 0.1099137125000027
    }, {
      "type" : "note",
      "tick" : 45840,
      "timeSeconds" : 98.793031,
      "channel" : 2,
      "noteNumber" : 65,
      "noteName" : "F4",
      "velocity" : 94,
      "durationTicks" : 58,
      "durationSeconds" : 0.12499990833333641
    }, {
      "type" : "note",
      "tick" : 45960,
      "timeSeconds" : 99.0516515,
      "channel" : 2,
      "noteNumber" : 45,
      "noteName" : "A2",
      "velocity" : 122,
      "durationTicks" : 52,
      "durationSeconds" : 0.11206888333332188
    }, {
      "type" : "note",
      "tick" : 45960,
      "timeSeconds" : 99.0516515,
      "channel" : 2,
      "noteNumber" : 65,
      "noteName" : "F4",
      "velocity" : 97,
      "durationTicks" : 54,
      "durationSeconds" : 0.11637922499998865
    }, {
      "type" : "note",
      "tick" : 45960,
      "timeSeconds" : 99.0516515,
      "channel" : 2,
      "noteNumber" : 55,
      "noteName" : "G3",
      "velocity" : 108,
      "durationTicks" : 58,
      "durationSeconds" : 0.1249999083333222
    }, {
      "type" : "note",
      "tick" : 45960,
      "timeSeconds" : 99.0516515,
      "channel" : 2,
      "noteNumber" : 61,
      "noteName" : "C#4",
      "velocity" : 104,
      "durationTicks" : 59,
      "durationSeconds" : 0.12715507916665558
    }, {
      "type" : "note",
      "tick" : 46320,
      "timeSeconds" : 99.827513,
      "channel" : 2,
      "noteNumber" : 50,
      "noteName" : "D3",
      "velocity" : 117,
      "durationTicks" : 47,
      "durationSeconds" : 0.10129302916666916
    }, {
      "type" : "note",
      "tick" : 46320,
      "timeSeconds" : 99.827513,
      "channel" : 2,
      "noteNumber" : 53,
      "noteName" : "F3",
      "velocity" : 108,
      "durationTicks" : 50,
      "durationSeconds" : 0.10775854166666932
    }, {
      "type" : "note",
      "tick" : 46320,
      "timeSeconds" : 99.827513,
      "channel" : 2,
      "noteNumber" : 64,
      "noteName" : "E4",
      "velocity" : 101,
      "durationTicks" : 56,
      "durationSeconds" : 0.12068956666666963
    }, {
      "type" : "note",
      "tick" : 46320,
      "timeSeconds" : 99.827513,
      "channel" : 2,
      "noteNumber" : 60,
      "noteName" : "C4",
      "velocity" : 117,
      "durationTicks" : 62,
      "durationSeconds" : 0.13362059166666995
    }, {
      "type" : "note",
      "tick" : 46440,
      "timeSeconds" : 100.0861335,
      "channel" : 2,
      "noteNumber" : 50,
      "noteName" : "D3",
      "velocity" : 127,
      "durationTicks" : 44,
      "durationSeconds" : 0.094827516666669
    }, {
      "type" : "note",
      "tick" : 46440,
      "timeSeconds" : 100.0861335,
      "channel" : 2,
      "noteNumber" : 53,
      "noteName" : "F3",
      "velocity" : 113,
      "durationTicks" : 60,
      "durationSeconds" : 0.12931025000000318
    }, {
      "type" : "note",
      "tick" : 46440,
      "timeSeconds" : 100.0861335,
      "channel" : 2,
      "noteNumber" : 64,
      "noteName" : "E4",
      "velocity" : 104,
      "durationTicks" : 60,
      "durationSeconds" : 0.12931025000000318
    }, {
      "type" : "note",
      "tick" : 46440,
      "timeSeconds" : 100.0861335,
      "channel" : 2,
      "noteNumber" : 60,
      "noteName" : "C4",
      "velocity" : 122,
      "durationTicks" : 62,
      "durationSeconds" : 0.13362059166666995
    }, {
      "type" : "note",
      "tick" : 46800,
      "timeSeconds" : 100.861995,
      "channel" : 2,
      "noteNumber" : 42,
      "noteName" : "F#2",
      "velocity" : 110,
      "durationTicks" : 55,
      "durationSeconds" : 0.11853439583333625
    }, {
      "type" : "note",
      "tick" : 46800,
      "timeSeconds" : 100.861995,
      "channel" : 2,
      "noteNumber" : 64,
      "noteName" : "E4",
      "velocity" : 104,
      "durationTicks" : 69,
      "durationSeconds" : 0.14870678750000366
    }, {
      "type" : "note",
      "tick" : 46800,
      "timeSeconds" : 100.861995,
      "channel" : 2,
      "noteNumber" : 58,
      "noteName" : "A#3",
      "velocity" : 104,
      "durationTicks" : 69,
      "durationSeconds" : 0.14870678750000366
    }, {
      "type" : "note",
      "tick" : 46800,
      "timeSeconds" : 100.861995,
      "channel" : 2,
      "noteNumber" : 52,
      "noteName" : "E3",
      "velocity" : 122,
      "durationTicks" : 70,
      "durationSeconds" : 0.15086195833333704
    }, {
      "type" : "note",
      "tick" : 46920,
      "timeSeconds" : 101.1206155,
      "channel" : 2,
      "noteNumber" : 42,
      "noteName" : "F#2",
      "velocity" : 110,
      "durationTicks" : 51,
      "durationSeconds" : 0.1099137125000027
    }, {
      "type" : "note",
      "tick" : 46920,
      "timeSeconds" : 101.1206155,
      "channel" : 2,
      "noteNumber" : 64,
      "noteName" : "E4",
      "velocity" : 108,
      "durationTicks" : 61,
      "durationSeconds" : 0.13146542083333657
    }, {
      "type" : "note",
      "tick" : 46920,
      "timeSeconds" : 101.1206155,
      "channel" : 2,
      "noteNumber" : 52,
      "noteName" : "E3",
      "velocity" : 117,
      "durationTicks" : 62,
      "durationSeconds" : 0.13362059166666995
    }, {
      "type" : "note",
      "tick" : 46920,
      "timeSeconds" : 101.1206155,
      "channel" : 2,
      "noteNumber" : 58,
      "noteName" : "A#3",
      "velocity" : 104,
      "durationTicks" : 70,
      "durationSeconds" : 0.15086195833333704
    }, {
      "type" : "note",
      "tick" : 47280,
      "timeSeconds" : 101.896477,
      "channel" : 2,
      "noteNumber" : 53,
      "noteName" : "F3",
      "velocity" : 127,
      "durationTicks" : 46,
      "durationSeconds" : 0.09913785833333577
    }, {
      "type" : "note",
      "tick" : 47280,
      "timeSeconds" : 101.896477,
      "channel" : 2,
      "noteNumber" : 58,
      "noteName" : "A#3",
      "velocity" : 104,
      "durationTicks" : 55,
      "durationSeconds" : 0.11853439583332204
    }, {
      "type" : "note",
      "tick" : 47280,
      "timeSeconds" : 101.896477,
      "channel" : 2,
      "noteNumber" : 43,
      "noteName" : "G2",
      "velocity" : 122,
      "durationTicks" : 55,
      "durationSeconds" : 0.11853439583332204
    }, {
      "type" : "note",
      "tick" : 47280,
      "timeSeconds" : 101.896477,
      "channel" : 2,
      "noteNumber" : 62,
      "noteName" : "D4",
      "velocity" : 113,
      "durationTicks" : 58,
      "durationSeconds" : 0.1249999083333222
    }, {
      "type" : "note",
      "tick" : 47400,
      "timeSeconds" : 102.1550975,
      "channel" : 2,
      "noteNumber" : 53,
      "noteName" : "F3",
      "velocity" : 117,
      "durationTicks" : 61,
      "durationSeconds" : 0.13146542083333657
    }, {
      "type" : "note",
      "tick" : 47400,
      "timeSeconds" : 102.1550975,
      "channel" : 2,
      "noteNumber" : 62,
      "noteName" : "D4",
      "velocity" : 113,
      "durationTicks" : 69,
      "durationSeconds" : 0.14870678750000366
    }, {
      "type" : "note",
      "tick" : 47400,
      "timeSeconds" : 102.1550975,
      "channel" : 2,
      "noteNumber" : 58,
      "noteName" : "A#3",
      "velocity" : 100,
      "durationTicks" : 69,
      "durationSeconds" : 0.14870678750000366
    }, {
      "type" : "note",
      "tick" : 47400,
      "timeSeconds" : 102.1550975,
      "channel" : 2,
      "noteNumber" : 43,
      "noteName" : "G2",
      "velocity" : 117,
      "durationTicks" : 72,
      "durationSeconds" : 0.15517230000000382
    }, {
      "type" : "note",
      "tick" : 47760,
      "timeSeconds" : 102.930959,
      "channel" : 2,
      "noteNumber" : 49,
      "noteName" : "C#3",
      "velocity" : 100,
      "durationTicks" : 45,
      "durationSeconds" : 0.09698268750000238
    }, {
      "type" : "note",
      "tick" : 47760,
      "timeSeconds" : 102.930959,
      "channel" : 2,
      "noteNumber" : 55,
      "noteName" : "G3",
      "velocity" : 117,
      "durationTicks" : 51,
      "durationSeconds" : 0.1099137125000027
    }, {
      "type" : "note",
      "tick" : 47760,
      "timeSeconds" : 102.930959,
      "channel" : 2,
      "noteNumber" : 64,
      "noteName" : "E4",
      "velocity" : 104,
      "durationTicks" : 61,
      "durationSeconds" : 0.13146542083333657
    }, {
      "type" : "note",
      "tick" : 47760,
      "timeSeconds" : 102.930959,
      "channel" : 2,
      "noteNumber" : 58,
      "noteName" : "A#3",
      "velocity" : 104,
      "durationTicks" : 65,
      "durationSeconds" : 0.1400861041666701
    }, {
      "type" : "note",
      "tick" : 47880,
      "timeSeconds" : 103.1895795,
      "channel" : 2,
      "noteNumber" : 55,
      "noteName" : "G3",
      "velocity" : 113,
      "durationTicks" : 53,
      "durationSeconds" : 0.11422405416666948
    }, {
      "type" : "note",
      "tick" : 47880,
      "timeSeconds" : 103.1895795,
      "channel" : 2,
      "noteNumber" : 49,
      "noteName" : "C#3",
      "velocity" : 100,
      "durationTicks" : 58,
      "durationSeconds" : 0.12499990833333641
    }, {
      "type" : "note",
      "tick" : 47880,
      "timeSeconds" : 103.1895795,
      "channel" : 2,
      "noteNumber" : 58,
      "noteName" : "A#3",
      "velocity" : 110,
      "durationTicks" : 71,
      "durationSeconds" : 0.15301712916667043
    }, {
      "type" : "note",
      "tick" : 47880,
      "timeSeconds" : 103.1895795,
      "channel" : 2,
      "noteNumber" : 64,
      "noteName" : "E4",
      "velocity" : 91,
      "durationTicks" : 75,
      "durationSeconds" : 0.16163781250000397
    }, {
      "type" : "note",
      "tick" : 48240,
      "timeSeconds" : 103.965441,
      "channel" : 2,
      "noteNumber" : 50,
      "noteName" : "D3",
      "velocity" : 122,
      "durationTicks" : 51,
      "durationSeconds" : 0.1099137125000027
    }, {
      "type" : "note",
      "tick" : 48240,
      "timeSeconds" : 103.965441,
      "channel" : 2,
      "noteNumber" : 64,
      "noteName" : "E4",
      "velocity" : 108,
      "durationTicks" : 54,
      "durationSeconds" : 0.11637922500000286
    }, {
      "type" : "note",
      "tick" : 48240,
      "timeSeconds" : 103.965441,
      "channel" : 2,
      "noteNumber" : 60,
      "noteName" : "C4",
      "velocity" : 127,
      "durationTicks" : 59,
      "durationSeconds" : 0.1271550791666698
    }, {
      "type" : "note",
      "tick" : 48240,
      "timeSeconds" : 103.965441,
      "channel" : 2,
      "noteNumber" : 53,
      "noteName" : "F3",
      "velocity" : 117,
      "durationTicks" : 61,
      "durationSeconds" : 0.13146542083333657
    }, {
      "type" : "note",
      "tick" : 48360,
      "timeSeconds" : 104.2240615,
      "channel" : 2,
      "noteNumber" : 53,
      "noteName" : "F3",
      "velocity" : 122,
      "durationTicks" : 55,
      "durationSeconds" : 0.11853439583332204
    }, {
      "type" : "note",
      "tick" : 48360,
      "timeSeconds" : 104.2240615,
      "channel" : 2,
      "noteNumber" : 50,
      "noteName" : "D3",
      "velocity" : 127,
      "durationTicks" : 62,
      "durationSeconds" : 0.13362059166665574
    }, {
      "type" : "note",
      "tick" : 48360,
      "timeSeconds" : 104.2240615,
      "channel" : 2,
      "noteNumber" : 60,
      "noteName" : "C4",
      "velocity" : 122,
      "durationTicks" : 67,
      "durationSeconds" : 0.14439644583332267
    }, {
      "type" : "note",
      "tick" : 48360,
      "timeSeconds" : 104.2240615,
      "channel" : 2,
      "noteNumber" : 64,
      "noteName" : "E4",
      "velocity" : 101,
      "durationTicks" : 74,
      "durationSeconds" : 0.15948264166665638
    }, {
      "type" : "note",
      "tick" : 48720,
      "timeSeconds" : 104.999923,
      "channel" : 2,
      "noteNumber" : 57,
      "noteName" : "A3",
      "velocity" : 117,
      "durationTicks" : 50,
      "durationSeconds" : 0.10775854166666932
    }, {
      "type" : "note",
      "tick" : 48720,
      "timeSeconds" : 104.999923,
      "channel" : 2,
      "noteNumber" : 63,
      "noteName" : "D#4",
      "velocity" : 104,
      "durationTicks" : 52,
      "durationSeconds" : 0.11206888333333609
    }, {
      "type" : "note",
      "tick" : 48720,
      "timeSeconds" : 104.999923,
      "channel" : 2,
      "noteNumber" : 67,
      "noteName" : "G4",
      "velocity" : 108,
      "durationTicks" : 60,
      "durationSeconds" : 0.12931025000000318
    }, {
      "type" : "note",
      "tick" : 48720,
      "timeSeconds" : 104.999923,
      "channel" : 2,
      "noteNumber" : 41,
      "noteName" : "F2",
      "velocity" : 122,
      "durationTicks" : 62,
      "durationSeconds" : 0.13362059166666995
    }, {
      "type" : "note",
      "tick" : 48840,
      "timeSeconds" : 105.2585435,
      "channel" : 2,
      "noteNumber" : 57,
      "noteName" : "A3",
      "velocity" : 113,
      "durationTicks" : 63,
      "durationSeconds" : 0.13577576250000334
    }, {
      "type" : "note",
      "tick" : 48840,
      "timeSeconds" : 105.2585435,
      "channel" : 2,
      "noteNumber" : 41,
      "noteName" : "F2",
      "velocity" : 113,
      "durationTicks" : 65,
      "durationSeconds" : 0.1400861041666701
    }, {
      "type" : "note",
      "tick" : 48840,
      "timeSeconds" : 105.2585435,
      "channel" : 2,
      "noteNumber" : 67,
      "noteName" : "G4",
      "velocity" : 122,
      "durationTicks" : 67,
      "durationSeconds" : 0.14439644583333688
    }, {
      "type" : "note",
      "tick" : 48840,
      "timeSeconds" : 105.2585435,
      "channel" : 2,
      "noteNumber" : 63,
      "noteName" : "D#4",
      "velocity" : 110,
      "durationTicks" : 70,
      "durationSeconds" : 0.15086195833333704
    } ]
  }, {
    "index" : 4,
    "name" : "",
    "programChanges" : [ {
      "tick" : 2,
      "channel" : 3,
      "program" : 82
    } ],
    "events" : [ {
      "type" : "meta",
      "tick" : 0,
      "timeSeconds" : 0.0,
      "text" : "track_name: "
    }, {
      "type" : "control_change",
      "tick" : 0,
      "timeSeconds" : 0.0,
      "channel" : 3,
      "controller" : 7,
      "value" : 127
    }, {
      "type" : "control_change",
      "tick" : 0,
      "timeSeconds" : 0.0,
      "channel" : 3,
      "controller" : 10,
      "value" : 64
    }, {
      "type" : "control_change",
      "tick" : 0,
      "timeSeconds" : 0.0,
      "channel" : 3,
      "controller" : 0,
      "value" : 0
    }, {
      "type" : "control_change",
      "tick" : 0,
      "timeSeconds" : 0.0,
      "channel" : 3,
      "controller" : 91,
      "value" : 127
    }, {
      "type" : "control_change",
      "tick" : 0,
      "timeSeconds" : 0.0,
      "channel" : 3,
      "controller" : 1,
      "value" : 0
    }, {
      "type" : "control_change",
      "tick" : 0,
      "timeSeconds" : 0.0,
      "channel" : 3,
      "controller" : 94,
      "value" : 0
    }, {
      "type" : "control_change",
      "tick" : 0,
      "timeSeconds" : 0.0,
      "channel" : 3,
      "controller" : 93,
      "value" : 0
    }, {
      "type" : "control_change",
      "tick" : 0,
      "timeSeconds" : 0.0,
      "channel" : 3,
      "controller" : 11,
      "value" : 127
    }, {
      "type" : "control_change",
      "tick" : 0,
      "timeSeconds" : 0.0,
      "channel" : 3,
      "controller" : 121,
      "value" : 0
    }, {
      "type" : "control_change",
      "tick" : 2,
      "timeSeconds" : 0.004310341666666667,
      "channel" : 3,
      "controller" : 32,
      "value" : 0
    }, {
      "type" : "control_change",
      "tick" : 2,
      "timeSeconds" : 0.004310341666666667,
      "channel" : 3,
      "controller" : 0,
      "value" : 0
    }, {
      "type" : "control_change",
      "tick" : 2,
      "timeSeconds" : 0.004310341666666667,
      "channel" : 3,
      "controller" : 32,
      "value" : 0
    }, {
      "type" : "note",
      "tick" : 16320,
      "timeSeconds" : 35.172388,
      "channel" : 3,
      "noteNumber" : 70,
      "noteName" : "A#4",
      "velocity" : 127,
      "durationTicks" : 237,
      "durationSeconds" : 0.5107754875000055
    }, {
      "type" : "note",
      "tick" : 16560,
      "timeSeconds" : 35.689629,
      "channel" : 3,
      "noteNumber" : 69,
      "noteName" : "A4",
      "velocity" : 104,
      "durationTicks" : 232,
      "durationSeconds" : 0.4999996333333385
    }, {
      "type" : "note",
      "tick" : 16800,
      "timeSeconds" : 36.20687,
      "channel" : 3,
      "noteNumber" : 67,
      "noteName" : "G4",
      "velocity" : 107,
      "durationTicks" : 328,
      "durationSeconds" : 0.7068960333333294
    }, {
      "type" : "note",
      "tick" : 17160,
      "timeSeconds" : 36.9827315,
      "channel" : 3,
      "noteNumber" : 64,
      "noteName" : "E4",
      "velocity" : 85,
      "durationTicks" : 117,
      "durationSeconds" : 0.2521549874999991
    }, {
      "type" : "note",
      "tick" : 17280,
      "timeSeconds" : 37.241352,
      "channel" : 3,
      "noteNumber" : 69,
      "noteName" : "A4",
      "velocity" : 114,
      "durationTicks" : 218,
      "durationSeconds" : 0.469827241666664
    }, {
      "type" : "note",
      "tick" : 17520,
      "timeSeconds" : 37.758593,
      "channel" : 3,
      "noteNumber" : 62,
      "noteName" : "D4",
      "velocity" : 90,
      "durationTicks" : 113,
      "durationSeconds" : 0.24353430416666555
    }, {
      "type" : "note",
      "tick" : 17640,
      "timeSeconds" : 38.0172135,
      "channel" : 3,
      "noteNumber" : 65,
      "noteName" : "F4",
      "velocity" : 98,
      "durationTicks" : 520,
      "durationSeconds" : 1.1206888333333396
    }, {
      "type" : "note",
      "tick" : 18360,
      "timeSeconds" : 39.5689365,
      "channel" : 3,
      "noteNumber" : 70,
      "noteName" : "A#4",
      "velocity" : 113,
      "durationTicks" : 89,
      "durationSeconds" : 0.19181020416666428
    }, {
      "type" : "note",
      "tick" : 18480,
      "timeSeconds" : 39.827557,
      "channel" : 3,
      "noteNumber" : 69,
      "noteName" : "A4",
      "velocity" : 102,
      "durationTicks" : 90,
      "durationSeconds" : 0.19396537500000477
    }, {
      "type" : "note",
      "tick" : 18600,
      "timeSeconds" : 40.0861775,
      "channel" : 3,
      "noteNumber" : 67,
      "noteName" : "G4",
      "velocity" : 90,
      "durationTicks" : 109,
      "durationSeconds" : 0.234913620833332
    }, {
      "type" : "note",
      "tick" : 18720,
      "timeSeconds" : 40.344798,
      "channel" : 3,
      "noteNumber" : 64,
      "noteName" : "E4",
      "velocity" : 90,
      "durationTicks" : 183,
      "durationSeconds" : 0.3943962625000026
    }, {
      "type" : "note",
      "tick" : 18960,
      "timeSeconds" : 40.862039,
      "channel" : 3,
      "noteNumber" : 69,
      "noteName" : "A4",
      "velocity" : 87,
      "durationTicks" : 57,
      "durationSeconds" : 0.12284473749999592
    }, {
      "type" : "note",
      "tick" : 19080,
      "timeSeconds" : 41.1206595,
      "channel" : 3,
      "noteNumber" : 69,
      "noteName" : "A4",
      "velocity" : 103,
      "durationTicks" : 829,
      "durationSeconds" : 1.7866366208333346
    }, {
      "type" : "note",
      "tick" : 20160,
      "timeSeconds" : 43.448244,
      "channel" : 3,
      "noteNumber" : 70,
      "noteName" : "A#4",
      "velocity" : 94,
      "durationTicks" : 200,
      "durationSeconds" : 0.43103416666666305
    }, {
      "type" : "note",
      "tick" : 20400,
      "timeSeconds" : 43.965485,
      "channel" : 3,
      "noteNumber" : 69,
      "noteName" : "A4",
      "velocity" : 97,
      "durationTicks" : 209,
      "durationSeconds" : 0.45043070416666353
    }, {
      "type" : "note",
      "tick" : 20640,
      "timeSeconds" : 44.482726,
      "channel" : 3,
      "noteNumber" : 67,
      "noteName" : "G4",
      "velocity" : 98,
      "durationTicks" : 335,
      "durationSeconds" : 0.7219822291666702
    }, {
      "type" : "note",
      "tick" : 21000,
      "timeSeconds" : 45.2585875,
      "channel" : 3,
      "noteNumber" : 64,
      "noteName" : "E4",
      "velocity" : 84,
      "durationTicks" : 98,
      "durationSeconds" : 0.21120674166667186
    }, {
      "type" : "note",
      "tick" : 21120,
      "timeSeconds" : 45.517208,
      "channel" : 3,
      "noteNumber" : 69,
      "noteName" : "A4",
      "velocity" : 107,
      "durationTicks" : 218,
      "durationSeconds" : 0.4698272416666711
    }, {
      "type" : "note",
      "tick" : 21360,
      "timeSeconds" : 46.034449,
      "channel" : 3,
      "noteNumber" : 62,
      "noteName" : "D4",
      "velocity" : 80,
      "durationTicks" : 102,
      "durationSeconds" : 0.2198274249999983
    }, {
      "type" : "note",
      "tick" : 21480,
      "timeSeconds" : 46.2930695,
      "channel" : 3,
      "noteNumber" : 65,
      "noteName" : "F4",
      "velocity" : 104,
      "durationTicks" : 408,
      "durationSeconds" : 0.8793097000000003
    }, {
      "type" : "note",
      "tick" : 22200,
      "timeSeconds" : 47.8447925,
      "channel" : 3,
      "noteNumber" : 69,
      "noteName" : "A4",
      "velocity" : 101,
      "durationTicks" : 81,
      "durationSeconds" : 0.1745688375000043
    }, {
      "type" : "note",
      "tick" : 22320,
      "timeSeconds" : 48.103413,
      "channel" : 3,
      "noteNumber" : 70,
      "noteName" : "A#4",
      "velocity" : 98,
      "durationTicks" : 77,
      "durationSeconds" : 0.16594815416666364
    }, {
      "type" : "note",
      "tick" : 22440,
      "timeSeconds" : 48.3620335,
      "channel" : 3,
      "noteNumber" : 72,
      "noteName" : "C5",
      "velocity" : 114,
      "durationTicks" : 63,
      "durationSeconds" : 0.13577576249999623
    }, {
      "type" : "note",
      "tick" : 22800,
      "timeSeconds" : 49.137895,
      "channel" : 3,
      "noteNumber" : 65,
      "noteName" : "F4",
      "velocity" : 101,
      "durationTicks" : 82,
      "durationSeconds" : 0.17672400833333057
    }, {
      "type" : "note",
      "tick" : 22920,
      "timeSeconds" : 49.3965155,
      "channel" : 3,
      "noteNumber" : 67,
      "noteName" : "G4",
      "velocity" : 86,
      "durationTicks" : 67,
      "durationSeconds" : 0.14439644583333688
    }, {
      "type" : "note",
      "tick" : 23040,
      "timeSeconds" : 49.655136,
      "channel" : 3,
      "noteNumber" : 69,
      "noteName" : "A4",
      "velocity" : 93,
      "durationTicks" : 89,
      "durationSeconds" : 0.19181020416667138
    }, {
      "type" : "note",
      "tick" : 23160,
      "timeSeconds" : 49.9137565,
      "channel" : 3,
      "noteNumber" : 70,
      "noteName" : "A#4",
      "velocity" : 87,
      "durationTicks" : 67,
      "durationSeconds" : 0.14439644583333688
    }, {
      "type" : "note",
      "tick" : 23280,
      "timeSeconds" : 50.172377,
      "channel" : 3,
      "noteNumber" : 69,
      "noteName" : "A4",
      "velocity" : 96,
      "durationTicks" : 225,
      "durationSeconds" : 0.4849134375000048
    }, {
      "type" : "note",
      "tick" : 23520,
      "timeSeconds" : 50.689618,
      "channel" : 3,
      "noteNumber" : 64,
      "noteName" : "E4",
      "velocity" : 83,
      "durationTicks" : 350,
      "durationSeconds" : 0.7543097916666639
    }, {
      "type" : "note",
      "tick" : 24120,
      "timeSeconds" : 51.9827205,
      "channel" : 3,
      "noteNumber" : 70,
      "noteName" : "A#4",
      "velocity" : 107,
      "durationTicks" : 109,
      "durationSeconds" : 0.234913620833332
    }, {
      "type" : "note",
      "tick" : 24300,
      "timeSeconds" : 52.37065125,
      "channel" : 3,
      "noteNumber" : 69,
      "noteName" : "A4",
      "velocity" : 99,
      "durationTicks" : 98,
      "durationSeconds" : 0.21120674166666475
    }, {
      "type" : "note",
      "tick" : 24480,
      "timeSeconds" : 52.758582,
      "channel" : 3,
      "noteNumber" : 67,
      "noteName" : "G4",
      "velocity" : 102,
      "durationTicks" : 308,
      "durationSeconds" : 0.6637926166666688
    }, {
      "type" : "note",
      "tick" : 24840,
      "timeSeconds" : 53.5344435,
      "channel" : 3,
      "noteNumber" : 64,
      "noteName" : "E4",
      "velocity" : 103,
      "durationTicks" : 81,
      "durationSeconds" : 0.1745688374999972
    }, {
      "type" : "note",
      "tick" : 24960,
      "timeSeconds" : 53.793064,
      "channel" : 3,
      "noteNumber" : 69,
      "noteName" : "A4",
      "velocity" : 114,
      "durationTicks" : 209,
      "durationSeconds" : 0.45043070416666353
    }, {
      "type" : "note",
      "tick" : 25200,
      "timeSeconds" : 54.310305,
      "channel" : 3,
      "noteNumber" : 62,
      "noteName" : "D4",
      "velocity" : 90,
      "durationTicks" : 94,
      "durationSeconds" : 0.2025860583333312
    }, {
      "type" : "note",
      "tick" : 25320,
      "timeSeconds" : 54.5689255,
      "channel" : 3,
      "noteNumber" : 65,
      "noteName" : "F4",
      "velocity" : 98,
      "durationTicks" : 502,
      "durationSeconds" : 1.0818957583333315
    }, {
      "type" : "note",
      "tick" : 26040,
      "timeSeconds" : 56.1206485,
      "channel" : 3,
      "noteNumber" : 70,
      "noteName" : "A#4",
      "velocity" : 113,
      "durationTicks" : 82,
      "durationSeconds" : 0.17672400833333057
    }, {
      "type" : "note",
      "tick" : 26160,
      "timeSeconds" : 56.379269,
      "channel" : 3,
      "noteNumber" : 69,
      "noteName" : "A4",
      "velocity" : 95,
      "durationTicks" : 59,
      "durationSeconds" : 0.1271550791666627
    }, {
      "type" : "note",
      "tick" : 26280,
      "timeSeconds" : 56.6378895,
      "channel" : 3,
      "noteNumber" : 67,
      "noteName" : "G4",
      "velocity" : 98,
      "durationTicks" : 67,
      "durationSeconds" : 0.14439644583333688
    }, {
      "type" : "note",
      "tick" : 26400,
      "timeSeconds" : 56.89651,
      "channel" : 3,
      "noteNumber" : 64,
      "noteName" : "E4",
      "velocity" : 99,
      "durationTicks" : 162,
      "durationSeconds" : 0.3491376750000015
    }, {
      "type" : "note",
      "tick" : 26640,
      "timeSeconds" : 57.413751,
      "channel" : 3,
      "noteNumber" : 69,
      "noteName" : "A4",
      "velocity" : 106,
      "durationTicks" : 42,
      "durationSeconds" : 0.09051717500000223
    }, {
      "type" : "note",
      "tick" : 26760,
      "timeSeconds" : 57.6723715,
      "channel" : 3,
      "noteNumber" : 69,
      "noteName" : "A4",
      "velocity" : 112,
      "durationTicks" : 502,
      "durationSeconds" : 1.0818957583333386
    }, {
      "type" : "note",
      "tick" : 27840,
      "timeSeconds" : 59.999956,
      "channel" : 3,
      "noteNumber" : 70,
      "noteName" : "A#4",
      "velocity" : 104,
      "durationTicks" : 63,
      "durationSeconds" : 0.13577576250000334
    }, {
      "type" : "note",
      "tick" : 27960,
      "timeSeconds" : 60.2585765,
      "channel" : 3,
      "noteNumber" : 69,
      "noteName" : "A4",
      "velocity" : 106,
      "durationTicks" : 206,
      "durationSeconds" : 0.4439651916666705
    }, {
      "type" : "note",
      "tick" : 28200,
      "timeSeconds" : 60.7758175,
      "channel" : 3,
      "noteNumber" : 67,
      "noteName" : "G4",
      "velocity" : 109,
      "durationTicks" : 315,
      "durationSeconds" : 0.6788788124999954
    }, {
      "type" : "note",
      "tick" : 28560,
      "timeSeconds" : 61.551679,
      "channel" : 3,
      "noteNumber" : 64,
      "noteName" : "E4",
      "velocity" : 96,
      "durationTicks" : 91,
      "durationSeconds" : 0.19612054583333105
    }, {
      "type" : "note",
      "tick" : 28680,
      "timeSeconds" : 61.8102995,
      "channel" : 3,
      "noteNumber" : 69,
      "noteName" : "A4",
      "velocity" : 109,
      "durationTicks" : 335,
      "durationSeconds" : 0.7219822291666702
    }, {
      "type" : "note",
      "tick" : 29040,
      "timeSeconds" : 62.586161,
      "channel" : 3,
      "noteNumber" : 62,
      "noteName" : "D4",
      "velocity" : 92,
      "durationTicks" : 109,
      "durationSeconds" : 0.2349136208333391
    }, {
      "type" : "note",
      "tick" : 29160,
      "timeSeconds" : 62.8447815,
      "channel" : 3,
      "noteNumber" : 65,
      "noteName" : "F4",
      "velocity" : 107,
      "durationTicks" : 472,
      "durationSeconds" : 1.01724063333333
    }, {
      "type" : "note",
      "tick" : 29880,
      "timeSeconds" : 64.3965045,
      "channel" : 3,
      "noteNumber" : 65,
      "noteName" : "F4",
      "velocity" : 110,
      "durationTicks" : 82,
      "durationSeconds" : 0.17672400833332347
    }, {
      "type" : "note",
      "tick" : 30000,
      "timeSeconds" : 64.655125,
      "channel" : 3,
      "noteNumber" : 67,
      "noteName" : "G4",
      "velocity" : 95,
      "durationTicks" : 77,
      "durationSeconds" : 0.16594815416667075
    }, {
      "type" : "note",
      "tick" : 30120,
      "timeSeconds" : 64.9137455,
      "channel" : 3,
      "noteNumber" : 69,
      "noteName" : "A4",
      "velocity" : 93,
      "durationTicks" : 61,
      "durationSeconds" : 0.13146542083332236
    }, {
      "type" : "note",
      "tick" : 30240,
      "timeSeconds" : 65.172366,
      "channel" : 3,
      "noteNumber" : 72,
      "noteName" : "C5",
      "velocity" : 117,
      "durationTicks" : 200,
      "durationSeconds" : 0.43103416666666305
    }, {
      "type" : "note",
      "tick" : 30480,
      "timeSeconds" : 65.689607,
      "channel" : 3,
      "noteNumber" : 65,
      "noteName" : "F4",
      "velocity" : 104,
      "durationTicks" : 205,
      "durationSeconds" : 0.4418100208333442
    }, {
      "type" : "note",
      "tick" : 30720,
      "timeSeconds" : 66.206848,
      "channel" : 3,
      "noteNumber" : 74,
      "noteName" : "D5",
      "velocity" : 106,
      "durationTicks" : 206,
      "durationSeconds" : 0.4439651916666776
    }, {
      "type" : "note",
      "tick" : 30960,
      "timeSeconds" : 66.724089,
      "channel" : 3,
      "noteNumber" : 67,
      "noteName" : "G4",
      "velocity" : 114,
      "durationTicks" : 207,
      "durationSeconds" : 0.44612036249999676
    }, {
      "type" : "note",
      "tick" : 31200,
      "timeSeconds" : 67.24133,
      "channel" : 3,
      "noteNumber" : 70,
      "noteName" : "A#4",
      "velocity" : 110,
      "durationTicks" : 425,
      "durationSeconds" : 0.9159476041666608
    }, {
      "type" : "note",
      "tick" : 31920,
      "timeSeconds" : 68.793053,
      "channel" : 3,
      "noteNumber" : 69,
      "noteName" : "A4",
      "velocity" : 119,
      "durationTicks" : 196,
      "durationSeconds" : 0.4224134833333295
    }, {
      "type" : "note",
      "tick" : 32160,
      "timeSeconds" : 69.310294,
      "channel" : 3,
      "noteNumber" : 67,
      "noteName" : "G4",
      "velocity" : 117,
      "durationTicks" : 175,
      "durationSeconds" : 0.3771548958333284
    }, {
      "type" : "note",
      "tick" : 32400,
      "timeSeconds" : 69.827535,
      "channel" : 3,
      "noteNumber" : 67,
      "noteName" : "G4",
      "velocity" : 110,
      "durationTicks" : 85,
      "durationSeconds" : 0.18318952083333784
    }, {
      "type" : "note",
      "tick" : 32520,
      "timeSeconds" : 70.0861555,
      "channel" : 3,
      "noteNumber" : 64,
      "noteName" : "E4",
      "velocity" : 92,
      "durationTicks" : 90,
      "durationSeconds" : 0.19396537499999056
    }, {
      "type" : "note",
      "tick" : 32640,
      "timeSeconds" : 70.344776,
      "channel" : 3,
      "noteNumber" : 69,
      "noteName" : "A4",
      "velocity" : 116,
      "durationTicks" : 103,
      "durationSeconds" : 0.2219825958333388
    }, {
      "type" : "note",
      "tick" : 32760,
      "timeSeconds" : 70.6033965,
      "channel" : 3,
      "noteNumber" : 62,
      "noteName" : "D4",
      "velocity" : 106,
      "durationTicks" : 229,
      "durationSeconds" : 0.49353412083333126
    }, {
      "type" : "note",
      "tick" : 33000,
      "timeSeconds" : 71.1206375,
      "channel" : 3,
      "noteNumber" : 65,
      "noteName" : "F4",
      "velocity" : 114,
      "durationTicks" : 536,
      "durationSeconds" : 1.1551715666666666
    }, {
      "type" : "note",
      "tick" : 33720,
      "timeSeconds" : 72.6723605,
      "channel" : 3,
      "noteNumber" : 70,
      "noteName" : "A#4",
      "velocity" : 119,
      "durationTicks" : 67,
      "durationSeconds" : 0.14439644583333688
    }, {
      "type" : "note",
      "tick" : 33840,
      "timeSeconds" : 72.930981,
      "channel" : 3,
      "noteNumber" : 69,
      "noteName" : "A4",
      "velocity" : 114,
      "durationTicks" : 66,
      "durationSeconds" : 0.1422412750000035
    }, {
      "type" : "note",
      "tick" : 33960,
      "timeSeconds" : 73.1896015,
      "channel" : 3,
      "noteNumber" : 67,
      "noteName" : "G4",
      "velocity" : 102,
      "durationTicks" : 88,
      "durationSeconds" : 0.189655033333338
    }, {
      "type" : "note",
      "tick" : 34080,
      "timeSeconds" : 73.448222,
      "channel" : 3,
      "noteNumber" : 64,
      "noteName" : "E4",
      "velocity" : 92,
      "durationTicks" : 73,
      "durationSeconds" : 0.1573274708333372
    }, {
      "type" : "note",
      "tick" : 34200,
      "timeSeconds" : 73.7068425,
      "channel" : 3,
      "noteNumber" : 69,
      "noteName" : "A4",
      "velocity" : 116,
      "durationTicks" : 64,
      "durationSeconds" : 0.13793093333333672
    }, {
      "type" : "note",
      "tick" : 34320,
      "timeSeconds" : 73.965463,
      "channel" : 3,
      "noteNumber" : 69,
      "noteName" : "A4",
      "velocity" : 127,
      "durationTicks" : 964,
      "durationSeconds" : 2.0775846833333276
    }, {
      "type" : "note",
      "tick" : 35520,
      "timeSeconds" : 76.551668,
      "channel" : 3,
      "noteNumber" : 70,
      "noteName" : "A#4",
      "velocity" : 119,
      "durationTicks" : 143,
      "durationSeconds" : 0.30818942916666003
    }, {
      "type" : "note",
      "tick" : 35640,
      "timeSeconds" : 76.8102885,
      "channel" : 3,
      "noteNumber" : 69,
      "noteName" : "A4",
      "velocity" : 110,
      "durationTicks" : 234,
      "durationSeconds" : 0.5043099749999982
    }, {
      "type" : "note",
      "tick" : 35880,
      "timeSeconds" : 77.3275295,
      "channel" : 3,
      "noteNumber" : 67,
      "noteName" : "G4",
      "velocity" : 109,
      "durationTicks" : 322,
      "durationSeconds" : 0.6939650083333362
    }, {
      "type" : "note",
      "tick" : 36240,
      "timeSeconds" : 78.103391,
      "channel" : 3,
      "noteNumber" : 64,
      "noteName" : "E4",
      "velocity" : 95,
      "durationTicks" : 93,
      "durationSeconds" : 0.20043088750000493
    }, {
      "type" : "note",
      "tick" : 36360,
      "timeSeconds" : 78.3620115,
      "channel" : 3,
      "noteNumber" : 69,
      "noteName" : "A4",
      "velocity" : 109,
      "durationTicks" : 329,
      "durationSeconds" : 0.7090512041666699
    }, {
      "type" : "note",
      "tick" : 36660,
      "timeSeconds" : 79.00856275,
      "channel" : 3,
      "noteNumber" : 62,
      "noteName" : "D4",
      "velocity" : 95,
      "durationTicks" : 125,
      "durationSeconds" : 0.2693963541666733
    }, {
      "type" : "note",
      "tick" : 36840,
      "timeSeconds" : 79.3964935,
      "channel" : 3,
      "noteNumber" : 65,
      "noteName" : "F4",
      "velocity" : 110,
      "durationTicks" : 459,
      "durationSeconds" : 0.9892234124999959
    }, {
      "type" : "note",
      "tick" : 37440,
      "timeSeconds" : 80.689596,
      "channel" : 3,
      "noteNumber" : 62,
      "noteName" : "D4",
      "velocity" : 101,
      "durationTicks" : 65,
      "durationSeconds" : 0.1400861041666701
    }, {
      "type" : "note",
      "tick" : 37560,
      "timeSeconds" : 80.9482165,
      "channel" : 3,
      "noteNumber" : 67,
      "noteName" : "G4",
      "velocity" : 82,
      "durationTicks" : 25,
      "durationSeconds" : 0.05387927083333466
    }, {
      "type" : "note",
      "tick" : 37560,
      "timeSeconds" : 80.9482165,
      "channel" : 3,
      "noteNumber" : 65,
      "noteName" : "F4",
      "velocity" : 82,
      "durationTicks" : 41,
      "durationSeconds" : 0.08836200416666884
    }, {
      "type" : "note",
      "tick" : 37680,
      "timeSeconds" : 81.206837,
      "channel" : 3,
      "noteNumber" : 58,
      "noteName" : "A#3",
      "velocity" : 81,
      "durationTicks" : 36,
      "durationSeconds" : 0.07758615000000191
    }, {
      "type" : "note",
      "tick" : 37800,
      "timeSeconds" : 81.4654575,
      "channel" : 3,
      "noteNumber" : 62,
      "noteName" : "D4",
      "velocity" : 83,
      "durationTicks" : 67,
      "durationSeconds" : 0.14439644583333688
    }, {
      "type" : "note",
      "tick" : 37920,
      "timeSeconds" : 81.724078,
      "channel" : 3,
      "noteNumber" : 65,
      "noteName" : "F4",
      "velocity" : 106,
      "durationTicks" : 52,
      "durationSeconds" : 0.11206888333332188
    }, {
      "type" : "note",
      "tick" : 38160,
      "timeSeconds" : 82.241319,
      "channel" : 3,
      "noteNumber" : 65,
      "noteName" : "F4",
      "velocity" : 91,
      "durationTicks" : 61,
      "durationSeconds" : 0.13146542083332236
    }, {
      "type" : "note",
      "tick" : 38280,
      "timeSeconds" : 82.4999395,
      "channel" : 3,
      "noteNumber" : 67,
      "noteName" : "G4",
      "velocity" : 78,
      "durationTicks" : 53,
      "durationSeconds" : 0.11422405416666948
    }, {
      "type" : "note",
      "tick" : 38400,
      "timeSeconds" : 82.75856,
      "channel" : 3,
      "noteNumber" : 69,
      "noteName" : "A4",
      "velocity" : 91,
      "durationTicks" : 67,
      "durationSeconds" : 0.14439644583333688
    }, {
      "type" : "note",
      "tick" : 38520,
      "timeSeconds" : 83.0171805,
      "channel" : 3,
      "noteNumber" : 70,
      "noteName" : "A#4",
      "velocity" : 84,
      "durationTicks" : 52,
      "durationSeconds" : 0.11206888333333609
    }, {
      "type" : "note",
      "tick" : 38640,
      "timeSeconds" : 83.275801,
      "channel" : 3,
      "noteNumber" : 69,
      "noteName" : "A4",
      "velocity" : 103,
      "durationTicks" : 97,
      "durationSeconds" : 0.20905157083333847
    }, {
      "type" : "note",
      "tick" : 38760,
      "timeSeconds" : 83.5344215,
      "channel" : 3,
      "noteNumber" : 67,
      "noteName" : "G4",
      "velocity" : 79,
      "durationTicks" : 31,
      "durationSeconds" : 0.06681029583333498
    }, {
      "type" : "note",
      "tick" : 38820,
      "timeSeconds" : 83.66373175,
      "channel" : 3,
      "noteNumber" : 65,
      "noteName" : "F4",
      "velocity" : 94,
      "durationTicks" : 68,
      "durationSeconds" : 0.14655161666667027
    }, {
      "type" : "note",
      "tick" : 39000,
      "timeSeconds" : 84.0516625,
      "channel" : 3,
      "noteNumber" : 69,
      "noteName" : "A4",
      "velocity" : 89,
      "durationTicks" : 53,
      "durationSeconds" : 0.11422405416665526
    }, {
      "type" : "note",
      "tick" : 39120,
      "timeSeconds" : 84.310283,
      "channel" : 3,
      "noteNumber" : 62,
      "noteName" : "D4",
      "velocity" : 88,
      "durationTicks" : 71,
      "durationSeconds" : 0.15301712916667043
    }, {
      "type" : "note",
      "tick" : 39180,
      "timeSeconds" : 84.43959325,
      "channel" : 3,
      "noteNumber" : 65,
      "noteName" : "F4",
      "velocity" : 83,
      "durationTicks" : 53,
      "durationSeconds" : 0.11422405416666948
    }, {
      "type" : "note",
      "tick" : 39360,
      "timeSeconds" : 84.827524,
      "channel" : 3,
      "noteNumber" : 72,
      "noteName" : "C5",
      "velocity" : 110,
      "durationTicks" : 199,
      "durationSeconds" : 0.42887899583332967
    }, {
      "type" : "note",
      "tick" : 39600,
      "timeSeconds" : 85.344765,
      "channel" : 3,
      "noteNumber" : 69,
      "noteName" : "A4",
      "velocity" : 97,
      "durationTicks" : 61,
      "durationSeconds" : 0.13146542083333657
    }, {
      "type" : "note",
      "tick" : 39720,
      "timeSeconds" : 85.6033855,
      "channel" : 3,
      "noteNumber" : 72,
      "noteName" : "C5",
      "velocity" : 107,
      "durationTicks" : 54,
      "durationSeconds" : 0.11637922500000286
    }, {
      "type" : "note",
      "tick" : 39840,
      "timeSeconds" : 85.862006,
      "channel" : 3,
      "noteNumber" : 74,
      "noteName" : "D5",
      "velocity" : 103,
      "durationTicks" : 52,
      "durationSeconds" : 0.11206888333333609
    }, {
      "type" : "note",
      "tick" : 39960,
      "timeSeconds" : 86.1206265,
      "channel" : 3,
      "noteNumber" : 67,
      "noteName" : "G4",
      "velocity" : 101,
      "durationTicks" : 314,
      "durationSeconds" : 0.6767236416666691
    }, {
      "type" : "note",
      "tick" : 40320,
      "timeSeconds" : 86.896488,
      "channel" : 3,
      "noteNumber" : 62,
      "noteName" : "D4",
      "velocity" : 103,
      "durationTicks" : 84,
      "durationSeconds" : 0.18103434999999024
    }, {
      "type" : "note",
      "tick" : 40440,
      "timeSeconds" : 87.1551085,
      "channel" : 3,
      "noteNumber" : 65,
      "noteName" : "F4",
      "velocity" : 94,
      "durationTicks" : 60,
      "durationSeconds" : 0.12931025000000318
    }, {
      "type" : "note",
      "tick" : 40560,
      "timeSeconds" : 87.413729,
      "channel" : 3,
      "noteNumber" : 69,
      "noteName" : "A4",
      "velocity" : 106,
      "durationTicks" : 62,
      "durationSeconds" : 0.13362059166666995
    }, {
      "type" : "note",
      "tick" : 40680,
      "timeSeconds" : 87.6723495,
      "channel" : 3,
      "noteNumber" : 62,
      "noteName" : "D4",
      "velocity" : 89,
      "durationTicks" : 66,
      "durationSeconds" : 0.1422412750000035
    }, {
      "type" : "note",
      "tick" : 40800,
      "timeSeconds" : 87.93097,
      "channel" : 3,
      "noteNumber" : 65,
      "noteName" : "F4",
      "velocity" : 103,
      "durationTicks" : 166,
      "durationSeconds" : 0.3577583583333279
    }, {
      "type" : "note",
      "tick" : 41040,
      "timeSeconds" : 88.448211,
      "channel" : 3,
      "noteNumber" : 69,
      "noteName" : "A4",
      "velocity" : 107,
      "durationTicks" : 47,
      "durationSeconds" : 0.10129302916666916
    }, {
      "type" : "note",
      "tick" : 41160,
      "timeSeconds" : 88.7068315,
      "channel" : 3,
      "noteNumber" : 65,
      "noteName" : "F4",
      "velocity" : 103,
      "durationTicks" : 226,
      "durationSeconds" : 0.4870686083333311
    }, {
      "type" : "note",
      "tick" : 41520,
      "timeSeconds" : 89.482693,
      "channel" : 3,
      "noteNumber" : 69,
      "noteName" : "A4",
      "velocity" : 107,
      "durationTicks" : 56,
      "durationSeconds" : 0.12068956666666963
    }, {
      "type" : "note",
      "tick" : 41640,
      "timeSeconds" : 89.7413135,
      "channel" : 3,
      "noteNumber" : 65,
      "noteName" : "F4",
      "velocity" : 103,
      "durationTicks" : 222,
      "durationSeconds" : 0.47844792499999755
    }, {
      "type" : "note",
      "tick" : 42000,
      "timeSeconds" : 90.517175,
      "channel" : 3,
      "noteNumber" : 67,
      "noteName" : "G4",
      "velocity" : 106,
      "durationTicks" : 52,
      "durationSeconds" : 0.11206888333333609
    }, {
      "type" : "note",
      "tick" : 42120,
      "timeSeconds" : 90.7757955,
      "channel" : 3,
      "noteNumber" : 62,
      "noteName" : "D4",
      "velocity" : 93,
      "durationTicks" : 444,
      "durationSeconds" : 0.9568958499999951
    }, {
      "type" : "note",
      "tick" : 42720,
      "timeSeconds" : 92.068898,
      "channel" : 3,
      "noteNumber" : 62,
      "noteName" : "D4",
      "velocity" : 109,
      "durationTicks" : 61,
      "durationSeconds" : 0.13146542083332236
    }, {
      "type" : "note",
      "tick" : 42840,
      "timeSeconds" : 92.3275185,
      "channel" : 3,
      "noteNumber" : 65,
      "noteName" : "F4",
      "velocity" : 104,
      "durationTicks" : 42,
      "durationSeconds" : 0.09051717500000223
    }, {
      "type" : "note",
      "tick" : 42960,
      "timeSeconds" : 92.586139,
      "channel" : 3,
      "noteNumber" : 62,
      "noteName" : "D4",
      "velocity" : 94,
      "durationTicks" : 77,
      "durationSeconds" : 0.16594815416667075
    }, {
      "type" : "note",
      "tick" : 43080,
      "timeSeconds" : 92.8447595,
      "channel" : 3,
      "noteNumber" : 65,
      "noteName" : "F4",
      "velocity" : 94,
      "durationTicks" : 77,
      "durationSeconds" : 0.16594815416667075
    }, {
      "type" : "note",
      "tick" : 43200,
      "timeSeconds" : 93.10338,
      "channel" : 3,
      "noteNumber" : 72,
      "noteName" : "C5",
      "velocity" : 110,
      "durationTicks" : 166,
      "durationSeconds" : 0.3577583583333279
    }, {
      "type" : "note",
      "tick" : 43440,
      "timeSeconds" : 93.620621,
      "channel" : 3,
      "noteNumber" : 69,
      "noteName" : "A4",
      "velocity" : 110,
      "durationTicks" : 54,
      "durationSeconds" : 0.11637922500000286
    }, {
      "type" : "note",
      "tick" : 43560,
      "timeSeconds" : 93.8792415,
      "channel" : 3,
      "noteNumber" : 72,
      "noteName" : "C5",
      "velocity" : 106,
      "durationTicks" : 58,
      "durationSeconds" : 0.1249999083333222
    }, {
      "type" : "note",
      "tick" : 43680,
      "timeSeconds" : 94.137862,
      "channel" : 3,
      "noteNumber" : 74,
      "noteName" : "D5",
      "velocity" : 103,
      "durationTicks" : 48,
      "durationSeconds" : 0.10344820000000254
    }, {
      "type" : "note",
      "tick" : 43800,
      "timeSeconds" : 94.3964825,
      "channel" : 3,
      "noteNumber" : 67,
      "noteName" : "G4",
      "velocity" : 110,
      "durationTicks" : 285,
      "durationSeconds" : 0.6142236875000009
    }, {
      "type" : "note",
      "tick" : 44160,
      "timeSeconds" : 95.172344,
      "channel" : 3,
      "noteNumber" : 62,
      "noteName" : "D4",
      "velocity" : 102,
      "durationTicks" : 65,
      "durationSeconds" : 0.1400861041666701
    }, {
      "type" : "note",
      "tick" : 44280,
      "timeSeconds" : 95.4309645,
      "channel" : 3,
      "noteNumber" : 65,
      "noteName" : "F4",
      "velocity" : 97,
      "durationTicks" : 50,
      "durationSeconds" : 0.10775854166666932
    }, {
      "type" : "note",
      "tick" : 44400,
      "timeSeconds" : 95.689585,
      "channel" : 3,
      "noteNumber" : 69,
      "noteName" : "A4",
      "velocity" : 110,
      "durationTicks" : 51,
      "durationSeconds" : 0.1099137125000027
    }, {
      "type" : "note",
      "tick" : 44520,
      "timeSeconds" : 95.9482055,
      "channel" : 3,
      "noteNumber" : 62,
      "noteName" : "D4",
      "velocity" : 94,
      "durationTicks" : 43,
      "durationSeconds" : 0.09267234583333561
    }, {
      "type" : "note",
      "tick" : 44640,
      "timeSeconds" : 96.206826,
      "channel" : 3,
      "noteNumber" : 65,
      "noteName" : "F4",
      "velocity" : 106,
      "durationTicks" : 159,
      "durationSeconds" : 0.3426721624999942
    }, {
      "type" : "note",
      "tick" : 44880,
      "timeSeconds" : 96.724067,
      "channel" : 3,
      "noteNumber" : 69,
      "noteName" : "A4",
      "velocity" : 109,
      "durationTicks" : 67,
      "durationSeconds" : 0.14439644583332267
    }, {
      "type" : "note",
      "tick" : 45000,
      "timeSeconds" : 96.9826875,
      "channel" : 3,
      "noteNumber" : 65,
      "noteName" : "F4",
      "velocity" : 103,
      "durationTicks" : 244,
      "durationSeconds" : 0.525861683333332
    }, {
      "type" : "note",
      "tick" : 45360,
      "timeSeconds" : 97.758549,
      "channel" : 3,
      "noteNumber" : 69,
      "noteName" : "A4",
      "velocity" : 117,
      "durationTicks" : 49,
      "durationSeconds" : 0.10560337083333593
    }, {
      "type" : "note",
      "tick" : 45480,
      "timeSeconds" : 98.0171695,
      "channel" : 3,
      "noteNumber" : 65,
      "noteName" : "F4",
      "velocity" : 104,
      "durationTicks" : 237,
      "durationSeconds" : 0.5107754875000126
    }, {
      "type" : "note",
      "tick" : 45840,
      "timeSeconds" : 98.793031,
      "channel" : 3,
      "noteNumber" : 67,
      "noteName" : "G4",
      "velocity" : 116,
      "durationTicks" : 45,
      "durationSeconds" : 0.09698268750000238
    }, {
      "type" : "note",
      "tick" : 45960,
      "timeSeconds" : 99.0516515,
      "channel" : 3,
      "noteNumber" : 62,
      "noteName" : "D4",
      "velocity" : 114,
      "durationTicks" : 388,
      "durationSeconds" : 0.8362062833333255
    }, {
      "type" : "note",
      "tick" : 46440,
      "timeSeconds" : 100.0861335,
      "channel" : 3,
      "noteNumber" : 62,
      "noteName" : "D4",
      "velocity" : 63,
      "durationTicks" : 29,
      "durationSeconds" : 0.062499954166668203
    }, {
      "type" : "note",
      "tick" : 46560,
      "timeSeconds" : 100.344754,
      "channel" : 3,
      "noteNumber" : 62,
      "noteName" : "D4",
      "velocity" : 102,
      "durationTicks" : 73,
      "durationSeconds" : 0.1573274708333372
    }, {
      "type" : "note",
      "tick" : 46680,
      "timeSeconds" : 100.6033745,
      "channel" : 3,
      "noteNumber" : 65,
      "noteName" : "F4",
      "velocity" : 98,
      "durationTicks" : 34,
      "durationSeconds" : 0.07327580833333514
    }, {
      "type" : "note",
      "tick" : 46800,
      "timeSeconds" : 100.861995,
      "channel" : 3,
      "noteNumber" : 62,
      "noteName" : "D4",
      "velocity" : 97,
      "durationTicks" : 52,
      "durationSeconds" : 0.11206888333333609
    }, {
      "type" : "note",
      "tick" : 46920,
      "timeSeconds" : 101.1206155,
      "channel" : 3,
      "noteNumber" : 65,
      "noteName" : "F4",
      "velocity" : 83,
      "durationTicks" : 63,
      "durationSeconds" : 0.13577576250000334
    }, {
      "type" : "note",
      "tick" : 47040,
      "timeSeconds" : 101.379236,
      "channel" : 3,
      "noteNumber" : 72,
      "noteName" : "C5",
      "velocity" : 119,
      "durationTicks" : 166,
      "durationSeconds" : 0.3577583583333279
    }, {
      "type" : "note",
      "tick" : 47280,
      "timeSeconds" : 101.896477,
      "channel" : 3,
      "noteNumber" : 69,
      "noteName" : "A4",
      "velocity" : 103,
      "durationTicks" : 45,
      "durationSeconds" : 0.09698268750000238
    }, {
      "type" : "note",
      "tick" : 47400,
      "timeSeconds" : 102.1550975,
      "channel" : 3,
      "noteNumber" : 72,
      "noteName" : "C5",
      "velocity" : 109,
      "durationTicks" : 49,
      "durationSeconds" : 0.10560337083333593
    }, {
      "type" : "note",
      "tick" : 47520,
      "timeSeconds" : 102.413718,
      "channel" : 3,
      "noteNumber" : 74,
      "noteName" : "D5",
      "velocity" : 109,
      "durationTicks" : 48,
      "durationSeconds" : 0.10344820000000254
    }, {
      "type" : "note",
      "tick" : 47640,
      "timeSeconds" : 102.6723385,
      "channel" : 3,
      "noteNumber" : 67,
      "noteName" : "G4",
      "velocity" : 109,
      "durationTicks" : 296,
      "durationSeconds" : 0.6379305666666681
    }, {
      "type" : "note",
      "tick" : 48000,
      "timeSeconds" : 103.4482,
      "channel" : 3,
      "noteNumber" : 62,
      "noteName" : "D4",
      "velocity" : 99,
      "durationTicks" : 57,
      "durationSeconds" : 0.12284473750000302
    }, {
      "type" : "note",
      "tick" : 48120,
      "timeSeconds" : 103.7068205,
      "channel" : 3,
      "noteNumber" : 65,
      "noteName" : "F4",
      "velocity" : 102,
      "durationTicks" : 40,
      "durationSeconds" : 0.08620683333332124
    }, {
      "type" : "note",
      "tick" : 48240,
      "timeSeconds" : 103.965441,
      "channel" : 3,
      "noteNumber" : 69,
      "noteName" : "A4",
      "velocity" : 114,
      "durationTicks" : 44,
      "durationSeconds" : 0.094827516666669
    }, {
      "type" : "note",
      "tick" : 48360,
      "timeSeconds" : 104.2240615,
      "channel" : 3,
      "noteNumber" : 62,
      "noteName" : "D4",
      "velocity" : 90,
      "durationTicks" : 35,
      "durationSeconds" : 0.07543097916666852
    }, {
      "type" : "note",
      "tick" : 48480,
      "timeSeconds" : 104.482682,
      "channel" : 3,
      "noteNumber" : 65,
      "noteName" : "F4",
      "velocity" : 112,
      "durationTicks" : 155,
      "durationSeconds" : 0.3340514791666749
    }, {
      "type" : "note",
      "tick" : 48720,
      "timeSeconds" : 104.999923,
      "channel" : 3,
      "noteNumber" : 69,
      "noteName" : "A4",
      "velocity" : 112,
      "durationTicks" : 41,
      "durationSeconds" : 0.08836200416666884
    }, {
      "type" : "note",
      "tick" : 48840,
      "timeSeconds" : 105.2585435,
      "channel" : 3,
      "noteNumber" : 65,
      "noteName" : "F4",
      "velocity" : 109,
      "durationTicks" : 120,
      "durationSeconds" : 0.25862049999999215
    } ]
  }, {
    "index" : 5,
    "name" : "",
    "programChanges" : [ {
      "tick" : 2,
      "channel" : 4,
      "program" : 48
    } ],
    "events" : [ {
      "type" : "meta",
      "tick" : 0,
      "timeSeconds" : 0.0,
      "text" : "track_name: "
    }, {
      "type" : "control_change",
      "tick" : 0,
      "timeSeconds" : 0.0,
      "channel" : 4,
      "controller" : 7,
      "value" : 108
    }, {
      "type" : "control_change",
      "tick" : 0,
      "timeSeconds" : 0.0,
      "channel" : 4,
      "controller" : 10,
      "value" : 64
    }, {
      "type" : "control_change",
      "tick" : 0,
      "timeSeconds" : 0.0,
      "channel" : 4,
      "controller" : 0,
      "value" : 0
    }, {
      "type" : "control_change",
      "tick" : 0,
      "timeSeconds" : 0.0,
      "channel" : 4,
      "controller" : 91,
      "value" : 122
    }, {
      "type" : "control_change",
      "tick" : 0,
      "timeSeconds" : 0.0,
      "channel" : 4,
      "controller" : 121,
      "value" : 0
    }, {
      "type" : "control_change",
      "tick" : 0,
      "timeSeconds" : 0.0,
      "channel" : 4,
      "controller" : 93,
      "value" : 0
    }, {
      "type" : "control_change",
      "tick" : 0,
      "timeSeconds" : 0.0,
      "channel" : 4,
      "controller" : 1,
      "value" : 0
    }, {
      "type" : "control_change",
      "tick" : 0,
      "timeSeconds" : 0.0,
      "channel" : 4,
      "controller" : 94,
      "value" : 0
    }, {
      "type" : "control_change",
      "tick" : 0,
      "timeSeconds" : 0.0,
      "channel" : 4,
      "controller" : 11,
      "value" : 127
    }, {
      "type" : "control_change",
      "tick" : 2,
      "timeSeconds" : 0.004310341666666667,
      "channel" : 4,
      "controller" : 32,
      "value" : 0
    }, {
      "type" : "control_change",
      "tick" : 2,
      "timeSeconds" : 0.004310341666666667,
      "channel" : 4,
      "controller" : 0,
      "value" : 0
    }, {
      "type" : "control_change",
      "tick" : 2,
      "timeSeconds" : 0.004310341666666667,
      "channel" : 4,
      "controller" : 32,
      "value" : 0
    } ]
  }, {
    "index" : 6,
    "name" : "",
    "programChanges" : [ {
      "tick" : 0,
      "channel" : 5,
      "program" : 26
    } ],
    "events" : [ {
      "type" : "meta",
      "tick" : 0,
      "timeSeconds" : 0.0,
      "text" : "track_name: "
    }, {
      "type" : "control_change",
      "tick" : 0,
      "timeSeconds" : 0.0,
      "channel" : 5,
      "controller" : 7,
      "value" : 48
    }, {
      "type" : "control_change",
      "tick" : 0,
      "timeSeconds" : 0.0,
      "channel" : 5,
      "controller" : 10,
      "value" : 122
    }, {
      "type" : "control_change",
      "tick" : 0,
      "timeSeconds" : 0.0,
      "channel" : 5,
      "controller" : 91,
      "value" : 68
    }, {
      "type" : "control_change",
      "tick" : 0,
      "timeSeconds" : 0.0,
      "channel" : 5,
      "controller" : 93,
      "value" : 0
    }, {
      "type" : "control_change",
      "tick" : 24,
      "timeSeconds" : 0.0517241,
      "channel" : 5,
      "controller" : 94,
      "value" : 0
    }, {
      "type" : "control_change",
      "tick" : 24,
      "timeSeconds" : 0.0517241,
      "channel" : 5,
      "controller" : 1,
      "value" : 0
    }, {
      "type" : "control_change",
      "tick" : 24,
      "timeSeconds" : 0.0517241,
      "channel" : 5,
      "controller" : 11,
      "value" : 127
    }, {
      "type" : "control_change",
      "tick" : 24,
      "timeSeconds" : 0.0517241,
      "channel" : 5,
      "controller" : 121,
      "value" : 0
    }, {
      "type" : "note",
      "tick" : 1224,
      "timeSeconds" : 2.6379291,
      "channel" : 5,
      "noteNumber" : 65,
      "noteName" : "F4",
      "velocity" : 88,
      "durationTicks" : 70,
      "durationSeconds" : 0.1508619583333335
    }, {
      "type" : "note",
      "tick" : 1224,
      "timeSeconds" : 2.6379291,
      "channel" : 5,
      "noteNumber" : 62,
      "noteName" : "D4",
      "velocity" : 101,
      "durationTicks" : 77,
      "durationSeconds" : 0.16594815416666675
    }, {
      "type" : "note",
      "tick" : 1224,
      "timeSeconds" : 2.6379291,
      "channel" : 5,
      "noteNumber" : 43,
      "noteName" : "G2",
      "velocity" : 113,
      "durationTicks" : 78,
      "durationSeconds" : 0.16810332500000014
    }, {
      "type" : "note",
      "tick" : 1224,
      "timeSeconds" : 2.6379291,
      "channel" : 5,
      "noteNumber" : 53,
      "noteName" : "F3",
      "velocity" : 97,
      "durationTicks" : 78,
      "durationSeconds" : 0.16810332500000014
    }, {
      "type" : "note",
      "tick" : 1224,
      "timeSeconds" : 2.6379291,
      "channel" : 5,
      "noteNumber" : 58,
      "noteName" : "A#3",
      "velocity" : 73,
      "durationTicks" : 80,
      "durationSeconds" : 0.17241366666666647
    }, {
      "type" : "note",
      "tick" : 1344,
      "timeSeconds" : 2.8965496,
      "channel" : 5,
      "noteNumber" : 43,
      "noteName" : "G2",
      "velocity" : 108,
      "durationTicks" : 61,
      "durationSeconds" : 0.131465420833333
    }, {
      "type" : "note",
      "tick" : 1344,
      "timeSeconds" : 2.8965496,
      "channel" : 5,
      "noteNumber" : 65,
      "noteName" : "F4",
      "velocity" : 86,
      "durationTicks" : 65,
      "durationSeconds" : 0.14008610416666656
    }, {
      "type" : "note",
      "tick" : 1344,
      "timeSeconds" : 2.8965496,
      "channel" : 5,
      "noteNumber" : 62,
      "noteName" : "D4",
      "velocity" : 97,
      "durationTicks" : 71,
      "durationSeconds" : 0.15301712916666643
    }, {
      "type" : "note",
      "tick" : 1344,
      "timeSeconds" : 2.8965496,
      "channel" : 5,
      "noteNumber" : 58,
      "noteName" : "A#3",
      "velocity" : 83,
      "durationTicks" : 76,
      "durationSeconds" : 0.16379298333333336
    }, {
      "type" : "note",
      "tick" : 1344,
      "timeSeconds" : 2.8965496,
      "channel" : 5,
      "noteNumber" : 53,
      "noteName" : "F3",
      "velocity" : 104,
      "durationTicks" : 78,
      "durationSeconds" : 0.1681033249999997
    }, {
      "type" : "note",
      "tick" : 1704,
      "timeSeconds" : 3.6724111,
      "channel" : 5,
      "noteNumber" : 49,
      "noteName" : "C#3",
      "velocity" : 95,
      "durationTicks" : 59,
      "durationSeconds" : 0.12715507916666668
    }, {
      "type" : "note",
      "tick" : 1704,
      "timeSeconds" : 3.6724111,
      "channel" : 5,
      "noteNumber" : 55,
      "noteName" : "G3",
      "velocity" : 104,
      "durationTicks" : 75,
      "durationSeconds" : 0.16163781249999998
    }, {
      "type" : "note",
      "tick" : 1704,
      "timeSeconds" : 3.6724111,
      "channel" : 5,
      "noteNumber" : 64,
      "noteName" : "E4",
      "velocity" : 94,
      "durationTicks" : 81,
      "durationSeconds" : 0.17456883749999985
    }, {
      "type" : "note",
      "tick" : 1704,
      "timeSeconds" : 3.6724111,
      "channel" : 5,
      "noteNumber" : 58,
      "noteName" : "A#3",
      "velocity" : 100,
      "durationTicks" : 83,
      "durationSeconds" : 0.17887917916666662
    }, {
      "type" : "note",
      "tick" : 1824,
      "timeSeconds" : 3.9310316,
      "channel" : 5,
      "noteNumber" : 64,
      "noteName" : "E4",
      "velocity" : 101,
      "durationTicks" : 54,
      "durationSeconds" : 0.1163792250000002
    }, {
      "type" : "note",
      "tick" : 1824,
      "timeSeconds" : 3.9310316,
      "channel" : 5,
      "noteNumber" : 49,
      "noteName" : "C#3",
      "velocity" : 87,
      "durationTicks" : 57,
      "durationSeconds" : 0.12284473750000036
    }, {
      "type" : "note",
      "tick" : 1824,
      "timeSeconds" : 3.9310316,
      "channel" : 5,
      "noteNumber" : 55,
      "noteName" : "G3",
      "velocity" : 104,
      "durationTicks" : 60,
      "durationSeconds" : 0.12931025000000052
    }, {
      "type" : "note",
      "tick" : 1824,
      "timeSeconds" : 3.9310316,
      "channel" : 5,
      "noteNumber" : 58,
      "noteName" : "A#3",
      "velocity" : 95,
      "durationTicks" : 65,
      "durationSeconds" : 0.14008610416666656
    }, {
      "type" : "note",
      "tick" : 2184,
      "timeSeconds" : 4.7068931,
      "channel" : 5,
      "noteNumber" : 50,
      "noteName" : "D3",
      "velocity" : 104,
      "durationTicks" : 59,
      "durationSeconds" : 0.12715507916666624
    }, {
      "type" : "note",
      "tick" : 2184,
      "timeSeconds" : 4.7068931,
      "channel" : 5,
      "noteNumber" : 64,
      "noteName" : "E4",
      "velocity" : 91,
      "durationTicks" : 60,
      "durationSeconds" : 0.12931024999999963
    }, {
      "type" : "note",
      "tick" : 2184,
      "timeSeconds" : 4.7068931,
      "channel" : 5,
      "noteNumber" : 53,
      "noteName" : "F3",
      "velocity" : 108,
      "durationTicks" : 68,
      "durationSeconds" : 0.14655161666666672
    }, {
      "type" : "note",
      "tick" : 2184,
      "timeSeconds" : 4.7068931,
      "channel" : 5,
      "noteNumber" : 60,
      "noteName" : "C4",
      "velocity" : 104,
      "durationTicks" : 75,
      "durationSeconds" : 0.16163781249999953
    }, {
      "type" : "note",
      "tick" : 2304,
      "timeSeconds" : 4.9655136,
      "channel" : 5,
      "noteNumber" : 50,
      "noteName" : "D3",
      "velocity" : 94,
      "durationTicks" : 57,
      "durationSeconds" : 0.12284473749999947
    }, {
      "type" : "note",
      "tick" : 2304,
      "timeSeconds" : 4.9655136,
      "channel" : 5,
      "noteNumber" : 64,
      "noteName" : "E4",
      "velocity" : 101,
      "durationTicks" : 59,
      "durationSeconds" : 0.12715507916666624
    }, {
      "type" : "note",
      "tick" : 2304,
      "timeSeconds" : 4.9655136,
      "channel" : 5,
      "noteNumber" : 60,
      "noteName" : "C4",
      "velocity" : 108,
      "durationTicks" : 59,
      "durationSeconds" : 0.12715507916666624
    }, {
      "type" : "note",
      "tick" : 2304,
      "timeSeconds" : 4.9655136,
      "channel" : 5,
      "noteNumber" : 53,
      "noteName" : "F3",
      "velocity" : 101,
      "durationTicks" : 70,
      "durationSeconds" : 0.1508619583333326
    }, {
      "type" : "note",
      "tick" : 2664,
      "timeSeconds" : 5.7413751,
      "channel" : 5,
      "noteNumber" : 42,
      "noteName" : "F#2",
      "velocity" : 110,
      "durationTicks" : 65,
      "durationSeconds" : 0.14008610416666656
    }, {
      "type" : "note",
      "tick" : 2664,
      "timeSeconds" : 5.7413751,
      "channel" : 5,
      "noteNumber" : 64,
      "noteName" : "E4",
      "velocity" : 101,
      "durationTicks" : 70,
      "durationSeconds" : 0.1508619583333335
    }, {
      "type" : "note",
      "tick" : 2664,
      "timeSeconds" : 5.7413751,
      "channel" : 5,
      "noteNumber" : 58,
      "noteName" : "A#3",
      "velocity" : 100,
      "durationTicks" : 75,
      "durationSeconds" : 0.16163781250000042
    }, {
      "type" : "note",
      "tick" : 2664,
      "timeSeconds" : 5.7413751,
      "channel" : 5,
      "noteNumber" : 52,
      "noteName" : "E3",
      "velocity" : 108,
      "durationTicks" : 77,
      "durationSeconds" : 0.1659481541666663
    }, {
      "type" : "note",
      "tick" : 2784,
      "timeSeconds" : 5.9999956,
      "channel" : 5,
      "noteNumber" : 42,
      "noteName" : "F#2",
      "velocity" : 104,
      "durationTicks" : 54,
      "durationSeconds" : 0.1163792250000002
    }, {
      "type" : "note",
      "tick" : 2784,
      "timeSeconds" : 5.9999956,
      "channel" : 5,
      "noteNumber" : 64,
      "noteName" : "E4",
      "velocity" : 101,
      "durationTicks" : 66,
      "durationSeconds" : 0.14224127499999994
    }, {
      "type" : "note",
      "tick" : 2784,
      "timeSeconds" : 5.9999956,
      "channel" : 5,
      "noteNumber" : 52,
      "noteName" : "E3",
      "velocity" : 101,
      "durationTicks" : 76,
      "durationSeconds" : 0.16379298333333292
    }, {
      "type" : "note",
      "tick" : 2784,
      "timeSeconds" : 5.9999956,
      "channel" : 5,
      "noteNumber" : 58,
      "noteName" : "A#3",
      "velocity" : 100,
      "durationTicks" : 79,
      "durationSeconds" : 0.17025849583333308
    }, {
      "type" : "note",
      "tick" : 3144,
      "timeSeconds" : 6.7758571,
      "channel" : 5,
      "noteNumber" : 43,
      "noteName" : "G2",
      "velocity" : 113,
      "durationTicks" : 67,
      "durationSeconds" : 0.14439644583333333
    }, {
      "type" : "note",
      "tick" : 3144,
      "timeSeconds" : 6.7758571,
      "channel" : 5,
      "noteNumber" : 62,
      "noteName" : "D4",
      "velocity" : 104,
      "durationTicks" : 68,
      "durationSeconds" : 0.14655161666666672
    }, {
      "type" : "note",
      "tick" : 3144,
      "timeSeconds" : 6.7758571,
      "channel" : 5,
      "noteNumber" : 58,
      "noteName" : "A#3",
      "velocity" : 95,
      "durationTicks" : 68,
      "durationSeconds" : 0.14655161666666672
    }, {
      "type" : "note",
      "tick" : 3144,
      "timeSeconds" : 6.7758571,
      "channel" : 5,
      "noteNumber" : 53,
      "noteName" : "F3",
      "velocity" : 108,
      "durationTicks" : 72,
      "durationSeconds" : 0.15517230000000026
    }, {
      "type" : "note",
      "tick" : 3264,
      "timeSeconds" : 7.0344776,
      "channel" : 5,
      "noteNumber" : 43,
      "noteName" : "G2",
      "velocity" : 104,
      "durationTicks" : 55,
      "durationSeconds" : 0.11853439583333358
    }, {
      "type" : "note",
      "tick" : 3264,
      "timeSeconds" : 7.0344776,
      "channel" : 5,
      "noteNumber" : 62,
      "noteName" : "D4",
      "velocity" : 97,
      "durationTicks" : 58,
      "durationSeconds" : 0.12499990833333374
    }, {
      "type" : "note",
      "tick" : 3264,
      "timeSeconds" : 7.0344776,
      "channel" : 5,
      "noteNumber" : 53,
      "noteName" : "F3",
      "velocity" : 108,
      "durationTicks" : 62,
      "durationSeconds" : 0.1336205916666673
    }, {
      "type" : "note",
      "tick" : 3264,
      "timeSeconds" : 7.0344776,
      "channel" : 5,
      "noteNumber" : 58,
      "noteName" : "A#3",
      "velocity" : 91,
      "durationTicks" : 70,
      "durationSeconds" : 0.1508619583333335
    }, {
      "type" : "note",
      "tick" : 3624,
      "timeSeconds" : 7.8103391,
      "channel" : 5,
      "noteNumber" : 49,
      "noteName" : "C#3",
      "velocity" : 87,
      "durationTicks" : 64,
      "durationSeconds" : 0.13793093333333317
    }, {
      "type" : "note",
      "tick" : 3624,
      "timeSeconds" : 7.8103391,
      "channel" : 5,
      "noteNumber" : 55,
      "noteName" : "G3",
      "velocity" : 104,
      "durationTicks" : 73,
      "durationSeconds" : 0.15732747083333276
    }, {
      "type" : "note",
      "tick" : 3624,
      "timeSeconds" : 7.8103391,
      "channel" : 5,
      "noteNumber" : 58,
      "noteName" : "A#3",
      "velocity" : 100,
      "durationTicks" : 74,
      "durationSeconds" : 0.15948264166666615
    }, {
      "type" : "note",
      "tick" : 3624,
      "timeSeconds" : 7.8103391,
      "channel" : 5,
      "noteNumber" : 64,
      "noteName" : "E4",
      "velocity" : 91,
      "durationTicks" : 77,
      "durationSeconds" : 0.1659481541666663
    }, {
      "type" : "note",
      "tick" : 3744,
      "timeSeconds" : 8.0689596,
      "channel" : 5,
      "noteNumber" : 49,
      "noteName" : "C#3",
      "velocity" : 95,
      "durationTicks" : 56,
      "durationSeconds" : 0.12068956666666786
    }, {
      "type" : "note",
      "tick" : 3744,
      "timeSeconds" : 8.0689596,
      "channel" : 5,
      "noteNumber" : 58,
      "noteName" : "A#3",
      "velocity" : 104,
      "durationTicks" : 65,
      "durationSeconds" : 0.14008610416666656
    }, {
      "type" : "note",
      "tick" : 3744,
      "timeSeconds" : 8.0689596,
      "channel" : 5,
      "noteNumber" : 64,
      "noteName" : "E4",
      "velocity" : 101,
      "durationTicks" : 68,
      "durationSeconds" : 0.14655161666666672
    }, {
      "type" : "note",
      "tick" : 3744,
      "timeSeconds" : 8.0689596,
      "channel" : 5,
      "noteNumber" : 55,
      "noteName" : "G3",
      "velocity" : 108,
      "durationTicks" : 77,
      "durationSeconds" : 0.1659481541666672
    }, {
      "type" : "note",
      "tick" : 4104,
      "timeSeconds" : 8.8448211,
      "channel" : 5,
      "noteNumber" : 50,
      "noteName" : "D3",
      "velocity" : 113,
      "durationTicks" : 56,
      "durationSeconds" : 0.12068956666666608
    }, {
      "type" : "note",
      "tick" : 4104,
      "timeSeconds" : 8.8448211,
      "channel" : 5,
      "noteNumber" : 60,
      "noteName" : "C4",
      "velocity" : 122,
      "durationTicks" : 64,
      "durationSeconds" : 0.13793093333333317
    }, {
      "type" : "note",
      "tick" : 4104,
      "timeSeconds" : 8.8448211,
      "channel" : 5,
      "noteNumber" : 53,
      "noteName" : "F3",
      "velocity" : 108,
      "durationTicks" : 66,
      "durationSeconds" : 0.14224127499999994
    }, {
      "type" : "note",
      "tick" : 4104,
      "timeSeconds" : 8.8448211,
      "channel" : 5,
      "noteNumber" : 64,
      "noteName" : "E4",
      "velocity" : 101,
      "durationTicks" : 66,
      "durationSeconds" : 0.14224127499999994
    }, {
      "type" : "note",
      "tick" : 4224,
      "timeSeconds" : 9.1034416,
      "channel" : 5,
      "noteNumber" : 64,
      "noteName" : "E4",
      "velocity" : 91,
      "durationTicks" : 60,
      "durationSeconds" : 0.12931024999999963
    }, {
      "type" : "note",
      "tick" : 4224,
      "timeSeconds" : 9.1034416,
      "channel" : 5,
      "noteNumber" : 50,
      "noteName" : "D3",
      "velocity" : 113,
      "durationTicks" : 61,
      "durationSeconds" : 0.131465420833333
    }, {
      "type" : "note",
      "tick" : 4224,
      "timeSeconds" : 9.1034416,
      "channel" : 5,
      "noteNumber" : 60,
      "noteName" : "C4",
      "velocity" : 101,
      "durationTicks" : 67,
      "durationSeconds" : 0.14439644583333333
    }, {
      "type" : "note",
      "tick" : 4224,
      "timeSeconds" : 9.1034416,
      "channel" : 5,
      "noteNumber" : 53,
      "noteName" : "F3",
      "velocity" : 101,
      "durationTicks" : 68,
      "durationSeconds" : 0.14655161666666672
    }, {
      "type" : "note",
      "tick" : 4584,
      "timeSeconds" : 9.8793031,
      "channel" : 5,
      "noteNumber" : 64,
      "noteName" : "E4",
      "velocity" : 91,
      "durationTicks" : 64,
      "durationSeconds" : 0.13793093333333317
    }, {
      "type" : "note",
      "tick" : 4584,
      "timeSeconds" : 9.8793031,
      "channel" : 5,
      "noteNumber" : 42,
      "noteName" : "F#2",
      "velocity" : 104,
      "durationTicks" : 68,
      "durationSeconds" : 0.14655161666666672
    }, {
      "type" : "note",
      "tick" : 4584,
      "timeSeconds" : 9.8793031,
      "channel" : 5,
      "noteNumber" : 58,
      "noteName" : "A#3",
      "velocity" : 95,
      "durationTicks" : 68,
      "durationSeconds" : 0.14655161666666672
    }, {
      "type" : "note",
      "tick" : 4584,
      "timeSeconds" : 9.8793031,
      "channel" : 5,
      "noteNumber" : 52,
      "noteName" : "E3",
      "velocity" : 101,
      "durationTicks" : 70,
      "durationSeconds" : 0.1508619583333335
    }, {
      "type" : "note",
      "tick" : 4704,
      "timeSeconds" : 10.1379236,
      "channel" : 5,
      "noteNumber" : 42,
      "noteName" : "F#2",
      "velocity" : 104,
      "durationTicks" : 59,
      "durationSeconds" : 0.12715507916666624
    }, {
      "type" : "note",
      "tick" : 4704,
      "timeSeconds" : 10.1379236,
      "channel" : 5,
      "noteNumber" : 64,
      "noteName" : "E4",
      "velocity" : 97,
      "durationTicks" : 71,
      "durationSeconds" : 0.15301712916666688
    }, {
      "type" : "note",
      "tick" : 4704,
      "timeSeconds" : 10.1379236,
      "channel" : 5,
      "noteNumber" : 58,
      "noteName" : "A#3",
      "velocity" : 100,
      "durationTicks" : 74,
      "durationSeconds" : 0.15948264166666526
    }, {
      "type" : "note",
      "tick" : 4704,
      "timeSeconds" : 10.1379236,
      "channel" : 5,
      "noteNumber" : 52,
      "noteName" : "E3",
      "velocity" : 97,
      "durationTicks" : 77,
      "durationSeconds" : 0.16594815416666542
    }, {
      "type" : "note",
      "tick" : 5064,
      "timeSeconds" : 10.9137851,
      "channel" : 5,
      "noteNumber" : 53,
      "noteName" : "F3",
      "velocity" : 113,
      "durationTicks" : 58,
      "durationSeconds" : 0.12499990833333285
    }, {
      "type" : "note",
      "tick" : 5064,
      "timeSeconds" : 10.9137851,
      "channel" : 5,
      "noteNumber" : 43,
      "noteName" : "G2",
      "velocity" : 104,
      "durationTicks" : 62,
      "durationSeconds" : 0.1336205916666664
    }, {
      "type" : "note",
      "tick" : 5064,
      "timeSeconds" : 10.9137851,
      "channel" : 5,
      "noteNumber" : 58,
      "noteName" : "A#3",
      "velocity" : 87,
      "durationTicks" : 62,
      "durationSeconds" : 0.1336205916666664
    }, {
      "type" : "note",
      "tick" : 5064,
      "timeSeconds" : 10.9137851,
      "channel" : 5,
      "noteNumber" : 62,
      "noteName" : "D4",
      "velocity" : 97,
      "durationTicks" : 65,
      "durationSeconds" : 0.14008610416666656
    }, {
      "type" : "note",
      "tick" : 5184,
      "timeSeconds" : 11.1724056,
      "channel" : 5,
      "noteNumber" : 62,
      "noteName" : "D4",
      "velocity" : 104,
      "durationTicks" : 64,
      "durationSeconds" : 0.13793093333333317
    }, {
      "type" : "note",
      "tick" : 5184,
      "timeSeconds" : 11.1724056,
      "channel" : 5,
      "noteNumber" : 53,
      "noteName" : "F3",
      "velocity" : 108,
      "durationTicks" : 70,
      "durationSeconds" : 0.1508619583333335
    }, {
      "type" : "note",
      "tick" : 5184,
      "timeSeconds" : 11.1724056,
      "channel" : 5,
      "noteNumber" : 58,
      "noteName" : "A#3",
      "velocity" : 91,
      "durationTicks" : 71,
      "durationSeconds" : 0.15301712916666688
    }, {
      "type" : "note",
      "tick" : 5184,
      "timeSeconds" : 11.1724056,
      "channel" : 5,
      "noteNumber" : 43,
      "noteName" : "G2",
      "velocity" : 104,
      "durationTicks" : 73,
      "durationSeconds" : 0.15732747083333365
    }, {
      "type" : "note",
      "tick" : 5544,
      "timeSeconds" : 11.9482671,
      "channel" : 5,
      "noteNumber" : 49,
      "noteName" : "C#3",
      "velocity" : 95,
      "durationTicks" : 55,
      "durationSeconds" : 0.1185343958333327
    }, {
      "type" : "note",
      "tick" : 5544,
      "timeSeconds" : 11.9482671,
      "channel" : 5,
      "noteNumber" : 64,
      "noteName" : "E4",
      "velocity" : 104,
      "durationTicks" : 60,
      "durationSeconds" : 0.12931024999999963
    }, {
      "type" : "note",
      "tick" : 5544,
      "timeSeconds" : 11.9482671,
      "channel" : 5,
      "noteNumber" : 58,
      "noteName" : "A#3",
      "velocity" : 104,
      "durationTicks" : 61,
      "durationSeconds" : 0.131465420833333
    }, {
      "type" : "note",
      "tick" : 5544,
      "timeSeconds" : 11.9482671,
      "channel" : 5,
      "noteNumber" : 55,
      "noteName" : "G3",
      "velocity" : 113,
      "durationTicks" : 69,
      "durationSeconds" : 0.1487067875000001
    }, {
      "type" : "note",
      "tick" : 5664,
      "timeSeconds" : 12.2068876,
      "channel" : 5,
      "noteNumber" : 49,
      "noteName" : "C#3",
      "velocity" : 87,
      "durationTicks" : 60,
      "durationSeconds" : 0.12931024999999963
    }, {
      "type" : "note",
      "tick" : 5664,
      "timeSeconds" : 12.2068876,
      "channel" : 5,
      "noteNumber" : 64,
      "noteName" : "E4",
      "velocity" : 97,
      "durationTicks" : 62,
      "durationSeconds" : 0.1336205916666664
    }, {
      "type" : "note",
      "tick" : 5664,
      "timeSeconds" : 12.2068876,
      "channel" : 5,
      "noteNumber" : 58,
      "noteName" : "A#3",
      "velocity" : 100,
      "durationTicks" : 64,
      "durationSeconds" : 0.13793093333333317
    }, {
      "type" : "note",
      "tick" : 5664,
      "timeSeconds" : 12.2068876,
      "channel" : 5,
      "noteNumber" : 55,
      "noteName" : "G3",
      "velocity" : 81,
      "durationTicks" : 78,
      "durationSeconds" : 0.16810332500000058
    }, {
      "type" : "note",
      "tick" : 6024,
      "timeSeconds" : 12.9827491,
      "channel" : 5,
      "noteNumber" : 50,
      "noteName" : "D3",
      "velocity" : 97,
      "durationTicks" : 61,
      "durationSeconds" : 0.131465420833333
    }, {
      "type" : "note",
      "tick" : 6024,
      "timeSeconds" : 12.9827491,
      "channel" : 5,
      "noteNumber" : 64,
      "noteName" : "E4",
      "velocity" : 91,
      "durationTicks" : 62,
      "durationSeconds" : 0.1336205916666664
    }, {
      "type" : "note",
      "tick" : 6024,
      "timeSeconds" : 12.9827491,
      "channel" : 5,
      "noteNumber" : 53,
      "noteName" : "F3",
      "velocity" : 104,
      "durationTicks" : 66,
      "durationSeconds" : 0.14224127499999994
    }, {
      "type" : "note",
      "tick" : 6024,
      "timeSeconds" : 12.9827491,
      "channel" : 5,
      "noteNumber" : 60,
      "noteName" : "C4",
      "velocity" : 101,
      "durationTicks" : 67,
      "durationSeconds" : 0.14439644583333333
    }, {
      "type" : "note",
      "tick" : 6144,
      "timeSeconds" : 13.2413696,
      "channel" : 5,
      "noteNumber" : 53,
      "noteName" : "F3",
      "velocity" : 104,
      "durationTicks" : 60,
      "durationSeconds" : 0.12931024999999963
    }, {
      "type" : "note",
      "tick" : 6144,
      "timeSeconds" : 13.2413696,
      "channel" : 5,
      "noteNumber" : 50,
      "noteName" : "D3",
      "velocity" : 101,
      "durationTicks" : 62,
      "durationSeconds" : 0.1336205916666664
    }, {
      "type" : "note",
      "tick" : 6144,
      "timeSeconds" : 13.2413696,
      "channel" : 5,
      "noteNumber" : 64,
      "noteName" : "E4",
      "velocity" : 97,
      "durationTicks" : 72,
      "durationSeconds" : 0.15517230000000026
    }, {
      "type" : "note",
      "tick" : 6144,
      "timeSeconds" : 13.2413696,
      "channel" : 5,
      "noteNumber" : 60,
      "noteName" : "C4",
      "velocity" : 113,
      "durationTicks" : 74,
      "durationSeconds" : 0.15948264166666704
    }, {
      "type" : "note",
      "tick" : 6504,
      "timeSeconds" : 14.0172311,
      "channel" : 5,
      "noteNumber" : 41,
      "noteName" : "F2",
      "velocity" : 104,
      "durationTicks" : 58,
      "durationSeconds" : 0.12499990833333285
    }, {
      "type" : "note",
      "tick" : 6504,
      "timeSeconds" : 14.0172311,
      "channel" : 5,
      "noteNumber" : 63,
      "noteName" : "D#4",
      "velocity" : 95,
      "durationTicks" : 67,
      "durationSeconds" : 0.14439644583333333
    }, {
      "type" : "note",
      "tick" : 6504,
      "timeSeconds" : 14.0172311,
      "channel" : 5,
      "noteNumber" : 67,
      "noteName" : "G4",
      "velocity" : 104,
      "durationTicks" : 74,
      "durationSeconds" : 0.15948264166666704
    }, {
      "type" : "note",
      "tick" : 6504,
      "timeSeconds" : 14.0172311,
      "channel" : 5,
      "noteNumber" : 55,
      "noteName" : "G3",
      "velocity" : 101,
      "durationTicks" : 77,
      "durationSeconds" : 0.1659481541666672
    }, {
      "type" : "note",
      "tick" : 6624,
      "timeSeconds" : 14.2758516,
      "channel" : 5,
      "noteNumber" : 41,
      "noteName" : "F2",
      "velocity" : 101,
      "durationTicks" : 53,
      "durationSeconds" : 0.1142240541666677
    }, {
      "type" : "note",
      "tick" : 6624,
      "timeSeconds" : 14.2758516,
      "channel" : 5,
      "noteNumber" : 67,
      "noteName" : "G4",
      "velocity" : 113,
      "durationTicks" : 62,
      "durationSeconds" : 0.13362059166666818
    }, {
      "type" : "note",
      "tick" : 6624,
      "timeSeconds" : 14.2758516,
      "channel" : 5,
      "noteNumber" : 63,
      "noteName" : "D#4",
      "velocity" : 100,
      "durationTicks" : 64,
      "durationSeconds" : 0.13793093333333317
    }, {
      "type" : "note",
      "tick" : 6624,
      "timeSeconds" : 14.2758516,
      "channel" : 5,
      "noteNumber" : 55,
      "noteName" : "G3",
      "velocity" : 113,
      "durationTicks" : 72,
      "durationSeconds" : 0.15517230000000026
    }, {
      "type" : "note",
      "tick" : 6984,
      "timeSeconds" : 15.0517131,
      "channel" : 5,
      "noteNumber" : 46,
      "noteName" : "A#2",
      "velocity" : 73,
      "durationTicks" : 54,
      "durationSeconds" : 0.11637922499999931
    }, {
      "type" : "note",
      "tick" : 6984,
      "timeSeconds" : 15.0517131,
      "channel" : 5,
      "noteNumber" : 65,
      "noteName" : "F4",
      "velocity" : 91,
      "durationTicks" : 77,
      "durationSeconds" : 0.16594815416666542
    }, {
      "type" : "note",
      "tick" : 6984,
      "timeSeconds" : 15.0517131,
      "channel" : 5,
      "noteNumber" : 62,
      "noteName" : "D4",
      "velocity" : 94,
      "durationTicks" : 78,
      "durationSeconds" : 0.1681033249999988
    }, {
      "type" : "note",
      "tick" : 6984,
      "timeSeconds" : 15.0517131,
      "channel" : 5,
      "noteNumber" : 57,
      "noteName" : "A3",
      "velocity" : 91,
      "durationTicks" : 78,
      "durationSeconds" : 0.1681033249999988
    }, {
      "type" : "note",
      "tick" : 7104,
      "timeSeconds" : 15.3103336,
      "channel" : 5,
      "noteNumber" : 46,
      "noteName" : "A#2",
      "velocity" : 95,
      "durationTicks" : 57,
      "durationSeconds" : 0.12284473749999947
    }, {
      "type" : "note",
      "tick" : 7104,
      "timeSeconds" : 15.3103336,
      "channel" : 5,
      "noteNumber" : 62,
      "noteName" : "D4",
      "velocity" : 117,
      "durationTicks" : 67,
      "durationSeconds" : 0.14439644583333333
    }, {
      "type" : "note",
      "tick" : 7104,
      "timeSeconds" : 15.3103336,
      "channel" : 5,
      "noteNumber" : 65,
      "noteName" : "F4",
      "velocity" : 97,
      "durationTicks" : 70,
      "durationSeconds" : 0.1508619583333335
    }, {
      "type" : "note",
      "tick" : 7104,
      "timeSeconds" : 15.3103336,
      "channel" : 5,
      "noteNumber" : 57,
      "noteName" : "A3",
      "velocity" : 104,
      "durationTicks" : 75,
      "durationSeconds" : 0.16163781250000042
    }, {
      "type" : "note",
      "tick" : 7464,
      "timeSeconds" : 16.0861951,
      "channel" : 5,
      "noteNumber" : 61,
      "noteName" : "C#4",
      "velocity" : 100,
      "durationTicks" : 63,
      "durationSeconds" : 0.13577576249999979
    }, {
      "type" : "note",
      "tick" : 7464,
      "timeSeconds" : 16.0861951,
      "channel" : 5,
      "noteNumber" : 45,
      "noteName" : "A2",
      "velocity" : 101,
      "durationTicks" : 64,
      "durationSeconds" : 0.13793093333333317
    }, {
      "type" : "note",
      "tick" : 7464,
      "timeSeconds" : 16.0861951,
      "channel" : 5,
      "noteNumber" : 55,
      "noteName" : "G3",
      "velocity" : 108,
      "durationTicks" : 66,
      "durationSeconds" : 0.14224127499999994
    }, {
      "type" : "note",
      "tick" : 7464,
      "timeSeconds" : 16.0861951,
      "channel" : 5,
      "noteNumber" : 65,
      "noteName" : "F4",
      "velocity" : 101,
      "durationTicks" : 72,
      "durationSeconds" : 0.15517230000000026
    }, {
      "type" : "note",
      "tick" : 7584,
      "timeSeconds" : 16.3448156,
      "channel" : 5,
      "noteNumber" : 65,
      "noteName" : "F4",
      "velocity" : 101,
      "durationTicks" : 59,
      "durationSeconds" : 0.12715507916666624
    }, {
      "type" : "note",
      "tick" : 7584,
      "timeSeconds" : 16.3448156,
      "channel" : 5,
      "noteNumber" : 61,
      "noteName" : "C#4",
      "velocity" : 100,
      "durationTicks" : 65,
      "durationSeconds" : 0.14008610416666656
    }, {
      "type" : "note",
      "tick" : 7584,
      "timeSeconds" : 16.3448156,
      "channel" : 5,
      "noteNumber" : 55,
      "noteName" : "G3",
      "velocity" : 101,
      "durationTicks" : 68,
      "durationSeconds" : 0.14655161666666672
    }, {
      "type" : "note",
      "tick" : 7584,
      "timeSeconds" : 16.3448156,
      "channel" : 5,
      "noteNumber" : 45,
      "noteName" : "A2",
      "velocity" : 91,
      "durationTicks" : 74,
      "durationSeconds" : 0.15948264166666704
    }, {
      "type" : "note",
      "tick" : 7944,
      "timeSeconds" : 17.1206771,
      "channel" : 5,
      "noteNumber" : 50,
      "noteName" : "D3",
      "velocity" : 97,
      "durationTicks" : 58,
      "durationSeconds" : 0.12499990833333285
    }, {
      "type" : "note",
      "tick" : 7944,
      "timeSeconds" : 17.1206771,
      "channel" : 5,
      "noteNumber" : 53,
      "noteName" : "F3",
      "velocity" : 113,
      "durationTicks" : 60,
      "durationSeconds" : 0.12931024999999963
    }, {
      "type" : "note",
      "tick" : 7944,
      "timeSeconds" : 17.1206771,
      "channel" : 5,
      "noteNumber" : 64,
      "noteName" : "E4",
      "velocity" : 77,
      "durationTicks" : 65,
      "durationSeconds" : 0.14008610416666656
    }, {
      "type" : "note",
      "tick" : 7944,
      "timeSeconds" : 17.1206771,
      "channel" : 5,
      "noteNumber" : 60,
      "noteName" : "C4",
      "velocity" : 117,
      "durationTicks" : 70,
      "durationSeconds" : 0.15086195833332994
    }, {
      "type" : "note",
      "tick" : 8064,
      "timeSeconds" : 17.3792976,
      "channel" : 5,
      "noteNumber" : 64,
      "noteName" : "E4",
      "velocity" : 101,
      "durationTicks" : 54,
      "durationSeconds" : 0.11637922499999931
    }, {
      "type" : "note",
      "tick" : 8064,
      "timeSeconds" : 17.3792976,
      "channel" : 5,
      "noteNumber" : 50,
      "noteName" : "D3",
      "velocity" : 104,
      "durationTicks" : 59,
      "durationSeconds" : 0.12715507916666624
    }, {
      "type" : "note",
      "tick" : 8064,
      "timeSeconds" : 17.3792976,
      "channel" : 5,
      "noteNumber" : 53,
      "noteName" : "F3",
      "velocity" : 108,
      "durationTicks" : 62,
      "durationSeconds" : 0.1336205916666664
    }, {
      "type" : "note",
      "tick" : 8064,
      "timeSeconds" : 17.3792976,
      "channel" : 5,
      "noteNumber" : 60,
      "noteName" : "C4",
      "velocity" : 108,
      "durationTicks" : 65,
      "durationSeconds" : 0.14008610416666656
    }, {
      "type" : "note",
      "tick" : 8304,
      "timeSeconds" : 17.8965386,
      "channel" : 5,
      "noteNumber" : 50,
      "noteName" : "D3",
      "velocity" : 104,
      "durationTicks" : 44,
      "durationSeconds" : 0.09482751666666545
    }, {
      "type" : "note",
      "tick" : 8304,
      "timeSeconds" : 17.8965386,
      "channel" : 5,
      "noteNumber" : 42,
      "noteName" : "F#2",
      "velocity" : 100,
      "durationTicks" : 56,
      "durationSeconds" : 0.12068956666666608
    }, {
      "type" : "note",
      "tick" : 8304,
      "timeSeconds" : 17.8965386,
      "channel" : 5,
      "noteNumber" : 62,
      "noteName" : "D4",
      "velocity" : 101,
      "durationTicks" : 58,
      "durationSeconds" : 0.12499990833333285
    }, {
      "type" : "note",
      "tick" : 8304,
      "timeSeconds" : 17.8965386,
      "channel" : 5,
      "noteNumber" : 52,
      "noteName" : "E3",
      "velocity" : 97,
      "durationTicks" : 64,
      "durationSeconds" : 0.13793093333333317
    }, {
      "type" : "note",
      "tick" : 8304,
      "timeSeconds" : 17.8965386,
      "channel" : 5,
      "noteNumber" : 58,
      "noteName" : "A#3",
      "velocity" : 95,
      "durationTicks" : 65,
      "durationSeconds" : 0.14008610416666656
    }, {
      "type" : "note",
      "tick" : 8544,
      "timeSeconds" : 18.4137796,
      "channel" : 5,
      "noteNumber" : 42,
      "noteName" : "F#2",
      "velocity" : 110,
      "durationTicks" : 53,
      "durationSeconds" : 0.11422405416666592
    }, {
      "type" : "note",
      "tick" : 8544,
      "timeSeconds" : 18.4137796,
      "channel" : 5,
      "noteNumber" : 62,
      "noteName" : "D4",
      "velocity" : 97,
      "durationTicks" : 70,
      "durationSeconds" : 0.1508619583333335
    }, {
      "type" : "note",
      "tick" : 8544,
      "timeSeconds" : 18.4137796,
      "channel" : 5,
      "noteNumber" : 58,
      "noteName" : "A#3",
      "velocity" : 110,
      "durationTicks" : 71,
      "durationSeconds" : 0.15301712916666332
    }, {
      "type" : "note",
      "tick" : 8544,
      "timeSeconds" : 18.4137796,
      "channel" : 5,
      "noteNumber" : 52,
      "noteName" : "E3",
      "velocity" : 117,
      "durationTicks" : 71,
      "durationSeconds" : 0.15301712916666332
    }, {
      "type" : "note",
      "tick" : 8904,
      "timeSeconds" : 19.1896411,
      "channel" : 5,
      "noteNumber" : 43,
      "noteName" : "G2",
      "velocity" : 117,
      "durationTicks" : 61,
      "durationSeconds" : 0.131465420833333
    }, {
      "type" : "note",
      "tick" : 8904,
      "timeSeconds" : 19.1896411,
      "channel" : 5,
      "noteNumber" : 62,
      "noteName" : "D4",
      "velocity" : 94,
      "durationTicks" : 68,
      "durationSeconds" : 0.14655161666666672
    }, {
      "type" : "note",
      "tick" : 8904,
      "timeSeconds" : 19.1896411,
      "channel" : 5,
      "noteNumber" : 58,
      "noteName" : "A#3",
      "velocity" : 100,
      "durationTicks" : 69,
      "durationSeconds" : 0.1487067875000001
    }, {
      "type" : "note",
      "tick" : 8904,
      "timeSeconds" : 19.1896411,
      "channel" : 5,
      "noteNumber" : 53,
      "noteName" : "F3",
      "velocity" : 117,
      "durationTicks" : 71,
      "durationSeconds" : 0.15301712916666688
    }, {
      "type" : "note",
      "tick" : 9024,
      "timeSeconds" : 19.4482616,
      "channel" : 5,
      "noteNumber" : 58,
      "noteName" : "A#3",
      "velocity" : 100,
      "durationTicks" : 55,
      "durationSeconds" : 0.11853439583333625
    }, {
      "type" : "note",
      "tick" : 9024,
      "timeSeconds" : 19.4482616,
      "channel" : 5,
      "noteNumber" : 62,
      "noteName" : "D4",
      "velocity" : 101,
      "durationTicks" : 56,
      "durationSeconds" : 0.12068956666666963
    }, {
      "type" : "note",
      "tick" : 9024,
      "timeSeconds" : 19.4482616,
      "channel" : 5,
      "noteNumber" : 53,
      "noteName" : "F3",
      "velocity" : 104,
      "durationTicks" : 59,
      "durationSeconds" : 0.1271550791666698
    }, {
      "type" : "note",
      "tick" : 9024,
      "timeSeconds" : 19.4482616,
      "channel" : 5,
      "noteNumber" : 43,
      "noteName" : "G2",
      "velocity" : 117,
      "durationTicks" : 61,
      "durationSeconds" : 0.131465420833333
    }, {
      "type" : "note",
      "tick" : 9384,
      "timeSeconds" : 20.2241231,
      "channel" : 5,
      "noteNumber" : 49,
      "noteName" : "C#3",
      "velocity" : 91,
      "durationTicks" : 57,
      "durationSeconds" : 0.12284473749999947
    }, {
      "type" : "note",
      "tick" : 9384,
      "timeSeconds" : 20.2241231,
      "channel" : 5,
      "noteNumber" : 64,
      "noteName" : "E4",
      "velocity" : 97,
      "durationTicks" : 65,
      "durationSeconds" : 0.14008610416666656
    }, {
      "type" : "note",
      "tick" : 9384,
      "timeSeconds" : 20.2241231,
      "channel" : 5,
      "noteNumber" : 55,
      "noteName" : "G3",
      "velocity" : 117,
      "durationTicks" : 66,
      "durationSeconds" : 0.14224127499999994
    }, {
      "type" : "note",
      "tick" : 9384,
      "timeSeconds" : 20.2241231,
      "channel" : 5,
      "noteNumber" : 58,
      "noteName" : "A#3",
      "velocity" : 104,
      "durationTicks" : 68,
      "durationSeconds" : 0.14655161666666672
    }, {
      "type" : "note",
      "tick" : 9504,
      "timeSeconds" : 20.4827436,
      "channel" : 5,
      "noteNumber" : 49,
      "noteName" : "C#3",
      "velocity" : 100,
      "durationTicks" : 56,
      "durationSeconds" : 0.12068956666666608
    }, {
      "type" : "note",
      "tick" : 9504,
      "timeSeconds" : 20.4827436,
      "channel" : 5,
      "noteNumber" : 55,
      "noteName" : "G3",
      "velocity" : 101,
      "durationTicks" : 63,
      "durationSeconds" : 0.13577576249999979
    }, {
      "type" : "note",
      "tick" : 9504,
      "timeSeconds" : 20.4827436,
      "channel" : 5,
      "noteNumber" : 58,
      "noteName" : "A#3",
      "velocity" : 100,
      "durationTicks" : 63,
      "durationSeconds" : 0.13577576249999979
    }, {
      "type" : "note",
      "tick" : 9504,
      "timeSeconds" : 20.4827436,
      "channel" : 5,
      "noteNumber" : 64,
      "noteName" : "E4",
      "velocity" : 91,
      "durationTicks" : 70,
      "durationSeconds" : 0.1508619583333335
    }, {
      "type" : "note",
      "tick" : 9864,
      "timeSeconds" : 21.2586051,
      "channel" : 5,
      "noteNumber" : 50,
      "noteName" : "D3",
      "velocity" : 104,
      "durationTicks" : 61,
      "durationSeconds" : 0.131465420833333
    }, {
      "type" : "note",
      "tick" : 9864,
      "timeSeconds" : 21.2586051,
      "channel" : 5,
      "noteNumber" : 60,
      "noteName" : "C4",
      "velocity" : 113,
      "durationTicks" : 69,
      "durationSeconds" : 0.1487067875000001
    }, {
      "type" : "note",
      "tick" : 9864,
      "timeSeconds" : 21.2586051,
      "channel" : 5,
      "noteNumber" : 53,
      "noteName" : "F3",
      "velocity" : 108,
      "durationTicks" : 70,
      "durationSeconds" : 0.1508619583333335
    }, {
      "type" : "note",
      "tick" : 9864,
      "timeSeconds" : 21.2586051,
      "channel" : 5,
      "noteNumber" : 64,
      "noteName" : "E4",
      "velocity" : 94,
      "durationTicks" : 71,
      "durationSeconds" : 0.15301712916666688
    }, {
      "type" : "note",
      "tick" : 9984,
      "timeSeconds" : 21.5172256,
      "channel" : 5,
      "noteNumber" : 60,
      "noteName" : "C4",
      "velocity" : 108,
      "durationTicks" : 49,
      "durationSeconds" : 0.10560337083333238
    }, {
      "type" : "note",
      "tick" : 9984,
      "timeSeconds" : 21.5172256,
      "channel" : 5,
      "noteNumber" : 64,
      "noteName" : "E4",
      "velocity" : 94,
      "durationTicks" : 51,
      "durationSeconds" : 0.10991371249999915
    }, {
      "type" : "note",
      "tick" : 9984,
      "timeSeconds" : 21.5172256,
      "channel" : 5,
      "noteNumber" : 50,
      "noteName" : "D3",
      "velocity" : 108,
      "durationTicks" : 51,
      "durationSeconds" : 0.10991371249999915
    }, {
      "type" : "note",
      "tick" : 9984,
      "timeSeconds" : 21.5172256,
      "channel" : 5,
      "noteNumber" : 53,
      "noteName" : "F3",
      "velocity" : 108,
      "durationTicks" : 55,
      "durationSeconds" : 0.1185343958333327
    }, {
      "type" : "note",
      "tick" : 10344,
      "timeSeconds" : 22.2930871,
      "channel" : 5,
      "noteNumber" : 42,
      "noteName" : "F#2",
      "velocity" : 110,
      "durationTicks" : 61,
      "durationSeconds" : 0.131465420833333
    }, {
      "type" : "note",
      "tick" : 10344,
      "timeSeconds" : 22.2930871,
      "channel" : 5,
      "noteNumber" : 58,
      "noteName" : "A#3",
      "velocity" : 100,
      "durationTicks" : 74,
      "durationSeconds" : 0.15948264166666704
    }, {
      "type" : "note",
      "tick" : 10344,
      "timeSeconds" : 22.2930871,
      "channel" : 5,
      "noteNumber" : 64,
      "noteName" : "E4",
      "velocity" : 97,
      "durationTicks" : 76,
      "durationSeconds" : 0.1637929833333338
    }, {
      "type" : "note",
      "tick" : 10344,
      "timeSeconds" : 22.2930871,
      "channel" : 5,
      "noteNumber" : 52,
      "noteName" : "E3",
      "velocity" : 113,
      "durationTicks" : 77,
      "durationSeconds" : 0.1659481541666672
    }, {
      "type" : "note",
      "tick" : 10464,
      "timeSeconds" : 22.5517076,
      "channel" : 5,
      "noteNumber" : 42,
      "noteName" : "F#2",
      "velocity" : 110,
      "durationTicks" : 53,
      "durationSeconds" : 0.11422405416666592
    }, {
      "type" : "note",
      "tick" : 10464,
      "timeSeconds" : 22.5517076,
      "channel" : 5,
      "noteNumber" : 64,
      "noteName" : "E4",
      "velocity" : 97,
      "durationTicks" : 68,
      "durationSeconds" : 0.14655161666666672
    }, {
      "type" : "note",
      "tick" : 10464,
      "timeSeconds" : 22.5517076,
      "channel" : 5,
      "noteNumber" : 52,
      "noteName" : "E3",
      "velocity" : 113,
      "durationTicks" : 72,
      "durationSeconds" : 0.15517230000000026
    }, {
      "type" : "note",
      "tick" : 10464,
      "timeSeconds" : 22.5517076,
      "channel" : 5,
      "noteNumber" : 58,
      "noteName" : "A#3",
      "velocity" : 104,
      "durationTicks" : 75,
      "durationSeconds" : 0.16163781250000042
    }, {
      "type" : "note",
      "tick" : 10824,
      "timeSeconds" : 23.3275691,
      "channel" : 5,
      "noteNumber" : 53,
      "noteName" : "F3",
      "velocity" : 113,
      "durationTicks" : 50,
      "durationSeconds" : 0.10775854166666576
    }, {
      "type" : "note",
      "tick" : 10824,
      "timeSeconds" : 23.3275691,
      "channel" : 5,
      "noteNumber" : 62,
      "noteName" : "D4",
      "velocity" : 108,
      "durationTicks" : 57,
      "durationSeconds" : 0.12284473749999947
    }, {
      "type" : "note",
      "tick" : 10824,
      "timeSeconds" : 23.3275691,
      "channel" : 5,
      "noteNumber" : 58,
      "noteName" : "A#3",
      "velocity" : 91,
      "durationTicks" : 58,
      "durationSeconds" : 0.12499990833333285
    }, {
      "type" : "note",
      "tick" : 10824,
      "timeSeconds" : 23.3275691,
      "channel" : 5,
      "noteNumber" : 43,
      "noteName" : "G2",
      "velocity" : 117,
      "durationTicks" : 61,
      "durationSeconds" : 0.131465420833333
    }, {
      "type" : "note",
      "tick" : 10944,
      "timeSeconds" : 23.5861896,
      "channel" : 5,
      "noteNumber" : 62,
      "noteName" : "D4",
      "velocity" : 94,
      "durationTicks" : 60,
      "durationSeconds" : 0.12931024999999963
    }, {
      "type" : "note",
      "tick" : 10944,
      "timeSeconds" : 23.5861896,
      "channel" : 5,
      "noteNumber" : 53,
      "noteName" : "F3",
      "velocity" : 104,
      "durationTicks" : 62,
      "durationSeconds" : 0.1336205916666664
    }, {
      "type" : "note",
      "tick" : 10944,
      "timeSeconds" : 23.5861896,
      "channel" : 5,
      "noteNumber" : 58,
      "noteName" : "A#3",
      "velocity" : 87,
      "durationTicks" : 68,
      "durationSeconds" : 0.14655161666666672
    }, {
      "type" : "note",
      "tick" : 10944,
      "timeSeconds" : 23.5861896,
      "channel" : 5,
      "noteNumber" : 43,
      "noteName" : "G2",
      "velocity" : 97,
      "durationTicks" : 71,
      "durationSeconds" : 0.15301712916666688
    }, {
      "type" : "note",
      "tick" : 11304,
      "timeSeconds" : 24.3620511,
      "channel" : 5,
      "noteNumber" : 49,
      "noteName" : "C#3",
      "velocity" : 80,
      "durationTicks" : 59,
      "durationSeconds" : 0.1271550791666698
    }, {
      "type" : "note",
      "tick" : 11304,
      "timeSeconds" : 24.3620511,
      "channel" : 5,
      "noteNumber" : 64,
      "noteName" : "E4",
      "velocity" : 91,
      "durationTicks" : 64,
      "durationSeconds" : 0.13793093333333317
    }, {
      "type" : "note",
      "tick" : 11304,
      "timeSeconds" : 24.3620511,
      "channel" : 5,
      "noteNumber" : 55,
      "noteName" : "G3",
      "velocity" : 101,
      "durationTicks" : 64,
      "durationSeconds" : 0.13793093333333317
    }, {
      "type" : "note",
      "tick" : 11304,
      "timeSeconds" : 24.3620511,
      "channel" : 5,
      "noteNumber" : 58,
      "noteName" : "A#3",
      "velocity" : 100,
      "durationTicks" : 66,
      "durationSeconds" : 0.14224127499999994
    }, {
      "type" : "note",
      "tick" : 11424,
      "timeSeconds" : 24.6206716,
      "channel" : 5,
      "noteNumber" : 49,
      "noteName" : "C#3",
      "velocity" : 87,
      "durationTicks" : 57,
      "durationSeconds" : 0.12284473749999947
    }, {
      "type" : "note",
      "tick" : 11424,
      "timeSeconds" : 24.6206716,
      "channel" : 5,
      "noteNumber" : 64,
      "noteName" : "E4",
      "velocity" : 97,
      "durationTicks" : 61,
      "durationSeconds" : 0.131465420833333
    }, {
      "type" : "note",
      "tick" : 11424,
      "timeSeconds" : 24.6206716,
      "channel" : 5,
      "noteNumber" : 58,
      "noteName" : "A#3",
      "velocity" : 100,
      "durationTicks" : 62,
      "durationSeconds" : 0.1336205916666664
    }, {
      "type" : "note",
      "tick" : 11424,
      "timeSeconds" : 24.6206716,
      "channel" : 5,
      "noteNumber" : 55,
      "noteName" : "G3",
      "velocity" : 97,
      "durationTicks" : 65,
      "durationSeconds" : 0.14008610416666656
    }, {
      "type" : "note",
      "tick" : 11784,
      "timeSeconds" : 25.3965331,
      "channel" : 5,
      "noteNumber" : 50,
      "noteName" : "D3",
      "velocity" : 108,
      "durationTicks" : 49,
      "durationSeconds" : 0.10560337083333238
    }, {
      "type" : "note",
      "tick" : 11784,
      "timeSeconds" : 25.3965331,
      "channel" : 5,
      "noteNumber" : 53,
      "noteName" : "F3",
      "velocity" : 104,
      "durationTicks" : 55,
      "durationSeconds" : 0.1185343958333327
    }, {
      "type" : "note",
      "tick" : 11784,
      "timeSeconds" : 25.3965331,
      "channel" : 5,
      "noteNumber" : 64,
      "noteName" : "E4",
      "velocity" : 91,
      "durationTicks" : 56,
      "durationSeconds" : 0.12068956666666608
    }, {
      "type" : "note",
      "tick" : 11784,
      "timeSeconds" : 25.3965331,
      "channel" : 5,
      "noteNumber" : 60,
      "noteName" : "C4",
      "velocity" : 108,
      "durationTicks" : 59,
      "durationSeconds" : 0.12715507916666624
    }, {
      "type" : "note",
      "tick" : 11904,
      "timeSeconds" : 25.6551536,
      "channel" : 5,
      "noteNumber" : 50,
      "noteName" : "D3",
      "velocity" : 108,
      "durationTicks" : 53,
      "durationSeconds" : 0.11422405416666948
    }, {
      "type" : "note",
      "tick" : 11904,
      "timeSeconds" : 25.6551536,
      "channel" : 5,
      "noteNumber" : 64,
      "noteName" : "E4",
      "velocity" : 88,
      "durationTicks" : 57,
      "durationSeconds" : 0.12284473750000302
    }, {
      "type" : "note",
      "tick" : 11904,
      "timeSeconds" : 25.6551536,
      "channel" : 5,
      "noteNumber" : 60,
      "noteName" : "C4",
      "velocity" : 101,
      "durationTicks" : 64,
      "durationSeconds" : 0.13793093333333317
    }, {
      "type" : "note",
      "tick" : 11904,
      "timeSeconds" : 25.6551536,
      "channel" : 5,
      "noteNumber" : 53,
      "noteName" : "F3",
      "velocity" : 101,
      "durationTicks" : 71,
      "durationSeconds" : 0.15301712916666688
    }, {
      "type" : "note",
      "tick" : 12264,
      "timeSeconds" : 26.4310151,
      "channel" : 5,
      "noteNumber" : 42,
      "noteName" : "F#2",
      "velocity" : 104,
      "durationTicks" : 45,
      "durationSeconds" : 0.09698268749999883
    }, {
      "type" : "note",
      "tick" : 12264,
      "timeSeconds" : 26.4310151,
      "channel" : 5,
      "noteNumber" : 62,
      "noteName" : "D4",
      "velocity" : 91,
      "durationTicks" : 58,
      "durationSeconds" : 0.12499990833333285
    }, {
      "type" : "note",
      "tick" : 12264,
      "timeSeconds" : 26.4310151,
      "channel" : 5,
      "noteNumber" : 58,
      "noteName" : "A#3",
      "velocity" : 87,
      "durationTicks" : 62,
      "durationSeconds" : 0.1336205916666664
    }, {
      "type" : "note",
      "tick" : 12264,
      "timeSeconds" : 26.4310151,
      "channel" : 5,
      "noteNumber" : 52,
      "noteName" : "E3",
      "velocity" : 94,
      "durationTicks" : 68,
      "durationSeconds" : 0.14655161666666672
    }, {
      "type" : "note",
      "tick" : 12384,
      "timeSeconds" : 26.6896356,
      "channel" : 5,
      "noteNumber" : 42,
      "noteName" : "F#2",
      "velocity" : 110,
      "durationTicks" : 47,
      "durationSeconds" : 0.10129302916666916
    }, {
      "type" : "note",
      "tick" : 12384,
      "timeSeconds" : 26.6896356,
      "channel" : 5,
      "noteNumber" : 52,
      "noteName" : "E3",
      "velocity" : 97,
      "durationTicks" : 65,
      "durationSeconds" : 0.14008610416666656
    }, {
      "type" : "note",
      "tick" : 12384,
      "timeSeconds" : 26.6896356,
      "channel" : 5,
      "noteNumber" : 62,
      "noteName" : "D4",
      "velocity" : 101,
      "durationTicks" : 66,
      "durationSeconds" : 0.14224127499999994
    }, {
      "type" : "note",
      "tick" : 12384,
      "timeSeconds" : 26.6896356,
      "channel" : 5,
      "noteNumber" : 58,
      "noteName" : "A#3",
      "velocity" : 91,
      "durationTicks" : 71,
      "durationSeconds" : 0.15301712916666688
    }, {
      "type" : "note",
      "tick" : 12744,
      "timeSeconds" : 27.4654971,
      "channel" : 5,
      "noteNumber" : 43,
      "noteName" : "G2",
      "velocity" : 104,
      "durationTicks" : 60,
      "durationSeconds" : 0.12931024999999963
    }, {
      "type" : "note",
      "tick" : 12744,
      "timeSeconds" : 27.4654971,
      "channel" : 5,
      "noteNumber" : 62,
      "noteName" : "D4",
      "velocity" : 101,
      "durationTicks" : 61,
      "durationSeconds" : 0.131465420833333
    }, {
      "type" : "note",
      "tick" : 12744,
      "timeSeconds" : 27.4654971,
      "channel" : 5,
      "noteNumber" : 58,
      "noteName" : "A#3",
      "velocity" : 91,
      "durationTicks" : 63,
      "durationSeconds" : 0.13577576249999979
    }, {
      "type" : "note",
      "tick" : 12744,
      "timeSeconds" : 27.4654971,
      "channel" : 5,
      "noteNumber" : 53,
      "noteName" : "F3",
      "velocity" : 117,
      "durationTicks" : 67,
      "durationSeconds" : 0.14439644583333333
    }, {
      "type" : "note",
      "tick" : 12864,
      "timeSeconds" : 27.7241176,
      "channel" : 5,
      "noteNumber" : 62,
      "noteName" : "D4",
      "velocity" : 91,
      "durationTicks" : 54,
      "durationSeconds" : 0.11637922499999931
    }, {
      "type" : "note",
      "tick" : 12864,
      "timeSeconds" : 27.7241176,
      "channel" : 5,
      "noteNumber" : 43,
      "noteName" : "G2",
      "velocity" : 113,
      "durationTicks" : 57,
      "durationSeconds" : 0.12284473749999947
    }, {
      "type" : "note",
      "tick" : 12864,
      "timeSeconds" : 27.7241176,
      "channel" : 5,
      "noteNumber" : 53,
      "noteName" : "F3",
      "velocity" : 108,
      "durationTicks" : 63,
      "durationSeconds" : 0.13577576249999979
    }, {
      "type" : "note",
      "tick" : 12864,
      "timeSeconds" : 27.7241176,
      "channel" : 5,
      "noteNumber" : 58,
      "noteName" : "A#3",
      "velocity" : 91,
      "durationTicks" : 68,
      "durationSeconds" : 0.14655161666666672
    }, {
      "type" : "note",
      "tick" : 13224,
      "timeSeconds" : 28.4999791,
      "channel" : 5,
      "noteNumber" : 49,
      "noteName" : "C#3",
      "velocity" : 91,
      "durationTicks" : 56,
      "durationSeconds" : 0.12068956666666608
    }, {
      "type" : "note",
      "tick" : 13224,
      "timeSeconds" : 28.4999791,
      "channel" : 5,
      "noteNumber" : 64,
      "noteName" : "E4",
      "velocity" : 101,
      "durationTicks" : 68,
      "durationSeconds" : 0.14655161666666672
    }, {
      "type" : "note",
      "tick" : 13224,
      "timeSeconds" : 28.4999791,
      "channel" : 5,
      "noteNumber" : 58,
      "noteName" : "A#3",
      "velocity" : 100,
      "durationTicks" : 71,
      "durationSeconds" : 0.15301712916666688
    }, {
      "type" : "note",
      "tick" : 13224,
      "timeSeconds" : 28.4999791,
      "channel" : 5,
      "noteNumber" : 55,
      "noteName" : "G3",
      "velocity" : 101,
      "durationTicks" : 72,
      "durationSeconds" : 0.15517230000000026
    }, {
      "type" : "note",
      "tick" : 13344,
      "timeSeconds" : 28.7585996,
      "channel" : 5,
      "noteNumber" : 55,
      "noteName" : "G3",
      "velocity" : 104,
      "durationTicks" : 55,
      "durationSeconds" : 0.1185343958333327
    }, {
      "type" : "note",
      "tick" : 13344,
      "timeSeconds" : 28.7585996,
      "channel" : 5,
      "noteNumber" : 64,
      "noteName" : "E4",
      "velocity" : 94,
      "durationTicks" : 59,
      "durationSeconds" : 0.12715507916666624
    }, {
      "type" : "note",
      "tick" : 13344,
      "timeSeconds" : 28.7585996,
      "channel" : 5,
      "noteNumber" : 49,
      "noteName" : "C#3",
      "velocity" : 91,
      "durationTicks" : 63,
      "durationSeconds" : 0.13577576249999979
    }, {
      "type" : "note",
      "tick" : 13344,
      "timeSeconds" : 28.7585996,
      "channel" : 5,
      "noteNumber" : 58,
      "noteName" : "A#3",
      "velocity" : 104,
      "durationTicks" : 64,
      "durationSeconds" : 0.13793093333333317
    }, {
      "type" : "note",
      "tick" : 13704,
      "timeSeconds" : 29.5344611,
      "channel" : 5,
      "noteNumber" : 50,
      "noteName" : "D3",
      "velocity" : 104,
      "durationTicks" : 51,
      "durationSeconds" : 0.10991371249999915
    }, {
      "type" : "note",
      "tick" : 13704,
      "timeSeconds" : 29.5344611,
      "channel" : 5,
      "noteNumber" : 53,
      "noteName" : "F3",
      "velocity" : 117,
      "durationTicks" : 55,
      "durationSeconds" : 0.1185343958333327
    }, {
      "type" : "note",
      "tick" : 13704,
      "timeSeconds" : 29.5344611,
      "channel" : 5,
      "noteNumber" : 64,
      "noteName" : "E4",
      "velocity" : 94,
      "durationTicks" : 59,
      "durationSeconds" : 0.12715507916666624
    }, {
      "type" : "note",
      "tick" : 13704,
      "timeSeconds" : 29.5344611,
      "channel" : 5,
      "noteNumber" : 60,
      "noteName" : "C4",
      "velocity" : 108,
      "durationTicks" : 61,
      "durationSeconds" : 0.131465420833333
    }, {
      "type" : "note",
      "tick" : 13824,
      "timeSeconds" : 29.7930816,
      "channel" : 5,
      "noteNumber" : 60,
      "noteName" : "C4",
      "velocity" : 104,
      "durationTicks" : 54,
      "durationSeconds" : 0.11637922499999931
    }, {
      "type" : "note",
      "tick" : 13824,
      "timeSeconds" : 29.7930816,
      "channel" : 5,
      "noteNumber" : 53,
      "noteName" : "F3",
      "velocity" : 108,
      "durationTicks" : 57,
      "durationSeconds" : 0.12284473749999947
    }, {
      "type" : "note",
      "tick" : 13824,
      "timeSeconds" : 29.7930816,
      "channel" : 5,
      "noteNumber" : 50,
      "noteName" : "D3",
      "velocity" : 117,
      "durationTicks" : 57,
      "durationSeconds" : 0.12284473749999947
    }, {
      "type" : "note",
      "tick" : 13824,
      "timeSeconds" : 29.7930816,
      "channel" : 5,
      "noteNumber" : 64,
      "noteName" : "E4",
      "velocity" : 88,
      "durationTicks" : 62,
      "durationSeconds" : 0.1336205916666664
    }, {
      "type" : "note",
      "tick" : 14184,
      "timeSeconds" : 30.5689431,
      "channel" : 5,
      "noteNumber" : 55,
      "noteName" : "G3",
      "velocity" : 113,
      "durationTicks" : 54,
      "durationSeconds" : 0.11637922500000286
    }, {
      "type" : "note",
      "tick" : 14184,
      "timeSeconds" : 30.5689431,
      "channel" : 5,
      "noteNumber" : 41,
      "noteName" : "F2",
      "velocity" : 117,
      "durationTicks" : 54,
      "durationSeconds" : 0.11637922500000286
    }, {
      "type" : "note",
      "tick" : 14184,
      "timeSeconds" : 30.5689431,
      "channel" : 5,
      "noteNumber" : 67,
      "noteName" : "G4",
      "velocity" : 108,
      "durationTicks" : 55,
      "durationSeconds" : 0.11853439583333625
    }, {
      "type" : "note",
      "tick" : 14184,
      "timeSeconds" : 30.5689431,
      "channel" : 5,
      "noteNumber" : 63,
      "noteName" : "D#4",
      "velocity" : 95,
      "durationTicks" : 56,
      "durationSeconds" : 0.12068956666666963
    }, {
      "type" : "note",
      "tick" : 14304,
      "timeSeconds" : 30.8275636,
      "channel" : 5,
      "noteNumber" : 67,
      "noteName" : "G4",
      "velocity" : 113,
      "durationTicks" : 49,
      "durationSeconds" : 0.10560337083333238
    }, {
      "type" : "note",
      "tick" : 14304,
      "timeSeconds" : 30.8275636,
      "channel" : 5,
      "noteNumber" : 41,
      "noteName" : "F2",
      "velocity" : 97,
      "durationTicks" : 58,
      "durationSeconds" : 0.12499990833333285
    }, {
      "type" : "note",
      "tick" : 14304,
      "timeSeconds" : 30.8275636,
      "channel" : 5,
      "noteNumber" : 63,
      "noteName" : "D#4",
      "velocity" : 100,
      "durationTicks" : 67,
      "durationSeconds" : 0.14439644583333333
    }, {
      "type" : "note",
      "tick" : 14304,
      "timeSeconds" : 30.8275636,
      "channel" : 5,
      "noteNumber" : 55,
      "noteName" : "G3",
      "velocity" : 101,
      "durationTicks" : 74,
      "durationSeconds" : 0.15948264166666704
    }, {
      "type" : "note",
      "tick" : 14664,
      "timeSeconds" : 31.6034251,
      "channel" : 5,
      "noteNumber" : 46,
      "noteName" : "A#2",
      "velocity" : 95,
      "durationTicks" : 52,
      "durationSeconds" : 0.11206888333333254
    }, {
      "type" : "note",
      "tick" : 14664,
      "timeSeconds" : 31.6034251,
      "channel" : 5,
      "noteNumber" : 62,
      "noteName" : "D4",
      "velocity" : 104,
      "durationTicks" : 66,
      "durationSeconds" : 0.14224127499999994
    }, {
      "type" : "note",
      "tick" : 14664,
      "timeSeconds" : 31.6034251,
      "channel" : 5,
      "noteNumber" : 57,
      "noteName" : "A3",
      "velocity" : 101,
      "durationTicks" : 67,
      "durationSeconds" : 0.14439644583333333
    }, {
      "type" : "note",
      "tick" : 14664,
      "timeSeconds" : 31.6034251,
      "channel" : 5,
      "noteNumber" : 65,
      "noteName" : "F4",
      "velocity" : 86,
      "durationTicks" : 71,
      "durationSeconds" : 0.15301712916666688
    }, {
      "type" : "note",
      "tick" : 14784,
      "timeSeconds" : 31.8620456,
      "channel" : 5,
      "noteNumber" : 46,
      "noteName" : "A#2",
      "velocity" : 95,
      "durationTicks" : 47,
      "durationSeconds" : 0.10129302916666916
    }, {
      "type" : "note",
      "tick" : 14784,
      "timeSeconds" : 31.8620456,
      "channel" : 5,
      "noteNumber" : 57,
      "noteName" : "A3",
      "velocity" : 104,
      "durationTicks" : 53,
      "durationSeconds" : 0.11422405416666948
    }, {
      "type" : "note",
      "tick" : 14784,
      "timeSeconds" : 31.8620456,
      "channel" : 5,
      "noteNumber" : 65,
      "noteName" : "F4",
      "velocity" : 104,
      "durationTicks" : 55,
      "durationSeconds" : 0.11853439583333625
    }, {
      "type" : "note",
      "tick" : 14784,
      "timeSeconds" : 31.8620456,
      "channel" : 5,
      "noteNumber" : 62,
      "noteName" : "D4",
      "velocity" : 113,
      "durationTicks" : 57,
      "durationSeconds" : 0.12284473750000302
    }, {
      "type" : "note",
      "tick" : 15144,
      "timeSeconds" : 32.6379071,
      "channel" : 5,
      "noteNumber" : 45,
      "noteName" : "A2",
      "velocity" : 117,
      "durationTicks" : 60,
      "durationSeconds" : 0.12931025000000318
    }, {
      "type" : "note",
      "tick" : 15144,
      "timeSeconds" : 32.6379071,
      "channel" : 5,
      "noteNumber" : 61,
      "noteName" : "C#4",
      "velocity" : 100,
      "durationTicks" : 63,
      "durationSeconds" : 0.13577576250000334
    }, {
      "type" : "note",
      "tick" : 15144,
      "timeSeconds" : 32.6379071,
      "channel" : 5,
      "noteNumber" : 55,
      "noteName" : "G3",
      "velocity" : 108,
      "durationTicks" : 65,
      "durationSeconds" : 0.1400861041666701
    }, {
      "type" : "note",
      "tick" : 15144,
      "timeSeconds" : 32.6379071,
      "channel" : 5,
      "noteNumber" : 65,
      "noteName" : "F4",
      "velocity" : 101,
      "durationTicks" : 68,
      "durationSeconds" : 0.14655161666667027
    }, {
      "type" : "note",
      "tick" : 15264,
      "timeSeconds" : 32.8965276,
      "channel" : 5,
      "noteNumber" : 65,
      "noteName" : "F4",
      "velocity" : 101,
      "durationTicks" : 49,
      "durationSeconds" : 0.10560337083333593
    }, {
      "type" : "note",
      "tick" : 15264,
      "timeSeconds" : 32.8965276,
      "channel" : 5,
      "noteNumber" : 45,
      "noteName" : "A2",
      "velocity" : 113,
      "durationTicks" : 56,
      "durationSeconds" : 0.12068956666666963
    }, {
      "type" : "note",
      "tick" : 15264,
      "timeSeconds" : 32.8965276,
      "channel" : 5,
      "noteNumber" : 55,
      "noteName" : "G3",
      "velocity" : 113,
      "durationTicks" : 60,
      "durationSeconds" : 0.12931025000000318
    }, {
      "type" : "note",
      "tick" : 15264,
      "timeSeconds" : 32.8965276,
      "channel" : 5,
      "noteNumber" : 61,
      "noteName" : "C#4",
      "velocity" : 104,
      "durationTicks" : 61,
      "durationSeconds" : 0.13146542083333657
    }, {
      "type" : "note",
      "tick" : 15624,
      "timeSeconds" : 33.6723891,
      "channel" : 5,
      "noteNumber" : 50,
      "noteName" : "D3",
      "velocity" : 101,
      "durationTicks" : 49,
      "durationSeconds" : 0.10560337083333593
    }, {
      "type" : "note",
      "tick" : 15624,
      "timeSeconds" : 33.6723891,
      "channel" : 5,
      "noteNumber" : 53,
      "noteName" : "F3",
      "velocity" : 108,
      "durationTicks" : 52,
      "durationSeconds" : 0.11206888333333609
    }, {
      "type" : "note",
      "tick" : 15624,
      "timeSeconds" : 33.6723891,
      "channel" : 5,
      "noteNumber" : 60,
      "noteName" : "C4",
      "velocity" : 108,
      "durationTicks" : 55,
      "durationSeconds" : 0.11853439583333625
    }, {
      "type" : "note",
      "tick" : 15624,
      "timeSeconds" : 33.6723891,
      "channel" : 5,
      "noteNumber" : 64,
      "noteName" : "E4",
      "velocity" : 88,
      "durationTicks" : 56,
      "durationSeconds" : 0.12068956666666963
    }, {
      "type" : "note",
      "tick" : 15744,
      "timeSeconds" : 33.9310096,
      "channel" : 5,
      "noteNumber" : 50,
      "noteName" : "D3",
      "velocity" : 108,
      "durationTicks" : 55,
      "durationSeconds" : 0.11853439583332914
    }, {
      "type" : "note",
      "tick" : 15744,
      "timeSeconds" : 33.9310096,
      "channel" : 5,
      "noteNumber" : 64,
      "noteName" : "E4",
      "velocity" : 91,
      "durationTicks" : 60,
      "durationSeconds" : 0.12931024999999607
    }, {
      "type" : "note",
      "tick" : 15744,
      "timeSeconds" : 33.9310096,
      "channel" : 5,
      "noteNumber" : 60,
      "noteName" : "C4",
      "velocity" : 113,
      "durationTicks" : 67,
      "durationSeconds" : 0.14439644583332978
    }, {
      "type" : "note",
      "tick" : 15744,
      "timeSeconds" : 33.9310096,
      "channel" : 5,
      "noteNumber" : 53,
      "noteName" : "F3",
      "velocity" : 108,
      "durationTicks" : 74,
      "durationSeconds" : 0.15948264166666348
    }, {
      "type" : "note",
      "tick" : 15984,
      "timeSeconds" : 34.4482506,
      "channel" : 5,
      "noteNumber" : 55,
      "noteName" : "G3",
      "velocity" : 97,
      "durationTicks" : 19,
      "durationSeconds" : 0.04094824583333434
    }, {
      "type" : "note",
      "tick" : 15984,
      "timeSeconds" : 34.4482506,
      "channel" : 5,
      "noteNumber" : 58,
      "noteName" : "A#3",
      "velocity" : 95,
      "durationTicks" : 30,
      "durationSeconds" : 0.06465512500000159
    }, {
      "type" : "note",
      "tick" : 15984,
      "timeSeconds" : 34.4482506,
      "channel" : 5,
      "noteNumber" : 53,
      "noteName" : "F3",
      "velocity" : 104,
      "durationTicks" : 35,
      "durationSeconds" : 0.07543097916666852
    }, {
      "type" : "note",
      "tick" : 15984,
      "timeSeconds" : 34.4482506,
      "channel" : 5,
      "noteNumber" : 64,
      "noteName" : "E4",
      "velocity" : 94,
      "durationTicks" : 42,
      "durationSeconds" : 0.09051717499999512
    }, {
      "type" : "note",
      "tick" : 15984,
      "timeSeconds" : 34.4482506,
      "channel" : 5,
      "noteNumber" : 42,
      "noteName" : "F#2",
      "velocity" : 100,
      "durationTicks" : 93,
      "durationSeconds" : 0.20043088749999782
    }, {
      "type" : "note",
      "tick" : 16224,
      "timeSeconds" : 34.9654916,
      "channel" : 5,
      "noteNumber" : 42,
      "noteName" : "F#2",
      "velocity" : 110,
      "durationTicks" : 45,
      "durationSeconds" : 0.09698268750000238
    }, {
      "type" : "note",
      "tick" : 16224,
      "timeSeconds" : 34.9654916,
      "channel" : 5,
      "noteNumber" : 64,
      "noteName" : "E4",
      "velocity" : 97,
      "durationTicks" : 49,
      "durationSeconds" : 0.10560337083333593
    }, {
      "type" : "note",
      "tick" : 16224,
      "timeSeconds" : 34.9654916,
      "channel" : 5,
      "noteNumber" : 52,
      "noteName" : "E3",
      "velocity" : 104,
      "durationTicks" : 52,
      "durationSeconds" : 0.11206888333333609
    }, {
      "type" : "note",
      "tick" : 16224,
      "timeSeconds" : 34.9654916,
      "channel" : 5,
      "noteNumber" : 58,
      "noteName" : "A#3",
      "velocity" : 95,
      "durationTicks" : 67,
      "durationSeconds" : 0.14439644583332978
    }, {
      "type" : "note",
      "tick" : 16584,
      "timeSeconds" : 35.7413531,
      "channel" : 5,
      "noteNumber" : 53,
      "noteName" : "F3",
      "velocity" : 113,
      "durationTicks" : 54,
      "durationSeconds" : 0.11637922500000286
    }, {
      "type" : "note",
      "tick" : 16584,
      "timeSeconds" : 35.7413531,
      "channel" : 5,
      "noteNumber" : 43,
      "noteName" : "G2",
      "velocity" : 108,
      "durationTicks" : 59,
      "durationSeconds" : 0.1271550791666698
    }, {
      "type" : "note",
      "tick" : 16584,
      "timeSeconds" : 35.7413531,
      "channel" : 5,
      "noteNumber" : 62,
      "noteName" : "D4",
      "velocity" : 97,
      "durationTicks" : 64,
      "durationSeconds" : 0.13793093333333672
    }, {
      "type" : "note",
      "tick" : 16584,
      "timeSeconds" : 35.7413531,
      "channel" : 5,
      "noteNumber" : 58,
      "noteName" : "A#3",
      "velocity" : 95,
      "durationTicks" : 65,
      "durationSeconds" : 0.1400861041666701
    }, {
      "type" : "note",
      "tick" : 16704,
      "timeSeconds" : 35.9999736,
      "channel" : 5,
      "noteNumber" : 53,
      "noteName" : "F3",
      "velocity" : 113,
      "durationTicks" : 38,
      "durationSeconds" : 0.08189649166666868
    }, {
      "type" : "note",
      "tick" : 16704,
      "timeSeconds" : 35.9999736,
      "channel" : 5,
      "noteNumber" : 58,
      "noteName" : "A#3",
      "velocity" : 100,
      "durationTicks" : 47,
      "durationSeconds" : 0.10129302916666916
    }, {
      "type" : "note",
      "tick" : 16704,
      "timeSeconds" : 35.9999736,
      "channel" : 5,
      "noteNumber" : 62,
      "noteName" : "D4",
      "velocity" : 86,
      "durationTicks" : 47,
      "durationSeconds" : 0.10129302916666916
    }, {
      "type" : "note",
      "tick" : 16704,
      "timeSeconds" : 35.9999736,
      "channel" : 5,
      "noteNumber" : 43,
      "noteName" : "G2",
      "velocity" : 101,
      "durationTicks" : 61,
      "durationSeconds" : 0.13146542083333657
    }, {
      "type" : "note",
      "tick" : 17064,
      "timeSeconds" : 36.7758351,
      "channel" : 5,
      "noteNumber" : 49,
      "noteName" : "C#3",
      "velocity" : 83,
      "durationTicks" : 60,
      "durationSeconds" : 0.12931024999999607
    }, {
      "type" : "note",
      "tick" : 17064,
      "timeSeconds" : 36.7758351,
      "channel" : 5,
      "noteNumber" : 62,
      "noteName" : "D4",
      "velocity" : 81,
      "durationTicks" : 64,
      "durationSeconds" : 0.13793093333332962
    }, {
      "type" : "note",
      "tick" : 17064,
      "timeSeconds" : 36.7758351,
      "channel" : 5,
      "noteNumber" : 58,
      "noteName" : "A#3",
      "velocity" : 80,
      "durationTicks" : 67,
      "durationSeconds" : 0.14439644583332978
    }, {
      "type" : "note",
      "tick" : 17184,
      "timeSeconds" : 37.0344556,
      "channel" : 5,
      "noteNumber" : 62,
      "noteName" : "D4",
      "velocity" : 101,
      "durationTicks" : 63,
      "durationSeconds" : 0.13577576249999623
    }, {
      "type" : "note",
      "tick" : 17184,
      "timeSeconds" : 37.0344556,
      "channel" : 5,
      "noteNumber" : 49,
      "noteName" : "C#3",
      "velocity" : 95,
      "durationTicks" : 65,
      "durationSeconds" : 0.140086104166663
    }, {
      "type" : "note",
      "tick" : 17184,
      "timeSeconds" : 37.0344556,
      "channel" : 5,
      "noteNumber" : 58,
      "noteName" : "A#3",
      "velocity" : 100,
      "durationTicks" : 67,
      "durationSeconds" : 0.14439644583332978
    }, {
      "type" : "note",
      "tick" : 17544,
      "timeSeconds" : 37.8103171,
      "channel" : 5,
      "noteNumber" : 50,
      "noteName" : "D3",
      "velocity" : 101,
      "durationTicks" : 52,
      "durationSeconds" : 0.11206888333333609
    }, {
      "type" : "note",
      "tick" : 17544,
      "timeSeconds" : 37.8103171,
      "channel" : 5,
      "noteNumber" : 64,
      "noteName" : "E4",
      "velocity" : 86,
      "durationTicks" : 66,
      "durationSeconds" : 0.1422412750000035
    }, {
      "type" : "note",
      "tick" : 17544,
      "timeSeconds" : 37.8103171,
      "channel" : 5,
      "noteNumber" : 60,
      "noteName" : "C4",
      "velocity" : 97,
      "durationTicks" : 66,
      "durationSeconds" : 0.1422412750000035
    }, {
      "type" : "note",
      "tick" : 17544,
      "timeSeconds" : 37.8103171,
      "channel" : 5,
      "noteNumber" : 53,
      "noteName" : "F3",
      "velocity" : 88,
      "durationTicks" : 69,
      "durationSeconds" : 0.14870678750000366
    }, {
      "type" : "note",
      "tick" : 17664,
      "timeSeconds" : 38.0689376,
      "channel" : 5,
      "noteNumber" : 53,
      "noteName" : "F3",
      "velocity" : 108,
      "durationTicks" : 48,
      "durationSeconds" : 0.10344820000000254
    }, {
      "type" : "note",
      "tick" : 17664,
      "timeSeconds" : 38.0689376,
      "channel" : 5,
      "noteNumber" : 60,
      "noteName" : "C4",
      "velocity" : 113,
      "durationTicks" : 56,
      "durationSeconds" : 0.12068956666666963
    }, {
      "type" : "note",
      "tick" : 17664,
      "timeSeconds" : 38.0689376,
      "channel" : 5,
      "noteNumber" : 50,
      "noteName" : "D3",
      "velocity" : 108,
      "durationTicks" : 57,
      "durationSeconds" : 0.12284473750000302
    }, {
      "type" : "note",
      "tick" : 17664,
      "timeSeconds" : 38.0689376,
      "channel" : 5,
      "noteNumber" : 64,
      "noteName" : "E4",
      "velocity" : 94,
      "durationTicks" : 62,
      "durationSeconds" : 0.13362059166666995
    }, {
      "type" : "note",
      "tick" : 18024,
      "timeSeconds" : 38.8447991,
      "channel" : 5,
      "noteNumber" : 57,
      "noteName" : "A3",
      "velocity" : 94,
      "durationTicks" : 59,
      "durationSeconds" : 0.1271550791666627
    }, {
      "type" : "note",
      "tick" : 18024,
      "timeSeconds" : 38.8447991,
      "channel" : 5,
      "noteNumber" : 41,
      "noteName" : "F2",
      "velocity" : 108,
      "durationTicks" : 61,
      "durationSeconds" : 0.13146542083332946
    }, {
      "type" : "note",
      "tick" : 18024,
      "timeSeconds" : 38.8447991,
      "channel" : 5,
      "noteNumber" : 67,
      "noteName" : "G4",
      "velocity" : 108,
      "durationTicks" : 65,
      "durationSeconds" : 0.140086104166663
    }, {
      "type" : "note",
      "tick" : 18024,
      "timeSeconds" : 38.8447991,
      "channel" : 5,
      "noteNumber" : 63,
      "noteName" : "D#4",
      "velocity" : 95,
      "durationTicks" : 69,
      "durationSeconds" : 0.14870678749999655
    }, {
      "type" : "note",
      "tick" : 18144,
      "timeSeconds" : 39.1034196,
      "channel" : 5,
      "noteNumber" : 67,
      "noteName" : "G4",
      "velocity" : 101,
      "durationTicks" : 50,
      "durationSeconds" : 0.10775854166666221
    }, {
      "type" : "note",
      "tick" : 18144,
      "timeSeconds" : 39.1034196,
      "channel" : 5,
      "noteNumber" : 41,
      "noteName" : "F2",
      "velocity" : 101,
      "durationTicks" : 60,
      "durationSeconds" : 0.12931024999999607
    }, {
      "type" : "note",
      "tick" : 18144,
      "timeSeconds" : 39.1034196,
      "channel" : 5,
      "noteNumber" : 57,
      "noteName" : "A3",
      "velocity" : 101,
      "durationTicks" : 63,
      "durationSeconds" : 0.13577576249999623
    }, {
      "type" : "note",
      "tick" : 18144,
      "timeSeconds" : 39.1034196,
      "channel" : 5,
      "noteNumber" : 63,
      "noteName" : "D#4",
      "velocity" : 91,
      "durationTicks" : 65,
      "durationSeconds" : 0.140086104166663
    }, {
      "type" : "note",
      "tick" : 18504,
      "timeSeconds" : 39.8792811,
      "channel" : 5,
      "noteNumber" : 67,
      "noteName" : "G4",
      "velocity" : 104,
      "durationTicks" : 51,
      "durationSeconds" : 0.1099137125000027
    }, {
      "type" : "note",
      "tick" : 18504,
      "timeSeconds" : 39.8792811,
      "channel" : 5,
      "noteNumber" : 57,
      "noteName" : "A3",
      "velocity" : 94,
      "durationTicks" : 54,
      "durationSeconds" : 0.11637922500000286
    }, {
      "type" : "note",
      "tick" : 18504,
      "timeSeconds" : 39.8792811,
      "channel" : 5,
      "noteNumber" : 62,
      "noteName" : "D4",
      "velocity" : 94,
      "durationTicks" : 63,
      "durationSeconds" : 0.13577576250000334
    }, {
      "type" : "note",
      "tick" : 18504,
      "timeSeconds" : 39.8792811,
      "channel" : 5,
      "noteNumber" : 46,
      "noteName" : "A#2",
      "velocity" : 80,
      "durationTicks" : 63,
      "durationSeconds" : 0.13577576250000334
    }, {
      "type" : "note",
      "tick" : 18624,
      "timeSeconds" : 40.1379016,
      "channel" : 5,
      "noteNumber" : 46,
      "noteName" : "A#2",
      "velocity" : 87,
      "durationTicks" : 55,
      "durationSeconds" : 0.11853439583333625
    }, {
      "type" : "note",
      "tick" : 18624,
      "timeSeconds" : 40.1379016,
      "channel" : 5,
      "noteNumber" : 57,
      "noteName" : "A3",
      "velocity" : 97,
      "durationTicks" : 58,
      "durationSeconds" : 0.12499990833333641
    }, {
      "type" : "note",
      "tick" : 18624,
      "timeSeconds" : 40.1379016,
      "channel" : 5,
      "noteNumber" : 67,
      "noteName" : "G4",
      "velocity" : 108,
      "durationTicks" : 58,
      "durationSeconds" : 0.12499990833333641
    }, {
      "type" : "note",
      "tick" : 18624,
      "timeSeconds" : 40.1379016,
      "channel" : 5,
      "noteNumber" : 62,
      "noteName" : "D4",
      "velocity" : 108,
      "durationTicks" : 70,
      "durationSeconds" : 0.15086195833333704
    }, {
      "type" : "note",
      "tick" : 18984,
      "timeSeconds" : 40.9137631,
      "channel" : 5,
      "noteNumber" : 45,
      "noteName" : "A2",
      "velocity" : 104,
      "durationTicks" : 56,
      "durationSeconds" : 0.12068956666666963
    }, {
      "type" : "note",
      "tick" : 18984,
      "timeSeconds" : 40.9137631,
      "channel" : 5,
      "noteNumber" : 55,
      "noteName" : "G3",
      "velocity" : 104,
      "durationTicks" : 63,
      "durationSeconds" : 0.13577576250000334
    }, {
      "type" : "note",
      "tick" : 18984,
      "timeSeconds" : 40.9137631,
      "channel" : 5,
      "noteNumber" : 61,
      "noteName" : "C#4",
      "velocity" : 95,
      "durationTicks" : 65,
      "durationSeconds" : 0.1400861041666701
    }, {
      "type" : "note",
      "tick" : 18984,
      "timeSeconds" : 40.9137631,
      "channel" : 5,
      "noteNumber" : 65,
      "noteName" : "F4",
      "velocity" : 94,
      "durationTicks" : 65,
      "durationSeconds" : 0.1400861041666701
    }, {
      "type" : "note",
      "tick" : 19104,
      "timeSeconds" : 41.1723836,
      "channel" : 5,
      "noteNumber" : 61,
      "noteName" : "C#4",
      "velocity" : 80,
      "durationTicks" : 55,
      "durationSeconds" : 0.11853439583332914
    }, {
      "type" : "note",
      "tick" : 19104,
      "timeSeconds" : 41.1723836,
      "channel" : 5,
      "noteNumber" : 45,
      "noteName" : "A2",
      "velocity" : 88,
      "durationTicks" : 55,
      "durationSeconds" : 0.11853439583332914
    }, {
      "type" : "note",
      "tick" : 19104,
      "timeSeconds" : 41.1723836,
      "channel" : 5,
      "noteNumber" : 65,
      "noteName" : "F4",
      "velocity" : 86,
      "durationTicks" : 57,
      "durationSeconds" : 0.12284473749999592
    }, {
      "type" : "note",
      "tick" : 19104,
      "timeSeconds" : 41.1723836,
      "channel" : 5,
      "noteNumber" : 55,
      "noteName" : "G3",
      "velocity" : 86,
      "durationTicks" : 59,
      "durationSeconds" : 0.1271550791666627
    }, {
      "type" : "note",
      "tick" : 19464,
      "timeSeconds" : 41.9482451,
      "channel" : 5,
      "noteNumber" : 50,
      "noteName" : "D3",
      "velocity" : 101,
      "durationTicks" : 50,
      "durationSeconds" : 0.10775854166666221
    }, {
      "type" : "note",
      "tick" : 19464,
      "timeSeconds" : 41.9482451,
      "channel" : 5,
      "noteNumber" : 53,
      "noteName" : "F3",
      "velocity" : 108,
      "durationTicks" : 64,
      "durationSeconds" : 0.13793093333332962
    }, {
      "type" : "note",
      "tick" : 19464,
      "timeSeconds" : 41.9482451,
      "channel" : 5,
      "noteNumber" : 64,
      "noteName" : "E4",
      "velocity" : 88,
      "durationTicks" : 64,
      "durationSeconds" : 0.13793093333332962
    }, {
      "type" : "note",
      "tick" : 19464,
      "timeSeconds" : 41.9482451,
      "channel" : 5,
      "noteNumber" : 60,
      "noteName" : "C4",
      "velocity" : 108,
      "durationTicks" : 68,
      "durationSeconds" : 0.14655161666666316
    }, {
      "type" : "note",
      "tick" : 19584,
      "timeSeconds" : 42.2068656,
      "channel" : 5,
      "noteNumber" : 50,
      "noteName" : "D3",
      "velocity" : 117,
      "durationTicks" : 50,
      "durationSeconds" : 0.10775854166666932
    }, {
      "type" : "note",
      "tick" : 19584,
      "timeSeconds" : 42.2068656,
      "channel" : 5,
      "noteNumber" : 53,
      "noteName" : "F3",
      "velocity" : 113,
      "durationTicks" : 55,
      "durationSeconds" : 0.11853439583333625
    }, {
      "type" : "note",
      "tick" : 19584,
      "timeSeconds" : 42.2068656,
      "channel" : 5,
      "noteNumber" : 60,
      "noteName" : "C4",
      "velocity" : 108,
      "durationTicks" : 56,
      "durationSeconds" : 0.12068956666666963
    }, {
      "type" : "note",
      "tick" : 19584,
      "timeSeconds" : 42.2068656,
      "channel" : 5,
      "noteNumber" : 64,
      "noteName" : "E4",
      "velocity" : 88,
      "durationTicks" : 57,
      "durationSeconds" : 0.12284473750000302
    }, {
      "type" : "note",
      "tick" : 19944,
      "timeSeconds" : 42.9827271,
      "channel" : 5,
      "noteNumber" : 42,
      "noteName" : "F#2",
      "velocity" : 104,
      "durationTicks" : 52,
      "durationSeconds" : 0.11206888333333609
    }, {
      "type" : "note",
      "tick" : 19944,
      "timeSeconds" : 42.9827271,
      "channel" : 5,
      "noteNumber" : 64,
      "noteName" : "E4",
      "velocity" : 91,
      "durationTicks" : 68,
      "durationSeconds" : 0.14655161666667027
    }, {
      "type" : "note",
      "tick" : 19944,
      "timeSeconds" : 42.9827271,
      "channel" : 5,
      "noteNumber" : 52,
      "noteName" : "E3",
      "velocity" : 104,
      "durationTicks" : 72,
      "durationSeconds" : 0.15517230000000382
    }, {
      "type" : "note",
      "tick" : 19944,
      "timeSeconds" : 42.9827271,
      "channel" : 5,
      "noteNumber" : 58,
      "noteName" : "A#3",
      "velocity" : 91,
      "durationTicks" : 73,
      "durationSeconds" : 0.1573274708333372
    }, {
      "type" : "note",
      "tick" : 20064,
      "timeSeconds" : 43.2413476,
      "channel" : 5,
      "noteNumber" : 42,
      "noteName" : "F#2",
      "velocity" : 104,
      "durationTicks" : 58,
      "durationSeconds" : 0.12499990833333641
    }, {
      "type" : "note",
      "tick" : 20064,
      "timeSeconds" : 43.2413476,
      "channel" : 5,
      "noteNumber" : 52,
      "noteName" : "E3",
      "velocity" : 97,
      "durationTicks" : 69,
      "durationSeconds" : 0.14870678750000366
    }, {
      "type" : "note",
      "tick" : 20064,
      "timeSeconds" : 43.2413476,
      "channel" : 5,
      "noteNumber" : 64,
      "noteName" : "E4",
      "velocity" : 97,
      "durationTicks" : 69,
      "durationSeconds" : 0.14870678750000366
    }, {
      "type" : "note",
      "tick" : 20064,
      "timeSeconds" : 43.2413476,
      "channel" : 5,
      "noteNumber" : 58,
      "noteName" : "A#3",
      "velocity" : 100,
      "durationTicks" : 71,
      "durationSeconds" : 0.15301712916667043
    }, {
      "type" : "note",
      "tick" : 20424,
      "timeSeconds" : 44.0172091,
      "channel" : 5,
      "noteNumber" : 58,
      "noteName" : "A#3",
      "velocity" : 95,
      "durationTicks" : 51,
      "durationSeconds" : 0.1099137124999956
    }, {
      "type" : "note",
      "tick" : 20424,
      "timeSeconds" : 44.0172091,
      "channel" : 5,
      "noteNumber" : 53,
      "noteName" : "F3",
      "velocity" : 104,
      "durationTicks" : 53,
      "durationSeconds" : 0.11422405416666237
    }, {
      "type" : "note",
      "tick" : 20424,
      "timeSeconds" : 44.0172091,
      "channel" : 5,
      "noteNumber" : 62,
      "noteName" : "D4",
      "velocity" : 108,
      "durationTicks" : 56,
      "durationSeconds" : 0.12068956666666253
    }, {
      "type" : "note",
      "tick" : 20424,
      "timeSeconds" : 44.0172091,
      "channel" : 5,
      "noteNumber" : 43,
      "noteName" : "G2",
      "velocity" : 108,
      "durationTicks" : 56,
      "durationSeconds" : 0.12068956666666253
    }, {
      "type" : "note",
      "tick" : 20544,
      "timeSeconds" : 44.2758296,
      "channel" : 5,
      "noteNumber" : 53,
      "noteName" : "F3",
      "velocity" : 113,
      "durationTicks" : 51,
      "durationSeconds" : 0.1099137124999956
    }, {
      "type" : "note",
      "tick" : 20544,
      "timeSeconds" : 44.2758296,
      "channel" : 5,
      "noteNumber" : 58,
      "noteName" : "A#3",
      "velocity" : 100,
      "durationTicks" : 60,
      "durationSeconds" : 0.12931024999999607
    }, {
      "type" : "note",
      "tick" : 20544,
      "timeSeconds" : 44.2758296,
      "channel" : 5,
      "noteNumber" : 62,
      "noteName" : "D4",
      "velocity" : 97,
      "durationTicks" : 60,
      "durationSeconds" : 0.12931024999999607
    }, {
      "type" : "note",
      "tick" : 20544,
      "timeSeconds" : 44.2758296,
      "channel" : 5,
      "noteNumber" : 43,
      "noteName" : "G2",
      "velocity" : 104,
      "durationTicks" : 70,
      "durationSeconds" : 0.15086195833332994
    }, {
      "type" : "note",
      "tick" : 20904,
      "timeSeconds" : 45.0516911,
      "channel" : 5,
      "noteNumber" : 49,
      "noteName" : "C#3",
      "velocity" : 71,
      "durationTicks" : 60,
      "durationSeconds" : 0.12931025000000318
    }, {
      "type" : "note",
      "tick" : 20904,
      "timeSeconds" : 45.0516911,
      "channel" : 5,
      "noteNumber" : 64,
      "noteName" : "E4",
      "velocity" : 81,
      "durationTicks" : 65,
      "durationSeconds" : 0.1400861041666701
    }, {
      "type" : "note",
      "tick" : 20904,
      "timeSeconds" : 45.0516911,
      "channel" : 5,
      "noteNumber" : 58,
      "noteName" : "A#3",
      "velocity" : 87,
      "durationTicks" : 66,
      "durationSeconds" : 0.1422412750000035
    }, {
      "type" : "note",
      "tick" : 20904,
      "timeSeconds" : 45.0516911,
      "channel" : 5,
      "noteNumber" : 55,
      "noteName" : "G3",
      "velocity" : 75,
      "durationTicks" : 66,
      "durationSeconds" : 0.1422412750000035
    }, {
      "type" : "note",
      "tick" : 21024,
      "timeSeconds" : 45.3103116,
      "channel" : 5,
      "noteNumber" : 58,
      "noteName" : "A#3",
      "velocity" : 104,
      "durationTicks" : 64,
      "durationSeconds" : 0.13793093333333672
    }, {
      "type" : "note",
      "tick" : 21024,
      "timeSeconds" : 45.3103116,
      "channel" : 5,
      "noteNumber" : 64,
      "noteName" : "E4",
      "velocity" : 97,
      "durationTicks" : 66,
      "durationSeconds" : 0.1422412750000035
    }, {
      "type" : "note",
      "tick" : 21024,
      "timeSeconds" : 45.3103116,
      "channel" : 5,
      "noteNumber" : 55,
      "noteName" : "G3",
      "velocity" : 101,
      "durationTicks" : 67,
      "durationSeconds" : 0.14439644583333688
    }, {
      "type" : "note",
      "tick" : 21024,
      "timeSeconds" : 45.3103116,
      "channel" : 5,
      "noteNumber" : 49,
      "noteName" : "C#3",
      "velocity" : 73,
      "durationTicks" : 67,
      "durationSeconds" : 0.14439644583333688
    }, {
      "type" : "note",
      "tick" : 21384,
      "timeSeconds" : 46.0861731,
      "channel" : 5,
      "noteNumber" : 50,
      "noteName" : "D3",
      "velocity" : 104,
      "durationTicks" : 57,
      "durationSeconds" : 0.12284473749999592
    }, {
      "type" : "note",
      "tick" : 21384,
      "timeSeconds" : 46.0861731,
      "channel" : 5,
      "noteNumber" : 53,
      "noteName" : "F3",
      "velocity" : 117,
      "durationTicks" : 62,
      "durationSeconds" : 0.13362059166666285
    }, {
      "type" : "note",
      "tick" : 21384,
      "timeSeconds" : 46.0861731,
      "channel" : 5,
      "noteNumber" : 64,
      "noteName" : "E4",
      "velocity" : 94,
      "durationTicks" : 65,
      "durationSeconds" : 0.140086104166663
    }, {
      "type" : "note",
      "tick" : 21384,
      "timeSeconds" : 46.0861731,
      "channel" : 5,
      "noteNumber" : 60,
      "noteName" : "C4",
      "velocity" : 117,
      "durationTicks" : 71,
      "durationSeconds" : 0.15301712916666332
    }, {
      "type" : "note",
      "tick" : 21504,
      "timeSeconds" : 46.3447936,
      "channel" : 5,
      "noteNumber" : 53,
      "noteName" : "F3",
      "velocity" : 97,
      "durationTicks" : 51,
      "durationSeconds" : 0.1099137124999956
    }, {
      "type" : "note",
      "tick" : 21504,
      "timeSeconds" : 46.3447936,
      "channel" : 5,
      "noteNumber" : 50,
      "noteName" : "D3",
      "velocity" : 104,
      "durationTicks" : 52,
      "durationSeconds" : 0.11206888333332898
    }, {
      "type" : "note",
      "tick" : 21504,
      "timeSeconds" : 46.3447936,
      "channel" : 5,
      "noteNumber" : 60,
      "noteName" : "C4",
      "velocity" : 101,
      "durationTicks" : 54,
      "durationSeconds" : 0.11637922499999576
    }, {
      "type" : "note",
      "tick" : 21504,
      "timeSeconds" : 46.3447936,
      "channel" : 5,
      "noteNumber" : 64,
      "noteName" : "E4",
      "velocity" : 86,
      "durationTicks" : 57,
      "durationSeconds" : 0.12284473749999592
    }, {
      "type" : "note",
      "tick" : 21864,
      "timeSeconds" : 47.1206551,
      "channel" : 5,
      "noteNumber" : 41,
      "noteName" : "F2",
      "velocity" : 113,
      "durationTicks" : 61,
      "durationSeconds" : 0.13146542083332946
    }, {
      "type" : "note",
      "tick" : 21864,
      "timeSeconds" : 47.1206551,
      "channel" : 5,
      "noteNumber" : 67,
      "noteName" : "G4",
      "velocity" : 108,
      "durationTicks" : 64,
      "durationSeconds" : 0.13793093333332962
    }, {
      "type" : "note",
      "tick" : 21864,
      "timeSeconds" : 47.1206551,
      "channel" : 5,
      "noteNumber" : 55,
      "noteName" : "G3",
      "velocity" : 97,
      "durationTicks" : 73,
      "durationSeconds" : 0.1573274708333301
    }, {
      "type" : "note",
      "tick" : 21864,
      "timeSeconds" : 47.1206551,
      "channel" : 5,
      "noteNumber" : 63,
      "noteName" : "D#4",
      "velocity" : 87,
      "durationTicks" : 73,
      "durationSeconds" : 0.1573274708333301
    }, {
      "type" : "note",
      "tick" : 21984,
      "timeSeconds" : 47.3792756,
      "channel" : 5,
      "noteNumber" : 67,
      "noteName" : "G4",
      "velocity" : 113,
      "durationTicks" : 49,
      "durationSeconds" : 0.10560337083333593
    }, {
      "type" : "note",
      "tick" : 21984,
      "timeSeconds" : 47.3792756,
      "channel" : 5,
      "noteNumber" : 55,
      "noteName" : "G3",
      "velocity" : 101,
      "durationTicks" : 56,
      "durationSeconds" : 0.12068956666666963
    }, {
      "type" : "note",
      "tick" : 21984,
      "timeSeconds" : 47.3792756,
      "channel" : 5,
      "noteNumber" : 41,
      "noteName" : "F2",
      "velocity" : 108,
      "durationTicks" : 66,
      "durationSeconds" : 0.1422412750000035
    }, {
      "type" : "note",
      "tick" : 21984,
      "timeSeconds" : 47.3792756,
      "channel" : 5,
      "noteNumber" : 63,
      "noteName" : "D#4",
      "velocity" : 95,
      "durationTicks" : 69,
      "durationSeconds" : 0.14870678750000366
    }, {
      "type" : "note",
      "tick" : 22344,
      "timeSeconds" : 48.1551371,
      "channel" : 5,
      "noteNumber" : 46,
      "noteName" : "A#2",
      "velocity" : 87,
      "durationTicks" : 57,
      "durationSeconds" : 0.12284473750000302
    }, {
      "type" : "note",
      "tick" : 22344,
      "timeSeconds" : 48.1551371,
      "channel" : 5,
      "noteNumber" : 67,
      "noteName" : "G4",
      "velocity" : 108,
      "durationTicks" : 65,
      "durationSeconds" : 0.1400861041666701
    }, {
      "type" : "note",
      "tick" : 22344,
      "timeSeconds" : 48.1551371,
      "channel" : 5,
      "noteNumber" : 57,
      "noteName" : "A3",
      "velocity" : 104,
      "durationTicks" : 66,
      "durationSeconds" : 0.1422412750000035
    }, {
      "type" : "note",
      "tick" : 22344,
      "timeSeconds" : 48.1551371,
      "channel" : 5,
      "noteNumber" : 62,
      "noteName" : "D4",
      "velocity" : 108,
      "durationTicks" : 74,
      "durationSeconds" : 0.1594826416666706
    }, {
      "type" : "note",
      "tick" : 22464,
      "timeSeconds" : 48.4137576,
      "channel" : 5,
      "noteNumber" : 57,
      "noteName" : "A3",
      "velocity" : 101,
      "durationTicks" : 54,
      "durationSeconds" : 0.11637922500000286
    }, {
      "type" : "note",
      "tick" : 22464,
      "timeSeconds" : 48.4137576,
      "channel" : 5,
      "noteNumber" : 67,
      "noteName" : "G4",
      "velocity" : 104,
      "durationTicks" : 59,
      "durationSeconds" : 0.1271550791666698
    }, {
      "type" : "note",
      "tick" : 22464,
      "timeSeconds" : 48.4137576,
      "channel" : 5,
      "noteNumber" : 46,
      "noteName" : "A#2",
      "velocity" : 80,
      "durationTicks" : 59,
      "durationSeconds" : 0.1271550791666698
    }, {
      "type" : "note",
      "tick" : 22464,
      "timeSeconds" : 48.4137576,
      "channel" : 5,
      "noteNumber" : 62,
      "noteName" : "D4",
      "velocity" : 101,
      "durationTicks" : 64,
      "durationSeconds" : 0.13793093333333672
    }, {
      "type" : "note",
      "tick" : 22824,
      "timeSeconds" : 49.1896191,
      "channel" : 5,
      "noteNumber" : 67,
      "noteName" : "G4",
      "velocity" : 113,
      "durationTicks" : 50,
      "durationSeconds" : 0.10775854166666221
    }, {
      "type" : "note",
      "tick" : 22824,
      "timeSeconds" : 49.1896191,
      "channel" : 5,
      "noteNumber" : 46,
      "noteName" : "A#2",
      "velocity" : 95,
      "durationTicks" : 56,
      "durationSeconds" : 0.12068956666666253
    }, {
      "type" : "note",
      "tick" : 22824,
      "timeSeconds" : 49.1896191,
      "channel" : 5,
      "noteNumber" : 62,
      "noteName" : "D4",
      "velocity" : 104,
      "durationTicks" : 59,
      "durationSeconds" : 0.1271550791666627
    }, {
      "type" : "note",
      "tick" : 22824,
      "timeSeconds" : 49.1896191,
      "channel" : 5,
      "noteNumber" : 57,
      "noteName" : "A3",
      "velocity" : 101,
      "durationTicks" : 65,
      "durationSeconds" : 0.140086104166663
    }, {
      "type" : "note",
      "tick" : 22944,
      "timeSeconds" : 49.4482396,
      "channel" : 5,
      "noteNumber" : 67,
      "noteName" : "G4",
      "velocity" : 97,
      "durationTicks" : 41,
      "durationSeconds" : 0.08836200416666884
    }, {
      "type" : "note",
      "tick" : 22944,
      "timeSeconds" : 49.4482396,
      "channel" : 5,
      "noteNumber" : 46,
      "noteName" : "A#2",
      "velocity" : 80,
      "durationTicks" : 51,
      "durationSeconds" : 0.1099137125000027
    }, {
      "type" : "note",
      "tick" : 22944,
      "timeSeconds" : 49.4482396,
      "channel" : 5,
      "noteNumber" : 62,
      "noteName" : "D4",
      "velocity" : 97,
      "durationTicks" : 56,
      "durationSeconds" : 0.12068956666666253
    }, {
      "type" : "note",
      "tick" : 22944,
      "timeSeconds" : 49.4482396,
      "channel" : 5,
      "noteNumber" : 57,
      "noteName" : "A3",
      "velocity" : 86,
      "durationTicks" : 63,
      "durationSeconds" : 0.13577576249999623
    }, {
      "type" : "note",
      "tick" : 23304,
      "timeSeconds" : 50.2241011,
      "channel" : 5,
      "noteNumber" : 55,
      "noteName" : "G3",
      "velocity" : 108,
      "durationTicks" : 56,
      "durationSeconds" : 0.12068956666666963
    }, {
      "type" : "note",
      "tick" : 23304,
      "timeSeconds" : 50.2241011,
      "channel" : 5,
      "noteNumber" : 64,
      "noteName" : "E4",
      "velocity" : 94,
      "durationTicks" : 57,
      "durationSeconds" : 0.12284473750000302
    }, {
      "type" : "note",
      "tick" : 23304,
      "timeSeconds" : 50.2241011,
      "channel" : 5,
      "noteNumber" : 52,
      "noteName" : "E3",
      "velocity" : 81,
      "durationTicks" : 59,
      "durationSeconds" : 0.1271550791666698
    }, {
      "type" : "note",
      "tick" : 23304,
      "timeSeconds" : 50.2241011,
      "channel" : 5,
      "noteNumber" : 58,
      "noteName" : "A#3",
      "velocity" : 95,
      "durationTicks" : 60,
      "durationSeconds" : 0.12931025000000318
    }, {
      "type" : "note",
      "tick" : 23424,
      "timeSeconds" : 50.4827216,
      "channel" : 5,
      "noteNumber" : 55,
      "noteName" : "G3",
      "velocity" : 94,
      "durationTicks" : 63,
      "durationSeconds" : 0.13577576250000334
    }, {
      "type" : "note",
      "tick" : 23424,
      "timeSeconds" : 50.4827216,
      "channel" : 5,
      "noteNumber" : 52,
      "noteName" : "E3",
      "velocity" : 81,
      "durationTicks" : 65,
      "durationSeconds" : 0.1400861041666701
    }, {
      "type" : "note",
      "tick" : 23424,
      "timeSeconds" : 50.4827216,
      "channel" : 5,
      "noteNumber" : 58,
      "noteName" : "A#3",
      "velocity" : 87,
      "durationTicks" : 70,
      "durationSeconds" : 0.15086195833333704
    }, {
      "type" : "note",
      "tick" : 23424,
      "timeSeconds" : 50.4827216,
      "channel" : 5,
      "noteNumber" : 64,
      "noteName" : "E4",
      "velocity" : 88,
      "durationTicks" : 73,
      "durationSeconds" : 0.1573274708333372
    }, {
      "type" : "note",
      "tick" : 23784,
      "timeSeconds" : 51.2585831,
      "channel" : 5,
      "noteNumber" : 42,
      "noteName" : "F#2",
      "velocity" : 100,
      "durationTicks" : 63,
      "durationSeconds" : 0.13577576249999623
    }, {
      "type" : "note",
      "tick" : 23784,
      "timeSeconds" : 51.2585831,
      "channel" : 5,
      "noteNumber" : 64,
      "noteName" : "E4",
      "velocity" : 91,
      "durationTicks" : 67,
      "durationSeconds" : 0.14439644583332978
    }, {
      "type" : "note",
      "tick" : 23784,
      "timeSeconds" : 51.2585831,
      "channel" : 5,
      "noteNumber" : 52,
      "noteName" : "E3",
      "velocity" : 101,
      "durationTicks" : 72,
      "durationSeconds" : 0.1551722999999967
    }, {
      "type" : "note",
      "tick" : 23784,
      "timeSeconds" : 51.2585831,
      "channel" : 5,
      "noteNumber" : 58,
      "noteName" : "A#3",
      "velocity" : 91,
      "durationTicks" : 72,
      "durationSeconds" : 0.1551722999999967
    }, {
      "type" : "note",
      "tick" : 23904,
      "timeSeconds" : 51.5172036,
      "channel" : 5,
      "noteNumber" : 42,
      "noteName" : "F#2",
      "velocity" : 100,
      "durationTicks" : 55,
      "durationSeconds" : 0.11853439583332914
    }, {
      "type" : "note",
      "tick" : 23904,
      "timeSeconds" : 51.5172036,
      "channel" : 5,
      "noteNumber" : 64,
      "noteName" : "E4",
      "velocity" : 97,
      "durationTicks" : 74,
      "durationSeconds" : 0.15948264166666348
    }, {
      "type" : "note",
      "tick" : 23904,
      "timeSeconds" : 51.5172036,
      "channel" : 5,
      "noteNumber" : 52,
      "noteName" : "E3",
      "velocity" : 97,
      "durationTicks" : 74,
      "durationSeconds" : 0.15948264166666348
    }, {
      "type" : "note",
      "tick" : 23904,
      "timeSeconds" : 51.5172036,
      "channel" : 5,
      "noteNumber" : 58,
      "noteName" : "A#3",
      "velocity" : 95,
      "durationTicks" : 75,
      "durationSeconds" : 0.16163781249999687
    }, {
      "type" : "note",
      "tick" : 24264,
      "timeSeconds" : 52.2930651,
      "channel" : 5,
      "noteNumber" : 43,
      "noteName" : "G2",
      "velocity" : 104,
      "durationTicks" : 54,
      "durationSeconds" : 0.11637922500000286
    }, {
      "type" : "note",
      "tick" : 24264,
      "timeSeconds" : 52.2930651,
      "channel" : 5,
      "noteNumber" : 53,
      "noteName" : "F3",
      "velocity" : 113,
      "durationTicks" : 56,
      "durationSeconds" : 0.12068956666666963
    }, {
      "type" : "note",
      "tick" : 24264,
      "timeSeconds" : 52.2930651,
      "channel" : 5,
      "noteNumber" : 62,
      "noteName" : "D4",
      "velocity" : 104,
      "durationTicks" : 62,
      "durationSeconds" : 0.13362059166666995
    }, {
      "type" : "note",
      "tick" : 24264,
      "timeSeconds" : 52.2930651,
      "channel" : 5,
      "noteNumber" : 58,
      "noteName" : "A#3",
      "velocity" : 95,
      "durationTicks" : 65,
      "durationSeconds" : 0.1400861041666701
    }, {
      "type" : "note",
      "tick" : 24384,
      "timeSeconds" : 52.5516856,
      "channel" : 5,
      "noteNumber" : 53,
      "noteName" : "F3",
      "velocity" : 113,
      "durationTicks" : 48,
      "durationSeconds" : 0.10344820000000254
    }, {
      "type" : "note",
      "tick" : 24384,
      "timeSeconds" : 52.5516856,
      "channel" : 5,
      "noteNumber" : 43,
      "noteName" : "G2",
      "velocity" : 108,
      "durationTicks" : 50,
      "durationSeconds" : 0.10775854166666932
    }, {
      "type" : "note",
      "tick" : 24384,
      "timeSeconds" : 52.5516856,
      "channel" : 5,
      "noteNumber" : 62,
      "noteName" : "D4",
      "velocity" : 97,
      "durationTicks" : 60,
      "durationSeconds" : 0.12931025000000318
    }, {
      "type" : "note",
      "tick" : 24384,
      "timeSeconds" : 52.5516856,
      "channel" : 5,
      "noteNumber" : 58,
      "noteName" : "A#3",
      "velocity" : 95,
      "durationTicks" : 62,
      "durationSeconds" : 0.13362059166666995
    }, {
      "type" : "note",
      "tick" : 24744,
      "timeSeconds" : 53.3275471,
      "channel" : 5,
      "noteNumber" : 49,
      "noteName" : "C#3",
      "velocity" : 91,
      "durationTicks" : 50,
      "durationSeconds" : 0.10775854166666932
    }, {
      "type" : "note",
      "tick" : 24744,
      "timeSeconds" : 53.3275471,
      "channel" : 5,
      "noteNumber" : 55,
      "noteName" : "G3",
      "velocity" : 104,
      "durationTicks" : 55,
      "durationSeconds" : 0.11853439583333625
    }, {
      "type" : "note",
      "tick" : 24744,
      "timeSeconds" : 53.3275471,
      "channel" : 5,
      "noteNumber" : 64,
      "noteName" : "E4",
      "velocity" : 91,
      "durationTicks" : 58,
      "durationSeconds" : 0.12499990833333641
    }, {
      "type" : "note",
      "tick" : 24744,
      "timeSeconds" : 53.3275471,
      "channel" : 5,
      "noteNumber" : 58,
      "noteName" : "A#3",
      "velocity" : 95,
      "durationTicks" : 60,
      "durationSeconds" : 0.12931025000000318
    }, {
      "type" : "note",
      "tick" : 24864,
      "timeSeconds" : 53.5861676,
      "channel" : 5,
      "noteNumber" : 64,
      "noteName" : "E4",
      "velocity" : 88,
      "durationTicks" : 56,
      "durationSeconds" : 0.12068956666666253
    }, {
      "type" : "note",
      "tick" : 24864,
      "timeSeconds" : 53.5861676,
      "channel" : 5,
      "noteNumber" : 55,
      "noteName" : "G3",
      "velocity" : 97,
      "durationTicks" : 56,
      "durationSeconds" : 0.12068956666666253
    }, {
      "type" : "note",
      "tick" : 24864,
      "timeSeconds" : 53.5861676,
      "channel" : 5,
      "noteNumber" : 49,
      "noteName" : "C#3",
      "velocity" : 91,
      "durationTicks" : 63,
      "durationSeconds" : 0.13577576249999623
    }, {
      "type" : "note",
      "tick" : 24864,
      "timeSeconds" : 53.5861676,
      "channel" : 5,
      "noteNumber" : 58,
      "noteName" : "A#3",
      "velocity" : 95,
      "durationTicks" : 71,
      "durationSeconds" : 0.15301712916666332
    }, {
      "type" : "note",
      "tick" : 25224,
      "timeSeconds" : 54.3620291,
      "channel" : 5,
      "noteNumber" : 64,
      "noteName" : "E4",
      "velocity" : 94,
      "durationTicks" : 44,
      "durationSeconds" : 0.094827516666669
    }, {
      "type" : "note",
      "tick" : 25224,
      "timeSeconds" : 54.3620291,
      "channel" : 5,
      "noteNumber" : 50,
      "noteName" : "D3",
      "velocity" : 108,
      "durationTicks" : 44,
      "durationSeconds" : 0.094827516666669
    }, {
      "type" : "note",
      "tick" : 25224,
      "timeSeconds" : 54.3620291,
      "channel" : 5,
      "noteNumber" : 53,
      "noteName" : "F3",
      "velocity" : 113,
      "durationTicks" : 45,
      "durationSeconds" : 0.09698268750000238
    }, {
      "type" : "note",
      "tick" : 25224,
      "timeSeconds" : 54.3620291,
      "channel" : 5,
      "noteNumber" : 60,
      "noteName" : "C4",
      "velocity" : 104,
      "durationTicks" : 48,
      "durationSeconds" : 0.10344820000000254
    }, {
      "type" : "note",
      "tick" : 25344,
      "timeSeconds" : 54.6206496,
      "channel" : 5,
      "noteNumber" : 53,
      "noteName" : "F3",
      "velocity" : 108,
      "durationTicks" : 51,
      "durationSeconds" : 0.1099137125000027
    }, {
      "type" : "note",
      "tick" : 25344,
      "timeSeconds" : 54.6206496,
      "channel" : 5,
      "noteNumber" : 60,
      "noteName" : "C4",
      "velocity" : 117,
      "durationTicks" : 58,
      "durationSeconds" : 0.12499990833333641
    }, {
      "type" : "note",
      "tick" : 25344,
      "timeSeconds" : 54.6206496,
      "channel" : 5,
      "noteNumber" : 64,
      "noteName" : "E4",
      "velocity" : 101,
      "durationTicks" : 61,
      "durationSeconds" : 0.13146542083333657
    }, {
      "type" : "note",
      "tick" : 25344,
      "timeSeconds" : 54.6206496,
      "channel" : 5,
      "noteNumber" : 50,
      "noteName" : "D3",
      "velocity" : 108,
      "durationTicks" : 61,
      "durationSeconds" : 0.13146542083333657
    }, {
      "type" : "note",
      "tick" : 25704,
      "timeSeconds" : 55.3965111,
      "channel" : 5,
      "noteNumber" : 67,
      "noteName" : "G4",
      "velocity" : 108,
      "durationTicks" : 58,
      "durationSeconds" : 0.12499990833333641
    }, {
      "type" : "note",
      "tick" : 25704,
      "timeSeconds" : 55.3965111,
      "channel" : 5,
      "noteNumber" : 57,
      "noteName" : "A3",
      "velocity" : 101,
      "durationTicks" : 63,
      "durationSeconds" : 0.13577576250000334
    }, {
      "type" : "note",
      "tick" : 25704,
      "timeSeconds" : 55.3965111,
      "channel" : 5,
      "noteNumber" : 63,
      "noteName" : "D#4",
      "velocity" : 87,
      "durationTicks" : 64,
      "durationSeconds" : 0.13793093333333672
    }, {
      "type" : "note",
      "tick" : 25704,
      "timeSeconds" : 55.3965111,
      "channel" : 5,
      "noteNumber" : 41,
      "noteName" : "F2",
      "velocity" : 101,
      "durationTicks" : 75,
      "durationSeconds" : 0.16163781250000397
    }, {
      "type" : "note",
      "tick" : 25824,
      "timeSeconds" : 55.6551316,
      "channel" : 5,
      "noteNumber" : 67,
      "noteName" : "G4",
      "velocity" : 104,
      "durationTicks" : 51,
      "durationSeconds" : 0.1099137125000027
    }, {
      "type" : "note",
      "tick" : 25824,
      "timeSeconds" : 55.6551316,
      "channel" : 5,
      "noteNumber" : 57,
      "noteName" : "A3",
      "velocity" : 104,
      "durationTicks" : 55,
      "durationSeconds" : 0.11853439583333625
    }, {
      "type" : "note",
      "tick" : 25824,
      "timeSeconds" : 55.6551316,
      "channel" : 5,
      "noteNumber" : 63,
      "noteName" : "D#4",
      "velocity" : 100,
      "durationTicks" : 60,
      "durationSeconds" : 0.12931025000000318
    }, {
      "type" : "note",
      "tick" : 25824,
      "timeSeconds" : 55.6551316,
      "channel" : 5,
      "noteNumber" : 41,
      "noteName" : "F2",
      "velocity" : 108,
      "durationTicks" : 63,
      "durationSeconds" : 0.13577576250000334
    }, {
      "type" : "note",
      "tick" : 26184,
      "timeSeconds" : 56.4309931,
      "channel" : 5,
      "noteNumber" : 46,
      "noteName" : "A#2",
      "velocity" : 91,
      "durationTicks" : 47,
      "durationSeconds" : 0.10129302916666205
    }, {
      "type" : "note",
      "tick" : 26184,
      "timeSeconds" : 56.4309931,
      "channel" : 5,
      "noteNumber" : 67,
      "noteName" : "G4",
      "velocity" : 108,
      "durationTicks" : 50,
      "durationSeconds" : 0.10775854166666221
    }, {
      "type" : "note",
      "tick" : 26184,
      "timeSeconds" : 56.4309931,
      "channel" : 5,
      "noteNumber" : 57,
      "noteName" : "A3",
      "velocity" : 97,
      "durationTicks" : 58,
      "durationSeconds" : 0.1249999083333293
    }, {
      "type" : "note",
      "tick" : 26184,
      "timeSeconds" : 56.4309931,
      "channel" : 5,
      "noteNumber" : 62,
      "noteName" : "D4",
      "velocity" : 104,
      "durationTicks" : 61,
      "durationSeconds" : 0.13146542083332946
    }, {
      "type" : "note",
      "tick" : 26304,
      "timeSeconds" : 56.6896136,
      "channel" : 5,
      "noteNumber" : 67,
      "noteName" : "G4",
      "velocity" : 104,
      "durationTicks" : 46,
      "durationSeconds" : 0.09913785833332867
    }, {
      "type" : "note",
      "tick" : 26304,
      "timeSeconds" : 56.6896136,
      "channel" : 5,
      "noteNumber" : 46,
      "noteName" : "A#2",
      "velocity" : 91,
      "durationTicks" : 55,
      "durationSeconds" : 0.11853439583332914
    }, {
      "type" : "note",
      "tick" : 26304,
      "timeSeconds" : 56.6896136,
      "channel" : 5,
      "noteNumber" : 57,
      "noteName" : "A3",
      "velocity" : 91,
      "durationTicks" : 58,
      "durationSeconds" : 0.1249999083333293
    }, {
      "type" : "note",
      "tick" : 26304,
      "timeSeconds" : 56.6896136,
      "channel" : 5,
      "noteNumber" : 62,
      "noteName" : "D4",
      "velocity" : 104,
      "durationTicks" : 61,
      "durationSeconds" : 0.13146542083332946
    }, {
      "type" : "note",
      "tick" : 26664,
      "timeSeconds" : 57.4654751,
      "channel" : 5,
      "noteNumber" : 45,
      "noteName" : "A2",
      "velocity" : 117,
      "durationTicks" : 48,
      "durationSeconds" : 0.10344820000000254
    }, {
      "type" : "note",
      "tick" : 26664,
      "timeSeconds" : 57.4654751,
      "channel" : 5,
      "noteNumber" : 61,
      "noteName" : "C#4",
      "velocity" : 95,
      "durationTicks" : 56,
      "durationSeconds" : 0.12068956666666963
    }, {
      "type" : "note",
      "tick" : 26664,
      "timeSeconds" : 57.4654751,
      "channel" : 5,
      "noteNumber" : 55,
      "noteName" : "G3",
      "velocity" : 101,
      "durationTicks" : 57,
      "durationSeconds" : 0.12284473750000302
    }, {
      "type" : "note",
      "tick" : 26664,
      "timeSeconds" : 57.4654751,
      "channel" : 5,
      "noteNumber" : 65,
      "noteName" : "F4",
      "velocity" : 94,
      "durationTicks" : 61,
      "durationSeconds" : 0.13146542083333657
    }, {
      "type" : "note",
      "tick" : 26784,
      "timeSeconds" : 57.7240956,
      "channel" : 5,
      "noteNumber" : 55,
      "noteName" : "G3",
      "velocity" : 101,
      "durationTicks" : 52,
      "durationSeconds" : 0.11206888333333609
    }, {
      "type" : "note",
      "tick" : 26784,
      "timeSeconds" : 57.7240956,
      "channel" : 5,
      "noteNumber" : 45,
      "noteName" : "A2",
      "velocity" : 101,
      "durationTicks" : 54,
      "durationSeconds" : 0.11637922500000286
    }, {
      "type" : "note",
      "tick" : 26784,
      "timeSeconds" : 57.7240956,
      "channel" : 5,
      "noteNumber" : 65,
      "noteName" : "F4",
      "velocity" : 86,
      "durationTicks" : 57,
      "durationSeconds" : 0.12284473750000302
    }, {
      "type" : "note",
      "tick" : 26784,
      "timeSeconds" : 57.7240956,
      "channel" : 5,
      "noteNumber" : 61,
      "noteName" : "C#4",
      "velocity" : 95,
      "durationTicks" : 64,
      "durationSeconds" : 0.13793093333333672
    }, {
      "type" : "note",
      "tick" : 27144,
      "timeSeconds" : 58.4999571,
      "channel" : 5,
      "noteNumber" : 50,
      "noteName" : "D3",
      "velocity" : 97,
      "durationTicks" : 51,
      "durationSeconds" : 0.1099137124999956
    }, {
      "type" : "note",
      "tick" : 27144,
      "timeSeconds" : 58.4999571,
      "channel" : 5,
      "noteNumber" : 64,
      "noteName" : "E4",
      "velocity" : 88,
      "durationTicks" : 57,
      "durationSeconds" : 0.12284473749999592
    }, {
      "type" : "note",
      "tick" : 27144,
      "timeSeconds" : 58.4999571,
      "channel" : 5,
      "noteNumber" : 53,
      "noteName" : "F3",
      "velocity" : 113,
      "durationTicks" : 58,
      "durationSeconds" : 0.1249999083333293
    }, {
      "type" : "note",
      "tick" : 27144,
      "timeSeconds" : 58.4999571,
      "channel" : 5,
      "noteNumber" : 60,
      "noteName" : "C4",
      "velocity" : 104,
      "durationTicks" : 64,
      "durationSeconds" : 0.13793093333332962
    }, {
      "type" : "note",
      "tick" : 27264,
      "timeSeconds" : 58.7585776,
      "channel" : 5,
      "noteNumber" : 64,
      "noteName" : "E4",
      "velocity" : 91,
      "durationTicks" : 51,
      "durationSeconds" : 0.1099137124999956
    }, {
      "type" : "note",
      "tick" : 27264,
      "timeSeconds" : 58.7585776,
      "channel" : 5,
      "noteNumber" : 50,
      "noteName" : "D3",
      "velocity" : 117,
      "durationTicks" : 55,
      "durationSeconds" : 0.11853439583332914
    }, {
      "type" : "note",
      "tick" : 27264,
      "timeSeconds" : 58.7585776,
      "channel" : 5,
      "noteNumber" : 60,
      "noteName" : "C4",
      "velocity" : 108,
      "durationTicks" : 60,
      "durationSeconds" : 0.12931024999999607
    }, {
      "type" : "note",
      "tick" : 27264,
      "timeSeconds" : 58.7585776,
      "channel" : 5,
      "noteNumber" : 53,
      "noteName" : "F3",
      "velocity" : 104,
      "durationTicks" : 64,
      "durationSeconds" : 0.13793093333332962
    }, {
      "type" : "note",
      "tick" : 27624,
      "timeSeconds" : 59.5344391,
      "channel" : 5,
      "noteNumber" : 42,
      "noteName" : "F#2",
      "velocity" : 110,
      "durationTicks" : 44,
      "durationSeconds" : 0.094827516666669
    }, {
      "type" : "note",
      "tick" : 27624,
      "timeSeconds" : 59.5344391,
      "channel" : 5,
      "noteNumber" : 64,
      "noteName" : "E4",
      "velocity" : 86,
      "durationTicks" : 63,
      "durationSeconds" : 0.13577576250000334
    }, {
      "type" : "note",
      "tick" : 27624,
      "timeSeconds" : 59.5344391,
      "channel" : 5,
      "noteNumber" : 52,
      "noteName" : "E3",
      "velocity" : 113,
      "durationTicks" : 67,
      "durationSeconds" : 0.14439644583332978
    }, {
      "type" : "note",
      "tick" : 27624,
      "timeSeconds" : 59.5344391,
      "channel" : 5,
      "noteNumber" : 58,
      "noteName" : "A#3",
      "velocity" : 100,
      "durationTicks" : 68,
      "durationSeconds" : 0.14655161666666316
    }, {
      "type" : "note",
      "tick" : 27744,
      "timeSeconds" : 59.7930596,
      "channel" : 5,
      "noteNumber" : 42,
      "noteName" : "F#2",
      "velocity" : 104,
      "durationTicks" : 55,
      "durationSeconds" : 0.11853439583333625
    }, {
      "type" : "note",
      "tick" : 27744,
      "timeSeconds" : 59.7930596,
      "channel" : 5,
      "noteNumber" : 64,
      "noteName" : "E4",
      "velocity" : 101,
      "durationTicks" : 60,
      "durationSeconds" : 0.12931025000000318
    }, {
      "type" : "note",
      "tick" : 27744,
      "timeSeconds" : 59.7930596,
      "channel" : 5,
      "noteNumber" : 52,
      "noteName" : "E3",
      "velocity" : 94,
      "durationTicks" : 69,
      "durationSeconds" : 0.14870678750000366
    }, {
      "type" : "note",
      "tick" : 27744,
      "timeSeconds" : 59.7930596,
      "channel" : 5,
      "noteNumber" : 58,
      "noteName" : "A#3",
      "velocity" : 95,
      "durationTicks" : 71,
      "durationSeconds" : 0.15301712916667043
    }, {
      "type" : "note",
      "tick" : 28104,
      "timeSeconds" : 60.5689211,
      "channel" : 5,
      "noteNumber" : 62,
      "noteName" : "D4",
      "velocity" : 104,
      "durationTicks" : 39,
      "durationSeconds" : 0.08405166250000207
    }, {
      "type" : "note",
      "tick" : 28104,
      "timeSeconds" : 60.5689211,
      "channel" : 5,
      "noteNumber" : 43,
      "noteName" : "G2",
      "velocity" : 113,
      "durationTicks" : 48,
      "durationSeconds" : 0.10344820000000254
    }, {
      "type" : "note",
      "tick" : 28104,
      "timeSeconds" : 60.5689211,
      "channel" : 5,
      "noteNumber" : 58,
      "noteName" : "A#3",
      "velocity" : 95,
      "durationTicks" : 49,
      "durationSeconds" : 0.10560337083333593
    }, {
      "type" : "note",
      "tick" : 28104,
      "timeSeconds" : 60.5689211,
      "channel" : 5,
      "noteNumber" : 53,
      "noteName" : "F3",
      "velocity" : 97,
      "durationTicks" : 50,
      "durationSeconds" : 0.10775854166666932
    }, {
      "type" : "note",
      "tick" : 28224,
      "timeSeconds" : 60.8275416,
      "channel" : 5,
      "noteNumber" : 53,
      "noteName" : "F3",
      "velocity" : 108,
      "durationTicks" : 47,
      "durationSeconds" : 0.10129302916666205
    }, {
      "type" : "note",
      "tick" : 28224,
      "timeSeconds" : 60.8275416,
      "channel" : 5,
      "noteNumber" : 62,
      "noteName" : "D4",
      "velocity" : 101,
      "durationTicks" : 49,
      "durationSeconds" : 0.10560337083332882
    }, {
      "type" : "note",
      "tick" : 28224,
      "timeSeconds" : 60.8275416,
      "channel" : 5,
      "noteNumber" : 43,
      "noteName" : "G2",
      "velocity" : 113,
      "durationTicks" : 50,
      "durationSeconds" : 0.10775854166666221
    }, {
      "type" : "note",
      "tick" : 28224,
      "timeSeconds" : 60.8275416,
      "channel" : 5,
      "noteNumber" : 58,
      "noteName" : "A#3",
      "velocity" : 100,
      "durationTicks" : 54,
      "durationSeconds" : 0.11637922499999576
    }, {
      "type" : "note",
      "tick" : 28584,
      "timeSeconds" : 61.6034031,
      "channel" : 5,
      "noteNumber" : 49,
      "noteName" : "C#3",
      "velocity" : 91,
      "durationTicks" : 41,
      "durationSeconds" : 0.08836200416666884
    }, {
      "type" : "note",
      "tick" : 28584,
      "timeSeconds" : 61.6034031,
      "channel" : 5,
      "noteNumber" : 55,
      "noteName" : "G3",
      "velocity" : 104,
      "durationTicks" : 45,
      "durationSeconds" : 0.09698268749999528
    }, {
      "type" : "note",
      "tick" : 28584,
      "timeSeconds" : 61.6034031,
      "channel" : 5,
      "noteNumber" : 64,
      "noteName" : "E4",
      "velocity" : 97,
      "durationTicks" : 51,
      "durationSeconds" : 0.1099137124999956
    }, {
      "type" : "note",
      "tick" : 28584,
      "timeSeconds" : 61.6034031,
      "channel" : 5,
      "noteNumber" : 58,
      "noteName" : "A#3",
      "velocity" : 100,
      "durationTicks" : 52,
      "durationSeconds" : 0.11206888333332898
    }, {
      "type" : "note",
      "tick" : 28704,
      "timeSeconds" : 61.8620236,
      "channel" : 5,
      "noteNumber" : 55,
      "noteName" : "G3",
      "velocity" : 101,
      "durationTicks" : 39,
      "durationSeconds" : 0.08405166250000207
    }, {
      "type" : "note",
      "tick" : 28704,
      "timeSeconds" : 61.8620236,
      "channel" : 5,
      "noteNumber" : 49,
      "noteName" : "C#3",
      "velocity" : 95,
      "durationTicks" : 48,
      "durationSeconds" : 0.10344820000000254
    }, {
      "type" : "note",
      "tick" : 28704,
      "timeSeconds" : 61.8620236,
      "channel" : 5,
      "noteNumber" : 64,
      "noteName" : "E4",
      "velocity" : 97,
      "durationTicks" : 54,
      "durationSeconds" : 0.11637922500000286
    }, {
      "type" : "note",
      "tick" : 28704,
      "timeSeconds" : 61.8620236,
      "channel" : 5,
      "noteNumber" : 58,
      "noteName" : "A#3",
      "velocity" : 100,
      "durationTicks" : 57,
      "durationSeconds" : 0.12284473749999592
    }, {
      "type" : "note",
      "tick" : 29064,
      "timeSeconds" : 62.6378851,
      "channel" : 5,
      "noteNumber" : 57,
      "noteName" : "A3",
      "velocity" : 97,
      "durationTicks" : 44,
      "durationSeconds" : 0.094827516666669
    }, {
      "type" : "note",
      "tick" : 29064,
      "timeSeconds" : 62.6378851,
      "channel" : 5,
      "noteNumber" : 60,
      "noteName" : "C4",
      "velocity" : 113,
      "durationTicks" : 48,
      "durationSeconds" : 0.10344820000000254
    }, {
      "type" : "note",
      "tick" : 29064,
      "timeSeconds" : 62.6378851,
      "channel" : 5,
      "noteNumber" : 50,
      "noteName" : "D3",
      "velocity" : 101,
      "durationTicks" : 52,
      "durationSeconds" : 0.11206888333333609
    }, {
      "type" : "note",
      "tick" : 29064,
      "timeSeconds" : 62.6378851,
      "channel" : 5,
      "noteNumber" : 67,
      "noteName" : "G4",
      "velocity" : 101,
      "durationTicks" : 52,
      "durationSeconds" : 0.11206888333333609
    }, {
      "type" : "note",
      "tick" : 29184,
      "timeSeconds" : 62.8965056,
      "channel" : 5,
      "noteNumber" : 57,
      "noteName" : "A3",
      "velocity" : 91,
      "durationTicks" : 46,
      "durationSeconds" : 0.09913785833333577
    }, {
      "type" : "note",
      "tick" : 29184,
      "timeSeconds" : 62.8965056,
      "channel" : 5,
      "noteNumber" : 67,
      "noteName" : "G4",
      "velocity" : 104,
      "durationTicks" : 49,
      "durationSeconds" : 0.10560337083333593
    }, {
      "type" : "note",
      "tick" : 29184,
      "timeSeconds" : 62.8965056,
      "channel" : 5,
      "noteNumber" : 50,
      "noteName" : "D3",
      "velocity" : 108,
      "durationTicks" : 58,
      "durationSeconds" : 0.12499990833333641
    }, {
      "type" : "note",
      "tick" : 29184,
      "timeSeconds" : 62.8965056,
      "channel" : 5,
      "noteNumber" : 60,
      "noteName" : "C4",
      "velocity" : 104,
      "durationTicks" : 60,
      "durationSeconds" : 0.12931025000000318
    }, {
      "type" : "note",
      "tick" : 29544,
      "timeSeconds" : 63.6723671,
      "channel" : 5,
      "noteNumber" : 67,
      "noteName" : "G4",
      "velocity" : 113,
      "durationTicks" : 49,
      "durationSeconds" : 0.10560337083332882
    }, {
      "type" : "note",
      "tick" : 29544,
      "timeSeconds" : 63.6723671,
      "channel" : 5,
      "noteNumber" : 63,
      "noteName" : "D#4",
      "velocity" : 100,
      "durationTicks" : 53,
      "durationSeconds" : 0.11422405416666237
    }, {
      "type" : "note",
      "tick" : 29544,
      "timeSeconds" : 63.6723671,
      "channel" : 5,
      "noteNumber" : 41,
      "noteName" : "F2",
      "velocity" : 97,
      "durationTicks" : 55,
      "durationSeconds" : 0.11853439583332914
    }, {
      "type" : "note",
      "tick" : 29544,
      "timeSeconds" : 63.6723671,
      "channel" : 5,
      "noteNumber" : 57,
      "noteName" : "A3",
      "velocity" : 97,
      "durationTicks" : 55,
      "durationSeconds" : 0.11853439583332914
    }, {
      "type" : "note",
      "tick" : 29664,
      "timeSeconds" : 63.9309876,
      "channel" : 5,
      "noteNumber" : 67,
      "noteName" : "G4",
      "velocity" : 104,
      "durationTicks" : 49,
      "durationSeconds" : 0.10560337083332882
    }, {
      "type" : "note",
      "tick" : 29664,
      "timeSeconds" : 63.9309876,
      "channel" : 5,
      "noteNumber" : 57,
      "noteName" : "A3",
      "velocity" : 97,
      "durationTicks" : 52,
      "durationSeconds" : 0.11206888333332898
    }, {
      "type" : "note",
      "tick" : 29664,
      "timeSeconds" : 63.9309876,
      "channel" : 5,
      "noteNumber" : 63,
      "noteName" : "D#4",
      "velocity" : 95,
      "durationTicks" : 63,
      "durationSeconds" : 0.13577576249999623
    }, {
      "type" : "note",
      "tick" : 29664,
      "timeSeconds" : 63.9309876,
      "channel" : 5,
      "noteNumber" : 41,
      "noteName" : "F2",
      "velocity" : 108,
      "durationTicks" : 66,
      "durationSeconds" : 0.1422412749999964
    }, {
      "type" : "note",
      "tick" : 30024,
      "timeSeconds" : 64.7068491,
      "channel" : 5,
      "noteNumber" : 46,
      "noteName" : "A#2",
      "velocity" : 95,
      "durationTicks" : 43,
      "durationSeconds" : 0.09267234583333561
    }, {
      "type" : "note",
      "tick" : 30024,
      "timeSeconds" : 64.7068491,
      "channel" : 5,
      "noteNumber" : 67,
      "noteName" : "G4",
      "velocity" : 101,
      "durationTicks" : 44,
      "durationSeconds" : 0.094827516666669
    }, {
      "type" : "note",
      "tick" : 30024,
      "timeSeconds" : 64.7068491,
      "channel" : 5,
      "noteNumber" : 57,
      "noteName" : "A3",
      "velocity" : 101,
      "durationTicks" : 47,
      "durationSeconds" : 0.10129302916666916
    }, {
      "type" : "note",
      "tick" : 30024,
      "timeSeconds" : 64.7068491,
      "channel" : 5,
      "noteNumber" : 62,
      "noteName" : "D4",
      "velocity" : 104,
      "durationTicks" : 50,
      "durationSeconds" : 0.10775854166666932
    }, {
      "type" : "note",
      "tick" : 30144,
      "timeSeconds" : 64.9654696,
      "channel" : 5,
      "noteNumber" : 46,
      "noteName" : "A#2",
      "velocity" : 91,
      "durationTicks" : 52,
      "durationSeconds" : 0.11206888333332188
    }, {
      "type" : "note",
      "tick" : 30144,
      "timeSeconds" : 64.9654696,
      "channel" : 5,
      "noteNumber" : 67,
      "noteName" : "G4",
      "velocity" : 104,
      "durationTicks" : 52,
      "durationSeconds" : 0.11206888333332188
    }, {
      "type" : "note",
      "tick" : 30144,
      "timeSeconds" : 64.9654696,
      "channel" : 5,
      "noteNumber" : 57,
      "noteName" : "A3",
      "velocity" : 104,
      "durationTicks" : 56,
      "durationSeconds" : 0.12068956666665542
    }, {
      "type" : "note",
      "tick" : 30144,
      "timeSeconds" : 64.9654696,
      "channel" : 5,
      "noteNumber" : 62,
      "noteName" : "D4",
      "velocity" : 113,
      "durationTicks" : 64,
      "durationSeconds" : 0.13793093333332251
    }, {
      "type" : "note",
      "tick" : 30504,
      "timeSeconds" : 65.7413311,
      "channel" : 5,
      "noteNumber" : 67,
      "noteName" : "G4",
      "velocity" : 104,
      "durationTicks" : 47,
      "durationSeconds" : 0.10129302916666916
    }, {
      "type" : "note",
      "tick" : 30504,
      "timeSeconds" : 65.7413311,
      "channel" : 5,
      "noteNumber" : 46,
      "noteName" : "A#2",
      "velocity" : 95,
      "durationTicks" : 48,
      "durationSeconds" : 0.10344820000000254
    }, {
      "type" : "note",
      "tick" : 30504,
      "timeSeconds" : 65.7413311,
      "channel" : 5,
      "noteNumber" : 57,
      "noteName" : "A3",
      "velocity" : 94,
      "durationTicks" : 52,
      "durationSeconds" : 0.11206888333333609
    }, {
      "type" : "note",
      "tick" : 30504,
      "timeSeconds" : 65.7413311,
      "channel" : 5,
      "noteNumber" : 62,
      "noteName" : "D4",
      "velocity" : 97,
      "durationTicks" : 53,
      "durationSeconds" : 0.11422405416666948
    }, {
      "type" : "note",
      "tick" : 30624,
      "timeSeconds" : 65.9999516,
      "channel" : 5,
      "noteNumber" : 67,
      "noteName" : "G4",
      "velocity" : 101,
      "durationTicks" : 50,
      "durationSeconds" : 0.10775854166666932
    }, {
      "type" : "note",
      "tick" : 30624,
      "timeSeconds" : 65.9999516,
      "channel" : 5,
      "noteNumber" : 46,
      "noteName" : "A#2",
      "velocity" : 95,
      "durationTicks" : 55,
      "durationSeconds" : 0.11853439583333625
    }, {
      "type" : "note",
      "tick" : 30624,
      "timeSeconds" : 65.9999516,
      "channel" : 5,
      "noteNumber" : 62,
      "noteName" : "D4",
      "velocity" : 101,
      "durationTicks" : 68,
      "durationSeconds" : 0.14655161666667027
    }, {
      "type" : "note",
      "tick" : 30624,
      "timeSeconds" : 65.9999516,
      "channel" : 5,
      "noteNumber" : 57,
      "noteName" : "A3",
      "velocity" : 94,
      "durationTicks" : 69,
      "durationSeconds" : 0.14870678750000366
    }, {
      "type" : "note",
      "tick" : 30984,
      "timeSeconds" : 66.7758131,
      "channel" : 5,
      "noteNumber" : 67,
      "noteName" : "G4",
      "velocity" : 108,
      "durationTicks" : 52,
      "durationSeconds" : 0.11206888333333609
    }, {
      "type" : "note",
      "tick" : 30984,
      "timeSeconds" : 66.7758131,
      "channel" : 5,
      "noteNumber" : 58,
      "noteName" : "A#3",
      "velocity" : 95,
      "durationTicks" : 55,
      "durationSeconds" : 0.11853439583333625
    }, {
      "type" : "note",
      "tick" : 30984,
      "timeSeconds" : 66.7758131,
      "channel" : 5,
      "noteNumber" : 52,
      "noteName" : "E3",
      "velocity" : 101,
      "durationTicks" : 56,
      "durationSeconds" : 0.12068956666666963
    }, {
      "type" : "note",
      "tick" : 30984,
      "timeSeconds" : 66.7758131,
      "channel" : 5,
      "noteNumber" : 55,
      "noteName" : "G3",
      "velocity" : 108,
      "durationTicks" : 59,
      "durationSeconds" : 0.1271550791666698
    }, {
      "type" : "note",
      "tick" : 31104,
      "timeSeconds" : 67.0344336,
      "channel" : 5,
      "noteNumber" : 67,
      "noteName" : "G4",
      "velocity" : 113,
      "durationTicks" : 53,
      "durationSeconds" : 0.11422405416666948
    }, {
      "type" : "note",
      "tick" : 31104,
      "timeSeconds" : 67.0344336,
      "channel" : 5,
      "noteNumber" : 52,
      "noteName" : "E3",
      "velocity" : 104,
      "durationTicks" : 57,
      "durationSeconds" : 0.12284473750000302
    }, {
      "type" : "note",
      "tick" : 31104,
      "timeSeconds" : 67.0344336,
      "channel" : 5,
      "noteNumber" : 58,
      "noteName" : "A#3",
      "velocity" : 95,
      "durationTicks" : 68,
      "durationSeconds" : 0.14655161666667027
    }, {
      "type" : "note",
      "tick" : 31104,
      "timeSeconds" : 67.0344336,
      "channel" : 5,
      "noteNumber" : 55,
      "noteName" : "G3",
      "velocity" : 108,
      "durationTicks" : 72,
      "durationSeconds" : 0.15517230000000382
    }, {
      "type" : "note",
      "tick" : 31464,
      "timeSeconds" : 67.8102951,
      "channel" : 5,
      "noteNumber" : 42,
      "noteName" : "F#2",
      "velocity" : 104,
      "durationTicks" : 58,
      "durationSeconds" : 0.1249999083333222
    }, {
      "type" : "note",
      "tick" : 31464,
      "timeSeconds" : 67.8102951,
      "channel" : 5,
      "noteNumber" : 64,
      "noteName" : "E4",
      "velocity" : 101,
      "durationTicks" : 71,
      "durationSeconds" : 0.15301712916665622
    }, {
      "type" : "note",
      "tick" : 31464,
      "timeSeconds" : 67.8102951,
      "channel" : 5,
      "noteNumber" : 58,
      "noteName" : "A#3",
      "velocity" : 95,
      "durationTicks" : 71,
      "durationSeconds" : 0.15301712916665622
    }, {
      "type" : "note",
      "tick" : 31464,
      "timeSeconds" : 67.8102951,
      "channel" : 5,
      "noteNumber" : 52,
      "noteName" : "E3",
      "velocity" : 108,
      "durationTicks" : 73,
      "durationSeconds" : 0.157327470833323
    }, {
      "type" : "note",
      "tick" : 31584,
      "timeSeconds" : 68.0689156,
      "channel" : 5,
      "noteNumber" : 42,
      "noteName" : "F#2",
      "velocity" : 104,
      "durationTicks" : 62,
      "durationSeconds" : 0.13362059166666995
    }, {
      "type" : "note",
      "tick" : 31584,
      "timeSeconds" : 68.0689156,
      "channel" : 5,
      "noteNumber" : 52,
      "noteName" : "E3",
      "velocity" : 108,
      "durationTicks" : 72,
      "durationSeconds" : 0.15517230000000382
    }, {
      "type" : "note",
      "tick" : 31584,
      "timeSeconds" : 68.0689156,
      "channel" : 5,
      "noteNumber" : 64,
      "noteName" : "E4",
      "velocity" : 97,
      "durationTicks" : 76,
      "durationSeconds" : 0.16379298333333736
    }, {
      "type" : "note",
      "tick" : 31584,
      "timeSeconds" : 68.0689156,
      "channel" : 5,
      "noteNumber" : 58,
      "noteName" : "A#3",
      "velocity" : 95,
      "durationTicks" : 78,
      "durationSeconds" : 0.16810332500000413
    }, {
      "type" : "note",
      "tick" : 31944,
      "timeSeconds" : 68.8447771,
      "channel" : 5,
      "noteNumber" : 43,
      "noteName" : "G2",
      "velocity" : 101,
      "durationTicks" : 52,
      "durationSeconds" : 0.11206888333333609
    }, {
      "type" : "note",
      "tick" : 31944,
      "timeSeconds" : 68.8447771,
      "channel" : 5,
      "noteNumber" : 53,
      "noteName" : "F3",
      "velocity" : 108,
      "durationTicks" : 55,
      "durationSeconds" : 0.11853439583333625
    }, {
      "type" : "note",
      "tick" : 31944,
      "timeSeconds" : 68.8447771,
      "channel" : 5,
      "noteNumber" : 62,
      "noteName" : "D4",
      "velocity" : 101,
      "durationTicks" : 55,
      "durationSeconds" : 0.11853439583333625
    }, {
      "type" : "note",
      "tick" : 31944,
      "timeSeconds" : 68.8447771,
      "channel" : 5,
      "noteNumber" : 58,
      "noteName" : "A#3",
      "velocity" : 87,
      "durationTicks" : 60,
      "durationSeconds" : 0.12931025000000318
    }, {
      "type" : "note",
      "tick" : 32064,
      "timeSeconds" : 69.1033976,
      "channel" : 5,
      "noteNumber" : 53,
      "noteName" : "F3",
      "velocity" : 104,
      "durationTicks" : 48,
      "durationSeconds" : 0.10344820000000254
    }, {
      "type" : "note",
      "tick" : 32064,
      "timeSeconds" : 69.1033976,
      "channel" : 5,
      "noteNumber" : 62,
      "noteName" : "D4",
      "velocity" : 97,
      "durationTicks" : 58,
      "durationSeconds" : 0.12499990833333641
    }, {
      "type" : "note",
      "tick" : 32064,
      "timeSeconds" : 69.1033976,
      "channel" : 5,
      "noteNumber" : 58,
      "noteName" : "A#3",
      "velocity" : 95,
      "durationTicks" : 61,
      "durationSeconds" : 0.13146542083333657
    }, {
      "type" : "note",
      "tick" : 32064,
      "timeSeconds" : 69.1033976,
      "channel" : 5,
      "noteNumber" : 43,
      "noteName" : "G2",
      "velocity" : 108,
      "durationTicks" : 64,
      "durationSeconds" : 0.13793093333333672
    }, {
      "type" : "note",
      "tick" : 32424,
      "timeSeconds" : 69.8792591,
      "channel" : 5,
      "noteNumber" : 49,
      "noteName" : "C#3",
      "velocity" : 104,
      "durationTicks" : 49,
      "durationSeconds" : 0.10560337083333593
    }, {
      "type" : "note",
      "tick" : 32424,
      "timeSeconds" : 69.8792591,
      "channel" : 5,
      "noteNumber" : 64,
      "noteName" : "E4",
      "velocity" : 86,
      "durationTicks" : 63,
      "durationSeconds" : 0.13577576250000334
    }, {
      "type" : "note",
      "tick" : 32424,
      "timeSeconds" : 69.8792591,
      "channel" : 5,
      "noteNumber" : 58,
      "noteName" : "A#3",
      "velocity" : 100,
      "durationTicks" : 66,
      "durationSeconds" : 0.1422412750000035
    }, {
      "type" : "note",
      "tick" : 32424,
      "timeSeconds" : 69.8792591,
      "channel" : 5,
      "noteNumber" : 55,
      "noteName" : "G3",
      "velocity" : 88,
      "durationTicks" : 66,
      "durationSeconds" : 0.1422412750000035
    }, {
      "type" : "note",
      "tick" : 32544,
      "timeSeconds" : 70.1378796,
      "channel" : 5,
      "noteNumber" : 64,
      "noteName" : "E4",
      "velocity" : 94,
      "durationTicks" : 60,
      "durationSeconds" : 0.12931024999998897
    }, {
      "type" : "note",
      "tick" : 32544,
      "timeSeconds" : 70.1378796,
      "channel" : 5,
      "noteNumber" : 49,
      "noteName" : "C#3",
      "velocity" : 95,
      "durationTicks" : 66,
      "durationSeconds" : 0.1422412749999893
    }, {
      "type" : "note",
      "tick" : 32544,
      "timeSeconds" : 70.1378796,
      "channel" : 5,
      "noteNumber" : 58,
      "noteName" : "A#3",
      "velocity" : 100,
      "durationTicks" : 71,
      "durationSeconds" : 0.15301712916665622
    }, {
      "type" : "note",
      "tick" : 32544,
      "timeSeconds" : 70.1378796,
      "channel" : 5,
      "noteNumber" : 55,
      "noteName" : "G3",
      "velocity" : 101,
      "durationTicks" : 75,
      "durationSeconds" : 0.16163781249998976
    }, {
      "type" : "note",
      "tick" : 32904,
      "timeSeconds" : 70.9137411,
      "channel" : 5,
      "noteNumber" : 50,
      "noteName" : "D3",
      "velocity" : 104,
      "durationTicks" : 56,
      "durationSeconds" : 0.12068956666666963
    }, {
      "type" : "note",
      "tick" : 32904,
      "timeSeconds" : 70.9137411,
      "channel" : 5,
      "noteNumber" : 64,
      "noteName" : "E4",
      "velocity" : 88,
      "durationTicks" : 70,
      "durationSeconds" : 0.15086195833333704
    }, {
      "type" : "note",
      "tick" : 32904,
      "timeSeconds" : 70.9137411,
      "channel" : 5,
      "noteNumber" : 53,
      "noteName" : "F3",
      "velocity" : 104,
      "durationTicks" : 73,
      "durationSeconds" : 0.1573274708333372
    }, {
      "type" : "note",
      "tick" : 32904,
      "timeSeconds" : 70.9137411,
      "channel" : 5,
      "noteNumber" : 60,
      "noteName" : "C4",
      "velocity" : 104,
      "durationTicks" : 76,
      "durationSeconds" : 0.16379298333333736
    }, {
      "type" : "note",
      "tick" : 33024,
      "timeSeconds" : 71.1723616,
      "channel" : 5,
      "noteNumber" : 53,
      "noteName" : "F3",
      "velocity" : 101,
      "durationTicks" : 56,
      "durationSeconds" : 0.12068956666666963
    }, {
      "type" : "note",
      "tick" : 33024,
      "timeSeconds" : 71.1723616,
      "channel" : 5,
      "noteNumber" : 60,
      "noteName" : "C4",
      "velocity" : 113,
      "durationTicks" : 65,
      "durationSeconds" : 0.1400861041666701
    }, {
      "type" : "note",
      "tick" : 33024,
      "timeSeconds" : 71.1723616,
      "channel" : 5,
      "noteNumber" : 50,
      "noteName" : "D3",
      "velocity" : 101,
      "durationTicks" : 65,
      "durationSeconds" : 0.1400861041666701
    }, {
      "type" : "note",
      "tick" : 33024,
      "timeSeconds" : 71.1723616,
      "channel" : 5,
      "noteNumber" : 64,
      "noteName" : "E4",
      "velocity" : 97,
      "durationTicks" : 70,
      "durationSeconds" : 0.15086195833333704
    }, {
      "type" : "note",
      "tick" : 33384,
      "timeSeconds" : 71.9482231,
      "channel" : 5,
      "noteNumber" : 57,
      "noteName" : "A3",
      "velocity" : 88,
      "durationTicks" : 59,
      "durationSeconds" : 0.12715507916665558
    }, {
      "type" : "note",
      "tick" : 33384,
      "timeSeconds" : 71.9482231,
      "channel" : 5,
      "noteNumber" : 41,
      "noteName" : "F2",
      "velocity" : 91,
      "durationTicks" : 63,
      "durationSeconds" : 0.13577576249998913
    }, {
      "type" : "note",
      "tick" : 33384,
      "timeSeconds" : 71.9482231,
      "channel" : 5,
      "noteNumber" : 67,
      "noteName" : "G4",
      "velocity" : 108,
      "durationTicks" : 71,
      "durationSeconds" : 0.15301712916665622
    }, {
      "type" : "note",
      "tick" : 33384,
      "timeSeconds" : 71.9482231,
      "channel" : 5,
      "noteNumber" : 63,
      "noteName" : "D#4",
      "velocity" : 87,
      "durationTicks" : 73,
      "durationSeconds" : 0.157327470833323
    }, {
      "type" : "note",
      "tick" : 33504,
      "timeSeconds" : 72.2068436,
      "channel" : 5,
      "noteNumber" : 67,
      "noteName" : "G4",
      "velocity" : 104,
      "durationTicks" : 62,
      "durationSeconds" : 0.13362059166666995
    }, {
      "type" : "note",
      "tick" : 33504,
      "timeSeconds" : 72.2068436,
      "channel" : 5,
      "noteNumber" : 41,
      "noteName" : "F2",
      "velocity" : 94,
      "durationTicks" : 66,
      "durationSeconds" : 0.1422412750000035
    }, {
      "type" : "note",
      "tick" : 33504,
      "timeSeconds" : 72.2068436,
      "channel" : 5,
      "noteNumber" : 63,
      "noteName" : "D#4",
      "velocity" : 91,
      "durationTicks" : 67,
      "durationSeconds" : 0.14439644583333688
    }, {
      "type" : "note",
      "tick" : 33504,
      "timeSeconds" : 72.2068436,
      "channel" : 5,
      "noteNumber" : 57,
      "noteName" : "A3",
      "velocity" : 97,
      "durationTicks" : 70,
      "durationSeconds" : 0.15086195833333704
    }, {
      "type" : "note",
      "tick" : 33864,
      "timeSeconds" : 72.9827051,
      "channel" : 5,
      "noteNumber" : 67,
      "noteName" : "G4",
      "velocity" : 101,
      "durationTicks" : 57,
      "durationSeconds" : 0.12284473750000302
    }, {
      "type" : "note",
      "tick" : 33864,
      "timeSeconds" : 72.9827051,
      "channel" : 5,
      "noteNumber" : 46,
      "noteName" : "A#2",
      "velocity" : 87,
      "durationTicks" : 58,
      "durationSeconds" : 0.12499990833333641
    }, {
      "type" : "note",
      "tick" : 33864,
      "timeSeconds" : 72.9827051,
      "channel" : 5,
      "noteNumber" : 62,
      "noteName" : "D4",
      "velocity" : 104,
      "durationTicks" : 70,
      "durationSeconds" : 0.15086195833332283
    }, {
      "type" : "note",
      "tick" : 33864,
      "timeSeconds" : 72.9827051,
      "channel" : 5,
      "noteNumber" : 57,
      "noteName" : "A3",
      "velocity" : 101,
      "durationTicks" : 70,
      "durationSeconds" : 0.15086195833332283
    }, {
      "type" : "note",
      "tick" : 33984,
      "timeSeconds" : 73.2413256,
      "channel" : 5,
      "noteNumber" : 67,
      "noteName" : "G4",
      "velocity" : 104,
      "durationTicks" : 48,
      "durationSeconds" : 0.10344820000000254
    }, {
      "type" : "note",
      "tick" : 33984,
      "timeSeconds" : 73.2413256,
      "channel" : 5,
      "noteNumber" : 46,
      "noteName" : "A#2",
      "velocity" : 95,
      "durationTicks" : 53,
      "durationSeconds" : 0.11422405416666948
    }, {
      "type" : "note",
      "tick" : 33984,
      "timeSeconds" : 73.2413256,
      "channel" : 5,
      "noteNumber" : 57,
      "noteName" : "A3",
      "velocity" : 104,
      "durationTicks" : 60,
      "durationSeconds" : 0.12931025000000318
    }, {
      "type" : "note",
      "tick" : 33984,
      "timeSeconds" : 73.2413256,
      "channel" : 5,
      "noteNumber" : 62,
      "noteName" : "D4",
      "velocity" : 104,
      "durationTicks" : 63,
      "durationSeconds" : 0.13577576250000334
    }, {
      "type" : "note",
      "tick" : 34344,
      "timeSeconds" : 74.0171871,
      "channel" : 5,
      "noteNumber" : 45,
      "noteName" : "A2",
      "velocity" : 108,
      "durationTicks" : 58,
      "durationSeconds" : 0.12499990833333641
    }, {
      "type" : "note",
      "tick" : 34344,
      "timeSeconds" : 74.0171871,
      "channel" : 5,
      "noteNumber" : 55,
      "noteName" : "G3",
      "velocity" : 94,
      "durationTicks" : 72,
      "durationSeconds" : 0.15517230000000382
    }, {
      "type" : "note",
      "tick" : 34344,
      "timeSeconds" : 74.0171871,
      "channel" : 5,
      "noteNumber" : 61,
      "noteName" : "C#4",
      "velocity" : 91,
      "durationTicks" : 75,
      "durationSeconds" : 0.16163781250000397
    }, {
      "type" : "note",
      "tick" : 34344,
      "timeSeconds" : 74.0171871,
      "channel" : 5,
      "noteNumber" : 65,
      "noteName" : "F4",
      "velocity" : 88,
      "durationTicks" : 77,
      "durationSeconds" : 0.16594815416667075
    }, {
      "type" : "note",
      "tick" : 34464,
      "timeSeconds" : 74.2758076,
      "channel" : 5,
      "noteNumber" : 65,
      "noteName" : "F4",
      "velocity" : 91,
      "durationTicks" : 57,
      "durationSeconds" : 0.12284473750000302
    }, {
      "type" : "note",
      "tick" : 34464,
      "timeSeconds" : 74.2758076,
      "channel" : 5,
      "noteNumber" : 45,
      "noteName" : "A2",
      "velocity" : 113,
      "durationTicks" : 60,
      "durationSeconds" : 0.12931025000000318
    }, {
      "type" : "note",
      "tick" : 34464,
      "timeSeconds" : 74.2758076,
      "channel" : 5,
      "noteNumber" : 61,
      "noteName" : "C#4",
      "velocity" : 100,
      "durationTicks" : 61,
      "durationSeconds" : 0.13146542083333657
    }, {
      "type" : "note",
      "tick" : 34464,
      "timeSeconds" : 74.2758076,
      "channel" : 5,
      "noteNumber" : 55,
      "noteName" : "G3",
      "velocity" : 101,
      "durationTicks" : 70,
      "durationSeconds" : 0.15086195833333704
    }, {
      "type" : "note",
      "tick" : 34824,
      "timeSeconds" : 75.0516691,
      "channel" : 5,
      "noteNumber" : 53,
      "noteName" : "F3",
      "velocity" : 108,
      "durationTicks" : 52,
      "durationSeconds" : 0.11206888333333609
    }, {
      "type" : "note",
      "tick" : 34824,
      "timeSeconds" : 75.0516691,
      "channel" : 5,
      "noteNumber" : 50,
      "noteName" : "D3",
      "velocity" : 91,
      "durationTicks" : 52,
      "durationSeconds" : 0.11206888333333609
    }, {
      "type" : "note",
      "tick" : 34824,
      "timeSeconds" : 75.0516691,
      "channel" : 5,
      "noteNumber" : 64,
      "noteName" : "E4",
      "velocity" : 88,
      "durationTicks" : 61,
      "durationSeconds" : 0.13146542083333657
    }, {
      "type" : "note",
      "tick" : 34824,
      "timeSeconds" : 75.0516691,
      "channel" : 5,
      "noteNumber" : 60,
      "noteName" : "C4",
      "velocity" : 97,
      "durationTicks" : 64,
      "durationSeconds" : 0.13793093333333672
    }, {
      "type" : "note",
      "tick" : 34944,
      "timeSeconds" : 75.3102896,
      "channel" : 5,
      "noteNumber" : 53,
      "noteName" : "F3",
      "velocity" : 113,
      "durationTicks" : 49,
      "durationSeconds" : 0.10560337083333593
    }, {
      "type" : "note",
      "tick" : 34944,
      "timeSeconds" : 75.3102896,
      "channel" : 5,
      "noteNumber" : 50,
      "noteName" : "D3",
      "velocity" : 122,
      "durationTicks" : 52,
      "durationSeconds" : 0.11206888333332188
    }, {
      "type" : "note",
      "tick" : 34944,
      "timeSeconds" : 75.3102896,
      "channel" : 5,
      "noteNumber" : 64,
      "noteName" : "E4",
      "velocity" : 97,
      "durationTicks" : 54,
      "durationSeconds" : 0.11637922499998865
    }, {
      "type" : "note",
      "tick" : 34944,
      "timeSeconds" : 75.3102896,
      "channel" : 5,
      "noteNumber" : 60,
      "noteName" : "C4",
      "velocity" : 117,
      "durationTicks" : 59,
      "durationSeconds" : 0.12715507916665558
    }, {
      "type" : "note",
      "tick" : 35304,
      "timeSeconds" : 76.0861511,
      "channel" : 5,
      "noteNumber" : 42,
      "noteName" : "F#2",
      "velocity" : 100,
      "durationTicks" : 60,
      "durationSeconds" : 0.12931025000000318
    }, {
      "type" : "note",
      "tick" : 35304,
      "timeSeconds" : 76.0861511,
      "channel" : 5,
      "noteNumber" : 52,
      "noteName" : "E3",
      "velocity" : 104,
      "durationTicks" : 64,
      "durationSeconds" : 0.13793093333333672
    }, {
      "type" : "note",
      "tick" : 35304,
      "timeSeconds" : 76.0861511,
      "channel" : 5,
      "noteNumber" : 64,
      "noteName" : "E4",
      "velocity" : 86,
      "durationTicks" : 67,
      "durationSeconds" : 0.14439644583333688
    }, {
      "type" : "note",
      "tick" : 35304,
      "timeSeconds" : 76.0861511,
      "channel" : 5,
      "noteNumber" : 58,
      "noteName" : "A#3",
      "velocity" : 95,
      "durationTicks" : 69,
      "durationSeconds" : 0.14870678750000366
    }, {
      "type" : "note",
      "tick" : 35424,
      "timeSeconds" : 76.3447716,
      "channel" : 5,
      "noteNumber" : 52,
      "noteName" : "E3",
      "velocity" : 97,
      "durationTicks" : 62,
      "durationSeconds" : 0.13362059166666995
    }, {
      "type" : "note",
      "tick" : 35424,
      "timeSeconds" : 76.3447716,
      "channel" : 5,
      "noteNumber" : 42,
      "noteName" : "F#2",
      "velocity" : 100,
      "durationTicks" : 62,
      "durationSeconds" : 0.13362059166666995
    }, {
      "type" : "note",
      "tick" : 35424,
      "timeSeconds" : 76.3447716,
      "channel" : 5,
      "noteNumber" : 64,
      "noteName" : "E4",
      "velocity" : 97,
      "durationTicks" : 75,
      "durationSeconds" : 0.16163781250000397
    }, {
      "type" : "note",
      "tick" : 35424,
      "timeSeconds" : 76.3447716,
      "channel" : 5,
      "noteNumber" : 58,
      "noteName" : "A#3",
      "velocity" : 100,
      "durationTicks" : 80,
      "durationSeconds" : 0.1724136666666709
    }, {
      "type" : "note",
      "tick" : 35784,
      "timeSeconds" : 77.1206331,
      "channel" : 5,
      "noteNumber" : 53,
      "noteName" : "F3",
      "velocity" : 108,
      "durationTicks" : 64,
      "durationSeconds" : 0.13793093333332251
    }, {
      "type" : "note",
      "tick" : 35784,
      "timeSeconds" : 77.1206331,
      "channel" : 5,
      "noteNumber" : 43,
      "noteName" : "G2",
      "velocity" : 97,
      "durationTicks" : 65,
      "durationSeconds" : 0.1400861041666559
    }, {
      "type" : "note",
      "tick" : 35784,
      "timeSeconds" : 77.1206331,
      "channel" : 5,
      "noteNumber" : 62,
      "noteName" : "D4",
      "velocity" : 108,
      "durationTicks" : 70,
      "durationSeconds" : 0.15086195833332283
    }, {
      "type" : "note",
      "tick" : 35784,
      "timeSeconds" : 77.1206331,
      "channel" : 5,
      "noteNumber" : 58,
      "noteName" : "A#3",
      "velocity" : 91,
      "durationTicks" : 72,
      "durationSeconds" : 0.1551722999999896
    }, {
      "type" : "note",
      "tick" : 35904,
      "timeSeconds" : 77.3792536,
      "channel" : 5,
      "noteNumber" : 53,
      "noteName" : "F3",
      "velocity" : 113,
      "durationTicks" : 50,
      "durationSeconds" : 0.10775854166666932
    }, {
      "type" : "note",
      "tick" : 35904,
      "timeSeconds" : 77.3792536,
      "channel" : 5,
      "noteNumber" : 62,
      "noteName" : "D4",
      "velocity" : 97,
      "durationTicks" : 60,
      "durationSeconds" : 0.12931025000000318
    }, {
      "type" : "note",
      "tick" : 35904,
      "timeSeconds" : 77.3792536,
      "channel" : 5,
      "noteNumber" : 43,
      "noteName" : "G2",
      "velocity" : 113,
      "durationTicks" : 67,
      "durationSeconds" : 0.14439644583333688
    }, {
      "type" : "note",
      "tick" : 35904,
      "timeSeconds" : 77.3792536,
      "channel" : 5,
      "noteNumber" : 58,
      "noteName" : "A#3",
      "velocity" : 95,
      "durationTicks" : 70,
      "durationSeconds" : 0.15086195833333704
    }, {
      "type" : "note",
      "tick" : 36264,
      "timeSeconds" : 78.1551151,
      "channel" : 5,
      "noteNumber" : 49,
      "noteName" : "C#3",
      "velocity" : 71,
      "durationTicks" : 54,
      "durationSeconds" : 0.11637922500000286
    }, {
      "type" : "note",
      "tick" : 36264,
      "timeSeconds" : 78.1551151,
      "channel" : 5,
      "noteNumber" : 64,
      "noteName" : "E4",
      "velocity" : 97,
      "durationTicks" : 71,
      "durationSeconds" : 0.15301712916667043
    }, {
      "type" : "note",
      "tick" : 36264,
      "timeSeconds" : 78.1551151,
      "channel" : 5,
      "noteNumber" : 58,
      "noteName" : "A#3",
      "velocity" : 100,
      "durationTicks" : 74,
      "durationSeconds" : 0.15948264166665638
    }, {
      "type" : "note",
      "tick" : 36264,
      "timeSeconds" : 78.1551151,
      "channel" : 5,
      "noteNumber" : 55,
      "noteName" : "G3",
      "velocity" : 108,
      "durationTicks" : 75,
      "durationSeconds" : 0.16163781249998976
    }, {
      "type" : "note",
      "tick" : 36384,
      "timeSeconds" : 78.4137356,
      "channel" : 5,
      "noteNumber" : 49,
      "noteName" : "C#3",
      "velocity" : 100,
      "durationTicks" : 52,
      "durationSeconds" : 0.11206888333333609
    }, {
      "type" : "note",
      "tick" : 36384,
      "timeSeconds" : 78.4137356,
      "channel" : 5,
      "noteNumber" : 55,
      "noteName" : "G3",
      "velocity" : 104,
      "durationTicks" : 57,
      "durationSeconds" : 0.12284473750000302
    }, {
      "type" : "note",
      "tick" : 36384,
      "timeSeconds" : 78.4137356,
      "channel" : 5,
      "noteNumber" : 58,
      "noteName" : "A#3",
      "velocity" : 104,
      "durationTicks" : 61,
      "durationSeconds" : 0.13146542083333657
    }, {
      "type" : "note",
      "tick" : 36384,
      "timeSeconds" : 78.4137356,
      "channel" : 5,
      "noteNumber" : 64,
      "noteName" : "E4",
      "velocity" : 101,
      "durationTicks" : 65,
      "durationSeconds" : 0.1400861041666701
    }, {
      "type" : "note",
      "tick" : 36744,
      "timeSeconds" : 79.1895971,
      "channel" : 5,
      "noteNumber" : 50,
      "noteName" : "D3",
      "velocity" : 113,
      "durationTicks" : 49,
      "durationSeconds" : 0.10560337083333593
    }, {
      "type" : "note",
      "tick" : 36744,
      "timeSeconds" : 79.1895971,
      "channel" : 5,
      "noteNumber" : 64,
      "noteName" : "E4",
      "velocity" : 86,
      "durationTicks" : 58,
      "durationSeconds" : 0.12499990833333641
    }, {
      "type" : "note",
      "tick" : 36744,
      "timeSeconds" : 79.1895971,
      "channel" : 5,
      "noteNumber" : 60,
      "noteName" : "C4",
      "velocity" : 117,
      "durationTicks" : 61,
      "durationSeconds" : 0.13146542083333657
    }, {
      "type" : "note",
      "tick" : 36744,
      "timeSeconds" : 79.1895971,
      "channel" : 5,
      "noteNumber" : 53,
      "noteName" : "F3",
      "velocity" : 101,
      "durationTicks" : 67,
      "durationSeconds" : 0.14439644583333688
    }, {
      "type" : "note",
      "tick" : 36864,
      "timeSeconds" : 79.4482176,
      "channel" : 5,
      "noteNumber" : 53,
      "noteName" : "F3",
      "velocity" : 104,
      "durationTicks" : 49,
      "durationSeconds" : 0.10560337083332172
    }, {
      "type" : "note",
      "tick" : 36864,
      "timeSeconds" : 79.4482176,
      "channel" : 5,
      "noteNumber" : 50,
      "noteName" : "D3",
      "velocity" : 122,
      "durationTicks" : 55,
      "durationSeconds" : 0.11853439583332204
    }, {
      "type" : "note",
      "tick" : 36864,
      "timeSeconds" : 79.4482176,
      "channel" : 5,
      "noteNumber" : 64,
      "noteName" : "E4",
      "velocity" : 91,
      "durationTicks" : 60,
      "durationSeconds" : 0.12931024999998897
    }, {
      "type" : "note",
      "tick" : 36864,
      "timeSeconds" : 79.4482176,
      "channel" : 5,
      "noteNumber" : 60,
      "noteName" : "C4",
      "velocity" : 113,
      "durationTicks" : 60,
      "durationSeconds" : 0.12931024999998897
    }, {
      "type" : "note",
      "tick" : 37224,
      "timeSeconds" : 80.2240791,
      "channel" : 5,
      "noteNumber" : 57,
      "noteName" : "A3",
      "velocity" : 101,
      "durationTicks" : 57,
      "durationSeconds" : 0.12284473750000302
    }, {
      "type" : "note",
      "tick" : 37224,
      "timeSeconds" : 80.2240791,
      "channel" : 5,
      "noteNumber" : 41,
      "noteName" : "F2",
      "velocity" : 97,
      "durationTicks" : 58,
      "durationSeconds" : 0.12499990833333641
    }, {
      "type" : "note",
      "tick" : 37224,
      "timeSeconds" : 80.2240791,
      "channel" : 5,
      "noteNumber" : 67,
      "noteName" : "G4",
      "velocity" : 108,
      "durationTicks" : 65,
      "durationSeconds" : 0.1400861041666701
    }, {
      "type" : "note",
      "tick" : 37224,
      "timeSeconds" : 80.2240791,
      "channel" : 5,
      "noteNumber" : 63,
      "noteName" : "D#4",
      "velocity" : 87,
      "durationTicks" : 68,
      "durationSeconds" : 0.14655161666667027
    }, {
      "type" : "note",
      "tick" : 37344,
      "timeSeconds" : 80.4826996,
      "channel" : 5,
      "noteNumber" : 67,
      "noteName" : "G4",
      "velocity" : 108,
      "durationTicks" : 54,
      "durationSeconds" : 0.11637922500000286
    }, {
      "type" : "note",
      "tick" : 37344,
      "timeSeconds" : 80.4826996,
      "channel" : 5,
      "noteNumber" : 41,
      "noteName" : "F2",
      "velocity" : 104,
      "durationTicks" : 57,
      "durationSeconds" : 0.12284473750000302
    }, {
      "type" : "note",
      "tick" : 37344,
      "timeSeconds" : 80.4826996,
      "channel" : 5,
      "noteNumber" : 57,
      "noteName" : "A3",
      "velocity" : 97,
      "durationTicks" : 65,
      "durationSeconds" : 0.1400861041666559
    }, {
      "type" : "note",
      "tick" : 37344,
      "timeSeconds" : 80.4826996,
      "channel" : 5,
      "noteNumber" : 63,
      "noteName" : "D#4",
      "velocity" : 95,
      "durationTicks" : 68,
      "durationSeconds" : 0.14655161666665606
    }, {
      "type" : "note",
      "tick" : 37704,
      "timeSeconds" : 81.2585611,
      "channel" : 5,
      "noteNumber" : 46,
      "noteName" : "A#2",
      "velocity" : 95,
      "durationTicks" : 45,
      "durationSeconds" : 0.09698268750000238
    }, {
      "type" : "note",
      "tick" : 37704,
      "timeSeconds" : 81.2585611,
      "channel" : 5,
      "noteNumber" : 57,
      "noteName" : "A3",
      "velocity" : 101,
      "durationTicks" : 49,
      "durationSeconds" : 0.10560337083333593
    }, {
      "type" : "note",
      "tick" : 37704,
      "timeSeconds" : 81.2585611,
      "channel" : 5,
      "noteNumber" : 67,
      "noteName" : "G4",
      "velocity" : 104,
      "durationTicks" : 50,
      "durationSeconds" : 0.10775854166666932
    }, {
      "type" : "note",
      "tick" : 37704,
      "timeSeconds" : 81.2585611,
      "channel" : 5,
      "noteNumber" : 62,
      "noteName" : "D4",
      "velocity" : 104,
      "durationTicks" : 56,
      "durationSeconds" : 0.12068956666666963
    }, {
      "type" : "note",
      "tick" : 37824,
      "timeSeconds" : 81.5171816,
      "channel" : 5,
      "noteNumber" : 57,
      "noteName" : "A3",
      "velocity" : 104,
      "durationTicks" : 47,
      "durationSeconds" : 0.10129302916666916
    }, {
      "type" : "note",
      "tick" : 37824,
      "timeSeconds" : 81.5171816,
      "channel" : 5,
      "noteNumber" : 67,
      "noteName" : "G4",
      "velocity" : 104,
      "durationTicks" : 50,
      "durationSeconds" : 0.10775854166666932
    }, {
      "type" : "note",
      "tick" : 37824,
      "timeSeconds" : 81.5171816,
      "channel" : 5,
      "noteNumber" : 62,
      "noteName" : "D4",
      "velocity" : 113,
      "durationTicks" : 53,
      "durationSeconds" : 0.11422405416666948
    }, {
      "type" : "note",
      "tick" : 37824,
      "timeSeconds" : 81.5171816,
      "channel" : 5,
      "noteNumber" : 46,
      "noteName" : "A#2",
      "velocity" : 91,
      "durationTicks" : 55,
      "durationSeconds" : 0.11853439583333625
    }, {
      "type" : "note",
      "tick" : 38184,
      "timeSeconds" : 82.2930431,
      "channel" : 5,
      "noteNumber" : 46,
      "noteName" : "A#2",
      "velocity" : 91,
      "durationTicks" : 49,
      "durationSeconds" : 0.10560337083332172
    }, {
      "type" : "note",
      "tick" : 38184,
      "timeSeconds" : 82.2930431,
      "channel" : 5,
      "noteNumber" : 57,
      "noteName" : "A3",
      "velocity" : 108,
      "durationTicks" : 58,
      "durationSeconds" : 0.1249999083333222
    }, {
      "type" : "note",
      "tick" : 38184,
      "timeSeconds" : 82.2930431,
      "channel" : 5,
      "noteNumber" : 67,
      "noteName" : "G4",
      "velocity" : 104,
      "durationTicks" : 60,
      "durationSeconds" : 0.12931024999998897
    }, {
      "type" : "note",
      "tick" : 38184,
      "timeSeconds" : 82.2930431,
      "channel" : 5,
      "noteNumber" : 62,
      "noteName" : "D4",
      "velocity" : 108,
      "durationTicks" : 69,
      "durationSeconds" : 0.14870678749998945
    }, {
      "type" : "note",
      "tick" : 38304,
      "timeSeconds" : 82.5516636,
      "channel" : 5,
      "noteNumber" : 67,
      "noteName" : "G4",
      "velocity" : 104,
      "durationTicks" : 49,
      "durationSeconds" : 0.10560337083333593
    }, {
      "type" : "note",
      "tick" : 38304,
      "timeSeconds" : 82.5516636,
      "channel" : 5,
      "noteNumber" : 46,
      "noteName" : "A#2",
      "velocity" : 76,
      "durationTicks" : 50,
      "durationSeconds" : 0.10775854166666932
    }, {
      "type" : "note",
      "tick" : 38304,
      "timeSeconds" : 82.5516636,
      "channel" : 5,
      "noteNumber" : 62,
      "noteName" : "D4",
      "velocity" : 104,
      "durationTicks" : 57,
      "durationSeconds" : 0.12284473750000302
    }, {
      "type" : "note",
      "tick" : 38304,
      "timeSeconds" : 82.5516636,
      "channel" : 5,
      "noteNumber" : 57,
      "noteName" : "A3",
      "velocity" : 97,
      "durationTicks" : 57,
      "durationSeconds" : 0.12284473750000302
    }, {
      "type" : "note",
      "tick" : 38664,
      "timeSeconds" : 83.3275251,
      "channel" : 5,
      "noteNumber" : 45,
      "noteName" : "A2",
      "velocity" : 108,
      "durationTicks" : 60,
      "durationSeconds" : 0.12931025000000318
    }, {
      "type" : "note",
      "tick" : 38664,
      "timeSeconds" : 83.3275251,
      "channel" : 5,
      "noteNumber" : 55,
      "noteName" : "G3",
      "velocity" : 97,
      "durationTicks" : 61,
      "durationSeconds" : 0.13146542083333657
    }, {
      "type" : "note",
      "tick" : 38664,
      "timeSeconds" : 83.3275251,
      "channel" : 5,
      "noteNumber" : 65,
      "noteName" : "F4",
      "velocity" : 97,
      "durationTicks" : 64,
      "durationSeconds" : 0.13793093333333672
    }, {
      "type" : "note",
      "tick" : 38664,
      "timeSeconds" : 83.3275251,
      "channel" : 5,
      "noteNumber" : 61,
      "noteName" : "C#4",
      "velocity" : 95,
      "durationTicks" : 65,
      "durationSeconds" : 0.1400861041666701
    }, {
      "type" : "note",
      "tick" : 38784,
      "timeSeconds" : 83.5861456,
      "channel" : 5,
      "noteNumber" : 45,
      "noteName" : "A2",
      "velocity" : 122,
      "durationTicks" : 58,
      "durationSeconds" : 0.12499990833333641
    }, {
      "type" : "note",
      "tick" : 38784,
      "timeSeconds" : 83.5861456,
      "channel" : 5,
      "noteNumber" : 65,
      "noteName" : "F4",
      "velocity" : 101,
      "durationTicks" : 61,
      "durationSeconds" : 0.13146542083333657
    }, {
      "type" : "note",
      "tick" : 38784,
      "timeSeconds" : 83.5861456,
      "channel" : 5,
      "noteNumber" : 61,
      "noteName" : "C#4",
      "velocity" : 100,
      "durationTicks" : 64,
      "durationSeconds" : 0.13793093333333672
    }, {
      "type" : "note",
      "tick" : 38784,
      "timeSeconds" : 83.5861456,
      "channel" : 5,
      "noteNumber" : 55,
      "noteName" : "G3",
      "velocity" : 104,
      "durationTicks" : 67,
      "durationSeconds" : 0.14439644583333688
    }, {
      "type" : "note",
      "tick" : 39144,
      "timeSeconds" : 84.3620071,
      "channel" : 5,
      "noteNumber" : 42,
      "noteName" : "F#2",
      "velocity" : 110,
      "durationTicks" : 60,
      "durationSeconds" : 0.12931025000000318
    }, {
      "type" : "note",
      "tick" : 39144,
      "timeSeconds" : 84.3620071,
      "channel" : 5,
      "noteNumber" : 64,
      "noteName" : "E4",
      "velocity" : 101,
      "durationTicks" : 71,
      "durationSeconds" : 0.15301712916667043
    }, {
      "type" : "note",
      "tick" : 39144,
      "timeSeconds" : 84.3620071,
      "channel" : 5,
      "noteNumber" : 52,
      "noteName" : "E3",
      "velocity" : 113,
      "durationTicks" : 71,
      "durationSeconds" : 0.15301712916667043
    }, {
      "type" : "note",
      "tick" : 39144,
      "timeSeconds" : 84.3620071,
      "channel" : 5,
      "noteNumber" : 58,
      "noteName" : "A#3",
      "velocity" : 100,
      "durationTicks" : 72,
      "durationSeconds" : 0.15517230000000382
    }, {
      "type" : "note",
      "tick" : 39264,
      "timeSeconds" : 84.6206276,
      "channel" : 5,
      "noteNumber" : 42,
      "noteName" : "F#2",
      "velocity" : 104,
      "durationTicks" : 60,
      "durationSeconds" : 0.12931024999998897
    }, {
      "type" : "note",
      "tick" : 39264,
      "timeSeconds" : 84.6206276,
      "channel" : 5,
      "noteNumber" : 52,
      "noteName" : "E3",
      "velocity" : 108,
      "durationTicks" : 68,
      "durationSeconds" : 0.14655161666665606
    }, {
      "type" : "note",
      "tick" : 39264,
      "timeSeconds" : 84.6206276,
      "channel" : 5,
      "noteNumber" : 64,
      "noteName" : "E4",
      "velocity" : 97,
      "durationTicks" : 75,
      "durationSeconds" : 0.16163781249998976
    }, {
      "type" : "note",
      "tick" : 39264,
      "timeSeconds" : 84.6206276,
      "channel" : 5,
      "noteNumber" : 58,
      "noteName" : "A#3",
      "velocity" : 100,
      "durationTicks" : 78,
      "durationSeconds" : 0.16810332499998992
    }, {
      "type" : "note",
      "tick" : 39624,
      "timeSeconds" : 85.3964891,
      "channel" : 5,
      "noteNumber" : 53,
      "noteName" : "F3",
      "velocity" : 117,
      "durationTicks" : 47,
      "durationSeconds" : 0.10129302916666916
    }, {
      "type" : "note",
      "tick" : 39624,
      "timeSeconds" : 85.3964891,
      "channel" : 5,
      "noteNumber" : 43,
      "noteName" : "G2",
      "velocity" : 113,
      "durationTicks" : 54,
      "durationSeconds" : 0.11637922500000286
    }, {
      "type" : "note",
      "tick" : 39624,
      "timeSeconds" : 85.3964891,
      "channel" : 5,
      "noteNumber" : 58,
      "noteName" : "A#3",
      "velocity" : 95,
      "durationTicks" : 57,
      "durationSeconds" : 0.12284473750000302
    }, {
      "type" : "note",
      "tick" : 39624,
      "timeSeconds" : 85.3964891,
      "channel" : 5,
      "noteNumber" : 62,
      "noteName" : "D4",
      "velocity" : 113,
      "durationTicks" : 58,
      "durationSeconds" : 0.12499990833333641
    }, {
      "type" : "note",
      "tick" : 39744,
      "timeSeconds" : 85.6551096,
      "channel" : 5,
      "noteNumber" : 53,
      "noteName" : "F3",
      "velocity" : 113,
      "durationTicks" : 57,
      "durationSeconds" : 0.12284473750000302
    }, {
      "type" : "note",
      "tick" : 39744,
      "timeSeconds" : 85.6551096,
      "channel" : 5,
      "noteNumber" : 43,
      "noteName" : "G2",
      "velocity" : 117,
      "durationTicks" : 60,
      "durationSeconds" : 0.12931025000000318
    }, {
      "type" : "note",
      "tick" : 39744,
      "timeSeconds" : 85.6551096,
      "channel" : 5,
      "noteNumber" : 58,
      "noteName" : "A#3",
      "velocity" : 95,
      "durationTicks" : 66,
      "durationSeconds" : 0.1422412750000035
    }, {
      "type" : "note",
      "tick" : 39744,
      "timeSeconds" : 85.6551096,
      "channel" : 5,
      "noteNumber" : 62,
      "noteName" : "D4",
      "velocity" : 94,
      "durationTicks" : 69,
      "durationSeconds" : 0.14870678750000366
    }, {
      "type" : "note",
      "tick" : 40104,
      "timeSeconds" : 86.4309711,
      "channel" : 5,
      "noteNumber" : 55,
      "noteName" : "G3",
      "velocity" : 104,
      "durationTicks" : 48,
      "durationSeconds" : 0.10344820000000254
    }, {
      "type" : "note",
      "tick" : 40104,
      "timeSeconds" : 86.4309711,
      "channel" : 5,
      "noteNumber" : 58,
      "noteName" : "A#3",
      "velocity" : 100,
      "durationTicks" : 50,
      "durationSeconds" : 0.10775854166666932
    }, {
      "type" : "note",
      "tick" : 40104,
      "timeSeconds" : 86.4309711,
      "channel" : 5,
      "noteNumber" : 49,
      "noteName" : "C#3",
      "velocity" : 100,
      "durationTicks" : 54,
      "durationSeconds" : 0.11637922500000286
    }, {
      "type" : "note",
      "tick" : 40104,
      "timeSeconds" : 86.4309711,
      "channel" : 5,
      "noteNumber" : 64,
      "noteName" : "E4",
      "velocity" : 97,
      "durationTicks" : 56,
      "durationSeconds" : 0.12068956666666963
    }, {
      "type" : "note",
      "tick" : 40224,
      "timeSeconds" : 86.6895916,
      "channel" : 5,
      "noteNumber" : 49,
      "noteName" : "C#3",
      "velocity" : 104,
      "durationTicks" : 50,
      "durationSeconds" : 0.10775854166666932
    }, {
      "type" : "note",
      "tick" : 40224,
      "timeSeconds" : 86.6895916,
      "channel" : 5,
      "noteNumber" : 55,
      "noteName" : "G3",
      "velocity" : 108,
      "durationTicks" : 57,
      "durationSeconds" : 0.12284473750000302
    }, {
      "type" : "note",
      "tick" : 40224,
      "timeSeconds" : 86.6895916,
      "channel" : 5,
      "noteNumber" : 64,
      "noteName" : "E4",
      "velocity" : 104,
      "durationTicks" : 61,
      "durationSeconds" : 0.13146542083333657
    }, {
      "type" : "note",
      "tick" : 40224,
      "timeSeconds" : 86.6895916,
      "channel" : 5,
      "noteNumber" : 58,
      "noteName" : "A#3",
      "velocity" : 100,
      "durationTicks" : 70,
      "durationSeconds" : 0.15086195833333704
    }, {
      "type" : "note",
      "tick" : 40584,
      "timeSeconds" : 87.4654531,
      "channel" : 5,
      "noteNumber" : 50,
      "noteName" : "D3",
      "velocity" : 117,
      "durationTicks" : 51,
      "durationSeconds" : 0.10991371249998849
    }, {
      "type" : "note",
      "tick" : 40584,
      "timeSeconds" : 87.4654531,
      "channel" : 5,
      "noteNumber" : 67,
      "noteName" : "G4",
      "velocity" : 117,
      "durationTicks" : 58,
      "durationSeconds" : 0.1249999083333222
    }, {
      "type" : "note",
      "tick" : 40584,
      "timeSeconds" : 87.4654531,
      "channel" : 5,
      "noteNumber" : 57,
      "noteName" : "A3",
      "velocity" : 104,
      "durationTicks" : 60,
      "durationSeconds" : 0.12931024999998897
    }, {
      "type" : "note",
      "tick" : 40584,
      "timeSeconds" : 87.4654531,
      "channel" : 5,
      "noteNumber" : 64,
      "noteName" : "E4",
      "velocity" : 108,
      "durationTicks" : 68,
      "durationSeconds" : 0.14655161666665606
    }, {
      "type" : "note",
      "tick" : 40704,
      "timeSeconds" : 87.7240736,
      "channel" : 5,
      "noteNumber" : 69,
      "noteName" : "A4",
      "velocity" : 91,
      "durationTicks" : 32,
      "durationSeconds" : 0.06896546666666836
    }, {
      "type" : "note",
      "tick" : 40704,
      "timeSeconds" : 87.7240736,
      "channel" : 5,
      "noteNumber" : 67,
      "noteName" : "G4",
      "velocity" : 97,
      "durationTicks" : 35,
      "durationSeconds" : 0.07543097916666852
    }, {
      "type" : "note",
      "tick" : 40704,
      "timeSeconds" : 87.7240736,
      "channel" : 5,
      "noteNumber" : 57,
      "noteName" : "A3",
      "velocity" : 101,
      "durationTicks" : 50,
      "durationSeconds" : 0.10775854166666932
    }, {
      "type" : "note",
      "tick" : 40704,
      "timeSeconds" : 87.7240736,
      "channel" : 5,
      "noteNumber" : 50,
      "noteName" : "D3",
      "velocity" : 113,
      "durationTicks" : 53,
      "durationSeconds" : 0.11422405416666948
    }, {
      "type" : "note",
      "tick" : 40704,
      "timeSeconds" : 87.7240736,
      "channel" : 5,
      "noteNumber" : 64,
      "noteName" : "E4",
      "velocity" : 113,
      "durationTicks" : 55,
      "durationSeconds" : 0.11853439583333625
    }, {
      "type" : "note",
      "tick" : 41064,
      "timeSeconds" : 88.4999351,
      "channel" : 5,
      "noteNumber" : 57,
      "noteName" : "A3",
      "velocity" : 113,
      "durationTicks" : 56,
      "durationSeconds" : 0.12068956666666963
    }, {
      "type" : "note",
      "tick" : 41064,
      "timeSeconds" : 88.4999351,
      "channel" : 5,
      "noteNumber" : 63,
      "noteName" : "D#4",
      "velocity" : 104,
      "durationTicks" : 57,
      "durationSeconds" : 0.12284473750000302
    }, {
      "type" : "note",
      "tick" : 41064,
      "timeSeconds" : 88.4999351,
      "channel" : 5,
      "noteNumber" : 67,
      "noteName" : "G4",
      "velocity" : 117,
      "durationTicks" : 58,
      "durationSeconds" : 0.12499990833333641
    }, {
      "type" : "note",
      "tick" : 41064,
      "timeSeconds" : 88.4999351,
      "channel" : 5,
      "noteNumber" : 41,
      "noteName" : "F2",
      "velocity" : 127,
      "durationTicks" : 60,
      "durationSeconds" : 0.12931025000000318
    }, {
      "type" : "note",
      "tick" : 41184,
      "timeSeconds" : 88.7585556,
      "channel" : 5,
      "noteNumber" : 67,
      "noteName" : "G4",
      "velocity" : 117,
      "durationTicks" : 52,
      "durationSeconds" : 0.11206888333333609
    }, {
      "type" : "note",
      "tick" : 41184,
      "timeSeconds" : 88.7585556,
      "channel" : 5,
      "noteNumber" : 57,
      "noteName" : "A3",
      "velocity" : 113,
      "durationTicks" : 57,
      "durationSeconds" : 0.12284473750000302
    }, {
      "type" : "note",
      "tick" : 41184,
      "timeSeconds" : 88.7585556,
      "channel" : 5,
      "noteNumber" : 63,
      "noteName" : "D#4",
      "velocity" : 104,
      "durationTicks" : 60,
      "durationSeconds" : 0.12931025000000318
    }, {
      "type" : "note",
      "tick" : 41184,
      "timeSeconds" : 88.7585556,
      "channel" : 5,
      "noteNumber" : 41,
      "noteName" : "F2",
      "velocity" : 113,
      "durationTicks" : 61,
      "durationSeconds" : 0.13146542083333657
    }, {
      "type" : "note",
      "tick" : 41544,
      "timeSeconds" : 89.5344171,
      "channel" : 5,
      "noteNumber" : 46,
      "noteName" : "A#2",
      "velocity" : 104,
      "durationTicks" : 52,
      "durationSeconds" : 0.11206888333333609
    }, {
      "type" : "note",
      "tick" : 41544,
      "timeSeconds" : 89.5344171,
      "channel" : 5,
      "noteNumber" : 57,
      "noteName" : "A3",
      "velocity" : 117,
      "durationTicks" : 55,
      "durationSeconds" : 0.11853439583333625
    }, {
      "type" : "note",
      "tick" : 41544,
      "timeSeconds" : 89.5344171,
      "channel" : 5,
      "noteNumber" : 67,
      "noteName" : "G4",
      "velocity" : 122,
      "durationTicks" : 61,
      "durationSeconds" : 0.13146542083333657
    }, {
      "type" : "note",
      "tick" : 41544,
      "timeSeconds" : 89.5344171,
      "channel" : 5,
      "noteNumber" : 62,
      "noteName" : "D4",
      "velocity" : 122,
      "durationTicks" : 62,
      "durationSeconds" : 0.13362059166666995
    }, {
      "type" : "note",
      "tick" : 41664,
      "timeSeconds" : 89.7930376,
      "channel" : 5,
      "noteNumber" : 67,
      "noteName" : "G4",
      "velocity" : 122,
      "durationTicks" : 54,
      "durationSeconds" : 0.11637922499998865
    }, {
      "type" : "note",
      "tick" : 41664,
      "timeSeconds" : 89.7930376,
      "channel" : 5,
      "noteNumber" : 46,
      "noteName" : "A#2",
      "velocity" : 110,
      "durationTicks" : 56,
      "durationSeconds" : 0.12068956666665542
    }, {
      "type" : "note",
      "tick" : 41664,
      "timeSeconds" : 89.7930376,
      "channel" : 5,
      "noteNumber" : 62,
      "noteName" : "D4",
      "velocity" : 127,
      "durationTicks" : 67,
      "durationSeconds" : 0.14439644583332267
    }, {
      "type" : "note",
      "tick" : 41664,
      "timeSeconds" : 89.7930376,
      "channel" : 5,
      "noteNumber" : 57,
      "noteName" : "A3",
      "velocity" : 117,
      "durationTicks" : 72,
      "durationSeconds" : 0.1551722999999896
    }, {
      "type" : "note",
      "tick" : 42024,
      "timeSeconds" : 90.5688991,
      "channel" : 5,
      "noteNumber" : 55,
      "noteName" : "G3",
      "velocity" : 117,
      "durationTicks" : 49,
      "durationSeconds" : 0.10560337083333593
    }, {
      "type" : "note",
      "tick" : 42024,
      "timeSeconds" : 90.5688991,
      "channel" : 5,
      "noteNumber" : 45,
      "noteName" : "A2",
      "velocity" : 122,
      "durationTicks" : 52,
      "durationSeconds" : 0.11206888333333609
    }, {
      "type" : "note",
      "tick" : 42024,
      "timeSeconds" : 90.5688991,
      "channel" : 5,
      "noteNumber" : 61,
      "noteName" : "C#4",
      "velocity" : 110,
      "durationTicks" : 59,
      "durationSeconds" : 0.1271550791666698
    }, {
      "type" : "note",
      "tick" : 42024,
      "timeSeconds" : 90.5688991,
      "channel" : 5,
      "noteNumber" : 65,
      "noteName" : "F4",
      "velocity" : 94,
      "durationTicks" : 63,
      "durationSeconds" : 0.13577576250000334
    }, {
      "type" : "note",
      "tick" : 42144,
      "timeSeconds" : 90.8275196,
      "channel" : 5,
      "noteNumber" : 45,
      "noteName" : "A2",
      "velocity" : 117,
      "durationTicks" : 49,
      "durationSeconds" : 0.10560337083333593
    }, {
      "type" : "note",
      "tick" : 42144,
      "timeSeconds" : 90.8275196,
      "channel" : 5,
      "noteNumber" : 61,
      "noteName" : "C#4",
      "velocity" : 104,
      "durationTicks" : 57,
      "durationSeconds" : 0.12284473750000302
    }, {
      "type" : "note",
      "tick" : 42144,
      "timeSeconds" : 90.8275196,
      "channel" : 5,
      "noteNumber" : 65,
      "noteName" : "F4",
      "velocity" : 101,
      "durationTicks" : 59,
      "durationSeconds" : 0.1271550791666698
    }, {
      "type" : "note",
      "tick" : 42144,
      "timeSeconds" : 90.8275196,
      "channel" : 5,
      "noteNumber" : 55,
      "noteName" : "G3",
      "velocity" : 113,
      "durationTicks" : 67,
      "durationSeconds" : 0.14439644583333688
    }, {
      "type" : "note",
      "tick" : 42504,
      "timeSeconds" : 91.6033811,
      "channel" : 5,
      "noteNumber" : 50,
      "noteName" : "D3",
      "velocity" : 122,
      "durationTicks" : 49,
      "durationSeconds" : 0.10560337083333593
    }, {
      "type" : "note",
      "tick" : 42504,
      "timeSeconds" : 91.6033811,
      "channel" : 5,
      "noteNumber" : 64,
      "noteName" : "E4",
      "velocity" : 104,
      "durationTicks" : 52,
      "durationSeconds" : 0.11206888333333609
    }, {
      "type" : "note",
      "tick" : 42504,
      "timeSeconds" : 91.6033811,
      "channel" : 5,
      "noteNumber" : 53,
      "noteName" : "F3",
      "velocity" : 113,
      "durationTicks" : 55,
      "durationSeconds" : 0.11853439583333625
    }, {
      "type" : "note",
      "tick" : 42504,
      "timeSeconds" : 91.6033811,
      "channel" : 5,
      "noteNumber" : 60,
      "noteName" : "C4",
      "velocity" : 117,
      "durationTicks" : 62,
      "durationSeconds" : 0.13362059166666995
    }, {
      "type" : "note",
      "tick" : 42624,
      "timeSeconds" : 91.8620016,
      "channel" : 5,
      "noteNumber" : 53,
      "noteName" : "F3",
      "velocity" : 122,
      "durationTicks" : 51,
      "durationSeconds" : 0.1099137125000027
    }, {
      "type" : "note",
      "tick" : 42624,
      "timeSeconds" : 91.8620016,
      "channel" : 5,
      "noteNumber" : 50,
      "noteName" : "D3",
      "velocity" : 127,
      "durationTicks" : 53,
      "durationSeconds" : 0.11422405416666948
    }, {
      "type" : "note",
      "tick" : 42624,
      "timeSeconds" : 91.8620016,
      "channel" : 5,
      "noteNumber" : 60,
      "noteName" : "C4",
      "velocity" : 122,
      "durationTicks" : 60,
      "durationSeconds" : 0.12931025000000318
    }, {
      "type" : "note",
      "tick" : 42624,
      "timeSeconds" : 91.8620016,
      "channel" : 5,
      "noteNumber" : 64,
      "noteName" : "E4",
      "velocity" : 101,
      "durationTicks" : 61,
      "durationSeconds" : 0.13146542083333657
    }, {
      "type" : "note",
      "tick" : 42984,
      "timeSeconds" : 92.6378631,
      "channel" : 5,
      "noteNumber" : 42,
      "noteName" : "F#2",
      "velocity" : 104,
      "durationTicks" : 42,
      "durationSeconds" : 0.09051717500000223
    }, {
      "type" : "note",
      "tick" : 42984,
      "timeSeconds" : 92.6378631,
      "channel" : 5,
      "noteNumber" : 64,
      "noteName" : "E4",
      "velocity" : 101,
      "durationTicks" : 68,
      "durationSeconds" : 0.14655161666665606
    }, {
      "type" : "note",
      "tick" : 42984,
      "timeSeconds" : 92.6378631,
      "channel" : 5,
      "noteNumber" : 58,
      "noteName" : "A#3",
      "velocity" : 100,
      "durationTicks" : 70,
      "durationSeconds" : 0.15086195833332283
    }, {
      "type" : "note",
      "tick" : 42984,
      "timeSeconds" : 92.6378631,
      "channel" : 5,
      "noteNumber" : 52,
      "noteName" : "E3",
      "velocity" : 101,
      "durationTicks" : 71,
      "durationSeconds" : 0.15301712916665622
    }, {
      "type" : "note",
      "tick" : 43104,
      "timeSeconds" : 92.8964836,
      "channel" : 5,
      "noteNumber" : 42,
      "noteName" : "F#2",
      "velocity" : 110,
      "durationTicks" : 54,
      "durationSeconds" : 0.11637922500000286
    }, {
      "type" : "note",
      "tick" : 43104,
      "timeSeconds" : 92.8964836,
      "channel" : 5,
      "noteNumber" : 64,
      "noteName" : "E4",
      "velocity" : 108,
      "durationTicks" : 62,
      "durationSeconds" : 0.13362059166666995
    }, {
      "type" : "note",
      "tick" : 43104,
      "timeSeconds" : 92.8964836,
      "channel" : 5,
      "noteNumber" : 52,
      "noteName" : "E3",
      "velocity" : 113,
      "durationTicks" : 65,
      "durationSeconds" : 0.1400861041666701
    }, {
      "type" : "note",
      "tick" : 43104,
      "timeSeconds" : 92.8964836,
      "channel" : 5,
      "noteNumber" : 58,
      "noteName" : "A#3",
      "velocity" : 104,
      "durationTicks" : 73,
      "durationSeconds" : 0.1573274708333372
    }, {
      "type" : "note",
      "tick" : 43464,
      "timeSeconds" : 93.6723451,
      "channel" : 5,
      "noteNumber" : 43,
      "noteName" : "G2",
      "velocity" : 122,
      "durationTicks" : 55,
      "durationSeconds" : 0.11853439583333625
    }, {
      "type" : "note",
      "tick" : 43464,
      "timeSeconds" : 93.6723451,
      "channel" : 5,
      "noteNumber" : 58,
      "noteName" : "A#3",
      "velocity" : 100,
      "durationTicks" : 61,
      "durationSeconds" : 0.13146542083333657
    }, {
      "type" : "note",
      "tick" : 43464,
      "timeSeconds" : 93.6723451,
      "channel" : 5,
      "noteNumber" : 53,
      "noteName" : "F3",
      "velocity" : 117,
      "durationTicks" : 63,
      "durationSeconds" : 0.13577576250000334
    }, {
      "type" : "note",
      "tick" : 43464,
      "timeSeconds" : 93.6723451,
      "channel" : 5,
      "noteNumber" : 62,
      "noteName" : "D4",
      "velocity" : 113,
      "durationTicks" : 66,
      "durationSeconds" : 0.1422412750000035
    }, {
      "type" : "note",
      "tick" : 43584,
      "timeSeconds" : 93.9309656,
      "channel" : 5,
      "noteNumber" : 53,
      "noteName" : "F3",
      "velocity" : 117,
      "durationTicks" : 63,
      "durationSeconds" : 0.13577576250000334
    }, {
      "type" : "note",
      "tick" : 43584,
      "timeSeconds" : 93.9309656,
      "channel" : 5,
      "noteNumber" : 43,
      "noteName" : "G2",
      "velocity" : 127,
      "durationTicks" : 69,
      "durationSeconds" : 0.14870678750000366
    }, {
      "type" : "note",
      "tick" : 43584,
      "timeSeconds" : 93.9309656,
      "channel" : 5,
      "noteNumber" : 58,
      "noteName" : "A#3",
      "velocity" : 104,
      "durationTicks" : 69,
      "durationSeconds" : 0.14870678750000366
    }, {
      "type" : "note",
      "tick" : 43584,
      "timeSeconds" : 93.9309656,
      "channel" : 5,
      "noteNumber" : 62,
      "noteName" : "D4",
      "velocity" : 108,
      "durationTicks" : 71,
      "durationSeconds" : 0.15301712916667043
    }, {
      "type" : "note",
      "tick" : 43944,
      "timeSeconds" : 94.7068271,
      "channel" : 5,
      "noteNumber" : 49,
      "noteName" : "C#3",
      "velocity" : 87,
      "durationTicks" : 49,
      "durationSeconds" : 0.10560337083333593
    }, {
      "type" : "note",
      "tick" : 43944,
      "timeSeconds" : 94.7068271,
      "channel" : 5,
      "noteNumber" : 55,
      "noteName" : "G3",
      "velocity" : 108,
      "durationTicks" : 57,
      "durationSeconds" : 0.12284473750000302
    }, {
      "type" : "note",
      "tick" : 43944,
      "timeSeconds" : 94.7068271,
      "channel" : 5,
      "noteNumber" : 58,
      "noteName" : "A#3",
      "velocity" : 100,
      "durationTicks" : 63,
      "durationSeconds" : 0.13577576250000334
    }, {
      "type" : "note",
      "tick" : 43944,
      "timeSeconds" : 94.7068271,
      "channel" : 5,
      "noteNumber" : 64,
      "noteName" : "E4",
      "velocity" : 97,
      "durationTicks" : 68,
      "durationSeconds" : 0.14655161666667027
    }, {
      "type" : "note",
      "tick" : 44064,
      "timeSeconds" : 94.9654476,
      "channel" : 5,
      "noteNumber" : 49,
      "noteName" : "C#3",
      "velocity" : 95,
      "durationTicks" : 55,
      "durationSeconds" : 0.11853439583332204
    }, {
      "type" : "note",
      "tick" : 44064,
      "timeSeconds" : 94.9654476,
      "channel" : 5,
      "noteNumber" : 58,
      "noteName" : "A#3",
      "velocity" : 104,
      "durationTicks" : 65,
      "durationSeconds" : 0.1400861041666559
    }, {
      "type" : "note",
      "tick" : 44064,
      "timeSeconds" : 94.9654476,
      "channel" : 5,
      "noteNumber" : 64,
      "noteName" : "E4",
      "velocity" : 101,
      "durationTicks" : 77,
      "durationSeconds" : 0.16594815416665654
    }, {
      "type" : "note",
      "tick" : 44064,
      "timeSeconds" : 94.9654476,
      "channel" : 5,
      "noteNumber" : 55,
      "noteName" : "G3",
      "velocity" : 113,
      "durationTicks" : 86,
      "durationSeconds" : 0.185344691666657
    }, {
      "type" : "note",
      "tick" : 44424,
      "timeSeconds" : 95.7413091,
      "channel" : 5,
      "noteNumber" : 50,
      "noteName" : "D3",
      "velocity" : 108,
      "durationTicks" : 46,
      "durationSeconds" : 0.09913785833333577
    }, {
      "type" : "note",
      "tick" : 44424,
      "timeSeconds" : 95.7413091,
      "channel" : 5,
      "noteNumber" : 53,
      "noteName" : "F3",
      "velocity" : 113,
      "durationTicks" : 57,
      "durationSeconds" : 0.12284473750000302
    }, {
      "type" : "note",
      "tick" : 44424,
      "timeSeconds" : 95.7413091,
      "channel" : 5,
      "noteNumber" : 64,
      "noteName" : "E4",
      "velocity" : 94,
      "durationTicks" : 62,
      "durationSeconds" : 0.13362059166666995
    }, {
      "type" : "note",
      "tick" : 44424,
      "timeSeconds" : 95.7413091,
      "channel" : 5,
      "noteNumber" : 60,
      "noteName" : "C4",
      "velocity" : 113,
      "durationTicks" : 70,
      "durationSeconds" : 0.15086195833333704
    }, {
      "type" : "note",
      "tick" : 44544,
      "timeSeconds" : 95.9999296,
      "channel" : 5,
      "noteNumber" : 53,
      "noteName" : "F3",
      "velocity" : 117,
      "durationTicks" : 50,
      "durationSeconds" : 0.10775854166666932
    }, {
      "type" : "note",
      "tick" : 44544,
      "timeSeconds" : 95.9999296,
      "channel" : 5,
      "noteNumber" : 50,
      "noteName" : "D3",
      "velocity" : 117,
      "durationTicks" : 53,
      "durationSeconds" : 0.11422405416666948
    }, {
      "type" : "note",
      "tick" : 44544,
      "timeSeconds" : 95.9999296,
      "channel" : 5,
      "noteNumber" : 60,
      "noteName" : "C4",
      "velocity" : 127,
      "durationTicks" : 53,
      "durationSeconds" : 0.11422405416666948
    }, {
      "type" : "note",
      "tick" : 44544,
      "timeSeconds" : 95.9999296,
      "channel" : 5,
      "noteNumber" : 64,
      "noteName" : "E4",
      "velocity" : 101,
      "durationTicks" : 54,
      "durationSeconds" : 0.11637922500000286
    }, {
      "type" : "note",
      "tick" : 44904,
      "timeSeconds" : 96.7757911,
      "channel" : 5,
      "noteNumber" : 57,
      "noteName" : "A3",
      "velocity" : 108,
      "durationTicks" : 49,
      "durationSeconds" : 0.10560337083332172
    }, {
      "type" : "note",
      "tick" : 44904,
      "timeSeconds" : 96.7757911,
      "channel" : 5,
      "noteNumber" : 67,
      "noteName" : "G4",
      "velocity" : 113,
      "durationTicks" : 54,
      "durationSeconds" : 0.11637922499998865
    }, {
      "type" : "note",
      "tick" : 44904,
      "timeSeconds" : 96.7757911,
      "channel" : 5,
      "noteNumber" : 63,
      "noteName" : "D#4",
      "velocity" : 104,
      "durationTicks" : 54,
      "durationSeconds" : 0.11637922499998865
    }, {
      "type" : "note",
      "tick" : 44904,
      "timeSeconds" : 96.7757911,
      "channel" : 5,
      "noteNumber" : 41,
      "noteName" : "F2",
      "velocity" : 122,
      "durationTicks" : 55,
      "durationSeconds" : 0.11853439583332204
    }, {
      "type" : "note",
      "tick" : 45024,
      "timeSeconds" : 97.0344116,
      "channel" : 5,
      "noteNumber" : 41,
      "noteName" : "F2",
      "velocity" : 113,
      "durationTicks" : 63,
      "durationSeconds" : 0.13577576250000334
    }, {
      "type" : "note",
      "tick" : 45024,
      "timeSeconds" : 97.0344116,
      "channel" : 5,
      "noteNumber" : 67,
      "noteName" : "G4",
      "velocity" : 108,
      "durationTicks" : 64,
      "durationSeconds" : 0.13793093333333672
    }, {
      "type" : "note",
      "tick" : 45024,
      "timeSeconds" : 97.0344116,
      "channel" : 5,
      "noteNumber" : 57,
      "noteName" : "A3",
      "velocity" : 104,
      "durationTicks" : 65,
      "durationSeconds" : 0.1400861041666701
    }, {
      "type" : "note",
      "tick" : 45024,
      "timeSeconds" : 97.0344116,
      "channel" : 5,
      "noteNumber" : 63,
      "noteName" : "D#4",
      "velocity" : 100,
      "durationTicks" : 70,
      "durationSeconds" : 0.15086195833333704
    }, {
      "type" : "note",
      "tick" : 45384,
      "timeSeconds" : 97.8102731,
      "channel" : 5,
      "noteNumber" : 46,
      "noteName" : "A#2",
      "velocity" : 104,
      "durationTicks" : 47,
      "durationSeconds" : 0.10129302916666916
    }, {
      "type" : "note",
      "tick" : 45384,
      "timeSeconds" : 97.8102731,
      "channel" : 5,
      "noteNumber" : 57,
      "noteName" : "A3",
      "velocity" : 104,
      "durationTicks" : 50,
      "durationSeconds" : 0.10775854166666932
    }, {
      "type" : "note",
      "tick" : 45384,
      "timeSeconds" : 97.8102731,
      "channel" : 5,
      "noteNumber" : 67,
      "noteName" : "G4",
      "velocity" : 108,
      "durationTicks" : 51,
      "durationSeconds" : 0.1099137125000027
    }, {
      "type" : "note",
      "tick" : 45384,
      "timeSeconds" : 97.8102731,
      "channel" : 5,
      "noteNumber" : 62,
      "noteName" : "D4",
      "velocity" : 117,
      "durationTicks" : 55,
      "durationSeconds" : 0.11853439583333625
    }, {
      "type" : "note",
      "tick" : 45504,
      "timeSeconds" : 98.0688936,
      "channel" : 5,
      "noteNumber" : 67,
      "noteName" : "G4",
      "velocity" : 104,
      "durationTicks" : 52,
      "durationSeconds" : 0.11206888333333609
    }, {
      "type" : "note",
      "tick" : 45504,
      "timeSeconds" : 98.0688936,
      "channel" : 5,
      "noteNumber" : 62,
      "noteName" : "D4",
      "velocity" : 113,
      "durationTicks" : 64,
      "durationSeconds" : 0.13793093333333672
    }, {
      "type" : "note",
      "tick" : 45504,
      "timeSeconds" : 98.0688936,
      "channel" : 5,
      "noteNumber" : 46,
      "noteName" : "A#2",
      "velocity" : 104,
      "durationTicks" : 64,
      "durationSeconds" : 0.13793093333333672
    }, {
      "type" : "note",
      "tick" : 45504,
      "timeSeconds" : 98.0688936,
      "channel" : 5,
      "noteNumber" : 57,
      "noteName" : "A3",
      "velocity" : 104,
      "durationTicks" : 71,
      "durationSeconds" : 0.15301712916667043
    }, {
      "type" : "note",
      "tick" : 45864,
      "timeSeconds" : 98.8447551,
      "channel" : 5,
      "noteNumber" : 55,
      "noteName" : "G3",
      "velocity" : 117,
      "durationTicks" : 47,
      "durationSeconds" : 0.10129302916666916
    }, {
      "type" : "note",
      "tick" : 45864,
      "timeSeconds" : 98.8447551,
      "channel" : 5,
      "noteNumber" : 45,
      "noteName" : "A2",
      "velocity" : 122,
      "durationTicks" : 49,
      "durationSeconds" : 0.10560337083333593
    }, {
      "type" : "note",
      "tick" : 45864,
      "timeSeconds" : 98.8447551,
      "channel" : 5,
      "noteNumber" : 61,
      "noteName" : "C#4",
      "velocity" : 104,
      "durationTicks" : 51,
      "durationSeconds" : 0.1099137125000027
    }, {
      "type" : "note",
      "tick" : 45864,
      "timeSeconds" : 98.8447551,
      "channel" : 5,
      "noteNumber" : 65,
      "noteName" : "F4",
      "velocity" : 94,
      "durationTicks" : 58,
      "durationSeconds" : 0.12499990833333641
    }, {
      "type" : "note",
      "tick" : 45984,
      "timeSeconds" : 99.1033756,
      "channel" : 5,
      "noteNumber" : 45,
      "noteName" : "A2",
      "velocity" : 122,
      "durationTicks" : 52,
      "durationSeconds" : 0.11206888333332188
    }, {
      "type" : "note",
      "tick" : 45984,
      "timeSeconds" : 99.1033756,
      "channel" : 5,
      "noteNumber" : 65,
      "noteName" : "F4",
      "velocity" : 97,
      "durationTicks" : 54,
      "durationSeconds" : 0.11637922499998865
    }, {
      "type" : "note",
      "tick" : 45984,
      "timeSeconds" : 99.1033756,
      "channel" : 5,
      "noteNumber" : 55,
      "noteName" : "G3",
      "velocity" : 108,
      "durationTicks" : 58,
      "durationSeconds" : 0.1249999083333222
    }, {
      "type" : "note",
      "tick" : 45984,
      "timeSeconds" : 99.1033756,
      "channel" : 5,
      "noteNumber" : 61,
      "noteName" : "C#4",
      "velocity" : 104,
      "durationTicks" : 59,
      "durationSeconds" : 0.12715507916665558
    }, {
      "type" : "note",
      "tick" : 46344,
      "timeSeconds" : 99.8792371,
      "channel" : 5,
      "noteNumber" : 50,
      "noteName" : "D3",
      "velocity" : 117,
      "durationTicks" : 47,
      "durationSeconds" : 0.10129302916666916
    }, {
      "type" : "note",
      "tick" : 46344,
      "timeSeconds" : 99.8792371,
      "channel" : 5,
      "noteNumber" : 53,
      "noteName" : "F3",
      "velocity" : 108,
      "durationTicks" : 50,
      "durationSeconds" : 0.10775854166666932
    }, {
      "type" : "note",
      "tick" : 46344,
      "timeSeconds" : 99.8792371,
      "channel" : 5,
      "noteNumber" : 64,
      "noteName" : "E4",
      "velocity" : 101,
      "durationTicks" : 56,
      "durationSeconds" : 0.12068956666666963
    }, {
      "type" : "note",
      "tick" : 46344,
      "timeSeconds" : 99.8792371,
      "channel" : 5,
      "noteNumber" : 60,
      "noteName" : "C4",
      "velocity" : 117,
      "durationTicks" : 62,
      "durationSeconds" : 0.13362059166666995
    }, {
      "type" : "note",
      "tick" : 46464,
      "timeSeconds" : 100.1378576,
      "channel" : 5,
      "noteNumber" : 50,
      "noteName" : "D3",
      "velocity" : 127,
      "durationTicks" : 44,
      "durationSeconds" : 0.094827516666669
    }, {
      "type" : "note",
      "tick" : 46464,
      "timeSeconds" : 100.1378576,
      "channel" : 5,
      "noteNumber" : 53,
      "noteName" : "F3",
      "velocity" : 113,
      "durationTicks" : 60,
      "durationSeconds" : 0.12931025000000318
    }, {
      "type" : "note",
      "tick" : 46464,
      "timeSeconds" : 100.1378576,
      "channel" : 5,
      "noteNumber" : 64,
      "noteName" : "E4",
      "velocity" : 104,
      "durationTicks" : 60,
      "durationSeconds" : 0.12931025000000318
    }, {
      "type" : "note",
      "tick" : 46464,
      "timeSeconds" : 100.1378576,
      "channel" : 5,
      "noteNumber" : 60,
      "noteName" : "C4",
      "velocity" : 122,
      "durationTicks" : 62,
      "durationSeconds" : 0.13362059166666995
    }, {
      "type" : "note",
      "tick" : 46824,
      "timeSeconds" : 100.9137191,
      "channel" : 5,
      "noteNumber" : 42,
      "noteName" : "F#2",
      "velocity" : 110,
      "durationTicks" : 55,
      "durationSeconds" : 0.11853439583333625
    }, {
      "type" : "note",
      "tick" : 46824,
      "timeSeconds" : 100.9137191,
      "channel" : 5,
      "noteNumber" : 64,
      "noteName" : "E4",
      "velocity" : 104,
      "durationTicks" : 69,
      "durationSeconds" : 0.14870678750000366
    }, {
      "type" : "note",
      "tick" : 46824,
      "timeSeconds" : 100.9137191,
      "channel" : 5,
      "noteNumber" : 58,
      "noteName" : "A#3",
      "velocity" : 104,
      "durationTicks" : 69,
      "durationSeconds" : 0.14870678750000366
    }, {
      "type" : "note",
      "tick" : 46824,
      "timeSeconds" : 100.9137191,
      "channel" : 5,
      "noteNumber" : 52,
      "noteName" : "E3",
      "velocity" : 122,
      "durationTicks" : 70,
      "durationSeconds" : 0.15086195833333704
    }, {
      "type" : "note",
      "tick" : 46944,
      "timeSeconds" : 101.1723396,
      "channel" : 5,
      "noteNumber" : 42,
      "noteName" : "F#2",
      "velocity" : 110,
      "durationTicks" : 51,
      "durationSeconds" : 0.1099137125000027
    }, {
      "type" : "note",
      "tick" : 46944,
      "timeSeconds" : 101.1723396,
      "channel" : 5,
      "noteNumber" : 64,
      "noteName" : "E4",
      "velocity" : 108,
      "durationTicks" : 61,
      "durationSeconds" : 0.13146542083333657
    }, {
      "type" : "note",
      "tick" : 46944,
      "timeSeconds" : 101.1723396,
      "channel" : 5,
      "noteNumber" : 52,
      "noteName" : "E3",
      "velocity" : 117,
      "durationTicks" : 62,
      "durationSeconds" : 0.13362059166666995
    }, {
      "type" : "note",
      "tick" : 46944,
      "timeSeconds" : 101.1723396,
      "channel" : 5,
      "noteNumber" : 58,
      "noteName" : "A#3",
      "velocity" : 104,
      "durationTicks" : 70,
      "durationSeconds" : 0.15086195833333704
    }, {
      "type" : "note",
      "tick" : 47304,
      "timeSeconds" : 101.9482011,
      "channel" : 5,
      "noteNumber" : 53,
      "noteName" : "F3",
      "velocity" : 127,
      "durationTicks" : 46,
      "durationSeconds" : 0.09913785833332156
    }, {
      "type" : "note",
      "tick" : 47304,
      "timeSeconds" : 101.9482011,
      "channel" : 5,
      "noteNumber" : 58,
      "noteName" : "A#3",
      "velocity" : 104,
      "durationTicks" : 55,
      "durationSeconds" : 0.11853439583332204
    }, {
      "type" : "note",
      "tick" : 47304,
      "timeSeconds" : 101.9482011,
      "channel" : 5,
      "noteNumber" : 43,
      "noteName" : "G2",
      "velocity" : 122,
      "durationTicks" : 55,
      "durationSeconds" : 0.11853439583332204
    }, {
      "type" : "note",
      "tick" : 47304,
      "timeSeconds" : 101.9482011,
      "channel" : 5,
      "noteNumber" : 62,
      "noteName" : "D4",
      "velocity" : 113,
      "durationTicks" : 58,
      "durationSeconds" : 0.1249999083333222
    }, {
      "type" : "note",
      "tick" : 47424,
      "timeSeconds" : 102.2068216,
      "channel" : 5,
      "noteNumber" : 53,
      "noteName" : "F3",
      "velocity" : 117,
      "durationTicks" : 61,
      "durationSeconds" : 0.13146542083333657
    }, {
      "type" : "note",
      "tick" : 47424,
      "timeSeconds" : 102.2068216,
      "channel" : 5,
      "noteNumber" : 62,
      "noteName" : "D4",
      "velocity" : 113,
      "durationTicks" : 69,
      "durationSeconds" : 0.14870678750000366
    }, {
      "type" : "note",
      "tick" : 47424,
      "timeSeconds" : 102.2068216,
      "channel" : 5,
      "noteNumber" : 58,
      "noteName" : "A#3",
      "velocity" : 100,
      "durationTicks" : 69,
      "durationSeconds" : 0.14870678750000366
    }, {
      "type" : "note",
      "tick" : 47424,
      "timeSeconds" : 102.2068216,
      "channel" : 5,
      "noteNumber" : 43,
      "noteName" : "G2",
      "velocity" : 117,
      "durationTicks" : 72,
      "durationSeconds" : 0.15517230000000382
    }, {
      "type" : "note",
      "tick" : 47784,
      "timeSeconds" : 102.9826831,
      "channel" : 5,
      "noteNumber" : 49,
      "noteName" : "C#3",
      "velocity" : 100,
      "durationTicks" : 45,
      "durationSeconds" : 0.09698268750000238
    }, {
      "type" : "note",
      "tick" : 47784,
      "timeSeconds" : 102.9826831,
      "channel" : 5,
      "noteNumber" : 55,
      "noteName" : "G3",
      "velocity" : 117,
      "durationTicks" : 51,
      "durationSeconds" : 0.1099137125000027
    }, {
      "type" : "note",
      "tick" : 47784,
      "timeSeconds" : 102.9826831,
      "channel" : 5,
      "noteNumber" : 64,
      "noteName" : "E4",
      "velocity" : 104,
      "durationTicks" : 61,
      "durationSeconds" : 0.13146542083333657
    }, {
      "type" : "note",
      "tick" : 47784,
      "timeSeconds" : 102.9826831,
      "channel" : 5,
      "noteNumber" : 58,
      "noteName" : "A#3",
      "velocity" : 104,
      "durationTicks" : 65,
      "durationSeconds" : 0.1400861041666701
    }, {
      "type" : "note",
      "tick" : 47904,
      "timeSeconds" : 103.2413036,
      "channel" : 5,
      "noteNumber" : 55,
      "noteName" : "G3",
      "velocity" : 113,
      "durationTicks" : 53,
      "durationSeconds" : 0.11422405416666948
    }, {
      "type" : "note",
      "tick" : 47904,
      "timeSeconds" : 103.2413036,
      "channel" : 5,
      "noteNumber" : 49,
      "noteName" : "C#3",
      "velocity" : 100,
      "durationTicks" : 58,
      "durationSeconds" : 0.12499990833333641
    }, {
      "type" : "note",
      "tick" : 47904,
      "timeSeconds" : 103.2413036,
      "channel" : 5,
      "noteNumber" : 58,
      "noteName" : "A#3",
      "velocity" : 110,
      "durationTicks" : 71,
      "durationSeconds" : 0.15301712916667043
    }, {
      "type" : "note",
      "tick" : 47904,
      "timeSeconds" : 103.2413036,
      "channel" : 5,
      "noteNumber" : 64,
      "noteName" : "E4",
      "velocity" : 91,
      "durationTicks" : 75,
      "durationSeconds" : 0.16163781250000397
    }, {
      "type" : "note",
      "tick" : 48264,
      "timeSeconds" : 104.0171651,
      "channel" : 5,
      "noteNumber" : 50,
      "noteName" : "D3",
      "velocity" : 122,
      "durationTicks" : 51,
      "durationSeconds" : 0.1099137125000027
    }, {
      "type" : "note",
      "tick" : 48264,
      "timeSeconds" : 104.0171651,
      "channel" : 5,
      "noteNumber" : 64,
      "noteName" : "E4",
      "velocity" : 108,
      "durationTicks" : 54,
      "durationSeconds" : 0.11637922500000286
    }, {
      "type" : "note",
      "tick" : 48264,
      "timeSeconds" : 104.0171651,
      "channel" : 5,
      "noteNumber" : 60,
      "noteName" : "C4",
      "velocity" : 127,
      "durationTicks" : 59,
      "durationSeconds" : 0.1271550791666698
    }, {
      "type" : "note",
      "tick" : 48264,
      "timeSeconds" : 104.0171651,
      "channel" : 5,
      "noteNumber" : 53,
      "noteName" : "F3",
      "velocity" : 117,
      "durationTicks" : 61,
      "durationSeconds" : 0.13146542083333657
    }, {
      "type" : "note",
      "tick" : 48384,
      "timeSeconds" : 104.2757856,
      "channel" : 5,
      "noteNumber" : 53,
      "noteName" : "F3",
      "velocity" : 122,
      "durationTicks" : 55,
      "durationSeconds" : 0.11853439583332204
    }, {
      "type" : "note",
      "tick" : 48384,
      "timeSeconds" : 104.2757856,
      "channel" : 5,
      "noteNumber" : 50,
      "noteName" : "D3",
      "velocity" : 127,
      "durationTicks" : 62,
      "durationSeconds" : 0.13362059166665574
    }, {
      "type" : "note",
      "tick" : 48384,
      "timeSeconds" : 104.2757856,
      "channel" : 5,
      "noteNumber" : 60,
      "noteName" : "C4",
      "velocity" : 122,
      "durationTicks" : 67,
      "durationSeconds" : 0.14439644583332267
    }, {
      "type" : "note",
      "tick" : 48384,
      "timeSeconds" : 104.2757856,
      "channel" : 5,
      "noteNumber" : 64,
      "noteName" : "E4",
      "velocity" : 101,
      "durationTicks" : 74,
      "durationSeconds" : 0.15948264166665638
    }, {
      "type" : "note",
      "tick" : 48744,
      "timeSeconds" : 105.0516471,
      "channel" : 5,
      "noteNumber" : 57,
      "noteName" : "A3",
      "velocity" : 117,
      "durationTicks" : 50,
      "durationSeconds" : 0.10775854166666932
    }, {
      "type" : "note",
      "tick" : 48744,
      "timeSeconds" : 105.0516471,
      "channel" : 5,
      "noteNumber" : 63,
      "noteName" : "D#4",
      "velocity" : 104,
      "durationTicks" : 52,
      "durationSeconds" : 0.11206888333333609
    }, {
      "type" : "note",
      "tick" : 48744,
      "timeSeconds" : 105.0516471,
      "channel" : 5,
      "noteNumber" : 67,
      "noteName" : "G4",
      "velocity" : 108,
      "durationTicks" : 60,
      "durationSeconds" : 0.12931025000000318
    }, {
      "type" : "note",
      "tick" : 48744,
      "timeSeconds" : 105.0516471,
      "channel" : 5,
      "noteNumber" : 41,
      "noteName" : "F2",
      "velocity" : 122,
      "durationTicks" : 62,
      "durationSeconds" : 0.13362059166666995
    }, {
      "type" : "note",
      "tick" : 48864,
      "timeSeconds" : 105.3102676,
      "channel" : 5,
      "noteNumber" : 57,
      "noteName" : "A3",
      "velocity" : 113,
      "durationTicks" : 63,
      "durationSeconds" : 0.13577576250000334
    }, {
      "type" : "note",
      "tick" : 48864,
      "timeSeconds" : 105.3102676,
      "channel" : 5,
      "noteNumber" : 41,
      "noteName" : "F2",
      "velocity" : 113,
      "durationTicks" : 65,
      "durationSeconds" : 0.1400861041666701
    }, {
      "type" : "note",
      "tick" : 48864,
      "timeSeconds" : 105.3102676,
      "channel" : 5,
      "noteNumber" : 67,
      "noteName" : "G4",
      "velocity" : 122,
      "durationTicks" : 67,
      "durationSeconds" : 0.14439644583333688
    }, {
      "type" : "note",
      "tick" : 48864,
      "timeSeconds" : 105.3102676,
      "channel" : 5,
      "noteNumber" : 63,
      "noteName" : "D#4",
      "velocity" : 110,
      "durationTicks" : 70,
      "durationSeconds" : 0.15086195833333704
    } ]
  }, {
    "index" : 7,
    "name" : "",
    "programChanges" : [ {
      "tick" : 2,
      "channel" : 6,
      "program" : 49
    } ],
    "events" : [ {
      "type" : "meta",
      "tick" : 0,
      "timeSeconds" : 0.0,
      "text" : "track_name: "
    }, {
      "type" : "control_change",
      "tick" : 0,
      "timeSeconds" : 0.0,
      "channel" : 6,
      "controller" : 7,
      "value" : 72
    }, {
      "type" : "control_change",
      "tick" : 0,
      "timeSeconds" : 0.0,
      "channel" : 6,
      "controller" : 10,
      "value" : 47
    }, {
      "type" : "control_change",
      "tick" : 0,
      "timeSeconds" : 0.0,
      "channel" : 6,
      "controller" : 0,
      "value" : 0
    }, {
      "type" : "control_change",
      "tick" : 0,
      "timeSeconds" : 0.0,
      "channel" : 6,
      "controller" : 94,
      "value" : 0
    }, {
      "type" : "control_change",
      "tick" : 0,
      "timeSeconds" : 0.0,
      "channel" : 6,
      "controller" : 1,
      "value" : 0
    }, {
      "type" : "control_change",
      "tick" : 0,
      "timeSeconds" : 0.0,
      "channel" : 6,
      "controller" : 11,
      "value" : 127
    }, {
      "type" : "control_change",
      "tick" : 0,
      "timeSeconds" : 0.0,
      "channel" : 6,
      "controller" : 121,
      "value" : 0
    }, {
      "type" : "control_change",
      "tick" : 0,
      "timeSeconds" : 0.0,
      "channel" : 6,
      "controller" : 93,
      "value" : 32
    }, {
      "type" : "control_change",
      "tick" : 0,
      "timeSeconds" : 0.0,
      "channel" : 6,
      "controller" : 91,
      "value" : 127
    }, {
      "type" : "control_change",
      "tick" : 2,
      "timeSeconds" : 0.004310341666666667,
      "channel" : 6,
      "controller" : 32,
      "value" : 0
    }, {
      "type" : "control_change",
      "tick" : 2,
      "timeSeconds" : 0.004310341666666667,
      "channel" : 6,
      "controller" : 0,
      "value" : 0
    }, {
      "type" : "control_change",
      "tick" : 2,
      "timeSeconds" : 0.004310341666666667,
      "channel" : 6,
      "controller" : 32,
      "value" : 0
    }, {
      "type" : "note",
      "tick" : 8612,
      "timeSeconds" : 18.56033121666667,
      "channel" : 6,
      "noteNumber" : 43,
      "noteName" : "G2",
      "velocity" : 59,
      "durationTicks" : 42,
      "durationSeconds" : 0.09051717499999867
    }, {
      "type" : "note",
      "tick" : 8606,
      "timeSeconds" : 18.547400191666668,
      "channel" : 6,
      "noteNumber" : 53,
      "noteName" : "F3",
      "velocity" : 51,
      "durationTicks" : 448,
      "durationSeconds" : 0.9655165333333322
    }, {
      "type" : "note",
      "tick" : 8611,
      "timeSeconds" : 18.558176045833335,
      "channel" : 6,
      "noteNumber" : 62,
      "noteName" : "D4",
      "velocity" : 62,
      "durationTicks" : 478,
      "durationSeconds" : 1.0301716583333302
    }, {
      "type" : "note",
      "tick" : 8602,
      "timeSeconds" : 18.538779508333334,
      "channel" : 6,
      "noteNumber" : 58,
      "noteName" : "A#3",
      "velocity" : 40,
      "durationTicks" : 877,
      "durationSeconds" : 1.8900848208333336
    }, {
      "type" : "note",
      "tick" : 9086,
      "timeSeconds" : 19.581882191666665,
      "channel" : 6,
      "noteNumber" : 49,
      "noteName" : "C#3",
      "velocity" : 57,
      "durationTicks" : 453,
      "durationSeconds" : 0.9762923875000027
    }, {
      "type" : "note",
      "tick" : 9087,
      "timeSeconds" : 19.5840373625,
      "channel" : 6,
      "noteNumber" : 61,
      "noteName" : "C#4",
      "velocity" : 46,
      "durationTicks" : 469,
      "durationSeconds" : 1.0107751208333333
    }, {
      "type" : "note",
      "tick" : 9101,
      "timeSeconds" : 19.614209754166666,
      "channel" : 6,
      "noteNumber" : 55,
      "noteName" : "G3",
      "velocity" : 62,
      "durationTicks" : 466,
      "durationSeconds" : 1.0043096083333332
    }, {
      "type" : "note",
      "tick" : 9556,
      "timeSeconds" : 20.59481248333333,
      "channel" : 6,
      "noteNumber" : 53,
      "noteName" : "F3",
      "velocity" : 53,
      "durationTicks" : 503,
      "durationSeconds" : 1.0840509291666685
    }, {
      "type" : "note",
      "tick" : 9553,
      "timeSeconds" : 20.588346970833335,
      "channel" : 6,
      "noteNumber" : 57,
      "noteName" : "A3",
      "velocity" : 77,
      "durationTicks" : 536,
      "durationSeconds" : 1.1551715666666666
    }, {
      "type" : "note",
      "tick" : 9554,
      "timeSeconds" : 20.590502141666665,
      "channel" : 6,
      "noteNumber" : 50,
      "noteName" : "D3",
      "velocity" : 49,
      "durationTicks" : 617,
      "durationSeconds" : 1.3297404041666674
    }, {
      "type" : "note",
      "tick" : 10210,
      "timeSeconds" : 22.004294208333334,
      "channel" : 6,
      "noteNumber" : 53,
      "noteName" : "F3",
      "velocity" : 46,
      "durationTicks" : 329,
      "durationSeconds" : 0.7090512041666663
    }, {
      "type" : "note",
      "tick" : 9574,
      "timeSeconds" : 20.633605558333333,
      "channel" : 6,
      "noteNumber" : 60,
      "noteName" : "C4",
      "velocity" : 59,
      "durationTicks" : 971,
      "durationSeconds" : 2.0926708791666684
    }, {
      "type" : "note",
      "tick" : 10525,
      "timeSeconds" : 22.683173020833333,
      "channel" : 6,
      "noteNumber" : 62,
      "noteName" : "D4",
      "velocity" : 67,
      "durationTicks" : 477,
      "durationSeconds" : 1.0280164875000004
    }, {
      "type" : "note",
      "tick" : 10522,
      "timeSeconds" : 22.676707508333333,
      "channel" : 6,
      "noteNumber" : 55,
      "noteName" : "G3",
      "velocity" : 68,
      "durationTicks" : 503,
      "durationSeconds" : 1.0840509291666685
    }, {
      "type" : "note",
      "tick" : 11003,
      "timeSeconds" : 23.713344679166667,
      "channel" : 6,
      "noteNumber" : 61,
      "noteName" : "C#4",
      "velocity" : 43,
      "durationTicks" : 387,
      "durationSeconds" : 0.8340511124999992
    }, {
      "type" : "note",
      "tick" : 11008,
      "timeSeconds" : 23.724120533333334,
      "channel" : 6,
      "noteNumber" : 64,
      "noteName" : "E4",
      "velocity" : 68,
      "durationTicks" : 424,
      "durationSeconds" : 0.9137924333333309
    }, {
      "type" : "note",
      "tick" : 10083,
      "timeSeconds" : 21.7305875125,
      "channel" : 6,
      "noteNumber" : 58,
      "noteName" : "A#3",
      "velocity" : 55,
      "durationTicks" : 1412,
      "durationSeconds" : 3.043101216666667
    }, {
      "type" : "note",
      "tick" : 11449,
      "timeSeconds" : 24.674550870833333,
      "channel" : 6,
      "noteNumber" : 65,
      "noteName" : "F4",
      "velocity" : 49,
      "durationTicks" : 512,
      "durationSeconds" : 1.103447466666669
    }, {
      "type" : "note",
      "tick" : 11452,
      "timeSeconds" : 24.681016383333333,
      "channel" : 6,
      "noteNumber" : 57,
      "noteName" : "A3",
      "velocity" : 53,
      "durationTicks" : 515,
      "durationSeconds" : 1.1099129791666655
    }, {
      "type" : "note",
      "tick" : 11451,
      "timeSeconds" : 24.6788612125,
      "channel" : 6,
      "noteNumber" : 62,
      "noteName" : "D4",
      "velocity" : 67,
      "durationTicks" : 529,
      "durationSeconds" : 1.140085370833333
    }, {
      "type" : "note",
      "tick" : 11964,
      "timeSeconds" : 25.78446385,
      "channel" : 6,
      "noteNumber" : 64,
      "noteName" : "E4",
      "velocity" : 63,
      "durationTicks" : 260,
      "durationSeconds" : 0.5603444166666662
    }, {
      "type" : "note",
      "tick" : 11951,
      "timeSeconds" : 25.756446629166668,
      "channel" : 6,
      "noteNumber" : 58,
      "noteName" : "A#3",
      "velocity" : 46,
      "durationTicks" : 275,
      "durationSeconds" : 0.592671979166667
    }, {
      "type" : "note",
      "tick" : 11965,
      "timeSeconds" : 25.786619020833335,
      "channel" : 6,
      "noteNumber" : 55,
      "noteName" : "G3",
      "velocity" : 71,
      "durationTicks" : 267,
      "durationSeconds" : 0.5754306124999999
    }, {
      "type" : "note",
      "tick" : 12246,
      "timeSeconds" : 26.392222025,
      "channel" : 6,
      "noteNumber" : 54,
      "noteName" : "F#3",
      "velocity" : 42,
      "durationTicks" : 189,
      "durationSeconds" : 0.4073272875000029
    }, {
      "type" : "note",
      "tick" : 12276,
      "timeSeconds" : 26.45687715,
      "channel" : 6,
      "noteNumber" : 64,
      "noteName" : "E4",
      "velocity" : 49,
      "durationTicks" : 183,
      "durationSeconds" : 0.39439626249999904
    }, {
      "type" : "note",
      "tick" : 12230,
      "timeSeconds" : 26.357739291666668,
      "channel" : 6,
      "noteNumber" : 60,
      "noteName" : "C4",
      "velocity" : 52,
      "durationTicks" : 248,
      "durationSeconds" : 0.5344823666666656
    }, {
      "type" : "note",
      "tick" : 12447,
      "timeSeconds" : 26.8254113625,
      "channel" : 6,
      "noteNumber" : 62,
      "noteName" : "D4",
      "velocity" : 77,
      "durationTicks" : 443,
      "durationSeconds" : 0.9547406791666688
    }, {
      "type" : "note",
      "tick" : 12450,
      "timeSeconds" : 26.831876875,
      "channel" : 6,
      "noteNumber" : 55,
      "noteName" : "G3",
      "velocity" : 68,
      "durationTicks" : 454,
      "durationSeconds" : 0.9784475583333361
    }, {
      "type" : "note",
      "tick" : 12887,
      "timeSeconds" : 27.773686529166667,
      "channel" : 6,
      "noteNumber" : 61,
      "noteName" : "C#4",
      "velocity" : 57,
      "durationTicks" : 526,
      "durationSeconds" : 1.1336198583333328
    }, {
      "type" : "note",
      "tick" : 12444,
      "timeSeconds" : 26.81894585,
      "channel" : 6,
      "noteNumber" : 58,
      "noteName" : "A#3",
      "velocity" : 42,
      "durationTicks" : 973,
      "durationSeconds" : 2.096981220833335
    }, {
      "type" : "note",
      "tick" : 12893,
      "timeSeconds" : 27.786617554166668,
      "channel" : 6,
      "noteNumber" : 64,
      "noteName" : "E4",
      "velocity" : 59,
      "durationTicks" : 997,
      "durationSeconds" : 2.148705320833333
    }, {
      "type" : "note",
      "tick" : 13420,
      "timeSeconds" : 28.922392583333334,
      "channel" : 6,
      "noteNumber" : 50,
      "noteName" : "D3",
      "velocity" : 50,
      "durationTicks" : 473,
      "durationSeconds" : 1.0193958041666669
    }, {
      "type" : "note",
      "tick" : 13410,
      "timeSeconds" : 28.900840875,
      "channel" : 6,
      "noteNumber" : 57,
      "noteName" : "A3",
      "velocity" : 49,
      "durationTicks" : 502,
      "durationSeconds" : 1.0818957583333315
    }, {
      "type" : "note",
      "tick" : 13400,
      "timeSeconds" : 28.879289166666666,
      "channel" : 6,
      "noteNumber" : 60,
      "noteName" : "C4",
      "velocity" : 59,
      "durationTicks" : 515,
      "durationSeconds" : 1.1099129791666655
    }, {
      "type" : "note",
      "tick" : 13888,
      "timeSeconds" : 29.931012533333334,
      "channel" : 6,
      "noteNumber" : 67,
      "noteName" : "G4",
      "velocity" : 64,
      "durationTicks" : 465,
      "durationSeconds" : 1.0021544374999998
    }, {
      "type" : "note",
      "tick" : 13892,
      "timeSeconds" : 29.939633216666667,
      "channel" : 6,
      "noteNumber" : 63,
      "noteName" : "D#4",
      "velocity" : 73,
      "durationTicks" : 472,
      "durationSeconds" : 1.0172406333333335
    }, {
      "type" : "note",
      "tick" : 13896,
      "timeSeconds" : 29.9482539,
      "channel" : 6,
      "noteNumber" : 53,
      "noteName" : "F3",
      "velocity" : 83,
      "durationTicks" : 479,
      "durationSeconds" : 1.0323268291666672
    }, {
      "type" : "note",
      "tick" : 14359,
      "timeSeconds" : 30.946097995833334,
      "channel" : 6,
      "noteNumber" : 62,
      "noteName" : "D4",
      "velocity" : 66,
      "durationTicks" : 435,
      "durationSeconds" : 0.9374993124999982
    }, {
      "type" : "note",
      "tick" : 14371,
      "timeSeconds" : 30.971960045833335,
      "channel" : 6,
      "noteNumber" : 58,
      "noteName" : "A#3",
      "velocity" : 41,
      "durationTicks" : 442,
      "durationSeconds" : 0.9525855083333319
    }, {
      "type" : "note",
      "tick" : 14368,
      "timeSeconds" : 30.965494533333334,
      "channel" : 6,
      "noteNumber" : 65,
      "noteName" : "F4",
      "velocity" : 46,
      "durationTicks" : 504,
      "durationSeconds" : 1.0862060999999983
    }, {
      "type" : "note",
      "tick" : 14879,
      "timeSeconds" : 32.06678682916667,
      "channel" : 6,
      "noteNumber" : 61,
      "noteName" : "C#4",
      "velocity" : 43,
      "durationTicks" : 410,
      "durationSeconds" : 0.8836200416666671
    }, {
      "type" : "note",
      "tick" : 15306,
      "timeSeconds" : 32.987044775,
      "channel" : 6,
      "noteNumber" : 50,
      "noteName" : "D3",
      "velocity" : 55,
      "durationTicks" : 533,
      "durationSeconds" : 1.1487060541666665
    }, {
      "type" : "note",
      "tick" : 15295,
      "timeSeconds" : 32.963337895833334,
      "channel" : 6,
      "noteNumber" : 60,
      "noteName" : "C4",
      "velocity" : 66,
      "durationTicks" : 557,
      "durationSeconds" : 1.2004301541666678
    }, {
      "type" : "note",
      "tick" : 14865,
      "timeSeconds" : 32.0366144375,
      "channel" : 6,
      "noteNumber" : 57,
      "noteName" : "A3",
      "velocity" : 63,
      "durationTicks" : 994,
      "durationSeconds" : 2.1422398083333363
    }, {
      "type" : "note",
      "tick" : 14857,
      "timeSeconds" : 32.01937307083333,
      "channel" : 6,
      "noteNumber" : 64,
      "noteName" : "E4",
      "velocity" : 75,
      "durationTicks" : 1330,
      "durationSeconds" : 2.8663772083333328
    }, {
      "type" : "note",
      "tick" : 15842,
      "timeSeconds" : 34.14221634166667,
      "channel" : 6,
      "noteNumber" : 58,
      "noteName" : "A#3",
      "velocity" : 43,
      "durationTicks" : 348,
      "durationSeconds" : 0.7499994499999971
    }, {
      "type" : "note",
      "tick" : 15863,
      "timeSeconds" : 34.18747492916667,
      "channel" : 6,
      "noteNumber" : 55,
      "noteName" : "G3",
      "velocity" : 83,
      "durationTicks" : 332,
      "durationSeconds" : 0.7155167166666629
    }, {
      "type" : "note",
      "tick" : 39322,
      "timeSeconds" : 84.74562750833333,
      "channel" : 6,
      "noteNumber" : 62,
      "noteName" : "D4",
      "velocity" : 53,
      "durationTicks" : 483,
      "durationSeconds" : 1.0409475125000114
    }, {
      "type" : "note",
      "tick" : 39326,
      "timeSeconds" : 84.75424819166666,
      "channel" : 6,
      "noteNumber" : 55,
      "noteName" : "G3",
      "velocity" : 50,
      "durationTicks" : 500,
      "durationSeconds" : 1.0775854166666647
    }, {
      "type" : "note",
      "tick" : 39321,
      "timeSeconds" : 84.7434723375,
      "channel" : 6,
      "noteNumber" : 58,
      "noteName" : "A#3",
      "velocity" : 30,
      "durationTicks" : 518,
      "durationSeconds" : 1.1163784916666657
    }, {
      "type" : "note",
      "tick" : 39806,
      "timeSeconds" : 85.78873019166667,
      "channel" : 6,
      "noteNumber" : 61,
      "noteName" : "C#4",
      "velocity" : 63,
      "durationTicks" : 479,
      "durationSeconds" : 1.0323268291666636
    }, {
      "type" : "note",
      "tick" : 40260,
      "timeSeconds" : 86.76717775,
      "channel" : 6,
      "noteNumber" : 57,
      "noteName" : "A3",
      "velocity" : 53,
      "durationTicks" : 514,
      "durationSeconds" : 1.1077578083333322
    }, {
      "type" : "note",
      "tick" : 39818,
      "timeSeconds" : 85.81459224166667,
      "channel" : 6,
      "noteNumber" : 64,
      "noteName" : "E4",
      "velocity" : 47,
      "durationTicks" : 958,
      "durationSeconds" : 2.0646536583333273
    }, {
      "type" : "note",
      "tick" : 40270,
      "timeSeconds" : 86.78872945833334,
      "channel" : 6,
      "noteNumber" : 60,
      "noteName" : "C4",
      "velocity" : 64,
      "durationTicks" : 536,
      "durationSeconds" : 1.1551715666666666
    }, {
      "type" : "note",
      "tick" : 40770,
      "timeSeconds" : 87.866314875,
      "channel" : 6,
      "noteNumber" : 67,
      "noteName" : "G4",
      "velocity" : 79,
      "durationTicks" : 469,
      "durationSeconds" : 1.0107751208333298
    }, {
      "type" : "note",
      "tick" : 40768,
      "timeSeconds" : 87.86200453333333,
      "channel" : 6,
      "noteNumber" : 53,
      "noteName" : "F3",
      "velocity" : 71,
      "durationTicks" : 483,
      "durationSeconds" : 1.0409475124999972
    }, {
      "type" : "note",
      "tick" : 40764,
      "timeSeconds" : 87.85338385,
      "channel" : 6,
      "noteNumber" : 63,
      "noteName" : "D#4",
      "velocity" : 41,
      "durationTicks" : 499,
      "durationSeconds" : 1.0754302458333314
    }, {
      "type" : "note",
      "tick" : 41237,
      "timeSeconds" : 88.87277965416666,
      "channel" : 6,
      "noteNumber" : 58,
      "noteName" : "A#3",
      "velocity" : 41,
      "durationTicks" : 690,
      "durationSeconds" : 1.4870678750000081
    }, {
      "type" : "note",
      "tick" : 41240,
      "timeSeconds" : 88.87924516666666,
      "channel" : 6,
      "noteNumber" : 62,
      "noteName" : "D4",
      "velocity" : 55,
      "durationTicks" : 689,
      "durationSeconds" : 1.4849127041666748
    }, {
      "type" : "note",
      "tick" : 41930,
      "timeSeconds" : 90.36631304166667,
      "channel" : 6,
      "noteNumber" : 57,
      "noteName" : "A3",
      "velocity" : 48,
      "durationTicks" : 313,
      "durationSeconds" : 0.6745684708333215
    }, {
      "type" : "note",
      "tick" : 41900,
      "timeSeconds" : 90.30165791666667,
      "channel" : 6,
      "noteNumber" : 61,
      "noteName" : "C#4",
      "velocity" : 34,
      "durationTicks" : 494,
      "durationSeconds" : 1.0646543916666644
    }, {
      "type" : "note",
      "tick" : 41241,
      "timeSeconds" : 88.8814003375,
      "channel" : 6,
      "noteNumber" : 65,
      "noteName" : "F4",
      "velocity" : 62,
      "durationTicks" : 1217,
      "durationSeconds" : 2.6228429041666743
    }, {
      "type" : "note",
      "tick" : 42546,
      "timeSeconds" : 91.693898275,
      "channel" : 6,
      "noteNumber" : 58,
      "noteName" : "A#3",
      "velocity" : 27,
      "durationTicks" : 503,
      "durationSeconds" : 1.084050929166665
    }, {
      "type" : "note",
      "tick" : 42380,
      "timeSeconds" : 91.33613991666667,
      "channel" : 6,
      "noteNumber" : 55,
      "noteName" : "G3",
      "velocity" : 39,
      "durationTicks" : 676,
      "durationSeconds" : 1.4568954833333265
    }, {
      "type" : "note",
      "tick" : 42430,
      "timeSeconds" : 91.44389845833334,
      "channel" : 6,
      "noteNumber" : 64,
      "noteName" : "E4",
      "velocity" : 81,
      "durationTicks" : 717,
      "durationSeconds" : 1.5452574874999954
    }, {
      "type" : "note",
      "tick" : 43149,
      "timeSeconds" : 92.9934662875,
      "channel" : 6,
      "noteNumber" : 65,
      "noteName" : "F4",
      "velocity" : 50,
      "durationTicks" : 513,
      "durationSeconds" : 1.1056026374999988
    }, {
      "type" : "note",
      "tick" : 43144,
      "timeSeconds" : 92.98269043333333,
      "channel" : 6,
      "noteNumber" : 62,
      "noteName" : "D4",
      "velocity" : 56,
      "durationTicks" : 527,
      "durationSeconds" : 1.1357750291666662
    }, {
      "type" : "note",
      "tick" : 43143,
      "timeSeconds" : 92.9805352625,
      "channel" : 6,
      "noteNumber" : 55,
      "noteName" : "G3",
      "velocity" : 57,
      "durationTicks" : 545,
      "durationSeconds" : 1.1745681041666671
    }, {
      "type" : "note",
      "tick" : 43654,
      "timeSeconds" : 94.08182755833333,
      "channel" : 6,
      "noteNumber" : 64,
      "noteName" : "E4",
      "velocity" : 73,
      "durationTicks" : 462,
      "durationSeconds" : 0.9956889249999961
    }, {
      "type" : "note",
      "tick" : 43142,
      "timeSeconds" : 92.97838009166666,
      "channel" : 6,
      "noteNumber" : 58,
      "noteName" : "A#3",
      "velocity" : 30,
      "durationTicks" : 983,
      "durationSeconds" : 2.118532929166662
    }, {
      "type" : "note",
      "tick" : 43645,
      "timeSeconds" : 94.06243102083333,
      "channel" : 6,
      "noteNumber" : 61,
      "noteName" : "C#4",
      "velocity" : 44,
      "durationTicks" : 494,
      "durationSeconds" : 1.0646543916666644
    }, {
      "type" : "note",
      "tick" : 44105,
      "timeSeconds" : 95.05380960416667,
      "channel" : 6,
      "noteNumber" : 65,
      "noteName" : "F4",
      "velocity" : 59,
      "durationTicks" : 506,
      "durationSeconds" : 1.090516441666665
    }, {
      "type" : "note",
      "tick" : 44100,
      "timeSeconds" : 95.04303375,
      "channel" : 6,
      "noteNumber" : 57,
      "noteName" : "A3",
      "velocity" : 56,
      "durationTicks" : 527,
      "durationSeconds" : 1.1357750291666662
    }, {
      "type" : "note",
      "tick" : 44110,
      "timeSeconds" : 95.06458545833334,
      "channel" : 6,
      "noteNumber" : 62,
      "noteName" : "D4",
      "velocity" : 59,
      "durationTicks" : 517,
      "durationSeconds" : 1.1142233208333323
    }, {
      "type" : "note",
      "tick" : 44606,
      "timeSeconds" : 96.13355019166667,
      "channel" : 6,
      "noteNumber" : 67,
      "noteName" : "G4",
      "velocity" : 83,
      "durationTicks" : 468,
      "durationSeconds" : 1.0086199499999964
    }, {
      "type" : "note",
      "tick" : 44608,
      "timeSeconds" : 96.13786053333334,
      "channel" : 6,
      "noteNumber" : 60,
      "noteName" : "C4",
      "velocity" : 64,
      "durationTicks" : 476,
      "durationSeconds" : 1.0258613166666635
    }, {
      "type" : "note",
      "tick" : 44602,
      "timeSeconds" : 96.12492950833334,
      "channel" : 6,
      "noteNumber" : 63,
      "noteName" : "D#4",
      "velocity" : 73,
      "durationTicks" : 509,
      "durationSeconds" : 1.0969819541666652
    }, {
      "type" : "note",
      "tick" : 45088,
      "timeSeconds" : 97.17234253333334,
      "channel" : 6,
      "noteNumber" : 58,
      "noteName" : "A#3",
      "velocity" : 39,
      "durationTicks" : 446,
      "durationSeconds" : 0.9612061916666619
    }, {
      "type" : "note",
      "tick" : 45091,
      "timeSeconds" : 97.17880804583334,
      "channel" : 6,
      "noteNumber" : 62,
      "noteName" : "D4",
      "velocity" : 54,
      "durationTicks" : 481,
      "durationSeconds" : 1.0366371708333304
    }, {
      "type" : "note",
      "tick" : 45079,
      "timeSeconds" : 97.15294599583333,
      "channel" : 6,
      "noteNumber" : 65,
      "noteName" : "F4",
      "velocity" : 56,
      "durationTicks" : 920,
      "durationSeconds" : 1.9827571666666586
    }, {
      "type" : "note",
      "tick" : 45548,
      "timeSeconds" : 98.16372111666666,
      "channel" : 6,
      "noteNumber" : 61,
      "noteName" : "C#4",
      "velocity" : 63,
      "durationTicks" : 482,
      "durationSeconds" : 1.0387923416666638
    }, {
      "type" : "note",
      "tick" : 45556,
      "timeSeconds" : 98.18096248333333,
      "channel" : 6,
      "noteNumber" : 57,
      "noteName" : "A3",
      "velocity" : 66,
      "durationTicks" : 488,
      "durationSeconds" : 1.051723366666664
    }, {
      "type" : "note",
      "tick" : 46009,
      "timeSeconds" : 99.15725487083333,
      "channel" : 6,
      "noteNumber" : 60,
      "noteName" : "C4",
      "velocity" : 62,
      "durationTicks" : 792,
      "durationSeconds" : 1.7068952999999993
    }, {
      "type" : "note",
      "tick" : 46024,
      "timeSeconds" : 99.18958243333333,
      "channel" : 6,
      "noteNumber" : 53,
      "noteName" : "F3",
      "velocity" : 44,
      "durationTicks" : 821,
      "durationSeconds" : 1.7693952541666675
    }, {
      "type" : "note",
      "tick" : 46009,
      "timeSeconds" : 99.15725487083333,
      "channel" : 6,
      "noteNumber" : 64,
      "noteName" : "E4",
      "velocity" : 56,
      "durationTicks" : 1026,
      "durationSeconds" : 2.2112052750000117
    }, {
      "type" : "note",
      "tick" : 46790,
      "timeSeconds" : 100.84044329166667,
      "channel" : 6,
      "noteNumber" : 58,
      "noteName" : "A#3",
      "velocity" : 63,
      "durationTicks" : 618,
      "durationSeconds" : 1.3318955749999901
    }, {
      "type" : "note",
      "tick" : 46872,
      "timeSeconds" : 101.0171673,
      "channel" : 6,
      "noteNumber" : 55,
      "noteName" : "G3",
      "velocity" : 63,
      "durationTicks" : 590,
      "durationSeconds" : 1.2715507916666695
    }, {
      "type" : "note",
      "tick" : 47021,
      "timeSeconds" : 101.33828775416667,
      "channel" : 6,
      "noteNumber" : 62,
      "noteName" : "D4",
      "velocity" : 67,
      "durationTicks" : 473,
      "durationSeconds" : 1.0193958041666633
    }, {
      "type" : "note",
      "tick" : 47465,
      "timeSeconds" : 102.29518360416667,
      "channel" : 6,
      "noteNumber" : 56,
      "noteName" : "G#3",
      "velocity" : 55,
      "durationTicks" : 469,
      "durationSeconds" : 1.0107751208333298
    }, {
      "type" : "note",
      "tick" : 47467,
      "timeSeconds" : 102.29949394583333,
      "channel" : 6,
      "noteNumber" : 64,
      "noteName" : "E4",
      "velocity" : 67,
      "durationTicks" : 489,
      "durationSeconds" : 1.0538785374999975
    }, {
      "type" : "note",
      "tick" : 47472,
      "timeSeconds" : 102.3102698,
      "channel" : 6,
      "noteNumber" : 61,
      "noteName" : "C#4",
      "velocity" : 68,
      "durationTicks" : 506,
      "durationSeconds" : 1.090516441666665
    }, {
      "type" : "note",
      "tick" : 47937,
      "timeSeconds" : 103.3124242375,
      "channel" : 6,
      "noteNumber" : 57,
      "noteName" : "A3",
      "velocity" : 60,
      "durationTicks" : 506,
      "durationSeconds" : 1.090516441666665
    }, {
      "type" : "note",
      "tick" : 47958,
      "timeSeconds" : 103.357682825,
      "channel" : 6,
      "noteNumber" : 65,
      "noteName" : "F4",
      "velocity" : 73,
      "durationTicks" : 491,
      "durationSeconds" : 1.0581888791666643
    }, {
      "type" : "note",
      "tick" : 47955,
      "timeSeconds" : 103.3512173125,
      "channel" : 6,
      "noteNumber" : 62,
      "noteName" : "D4",
      "velocity" : 53,
      "durationTicks" : 497,
      "durationSeconds" : 1.0711199041666646
    }, {
      "type" : "note",
      "tick" : 48433,
      "timeSeconds" : 104.38138897083333,
      "channel" : 6,
      "noteNumber" : 67,
      "noteName" : "G4",
      "velocity" : 86,
      "durationTicks" : 475,
      "durationSeconds" : 1.0237061458333443
    }, {
      "type" : "note",
      "tick" : 48431,
      "timeSeconds" : 104.37707862916666,
      "channel" : 6,
      "noteNumber" : 53,
      "noteName" : "F3",
      "velocity" : 63,
      "durationTicks" : 496,
      "durationSeconds" : 1.0689647333333454
    }, {
      "type" : "note",
      "tick" : 48420,
      "timeSeconds" : 104.35337175,
      "channel" : 6,
      "noteNumber" : 63,
      "noteName" : "D#4",
      "velocity" : 71,
      "durationTicks" : 516,
      "durationSeconds" : 1.1120681500000131
    }, {
      "type" : "note",
      "tick" : 48915,
      "timeSeconds" : 105.4201813125,
      "channel" : 6,
      "noteNumber" : 62,
      "noteName" : "D4",
      "velocity" : 57,
      "durationTicks" : 45,
      "durationSeconds" : 0.09698268749998817
    }, {
      "type" : "note",
      "tick" : 48913,
      "timeSeconds" : 105.41587097083334,
      "channel" : 6,
      "noteNumber" : 58,
      "noteName" : "A#3",
      "velocity" : 47,
      "durationTicks" : 47,
      "durationSeconds" : 0.10129302916665495
    }, {
      "type" : "note",
      "tick" : 48918,
      "timeSeconds" : 105.426646825,
      "channel" : 6,
      "noteNumber" : 65,
      "noteName" : "F4",
      "velocity" : 59,
      "durationTicks" : 42,
      "durationSeconds" : 0.09051717499998801
    } ]
  }, {
    "index" : 8,
    "name" : "",
    "programChanges" : [ {
      "tick" : 2,
      "channel" : 7,
      "program" : 4
    } ],
    "events" : [ {
      "type" : "meta",
      "tick" : 0,
      "timeSeconds" : 0.0,
      "text" : "track_name: "
    }, {
      "type" : "control_change",
      "tick" : 0,
      "timeSeconds" : 0.0,
      "channel" : 7,
      "controller" : 7,
      "value" : 77
    }, {
      "type" : "control_change",
      "tick" : 0,
      "timeSeconds" : 0.0,
      "channel" : 7,
      "controller" : 10,
      "value" : 62
    }, {
      "type" : "control_change",
      "tick" : 0,
      "timeSeconds" : 0.0,
      "channel" : 7,
      "controller" : 0,
      "value" : 0
    }, {
      "type" : "control_change",
      "tick" : 0,
      "timeSeconds" : 0.0,
      "channel" : 7,
      "controller" : 93,
      "value" : 25
    }, {
      "type" : "control_change",
      "tick" : 0,
      "timeSeconds" : 0.0,
      "channel" : 7,
      "controller" : 91,
      "value" : 33
    }, {
      "type" : "control_change",
      "tick" : 0,
      "timeSeconds" : 0.0,
      "channel" : 7,
      "controller" : 94,
      "value" : 0
    }, {
      "type" : "control_change",
      "tick" : 0,
      "timeSeconds" : 0.0,
      "channel" : 7,
      "controller" : 1,
      "value" : 0
    }, {
      "type" : "control_change",
      "tick" : 0,
      "timeSeconds" : 0.0,
      "channel" : 7,
      "controller" : 11,
      "value" : 127
    }, {
      "type" : "control_change",
      "tick" : 0,
      "timeSeconds" : 0.0,
      "channel" : 7,
      "controller" : 121,
      "value" : 0
    }, {
      "type" : "control_change",
      "tick" : 0,
      "timeSeconds" : 0.0,
      "channel" : 7,
      "controller" : 10,
      "value" : 0
    }, {
      "type" : "control_change",
      "tick" : 2,
      "timeSeconds" : 0.004310341666666667,
      "channel" : 7,
      "controller" : 32,
      "value" : 0
    }, {
      "type" : "control_change",
      "tick" : 2,
      "timeSeconds" : 0.004310341666666667,
      "channel" : 7,
      "controller" : 0,
      "value" : 0
    }, {
      "type" : "control_change",
      "tick" : 2,
      "timeSeconds" : 0.004310341666666667,
      "channel" : 7,
      "controller" : 32,
      "value" : 0
    }, {
      "type" : "control_change",
      "tick" : 929,
      "timeSeconds" : 2.0021537041666666,
      "channel" : 7,
      "controller" : 10,
      "value" : 126
    }, {
      "type" : "control_change",
      "tick" : 1068,
      "timeSeconds" : 2.30172245,
      "channel" : 7,
      "controller" : 10,
      "value" : 99
    }, {
      "type" : "control_change",
      "tick" : 1090,
      "timeSeconds" : 2.3491362083333334,
      "channel" : 7,
      "controller" : 10,
      "value" : 98
    }, {
      "type" : "control_change",
      "tick" : 1190,
      "timeSeconds" : 2.5646532916666667,
      "channel" : 7,
      "controller" : 10,
      "value" : 66
    }, {
      "type" : "control_change",
      "tick" : 1322,
      "timeSeconds" : 2.8491358416666666,
      "channel" : 7,
      "controller" : 10,
      "value" : 27
    }, {
      "type" : "control_change",
      "tick" : 1329,
      "timeSeconds" : 2.8642220375,
      "channel" : 7,
      "controller" : 10,
      "value" : 28
    }, {
      "type" : "note",
      "tick" : 949,
      "timeSeconds" : 2.0452571208333334,
      "channel" : 7,
      "noteNumber" : 65,
      "noteName" : "F4",
      "velocity" : 86,
      "durationTicks" : 447,
      "durationSeconds" : 0.9633613624999997
    }, {
      "type" : "note",
      "tick" : 946,
      "timeSeconds" : 2.0387916083333333,
      "channel" : 7,
      "noteNumber" : 62,
      "noteName" : "D4",
      "velocity" : 94,
      "durationTicks" : 452,
      "durationSeconds" : 0.9741372166666666
    }, {
      "type" : "note",
      "tick" : 945,
      "timeSeconds" : 2.0366364375,
      "channel" : 7,
      "noteNumber" : 58,
      "noteName" : "A#3",
      "velocity" : 83,
      "durationTicks" : 468,
      "durationSeconds" : 1.00861995
    }, {
      "type" : "note",
      "tick" : 947,
      "timeSeconds" : 2.0409467791666667,
      "channel" : 7,
      "noteNumber" : 53,
      "noteName" : "F3",
      "velocity" : 104,
      "durationTicks" : 476,
      "durationSeconds" : 1.0258613166666666
    }, {
      "type" : "control_change",
      "tick" : 1437,
      "timeSeconds" : 3.0969804875,
      "channel" : 7,
      "controller" : 10,
      "value" : 0
    }, {
      "type" : "control_change",
      "tick" : 1553,
      "timeSeconds" : 3.346980304166667,
      "channel" : 7,
      "controller" : 10,
      "value" : 36
    }, {
      "type" : "control_change",
      "tick" : 1575,
      "timeSeconds" : 3.3943940625,
      "channel" : 7,
      "controller" : 10,
      "value" : 37
    }, {
      "type" : "control_change",
      "tick" : 1663,
      "timeSeconds" : 3.5840490958333335,
      "channel" : 7,
      "controller" : 10,
      "value" : 58
    }, {
      "type" : "control_change",
      "tick" : 1689,
      "timeSeconds" : 3.6400835375,
      "channel" : 7,
      "controller" : 10,
      "value" : 59
    }, {
      "type" : "control_change",
      "tick" : 1787,
      "timeSeconds" : 3.8512902791666668,
      "channel" : 7,
      "controller" : 10,
      "value" : 79
    }, {
      "type" : "control_change",
      "tick" : 1793,
      "timeSeconds" : 3.8642213041666666,
      "channel" : 7,
      "controller" : 10,
      "value" : 80
    }, {
      "type" : "control_change",
      "tick" : 1811,
      "timeSeconds" : 3.9030143791666667,
      "channel" : 7,
      "controller" : 10,
      "value" : 86
    }, {
      "type" : "note",
      "tick" : 1450,
      "timeSeconds" : 3.1249977083333333,
      "channel" : 7,
      "noteNumber" : 58,
      "noteName" : "A#3",
      "velocity" : 87,
      "durationTicks" : 429,
      "durationSeconds" : 0.9245682875000001
    }, {
      "type" : "note",
      "tick" : 1449,
      "timeSeconds" : 3.1228425375,
      "channel" : 7,
      "noteNumber" : 61,
      "noteName" : "C#4",
      "velocity" : 91,
      "durationTicks" : 432,
      "durationSeconds" : 0.9310338000000002
    }, {
      "type" : "note",
      "tick" : 1451,
      "timeSeconds" : 3.1271528791666667,
      "channel" : 7,
      "noteNumber" : 64,
      "noteName" : "E4",
      "velocity" : 88,
      "durationTicks" : 434,
      "durationSeconds" : 0.935344141666667
    }, {
      "type" : "control_change",
      "tick" : 1902,
      "timeSeconds" : 4.099134925,
      "channel" : 7,
      "controller" : 10,
      "value" : 124
    }, {
      "type" : "note",
      "tick" : 1440,
      "timeSeconds" : 3.103446,
      "channel" : 7,
      "noteNumber" : 55,
      "noteName" : "G3",
      "velocity" : 83,
      "durationTicks" : 470,
      "durationSeconds" : 1.0129302916666667
    }, {
      "type" : "control_change",
      "tick" : 2025,
      "timeSeconds" : 4.3642209375,
      "channel" : 7,
      "controller" : 10,
      "value" : 93
    }, {
      "type" : "control_change",
      "tick" : 2153,
      "timeSeconds" : 4.640082804166667,
      "channel" : 7,
      "controller" : 10,
      "value" : 53
    }, {
      "type" : "control_change",
      "tick" : 2244,
      "timeSeconds" : 4.83620335,
      "channel" : 7,
      "controller" : 10,
      "value" : 33
    }, {
      "type" : "note",
      "tick" : 1923,
      "timeSeconds" : 4.1443935125,
      "channel" : 7,
      "noteNumber" : 60,
      "noteName" : "C4",
      "velocity" : 97,
      "durationTicks" : 404,
      "durationSeconds" : 0.8706890166666668
    }, {
      "type" : "note",
      "tick" : 1921,
      "timeSeconds" : 4.140083170833333,
      "channel" : 7,
      "noteNumber" : 64,
      "noteName" : "E4",
      "velocity" : 88,
      "durationTicks" : 416,
      "durationSeconds" : 0.8965510666666674
    }, {
      "type" : "note",
      "tick" : 1920,
      "timeSeconds" : 4.137928,
      "channel" : 7,
      "noteNumber" : 57,
      "noteName" : "A3",
      "velocity" : 60,
      "durationTicks" : 441,
      "durationSeconds" : 0.9504303375000003
    }, {
      "type" : "note",
      "tick" : 1925,
      "timeSeconds" : 4.1487038541666665,
      "channel" : 7,
      "noteNumber" : 50,
      "noteName" : "D3",
      "velocity" : 97,
      "durationTicks" : 440,
      "durationSeconds" : 0.9482751666666669
    }, {
      "type" : "control_change",
      "tick" : 2377,
      "timeSeconds" : 5.122841070833333,
      "channel" : 7,
      "controller" : 10,
      "value" : 2
    }, {
      "type" : "control_change",
      "tick" : 2383,
      "timeSeconds" : 5.1357720958333335,
      "channel" : 7,
      "controller" : 10,
      "value" : 3
    }, {
      "type" : "control_change",
      "tick" : 2400,
      "timeSeconds" : 5.17241,
      "channel" : 7,
      "controller" : 10,
      "value" : 4
    }, {
      "type" : "control_change",
      "tick" : 2500,
      "timeSeconds" : 5.3879270833333335,
      "channel" : 7,
      "controller" : 10,
      "value" : 62
    }, {
      "type" : "control_change",
      "tick" : 2627,
      "timeSeconds" : 5.661633779166666,
      "channel" : 7,
      "controller" : 10,
      "value" : 106
    }, {
      "type" : "control_change",
      "tick" : 2740,
      "timeSeconds" : 5.905168083333334,
      "channel" : 7,
      "controller" : 10,
      "value" : 126
    }, {
      "type" : "control_change",
      "tick" : 2845,
      "timeSeconds" : 6.131461020833333,
      "channel" : 7,
      "controller" : 10,
      "value" : 75
    }, {
      "type" : "note",
      "tick" : 2404,
      "timeSeconds" : 5.181030683333334,
      "channel" : 7,
      "noteNumber" : 58,
      "noteName" : "A#3",
      "velocity" : 104,
      "durationTicks" : 444,
      "durationSeconds" : 0.9568958499999995
    }, {
      "type" : "note",
      "tick" : 2406,
      "timeSeconds" : 5.185341025,
      "channel" : 7,
      "noteNumber" : 64,
      "noteName" : "E4",
      "velocity" : 86,
      "durationTicks" : 445,
      "durationSeconds" : 0.9590510208333338
    }, {
      "type" : "control_change",
      "tick" : 2851,
      "timeSeconds" : 6.144392045833333,
      "channel" : 7,
      "controller" : 10,
      "value" : 76
    }, {
      "type" : "note",
      "tick" : 2402,
      "timeSeconds" : 5.176720341666667,
      "channel" : 7,
      "noteNumber" : 54,
      "noteName" : "F#3",
      "velocity" : 87,
      "durationTicks" : 452,
      "durationSeconds" : 0.9741372166666666
    }, {
      "type" : "control_change",
      "tick" : 2977,
      "timeSeconds" : 6.415943570833333,
      "channel" : 7,
      "controller" : 10,
      "value" : 53
    }, {
      "type" : "control_change",
      "tick" : 3091,
      "timeSeconds" : 6.661633045833334,
      "channel" : 7,
      "controller" : 10,
      "value" : 25
    }, {
      "type" : "control_change",
      "tick" : 3239,
      "timeSeconds" : 6.980598329166667,
      "channel" : 7,
      "controller" : 10,
      "value" : 10
    }, {
      "type" : "control_change",
      "tick" : 3245,
      "timeSeconds" : 6.993529354166666,
      "channel" : 7,
      "controller" : 10,
      "value" : 11
    }, {
      "type" : "note",
      "tick" : 2894,
      "timeSeconds" : 6.237064391666666,
      "channel" : 7,
      "noteNumber" : 50,
      "noteName" : "D3",
      "velocity" : 81,
      "durationTicks" : 407,
      "durationSeconds" : 0.8771545291666669
    }, {
      "type" : "note",
      "tick" : 2890,
      "timeSeconds" : 6.228443708333334,
      "channel" : 7,
      "noteNumber" : 62,
      "noteName" : "D4",
      "velocity" : 104,
      "durationTicks" : 421,
      "durationSeconds" : 0.9073269208333326
    }, {
      "type" : "note",
      "tick" : 2888,
      "timeSeconds" : 6.224133366666667,
      "channel" : 7,
      "noteNumber" : 65,
      "noteName" : "F4",
      "velocity" : 101,
      "durationTicks" : 426,
      "durationSeconds" : 0.9181027749999995
    }, {
      "type" : "note",
      "tick" : 2884,
      "timeSeconds" : 6.215512683333333,
      "channel" : 7,
      "noteNumber" : 55,
      "noteName" : "G3",
      "velocity" : 68,
      "durationTicks" : 431,
      "durationSeconds" : 0.9288786291666664
    }, {
      "type" : "note",
      "tick" : 2892,
      "timeSeconds" : 6.23275405,
      "channel" : 7,
      "noteNumber" : 58,
      "noteName" : "A#3",
      "velocity" : 87,
      "durationTicks" : 428,
      "durationSeconds" : 0.9224131166666671
    }, {
      "type" : "control_change",
      "tick" : 3384,
      "timeSeconds" : 7.2930981,
      "channel" : 7,
      "controller" : 10,
      "value" : 44
    }, {
      "type" : "control_change",
      "tick" : 3406,
      "timeSeconds" : 7.3405118583333335,
      "channel" : 7,
      "controller" : 10,
      "value" : 45
    }, {
      "type" : "control_change",
      "tick" : 3412,
      "timeSeconds" : 7.353442883333333,
      "channel" : 7,
      "controller" : 10,
      "value" : 47
    }, {
      "type" : "control_change",
      "tick" : 3468,
      "timeSeconds" : 7.47413245,
      "channel" : 7,
      "controller" : 10,
      "value" : 83
    }, {
      "type" : "control_change",
      "tick" : 3587,
      "timeSeconds" : 7.730597779166667,
      "channel" : 7,
      "controller" : 10,
      "value" : 119
    }, {
      "type" : "control_change",
      "tick" : 3683,
      "timeSeconds" : 7.937494179166666,
      "channel" : 7,
      "controller" : 10,
      "value" : 52
    }, {
      "type" : "note",
      "tick" : 3362,
      "timeSeconds" : 7.245684341666666,
      "channel" : 7,
      "noteNumber" : 58,
      "noteName" : "A#3",
      "velocity" : 95,
      "durationTicks" : 439,
      "durationSeconds" : 0.9461199958333344
    }, {
      "type" : "note",
      "tick" : 3364,
      "timeSeconds" : 7.249994683333333,
      "channel" : 7,
      "noteNumber" : 61,
      "noteName" : "C#4",
      "velocity" : 100,
      "durationTicks" : 438,
      "durationSeconds" : 0.943964825000001
    }, {
      "type" : "note",
      "tick" : 3363,
      "timeSeconds" : 7.2478395125,
      "channel" : 7,
      "noteNumber" : 64,
      "noteName" : "E4",
      "velocity" : 97,
      "durationTicks" : 441,
      "durationSeconds" : 0.9504303375000012
    }, {
      "type" : "note",
      "tick" : 3360,
      "timeSeconds" : 7.241374,
      "channel" : 7,
      "noteNumber" : 55,
      "noteName" : "G3",
      "velocity" : 86,
      "durationTicks" : 449,
      "durationSeconds" : 0.9676717041666656
    }, {
      "type" : "control_change",
      "tick" : 3825,
      "timeSeconds" : 8.2435284375,
      "channel" : 7,
      "controller" : 10,
      "value" : 7
    }, {
      "type" : "control_change",
      "tick" : 3954,
      "timeSeconds" : 8.521545475,
      "channel" : 7,
      "controller" : 10,
      "value" : 34
    }, {
      "type" : "control_change",
      "tick" : 3960,
      "timeSeconds" : 8.5344765,
      "channel" : 7,
      "controller" : 10,
      "value" : 35
    }, {
      "type" : "control_change",
      "tick" : 4059,
      "timeSeconds" : 8.7478384125,
      "channel" : 7,
      "controller" : 10,
      "value" : 53
    }, {
      "type" : "control_change",
      "tick" : 4174,
      "timeSeconds" : 8.995683058333332,
      "channel" : 7,
      "controller" : 10,
      "value" : 68
    }, {
      "type" : "note",
      "tick" : 3847,
      "timeSeconds" : 8.290942195833333,
      "channel" : 7,
      "noteNumber" : 60,
      "noteName" : "C4",
      "velocity" : 108,
      "durationTicks" : 427,
      "durationSeconds" : 0.9202579458333329
    }, {
      "type" : "note",
      "tick" : 3849,
      "timeSeconds" : 8.2952525375,
      "channel" : 7,
      "noteNumber" : 64,
      "noteName" : "E4",
      "velocity" : 97,
      "durationTicks" : 429,
      "durationSeconds" : 0.9245682874999996
    }, {
      "type" : "note",
      "tick" : 3848,
      "timeSeconds" : 8.293097366666666,
      "channel" : 7,
      "noteNumber" : 57,
      "noteName" : "A3",
      "velocity" : 94,
      "durationTicks" : 440,
      "durationSeconds" : 0.9482751666666669
    }, {
      "type" : "note",
      "tick" : 3850,
      "timeSeconds" : 8.297407708333333,
      "channel" : 7,
      "noteNumber" : 50,
      "noteName" : "D3",
      "velocity" : 83,
      "durationTicks" : 446,
      "durationSeconds" : 0.9612061916666672
    }, {
      "type" : "control_change",
      "tick" : 4298,
      "timeSeconds" : 9.262924241666667,
      "channel" : 7,
      "controller" : 10,
      "value" : 107
    }, {
      "type" : "control_change",
      "tick" : 4325,
      "timeSeconds" : 9.321113854166667,
      "channel" : 7,
      "controller" : 10,
      "value" : 109
    }, {
      "type" : "control_change",
      "tick" : 4441,
      "timeSeconds" : 9.571113670833334,
      "channel" : 7,
      "controller" : 10,
      "value" : 120
    }, {
      "type" : "control_change",
      "tick" : 4550,
      "timeSeconds" : 9.806027291666666,
      "channel" : 7,
      "controller" : 10,
      "value" : 60
    }, {
      "type" : "control_change",
      "tick" : 4669,
      "timeSeconds" : 10.062492620833334,
      "channel" : 7,
      "controller" : 10,
      "value" : 22
    }, {
      "type" : "note",
      "tick" : 4322,
      "timeSeconds" : 9.314648341666667,
      "channel" : 7,
      "noteNumber" : 64,
      "noteName" : "E4",
      "velocity" : 101,
      "durationTicks" : 414,
      "durationSeconds" : 0.8922407250000006
    }, {
      "type" : "note",
      "tick" : 4320,
      "timeSeconds" : 9.310338,
      "channel" : 7,
      "noteNumber" : 58,
      "noteName" : "A#3",
      "velocity" : 95,
      "durationTicks" : 423,
      "durationSeconds" : 0.9116372625000011
    }, {
      "type" : "note",
      "tick" : 4319,
      "timeSeconds" : 9.308182829166666,
      "channel" : 7,
      "noteNumber" : 54,
      "noteName" : "F#3",
      "velocity" : 95,
      "durationTicks" : 440,
      "durationSeconds" : 0.9482751666666669
    }, {
      "type" : "control_change",
      "tick" : 4790,
      "timeSeconds" : 10.323268291666666,
      "channel" : 7,
      "controller" : 10,
      "value" : 6
    }, {
      "type" : "control_change",
      "tick" : 4913,
      "timeSeconds" : 10.588354304166666,
      "channel" : 7,
      "controller" : 10,
      "value" : 34
    }, {
      "type" : "control_change",
      "tick" : 5009,
      "timeSeconds" : 10.795250704166667,
      "channel" : 7,
      "controller" : 10,
      "value" : 76
    }, {
      "type" : "control_change",
      "tick" : 5146,
      "timeSeconds" : 11.090509108333332,
      "channel" : 7,
      "controller" : 10,
      "value" : 106
    }, {
      "type" : "note",
      "tick" : 4800,
      "timeSeconds" : 10.34482,
      "channel" : 7,
      "noteNumber" : 62,
      "noteName" : "D4",
      "velocity" : 108,
      "durationTicks" : 434,
      "durationSeconds" : 0.9353441416666666
    }, {
      "type" : "note",
      "tick" : 4800,
      "timeSeconds" : 10.34482,
      "channel" : 7,
      "noteNumber" : 65,
      "noteName" : "F4",
      "velocity" : 101,
      "durationTicks" : 438,
      "durationSeconds" : 0.9439648250000001
    }, {
      "type" : "note",
      "tick" : 4798,
      "timeSeconds" : 10.340509658333334,
      "channel" : 7,
      "noteNumber" : 55,
      "noteName" : "G3",
      "velocity" : 94,
      "durationTicks" : 445,
      "durationSeconds" : 0.9590510208333338
    }, {
      "type" : "note",
      "tick" : 4796,
      "timeSeconds" : 10.336199316666667,
      "channel" : 7,
      "noteNumber" : 58,
      "noteName" : "A#3",
      "velocity" : 83,
      "durationTicks" : 451,
      "durationSeconds" : 0.9719820458333324
    }, {
      "type" : "control_change",
      "tick" : 5278,
      "timeSeconds" : 11.374991658333334,
      "channel" : 7,
      "controller" : 10,
      "value" : 125
    }, {
      "type" : "control_change",
      "tick" : 5372,
      "timeSeconds" : 11.577577716666667,
      "channel" : 7,
      "controller" : 10,
      "value" : 72
    }, {
      "type" : "control_change",
      "tick" : 5491,
      "timeSeconds" : 11.834043045833333,
      "channel" : 7,
      "controller" : 10,
      "value" : 37
    }, {
      "type" : "control_change",
      "tick" : 5604,
      "timeSeconds" : 12.07757735,
      "channel" : 7,
      "controller" : 10,
      "value" : 2
    }, {
      "type" : "note",
      "tick" : 5287,
      "timeSeconds" : 11.394388195833333,
      "channel" : 7,
      "noteNumber" : 64,
      "noteName" : "E4",
      "velocity" : 88,
      "durationTicks" : 424,
      "durationSeconds" : 0.9137924333333345
    }, {
      "type" : "note",
      "tick" : 5286,
      "timeSeconds" : 11.392233025,
      "channel" : 7,
      "noteNumber" : 61,
      "noteName" : "C#4",
      "velocity" : 95,
      "durationTicks" : 435,
      "durationSeconds" : 0.9374993125
    }, {
      "type" : "note",
      "tick" : 5283,
      "timeSeconds" : 11.3857675125,
      "channel" : 7,
      "noteNumber" : 58,
      "noteName" : "A#3",
      "velocity" : 80,
      "durationTicks" : 442,
      "durationSeconds" : 0.9525855083333337
    }, {
      "type" : "note",
      "tick" : 5289,
      "timeSeconds" : 11.3986985375,
      "channel" : 7,
      "noteNumber" : 55,
      "noteName" : "G3",
      "velocity" : 79,
      "durationTicks" : 457,
      "durationSeconds" : 0.9849130708333345
    }, {
      "type" : "control_change",
      "tick" : 5760,
      "timeSeconds" : 12.413784,
      "channel" : 7,
      "controller" : 10,
      "value" : 24
    }, {
      "type" : "control_change",
      "tick" : 5862,
      "timeSeconds" : 12.633611425,
      "channel" : 7,
      "controller" : 10,
      "value" : 72
    }, {
      "type" : "control_change",
      "tick" : 5982,
      "timeSeconds" : 12.892231925,
      "channel" : 7,
      "controller" : 10,
      "value" : 98
    }, {
      "type" : "control_change",
      "tick" : 6100,
      "timeSeconds" : 13.146542083333333,
      "channel" : 7,
      "controller" : 10,
      "value" : 121
    }, {
      "type" : "control_change",
      "tick" : 6120,
      "timeSeconds" : 13.1896455,
      "channel" : 7,
      "controller" : 10,
      "value" : 122
    }, {
      "type" : "note",
      "tick" : 5766,
      "timeSeconds" : 12.426715025,
      "channel" : 7,
      "noteNumber" : 60,
      "noteName" : "C4",
      "velocity" : 108,
      "durationTicks" : 362,
      "durationSeconds" : 0.7801718416666663
    }, {
      "type" : "note",
      "tick" : 5767,
      "timeSeconds" : 12.428870195833333,
      "channel" : 7,
      "noteNumber" : 64,
      "noteName" : "E4",
      "velocity" : 94,
      "durationTicks" : 388,
      "durationSeconds" : 0.8362062833333326
    }, {
      "type" : "note",
      "tick" : 5765,
      "timeSeconds" : 12.424559854166667,
      "channel" : 7,
      "noteNumber" : 57,
      "noteName" : "A3",
      "velocity" : 101,
      "durationTicks" : 399,
      "durationSeconds" : 0.8599131624999998
    }, {
      "type" : "note",
      "tick" : 5767,
      "timeSeconds" : 12.428870195833333,
      "channel" : 7,
      "noteNumber" : 50,
      "noteName" : "D3",
      "velocity" : 97,
      "durationTicks" : 430,
      "durationSeconds" : 0.926723458333333
    }, {
      "type" : "control_change",
      "tick" : 6325,
      "timeSeconds" : 13.631455520833333,
      "channel" : 7,
      "controller" : 10,
      "value" : 94
    }, {
      "type" : "control_change",
      "tick" : 6440,
      "timeSeconds" : 13.879300166666667,
      "channel" : 7,
      "controller" : 10,
      "value" : 66
    }, {
      "type" : "control_change",
      "tick" : 6573,
      "timeSeconds" : 14.1659378875,
      "channel" : 7,
      "controller" : 10,
      "value" : 35
    }, {
      "type" : "note",
      "tick" : 6237,
      "timeSeconds" : 13.4418004875,
      "channel" : 7,
      "noteNumber" : 67,
      "noteName" : "G4",
      "velocity" : 104,
      "durationTicks" : 408,
      "durationSeconds" : 0.8793097000000003
    }, {
      "type" : "note",
      "tick" : 6241,
      "timeSeconds" : 13.450421170833334,
      "channel" : 7,
      "noteNumber" : 53,
      "noteName" : "F3",
      "velocity" : 88,
      "durationTicks" : 412,
      "durationSeconds" : 0.8879303833333339
    }, {
      "type" : "note",
      "tick" : 6238,
      "timeSeconds" : 13.443955658333334,
      "channel" : 7,
      "noteNumber" : 63,
      "noteName" : "D#4",
      "velocity" : 83,
      "durationTicks" : 424,
      "durationSeconds" : 0.9137924333333327
    }, {
      "type" : "note",
      "tick" : 6239,
      "timeSeconds" : 13.446110829166667,
      "channel" : 7,
      "noteNumber" : 57,
      "noteName" : "A3",
      "velocity" : 88,
      "durationTicks" : 436,
      "durationSeconds" : 0.9396544833333333
    }, {
      "type" : "control_change",
      "tick" : 6683,
      "timeSeconds" : 14.403006679166667,
      "channel" : 7,
      "controller" : 10,
      "value" : 10
    }, {
      "type" : "control_change",
      "tick" : 6855,
      "timeSeconds" : 14.7736960625,
      "channel" : 7,
      "controller" : 10,
      "value" : 35
    }, {
      "type" : "control_change",
      "tick" : 6880,
      "timeSeconds" : 14.827575333333334,
      "channel" : 7,
      "controller" : 10,
      "value" : 36
    }, {
      "type" : "control_change",
      "tick" : 6962,
      "timeSeconds" : 15.004299341666666,
      "channel" : 7,
      "controller" : 10,
      "value" : 65
    }, {
      "type" : "control_change",
      "tick" : 7055,
      "timeSeconds" : 15.204730229166667,
      "channel" : 7,
      "controller" : 10,
      "value" : 99
    }, {
      "type" : "note",
      "tick" : 6721,
      "timeSeconds" : 14.484903170833332,
      "channel" : 7,
      "noteNumber" : 62,
      "noteName" : "D4",
      "velocity" : 108,
      "durationTicks" : 438,
      "durationSeconds" : 0.9439648250000001
    }, {
      "type" : "note",
      "tick" : 6726,
      "timeSeconds" : 14.495679025,
      "channel" : 7,
      "noteNumber" : 65,
      "noteName" : "F4",
      "velocity" : 94,
      "durationTicks" : 442,
      "durationSeconds" : 0.9525855083333337
    }, {
      "type" : "note",
      "tick" : 6724,
      "timeSeconds" : 14.491368683333333,
      "channel" : 7,
      "noteNumber" : 53,
      "noteName" : "F3",
      "velocity" : 86,
      "durationTicks" : 458,
      "durationSeconds" : 0.9870682416666678
    }, {
      "type" : "note",
      "tick" : 6720,
      "timeSeconds" : 14.482748,
      "channel" : 7,
      "noteNumber" : 57,
      "noteName" : "A3",
      "velocity" : 88,
      "durationTicks" : 464,
      "durationSeconds" : 0.9999992666666664
    }, {
      "type" : "control_change",
      "tick" : 7190,
      "timeSeconds" : 15.495678291666668,
      "channel" : 7,
      "controller" : 10,
      "value" : 115
    }, {
      "type" : "control_change",
      "tick" : 7196,
      "timeSeconds" : 15.508609316666666,
      "channel" : 7,
      "controller" : 10,
      "value" : 116
    }, {
      "type" : "control_change",
      "tick" : 7299,
      "timeSeconds" : 15.7305919125,
      "channel" : 7,
      "controller" : 10,
      "value" : 59
    }, {
      "type" : "control_change",
      "tick" : 7400,
      "timeSeconds" : 15.948264166666666,
      "channel" : 7,
      "controller" : 10,
      "value" : 25
    }, {
      "type" : "control_change",
      "tick" : 7510,
      "timeSeconds" : 16.185332958333333,
      "channel" : 7,
      "controller" : 10,
      "value" : 3
    }, {
      "type" : "note",
      "tick" : 7212,
      "timeSeconds" : 15.54309205,
      "channel" : 7,
      "noteNumber" : 61,
      "noteName" : "C#4",
      "velocity" : 95,
      "durationTicks" : 407,
      "durationSeconds" : 0.8771545291666651
    }, {
      "type" : "note",
      "tick" : 7215,
      "timeSeconds" : 15.5495575625,
      "channel" : 7,
      "noteNumber" : 64,
      "noteName" : "E4",
      "velocity" : 108,
      "durationTicks" : 418,
      "durationSeconds" : 0.9008614083333324
    }, {
      "type" : "control_change",
      "tick" : 7650,
      "timeSeconds" : 16.487056875,
      "channel" : 7,
      "controller" : 10,
      "value" : 37
    }, {
      "type" : "note",
      "tick" : 7218,
      "timeSeconds" : 15.556023075,
      "channel" : 7,
      "noteNumber" : 52,
      "noteName" : "E3",
      "velocity" : 75,
      "durationTicks" : 434,
      "durationSeconds" : 0.9353441416666666
    }, {
      "type" : "control_change",
      "tick" : 7772,
      "timeSeconds" : 16.749987716666666,
      "channel" : 7,
      "controller" : 10,
      "value" : 70
    }, {
      "type" : "control_change",
      "tick" : 7882,
      "timeSeconds" : 16.987056508333332,
      "channel" : 7,
      "controller" : 10,
      "value" : 89
    }, {
      "type" : "control_change",
      "tick" : 7889,
      "timeSeconds" : 17.002142704166666,
      "channel" : 7,
      "controller" : 10,
      "value" : 90
    }, {
      "type" : "control_change",
      "tick" : 8026,
      "timeSeconds" : 17.297401108333332,
      "channel" : 7,
      "controller" : 10,
      "value" : 108
    }, {
      "type" : "note",
      "tick" : 7678,
      "timeSeconds" : 16.54740165833333,
      "channel" : 7,
      "noteNumber" : 60,
      "noteName" : "C4",
      "velocity" : 97,
      "durationTicks" : 416,
      "durationSeconds" : 0.8965510666666674
    }, {
      "type" : "note",
      "tick" : 7682,
      "timeSeconds" : 16.556022341666665,
      "channel" : 7,
      "noteNumber" : 64,
      "noteName" : "E4",
      "velocity" : 86,
      "durationTicks" : 417,
      "durationSeconds" : 0.8987062375000008
    }, {
      "type" : "note",
      "tick" : 7682,
      "timeSeconds" : 16.556022341666665,
      "channel" : 7,
      "noteNumber" : 50,
      "noteName" : "D3",
      "velocity" : 81,
      "durationTicks" : 436,
      "durationSeconds" : 0.9396544833333351
    }, {
      "type" : "note",
      "tick" : 7682,
      "timeSeconds" : 16.556022341666665,
      "channel" : 7,
      "noteNumber" : 57,
      "noteName" : "A3",
      "velocity" : 83,
      "durationTicks" : 447,
      "durationSeconds" : 0.9633613625000024
    }, {
      "type" : "control_change",
      "tick" : 8154,
      "timeSeconds" : 17.573262975,
      "channel" : 7,
      "controller" : 10,
      "value" : 116
    }, {
      "type" : "control_change",
      "tick" : 8259,
      "timeSeconds" : 17.7995559125,
      "channel" : 7,
      "controller" : 10,
      "value" : 81
    }, {
      "type" : "control_change",
      "tick" : 8373,
      "timeSeconds" : 18.0452453875,
      "channel" : 7,
      "controller" : 10,
      "value" : 44
    }, {
      "type" : "control_change",
      "tick" : 8475,
      "timeSeconds" : 18.2650728125,
      "channel" : 7,
      "controller" : 10,
      "value" : 15
    }, {
      "type" : "note",
      "tick" : 8173,
      "timeSeconds" : 17.614211220833333,
      "channel" : 7,
      "noteNumber" : 54,
      "noteName" : "F#3",
      "velocity" : 63,
      "durationTicks" : 382,
      "durationSeconds" : 0.8232752583333323
    }, {
      "type" : "note",
      "tick" : 8163,
      "timeSeconds" : 17.5926595125,
      "channel" : 7,
      "noteNumber" : 58,
      "noteName" : "A#3",
      "velocity" : 87,
      "durationTicks" : 401,
      "durationSeconds" : 0.8642235041666666
    }, {
      "type" : "note",
      "tick" : 8168,
      "timeSeconds" : 17.603435366666666,
      "channel" : 7,
      "noteNumber" : 64,
      "noteName" : "E4",
      "velocity" : 75,
      "durationTicks" : 414,
      "durationSeconds" : 0.8922407250000006
    }, {
      "type" : "note",
      "tick" : 8636,
      "timeSeconds" : 18.612055316666666,
      "channel" : 7,
      "noteNumber" : 65,
      "noteName" : "F4",
      "velocity" : 88,
      "durationTicks" : 408,
      "durationSeconds" : 0.8793097000000003
    }, {
      "type" : "note",
      "tick" : 8643,
      "timeSeconds" : 18.6271415125,
      "channel" : 7,
      "noteNumber" : 55,
      "noteName" : "G3",
      "velocity" : 77,
      "durationTicks" : 414,
      "durationSeconds" : 0.8922407250000006
    }, {
      "type" : "note",
      "tick" : 8637,
      "timeSeconds" : 18.6142104875,
      "channel" : 7,
      "noteNumber" : 58,
      "noteName" : "A#3",
      "velocity" : 83,
      "durationTicks" : 425,
      "durationSeconds" : 0.9159476041666679
    }, {
      "type" : "note",
      "tick" : 9114,
      "timeSeconds" : 19.642226975,
      "channel" : 7,
      "noteNumber" : 58,
      "noteName" : "A#3",
      "velocity" : 95,
      "durationTicks" : 428,
      "durationSeconds" : 0.922413116666668
    }, {
      "type" : "note",
      "tick" : 9115,
      "timeSeconds" : 19.644382145833333,
      "channel" : 7,
      "noteNumber" : 61,
      "noteName" : "C#4",
      "velocity" : 91,
      "durationTicks" : 432,
      "durationSeconds" : 0.9310338000000016
    }, {
      "type" : "note",
      "tick" : 9120,
      "timeSeconds" : 19.655158,
      "channel" : 7,
      "noteNumber" : 55,
      "noteName" : "G3",
      "velocity" : 77,
      "durationTicks" : 430,
      "durationSeconds" : 0.9267234583333348
    }, {
      "type" : "note",
      "tick" : 9112,
      "timeSeconds" : 19.637916633333333,
      "channel" : 7,
      "noteNumber" : 64,
      "noteName" : "E4",
      "velocity" : 86,
      "durationTicks" : 442,
      "durationSeconds" : 0.9525855083333319
    }, {
      "type" : "control_change",
      "tick" : 9569,
      "timeSeconds" : 20.622829704166666,
      "channel" : 7,
      "controller" : 10,
      "value" : 126
    }, {
      "type" : "control_change",
      "tick" : 9708,
      "timeSeconds" : 20.92239845,
      "channel" : 7,
      "controller" : 10,
      "value" : 99
    }, {
      "type" : "control_change",
      "tick" : 9730,
      "timeSeconds" : 20.969812208333334,
      "channel" : 7,
      "controller" : 10,
      "value" : 98
    }, {
      "type" : "control_change",
      "tick" : 9830,
      "timeSeconds" : 21.185329291666665,
      "channel" : 7,
      "controller" : 10,
      "value" : 66
    }, {
      "type" : "control_change",
      "tick" : 9962,
      "timeSeconds" : 21.469811841666665,
      "channel" : 7,
      "controller" : 10,
      "value" : 27
    }, {
      "type" : "control_change",
      "tick" : 9969,
      "timeSeconds" : 21.4848980375,
      "channel" : 7,
      "controller" : 10,
      "value" : 28
    }, {
      "type" : "note",
      "tick" : 9595,
      "timeSeconds" : 20.678864145833334,
      "channel" : 7,
      "noteNumber" : 60,
      "noteName" : "C4",
      "velocity" : 101,
      "durationTicks" : 422,
      "durationSeconds" : 0.9094820916666677
    }, {
      "type" : "note",
      "tick" : 9593,
      "timeSeconds" : 20.674553804166667,
      "channel" : 7,
      "noteNumber" : 64,
      "noteName" : "E4",
      "velocity" : 79,
      "durationTicks" : 434,
      "durationSeconds" : 0.9353441416666648
    }, {
      "type" : "note",
      "tick" : 9598,
      "timeSeconds" : 20.685329658333334,
      "channel" : 7,
      "noteNumber" : 57,
      "noteName" : "A3",
      "velocity" : 75,
      "durationTicks" : 453,
      "durationSeconds" : 0.9762923874999991
    }, {
      "type" : "note",
      "tick" : 9596,
      "timeSeconds" : 20.681019316666667,
      "channel" : 7,
      "noteNumber" : 50,
      "noteName" : "D3",
      "velocity" : 88,
      "durationTicks" : 456,
      "durationSeconds" : 0.9827578999999993
    }, {
      "type" : "control_change",
      "tick" : 10077,
      "timeSeconds" : 21.7176564875,
      "channel" : 7,
      "controller" : 10,
      "value" : 0
    }, {
      "type" : "control_change",
      "tick" : 10193,
      "timeSeconds" : 21.967656304166667,
      "channel" : 7,
      "controller" : 10,
      "value" : 36
    }, {
      "type" : "control_change",
      "tick" : 10215,
      "timeSeconds" : 22.0150700625,
      "channel" : 7,
      "controller" : 10,
      "value" : 37
    }, {
      "type" : "control_change",
      "tick" : 10303,
      "timeSeconds" : 22.204725095833332,
      "channel" : 7,
      "controller" : 10,
      "value" : 58
    }, {
      "type" : "control_change",
      "tick" : 10329,
      "timeSeconds" : 22.2607595375,
      "channel" : 7,
      "controller" : 10,
      "value" : 59
    }, {
      "type" : "control_change",
      "tick" : 10427,
      "timeSeconds" : 22.471966279166665,
      "channel" : 7,
      "controller" : 10,
      "value" : 79
    }, {
      "type" : "control_change",
      "tick" : 10433,
      "timeSeconds" : 22.484897304166665,
      "channel" : 7,
      "controller" : 10,
      "value" : 80
    }, {
      "type" : "control_change",
      "tick" : 10451,
      "timeSeconds" : 22.523690379166666,
      "channel" : 7,
      "controller" : 10,
      "value" : 86
    }, {
      "type" : "note",
      "tick" : 10096,
      "timeSeconds" : 21.758604733333332,
      "channel" : 7,
      "noteNumber" : 54,
      "noteName" : "F#3",
      "velocity" : 95,
      "durationTicks" : 412,
      "durationSeconds" : 0.8879303833333339
    }, {
      "type" : "note",
      "tick" : 10097,
      "timeSeconds" : 21.760759904166665,
      "channel" : 7,
      "noteNumber" : 64,
      "noteName" : "E4",
      "velocity" : 81,
      "durationTicks" : 422,
      "durationSeconds" : 0.9094820916666677
    }, {
      "type" : "note",
      "tick" : 10092,
      "timeSeconds" : 21.74998405,
      "channel" : 7,
      "noteNumber" : 58,
      "noteName" : "A#3",
      "velocity" : 95,
      "durationTicks" : 428,
      "durationSeconds" : 0.922413116666668
    }, {
      "type" : "control_change",
      "tick" : 10542,
      "timeSeconds" : 22.719810925,
      "channel" : 7,
      "controller" : 10,
      "value" : 124
    }, {
      "type" : "control_change",
      "tick" : 10665,
      "timeSeconds" : 22.9848969375,
      "channel" : 7,
      "controller" : 10,
      "value" : 93
    }, {
      "type" : "control_change",
      "tick" : 10793,
      "timeSeconds" : 23.260758804166667,
      "channel" : 7,
      "controller" : 10,
      "value" : 53
    }, {
      "type" : "control_change",
      "tick" : 10884,
      "timeSeconds" : 23.45687935,
      "channel" : 7,
      "controller" : 10,
      "value" : 33
    }, {
      "type" : "note",
      "tick" : 10565,
      "timeSeconds" : 22.769379854166665,
      "channel" : 7,
      "noteNumber" : 65,
      "noteName" : "F4",
      "velocity" : 91,
      "durationTicks" : 407,
      "durationSeconds" : 0.8771545291666669
    }, {
      "type" : "note",
      "tick" : 10569,
      "timeSeconds" : 22.7780005375,
      "channel" : 7,
      "noteNumber" : 62,
      "noteName" : "D4",
      "velocity" : 101,
      "durationTicks" : 423,
      "durationSeconds" : 0.9116372625000011
    }, {
      "type" : "note",
      "tick" : 10561,
      "timeSeconds" : 22.76075917083333,
      "channel" : 7,
      "noteNumber" : 55,
      "noteName" : "G3",
      "velocity" : 86,
      "durationTicks" : 441,
      "durationSeconds" : 0.950430337500002
    }, {
      "type" : "control_change",
      "tick" : 11017,
      "timeSeconds" : 23.743517070833335,
      "channel" : 7,
      "controller" : 10,
      "value" : 2
    }, {
      "type" : "control_change",
      "tick" : 11023,
      "timeSeconds" : 23.756448095833335,
      "channel" : 7,
      "controller" : 10,
      "value" : 3
    }, {
      "type" : "control_change",
      "tick" : 11040,
      "timeSeconds" : 23.793086,
      "channel" : 7,
      "controller" : 10,
      "value" : 4
    }, {
      "type" : "control_change",
      "tick" : 11140,
      "timeSeconds" : 24.008603083333334,
      "channel" : 7,
      "controller" : 10,
      "value" : 62
    }, {
      "type" : "control_change",
      "tick" : 11267,
      "timeSeconds" : 24.282309779166667,
      "channel" : 7,
      "controller" : 10,
      "value" : 106
    }, {
      "type" : "control_change",
      "tick" : 11380,
      "timeSeconds" : 24.525844083333332,
      "channel" : 7,
      "controller" : 10,
      "value" : 126
    }, {
      "type" : "note",
      "tick" : 11050,
      "timeSeconds" : 23.814637708333333,
      "channel" : 7,
      "noteNumber" : 61,
      "noteName" : "C#4",
      "velocity" : 104,
      "durationTicks" : 355,
      "durationSeconds" : 0.7650856458333344
    }, {
      "type" : "note",
      "tick" : 11050,
      "timeSeconds" : 23.814637708333333,
      "channel" : 7,
      "noteNumber" : 64,
      "noteName" : "E4",
      "velocity" : 91,
      "durationTicks" : 365,
      "durationSeconds" : 0.7866373541666682
    }, {
      "type" : "note",
      "tick" : 11045,
      "timeSeconds" : 23.803861854166666,
      "channel" : 7,
      "noteNumber" : 58,
      "noteName" : "A#3",
      "velocity" : 83,
      "durationTicks" : 372,
      "durationSeconds" : 0.801723550000002
    }, {
      "type" : "control_change",
      "tick" : 11485,
      "timeSeconds" : 24.752137020833334,
      "channel" : 7,
      "controller" : 10,
      "value" : 75
    }, {
      "type" : "control_change",
      "tick" : 11491,
      "timeSeconds" : 24.765068045833335,
      "channel" : 7,
      "controller" : 10,
      "value" : 76
    }, {
      "type" : "note",
      "tick" : 11052,
      "timeSeconds" : 23.81894805,
      "channel" : 7,
      "noteNumber" : 55,
      "noteName" : "G3",
      "velocity" : 77,
      "durationTicks" : 453,
      "durationSeconds" : 0.9762923874999991
    }, {
      "type" : "control_change",
      "tick" : 11617,
      "timeSeconds" : 25.036619570833334,
      "channel" : 7,
      "controller" : 10,
      "value" : 53
    }, {
      "type" : "control_change",
      "tick" : 11731,
      "timeSeconds" : 25.282309045833333,
      "channel" : 7,
      "controller" : 10,
      "value" : 25
    }, {
      "type" : "control_change",
      "tick" : 11879,
      "timeSeconds" : 25.601274329166667,
      "channel" : 7,
      "controller" : 10,
      "value" : 10
    }, {
      "type" : "control_change",
      "tick" : 11885,
      "timeSeconds" : 25.614205354166668,
      "channel" : 7,
      "controller" : 10,
      "value" : 11
    }, {
      "type" : "note",
      "tick" : 11529,
      "timeSeconds" : 24.8469645375,
      "channel" : 7,
      "noteNumber" : 67,
      "noteName" : "G4",
      "velocity" : 122,
      "durationTicks" : 437,
      "durationSeconds" : 0.9418096541666685
    }, {
      "type" : "note",
      "tick" : 11526,
      "timeSeconds" : 24.840499025,
      "channel" : 7,
      "noteNumber" : 64,
      "noteName" : "E4",
      "velocity" : 113,
      "durationTicks" : 456,
      "durationSeconds" : 0.9827578999999993
    }, {
      "type" : "note",
      "tick" : 11528,
      "timeSeconds" : 24.844809366666667,
      "channel" : 7,
      "noteNumber" : 60,
      "noteName" : "C4",
      "velocity" : 108,
      "durationTicks" : 466,
      "durationSeconds" : 1.0043096083333332
    }, {
      "type" : "note",
      "tick" : 11530,
      "timeSeconds" : 24.849119708333333,
      "channel" : 7,
      "noteNumber" : 50,
      "noteName" : "D3",
      "velocity" : 108,
      "durationTicks" : 475,
      "durationSeconds" : 1.0237061458333336
    }, {
      "type" : "control_change",
      "tick" : 12024,
      "timeSeconds" : 25.9137741,
      "channel" : 7,
      "controller" : 10,
      "value" : 44
    }, {
      "type" : "control_change",
      "tick" : 12046,
      "timeSeconds" : 25.961187858333332,
      "channel" : 7,
      "controller" : 10,
      "value" : 45
    }, {
      "type" : "control_change",
      "tick" : 12052,
      "timeSeconds" : 25.974118883333333,
      "channel" : 7,
      "controller" : 10,
      "value" : 47
    }, {
      "type" : "control_change",
      "tick" : 12108,
      "timeSeconds" : 26.09480845,
      "channel" : 7,
      "controller" : 10,
      "value" : 83
    }, {
      "type" : "control_change",
      "tick" : 12227,
      "timeSeconds" : 26.351273779166668,
      "channel" : 7,
      "controller" : 10,
      "value" : 119
    }, {
      "type" : "note",
      "tick" : 12020,
      "timeSeconds" : 25.905153416666668,
      "channel" : 7,
      "noteNumber" : 65,
      "noteName" : "F4",
      "velocity" : 88,
      "durationTicks" : 217,
      "durationSeconds" : 0.4676720708333306
    }, {
      "type" : "control_change",
      "tick" : 12323,
      "timeSeconds" : 26.558170179166666,
      "channel" : 7,
      "controller" : 10,
      "value" : 52
    }, {
      "type" : "note",
      "tick" : 12228,
      "timeSeconds" : 26.35342895,
      "channel" : 7,
      "noteNumber" : 58,
      "noteName" : "A#3",
      "velocity" : 53,
      "durationTicks" : 219,
      "durationSeconds" : 0.4719824124999974
    }, {
      "type" : "note",
      "tick" : 12022,
      "timeSeconds" : 25.909463758333334,
      "channel" : 7,
      "noteNumber" : 54,
      "noteName" : "F#3",
      "velocity" : 35,
      "durationTicks" : 434,
      "durationSeconds" : 0.9353441416666648
    }, {
      "type" : "note",
      "tick" : 12231,
      "timeSeconds" : 26.3598944625,
      "channel" : 7,
      "noteNumber" : 64,
      "noteName" : "E4",
      "velocity" : 81,
      "durationTicks" : 225,
      "durationSeconds" : 0.4849134374999977
    }, {
      "type" : "control_change",
      "tick" : 12465,
      "timeSeconds" : 26.8642044375,
      "channel" : 7,
      "controller" : 10,
      "value" : 7
    }, {
      "type" : "control_change",
      "tick" : 12594,
      "timeSeconds" : 27.142221475,
      "channel" : 7,
      "controller" : 10,
      "value" : 34
    }, {
      "type" : "control_change",
      "tick" : 12600,
      "timeSeconds" : 27.1551525,
      "channel" : 7,
      "controller" : 10,
      "value" : 35
    }, {
      "type" : "control_change",
      "tick" : 12699,
      "timeSeconds" : 27.3685144125,
      "channel" : 7,
      "controller" : 10,
      "value" : 53
    }, {
      "type" : "control_change",
      "tick" : 12814,
      "timeSeconds" : 27.616359058333334,
      "channel" : 7,
      "controller" : 10,
      "value" : 68
    }, {
      "type" : "note",
      "tick" : 12484,
      "timeSeconds" : 26.905152683333334,
      "channel" : 7,
      "noteNumber" : 62,
      "noteName" : "D4",
      "velocity" : 91,
      "durationTicks" : 412,
      "durationSeconds" : 0.8879303833333339
    }, {
      "type" : "note",
      "tick" : 12483,
      "timeSeconds" : 26.9029975125,
      "channel" : 7,
      "noteNumber" : 65,
      "noteName" : "F4",
      "velocity" : 101,
      "durationTicks" : 415,
      "durationSeconds" : 0.894395895833334
    }, {
      "type" : "note",
      "tick" : 12480,
      "timeSeconds" : 26.896532,
      "channel" : 7,
      "noteNumber" : 55,
      "noteName" : "G3",
      "velocity" : 104,
      "durationTicks" : 428,
      "durationSeconds" : 0.9224131166666645
    }, {
      "type" : "note",
      "tick" : 12481,
      "timeSeconds" : 26.898687170833334,
      "channel" : 7,
      "noteNumber" : 58,
      "noteName" : "A#3",
      "velocity" : 80,
      "durationTicks" : 429,
      "durationSeconds" : 0.9245682874999979
    }, {
      "type" : "control_change",
      "tick" : 12938,
      "timeSeconds" : 27.883600241666667,
      "channel" : 7,
      "controller" : 10,
      "value" : 107
    }, {
      "type" : "control_change",
      "tick" : 12965,
      "timeSeconds" : 27.941789854166668,
      "channel" : 7,
      "controller" : 10,
      "value" : 109
    }, {
      "type" : "control_change",
      "tick" : 13081,
      "timeSeconds" : 28.191789670833334,
      "channel" : 7,
      "controller" : 10,
      "value" : 120
    }, {
      "type" : "control_change",
      "tick" : 13190,
      "timeSeconds" : 28.426703291666666,
      "channel" : 7,
      "controller" : 10,
      "value" : 60
    }, {
      "type" : "control_change",
      "tick" : 13309,
      "timeSeconds" : 28.68316862083333,
      "channel" : 7,
      "controller" : 10,
      "value" : 22
    }, {
      "type" : "note",
      "tick" : 12961,
      "timeSeconds" : 27.933169170833335,
      "channel" : 7,
      "noteNumber" : 58,
      "noteName" : "A#3",
      "velocity" : 87,
      "durationTicks" : 422,
      "durationSeconds" : 0.9094820916666642
    }, {
      "type" : "note",
      "tick" : 12963,
      "timeSeconds" : 27.9374795125,
      "channel" : 7,
      "noteNumber" : 61,
      "noteName" : "C#4",
      "velocity" : 91,
      "durationTicks" : 432,
      "durationSeconds" : 0.931033799999998
    }, {
      "type" : "note",
      "tick" : 12964,
      "timeSeconds" : 27.939634683333335,
      "channel" : 7,
      "noteNumber" : 64,
      "noteName" : "E4",
      "velocity" : 88,
      "durationTicks" : 440,
      "durationSeconds" : 0.9482751666666651
    }, {
      "type" : "note",
      "tick" : 12964,
      "timeSeconds" : 27.939634683333335,
      "channel" : 7,
      "noteNumber" : 55,
      "noteName" : "G3",
      "velocity" : 75,
      "durationTicks" : 456,
      "durationSeconds" : 0.9827578999999993
    }, {
      "type" : "control_change",
      "tick" : 13430,
      "timeSeconds" : 28.943944291666668,
      "channel" : 7,
      "controller" : 10,
      "value" : 6
    }, {
      "type" : "control_change",
      "tick" : 13553,
      "timeSeconds" : 29.209030304166667,
      "channel" : 7,
      "controller" : 10,
      "value" : 34
    }, {
      "type" : "control_change",
      "tick" : 13649,
      "timeSeconds" : 29.415926704166665,
      "channel" : 7,
      "controller" : 10,
      "value" : 76
    }, {
      "type" : "control_change",
      "tick" : 13786,
      "timeSeconds" : 29.711185108333332,
      "channel" : 7,
      "controller" : 10,
      "value" : 106
    }, {
      "type" : "note",
      "tick" : 13451,
      "timeSeconds" : 28.989202879166665,
      "channel" : 7,
      "noteNumber" : 64,
      "noteName" : "E4",
      "velocity" : 94,
      "durationTicks" : 390,
      "durationSeconds" : 0.8405166250000029
    }, {
      "type" : "note",
      "tick" : 13456,
      "timeSeconds" : 28.999978733333332,
      "channel" : 7,
      "noteNumber" : 50,
      "noteName" : "D3",
      "velocity" : 81,
      "durationTicks" : 419,
      "durationSeconds" : 0.9030165791666676
    }, {
      "type" : "note",
      "tick" : 13449,
      "timeSeconds" : 28.9848925375,
      "channel" : 7,
      "noteNumber" : 57,
      "noteName" : "A3",
      "velocity" : 81,
      "durationTicks" : 430,
      "durationSeconds" : 0.9267234583333348
    }, {
      "type" : "note",
      "tick" : 13446,
      "timeSeconds" : 28.978427025,
      "channel" : 7,
      "noteNumber" : 60,
      "noteName" : "C4",
      "velocity" : 83,
      "durationTicks" : 435,
      "durationSeconds" : 0.9374993125000017
    }, {
      "type" : "control_change",
      "tick" : 13918,
      "timeSeconds" : 29.995667658333332,
      "channel" : 7,
      "controller" : 10,
      "value" : 125
    }, {
      "type" : "control_change",
      "tick" : 14012,
      "timeSeconds" : 30.198253716666667,
      "channel" : 7,
      "controller" : 10,
      "value" : 72
    }, {
      "type" : "control_change",
      "tick" : 14131,
      "timeSeconds" : 30.454719045833333,
      "channel" : 7,
      "controller" : 10,
      "value" : 37
    }, {
      "type" : "control_change",
      "tick" : 14244,
      "timeSeconds" : 30.69825335,
      "channel" : 7,
      "controller" : 10,
      "value" : 2
    }, {
      "type" : "note",
      "tick" : 13916,
      "timeSeconds" : 29.991357316666665,
      "channel" : 7,
      "noteNumber" : 57,
      "noteName" : "A3",
      "velocity" : 77,
      "durationTicks" : 414,
      "durationSeconds" : 0.8922407250000006
    }, {
      "type" : "note",
      "tick" : 13919,
      "timeSeconds" : 29.997822829166665,
      "channel" : 7,
      "noteNumber" : 67,
      "noteName" : "G4",
      "velocity" : 113,
      "durationTicks" : 447,
      "durationSeconds" : 0.9633613625000024
    }, {
      "type" : "note",
      "tick" : 13918,
      "timeSeconds" : 29.995667658333332,
      "channel" : 7,
      "noteNumber" : 63,
      "noteName" : "D#4",
      "velocity" : 91,
      "durationTicks" : 453,
      "durationSeconds" : 0.9762923875000027
    }, {
      "type" : "note",
      "tick" : 13914,
      "timeSeconds" : 29.987046975,
      "channel" : 7,
      "noteNumber" : 53,
      "noteName" : "F3",
      "velocity" : 83,
      "durationTicks" : 463,
      "durationSeconds" : 0.9978440958333366
    }, {
      "type" : "control_change",
      "tick" : 14400,
      "timeSeconds" : 31.03446,
      "channel" : 7,
      "controller" : 10,
      "value" : 24
    }, {
      "type" : "control_change",
      "tick" : 14502,
      "timeSeconds" : 31.254287425,
      "channel" : 7,
      "controller" : 10,
      "value" : 72
    }, {
      "type" : "control_change",
      "tick" : 14622,
      "timeSeconds" : 31.512907925,
      "channel" : 7,
      "controller" : 10,
      "value" : 98
    }, {
      "type" : "control_change",
      "tick" : 14740,
      "timeSeconds" : 31.767218083333333,
      "channel" : 7,
      "controller" : 10,
      "value" : 121
    }, {
      "type" : "control_change",
      "tick" : 14760,
      "timeSeconds" : 31.8103215,
      "channel" : 7,
      "controller" : 10,
      "value" : 122
    }, {
      "type" : "note",
      "tick" : 14405,
      "timeSeconds" : 31.045235854166666,
      "channel" : 7,
      "noteNumber" : 65,
      "noteName" : "F4",
      "velocity" : 94,
      "durationTicks" : 446,
      "durationSeconds" : 0.9612061916666654
    }, {
      "type" : "note",
      "tick" : 14402,
      "timeSeconds" : 31.038770341666666,
      "channel" : 7,
      "noteNumber" : 58,
      "noteName" : "A#3",
      "velocity" : 83,
      "durationTicks" : 449,
      "durationSeconds" : 0.9676717041666656
    }, {
      "type" : "note",
      "tick" : 14403,
      "timeSeconds" : 31.0409255125,
      "channel" : 7,
      "noteNumber" : 62,
      "noteName" : "D4",
      "velocity" : 86,
      "durationTicks" : 453,
      "durationSeconds" : 0.9762923874999991
    }, {
      "type" : "control_change",
      "tick" : 14965,
      "timeSeconds" : 32.25213152083333,
      "channel" : 7,
      "controller" : 10,
      "value" : 94
    }, {
      "type" : "control_change",
      "tick" : 15080,
      "timeSeconds" : 32.49997616666667,
      "channel" : 7,
      "controller" : 10,
      "value" : 66
    }, {
      "type" : "note",
      "tick" : 14882,
      "timeSeconds" : 32.07325234166667,
      "channel" : 7,
      "noteNumber" : 65,
      "noteName" : "F4",
      "velocity" : 88,
      "durationTicks" : 254,
      "durationSeconds" : 0.5474133916666659
    }, {
      "type" : "note",
      "tick" : 14889,
      "timeSeconds" : 32.0883385375,
      "channel" : 7,
      "noteNumber" : 58,
      "noteName" : "A#3",
      "velocity" : 71,
      "durationTicks" : 281,
      "durationSeconds" : 0.6056030041666673
    }, {
      "type" : "note",
      "tick" : 14885,
      "timeSeconds" : 32.07971785416667,
      "channel" : 7,
      "noteNumber" : 62,
      "noteName" : "D4",
      "velocity" : 79,
      "durationTicks" : 298,
      "durationSeconds" : 0.6422409083333349
    }, {
      "type" : "note",
      "tick" : 15195,
      "timeSeconds" : 32.7478208125,
      "channel" : 7,
      "noteNumber" : 64,
      "noteName" : "E4",
      "velocity" : 48,
      "durationTicks" : 17,
      "durationSeconds" : 0.03663790416666757
    }, {
      "type" : "control_change",
      "tick" : 15213,
      "timeSeconds" : 32.7866138875,
      "channel" : 7,
      "controller" : 10,
      "value" : 35
    }, {
      "type" : "control_change",
      "tick" : 15323,
      "timeSeconds" : 33.02368267916667,
      "channel" : 7,
      "controller" : 10,
      "value" : 10
    }, {
      "type" : "note",
      "tick" : 14883,
      "timeSeconds" : 32.0754075125,
      "channel" : 7,
      "noteNumber" : 69,
      "noteName" : "A4",
      "velocity" : 88,
      "durationTicks" : 475,
      "durationSeconds" : 1.02370614583333
    }, {
      "type" : "note",
      "tick" : 15357,
      "timeSeconds" : 33.0969584875,
      "channel" : 7,
      "noteNumber" : 64,
      "noteName" : "E4",
      "velocity" : 54,
      "durationTicks" : 15,
      "durationSeconds" : 0.032327562500000795
    }, {
      "type" : "control_change",
      "tick" : 15495,
      "timeSeconds" : 33.3943720625,
      "channel" : 7,
      "controller" : 10,
      "value" : 35
    }, {
      "type" : "control_change",
      "tick" : 15520,
      "timeSeconds" : 33.44825133333333,
      "channel" : 7,
      "controller" : 10,
      "value" : 36
    }, {
      "type" : "control_change",
      "tick" : 15602,
      "timeSeconds" : 33.62497534166667,
      "channel" : 7,
      "controller" : 10,
      "value" : 65
    }, {
      "type" : "note",
      "tick" : 15171,
      "timeSeconds" : 32.6960967125,
      "channel" : 7,
      "noteNumber" : 57,
      "noteName" : "A3",
      "velocity" : 101,
      "durationTicks" : 498,
      "durationSeconds" : 1.073275074999998
    }, {
      "type" : "control_change",
      "tick" : 15695,
      "timeSeconds" : 33.82540622916667,
      "channel" : 7,
      "controller" : 10,
      "value" : 99
    }, {
      "type" : "control_change",
      "tick" : 15830,
      "timeSeconds" : 34.11635429166667,
      "channel" : 7,
      "controller" : 10,
      "value" : 115
    }, {
      "type" : "control_change",
      "tick" : 15836,
      "timeSeconds" : 34.12928531666667,
      "channel" : 7,
      "controller" : 10,
      "value" : 116
    }, {
      "type" : "control_change",
      "tick" : 15939,
      "timeSeconds" : 34.3512679125,
      "channel" : 7,
      "controller" : 10,
      "value" : 59
    }, {
      "type" : "control_change",
      "tick" : 16040,
      "timeSeconds" : 34.568940166666664,
      "channel" : 7,
      "controller" : 10,
      "value" : 25
    }, {
      "type" : "note",
      "tick" : 15722,
      "timeSeconds" : 33.88359584166667,
      "channel" : 7,
      "noteNumber" : 57,
      "noteName" : "A3",
      "velocity" : 57,
      "durationTicks" : 379,
      "durationSeconds" : 0.8168097458333321
    }, {
      "type" : "note",
      "tick" : 15591,
      "timeSeconds" : 33.6012684625,
      "channel" : 7,
      "noteNumber" : 65,
      "noteName" : "F4",
      "velocity" : 66,
      "durationTicks" : 520,
      "durationSeconds" : 1.1206888333333325
    }, {
      "type" : "note",
      "tick" : 15581,
      "timeSeconds" : 33.57971675416667,
      "channel" : 7,
      "noteNumber" : 62,
      "noteName" : "D4",
      "velocity" : 63,
      "durationTicks" : 532,
      "durationSeconds" : 1.146550883333333
    }, {
      "type" : "note",
      "tick" : 15352,
      "timeSeconds" : 33.08618263333334,
      "channel" : 7,
      "noteNumber" : 50,
      "noteName" : "D3",
      "velocity" : 91,
      "durationTicks" : 777,
      "durationSeconds" : 1.6745677374999985
    }, {
      "type" : "control_change",
      "tick" : 16150,
      "timeSeconds" : 34.80600895833334,
      "channel" : 7,
      "controller" : 10,
      "value" : 3
    }, {
      "type" : "control_change",
      "tick" : 16290,
      "timeSeconds" : 35.107732875,
      "channel" : 7,
      "controller" : 10,
      "value" : 37
    }, {
      "type" : "control_change",
      "tick" : 16412,
      "timeSeconds" : 35.37066371666667,
      "channel" : 7,
      "controller" : 10,
      "value" : 70
    }, {
      "type" : "control_change",
      "tick" : 16522,
      "timeSeconds" : 35.607732508333335,
      "channel" : 7,
      "controller" : 10,
      "value" : 89
    }, {
      "type" : "control_change",
      "tick" : 16529,
      "timeSeconds" : 35.62281870416667,
      "channel" : 7,
      "controller" : 10,
      "value" : 90
    }, {
      "type" : "control_change",
      "tick" : 16666,
      "timeSeconds" : 35.918077108333335,
      "channel" : 7,
      "controller" : 10,
      "value" : 108
    }, {
      "type" : "note",
      "tick" : 16321,
      "timeSeconds" : 35.17454317083333,
      "channel" : 7,
      "noteNumber" : 62,
      "noteName" : "D4",
      "velocity" : 104,
      "durationTicks" : 409,
      "durationSeconds" : 0.8814648708333337
    }, {
      "type" : "note",
      "tick" : 16323,
      "timeSeconds" : 35.1788535125,
      "channel" : 7,
      "noteNumber" : 65,
      "noteName" : "F4",
      "velocity" : 94,
      "durationTicks" : 431,
      "durationSeconds" : 0.9288786291666682
    }, {
      "type" : "note",
      "tick" : 16323,
      "timeSeconds" : 35.1788535125,
      "channel" : 7,
      "noteNumber" : 55,
      "noteName" : "G3",
      "velocity" : 94,
      "durationTicks" : 435,
      "durationSeconds" : 0.9374993125000017
    }, {
      "type" : "note",
      "tick" : 16319,
      "timeSeconds" : 35.170232829166665,
      "channel" : 7,
      "noteNumber" : 58,
      "noteName" : "A#3",
      "velocity" : 95,
      "durationTicks" : 448,
      "durationSeconds" : 0.9655165333333358
    }, {
      "type" : "control_change",
      "tick" : 16794,
      "timeSeconds" : 36.193938975,
      "channel" : 7,
      "controller" : 10,
      "value" : 116
    }, {
      "type" : "control_change",
      "tick" : 16899,
      "timeSeconds" : 36.4202319125,
      "channel" : 7,
      "controller" : 10,
      "value" : 81
    }, {
      "type" : "control_change",
      "tick" : 17013,
      "timeSeconds" : 36.6659213875,
      "channel" : 7,
      "controller" : 10,
      "value" : 44
    }, {
      "type" : "control_change",
      "tick" : 17115,
      "timeSeconds" : 36.8857488125,
      "channel" : 7,
      "controller" : 10,
      "value" : 15
    }, {
      "type" : "note",
      "tick" : 16816,
      "timeSeconds" : 36.241352733333336,
      "channel" : 7,
      "noteNumber" : 64,
      "noteName" : "E4",
      "velocity" : 97,
      "durationTicks" : 420,
      "durationSeconds" : 0.9051717499999938
    }, {
      "type" : "note",
      "tick" : 16812,
      "timeSeconds" : 36.23273205,
      "channel" : 7,
      "noteNumber" : 58,
      "noteName" : "A#3",
      "velocity" : 91,
      "durationTicks" : 426,
      "durationSeconds" : 0.9181027749999942
    }, {
      "type" : "note",
      "tick" : 16813,
      "timeSeconds" : 36.234887220833336,
      "channel" : 7,
      "noteNumber" : 61,
      "noteName" : "C#4",
      "velocity" : 95,
      "durationTicks" : 432,
      "durationSeconds" : 0.9310337999999945
    }, {
      "type" : "note",
      "tick" : 16817,
      "timeSeconds" : 36.24350790416667,
      "channel" : 7,
      "noteNumber" : 55,
      "noteName" : "G3",
      "velocity" : 97,
      "durationTicks" : 446,
      "durationSeconds" : 0.9612061916666619
    }, {
      "type" : "note",
      "tick" : 17283,
      "timeSeconds" : 37.2478175125,
      "channel" : 7,
      "noteNumber" : 60,
      "noteName" : "C4",
      "velocity" : 104,
      "durationTicks" : 366,
      "durationSeconds" : 0.7887925249999981
    }, {
      "type" : "note",
      "tick" : 17286,
      "timeSeconds" : 37.254283025,
      "channel" : 7,
      "noteNumber" : 64,
      "noteName" : "E4",
      "velocity" : 91,
      "durationTicks" : 387,
      "durationSeconds" : 0.8340511124999992
    }, {
      "type" : "note",
      "tick" : 17284,
      "timeSeconds" : 37.24997268333333,
      "channel" : 7,
      "noteNumber" : 57,
      "noteName" : "A3",
      "velocity" : 94,
      "durationTicks" : 453,
      "durationSeconds" : 0.9762923875000027
    }, {
      "type" : "note",
      "tick" : 17281,
      "timeSeconds" : 37.24350717083333,
      "channel" : 7,
      "noteNumber" : 50,
      "noteName" : "D3",
      "velocity" : 97,
      "durationTicks" : 466,
      "durationSeconds" : 1.0043096083333367
    }, {
      "type" : "note",
      "tick" : 17771,
      "timeSeconds" : 38.29954087916666,
      "channel" : 7,
      "noteNumber" : 67,
      "noteName" : "G4",
      "velocity" : 108,
      "durationTicks" : 393,
      "durationSeconds" : 0.8469821375000066
    }, {
      "type" : "note",
      "tick" : 17767,
      "timeSeconds" : 38.29092019583333,
      "channel" : 7,
      "noteNumber" : 63,
      "noteName" : "D#4",
      "velocity" : 91,
      "durationTicks" : 420,
      "durationSeconds" : 0.9051717500000009
    }, {
      "type" : "note",
      "tick" : 17770,
      "timeSeconds" : 38.29738570833333,
      "channel" : 7,
      "noteNumber" : 57,
      "noteName" : "A3",
      "velocity" : 97,
      "durationTicks" : 438,
      "durationSeconds" : 0.9439648250000019
    }, {
      "type" : "control_change",
      "tick" : 18209,
      "timeSeconds" : 39.243505704166665,
      "channel" : 7,
      "controller" : 10,
      "value" : 126
    }, {
      "type" : "note",
      "tick" : 17771,
      "timeSeconds" : 38.29954087916666,
      "channel" : 7,
      "noteNumber" : 53,
      "noteName" : "F3",
      "velocity" : 101,
      "durationTicks" : 448,
      "durationSeconds" : 0.9655165333333358
    }, {
      "type" : "control_change",
      "tick" : 18348,
      "timeSeconds" : 39.54307445,
      "channel" : 7,
      "controller" : 10,
      "value" : 99
    }, {
      "type" : "control_change",
      "tick" : 18370,
      "timeSeconds" : 39.59048820833333,
      "channel" : 7,
      "controller" : 10,
      "value" : 98
    }, {
      "type" : "control_change",
      "tick" : 18470,
      "timeSeconds" : 39.806005291666665,
      "channel" : 7,
      "controller" : 10,
      "value" : 66
    }, {
      "type" : "control_change",
      "tick" : 18602,
      "timeSeconds" : 40.090487841666665,
      "channel" : 7,
      "controller" : 10,
      "value" : 27
    }, {
      "type" : "control_change",
      "tick" : 18609,
      "timeSeconds" : 40.1055740375,
      "channel" : 7,
      "controller" : 10,
      "value" : 28
    }, {
      "type" : "note",
      "tick" : 18243,
      "timeSeconds" : 39.3167815125,
      "channel" : 7,
      "noteNumber" : 65,
      "noteName" : "F4",
      "velocity" : 88,
      "durationTicks" : 450,
      "durationSeconds" : 0.9698268750000025
    }, {
      "type" : "note",
      "tick" : 18242,
      "timeSeconds" : 39.31462634166667,
      "channel" : 7,
      "noteNumber" : 62,
      "noteName" : "D4",
      "velocity" : 97,
      "durationTicks" : 453,
      "durationSeconds" : 0.9762923875000027
    }, {
      "type" : "note",
      "tick" : 18240,
      "timeSeconds" : 39.310316,
      "channel" : 7,
      "noteNumber" : 57,
      "noteName" : "A3",
      "velocity" : 91,
      "durationTicks" : 462,
      "durationSeconds" : 0.9956889250000032
    }, {
      "type" : "control_change",
      "tick" : 18717,
      "timeSeconds" : 40.3383324875,
      "channel" : 7,
      "controller" : 10,
      "value" : 0
    }, {
      "type" : "control_change",
      "tick" : 18833,
      "timeSeconds" : 40.58833230416667,
      "channel" : 7,
      "controller" : 10,
      "value" : 36
    }, {
      "type" : "control_change",
      "tick" : 18855,
      "timeSeconds" : 40.6357460625,
      "channel" : 7,
      "controller" : 10,
      "value" : 37
    }, {
      "type" : "control_change",
      "tick" : 18943,
      "timeSeconds" : 40.825401095833335,
      "channel" : 7,
      "controller" : 10,
      "value" : 58
    }, {
      "type" : "control_change",
      "tick" : 18969,
      "timeSeconds" : 40.8814355375,
      "channel" : 7,
      "controller" : 10,
      "value" : 59
    }, {
      "type" : "control_change",
      "tick" : 19067,
      "timeSeconds" : 41.09264227916667,
      "channel" : 7,
      "controller" : 10,
      "value" : 79
    }, {
      "type" : "control_change",
      "tick" : 19073,
      "timeSeconds" : 41.10557330416667,
      "channel" : 7,
      "controller" : 10,
      "value" : 80
    }, {
      "type" : "control_change",
      "tick" : 19091,
      "timeSeconds" : 41.14436637916667,
      "channel" : 7,
      "controller" : 10,
      "value" : 86
    }, {
      "type" : "note",
      "tick" : 18721,
      "timeSeconds" : 40.34695317083333,
      "channel" : 7,
      "noteNumber" : 61,
      "noteName" : "C#4",
      "velocity" : 80,
      "durationTicks" : 435,
      "durationSeconds" : 0.9374993125000017
    }, {
      "type" : "note",
      "tick" : 18711,
      "timeSeconds" : 40.3254014625,
      "channel" : 7,
      "noteNumber" : 52,
      "noteName" : "E3",
      "velocity" : 91,
      "durationTicks" : 452,
      "durationSeconds" : 0.9741372166666693
    }, {
      "type" : "note",
      "tick" : 18719,
      "timeSeconds" : 40.342642829166664,
      "channel" : 7,
      "noteNumber" : 64,
      "noteName" : "E4",
      "velocity" : 94,
      "durationTicks" : 449,
      "durationSeconds" : 0.9676717041666691
    }, {
      "type" : "control_change",
      "tick" : 19182,
      "timeSeconds" : 41.340486925,
      "channel" : 7,
      "controller" : 10,
      "value" : 124
    }, {
      "type" : "control_change",
      "tick" : 19305,
      "timeSeconds" : 41.6055729375,
      "channel" : 7,
      "controller" : 10,
      "value" : 93
    }, {
      "type" : "control_change",
      "tick" : 19433,
      "timeSeconds" : 41.881434804166666,
      "channel" : 7,
      "controller" : 10,
      "value" : 53
    }, {
      "type" : "control_change",
      "tick" : 19524,
      "timeSeconds" : 42.07755535,
      "channel" : 7,
      "controller" : 10,
      "value" : 33
    }, {
      "type" : "note",
      "tick" : 19203,
      "timeSeconds" : 41.3857455125,
      "channel" : 7,
      "noteNumber" : 60,
      "noteName" : "C4",
      "velocity" : 86,
      "durationTicks" : 417,
      "durationSeconds" : 0.8987062375000008
    }, {
      "type" : "note",
      "tick" : 19201,
      "timeSeconds" : 41.381435170833335,
      "channel" : 7,
      "noteNumber" : 64,
      "noteName" : "E4",
      "velocity" : 97,
      "durationTicks" : 431,
      "durationSeconds" : 0.9288786291666682
    }, {
      "type" : "note",
      "tick" : 19208,
      "timeSeconds" : 41.39652136666667,
      "channel" : 7,
      "noteNumber" : 50,
      "noteName" : "D3",
      "velocity" : 86,
      "durationTicks" : 435,
      "durationSeconds" : 0.9374993124999946
    }, {
      "type" : "note",
      "tick" : 19210,
      "timeSeconds" : 41.400831708333335,
      "channel" : 7,
      "noteNumber" : 57,
      "noteName" : "A3",
      "velocity" : 64,
      "durationTicks" : 434,
      "durationSeconds" : 0.9353441416666612
    }, {
      "type" : "control_change",
      "tick" : 19657,
      "timeSeconds" : 42.36419307083333,
      "channel" : 7,
      "controller" : 10,
      "value" : 2
    }, {
      "type" : "control_change",
      "tick" : 19663,
      "timeSeconds" : 42.37712409583333,
      "channel" : 7,
      "controller" : 10,
      "value" : 3
    }, {
      "type" : "control_change",
      "tick" : 19680,
      "timeSeconds" : 42.413762,
      "channel" : 7,
      "controller" : 10,
      "value" : 4
    }, {
      "type" : "control_change",
      "tick" : 19780,
      "timeSeconds" : 42.62927908333333,
      "channel" : 7,
      "controller" : 10,
      "value" : 62
    }, {
      "type" : "control_change",
      "tick" : 19907,
      "timeSeconds" : 42.90298577916667,
      "channel" : 7,
      "controller" : 10,
      "value" : 106
    }, {
      "type" : "control_change",
      "tick" : 20020,
      "timeSeconds" : 43.146520083333336,
      "channel" : 7,
      "controller" : 10,
      "value" : 126
    }, {
      "type" : "note",
      "tick" : 19676,
      "timeSeconds" : 42.405141316666665,
      "channel" : 7,
      "noteNumber" : 58,
      "noteName" : "A#3",
      "velocity" : 80,
      "durationTicks" : 441,
      "durationSeconds" : 0.950430337500002
    }, {
      "type" : "control_change",
      "tick" : 20125,
      "timeSeconds" : 43.372813020833334,
      "channel" : 7,
      "controller" : 10,
      "value" : 75
    }, {
      "type" : "note",
      "tick" : 19678,
      "timeSeconds" : 42.40945165833333,
      "channel" : 7,
      "noteNumber" : 64,
      "noteName" : "E4",
      "velocity" : 94,
      "durationTicks" : 449,
      "durationSeconds" : 0.9676717041666691
    }, {
      "type" : "note",
      "tick" : 19682,
      "timeSeconds" : 42.418072341666665,
      "channel" : 7,
      "noteNumber" : 54,
      "noteName" : "F#3",
      "velocity" : 95,
      "durationTicks" : 448,
      "durationSeconds" : 0.9655165333333358
    }, {
      "type" : "control_change",
      "tick" : 20131,
      "timeSeconds" : 43.385744045833334,
      "channel" : 7,
      "controller" : 10,
      "value" : 76
    }, {
      "type" : "note",
      "tick" : 20168,
      "timeSeconds" : 43.46548536666667,
      "channel" : 7,
      "noteNumber" : 62,
      "noteName" : "D4",
      "velocity" : 73,
      "durationTicks" : 11,
      "durationSeconds" : 0.02370687916666725
    }, {
      "type" : "control_change",
      "tick" : 20257,
      "timeSeconds" : 43.657295570833334,
      "channel" : 7,
      "controller" : 10,
      "value" : 53
    }, {
      "type" : "control_change",
      "tick" : 20371,
      "timeSeconds" : 43.90298504583333,
      "channel" : 7,
      "controller" : 10,
      "value" : 25
    }, {
      "type" : "control_change",
      "tick" : 20519,
      "timeSeconds" : 44.22195032916667,
      "channel" : 7,
      "controller" : 10,
      "value" : 10
    }, {
      "type" : "control_change",
      "tick" : 20525,
      "timeSeconds" : 44.23488135416667,
      "channel" : 7,
      "controller" : 10,
      "value" : 11
    }, {
      "type" : "note",
      "tick" : 20162,
      "timeSeconds" : 43.45255434166667,
      "channel" : 7,
      "noteNumber" : 65,
      "noteName" : "F4",
      "velocity" : 97,
      "durationTicks" : 438,
      "durationSeconds" : 0.9439648249999948
    }, {
      "type" : "note",
      "tick" : 20160,
      "timeSeconds" : 43.448244,
      "channel" : 7,
      "noteNumber" : 58,
      "noteName" : "A#3",
      "velocity" : 80,
      "durationTicks" : 459,
      "durationSeconds" : 0.9892234124999959
    }, {
      "type" : "note",
      "tick" : 20154,
      "timeSeconds" : 43.435312975,
      "channel" : 7,
      "noteNumber" : 55,
      "noteName" : "G3",
      "velocity" : 86,
      "durationTicks" : 476,
      "durationSeconds" : 1.0258613166666635
    }, {
      "type" : "control_change",
      "tick" : 20664,
      "timeSeconds" : 44.5344501,
      "channel" : 7,
      "controller" : 10,
      "value" : 44
    }, {
      "type" : "control_change",
      "tick" : 20686,
      "timeSeconds" : 44.581863858333335,
      "channel" : 7,
      "controller" : 10,
      "value" : 45
    }, {
      "type" : "control_change",
      "tick" : 20692,
      "timeSeconds" : 44.594794883333336,
      "channel" : 7,
      "controller" : 10,
      "value" : 47
    }, {
      "type" : "control_change",
      "tick" : 20748,
      "timeSeconds" : 44.71548445,
      "channel" : 7,
      "controller" : 10,
      "value" : 83
    }, {
      "type" : "control_change",
      "tick" : 20867,
      "timeSeconds" : 44.971949779166664,
      "channel" : 7,
      "controller" : 10,
      "value" : 119
    }, {
      "type" : "control_change",
      "tick" : 20963,
      "timeSeconds" : 45.17884617916667,
      "channel" : 7,
      "controller" : 10,
      "value" : 52
    }, {
      "type" : "note",
      "tick" : 20650,
      "timeSeconds" : 44.50427770833333,
      "channel" : 7,
      "noteNumber" : 64,
      "noteName" : "E4",
      "velocity" : 91,
      "durationTicks" : 430,
      "durationSeconds" : 0.9267234583333348
    }, {
      "type" : "note",
      "tick" : 20648,
      "timeSeconds" : 44.49996736666667,
      "channel" : 7,
      "noteNumber" : 61,
      "noteName" : "C#4",
      "velocity" : 83,
      "durationTicks" : 438,
      "durationSeconds" : 0.9439648250000019
    }, {
      "type" : "note",
      "tick" : 20646,
      "timeSeconds" : 44.495657025,
      "channel" : 7,
      "noteNumber" : 58,
      "noteName" : "A#3",
      "velocity" : 80,
      "durationTicks" : 440,
      "durationSeconds" : 0.9482751666666687
    }, {
      "type" : "note",
      "tick" : 20639,
      "timeSeconds" : 44.480570829166666,
      "channel" : 7,
      "noteNumber" : 52,
      "noteName" : "E3",
      "velocity" : 86,
      "durationTicks" : 463,
      "durationSeconds" : 0.9978440958333366
    }, {
      "type" : "control_change",
      "tick" : 21105,
      "timeSeconds" : 45.4848804375,
      "channel" : 7,
      "controller" : 10,
      "value" : 7
    }, {
      "type" : "control_change",
      "tick" : 21234,
      "timeSeconds" : 45.762897475,
      "channel" : 7,
      "controller" : 10,
      "value" : 34
    }, {
      "type" : "control_change",
      "tick" : 21240,
      "timeSeconds" : 45.7758285,
      "channel" : 7,
      "controller" : 10,
      "value" : 35
    }, {
      "type" : "control_change",
      "tick" : 21339,
      "timeSeconds" : 45.9891904125,
      "channel" : 7,
      "controller" : 10,
      "value" : 53
    }, {
      "type" : "control_change",
      "tick" : 21454,
      "timeSeconds" : 46.23703505833333,
      "channel" : 7,
      "controller" : 10,
      "value" : 68
    }, {
      "type" : "note",
      "tick" : 21128,
      "timeSeconds" : 45.534449366666664,
      "channel" : 7,
      "noteNumber" : 60,
      "noteName" : "C4",
      "velocity" : 108,
      "durationTicks" : 370,
      "durationSeconds" : 0.7974132083333387
    }, {
      "type" : "note",
      "tick" : 21129,
      "timeSeconds" : 45.5366045375,
      "channel" : 7,
      "noteNumber" : 64,
      "noteName" : "E4",
      "velocity" : 94,
      "durationTicks" : 387,
      "durationSeconds" : 0.8340511125000063
    }, {
      "type" : "note",
      "tick" : 21130,
      "timeSeconds" : 45.53875970833333,
      "channel" : 7,
      "noteNumber" : 50,
      "noteName" : "D3",
      "velocity" : 83,
      "durationTicks" : 436,
      "durationSeconds" : 0.9396544833333351
    }, {
      "type" : "note",
      "tick" : 21126,
      "timeSeconds" : 45.530139025,
      "channel" : 7,
      "noteNumber" : 57,
      "noteName" : "A3",
      "velocity" : 88,
      "durationTicks" : 442,
      "durationSeconds" : 0.9525855083333354
    }, {
      "type" : "control_change",
      "tick" : 21578,
      "timeSeconds" : 46.504276241666666,
      "channel" : 7,
      "controller" : 10,
      "value" : 107
    }, {
      "type" : "control_change",
      "tick" : 21605,
      "timeSeconds" : 46.56246585416667,
      "channel" : 7,
      "controller" : 10,
      "value" : 109
    }, {
      "type" : "control_change",
      "tick" : 21721,
      "timeSeconds" : 46.81246567083333,
      "channel" : 7,
      "controller" : 10,
      "value" : 120
    }, {
      "type" : "control_change",
      "tick" : 21830,
      "timeSeconds" : 47.047379291666665,
      "channel" : 7,
      "controller" : 10,
      "value" : 60
    }, {
      "type" : "control_change",
      "tick" : 21949,
      "timeSeconds" : 47.30384462083333,
      "channel" : 7,
      "controller" : 10,
      "value" : 22
    }, {
      "type" : "note",
      "tick" : 21594,
      "timeSeconds" : 46.538758975,
      "channel" : 7,
      "noteNumber" : 67,
      "noteName" : "G4",
      "velocity" : 104,
      "durationTicks" : 422,
      "durationSeconds" : 0.9094820916666677
    }, {
      "type" : "note",
      "tick" : 21596,
      "timeSeconds" : 46.54306931666667,
      "channel" : 7,
      "noteNumber" : 63,
      "noteName" : "D#4",
      "velocity" : 83,
      "durationTicks" : 427,
      "durationSeconds" : 0.9202579458333346
    }, {
      "type" : "note",
      "tick" : 21605,
      "timeSeconds" : 46.56246585416667,
      "channel" : 7,
      "noteNumber" : 53,
      "noteName" : "F3",
      "velocity" : 88,
      "durationTicks" : 421,
      "durationSeconds" : 0.9073269208333343
    }, {
      "type" : "note",
      "tick" : 21600,
      "timeSeconds" : 46.55169,
      "channel" : 7,
      "noteNumber" : 57,
      "noteName" : "A3",
      "velocity" : 81,
      "durationTicks" : 438,
      "durationSeconds" : 0.9439648250000019
    }, {
      "type" : "control_change",
      "tick" : 22070,
      "timeSeconds" : 47.564620291666664,
      "channel" : 7,
      "controller" : 10,
      "value" : 6
    }, {
      "type" : "control_change",
      "tick" : 22193,
      "timeSeconds" : 47.82970630416666,
      "channel" : 7,
      "controller" : 10,
      "value" : 34
    }, {
      "type" : "control_change",
      "tick" : 22289,
      "timeSeconds" : 48.03660270416667,
      "channel" : 7,
      "controller" : 10,
      "value" : 76
    }, {
      "type" : "control_change",
      "tick" : 22426,
      "timeSeconds" : 48.331861108333335,
      "channel" : 7,
      "controller" : 10,
      "value" : 106
    }, {
      "type" : "note",
      "tick" : 22075,
      "timeSeconds" : 47.57539614583333,
      "channel" : 7,
      "noteNumber" : 65,
      "noteName" : "F4",
      "velocity" : 101,
      "durationTicks" : 446,
      "durationSeconds" : 0.961206191666669
    }, {
      "type" : "note",
      "tick" : 22077,
      "timeSeconds" : 47.5797064875,
      "channel" : 7,
      "noteNumber" : 62,
      "noteName" : "D4",
      "velocity" : 91,
      "durationTicks" : 445,
      "durationSeconds" : 0.9590510208333356
    }, {
      "type" : "note",
      "tick" : 22079,
      "timeSeconds" : 47.584016829166664,
      "channel" : 7,
      "noteNumber" : 57,
      "noteName" : "A3",
      "velocity" : 83,
      "durationTicks" : 447,
      "durationSeconds" : 0.9633613625000024
    }, {
      "type" : "note",
      "tick" : 22083,
      "timeSeconds" : 47.5926375125,
      "channel" : 7,
      "noteNumber" : 53,
      "noteName" : "F3",
      "velocity" : 81,
      "durationTicks" : 443,
      "durationSeconds" : 0.9547406791666688
    }, {
      "type" : "control_change",
      "tick" : 22558,
      "timeSeconds" : 48.616343658333335,
      "channel" : 7,
      "controller" : 10,
      "value" : 125
    }, {
      "type" : "control_change",
      "tick" : 22652,
      "timeSeconds" : 48.818929716666666,
      "channel" : 7,
      "controller" : 10,
      "value" : 72
    }, {
      "type" : "control_change",
      "tick" : 22771,
      "timeSeconds" : 49.07539504583333,
      "channel" : 7,
      "controller" : 10,
      "value" : 37
    }, {
      "type" : "control_change",
      "tick" : 22884,
      "timeSeconds" : 49.31892935,
      "channel" : 7,
      "controller" : 10,
      "value" : 2
    }, {
      "type" : "note",
      "tick" : 22562,
      "timeSeconds" : 48.62496434166667,
      "channel" : 7,
      "noteNumber" : 62,
      "noteName" : "D4",
      "velocity" : 97,
      "durationTicks" : 349,
      "durationSeconds" : 0.7521546208333305
    }, {
      "type" : "note",
      "tick" : 22563,
      "timeSeconds" : 48.6271195125,
      "channel" : 7,
      "noteNumber" : 67,
      "noteName" : "G4",
      "velocity" : 113,
      "durationTicks" : 381,
      "durationSeconds" : 0.8211200874999989
    }, {
      "type" : "note",
      "tick" : 22559,
      "timeSeconds" : 48.61849882916667,
      "channel" : 7,
      "noteNumber" : 57,
      "noteName" : "A3",
      "velocity" : 94,
      "durationTicks" : 387,
      "durationSeconds" : 0.8340511124999992
    }, {
      "type" : "note",
      "tick" : 22566,
      "timeSeconds" : 48.633585025,
      "channel" : 7,
      "noteNumber" : 53,
      "noteName" : "F3",
      "velocity" : 83,
      "durationTicks" : 438,
      "durationSeconds" : 0.9439648249999948
    }, {
      "type" : "control_change",
      "tick" : 23040,
      "timeSeconds" : 49.655136,
      "channel" : 7,
      "controller" : 10,
      "value" : 24
    }, {
      "type" : "note",
      "tick" : 23049,
      "timeSeconds" : 49.6745325375,
      "channel" : 7,
      "noteNumber" : 57,
      "noteName" : "A3",
      "velocity" : 77,
      "durationTicks" : 49,
      "durationSeconds" : 0.10560337083333593
    }, {
      "type" : "control_change",
      "tick" : 23142,
      "timeSeconds" : 49.874963425,
      "channel" : 7,
      "controller" : 10,
      "value" : 72
    }, {
      "type" : "control_change",
      "tick" : 23262,
      "timeSeconds" : 50.133583925,
      "channel" : 7,
      "controller" : 10,
      "value" : 98
    }, {
      "type" : "control_change",
      "tick" : 23380,
      "timeSeconds" : 50.387894083333336,
      "channel" : 7,
      "controller" : 10,
      "value" : 121
    }, {
      "type" : "control_change",
      "tick" : 23400,
      "timeSeconds" : 50.4309975,
      "channel" : 7,
      "controller" : 10,
      "value" : 122
    }, {
      "type" : "note",
      "tick" : 23045,
      "timeSeconds" : 49.665911854166666,
      "channel" : 7,
      "noteNumber" : 52,
      "noteName" : "E3",
      "velocity" : 83,
      "durationTicks" : 384,
      "durationSeconds" : 0.827585599999999
    }, {
      "type" : "note",
      "tick" : 23042,
      "timeSeconds" : 49.659446341666666,
      "channel" : 7,
      "noteNumber" : 58,
      "noteName" : "A#3",
      "velocity" : 76,
      "durationTicks" : 403,
      "durationSeconds" : 0.8685338458333334
    }, {
      "type" : "note",
      "tick" : 23043,
      "timeSeconds" : 49.6616015125,
      "channel" : 7,
      "noteNumber" : 64,
      "noteName" : "E4",
      "velocity" : 101,
      "durationTicks" : 402,
      "durationSeconds" : 0.866378675
    }, {
      "type" : "note",
      "tick" : 23045,
      "timeSeconds" : 49.665911854166666,
      "channel" : 7,
      "noteNumber" : 55,
      "noteName" : "G3",
      "velocity" : 77,
      "durationTicks" : 400,
      "durationSeconds" : 0.8620683333333332
    }, {
      "type" : "control_change",
      "tick" : 23605,
      "timeSeconds" : 50.872807520833334,
      "channel" : 7,
      "controller" : 10,
      "value" : 94
    }, {
      "type" : "control_change",
      "tick" : 23720,
      "timeSeconds" : 51.120652166666666,
      "channel" : 7,
      "controller" : 10,
      "value" : 66
    }, {
      "type" : "control_change",
      "tick" : 23853,
      "timeSeconds" : 51.4072898875,
      "channel" : 7,
      "controller" : 10,
      "value" : 35
    }, {
      "type" : "note",
      "tick" : 23499,
      "timeSeconds" : 50.6443594125,
      "channel" : 7,
      "noteNumber" : 64,
      "noteName" : "E4",
      "velocity" : 97,
      "durationTicks" : 436,
      "durationSeconds" : 0.939654483333328
    }, {
      "type" : "note",
      "tick" : 23500,
      "timeSeconds" : 50.646514583333335,
      "channel" : 7,
      "noteNumber" : 54,
      "noteName" : "F#3",
      "velocity" : 83,
      "durationTicks" : 448,
      "durationSeconds" : 0.9655165333333287
    }, {
      "type" : "note",
      "tick" : 23497,
      "timeSeconds" : 50.640049070833335,
      "channel" : 7,
      "noteNumber" : 58,
      "noteName" : "A#3",
      "velocity" : 83,
      "durationTicks" : 458,
      "durationSeconds" : 0.9870682416666625
    }, {
      "type" : "control_change",
      "tick" : 23963,
      "timeSeconds" : 51.644358679166665,
      "channel" : 7,
      "controller" : 10,
      "value" : 10
    }, {
      "type" : "control_change",
      "tick" : 24135,
      "timeSeconds" : 52.0150480625,
      "channel" : 7,
      "controller" : 10,
      "value" : 35
    }, {
      "type" : "control_change",
      "tick" : 24160,
      "timeSeconds" : 52.068927333333335,
      "channel" : 7,
      "controller" : 10,
      "value" : 36
    }, {
      "type" : "control_change",
      "tick" : 24242,
      "timeSeconds" : 52.245651341666665,
      "channel" : 7,
      "controller" : 10,
      "value" : 65
    }, {
      "type" : "note",
      "tick" : 24254,
      "timeSeconds" : 52.271513391666666,
      "channel" : 7,
      "noteNumber" : 60,
      "noteName" : "C4",
      "velocity" : 49,
      "durationTicks" : 30,
      "durationSeconds" : 0.06465512500000159
    }, {
      "type" : "control_change",
      "tick" : 24335,
      "timeSeconds" : 52.44608222916667,
      "channel" : 7,
      "controller" : 10,
      "value" : 99
    }, {
      "type" : "note",
      "tick" : 24003,
      "timeSeconds" : 51.7305655125,
      "channel" : 7,
      "noteNumber" : 62,
      "noteName" : "D4",
      "velocity" : 104,
      "durationTicks" : 400,
      "durationSeconds" : 0.8620683333333332
    }, {
      "type" : "note",
      "tick" : 24004,
      "timeSeconds" : 51.73272068333333,
      "channel" : 7,
      "noteNumber" : 65,
      "noteName" : "F4",
      "velocity" : 97,
      "durationTicks" : 439,
      "durationSeconds" : 0.9461199958333353
    }, {
      "type" : "note",
      "tick" : 23998,
      "timeSeconds" : 51.71978965833333,
      "channel" : 7,
      "noteNumber" : 55,
      "noteName" : "G3",
      "velocity" : 86,
      "durationTicks" : 462,
      "durationSeconds" : 0.9956889250000032
    }, {
      "type" : "control_change",
      "tick" : 24470,
      "timeSeconds" : 52.73703029166666,
      "channel" : 7,
      "controller" : 10,
      "value" : 115
    }, {
      "type" : "control_change",
      "tick" : 24476,
      "timeSeconds" : 52.74996131666666,
      "channel" : 7,
      "controller" : 10,
      "value" : 116
    }, {
      "type" : "control_change",
      "tick" : 24579,
      "timeSeconds" : 52.9719439125,
      "channel" : 7,
      "controller" : 10,
      "value" : 59
    }, {
      "type" : "control_change",
      "tick" : 24680,
      "timeSeconds" : 53.18961616666667,
      "channel" : 7,
      "controller" : 10,
      "value" : 25
    }, {
      "type" : "control_change",
      "tick" : 24790,
      "timeSeconds" : 53.42668495833333,
      "channel" : 7,
      "controller" : 10,
      "value" : 3
    }, {
      "type" : "note",
      "tick" : 24484,
      "timeSeconds" : 52.76720268333333,
      "channel" : 7,
      "noteNumber" : 61,
      "noteName" : "C#4",
      "velocity" : 91,
      "durationTicks" : 417,
      "durationSeconds" : 0.8987062375000008
    }, {
      "type" : "note",
      "tick" : 24487,
      "timeSeconds" : 52.77366819583333,
      "channel" : 7,
      "noteNumber" : 64,
      "noteName" : "E4",
      "velocity" : 104,
      "durationTicks" : 432,
      "durationSeconds" : 0.9310338000000016
    }, {
      "type" : "note",
      "tick" : 24493,
      "timeSeconds" : 52.78659922083333,
      "channel" : 7,
      "noteNumber" : 55,
      "noteName" : "G3",
      "velocity" : 97,
      "durationTicks" : 433,
      "durationSeconds" : 0.933188970833335
    }, {
      "type" : "control_change",
      "tick" : 24930,
      "timeSeconds" : 53.728408875,
      "channel" : 7,
      "controller" : 10,
      "value" : 37
    }, {
      "type" : "control_change",
      "tick" : 25052,
      "timeSeconds" : 53.991339716666666,
      "channel" : 7,
      "controller" : 10,
      "value" : 70
    }, {
      "type" : "control_change",
      "tick" : 25162,
      "timeSeconds" : 54.22840850833333,
      "channel" : 7,
      "controller" : 10,
      "value" : 89
    }, {
      "type" : "control_change",
      "tick" : 25169,
      "timeSeconds" : 54.243494704166665,
      "channel" : 7,
      "controller" : 10,
      "value" : 90
    }, {
      "type" : "control_change",
      "tick" : 25306,
      "timeSeconds" : 54.53875310833333,
      "channel" : 7,
      "controller" : 10,
      "value" : 108
    }, {
      "type" : "note",
      "tick" : 24958,
      "timeSeconds" : 53.788753658333334,
      "channel" : 7,
      "noteNumber" : 64,
      "noteName" : "E4",
      "velocity" : 88,
      "durationTicks" : 352,
      "durationSeconds" : 0.7586201333333307
    }, {
      "type" : "note",
      "tick" : 24960,
      "timeSeconds" : 53.793064,
      "channel" : 7,
      "noteNumber" : 60,
      "noteName" : "C4",
      "velocity" : 97,
      "durationTicks" : 420,
      "durationSeconds" : 0.9051717500000009
    }, {
      "type" : "note",
      "tick" : 24962,
      "timeSeconds" : 53.79737434166667,
      "channel" : 7,
      "noteNumber" : 57,
      "noteName" : "A3",
      "velocity" : 81,
      "durationTicks" : 432,
      "durationSeconds" : 0.9310338000000016
    }, {
      "type" : "note",
      "tick" : 24960,
      "timeSeconds" : 53.793064,
      "channel" : 7,
      "noteNumber" : 50,
      "noteName" : "D3",
      "velocity" : 94,
      "durationTicks" : 439,
      "durationSeconds" : 0.9461199958333353
    }, {
      "type" : "control_change",
      "tick" : 25434,
      "timeSeconds" : 54.814614975,
      "channel" : 7,
      "controller" : 10,
      "value" : 116
    }, {
      "type" : "control_change",
      "tick" : 25539,
      "timeSeconds" : 55.0409079125,
      "channel" : 7,
      "controller" : 10,
      "value" : 81
    }, {
      "type" : "control_change",
      "tick" : 25653,
      "timeSeconds" : 55.2865973875,
      "channel" : 7,
      "controller" : 10,
      "value" : 44
    }, {
      "type" : "control_change",
      "tick" : 25755,
      "timeSeconds" : 55.5064248125,
      "channel" : 7,
      "controller" : 10,
      "value" : 15
    }, {
      "type" : "note",
      "tick" : 25430,
      "timeSeconds" : 54.805994291666664,
      "channel" : 7,
      "noteNumber" : 67,
      "noteName" : "G4",
      "velocity" : 104,
      "durationTicks" : 415,
      "durationSeconds" : 0.894395895833334
    }, {
      "type" : "note",
      "tick" : 25432,
      "timeSeconds" : 54.81030463333333,
      "channel" : 7,
      "noteNumber" : 53,
      "noteName" : "F3",
      "velocity" : 97,
      "durationTicks" : 438,
      "durationSeconds" : 0.9439648250000019
    }, {
      "type" : "note",
      "tick" : 25431,
      "timeSeconds" : 54.8081494625,
      "channel" : 7,
      "noteNumber" : 63,
      "noteName" : "D#4",
      "velocity" : 91,
      "durationTicks" : 441,
      "durationSeconds" : 0.950430337500002
    }, {
      "type" : "note",
      "tick" : 25433,
      "timeSeconds" : 54.812459804166664,
      "channel" : 7,
      "noteNumber" : 57,
      "noteName" : "A3",
      "velocity" : 88,
      "durationTicks" : 456,
      "durationSeconds" : 0.9827579000000028
    }, {
      "type" : "note",
      "tick" : 25937,
      "timeSeconds" : 55.89866590416667,
      "channel" : 7,
      "noteNumber" : 65,
      "noteName" : "F4",
      "velocity" : 61,
      "durationTicks" : 414,
      "durationSeconds" : 0.8922407249999935
    }, {
      "type" : "note",
      "tick" : 25936,
      "timeSeconds" : 55.896510733333336,
      "channel" : 7,
      "noteNumber" : 53,
      "noteName" : "F3",
      "velocity" : 79,
      "durationTicks" : 427,
      "durationSeconds" : 0.9202579458333275
    }, {
      "type" : "note",
      "tick" : 25926,
      "timeSeconds" : 55.874959025,
      "channel" : 7,
      "noteNumber" : 62,
      "noteName" : "D4",
      "velocity" : 97,
      "durationTicks" : 441,
      "durationSeconds" : 0.950430337499995
    }, {
      "type" : "note",
      "tick" : 25930,
      "timeSeconds" : 55.883579708333336,
      "channel" : 7,
      "noteNumber" : 57,
      "noteName" : "A3",
      "velocity" : 83,
      "durationTicks" : 452,
      "durationSeconds" : 0.9741372166666622
    }, {
      "type" : "note",
      "tick" : 26403,
      "timeSeconds" : 56.9029755125,
      "channel" : 7,
      "noteNumber" : 64,
      "noteName" : "E4",
      "velocity" : 86,
      "durationTicks" : 438,
      "durationSeconds" : 0.9439648250000019
    }, {
      "type" : "note",
      "tick" : 26401,
      "timeSeconds" : 56.89866517083333,
      "channel" : 7,
      "noteNumber" : 61,
      "noteName" : "C#4",
      "velocity" : 87,
      "durationTicks" : 444,
      "durationSeconds" : 0.9568958500000022
    }, {
      "type" : "note",
      "tick" : 26401,
      "timeSeconds" : 56.89866517083333,
      "channel" : 7,
      "noteNumber" : 52,
      "noteName" : "E3",
      "velocity" : 86,
      "durationTicks" : 447,
      "durationSeconds" : 0.9633613625000024
    }, {
      "type" : "control_change",
      "tick" : 26849,
      "timeSeconds" : 57.86418170416667,
      "channel" : 7,
      "controller" : 10,
      "value" : 126
    }, {
      "type" : "control_change",
      "tick" : 26988,
      "timeSeconds" : 58.16375045,
      "channel" : 7,
      "controller" : 10,
      "value" : 99
    }, {
      "type" : "control_change",
      "tick" : 27010,
      "timeSeconds" : 58.21116420833334,
      "channel" : 7,
      "controller" : 10,
      "value" : 98
    }, {
      "type" : "control_change",
      "tick" : 27110,
      "timeSeconds" : 58.42668129166667,
      "channel" : 7,
      "controller" : 10,
      "value" : 66
    }, {
      "type" : "control_change",
      "tick" : 27242,
      "timeSeconds" : 58.71116384166667,
      "channel" : 7,
      "controller" : 10,
      "value" : 27
    }, {
      "type" : "control_change",
      "tick" : 27249,
      "timeSeconds" : 58.7262500375,
      "channel" : 7,
      "controller" : 10,
      "value" : 28
    }, {
      "type" : "note",
      "tick" : 26876,
      "timeSeconds" : 57.92237131666667,
      "channel" : 7,
      "noteNumber" : 60,
      "noteName" : "C4",
      "velocity" : 81,
      "durationTicks" : 385,
      "durationSeconds" : 0.8297407708333324
    }, {
      "type" : "note",
      "tick" : 26882,
      "timeSeconds" : 57.93530234166667,
      "channel" : 7,
      "noteNumber" : 57,
      "noteName" : "A3",
      "velocity" : 64,
      "durationTicks" : 418,
      "durationSeconds" : 0.9008614083333271
    }, {
      "type" : "note",
      "tick" : 26881,
      "timeSeconds" : 57.93314717083334,
      "channel" : 7,
      "noteNumber" : 64,
      "noteName" : "E4",
      "velocity" : 91,
      "durationTicks" : 423,
      "durationSeconds" : 0.911637262499994
    }, {
      "type" : "note",
      "tick" : 26884,
      "timeSeconds" : 57.93961268333333,
      "channel" : 7,
      "noteNumber" : 50,
      "noteName" : "D3",
      "velocity" : 91,
      "durationTicks" : 420,
      "durationSeconds" : 0.9051717500000009
    }, {
      "type" : "control_change",
      "tick" : 27357,
      "timeSeconds" : 58.9590084875,
      "channel" : 7,
      "controller" : 10,
      "value" : 0
    }, {
      "type" : "control_change",
      "tick" : 27473,
      "timeSeconds" : 59.209008304166666,
      "channel" : 7,
      "controller" : 10,
      "value" : 36
    }, {
      "type" : "control_change",
      "tick" : 27495,
      "timeSeconds" : 59.2564220625,
      "channel" : 7,
      "controller" : 10,
      "value" : 37
    }, {
      "type" : "control_change",
      "tick" : 27583,
      "timeSeconds" : 59.44607709583333,
      "channel" : 7,
      "controller" : 10,
      "value" : 58
    }, {
      "type" : "control_change",
      "tick" : 27609,
      "timeSeconds" : 59.5021115375,
      "channel" : 7,
      "controller" : 10,
      "value" : 59
    }, {
      "type" : "control_change",
      "tick" : 27707,
      "timeSeconds" : 59.713318279166664,
      "channel" : 7,
      "controller" : 10,
      "value" : 79
    }, {
      "type" : "control_change",
      "tick" : 27713,
      "timeSeconds" : 59.726249304166664,
      "channel" : 7,
      "controller" : 10,
      "value" : 80
    }, {
      "type" : "note",
      "tick" : 27353,
      "timeSeconds" : 58.95038780416667,
      "channel" : 7,
      "noteNumber" : 61,
      "noteName" : "C#4",
      "velocity" : 91,
      "durationTicks" : 373,
      "durationSeconds" : 0.8038787208333318
    }, {
      "type" : "control_change",
      "tick" : 27731,
      "timeSeconds" : 59.765042379166665,
      "channel" : 7,
      "controller" : 10,
      "value" : 86
    }, {
      "type" : "note",
      "tick" : 27356,
      "timeSeconds" : 58.95685331666667,
      "channel" : 7,
      "noteNumber" : 58,
      "noteName" : "A#3",
      "velocity" : 87,
      "durationTicks" : 449,
      "durationSeconds" : 0.9676717041666691
    }, {
      "type" : "note",
      "tick" : 27359,
      "timeSeconds" : 58.96331882916667,
      "channel" : 7,
      "noteNumber" : 54,
      "noteName" : "F#3",
      "velocity" : 61,
      "durationTicks" : 450,
      "durationSeconds" : 0.9698268750000025
    }, {
      "type" : "note",
      "tick" : 27355,
      "timeSeconds" : 58.95469814583333,
      "channel" : 7,
      "noteNumber" : 65,
      "noteName" : "F4",
      "velocity" : 97,
      "durationTicks" : 458,
      "durationSeconds" : 0.9870682416666696
    }, {
      "type" : "control_change",
      "tick" : 27822,
      "timeSeconds" : 59.961162925,
      "channel" : 7,
      "controller" : 10,
      "value" : 124
    }, {
      "type" : "control_change",
      "tick" : 27945,
      "timeSeconds" : 60.2262489375,
      "channel" : 7,
      "controller" : 10,
      "value" : 93
    }, {
      "type" : "control_change",
      "tick" : 28073,
      "timeSeconds" : 60.50211080416667,
      "channel" : 7,
      "controller" : 10,
      "value" : 53
    }, {
      "type" : "control_change",
      "tick" : 28164,
      "timeSeconds" : 60.69823135,
      "channel" : 7,
      "controller" : 10,
      "value" : 33
    }, {
      "type" : "note",
      "tick" : 27845,
      "timeSeconds" : 60.010731854166664,
      "channel" : 7,
      "noteNumber" : 65,
      "noteName" : "F4",
      "velocity" : 91,
      "durationTicks" : 412,
      "durationSeconds" : 0.8879303833333339
    }, {
      "type" : "note",
      "tick" : 27844,
      "timeSeconds" : 60.00857668333333,
      "channel" : 7,
      "noteNumber" : 62,
      "noteName" : "D4",
      "velocity" : 97,
      "durationTicks" : 415,
      "durationSeconds" : 0.894395895833334
    }, {
      "type" : "note",
      "tick" : 27841,
      "timeSeconds" : 60.00211117083333,
      "channel" : 7,
      "noteNumber" : 55,
      "noteName" : "G3",
      "velocity" : 101,
      "durationTicks" : 425,
      "durationSeconds" : 0.9159476041666679
    }, {
      "type" : "note",
      "tick" : 27842,
      "timeSeconds" : 60.004266341666664,
      "channel" : 7,
      "noteNumber" : 58,
      "noteName" : "A#3",
      "velocity" : 87,
      "durationTicks" : 431,
      "durationSeconds" : 0.9288786291666682
    }, {
      "type" : "control_change",
      "tick" : 28297,
      "timeSeconds" : 60.984869070833334,
      "channel" : 7,
      "controller" : 10,
      "value" : 2
    }, {
      "type" : "control_change",
      "tick" : 28303,
      "timeSeconds" : 60.997800095833334,
      "channel" : 7,
      "controller" : 10,
      "value" : 3
    }, {
      "type" : "control_change",
      "tick" : 28320,
      "timeSeconds" : 61.034438,
      "channel" : 7,
      "controller" : 10,
      "value" : 4
    }, {
      "type" : "control_change",
      "tick" : 28420,
      "timeSeconds" : 61.24995508333333,
      "channel" : 7,
      "controller" : 10,
      "value" : 62
    }, {
      "type" : "control_change",
      "tick" : 28547,
      "timeSeconds" : 61.523661779166666,
      "channel" : 7,
      "controller" : 10,
      "value" : 106
    }, {
      "type" : "control_change",
      "tick" : 28660,
      "timeSeconds" : 61.76719608333333,
      "channel" : 7,
      "controller" : 10,
      "value" : 126
    }, {
      "type" : "control_change",
      "tick" : 28765,
      "timeSeconds" : 61.99348902083333,
      "channel" : 7,
      "controller" : 10,
      "value" : 75
    }, {
      "type" : "note",
      "tick" : 28323,
      "timeSeconds" : 61.0409035125,
      "channel" : 7,
      "noteNumber" : 64,
      "noteName" : "E4",
      "velocity" : 88,
      "durationTicks" : 446,
      "durationSeconds" : 0.9612061916666619
    }, {
      "type" : "note",
      "tick" : 28321,
      "timeSeconds" : 61.036593170833335,
      "channel" : 7,
      "noteNumber" : 61,
      "noteName" : "C#4",
      "velocity" : 91,
      "durationTicks" : 450,
      "durationSeconds" : 0.9698268749999954
    }, {
      "type" : "control_change",
      "tick" : 28771,
      "timeSeconds" : 62.00642004583333,
      "channel" : 7,
      "controller" : 10,
      "value" : 76
    }, {
      "type" : "note",
      "tick" : 28321,
      "timeSeconds" : 61.036593170833335,
      "channel" : 7,
      "noteNumber" : 58,
      "noteName" : "A#3",
      "velocity" : 80,
      "durationTicks" : 452,
      "durationSeconds" : 0.9741372166666622
    }, {
      "type" : "note",
      "tick" : 28320,
      "timeSeconds" : 61.034438,
      "channel" : 7,
      "noteNumber" : 55,
      "noteName" : "G3",
      "velocity" : 79,
      "durationTicks" : 454,
      "durationSeconds" : 0.978447558333329
    }, {
      "type" : "control_change",
      "tick" : 28897,
      "timeSeconds" : 62.27797157083333,
      "channel" : 7,
      "controller" : 10,
      "value" : 53
    }, {
      "type" : "control_change",
      "tick" : 29011,
      "timeSeconds" : 62.523661045833336,
      "channel" : 7,
      "controller" : 10,
      "value" : 25
    }, {
      "type" : "control_change",
      "tick" : 29159,
      "timeSeconds" : 62.84262632916667,
      "channel" : 7,
      "controller" : 10,
      "value" : 10
    }, {
      "type" : "control_change",
      "tick" : 29165,
      "timeSeconds" : 62.85555735416666,
      "channel" : 7,
      "controller" : 10,
      "value" : 11
    }, {
      "type" : "note",
      "tick" : 28812,
      "timeSeconds" : 62.09478205,
      "channel" : 7,
      "noteNumber" : 64,
      "noteName" : "E4",
      "velocity" : 79,
      "durationTicks" : 429,
      "durationSeconds" : 0.9245682875000014
    }, {
      "type" : "note",
      "tick" : 28810,
      "timeSeconds" : 62.09047170833333,
      "channel" : 7,
      "noteNumber" : 57,
      "noteName" : "A3",
      "velocity" : 79,
      "durationTicks" : 439,
      "durationSeconds" : 0.9461199958333353
    }, {
      "type" : "note",
      "tick" : 28811,
      "timeSeconds" : 62.092626879166666,
      "channel" : 7,
      "noteNumber" : 50,
      "noteName" : "D3",
      "velocity" : 97,
      "durationTicks" : 440,
      "durationSeconds" : 0.9482751666666687
    }, {
      "type" : "note",
      "tick" : 28809,
      "timeSeconds" : 62.0883165375,
      "channel" : 7,
      "noteNumber" : 60,
      "noteName" : "C4",
      "velocity" : 97,
      "durationTicks" : 446,
      "durationSeconds" : 0.961206191666669
    }, {
      "type" : "control_change",
      "tick" : 29304,
      "timeSeconds" : 63.1551261,
      "channel" : 7,
      "controller" : 10,
      "value" : 44
    }, {
      "type" : "control_change",
      "tick" : 29326,
      "timeSeconds" : 63.20253985833333,
      "channel" : 7,
      "controller" : 10,
      "value" : 45
    }, {
      "type" : "control_change",
      "tick" : 29332,
      "timeSeconds" : 63.21547088333333,
      "channel" : 7,
      "controller" : 10,
      "value" : 47
    }, {
      "type" : "control_change",
      "tick" : 29388,
      "timeSeconds" : 63.33616045,
      "channel" : 7,
      "controller" : 10,
      "value" : 83
    }, {
      "type" : "control_change",
      "tick" : 29507,
      "timeSeconds" : 63.59262577916667,
      "channel" : 7,
      "controller" : 10,
      "value" : 119
    }, {
      "type" : "control_change",
      "tick" : 29603,
      "timeSeconds" : 63.799522179166665,
      "channel" : 7,
      "controller" : 10,
      "value" : 52
    }, {
      "type" : "note",
      "tick" : 29280,
      "timeSeconds" : 63.103402,
      "channel" : 7,
      "noteNumber" : 67,
      "noteName" : "G4",
      "velocity" : 117,
      "durationTicks" : 454,
      "durationSeconds" : 0.978447558333329
    }, {
      "type" : "note",
      "tick" : 29278,
      "timeSeconds" : 63.099091658333336,
      "channel" : 7,
      "noteNumber" : 63,
      "noteName" : "D#4",
      "velocity" : 91,
      "durationTicks" : 459,
      "durationSeconds" : 0.9892234124999959
    }, {
      "type" : "note",
      "tick" : 29285,
      "timeSeconds" : 63.11417785416667,
      "channel" : 7,
      "noteNumber" : 53,
      "noteName" : "F3",
      "velocity" : 88,
      "durationTicks" : 453,
      "durationSeconds" : 0.9762923874999956
    }, {
      "type" : "note",
      "tick" : 29281,
      "timeSeconds" : 63.105557170833336,
      "channel" : 7,
      "noteNumber" : 57,
      "noteName" : "A3",
      "velocity" : 88,
      "durationTicks" : 459,
      "durationSeconds" : 0.9892234124999959
    }, {
      "type" : "control_change",
      "tick" : 29745,
      "timeSeconds" : 64.1055564375,
      "channel" : 7,
      "controller" : 10,
      "value" : 7
    }, {
      "type" : "control_change",
      "tick" : 29874,
      "timeSeconds" : 64.383573475,
      "channel" : 7,
      "controller" : 10,
      "value" : 34
    }, {
      "type" : "control_change",
      "tick" : 29880,
      "timeSeconds" : 64.3965045,
      "channel" : 7,
      "controller" : 10,
      "value" : 35
    }, {
      "type" : "control_change",
      "tick" : 29979,
      "timeSeconds" : 64.6098664125,
      "channel" : 7,
      "controller" : 10,
      "value" : 53
    }, {
      "type" : "control_change",
      "tick" : 30094,
      "timeSeconds" : 64.85771105833334,
      "channel" : 7,
      "controller" : 10,
      "value" : 68
    }, {
      "type" : "note",
      "tick" : 29776,
      "timeSeconds" : 64.17236673333333,
      "channel" : 7,
      "noteNumber" : 53,
      "noteName" : "F3",
      "velocity" : 81,
      "durationTicks" : 416,
      "durationSeconds" : 0.8965510666666603
    }, {
      "type" : "note",
      "tick" : 29760,
      "timeSeconds" : 64.137884,
      "channel" : 7,
      "noteNumber" : 65,
      "noteName" : "F4",
      "velocity" : 86,
      "durationTicks" : 439,
      "durationSeconds" : 0.9461199958333282
    }, {
      "type" : "note",
      "tick" : 29764,
      "timeSeconds" : 64.14650468333333,
      "channel" : 7,
      "noteNumber" : 62,
      "noteName" : "D4",
      "velocity" : 94,
      "durationTicks" : 437,
      "durationSeconds" : 0.9418096541666614
    }, {
      "type" : "note",
      "tick" : 29765,
      "timeSeconds" : 64.14865985416667,
      "channel" : 7,
      "noteNumber" : 57,
      "noteName" : "A3",
      "velocity" : 88,
      "durationTicks" : 442,
      "durationSeconds" : 0.9525855083333283
    }, {
      "type" : "control_change",
      "tick" : 30218,
      "timeSeconds" : 65.12495224166666,
      "channel" : 7,
      "controller" : 10,
      "value" : 107
    }, {
      "type" : "control_change",
      "tick" : 30245,
      "timeSeconds" : 65.18314185416666,
      "channel" : 7,
      "controller" : 10,
      "value" : 109
    }, {
      "type" : "control_change",
      "tick" : 30361,
      "timeSeconds" : 65.43314167083334,
      "channel" : 7,
      "controller" : 10,
      "value" : 120
    }, {
      "type" : "control_change",
      "tick" : 30470,
      "timeSeconds" : 65.66805529166666,
      "channel" : 7,
      "controller" : 10,
      "value" : 60
    }, {
      "type" : "control_change",
      "tick" : 30589,
      "timeSeconds" : 65.92452062083333,
      "channel" : 7,
      "controller" : 10,
      "value" : 22
    }, {
      "type" : "note",
      "tick" : 30241,
      "timeSeconds" : 65.17452117083333,
      "channel" : 7,
      "noteNumber" : 62,
      "noteName" : "D4",
      "velocity" : 79,
      "durationTicks" : 355,
      "durationSeconds" : 0.7650856458333379
    }, {
      "type" : "note",
      "tick" : 30244,
      "timeSeconds" : 65.18098668333333,
      "channel" : 7,
      "noteNumber" : 53,
      "noteName" : "F3",
      "velocity" : 67,
      "durationTicks" : 433,
      "durationSeconds" : 0.9331889708333421
    }, {
      "type" : "note",
      "tick" : 30245,
      "timeSeconds" : 65.18314185416666,
      "channel" : 7,
      "noteNumber" : 65,
      "noteName" : "F4",
      "velocity" : 77,
      "durationTicks" : 438,
      "durationSeconds" : 0.943964825000009
    }, {
      "type" : "note",
      "tick" : 30242,
      "timeSeconds" : 65.17667634166666,
      "channel" : 7,
      "noteNumber" : 57,
      "noteName" : "A3",
      "velocity" : 70,
      "durationTicks" : 449,
      "durationSeconds" : 0.9676717041666762
    }, {
      "type" : "control_change",
      "tick" : 30710,
      "timeSeconds" : 66.18529629166666,
      "channel" : 7,
      "controller" : 10,
      "value" : 6
    }, {
      "type" : "note",
      "tick" : 30735,
      "timeSeconds" : 66.2391755625,
      "channel" : 7,
      "noteNumber" : 57,
      "noteName" : "A3",
      "velocity" : 64,
      "durationTicks" : 36,
      "durationSeconds" : 0.07758615000000191
    }, {
      "type" : "note",
      "tick" : 30732,
      "timeSeconds" : 66.23271005,
      "channel" : 7,
      "noteNumber" : 55,
      "noteName" : "G3",
      "velocity" : 62,
      "durationTicks" : 45,
      "durationSeconds" : 0.09698268750000238
    }, {
      "type" : "control_change",
      "tick" : 30833,
      "timeSeconds" : 66.45038230416667,
      "channel" : 7,
      "controller" : 10,
      "value" : 34
    }, {
      "type" : "control_change",
      "tick" : 30929,
      "timeSeconds" : 66.65727870416667,
      "channel" : 7,
      "controller" : 10,
      "value" : 76
    }, {
      "type" : "control_change",
      "tick" : 31066,
      "timeSeconds" : 66.95253710833333,
      "channel" : 7,
      "controller" : 10,
      "value" : 106
    }, {
      "type" : "note",
      "tick" : 30724,
      "timeSeconds" : 66.21546868333333,
      "channel" : 7,
      "noteNumber" : 64,
      "noteName" : "E4",
      "velocity" : 88,
      "durationTicks" : 369,
      "durationSeconds" : 0.7952580375000053
    }, {
      "type" : "note",
      "tick" : 30720,
      "timeSeconds" : 66.206848,
      "channel" : 7,
      "noteNumber" : 58,
      "noteName" : "A#3",
      "velocity" : 76,
      "durationTicks" : 412,
      "durationSeconds" : 0.887930383333341
    }, {
      "type" : "note",
      "tick" : 30723,
      "timeSeconds" : 66.2133135125,
      "channel" : 7,
      "noteNumber" : 52,
      "noteName" : "E3",
      "velocity" : 83,
      "durationTicks" : 440,
      "durationSeconds" : 0.9482751666666758
    }, {
      "type" : "control_change",
      "tick" : 31198,
      "timeSeconds" : 67.23701965833334,
      "channel" : 7,
      "controller" : 10,
      "value" : 125
    }, {
      "type" : "control_change",
      "tick" : 31292,
      "timeSeconds" : 67.43960571666666,
      "channel" : 7,
      "controller" : 10,
      "value" : 72
    }, {
      "type" : "note",
      "tick" : 31210,
      "timeSeconds" : 67.26288170833334,
      "channel" : 7,
      "noteNumber" : 64,
      "noteName" : "E4",
      "velocity" : 101,
      "durationTicks" : 118,
      "durationSeconds" : 0.2543101583333254
    }, {
      "type" : "note",
      "tick" : 31209,
      "timeSeconds" : 67.2607265375,
      "channel" : 7,
      "noteNumber" : 58,
      "noteName" : "A#3",
      "velocity" : 87,
      "durationTicks" : 119,
      "durationSeconds" : 0.25646532916665876
    }, {
      "type" : "note",
      "tick" : 31207,
      "timeSeconds" : 67.25641619583334,
      "channel" : 7,
      "noteNumber" : 54,
      "noteName" : "F#3",
      "velocity" : 73,
      "durationTicks" : 123,
      "durationSeconds" : 0.2650860124999923
    }, {
      "type" : "note",
      "tick" : 31388,
      "timeSeconds" : 67.64650211666667,
      "channel" : 7,
      "noteNumber" : 58,
      "noteName" : "A#3",
      "velocity" : 110,
      "durationTicks" : 20,
      "durationSeconds" : 0.04310341666666773
    }, {
      "type" : "note",
      "tick" : 31386,
      "timeSeconds" : 67.642191775,
      "channel" : 7,
      "noteNumber" : 64,
      "noteName" : "E4",
      "velocity" : 117,
      "durationTicks" : 22,
      "durationSeconds" : 0.0474137583333345
    }, {
      "type" : "control_change",
      "tick" : 31411,
      "timeSeconds" : 67.69607104583334,
      "channel" : 7,
      "controller" : 10,
      "value" : 37
    }, {
      "type" : "control_change",
      "tick" : 31524,
      "timeSeconds" : 67.93960535,
      "channel" : 7,
      "controller" : 10,
      "value" : 2
    }, {
      "type" : "note",
      "tick" : 31572,
      "timeSeconds" : 68.04305355,
      "channel" : 7,
      "noteNumber" : 64,
      "noteName" : "E4",
      "velocity" : 117,
      "durationTicks" : 92,
      "durationSeconds" : 0.19827571666667154
    }, {
      "type" : "note",
      "tick" : 31576,
      "timeSeconds" : 68.05167423333333,
      "channel" : 7,
      "noteNumber" : 54,
      "noteName" : "F#3",
      "velocity" : 80,
      "durationTicks" : 100,
      "durationSeconds" : 0.21551708333333863
    }, {
      "type" : "control_change",
      "tick" : 31680,
      "timeSeconds" : 68.275812,
      "channel" : 7,
      "controller" : 10,
      "value" : 24
    }, {
      "type" : "control_change",
      "tick" : 31782,
      "timeSeconds" : 68.495639425,
      "channel" : 7,
      "controller" : 10,
      "value" : 72
    }, {
      "type" : "control_change",
      "tick" : 31902,
      "timeSeconds" : 68.754259925,
      "channel" : 7,
      "controller" : 10,
      "value" : 98
    }, {
      "type" : "control_change",
      "tick" : 32020,
      "timeSeconds" : 69.00857008333334,
      "channel" : 7,
      "controller" : 10,
      "value" : 121
    }, {
      "type" : "control_change",
      "tick" : 32040,
      "timeSeconds" : 69.0516735,
      "channel" : 7,
      "controller" : 10,
      "value" : 122
    }, {
      "type" : "note",
      "tick" : 31681,
      "timeSeconds" : 68.27796717083334,
      "channel" : 7,
      "noteNumber" : 62,
      "noteName" : "D4",
      "velocity" : 67,
      "durationTicks" : 416,
      "durationSeconds" : 0.8965510666666603
    }, {
      "type" : "note",
      "tick" : 31682,
      "timeSeconds" : 68.28012234166667,
      "channel" : 7,
      "noteNumber" : 55,
      "noteName" : "G3",
      "velocity" : 79,
      "durationTicks" : 429,
      "durationSeconds" : 0.9245682874999943
    }, {
      "type" : "note",
      "tick" : 31686,
      "timeSeconds" : 68.288743025,
      "channel" : 7,
      "noteNumber" : 65,
      "noteName" : "F4",
      "velocity" : 97,
      "durationTicks" : 434,
      "durationSeconds" : 0.9353441416666612
    }, {
      "type" : "note",
      "tick" : 31572,
      "timeSeconds" : 68.04305355,
      "channel" : 7,
      "noteNumber" : 58,
      "noteName" : "A#3",
      "velocity" : 95,
      "durationTicks" : 549,
      "durationSeconds" : 1.1831887875000007
    }, {
      "type" : "note",
      "tick" : 32169,
      "timeSeconds" : 69.3296905375,
      "channel" : 7,
      "noteNumber" : 55,
      "noteName" : "G3",
      "velocity" : 51,
      "durationTicks" : 17,
      "durationSeconds" : 0.03663790416666757
    }, {
      "type" : "control_change",
      "tick" : 32245,
      "timeSeconds" : 69.49348352083334,
      "channel" : 7,
      "controller" : 10,
      "value" : 94
    }, {
      "type" : "control_change",
      "tick" : 32360,
      "timeSeconds" : 69.74132816666666,
      "channel" : 7,
      "controller" : 10,
      "value" : 66
    }, {
      "type" : "control_change",
      "tick" : 32493,
      "timeSeconds" : 70.0279658875,
      "channel" : 7,
      "controller" : 10,
      "value" : 35
    }, {
      "type" : "note",
      "tick" : 32152,
      "timeSeconds" : 69.29305263333333,
      "channel" : 7,
      "noteNumber" : 61,
      "noteName" : "C#4",
      "velocity" : 83,
      "durationTicks" : 419,
      "durationSeconds" : 0.9030165791666747
    }, {
      "type" : "note",
      "tick" : 32154,
      "timeSeconds" : 69.297362975,
      "channel" : 7,
      "noteNumber" : 58,
      "noteName" : "A#3",
      "velocity" : 71,
      "durationTicks" : 431,
      "durationSeconds" : 0.9288786291666611
    }, {
      "type" : "note",
      "tick" : 32162,
      "timeSeconds" : 69.31460434166667,
      "channel" : 7,
      "noteNumber" : 52,
      "noteName" : "E3",
      "velocity" : 75,
      "durationTicks" : 423,
      "durationSeconds" : 0.911637262499994
    }, {
      "type" : "note",
      "tick" : 32156,
      "timeSeconds" : 69.30167331666667,
      "channel" : 7,
      "noteNumber" : 64,
      "noteName" : "E4",
      "velocity" : 81,
      "durationTicks" : 431,
      "durationSeconds" : 0.9288786291666611
    }, {
      "type" : "control_change",
      "tick" : 32603,
      "timeSeconds" : 70.26503467916666,
      "channel" : 7,
      "controller" : 10,
      "value" : 10
    }, {
      "type" : "control_change",
      "tick" : 32775,
      "timeSeconds" : 70.6357240625,
      "channel" : 7,
      "controller" : 10,
      "value" : 35
    }, {
      "type" : "control_change",
      "tick" : 32800,
      "timeSeconds" : 70.68960333333334,
      "channel" : 7,
      "controller" : 10,
      "value" : 36
    }, {
      "type" : "control_change",
      "tick" : 32882,
      "timeSeconds" : 70.86632734166666,
      "channel" : 7,
      "controller" : 10,
      "value" : 65
    }, {
      "type" : "control_change",
      "tick" : 32975,
      "timeSeconds" : 71.06675822916667,
      "channel" : 7,
      "controller" : 10,
      "value" : 99
    }, {
      "type" : "note",
      "tick" : 32639,
      "timeSeconds" : 70.34262082916666,
      "channel" : 7,
      "noteNumber" : 50,
      "noteName" : "D3",
      "velocity" : 73,
      "durationTicks" : 397,
      "durationSeconds" : 0.8556028208333402
    }, {
      "type" : "note",
      "tick" : 32644,
      "timeSeconds" : 70.35339668333333,
      "channel" : 7,
      "noteNumber" : 53,
      "noteName" : "F3",
      "velocity" : 70,
      "durationTicks" : 398,
      "durationSeconds" : 0.8577579916666735
    }, {
      "type" : "note",
      "tick" : 32634,
      "timeSeconds" : 70.331844975,
      "channel" : 7,
      "noteNumber" : 60,
      "noteName" : "C4",
      "velocity" : 91,
      "durationTicks" : 424,
      "durationSeconds" : 0.9137924333333416
    }, {
      "type" : "note",
      "tick" : 32638,
      "timeSeconds" : 70.34046565833333,
      "channel" : 7,
      "noteNumber" : 64,
      "noteName" : "E4",
      "velocity" : 81,
      "durationTicks" : 424,
      "durationSeconds" : 0.9137924333333416
    }, {
      "type" : "note",
      "tick" : 32636,
      "timeSeconds" : 70.33615531666666,
      "channel" : 7,
      "noteNumber" : 57,
      "noteName" : "A3",
      "velocity" : 83,
      "durationTicks" : 429,
      "durationSeconds" : 0.9245682875000085
    }, {
      "type" : "control_change",
      "tick" : 33110,
      "timeSeconds" : 71.35770629166667,
      "channel" : 7,
      "controller" : 10,
      "value" : 115
    }, {
      "type" : "control_change",
      "tick" : 33116,
      "timeSeconds" : 71.37063731666667,
      "channel" : 7,
      "controller" : 10,
      "value" : 116
    }, {
      "type" : "note",
      "tick" : 33128,
      "timeSeconds" : 71.39649936666666,
      "channel" : 7,
      "noteNumber" : 63,
      "noteName" : "D#4",
      "velocity" : 45,
      "durationTicks" : 44,
      "durationSeconds" : 0.094827516666669
    }, {
      "type" : "note",
      "tick" : 33113,
      "timeSeconds" : 71.36417180416667,
      "channel" : 7,
      "noteNumber" : 57,
      "noteName" : "A3",
      "velocity" : 57,
      "durationTicks" : 86,
      "durationSeconds" : 0.185344691666657
    }, {
      "type" : "control_change",
      "tick" : 33219,
      "timeSeconds" : 71.5926199125,
      "channel" : 7,
      "controller" : 10,
      "value" : 59
    }, {
      "type" : "note",
      "tick" : 33120,
      "timeSeconds" : 71.379258,
      "channel" : 7,
      "noteNumber" : 53,
      "noteName" : "F3",
      "velocity" : 67,
      "durationTicks" : 171,
      "durationSeconds" : 0.36853421250000906
    }, {
      "type" : "control_change",
      "tick" : 33320,
      "timeSeconds" : 71.81029216666667,
      "channel" : 7,
      "controller" : 10,
      "value" : 25
    }, {
      "type" : "note",
      "tick" : 33305,
      "timeSeconds" : 71.77796460416667,
      "channel" : 7,
      "noteNumber" : 63,
      "noteName" : "D#4",
      "velocity" : 104,
      "durationTicks" : 16,
      "durationSeconds" : 0.03448273333333418
    }, {
      "type" : "note",
      "tick" : 33304,
      "timeSeconds" : 71.77580943333334,
      "channel" : 7,
      "noteNumber" : 57,
      "noteName" : "A3",
      "velocity" : 117,
      "durationTicks" : 22,
      "durationSeconds" : 0.0474137583333345
    }, {
      "type" : "note",
      "tick" : 33307,
      "timeSeconds" : 71.78227494583334,
      "channel" : 7,
      "noteNumber" : 67,
      "noteName" : "G4",
      "velocity" : 101,
      "durationTicks" : 20,
      "durationSeconds" : 0.04310341666666773
    }, {
      "type" : "control_change",
      "tick" : 33430,
      "timeSeconds" : 72.04736095833333,
      "channel" : 7,
      "controller" : 10,
      "value" : 3
    }, {
      "type" : "note",
      "tick" : 33359,
      "timeSeconds" : 71.89434382916667,
      "channel" : 7,
      "noteNumber" : 53,
      "noteName" : "F3",
      "velocity" : 86,
      "durationTicks" : 177,
      "durationSeconds" : 0.38146523749999517
    }, {
      "type" : "control_change",
      "tick" : 33570,
      "timeSeconds" : 72.349084875,
      "channel" : 7,
      "controller" : 10,
      "value" : 37
    }, {
      "type" : "note",
      "tick" : 33480,
      "timeSeconds" : 72.1551195,
      "channel" : 7,
      "noteNumber" : 63,
      "noteName" : "D#4",
      "velocity" : 104,
      "durationTicks" : 94,
      "durationSeconds" : 0.20258605833333831
    }, {
      "type" : "note",
      "tick" : 33482,
      "timeSeconds" : 72.15942984166666,
      "channel" : 7,
      "noteNumber" : 67,
      "noteName" : "G4",
      "velocity" : 113,
      "durationTicks" : 99,
      "durationSeconds" : 0.21336191250000525
    }, {
      "type" : "control_change",
      "tick" : 33692,
      "timeSeconds" : 72.61201571666666,
      "channel" : 7,
      "controller" : 10,
      "value" : 70
    }, {
      "type" : "control_change",
      "tick" : 33802,
      "timeSeconds" : 72.84908450833333,
      "channel" : 7,
      "controller" : 10,
      "value" : 89
    }, {
      "type" : "control_change",
      "tick" : 33809,
      "timeSeconds" : 72.86417070416667,
      "channel" : 7,
      "controller" : 10,
      "value" : 90
    }, {
      "type" : "note",
      "tick" : 33605,
      "timeSeconds" : 72.42451585416667,
      "channel" : 7,
      "noteNumber" : 62,
      "noteName" : "D4",
      "velocity" : 71,
      "durationTicks" : 327,
      "durationSeconds" : 0.7047408624999889
    }, {
      "type" : "control_change",
      "tick" : 33946,
      "timeSeconds" : 73.15942910833333,
      "channel" : 7,
      "controller" : 10,
      "value" : 108
    }, {
      "type" : "note",
      "tick" : 33639,
      "timeSeconds" : 72.4977916625,
      "channel" : 7,
      "noteNumber" : 53,
      "noteName" : "F3",
      "velocity" : 44,
      "durationTicks" : 344,
      "durationSeconds" : 0.7413787666666565
    }, {
      "type" : "note",
      "tick" : 33601,
      "timeSeconds" : 72.41589517083334,
      "channel" : 7,
      "noteNumber" : 65,
      "noteName" : "F4",
      "velocity" : 79,
      "durationTicks" : 444,
      "durationSeconds" : 0.9568958499999951
    }, {
      "type" : "control_change",
      "tick" : 34074,
      "timeSeconds" : 73.435290975,
      "channel" : 7,
      "controller" : 10,
      "value" : 116
    }, {
      "type" : "control_change",
      "tick" : 34179,
      "timeSeconds" : 73.6615839125,
      "channel" : 7,
      "controller" : 10,
      "value" : 81
    }, {
      "type" : "control_change",
      "tick" : 34293,
      "timeSeconds" : 73.9072733875,
      "channel" : 7,
      "controller" : 10,
      "value" : 44
    }, {
      "type" : "note",
      "tick" : 34078,
      "timeSeconds" : 73.44391165833333,
      "channel" : 7,
      "noteNumber" : 61,
      "noteName" : "C#4",
      "velocity" : 65,
      "durationTicks" : 249,
      "durationSeconds" : 0.536637537499999
    }, {
      "type" : "control_change",
      "tick" : 34395,
      "timeSeconds" : 74.1271008125,
      "channel" : 7,
      "controller" : 10,
      "value" : 15
    }, {
      "type" : "note",
      "tick" : 33481,
      "timeSeconds" : 72.15727467083333,
      "channel" : 7,
      "noteNumber" : 57,
      "noteName" : "A3",
      "velocity" : 104,
      "durationTicks" : 975,
      "durationSeconds" : 2.101291562500009
    }, {
      "type" : "note",
      "tick" : 34065,
      "timeSeconds" : 73.4158944375,
      "channel" : 7,
      "noteNumber" : 52,
      "noteName" : "E3",
      "velocity" : 70,
      "durationTicks" : 406,
      "durationSeconds" : 0.8749993583333264
    }, {
      "type" : "note",
      "tick" : 34076,
      "timeSeconds" : 73.43960131666667,
      "channel" : 7,
      "noteNumber" : 64,
      "noteName" : "E4",
      "velocity" : 79,
      "durationTicks" : 455,
      "durationSeconds" : 0.9806027291666624
    }, {
      "type" : "note",
      "tick" : 34676,
      "timeSeconds" : 74.73270381666667,
      "channel" : 7,
      "noteNumber" : 68,
      "noteName" : "G#4",
      "velocity" : 95,
      "durationTicks" : 27,
      "durationSeconds" : 0.05818961250000143
    }, {
      "type" : "note",
      "tick" : 34580,
      "timeSeconds" : 74.52580741666667,
      "channel" : 7,
      "noteNumber" : 62,
      "noteName" : "D4",
      "velocity" : 52,
      "durationTicks" : 165,
      "durationSeconds" : 0.35560318749999453
    }, {
      "type" : "note",
      "tick" : 34685,
      "timeSeconds" : 74.75210035416667,
      "channel" : 7,
      "noteNumber" : 69,
      "noteName" : "A4",
      "velocity" : 88,
      "durationTicks" : 119,
      "durationSeconds" : 0.25646532916665876
    }, {
      "type" : "note",
      "tick" : 34807,
      "timeSeconds" : 75.01503119583333,
      "channel" : 7,
      "noteNumber" : 72,
      "noteName" : "C5",
      "velocity" : 117,
      "durationTicks" : 109,
      "durationSeconds" : 0.2349136208333391
    }, {
      "type" : "note",
      "tick" : 34801,
      "timeSeconds" : 75.00210017083333,
      "channel" : 7,
      "noteNumber" : 62,
      "noteName" : "D4",
      "velocity" : 55,
      "durationTicks" : 155,
      "durationSeconds" : 0.3340514791666749
    }, {
      "type" : "note",
      "tick" : 34924,
      "timeSeconds" : 75.26718618333334,
      "channel" : 7,
      "noteNumber" : 69,
      "noteName" : "A4",
      "velocity" : 91,
      "durationTicks" : 36,
      "durationSeconds" : 0.07758615000000191
    }, {
      "type" : "note",
      "tick" : 34546,
      "timeSeconds" : 74.45253160833333,
      "channel" : 7,
      "noteNumber" : 57,
      "noteName" : "A3",
      "velocity" : 39,
      "durationTicks" : 420,
      "durationSeconds" : 0.905171750000008
    }, {
      "type" : "note",
      "tick" : 34543,
      "timeSeconds" : 74.44606609583333,
      "channel" : 7,
      "noteNumber" : 50,
      "noteName" : "D3",
      "velocity" : 55,
      "durationTicks" : 423,
      "durationSeconds" : 0.9116372625000082
    }, {
      "type" : "note",
      "tick" : 35119,
      "timeSeconds" : 75.68744449583333,
      "channel" : 7,
      "noteNumber" : 73,
      "noteName" : "C#5",
      "velocity" : 83,
      "durationTicks" : 9,
      "durationSeconds" : 0.019396537500000477
    }, {
      "type" : "note",
      "tick" : 35103,
      "timeSeconds" : 75.6529617625,
      "channel" : 7,
      "noteNumber" : 54,
      "noteName" : "F#3",
      "velocity" : 24,
      "durationTicks" : 32,
      "durationSeconds" : 0.06896546666666836
    }, {
      "type" : "note",
      "tick" : 35116,
      "timeSeconds" : 75.68097898333333,
      "channel" : 7,
      "noteNumber" : 70,
      "noteName" : "A#4",
      "velocity" : 95,
      "durationTicks" : 19,
      "durationSeconds" : 0.04094824583333434
    }, {
      "type" : "note",
      "tick" : 35118,
      "timeSeconds" : 75.685289325,
      "channel" : 7,
      "noteNumber" : 77,
      "noteName" : "F5",
      "velocity" : 97,
      "durationTicks" : 22,
      "durationSeconds" : 0.0474137583333345
    }, {
      "type" : "note",
      "tick" : 35217,
      "timeSeconds" : 75.8986512375,
      "channel" : 7,
      "noteNumber" : 54,
      "noteName" : "F#3",
      "velocity" : 49,
      "durationTicks" : 72,
      "durationSeconds" : 0.1551722999999896
    }, {
      "type" : "note",
      "tick" : 35294,
      "timeSeconds" : 76.06459939166666,
      "channel" : 7,
      "noteNumber" : 77,
      "noteName" : "F5",
      "velocity" : 97,
      "durationTicks" : 100,
      "durationSeconds" : 0.21551708333333863
    }, {
      "type" : "note",
      "tick" : 35293,
      "timeSeconds" : 76.06244422083333,
      "channel" : 7,
      "noteNumber" : 73,
      "noteName" : "C#5",
      "velocity" : 104,
      "durationTicks" : 110,
      "durationSeconds" : 0.2370687916666725
    }, {
      "type" : "note",
      "tick" : 35290,
      "timeSeconds" : 76.05597870833333,
      "channel" : 7,
      "noteNumber" : 70,
      "noteName" : "A#4",
      "velocity" : 104,
      "durationTicks" : 115,
      "durationSeconds" : 0.24784464583333943
    }, {
      "type" : "note",
      "tick" : 35399,
      "timeSeconds" : 76.29089232916667,
      "channel" : 7,
      "noteNumber" : 54,
      "noteName" : "F#3",
      "velocity" : 35,
      "durationTicks" : 43,
      "durationSeconds" : 0.09267234583333561
    }, {
      "type" : "control_change",
      "tick" : 35489,
      "timeSeconds" : 76.48485770416667,
      "channel" : 7,
      "controller" : 10,
      "value" : 126
    }, {
      "type" : "control_change",
      "tick" : 35628,
      "timeSeconds" : 76.78442645,
      "channel" : 7,
      "controller" : 10,
      "value" : 99
    }, {
      "type" : "control_change",
      "tick" : 35650,
      "timeSeconds" : 76.83184020833333,
      "channel" : 7,
      "controller" : 10,
      "value" : 98
    }, {
      "type" : "note",
      "tick" : 35502,
      "timeSeconds" : 76.512874925,
      "channel" : 7,
      "noteNumber" : 55,
      "noteName" : "G3",
      "velocity" : 75,
      "durationTicks" : 231,
      "durationSeconds" : 0.49784446249999803
    }, {
      "type" : "control_change",
      "tick" : 35750,
      "timeSeconds" : 77.04735729166667,
      "channel" : 7,
      "controller" : 10,
      "value" : 66
    }, {
      "type" : "note",
      "tick" : 35638,
      "timeSeconds" : 76.80597815833333,
      "channel" : 7,
      "noteNumber" : 62,
      "noteName" : "D4",
      "velocity" : 75,
      "durationTicks" : 210,
      "durationSeconds" : 0.4525858749999969
    }, {
      "type" : "control_change",
      "tick" : 35882,
      "timeSeconds" : 77.33183984166666,
      "channel" : 7,
      "controller" : 10,
      "value" : 27
    }, {
      "type" : "control_change",
      "tick" : 35889,
      "timeSeconds" : 77.3469260375,
      "channel" : 7,
      "controller" : 10,
      "value" : 28
    }, {
      "type" : "note",
      "tick" : 35633,
      "timeSeconds" : 76.79520230416666,
      "channel" : 7,
      "noteNumber" : 58,
      "noteName" : "A#3",
      "velocity" : 51,
      "durationTicks" : 295,
      "durationSeconds" : 0.6357753958333348
    }, {
      "type" : "note",
      "tick" : 35757,
      "timeSeconds" : 77.0624434875,
      "channel" : 7,
      "noteNumber" : 55,
      "noteName" : "G3",
      "velocity" : 48,
      "durationTicks" : 201,
      "durationSeconds" : 0.43318933749999644
    }, {
      "type" : "note",
      "tick" : 35639,
      "timeSeconds" : 76.80813332916667,
      "channel" : 7,
      "noteNumber" : 65,
      "noteName" : "F4",
      "velocity" : 73,
      "durationTicks" : 327,
      "durationSeconds" : 0.7047408625000031
    }, {
      "type" : "control_change",
      "tick" : 35997,
      "timeSeconds" : 77.5796844875,
      "channel" : 7,
      "controller" : 10,
      "value" : 0
    }, {
      "type" : "control_change",
      "tick" : 36113,
      "timeSeconds" : 77.82968430416666,
      "channel" : 7,
      "controller" : 10,
      "value" : 36
    }, {
      "type" : "control_change",
      "tick" : 36135,
      "timeSeconds" : 77.8770980625,
      "channel" : 7,
      "controller" : 10,
      "value" : 37
    }, {
      "type" : "control_change",
      "tick" : 36223,
      "timeSeconds" : 78.06675309583333,
      "channel" : 7,
      "controller" : 10,
      "value" : 58
    }, {
      "type" : "control_change",
      "tick" : 36249,
      "timeSeconds" : 78.1227875375,
      "channel" : 7,
      "controller" : 10,
      "value" : 59
    }, {
      "type" : "note",
      "tick" : 35992,
      "timeSeconds" : 77.56890863333334,
      "channel" : 7,
      "noteNumber" : 58,
      "noteName" : "A#3",
      "velocity" : 73,
      "durationTicks" : 351,
      "durationSeconds" : 0.7564649624999902
    }, {
      "type" : "note",
      "tick" : 35993,
      "timeSeconds" : 77.57106380416667,
      "channel" : 7,
      "noteNumber" : 61,
      "noteName" : "C#4",
      "velocity" : 80,
      "durationTicks" : 354,
      "durationSeconds" : 0.7629304749999903
    }, {
      "type" : "control_change",
      "tick" : 36347,
      "timeSeconds" : 78.33399427916666,
      "channel" : 7,
      "controller" : 10,
      "value" : 79
    }, {
      "type" : "control_change",
      "tick" : 36353,
      "timeSeconds" : 78.34692530416666,
      "channel" : 7,
      "controller" : 10,
      "value" : 80
    }, {
      "type" : "control_change",
      "tick" : 36371,
      "timeSeconds" : 78.38571837916666,
      "channel" : 7,
      "controller" : 10,
      "value" : 86
    }, {
      "type" : "note",
      "tick" : 35996,
      "timeSeconds" : 77.57752931666667,
      "channel" : 7,
      "noteNumber" : 64,
      "noteName" : "E4",
      "velocity" : 88,
      "durationTicks" : 398,
      "durationSeconds" : 0.8577579916666593
    }, {
      "type" : "note",
      "tick" : 35998,
      "timeSeconds" : 77.58183965833334,
      "channel" : 7,
      "noteNumber" : 52,
      "noteName" : "E3",
      "velocity" : 79,
      "durationTicks" : 415,
      "durationSeconds" : 0.8943958958333269
    }, {
      "type" : "control_change",
      "tick" : 36462,
      "timeSeconds" : 78.581838925,
      "channel" : 7,
      "controller" : 10,
      "value" : 124
    }, {
      "type" : "note",
      "tick" : 36484,
      "timeSeconds" : 78.62925268333333,
      "channel" : 7,
      "noteNumber" : 50,
      "noteName" : "D3",
      "velocity" : 97,
      "durationTicks" : 71,
      "durationSeconds" : 0.15301712916667043
    }, {
      "type" : "control_change",
      "tick" : 36585,
      "timeSeconds" : 78.8469249375,
      "channel" : 7,
      "controller" : 10,
      "value" : 93
    }, {
      "type" : "control_change",
      "tick" : 36713,
      "timeSeconds" : 79.12278680416667,
      "channel" : 7,
      "controller" : 10,
      "value" : 53
    }, {
      "type" : "control_change",
      "tick" : 36804,
      "timeSeconds" : 79.31890735,
      "channel" : 7,
      "controller" : 10,
      "value" : 33
    }, {
      "type" : "note",
      "tick" : 36478,
      "timeSeconds" : 78.61632165833333,
      "channel" : 7,
      "noteNumber" : 64,
      "noteName" : "E4",
      "velocity" : 81,
      "durationTicks" : 411,
      "durationSeconds" : 0.8857752124999934
    }, {
      "type" : "note",
      "tick" : 36477,
      "timeSeconds" : 78.6141664875,
      "channel" : 7,
      "noteNumber" : 57,
      "noteName" : "A3",
      "velocity" : 81,
      "durationTicks" : 453,
      "durationSeconds" : 0.9762923874999956
    }, {
      "type" : "note",
      "tick" : 36473,
      "timeSeconds" : 78.60554580416667,
      "channel" : 7,
      "noteNumber" : 60,
      "noteName" : "C4",
      "velocity" : 88,
      "durationTicks" : 457,
      "durationSeconds" : 0.9849130708333291
    }, {
      "type" : "control_change",
      "tick" : 36937,
      "timeSeconds" : 79.60554507083333,
      "channel" : 7,
      "controller" : 10,
      "value" : 2
    }, {
      "type" : "control_change",
      "tick" : 36943,
      "timeSeconds" : 79.61847609583333,
      "channel" : 7,
      "controller" : 10,
      "value" : 3
    }, {
      "type" : "control_change",
      "tick" : 36960,
      "timeSeconds" : 79.655114,
      "channel" : 7,
      "controller" : 10,
      "value" : 4
    }, {
      "type" : "control_change",
      "tick" : 37060,
      "timeSeconds" : 79.87063108333334,
      "channel" : 7,
      "controller" : 10,
      "value" : 62
    }, {
      "type" : "note",
      "tick" : 36967,
      "timeSeconds" : 79.67020019583333,
      "channel" : 7,
      "noteNumber" : 67,
      "noteName" : "G4",
      "velocity" : 108,
      "durationTicks" : 115,
      "durationSeconds" : 0.24784464583333943
    }, {
      "type" : "note",
      "tick" : 36966,
      "timeSeconds" : 79.668045025,
      "channel" : 7,
      "noteNumber" : 63,
      "noteName" : "D#4",
      "velocity" : 76,
      "durationTicks" : 124,
      "durationSeconds" : 0.2672411833333399
    }, {
      "type" : "note",
      "tick" : 36968,
      "timeSeconds" : 79.67235536666666,
      "channel" : 7,
      "noteNumber" : 57,
      "noteName" : "A3",
      "velocity" : 88,
      "durationTicks" : 126,
      "durationSeconds" : 0.2715515250000067
    }, {
      "type" : "note",
      "tick" : 37141,
      "timeSeconds" : 80.04519992083333,
      "channel" : 7,
      "noteNumber" : 63,
      "noteName" : "D#4",
      "velocity" : 95,
      "durationTicks" : 22,
      "durationSeconds" : 0.0474137583333345
    }, {
      "type" : "note",
      "tick" : 37142,
      "timeSeconds" : 80.04735509166666,
      "channel" : 7,
      "noteNumber" : 67,
      "noteName" : "G4",
      "velocity" : 104,
      "durationTicks" : 24,
      "durationSeconds" : 0.05172410000000127
    }, {
      "type" : "note",
      "tick" : 37140,
      "timeSeconds" : 80.04304475,
      "channel" : 7,
      "noteNumber" : 57,
      "noteName" : "A3",
      "velocity" : 113,
      "durationTicks" : 34,
      "durationSeconds" : 0.07327580833332092
    }, {
      "type" : "control_change",
      "tick" : 37187,
      "timeSeconds" : 80.14433777916666,
      "channel" : 7,
      "controller" : 10,
      "value" : 106
    }, {
      "type" : "control_change",
      "tick" : 37300,
      "timeSeconds" : 80.38787208333333,
      "channel" : 7,
      "controller" : 10,
      "value" : 126
    }, {
      "type" : "control_change",
      "tick" : 37405,
      "timeSeconds" : 80.61416502083334,
      "channel" : 7,
      "controller" : 10,
      "value" : 75
    }, {
      "type" : "control_change",
      "tick" : 37411,
      "timeSeconds" : 80.62709604583333,
      "channel" : 7,
      "controller" : 10,
      "value" : 76
    }, {
      "type" : "note",
      "tick" : 37318,
      "timeSeconds" : 80.42666515833334,
      "channel" : 7,
      "noteNumber" : 63,
      "noteName" : "D#4",
      "velocity" : 104,
      "durationTicks" : 96,
      "durationSeconds" : 0.20689639999999088
    }, {
      "type" : "note",
      "tick" : 37320,
      "timeSeconds" : 80.4309755,
      "channel" : 7,
      "noteNumber" : 67,
      "noteName" : "G4",
      "velocity" : 127,
      "durationTicks" : 96,
      "durationSeconds" : 0.20689639999999088
    }, {
      "type" : "control_change",
      "tick" : 37537,
      "timeSeconds" : 80.89864757083333,
      "channel" : 7,
      "controller" : 10,
      "value" : 53
    }, {
      "type" : "control_change",
      "tick" : 37651,
      "timeSeconds" : 81.14433704583334,
      "channel" : 7,
      "controller" : 10,
      "value" : 25
    }, {
      "type" : "control_change",
      "tick" : 37799,
      "timeSeconds" : 81.46330232916667,
      "channel" : 7,
      "controller" : 10,
      "value" : 10
    }, {
      "type" : "control_change",
      "tick" : 37805,
      "timeSeconds" : 81.47623335416667,
      "channel" : 7,
      "controller" : 10,
      "value" : 11
    }, {
      "type" : "control_change",
      "tick" : 37944,
      "timeSeconds" : 81.7758021,
      "channel" : 7,
      "controller" : 10,
      "value" : 44
    }, {
      "type" : "control_change",
      "tick" : 37966,
      "timeSeconds" : 81.82321585833333,
      "channel" : 7,
      "controller" : 10,
      "value" : 45
    }, {
      "type" : "control_change",
      "tick" : 37972,
      "timeSeconds" : 81.83614688333333,
      "channel" : 7,
      "controller" : 10,
      "value" : 47
    }, {
      "type" : "control_change",
      "tick" : 38028,
      "timeSeconds" : 81.95683645,
      "channel" : 7,
      "controller" : 10,
      "value" : 83
    }, {
      "type" : "note",
      "tick" : 37447,
      "timeSeconds" : 80.70468219583333,
      "channel" : 7,
      "noteNumber" : 65,
      "noteName" : "F4",
      "velocity" : 62,
      "durationTicks" : 656,
      "durationSeconds" : 1.413792066666673
    }, {
      "type" : "note",
      "tick" : 37432,
      "timeSeconds" : 80.67235463333333,
      "channel" : 7,
      "noteNumber" : 62,
      "noteName" : "D4",
      "velocity" : 77,
      "durationTicks" : 675,
      "durationSeconds" : 1.4547403125000073
    }, {
      "type" : "note",
      "tick" : 37321,
      "timeSeconds" : 80.43313067083334,
      "channel" : 7,
      "noteNumber" : 57,
      "noteName" : "A3",
      "velocity" : 117,
      "durationTicks" : 801,
      "durationSeconds" : 1.7262918374999998
    }, {
      "type" : "control_change",
      "tick" : 38147,
      "timeSeconds" : 82.21330177916667,
      "channel" : 7,
      "controller" : 10,
      "value" : 119
    }, {
      "type" : "note",
      "tick" : 38161,
      "timeSeconds" : 82.24347417083334,
      "channel" : 7,
      "noteNumber" : 65,
      "noteName" : "F4",
      "velocity" : 91,
      "durationTicks" : 39,
      "durationSeconds" : 0.08405166250000207
    }, {
      "type" : "note",
      "tick" : 38159,
      "timeSeconds" : 82.23916382916667,
      "channel" : 7,
      "noteNumber" : 62,
      "noteName" : "D4",
      "velocity" : 94,
      "durationTicks" : 45,
      "durationSeconds" : 0.09698268750000238
    }, {
      "type" : "note",
      "tick" : 38161,
      "timeSeconds" : 82.24347417083334,
      "channel" : 7,
      "noteNumber" : 57,
      "noteName" : "A3",
      "velocity" : 83,
      "durationTicks" : 58,
      "durationSeconds" : 0.1249999083333222
    }, {
      "type" : "control_change",
      "tick" : 38243,
      "timeSeconds" : 82.42019817916666,
      "channel" : 7,
      "controller" : 10,
      "value" : 52
    }, {
      "type" : "control_change",
      "tick" : 38385,
      "timeSeconds" : 82.7262324375,
      "channel" : 7,
      "controller" : 10,
      "value" : 7
    }, {
      "type" : "control_change",
      "tick" : 38514,
      "timeSeconds" : 83.004249475,
      "channel" : 7,
      "controller" : 10,
      "value" : 34
    }, {
      "type" : "control_change",
      "tick" : 38520,
      "timeSeconds" : 83.0171805,
      "channel" : 7,
      "controller" : 10,
      "value" : 35
    }, {
      "type" : "control_change",
      "tick" : 38619,
      "timeSeconds" : 83.2305424125,
      "channel" : 7,
      "controller" : 10,
      "value" : 53
    }, {
      "type" : "note",
      "tick" : 38397,
      "timeSeconds" : 82.7520944875,
      "channel" : 7,
      "noteNumber" : 61,
      "noteName" : "C#4",
      "velocity" : 83,
      "durationTicks" : 263,
      "durationSeconds" : 0.5668099291666664
    }, {
      "type" : "note",
      "tick" : 38400,
      "timeSeconds" : 82.75856,
      "channel" : 7,
      "noteNumber" : 65,
      "noteName" : "F4",
      "velocity" : 91,
      "durationTicks" : 266,
      "durationSeconds" : 0.5732754416666666
    }, {
      "type" : "note",
      "tick" : 38396,
      "timeSeconds" : 82.74993931666667,
      "channel" : 7,
      "noteNumber" : 55,
      "noteName" : "G3",
      "velocity" : 81,
      "durationTicks" : 274,
      "durationSeconds" : 0.5905168083333336
    }, {
      "type" : "control_change",
      "tick" : 38734,
      "timeSeconds" : 83.47838705833334,
      "channel" : 7,
      "controller" : 10,
      "value" : 68
    }, {
      "type" : "note",
      "tick" : 38759,
      "timeSeconds" : 83.53226632916666,
      "channel" : 7,
      "noteNumber" : 65,
      "noteName" : "F4",
      "velocity" : 53,
      "durationTicks" : 39,
      "durationSeconds" : 0.08405166250000207
    }, {
      "type" : "note",
      "tick" : 38746,
      "timeSeconds" : 83.50424910833334,
      "channel" : 7,
      "noteNumber" : 61,
      "noteName" : "C#4",
      "velocity" : 49,
      "durationTicks" : 54,
      "durationSeconds" : 0.11637922499998865
    }, {
      "type" : "note",
      "tick" : 38747,
      "timeSeconds" : 83.50640427916667,
      "channel" : 7,
      "noteNumber" : 55,
      "noteName" : "G3",
      "velocity" : 59,
      "durationTicks" : 61,
      "durationSeconds" : 0.13146542083332236
    }, {
      "type" : "control_change",
      "tick" : 38858,
      "timeSeconds" : 83.74562824166667,
      "channel" : 7,
      "controller" : 10,
      "value" : 107
    }, {
      "type" : "control_change",
      "tick" : 38885,
      "timeSeconds" : 83.80381785416667,
      "channel" : 7,
      "controller" : 10,
      "value" : 109
    }, {
      "type" : "control_change",
      "tick" : 39001,
      "timeSeconds" : 84.05381767083334,
      "channel" : 7,
      "controller" : 10,
      "value" : 120
    }, {
      "type" : "note",
      "tick" : 38864,
      "timeSeconds" : 83.75855926666667,
      "channel" : 7,
      "noteNumber" : 65,
      "noteName" : "F4",
      "velocity" : 59,
      "durationTicks" : 155,
      "durationSeconds" : 0.33405147916666067
    }, {
      "type" : "note",
      "tick" : 38860,
      "timeSeconds" : 83.74993858333333,
      "channel" : 7,
      "noteNumber" : 61,
      "noteName" : "C#4",
      "velocity" : 68,
      "durationTicks" : 162,
      "durationSeconds" : 0.3491376749999944
    }, {
      "type" : "note",
      "tick" : 38857,
      "timeSeconds" : 83.74347307083333,
      "channel" : 7,
      "noteNumber" : 55,
      "noteName" : "G3",
      "velocity" : 62,
      "durationTicks" : 179,
      "durationSeconds" : 0.38577557916666194
    }, {
      "type" : "control_change",
      "tick" : 39110,
      "timeSeconds" : 84.28873129166666,
      "channel" : 7,
      "controller" : 10,
      "value" : 60
    }, {
      "type" : "note",
      "tick" : 39107,
      "timeSeconds" : 84.28226577916666,
      "channel" : 7,
      "noteNumber" : 65,
      "noteName" : "F4",
      "velocity" : 83,
      "durationTicks" : 47,
      "durationSeconds" : 0.10129302916666916
    }, {
      "type" : "note",
      "tick" : 39103,
      "timeSeconds" : 84.27364509583333,
      "channel" : 7,
      "noteNumber" : 61,
      "noteName" : "C#4",
      "velocity" : 73,
      "durationTicks" : 53,
      "durationSeconds" : 0.11422405416666948
    }, {
      "type" : "note",
      "tick" : 39104,
      "timeSeconds" : 84.27580026666666,
      "channel" : 7,
      "noteNumber" : 55,
      "noteName" : "G3",
      "velocity" : 77,
      "durationTicks" : 66,
      "durationSeconds" : 0.1422412750000035
    }, {
      "type" : "control_change",
      "tick" : 39229,
      "timeSeconds" : 84.54519662083334,
      "channel" : 7,
      "controller" : 10,
      "value" : 22
    }, {
      "type" : "control_change",
      "tick" : 39350,
      "timeSeconds" : 84.80597229166666,
      "channel" : 7,
      "controller" : 10,
      "value" : 6
    }, {
      "type" : "control_change",
      "tick" : 39473,
      "timeSeconds" : 85.07105830416667,
      "channel" : 7,
      "controller" : 10,
      "value" : 34
    }, {
      "type" : "control_change",
      "tick" : 39569,
      "timeSeconds" : 85.27795470416666,
      "channel" : 7,
      "controller" : 10,
      "value" : 76
    }, {
      "type" : "control_change",
      "tick" : 39706,
      "timeSeconds" : 85.57321310833333,
      "channel" : 7,
      "controller" : 10,
      "value" : 106
    }, {
      "type" : "note",
      "tick" : 39575,
      "timeSeconds" : 85.29088572916666,
      "channel" : 7,
      "noteNumber" : 62,
      "noteName" : "D4",
      "velocity" : 101,
      "durationTicks" : 167,
      "durationSeconds" : 0.3599135291666755
    }, {
      "type" : "note",
      "tick" : 39579,
      "timeSeconds" : 85.2995064125,
      "channel" : 7,
      "noteNumber" : 67,
      "noteName" : "G4",
      "velocity" : 104,
      "durationTicks" : 165,
      "durationSeconds" : 0.35560318750000874
    }, {
      "type" : "note",
      "tick" : 39577,
      "timeSeconds" : 85.29519607083333,
      "channel" : 7,
      "noteNumber" : 58,
      "noteName" : "A#3",
      "velocity" : 87,
      "durationTicks" : 177,
      "durationSeconds" : 0.3814652375000094
    }, {
      "type" : "note",
      "tick" : 39578,
      "timeSeconds" : 85.29735124166666,
      "channel" : 7,
      "noteNumber" : 55,
      "noteName" : "G3",
      "velocity" : 101,
      "durationTicks" : 190,
      "durationSeconds" : 0.4094824583333434
    }, {
      "type" : "control_change",
      "tick" : 39838,
      "timeSeconds" : 85.85769565833333,
      "channel" : 7,
      "controller" : 10,
      "value" : 125
    }, {
      "type" : "note",
      "tick" : 39849,
      "timeSeconds" : 85.8814025375,
      "channel" : 7,
      "noteNumber" : 61,
      "noteName" : "C#4",
      "velocity" : 68,
      "durationTicks" : 16,
      "durationSeconds" : 0.03448273333333418
    }, {
      "type" : "note",
      "tick" : 39845,
      "timeSeconds" : 85.87278185416666,
      "channel" : 7,
      "noteNumber" : 58,
      "noteName" : "A#3",
      "velocity" : 65,
      "durationTicks" : 22,
      "durationSeconds" : 0.0474137583333345
    }, {
      "type" : "note",
      "tick" : 39847,
      "timeSeconds" : 85.87709219583333,
      "channel" : 7,
      "noteNumber" : 55,
      "noteName" : "G3",
      "velocity" : 77,
      "durationTicks" : 25,
      "durationSeconds" : 0.05387927083333466
    }, {
      "type" : "note",
      "tick" : 39846,
      "timeSeconds" : 85.874937025,
      "channel" : 7,
      "noteNumber" : 64,
      "noteName" : "E4",
      "velocity" : 70,
      "durationTicks" : 29,
      "durationSeconds" : 0.062499954166668203
    }, {
      "type" : "control_change",
      "tick" : 39932,
      "timeSeconds" : 86.06028171666667,
      "channel" : 7,
      "controller" : 10,
      "value" : 72
    }, {
      "type" : "note",
      "tick" : 40021,
      "timeSeconds" : 86.25209192083334,
      "channel" : 7,
      "noteNumber" : 61,
      "noteName" : "C#4",
      "velocity" : 80,
      "durationTicks" : 18,
      "durationSeconds" : 0.038793075000000954
    }, {
      "type" : "note",
      "tick" : 40019,
      "timeSeconds" : 86.24778157916667,
      "channel" : 7,
      "noteNumber" : 58,
      "noteName" : "A#3",
      "velocity" : 83,
      "durationTicks" : 20,
      "durationSeconds" : 0.04310341666666773
    }, {
      "type" : "note",
      "tick" : 40022,
      "timeSeconds" : 86.25424709166667,
      "channel" : 7,
      "noteNumber" : 64,
      "noteName" : "E4",
      "velocity" : 81,
      "durationTicks" : 21,
      "durationSeconds" : 0.04525858750000111
    }, {
      "type" : "note",
      "tick" : 40020,
      "timeSeconds" : 86.24993675,
      "channel" : 7,
      "noteNumber" : 55,
      "noteName" : "G3",
      "velocity" : 86,
      "durationTicks" : 25,
      "durationSeconds" : 0.05387927083333466
    }, {
      "type" : "control_change",
      "tick" : 40051,
      "timeSeconds" : 86.31674704583334,
      "channel" : 7,
      "controller" : 10,
      "value" : 37
    }, {
      "type" : "control_change",
      "tick" : 40164,
      "timeSeconds" : 86.56028135,
      "channel" : 7,
      "controller" : 10,
      "value" : 2
    }, {
      "type" : "note",
      "tick" : 40200,
      "timeSeconds" : 86.6378675,
      "channel" : 7,
      "noteNumber" : 58,
      "noteName" : "A#3",
      "velocity" : 91,
      "durationTicks" : 76,
      "durationSeconds" : 0.16379298333333736
    }, {
      "type" : "note",
      "tick" : 40201,
      "timeSeconds" : 86.64002267083333,
      "channel" : 7,
      "noteNumber" : 61,
      "noteName" : "C#4",
      "velocity" : 87,
      "durationTicks" : 77,
      "durationSeconds" : 0.16594815416667075
    }, {
      "type" : "note",
      "tick" : 40204,
      "timeSeconds" : 86.64648818333333,
      "channel" : 7,
      "noteNumber" : 64,
      "noteName" : "E4",
      "velocity" : 86,
      "durationTicks" : 89,
      "durationSeconds" : 0.19181020416667138
    }, {
      "type" : "note",
      "tick" : 40201,
      "timeSeconds" : 86.64002267083333,
      "channel" : 7,
      "noteNumber" : 55,
      "noteName" : "G3",
      "velocity" : 91,
      "durationTicks" : 95,
      "durationSeconds" : 0.2047412291666717
    }, {
      "type" : "control_change",
      "tick" : 40320,
      "timeSeconds" : 86.896488,
      "channel" : 7,
      "controller" : 10,
      "value" : 24
    }, {
      "type" : "control_change",
      "tick" : 40422,
      "timeSeconds" : 87.116315425,
      "channel" : 7,
      "controller" : 10,
      "value" : 72
    }, {
      "type" : "note",
      "tick" : 40418,
      "timeSeconds" : 87.10769474166666,
      "channel" : 7,
      "noteNumber" : 57,
      "noteName" : "A3",
      "velocity" : 81,
      "durationTicks" : 28,
      "durationSeconds" : 0.06034478333333482
    }, {
      "type" : "note",
      "tick" : 40423,
      "timeSeconds" : 87.11847059583333,
      "channel" : 7,
      "noteNumber" : 64,
      "noteName" : "E4",
      "velocity" : 77,
      "durationTicks" : 24,
      "durationSeconds" : 0.05172410000000127
    }, {
      "type" : "note",
      "tick" : 40420,
      "timeSeconds" : 87.11200508333333,
      "channel" : 7,
      "noteNumber" : 60,
      "noteName" : "C4",
      "velocity" : 83,
      "durationTicks" : 28,
      "durationSeconds" : 0.06034478333333482
    }, {
      "type" : "control_change",
      "tick" : 40542,
      "timeSeconds" : 87.374935925,
      "channel" : 7,
      "controller" : 10,
      "value" : 98
    }, {
      "type" : "control_change",
      "tick" : 40660,
      "timeSeconds" : 87.62924608333333,
      "channel" : 7,
      "controller" : 10,
      "value" : 121
    }, {
      "type" : "control_change",
      "tick" : 40680,
      "timeSeconds" : 87.6723495,
      "channel" : 7,
      "controller" : 10,
      "value" : 122
    }, {
      "type" : "note",
      "tick" : 40565,
      "timeSeconds" : 87.42450485416667,
      "channel" : 7,
      "noteNumber" : 64,
      "noteName" : "E4",
      "velocity" : 88,
      "durationTicks" : 131,
      "durationSeconds" : 0.2823273791666594
    }, {
      "type" : "note",
      "tick" : 40562,
      "timeSeconds" : 87.41803934166667,
      "channel" : 7,
      "noteNumber" : 60,
      "noteName" : "C4",
      "velocity" : 101,
      "durationTicks" : 143,
      "durationSeconds" : 0.30818942916666003
    }, {
      "type" : "note",
      "tick" : 40563,
      "timeSeconds" : 87.4201945125,
      "channel" : 7,
      "noteNumber" : 57,
      "noteName" : "A3",
      "velocity" : 94,
      "durationTicks" : 155,
      "durationSeconds" : 0.33405147916666067
    }, {
      "type" : "note",
      "tick" : 40815,
      "timeSeconds" : 87.9632975625,
      "channel" : 7,
      "noteNumber" : 63,
      "noteName" : "D#4",
      "velocity" : 61,
      "durationTicks" : 23,
      "durationSeconds" : 0.049568929166667886
    }, {
      "type" : "note",
      "tick" : 40814,
      "timeSeconds" : 87.96114239166667,
      "channel" : 7,
      "noteNumber" : 57,
      "noteName" : "A3",
      "velocity" : 71,
      "durationTicks" : 32,
      "durationSeconds" : 0.06896546666666836
    }, {
      "type" : "control_change",
      "tick" : 40885,
      "timeSeconds" : 88.11415952083334,
      "channel" : 7,
      "controller" : 10,
      "value" : 94
    }, {
      "type" : "control_change",
      "tick" : 41000,
      "timeSeconds" : 88.36200416666667,
      "channel" : 7,
      "controller" : 10,
      "value" : 66
    }, {
      "type" : "note",
      "tick" : 40986,
      "timeSeconds" : 88.331831775,
      "channel" : 7,
      "noteNumber" : 63,
      "noteName" : "D#4",
      "velocity" : 83,
      "durationTicks" : 26,
      "durationSeconds" : 0.056034441666668044
    }, {
      "type" : "note",
      "tick" : 40989,
      "timeSeconds" : 88.3382972875,
      "channel" : 7,
      "noteNumber" : 67,
      "noteName" : "G4",
      "velocity" : 97,
      "durationTicks" : 25,
      "durationSeconds" : 0.05387927083333466
    }, {
      "type" : "note",
      "tick" : 40985,
      "timeSeconds" : 88.32967660416666,
      "channel" : 7,
      "noteNumber" : 57,
      "noteName" : "A3",
      "velocity" : 91,
      "durationTicks" : 32,
      "durationSeconds" : 0.06896546666666836
    }, {
      "type" : "control_change",
      "tick" : 41133,
      "timeSeconds" : 88.6486418875,
      "channel" : 7,
      "controller" : 10,
      "value" : 35
    }, {
      "type" : "control_change",
      "tick" : 41243,
      "timeSeconds" : 88.88571067916666,
      "channel" : 7,
      "controller" : 10,
      "value" : 10
    }, {
      "type" : "control_change",
      "tick" : 41415,
      "timeSeconds" : 89.2564000625,
      "channel" : 7,
      "controller" : 10,
      "value" : 35
    }, {
      "type" : "control_change",
      "tick" : 41440,
      "timeSeconds" : 89.31027933333333,
      "channel" : 7,
      "controller" : 10,
      "value" : 36
    }, {
      "type" : "control_change",
      "tick" : 41522,
      "timeSeconds" : 89.48700334166666,
      "channel" : 7,
      "controller" : 10,
      "value" : 65
    }, {
      "type" : "control_change",
      "tick" : 41615,
      "timeSeconds" : 89.68743422916667,
      "channel" : 7,
      "controller" : 10,
      "value" : 99
    }, {
      "type" : "control_change",
      "tick" : 41750,
      "timeSeconds" : 89.97838229166666,
      "channel" : 7,
      "controller" : 10,
      "value" : 115
    }, {
      "type" : "control_change",
      "tick" : 41756,
      "timeSeconds" : 89.99131331666666,
      "channel" : 7,
      "controller" : 10,
      "value" : 116
    }, {
      "type" : "control_change",
      "tick" : 41859,
      "timeSeconds" : 90.2132959125,
      "channel" : 7,
      "controller" : 10,
      "value" : 59
    }, {
      "type" : "control_change",
      "tick" : 41960,
      "timeSeconds" : 90.43096816666667,
      "channel" : 7,
      "controller" : 10,
      "value" : 25
    }, {
      "type" : "note",
      "tick" : 41943,
      "timeSeconds" : 90.3943302625,
      "channel" : 7,
      "noteNumber" : 61,
      "noteName" : "C#4",
      "velocity" : 87,
      "durationTicks" : 27,
      "durationSeconds" : 0.05818961249998722
    }, {
      "type" : "note",
      "tick" : 41946,
      "timeSeconds" : 90.400795775,
      "channel" : 7,
      "noteNumber" : 65,
      "noteName" : "F4",
      "velocity" : 81,
      "durationTicks" : 29,
      "durationSeconds" : 0.06249995416665399
    }, {
      "type" : "note",
      "tick" : 41944,
      "timeSeconds" : 90.39648543333334,
      "channel" : 7,
      "noteNumber" : 55,
      "noteName" : "G3",
      "velocity" : 91,
      "durationTicks" : 38,
      "durationSeconds" : 0.08189649166665447
    }, {
      "type" : "control_change",
      "tick" : 42070,
      "timeSeconds" : 90.66803695833333,
      "channel" : 7,
      "controller" : 10,
      "value" : 3
    }, {
      "type" : "note",
      "tick" : 42133,
      "timeSeconds" : 90.80381272083333,
      "channel" : 7,
      "noteNumber" : 61,
      "noteName" : "C#4",
      "velocity" : 27,
      "durationTicks" : 34,
      "durationSeconds" : 0.07327580833333514
    }, {
      "type" : "note",
      "tick" : 42123,
      "timeSeconds" : 90.7822610125,
      "channel" : 7,
      "noteNumber" : 55,
      "noteName" : "G3",
      "velocity" : 62,
      "durationTicks" : 50,
      "durationSeconds" : 0.10775854166666932
    }, {
      "type" : "control_change",
      "tick" : 42210,
      "timeSeconds" : 90.969760875,
      "channel" : 7,
      "controller" : 10,
      "value" : 37
    }, {
      "type" : "control_change",
      "tick" : 42332,
      "timeSeconds" : 91.23269171666666,
      "channel" : 7,
      "controller" : 10,
      "value" : 70
    }, {
      "type" : "note",
      "tick" : 42237,
      "timeSeconds" : 91.0279504875,
      "channel" : 7,
      "noteNumber" : 57,
      "noteName" : "A3",
      "velocity" : 83,
      "durationTicks" : 126,
      "durationSeconds" : 0.2715515250000067
    }, {
      "type" : "note",
      "tick" : 42238,
      "timeSeconds" : 91.03010565833333,
      "channel" : 7,
      "noteNumber" : 60,
      "noteName" : "C4",
      "velocity" : 97,
      "durationTicks" : 164,
      "durationSeconds" : 0.35344801666667536
    }, {
      "type" : "note",
      "tick" : 42235,
      "timeSeconds" : 91.02364014583334,
      "channel" : 7,
      "noteNumber" : 64,
      "noteName" : "E4",
      "velocity" : 79,
      "durationTicks" : 174,
      "durationSeconds" : 0.374999724999995
    }, {
      "type" : "control_change",
      "tick" : 42442,
      "timeSeconds" : 91.46976050833334,
      "channel" : 7,
      "controller" : 10,
      "value" : 89
    }, {
      "type" : "control_change",
      "tick" : 42449,
      "timeSeconds" : 91.48484670416667,
      "channel" : 7,
      "controller" : 10,
      "value" : 90
    }, {
      "type" : "control_change",
      "tick" : 42586,
      "timeSeconds" : 91.78010510833333,
      "channel" : 7,
      "controller" : 10,
      "value" : 108
    }, {
      "type" : "note",
      "tick" : 42596,
      "timeSeconds" : 91.80165681666666,
      "channel" : 7,
      "noteNumber" : 68,
      "noteName" : "G#4",
      "velocity" : 49,
      "durationTicks" : 27,
      "durationSeconds" : 0.05818961250000143
    }, {
      "type" : "note",
      "tick" : 42594,
      "timeSeconds" : 91.797346475,
      "channel" : 7,
      "noteNumber" : 62,
      "noteName" : "D4",
      "velocity" : 50,
      "durationTicks" : 55,
      "durationSeconds" : 0.11853439583333625
    }, {
      "type" : "note",
      "tick" : 42600,
      "timeSeconds" : 91.8102775,
      "channel" : 7,
      "noteNumber" : 57,
      "noteName" : "A3",
      "velocity" : 49,
      "durationTicks" : 64,
      "durationSeconds" : 0.13793093333333672
    }, {
      "type" : "control_change",
      "tick" : 42714,
      "timeSeconds" : 92.055966975,
      "channel" : 7,
      "controller" : 10,
      "value" : 116
    }, {
      "type" : "note",
      "tick" : 42606,
      "timeSeconds" : 91.823208525,
      "channel" : 7,
      "noteNumber" : 69,
      "noteName" : "A4",
      "velocity" : 81,
      "durationTicks" : 120,
      "durationSeconds" : 0.25862050000000636
    }, {
      "type" : "note",
      "tick" : 42730,
      "timeSeconds" : 92.09044970833334,
      "channel" : 7,
      "noteNumber" : 72,
      "noteName" : "C5",
      "velocity" : 86,
      "durationTicks" : 22,
      "durationSeconds" : 0.0474137583333345
    }, {
      "type" : "note",
      "tick" : 42716,
      "timeSeconds" : 92.06027731666667,
      "channel" : 7,
      "noteNumber" : 62,
      "noteName" : "D4",
      "velocity" : 61,
      "durationTicks" : 57,
      "durationSeconds" : 0.12284473749998881
    }, {
      "type" : "note",
      "tick" : 42724,
      "timeSeconds" : 92.07751868333334,
      "channel" : 7,
      "noteNumber" : 57,
      "noteName" : "A3",
      "velocity" : 1,
      "durationTicks" : 58,
      "durationSeconds" : 0.1249999083333222
    }, {
      "type" : "control_change",
      "tick" : 42819,
      "timeSeconds" : 92.2822599125,
      "channel" : 7,
      "controller" : 10,
      "value" : 81
    }, {
      "type" : "note",
      "tick" : 42837,
      "timeSeconds" : 92.3210529875,
      "channel" : 7,
      "noteNumber" : 62,
      "noteName" : "D4",
      "velocity" : 61,
      "durationTicks" : 54,
      "durationSeconds" : 0.11637922500000286
    }, {
      "type" : "control_change",
      "tick" : 42933,
      "timeSeconds" : 92.5279493875,
      "channel" : 7,
      "controller" : 10,
      "value" : 44
    }, {
      "type" : "note",
      "tick" : 42831,
      "timeSeconds" : 92.3081219625,
      "channel" : 7,
      "noteNumber" : 57,
      "noteName" : "A3",
      "velocity" : 1,
      "durationTicks" : 140,
      "durationSeconds" : 0.3017239166666741
    }, {
      "type" : "note",
      "tick" : 42961,
      "timeSeconds" : 92.58829417083334,
      "channel" : 7,
      "noteNumber" : 62,
      "noteName" : "D4",
      "velocity" : 52,
      "durationTicks" : 54,
      "durationSeconds" : 0.11637922500000286
    }, {
      "type" : "note",
      "tick" : 42976,
      "timeSeconds" : 92.62062173333334,
      "channel" : 7,
      "noteNumber" : 69,
      "noteName" : "A4",
      "velocity" : 94,
      "durationTicks" : 52,
      "durationSeconds" : 0.11206888333333609
    }, {
      "type" : "control_change",
      "tick" : 43035,
      "timeSeconds" : 92.7477768125,
      "channel" : 7,
      "controller" : 10,
      "value" : 15
    }, {
      "type" : "note",
      "tick" : 43078,
      "timeSeconds" : 92.84044915833333,
      "channel" : 7,
      "noteNumber" : 72,
      "noteName" : "C5",
      "velocity" : 88,
      "durationTicks" : 26,
      "durationSeconds" : 0.056034441666668044
    }, {
      "type" : "note",
      "tick" : 43447,
      "timeSeconds" : 93.63570719583333,
      "channel" : 7,
      "noteNumber" : 70,
      "noteName" : "A#4",
      "velocity" : 57,
      "durationTicks" : 17,
      "durationSeconds" : 0.03663790416666757
    }, {
      "type" : "note",
      "tick" : 43449,
      "timeSeconds" : 93.6400175375,
      "channel" : 7,
      "noteNumber" : 65,
      "noteName" : "F4",
      "velocity" : 66,
      "durationTicks" : 26,
      "durationSeconds" : 0.056034441666668044
    }, {
      "type" : "note",
      "tick" : 43563,
      "timeSeconds" : 93.8857070125,
      "channel" : 7,
      "noteNumber" : 62,
      "noteName" : "D4",
      "velocity" : 75,
      "durationTicks" : 63,
      "durationSeconds" : 0.13577576249998913
    }, {
      "type" : "note",
      "tick" : 43557,
      "timeSeconds" : 93.8727759875,
      "channel" : 7,
      "noteNumber" : 70,
      "noteName" : "A#4",
      "velocity" : 91,
      "durationTicks" : 102,
      "durationSeconds" : 0.2198274249999912
    }, {
      "type" : "note",
      "tick" : 43556,
      "timeSeconds" : 93.87062081666667,
      "channel" : 7,
      "noteNumber" : 74,
      "noteName" : "D5",
      "velocity" : 101,
      "durationTicks" : 107,
      "durationSeconds" : 0.23060327916665813
    }, {
      "type" : "note",
      "tick" : 43559,
      "timeSeconds" : 93.87708632916667,
      "channel" : 7,
      "noteNumber" : 65,
      "noteName" : "F4",
      "velocity" : 86,
      "durationTicks" : 113,
      "durationSeconds" : 0.24353430416665844
    }, {
      "type" : "note",
      "tick" : 43562,
      "timeSeconds" : 93.88355184166667,
      "channel" : 7,
      "noteNumber" : 55,
      "noteName" : "G3",
      "velocity" : 79,
      "durationTicks" : 132,
      "durationSeconds" : 0.2844825499999928
    }, {
      "type" : "note",
      "tick" : 43729,
      "timeSeconds" : 94.24346537083333,
      "channel" : 7,
      "noteNumber" : 73,
      "noteName" : "C#5",
      "velocity" : 87,
      "durationTicks" : 18,
      "durationSeconds" : 0.038793075000000954
    }, {
      "type" : "note",
      "tick" : 43736,
      "timeSeconds" : 94.25855156666667,
      "channel" : 7,
      "noteNumber" : 67,
      "noteName" : "G4",
      "velocity" : 88,
      "durationTicks" : 12,
      "durationSeconds" : 0.025862050000000636
    }, {
      "type" : "note",
      "tick" : 43729,
      "timeSeconds" : 94.24346537083333,
      "channel" : 7,
      "noteNumber" : 70,
      "noteName" : "A#4",
      "velocity" : 95,
      "durationTicks" : 21,
      "durationSeconds" : 0.04525858750000111
    }, {
      "type" : "note",
      "tick" : 43872,
      "timeSeconds" : 94.5516548,
      "channel" : 7,
      "noteNumber" : 60,
      "noteName" : "C4",
      "velocity" : 104,
      "durationTicks" : 23,
      "durationSeconds" : 0.049568929166667886
    }, {
      "type" : "note",
      "tick" : 43934,
      "timeSeconds" : 94.68527539166666,
      "channel" : 7,
      "noteNumber" : 70,
      "noteName" : "A#4",
      "velocity" : 104,
      "durationTicks" : 83,
      "durationSeconds" : 0.17887917916667107
    }, {
      "type" : "note",
      "tick" : 43935,
      "timeSeconds" : 94.6874305625,
      "channel" : 7,
      "noteNumber" : 76,
      "noteName" : "E5",
      "velocity" : 88,
      "durationTicks" : 85,
      "durationSeconds" : 0.18318952083333784
    }, {
      "type" : "note",
      "tick" : 43936,
      "timeSeconds" : 94.68958573333333,
      "channel" : 7,
      "noteNumber" : 73,
      "noteName" : "C#5",
      "velocity" : 91,
      "durationTicks" : 93,
      "durationSeconds" : 0.20043088750000493
    }, {
      "type" : "note",
      "tick" : 43932,
      "timeSeconds" : 94.68096505,
      "channel" : 7,
      "noteNumber" : 67,
      "noteName" : "G4",
      "velocity" : 117,
      "durationTicks" : 109,
      "durationSeconds" : 0.2349136208333391
    }, {
      "type" : "note",
      "tick" : 44051,
      "timeSeconds" : 94.93743037916667,
      "channel" : 7,
      "noteNumber" : 60,
      "noteName" : "C4",
      "velocity" : 75,
      "durationTicks" : 32,
      "durationSeconds" : 0.06896546666666836
    }, {
      "type" : "note",
      "tick" : 44116,
      "timeSeconds" : 95.07751648333333,
      "channel" : 7,
      "noteNumber" : 76,
      "noteName" : "E5",
      "velocity" : 59,
      "durationTicks" : 13,
      "durationSeconds" : 0.028017220833334022
    }, {
      "type" : "control_change",
      "tick" : 44129,
      "timeSeconds" : 95.10553370416666,
      "channel" : 7,
      "controller" : 10,
      "value" : 126
    }, {
      "type" : "note",
      "tick" : 44106,
      "timeSeconds" : 95.055964775,
      "channel" : 7,
      "noteNumber" : 72,
      "noteName" : "C5",
      "velocity" : 91,
      "durationTicks" : 25,
      "durationSeconds" : 0.05387927083332045
    }, {
      "type" : "note",
      "tick" : 44109,
      "timeSeconds" : 95.0624302875,
      "channel" : 7,
      "noteNumber" : 65,
      "noteName" : "F4",
      "velocity" : 81,
      "durationTicks" : 27,
      "durationSeconds" : 0.05818961249998722
    }, {
      "type" : "note",
      "tick" : 44214,
      "timeSeconds" : 95.288723225,
      "channel" : 7,
      "noteNumber" : 72,
      "noteName" : "C5",
      "velocity" : 83,
      "durationTicks" : 14,
      "durationSeconds" : 0.03017239166666741
    }, {
      "type" : "note",
      "tick" : 44213,
      "timeSeconds" : 95.28656805416666,
      "channel" : 7,
      "noteNumber" : 65,
      "noteName" : "F4",
      "velocity" : 86,
      "durationTicks" : 20,
      "durationSeconds" : 0.04310341666666773
    }, {
      "type" : "control_change",
      "tick" : 44268,
      "timeSeconds" : 95.40510245,
      "channel" : 7,
      "controller" : 10,
      "value" : 99
    }, {
      "type" : "control_change",
      "tick" : 44290,
      "timeSeconds" : 95.45251620833334,
      "channel" : 7,
      "controller" : 10,
      "value" : 98
    }, {
      "type" : "note",
      "tick" : 44271,
      "timeSeconds" : 95.4115679625,
      "channel" : 7,
      "noteNumber" : 62,
      "noteName" : "D4",
      "velocity" : 54,
      "durationTicks" : 96,
      "durationSeconds" : 0.2068964000000051
    }, {
      "type" : "control_change",
      "tick" : 44390,
      "timeSeconds" : 95.66803329166666,
      "channel" : 7,
      "controller" : 10,
      "value" : 66
    }, {
      "type" : "note",
      "tick" : 44412,
      "timeSeconds" : 95.71544705,
      "channel" : 7,
      "noteNumber" : 65,
      "noteName" : "F4",
      "velocity" : 91,
      "durationTicks" : 80,
      "durationSeconds" : 0.1724136666666709
    }, {
      "type" : "note",
      "tick" : 44414,
      "timeSeconds" : 95.71975739166666,
      "channel" : 7,
      "noteNumber" : 72,
      "noteName" : "C5",
      "velocity" : 104,
      "durationTicks" : 83,
      "durationSeconds" : 0.17887917916667107
    }, {
      "type" : "note",
      "tick" : 44415,
      "timeSeconds" : 95.7219125625,
      "channel" : 7,
      "noteNumber" : 76,
      "noteName" : "E5",
      "velocity" : 88,
      "durationTicks" : 84,
      "durationSeconds" : 0.18103435000000445
    }, {
      "type" : "control_change",
      "tick" : 44522,
      "timeSeconds" : 95.95251584166667,
      "channel" : 7,
      "controller" : 10,
      "value" : 27
    }, {
      "type" : "control_change",
      "tick" : 44529,
      "timeSeconds" : 95.9676020375,
      "channel" : 7,
      "controller" : 10,
      "value" : 28
    }, {
      "type" : "note",
      "tick" : 44538,
      "timeSeconds" : 95.986998575,
      "channel" : 7,
      "noteNumber" : 62,
      "noteName" : "D4",
      "velocity" : 75,
      "durationTicks" : 47,
      "durationSeconds" : 0.10129302916666916
    }, {
      "type" : "control_change",
      "tick" : 44637,
      "timeSeconds" : 96.2003604875,
      "channel" : 7,
      "controller" : 10,
      "value" : 0
    }, {
      "type" : "control_change",
      "tick" : 44753,
      "timeSeconds" : 96.45036030416667,
      "channel" : 7,
      "controller" : 10,
      "value" : 36
    }, {
      "type" : "control_change",
      "tick" : 44775,
      "timeSeconds" : 96.4977740625,
      "channel" : 7,
      "controller" : 10,
      "value" : 37
    }, {
      "type" : "note",
      "tick" : 44812,
      "timeSeconds" : 96.57751538333333,
      "channel" : 7,
      "noteNumber" : 75,
      "noteName" : "D#5",
      "velocity" : 91,
      "durationTicks" : 14,
      "durationSeconds" : 0.03017239166666741
    }, {
      "type" : "note",
      "tick" : 44810,
      "timeSeconds" : 96.57320504166667,
      "channel" : 7,
      "noteNumber" : 69,
      "noteName" : "A4",
      "velocity" : 101,
      "durationTicks" : 21,
      "durationSeconds" : 0.04525858750000111
    }, {
      "type" : "note",
      "tick" : 44813,
      "timeSeconds" : 96.57967055416667,
      "channel" : 7,
      "noteNumber" : 79,
      "noteName" : "G5",
      "velocity" : 71,
      "durationTicks" : 20,
      "durationSeconds" : 0.04310341666666773
    }, {
      "type" : "control_change",
      "tick" : 44863,
      "timeSeconds" : 96.68742909583334,
      "channel" : 7,
      "controller" : 10,
      "value" : 58
    }, {
      "type" : "control_change",
      "tick" : 44889,
      "timeSeconds" : 96.7434635375,
      "channel" : 7,
      "controller" : 10,
      "value" : 59
    }, {
      "type" : "control_change",
      "tick" : 44987,
      "timeSeconds" : 96.95467027916666,
      "channel" : 7,
      "controller" : 10,
      "value" : 79
    }, {
      "type" : "control_change",
      "tick" : 44993,
      "timeSeconds" : 96.96760130416666,
      "channel" : 7,
      "controller" : 10,
      "value" : 80
    }, {
      "type" : "control_change",
      "tick" : 45011,
      "timeSeconds" : 97.00639437916666,
      "channel" : 7,
      "controller" : 10,
      "value" : 86
    }, {
      "type" : "note",
      "tick" : 44876,
      "timeSeconds" : 96.71544631666667,
      "channel" : 7,
      "noteNumber" : 53,
      "noteName" : "F3",
      "velocity" : 97,
      "durationTicks" : 150,
      "durationSeconds" : 0.32327562499999374
    }, {
      "type" : "note",
      "tick" : 45004,
      "timeSeconds" : 96.99130818333333,
      "channel" : 7,
      "noteNumber" : 79,
      "noteName" : "G5",
      "velocity" : 91,
      "durationTicks" : 80,
      "durationSeconds" : 0.1724136666666709
    }, {
      "type" : "note",
      "tick" : 44999,
      "timeSeconds" : 96.98053232916666,
      "channel" : 7,
      "noteNumber" : 75,
      "noteName" : "D#5",
      "velocity" : 104,
      "durationTicks" : 89,
      "durationSeconds" : 0.19181020416667138
    }, {
      "type" : "control_change",
      "tick" : 45102,
      "timeSeconds" : 97.202514925,
      "channel" : 7,
      "controller" : 10,
      "value" : 124
    }, {
      "type" : "note",
      "tick" : 45002,
      "timeSeconds" : 96.98699784166666,
      "channel" : 7,
      "noteNumber" : 69,
      "noteName" : "A4",
      "velocity" : 101,
      "durationTicks" : 101,
      "durationSeconds" : 0.21767225416667202
    }, {
      "type" : "note",
      "tick" : 45123,
      "timeSeconds" : 97.2477735125,
      "channel" : 7,
      "noteNumber" : 58,
      "noteName" : "A#3",
      "velocity" : 57,
      "durationTicks" : 49,
      "durationSeconds" : 0.10560337083333593
    }, {
      "type" : "control_change",
      "tick" : 45225,
      "timeSeconds" : 97.4676009375,
      "channel" : 7,
      "controller" : 10,
      "value" : 93
    }, {
      "type" : "note",
      "tick" : 45127,
      "timeSeconds" : 97.25639419583334,
      "channel" : 7,
      "noteNumber" : 79,
      "noteName" : "G5",
      "velocity" : 86,
      "durationTicks" : 161,
      "durationSeconds" : 0.346982504166661
    }, {
      "type" : "note",
      "tick" : 45130,
      "timeSeconds" : 97.26285970833334,
      "channel" : 7,
      "noteNumber" : 74,
      "noteName" : "D5",
      "velocity" : 104,
      "durationTicks" : 166,
      "durationSeconds" : 0.3577583583333279
    }, {
      "type" : "note",
      "tick" : 45129,
      "timeSeconds" : 97.2607045375,
      "channel" : 7,
      "noteNumber" : 69,
      "noteName" : "A4",
      "velocity" : 101,
      "durationTicks" : 168,
      "durationSeconds" : 0.3620686999999947
    }, {
      "type" : "control_change",
      "tick" : 45353,
      "timeSeconds" : 97.74346280416667,
      "channel" : 7,
      "controller" : 10,
      "value" : 53
    }, {
      "type" : "note",
      "tick" : 45369,
      "timeSeconds" : 97.7779455375,
      "channel" : 7,
      "noteNumber" : 74,
      "noteName" : "D5",
      "velocity" : 108,
      "durationTicks" : 15,
      "durationSeconds" : 0.032327562500000795
    }, {
      "type" : "note",
      "tick" : 45370,
      "timeSeconds" : 97.78010070833334,
      "channel" : 7,
      "noteNumber" : 79,
      "noteName" : "G5",
      "velocity" : 73,
      "durationTicks" : 18,
      "durationSeconds" : 0.038793075000000954
    }, {
      "type" : "note",
      "tick" : 45367,
      "timeSeconds" : 97.77363519583334,
      "channel" : 7,
      "noteNumber" : 69,
      "noteName" : "A4",
      "velocity" : 97,
      "durationTicks" : 26,
      "durationSeconds" : 0.056034441666668044
    }, {
      "type" : "control_change",
      "tick" : 45444,
      "timeSeconds" : 97.93958335,
      "channel" : 7,
      "controller" : 10,
      "value" : 33
    }, {
      "type" : "note",
      "tick" : 45469,
      "timeSeconds" : 97.99346262083333,
      "channel" : 7,
      "noteNumber" : 58,
      "noteName" : "A#3",
      "velocity" : 71,
      "durationTicks" : 72,
      "durationSeconds" : 0.15517230000000382
    }, {
      "type" : "control_change",
      "tick" : 45577,
      "timeSeconds" : 98.22622107083333,
      "channel" : 7,
      "controller" : 10,
      "value" : 2
    }, {
      "type" : "control_change",
      "tick" : 45583,
      "timeSeconds" : 98.23915209583333,
      "channel" : 7,
      "controller" : 10,
      "value" : 3
    }, {
      "type" : "control_change",
      "tick" : 45600,
      "timeSeconds" : 98.27579,
      "channel" : 7,
      "controller" : 10,
      "value" : 4
    }, {
      "type" : "note",
      "tick" : 45612,
      "timeSeconds" : 98.30165205,
      "channel" : 7,
      "noteNumber" : 57,
      "noteName" : "A3",
      "velocity" : 75,
      "durationTicks" : 38,
      "durationSeconds" : 0.08189649166666868
    }, {
      "type" : "control_change",
      "tick" : 45700,
      "timeSeconds" : 98.49130708333334,
      "channel" : 7,
      "controller" : 10,
      "value" : 62
    }, {
      "type" : "note",
      "tick" : 45611,
      "timeSeconds" : 98.29949687916667,
      "channel" : 7,
      "noteNumber" : 77,
      "noteName" : "F5",
      "velocity" : 86,
      "durationTicks" : 126,
      "durationSeconds" : 0.27155152499999247
    }, {
      "type" : "note",
      "tick" : 45607,
      "timeSeconds" : 98.29087619583333,
      "channel" : 7,
      "noteNumber" : 73,
      "noteName" : "C#5",
      "velocity" : 91,
      "durationTicks" : 132,
      "durationSeconds" : 0.2844825499999928
    }, {
      "type" : "note",
      "tick" : 45608,
      "timeSeconds" : 98.29303136666667,
      "channel" : 7,
      "noteNumber" : 67,
      "noteName" : "G4",
      "velocity" : 108,
      "durationTicks" : 132,
      "durationSeconds" : 0.2844825499999928
    }, {
      "type" : "note",
      "tick" : 45730,
      "timeSeconds" : 98.55596220833333,
      "channel" : 7,
      "noteNumber" : 57,
      "noteName" : "A3",
      "velocity" : 75,
      "durationTicks" : 47,
      "durationSeconds" : 0.10129302916666916
    }, {
      "type" : "note",
      "tick" : 45787,
      "timeSeconds" : 98.67880694583333,
      "channel" : 7,
      "noteNumber" : 73,
      "noteName" : "C#5",
      "velocity" : 104,
      "durationTicks" : 18,
      "durationSeconds" : 0.038793075000000954
    }, {
      "type" : "note",
      "tick" : 45788,
      "timeSeconds" : 98.68096211666666,
      "channel" : 7,
      "noteNumber" : 77,
      "noteName" : "F5",
      "velocity" : 91,
      "durationTicks" : 20,
      "durationSeconds" : 0.04310341666666773
    }, {
      "type" : "note",
      "tick" : 45789,
      "timeSeconds" : 98.6831172875,
      "channel" : 7,
      "noteNumber" : 67,
      "noteName" : "G4",
      "velocity" : 117,
      "durationTicks" : 21,
      "durationSeconds" : 0.04525858750000111
    }, {
      "type" : "control_change",
      "tick" : 45827,
      "timeSeconds" : 98.76501377916667,
      "channel" : 7,
      "controller" : 10,
      "value" : 106
    }, {
      "type" : "control_change",
      "tick" : 45940,
      "timeSeconds" : 99.00854808333334,
      "channel" : 7,
      "controller" : 10,
      "value" : 126
    }, {
      "type" : "note",
      "tick" : 45949,
      "timeSeconds" : 99.02794462083334,
      "channel" : 7,
      "noteNumber" : 57,
      "noteName" : "A3",
      "velocity" : 77,
      "durationTicks" : 86,
      "durationSeconds" : 0.185344691666657
    }, {
      "type" : "control_change",
      "tick" : 46045,
      "timeSeconds" : 99.23484102083333,
      "channel" : 7,
      "controller" : 10,
      "value" : 75
    }, {
      "type" : "control_change",
      "tick" : 46051,
      "timeSeconds" : 99.24777204583333,
      "channel" : 7,
      "controller" : 10,
      "value" : 76
    }, {
      "type" : "note",
      "tick" : 46069,
      "timeSeconds" : 99.28656512083333,
      "channel" : 7,
      "noteNumber" : 62,
      "noteName" : "D4",
      "velocity" : 81,
      "durationTicks" : 60,
      "durationSeconds" : 0.12931025000000318
    }, {
      "type" : "note",
      "tick" : 46141,
      "timeSeconds" : 99.44173742083333,
      "channel" : 7,
      "noteNumber" : 72,
      "noteName" : "C5",
      "velocity" : 127,
      "durationTicks" : 19,
      "durationSeconds" : 0.04094824583333434
    }, {
      "type" : "note",
      "tick" : 46141,
      "timeSeconds" : 99.44173742083333,
      "channel" : 7,
      "noteNumber" : 76,
      "noteName" : "E5",
      "velocity" : 88,
      "durationTicks" : 22,
      "durationSeconds" : 0.0474137583333345
    }, {
      "type" : "note",
      "tick" : 46140,
      "timeSeconds" : 99.43958225,
      "channel" : 7,
      "noteNumber" : 65,
      "noteName" : "F4",
      "velocity" : 113,
      "durationTicks" : 24,
      "durationSeconds" : 0.05172410000000127
    }, {
      "type" : "control_change",
      "tick" : 46177,
      "timeSeconds" : 99.51932357083334,
      "channel" : 7,
      "controller" : 10,
      "value" : 53
    }, {
      "type" : "control_change",
      "tick" : 46291,
      "timeSeconds" : 99.76501304583333,
      "channel" : 7,
      "controller" : 10,
      "value" : 25
    }, {
      "type" : "note",
      "tick" : 46262,
      "timeSeconds" : 99.70251309166666,
      "channel" : 7,
      "noteNumber" : 62,
      "noteName" : "D4",
      "velocity" : 101,
      "durationTicks" : 42,
      "durationSeconds" : 0.09051717500000223
    }, {
      "type" : "control_change",
      "tick" : 46439,
      "timeSeconds" : 100.08397832916667,
      "channel" : 7,
      "controller" : 10,
      "value" : 10
    }, {
      "type" : "control_change",
      "tick" : 46445,
      "timeSeconds" : 100.09690935416667,
      "channel" : 7,
      "controller" : 10,
      "value" : 11
    }, {
      "type" : "note",
      "tick" : 46320,
      "timeSeconds" : 99.827513,
      "channel" : 7,
      "noteNumber" : 72,
      "noteName" : "C5",
      "velocity" : 127,
      "durationTicks" : 136,
      "durationSeconds" : 0.29310323333334054
    }, {
      "type" : "note",
      "tick" : 46321,
      "timeSeconds" : 99.82966817083333,
      "channel" : 7,
      "noteNumber" : 76,
      "noteName" : "E5",
      "velocity" : 108,
      "durationTicks" : 143,
      "durationSeconds" : 0.30818942916667424
    }, {
      "type" : "note",
      "tick" : 46319,
      "timeSeconds" : 99.82535782916666,
      "channel" : 7,
      "noteNumber" : 65,
      "noteName" : "F4",
      "velocity" : 113,
      "durationTicks" : 151,
      "durationSeconds" : 0.32543079583334134
    }, {
      "type" : "note",
      "tick" : 46457,
      "timeSeconds" : 100.12277140416667,
      "channel" : 7,
      "noteNumber" : 62,
      "noteName" : "D4",
      "velocity" : 91,
      "durationTicks" : 36,
      "durationSeconds" : 0.07758615000000191
    }, {
      "type" : "control_change",
      "tick" : 46584,
      "timeSeconds" : 100.3964781,
      "channel" : 7,
      "controller" : 10,
      "value" : 44
    }, {
      "type" : "control_change",
      "tick" : 46606,
      "timeSeconds" : 100.44389185833333,
      "channel" : 7,
      "controller" : 10,
      "value" : 45
    }, {
      "type" : "control_change",
      "tick" : 46612,
      "timeSeconds" : 100.45682288333333,
      "channel" : 7,
      "controller" : 10,
      "value" : 47
    }, {
      "type" : "control_change",
      "tick" : 46668,
      "timeSeconds" : 100.57751245,
      "channel" : 7,
      "controller" : 10,
      "value" : 83
    }, {
      "type" : "note",
      "tick" : 46673,
      "timeSeconds" : 100.58828830416667,
      "channel" : 7,
      "noteNumber" : 70,
      "noteName" : "A#4",
      "velocity" : 91,
      "durationTicks" : 24,
      "durationSeconds" : 0.05172410000000127
    }, {
      "type" : "note",
      "tick" : 46675,
      "timeSeconds" : 100.59259864583333,
      "channel" : 7,
      "noteNumber" : 77,
      "noteName" : "F5",
      "velocity" : 108,
      "durationTicks" : 25,
      "durationSeconds" : 0.05387927083333466
    }, {
      "type" : "note",
      "tick" : 46678,
      "timeSeconds" : 100.59906415833333,
      "channel" : 7,
      "noteNumber" : 66,
      "noteName" : "F#4",
      "velocity" : 73,
      "durationTicks" : 24,
      "durationSeconds" : 0.05172410000000127
    }, {
      "type" : "note",
      "tick" : 46676,
      "timeSeconds" : 100.59475381666667,
      "channel" : 7,
      "noteNumber" : 54,
      "noteName" : "F#3",
      "velocity" : 63,
      "durationTicks" : 36,
      "durationSeconds" : 0.07758615000000191
    }, {
      "type" : "control_change",
      "tick" : 46787,
      "timeSeconds" : 100.83397777916667,
      "channel" : 7,
      "controller" : 10,
      "value" : 119
    }, {
      "type" : "note",
      "tick" : 46805,
      "timeSeconds" : 100.87277085416666,
      "channel" : 7,
      "noteNumber" : 77,
      "noteName" : "F5",
      "velocity" : 104,
      "durationTicks" : 40,
      "durationSeconds" : 0.08620683333333545
    }, {
      "type" : "note",
      "tick" : 46806,
      "timeSeconds" : 100.874926025,
      "channel" : 7,
      "noteNumber" : 54,
      "noteName" : "F#3",
      "velocity" : 55,
      "durationTicks" : 44,
      "durationSeconds" : 0.094827516666669
    }, {
      "type" : "note",
      "tick" : 46800,
      "timeSeconds" : 100.861995,
      "channel" : 7,
      "noteNumber" : 70,
      "noteName" : "A#4",
      "velocity" : 95,
      "durationTicks" : 57,
      "durationSeconds" : 0.12284473750000302
    }, {
      "type" : "note",
      "tick" : 46802,
      "timeSeconds" : 100.86630534166666,
      "channel" : 7,
      "noteNumber" : 66,
      "noteName" : "F#4",
      "velocity" : 83,
      "durationTicks" : 62,
      "durationSeconds" : 0.13362059166666995
    }, {
      "type" : "control_change",
      "tick" : 46883,
      "timeSeconds" : 101.04087417916666,
      "channel" : 7,
      "controller" : 10,
      "value" : 52
    }, {
      "type" : "note",
      "tick" : 46936,
      "timeSeconds" : 101.15509823333333,
      "channel" : 7,
      "noteNumber" : 65,
      "noteName" : "F4",
      "velocity" : 46,
      "durationTicks" : 18,
      "durationSeconds" : 0.038793075000000954
    }, {
      "type" : "control_change",
      "tick" : 47025,
      "timeSeconds" : 101.3469084375,
      "channel" : 7,
      "controller" : 10,
      "value" : 7
    }, {
      "type" : "note",
      "tick" : 47040,
      "timeSeconds" : 101.379236,
      "channel" : 7,
      "noteNumber" : 70,
      "noteName" : "A#4",
      "velocity" : 87,
      "durationTicks" : 113,
      "durationSeconds" : 0.24353430416665844
    }, {
      "type" : "control_change",
      "tick" : 47154,
      "timeSeconds" : 101.624925475,
      "channel" : 7,
      "controller" : 10,
      "value" : 34
    }, {
      "type" : "note",
      "tick" : 47044,
      "timeSeconds" : 101.38785668333334,
      "channel" : 7,
      "noteNumber" : 65,
      "noteName" : "F4",
      "velocity" : 94,
      "durationTicks" : 114,
      "durationSeconds" : 0.24568947499999183
    }, {
      "type" : "note",
      "tick" : 47042,
      "timeSeconds" : 101.38354634166667,
      "channel" : 7,
      "noteNumber" : 74,
      "noteName" : "D5",
      "velocity" : 86,
      "durationTicks" : 118,
      "durationSeconds" : 0.2543101583333254
    }, {
      "type" : "control_change",
      "tick" : 47160,
      "timeSeconds" : 101.6378565,
      "channel" : 7,
      "controller" : 10,
      "value" : 35
    }, {
      "type" : "note",
      "tick" : 47219,
      "timeSeconds" : 101.76501157916667,
      "channel" : 7,
      "noteNumber" : 70,
      "noteName" : "A#4",
      "velocity" : 104,
      "durationTicks" : 8,
      "durationSeconds" : 0.01724136666666709
    }, {
      "type" : "note",
      "tick" : 47217,
      "timeSeconds" : 101.7607012375,
      "channel" : 7,
      "noteNumber" : 74,
      "noteName" : "D5",
      "velocity" : 113,
      "durationTicks" : 16,
      "durationSeconds" : 0.03448273333333418
    }, {
      "type" : "note",
      "tick" : 47216,
      "timeSeconds" : 101.75854606666667,
      "channel" : 7,
      "noteNumber" : 65,
      "noteName" : "F4",
      "velocity" : 101,
      "durationTicks" : 17,
      "durationSeconds" : 0.03663790416666757
    }, {
      "type" : "control_change",
      "tick" : 47259,
      "timeSeconds" : 101.8512184125,
      "channel" : 7,
      "controller" : 10,
      "value" : 53
    }, {
      "type" : "note",
      "tick" : 47275,
      "timeSeconds" : 101.88570114583334,
      "channel" : 7,
      "noteNumber" : 55,
      "noteName" : "G3",
      "velocity" : 91,
      "durationTicks" : 40,
      "durationSeconds" : 0.08620683333333545
    }, {
      "type" : "note",
      "tick" : 47277,
      "timeSeconds" : 101.8900114875,
      "channel" : 7,
      "noteNumber" : 62,
      "noteName" : "D4",
      "velocity" : 94,
      "durationTicks" : 41,
      "durationSeconds" : 0.08836200416666884
    }, {
      "type" : "control_change",
      "tick" : 47374,
      "timeSeconds" : 102.09906305833333,
      "channel" : 7,
      "controller" : 10,
      "value" : 68
    }, {
      "type" : "note",
      "tick" : 47395,
      "timeSeconds" : 102.14432164583333,
      "channel" : 7,
      "noteNumber" : 70,
      "noteName" : "A#4",
      "velocity" : 76,
      "durationTicks" : 15,
      "durationSeconds" : 0.032327562500000795
    }, {
      "type" : "note",
      "tick" : 47394,
      "timeSeconds" : 102.142166475,
      "channel" : 7,
      "noteNumber" : 74,
      "noteName" : "D5",
      "velocity" : 77,
      "durationTicks" : 26,
      "durationSeconds" : 0.056034441666668044
    }, {
      "type" : "note",
      "tick" : 47393,
      "timeSeconds" : 102.14001130416666,
      "channel" : 7,
      "noteNumber" : 65,
      "noteName" : "F4",
      "velocity" : 79,
      "durationTicks" : 32,
      "durationSeconds" : 0.06896546666666836
    }, {
      "type" : "control_change",
      "tick" : 47498,
      "timeSeconds" : 102.36630424166667,
      "channel" : 7,
      "controller" : 10,
      "value" : 107
    }, {
      "type" : "control_change",
      "tick" : 47525,
      "timeSeconds" : 102.42449385416667,
      "channel" : 7,
      "controller" : 10,
      "value" : 109
    }, {
      "type" : "note",
      "tick" : 47516,
      "timeSeconds" : 102.40509731666667,
      "channel" : 7,
      "noteNumber" : 60,
      "noteName" : "C4",
      "velocity" : 70,
      "durationTicks" : 24,
      "durationSeconds" : 0.05172410000000127
    }, {
      "type" : "note",
      "tick" : 47574,
      "timeSeconds" : 102.530097225,
      "channel" : 7,
      "noteNumber" : 70,
      "noteName" : "A#4",
      "velocity" : 104,
      "durationTicks" : 16,
      "durationSeconds" : 0.03448273333333418
    }, {
      "type" : "note",
      "tick" : 47576,
      "timeSeconds" : 102.53440756666667,
      "channel" : 7,
      "noteNumber" : 67,
      "noteName" : "G4",
      "velocity" : 108,
      "durationTicks" : 15,
      "durationSeconds" : 0.032327562500000795
    }, {
      "type" : "note",
      "tick" : 47577,
      "timeSeconds" : 102.5365627375,
      "channel" : 7,
      "noteNumber" : 76,
      "noteName" : "E5",
      "velocity" : 67,
      "durationTicks" : 23,
      "durationSeconds" : 0.049568929166653675
    }, {
      "type" : "control_change",
      "tick" : 47641,
      "timeSeconds" : 102.67449367083333,
      "channel" : 7,
      "controller" : 10,
      "value" : 120
    }, {
      "type" : "note",
      "tick" : 47702,
      "timeSeconds" : 102.80595909166667,
      "channel" : 7,
      "noteNumber" : 61,
      "noteName" : "C#4",
      "velocity" : 61,
      "durationTicks" : 47,
      "durationSeconds" : 0.10129302916666916
    }, {
      "type" : "control_change",
      "tick" : 47750,
      "timeSeconds" : 102.90940729166667,
      "channel" : 7,
      "controller" : 10,
      "value" : 60
    }, {
      "type" : "control_change",
      "tick" : 47869,
      "timeSeconds" : 103.16587262083333,
      "channel" : 7,
      "controller" : 10,
      "value" : 22
    }, {
      "type" : "note",
      "tick" : 47760,
      "timeSeconds" : 102.930959,
      "channel" : 7,
      "noteNumber" : 70,
      "noteName" : "A#4",
      "velocity" : 95,
      "durationTicks" : 138,
      "durationSeconds" : 0.2974135749999931
    }, {
      "type" : "note",
      "tick" : 47764,
      "timeSeconds" : 102.93957968333333,
      "channel" : 7,
      "noteNumber" : 67,
      "noteName" : "G4",
      "velocity" : 104,
      "durationTicks" : 146,
      "durationSeconds" : 0.3146549416666602
    }, {
      "type" : "note",
      "tick" : 47767,
      "timeSeconds" : 102.94604519583334,
      "channel" : 7,
      "noteNumber" : 76,
      "noteName" : "E5",
      "velocity" : 75,
      "durationTicks" : 144,
      "durationSeconds" : 0.3103445999999934
    }, {
      "type" : "note",
      "tick" : 47895,
      "timeSeconds" : 103.2219070625,
      "channel" : 7,
      "noteNumber" : 61,
      "noteName" : "C#4",
      "velocity" : 53,
      "durationTicks" : 70,
      "durationSeconds" : 0.15086195833333704
    }, {
      "type" : "control_change",
      "tick" : 47990,
      "timeSeconds" : 103.42664829166667,
      "channel" : 7,
      "controller" : 10,
      "value" : 6
    }, {
      "type" : "note",
      "tick" : 47999,
      "timeSeconds" : 103.44604482916667,
      "channel" : 7,
      "noteNumber" : 72,
      "noteName" : "C5",
      "velocity" : 86,
      "durationTicks" : 22,
      "durationSeconds" : 0.0474137583333345
    }, {
      "type" : "note",
      "tick" : 47998,
      "timeSeconds" : 103.44388965833333,
      "channel" : 7,
      "noteNumber" : 65,
      "noteName" : "F4",
      "velocity" : 73,
      "durationTicks" : 28,
      "durationSeconds" : 0.06034478333333482
    }, {
      "type" : "note",
      "tick" : 48055,
      "timeSeconds" : 103.56673439583334,
      "channel" : 7,
      "noteNumber" : 72,
      "noteName" : "C5",
      "velocity" : 108,
      "durationTicks" : 22,
      "durationSeconds" : 0.0474137583333345
    }, {
      "type" : "note",
      "tick" : 48054,
      "timeSeconds" : 103.564579225,
      "channel" : 7,
      "noteNumber" : 76,
      "noteName" : "E5",
      "velocity" : 86,
      "durationTicks" : 25,
      "durationSeconds" : 0.05387927083333466
    }, {
      "type" : "note",
      "tick" : 48050,
      "timeSeconds" : 103.55595854166667,
      "channel" : 7,
      "noteNumber" : 65,
      "noteName" : "F4",
      "velocity" : 88,
      "durationTicks" : 32,
      "durationSeconds" : 0.06896546666666836
    }, {
      "type" : "control_change",
      "tick" : 48113,
      "timeSeconds" : 103.69173430416667,
      "channel" : 7,
      "controller" : 10,
      "value" : 34
    }, {
      "type" : "note",
      "tick" : 48175,
      "timeSeconds" : 103.82535489583333,
      "channel" : 7,
      "noteNumber" : 72,
      "noteName" : "C5",
      "velocity" : 127,
      "durationTicks" : 16,
      "durationSeconds" : 0.03448273333333418
    }, {
      "type" : "note",
      "tick" : 48174,
      "timeSeconds" : 103.823199725,
      "channel" : 7,
      "noteNumber" : 65,
      "noteName" : "F4",
      "velocity" : 113,
      "durationTicks" : 22,
      "durationSeconds" : 0.0474137583333345
    }, {
      "type" : "note",
      "tick" : 48176,
      "timeSeconds" : 103.82751006666666,
      "channel" : 7,
      "noteNumber" : 76,
      "noteName" : "E5",
      "velocity" : 97,
      "durationTicks" : 22,
      "durationSeconds" : 0.0474137583333345
    }, {
      "type" : "control_change",
      "tick" : 48209,
      "timeSeconds" : 103.89863070416666,
      "channel" : 7,
      "controller" : 10,
      "value" : 76
    }, {
      "type" : "note",
      "tick" : 48238,
      "timeSeconds" : 103.96113065833333,
      "channel" : 7,
      "noteNumber" : 62,
      "noteName" : "D4",
      "velocity" : 63,
      "durationTicks" : 70,
      "durationSeconds" : 0.15086195833333704
    }, {
      "type" : "control_change",
      "tick" : 48346,
      "timeSeconds" : 104.19388910833334,
      "channel" : 7,
      "controller" : 10,
      "value" : 106
    }, {
      "type" : "note",
      "tick" : 48362,
      "timeSeconds" : 104.22837184166667,
      "channel" : 7,
      "noteNumber" : 62,
      "noteName" : "D4",
      "velocity" : 60,
      "durationTicks" : 107,
      "durationSeconds" : 0.23060327916665813
    }, {
      "type" : "control_change",
      "tick" : 48478,
      "timeSeconds" : 104.47837165833333,
      "channel" : 7,
      "controller" : 10,
      "value" : 125
    }, {
      "type" : "control_change",
      "tick" : 48572,
      "timeSeconds" : 104.68095771666667,
      "channel" : 7,
      "controller" : 10,
      "value" : 72
    }, {
      "type" : "note",
      "tick" : 48486,
      "timeSeconds" : 104.495613025,
      "channel" : 7,
      "noteNumber" : 79,
      "noteName" : "G5",
      "velocity" : 77,
      "durationTicks" : 120,
      "durationSeconds" : 0.25862050000000636
    }, {
      "type" : "note",
      "tick" : 48482,
      "timeSeconds" : 104.48699234166666,
      "channel" : 7,
      "noteNumber" : 75,
      "noteName" : "D#5",
      "velocity" : 65,
      "durationTicks" : 129,
      "durationSeconds" : 0.27801703750000684
    }, {
      "type" : "note",
      "tick" : 48488,
      "timeSeconds" : 104.49992336666666,
      "channel" : 7,
      "noteNumber" : 53,
      "noteName" : "F3",
      "velocity" : 81,
      "durationTicks" : 125,
      "durationSeconds" : 0.2693963541666733
    }, {
      "type" : "note",
      "tick" : 48485,
      "timeSeconds" : 104.49345785416666,
      "channel" : 7,
      "noteNumber" : 69,
      "noteName" : "A4",
      "velocity" : 77,
      "durationTicks" : 132,
      "durationSeconds" : 0.284482550000007
    }, {
      "type" : "note",
      "tick" : 48662,
      "timeSeconds" : 104.87492309166667,
      "channel" : 7,
      "noteNumber" : 75,
      "noteName" : "D#5",
      "velocity" : 104,
      "durationTicks" : 15,
      "durationSeconds" : 0.032327562499986584
    }, {
      "type" : "note",
      "tick" : 48660,
      "timeSeconds" : 104.87061275,
      "channel" : 7,
      "noteNumber" : 69,
      "noteName" : "A4",
      "velocity" : 101,
      "durationTicks" : 20,
      "durationSeconds" : 0.043103416666653516
    }, {
      "type" : "note",
      "tick" : 48661,
      "timeSeconds" : 104.87276792083334,
      "channel" : 7,
      "noteNumber" : 79,
      "noteName" : "G5",
      "velocity" : 81,
      "durationTicks" : 21,
      "durationSeconds" : 0.0452585874999869
    }, {
      "type" : "control_change",
      "tick" : 48691,
      "timeSeconds" : 104.93742304583333,
      "channel" : 7,
      "controller" : 10,
      "value" : 37
    }, {
      "type" : "note",
      "tick" : 48712,
      "timeSeconds" : 104.98268163333333,
      "channel" : 7,
      "noteNumber" : 53,
      "noteName" : "F3",
      "velocity" : 77,
      "durationTicks" : 74,
      "durationSeconds" : 0.1594826416666706
    }, {
      "type" : "control_change",
      "tick" : 48804,
      "timeSeconds" : 105.18095735,
      "channel" : 7,
      "controller" : 10,
      "value" : 2
    }, {
      "type" : "note",
      "tick" : 48842,
      "timeSeconds" : 105.26285384166667,
      "channel" : 7,
      "noteNumber" : 75,
      "noteName" : "D#5",
      "velocity" : 91,
      "durationTicks" : 12,
      "durationSeconds" : 0.025862050000000636
    }, {
      "type" : "note",
      "tick" : 48840,
      "timeSeconds" : 105.2585435,
      "channel" : 7,
      "noteNumber" : 69,
      "noteName" : "A4",
      "velocity" : 94,
      "durationTicks" : 20,
      "durationSeconds" : 0.04310341666666773
    }, {
      "type" : "note",
      "tick" : 48843,
      "timeSeconds" : 105.2650090125,
      "channel" : 7,
      "noteNumber" : 79,
      "noteName" : "G5",
      "velocity" : 79,
      "durationTicks" : 18,
      "durationSeconds" : 0.038793075000000954
    }, {
      "type" : "note",
      "tick" : 48950,
      "timeSeconds" : 105.49561229166666,
      "channel" : 7,
      "noteNumber" : 58,
      "noteName" : "A#3",
      "velocity" : 55,
      "durationTicks" : 10,
      "durationSeconds" : 0.021551708333333863
    } ]
  }, {
    "index" : 9,
    "name" : "",
    "programChanges" : [ {
      "tick" : 2,
      "channel" : 8,
      "program" : 27
    } ],
    "events" : [ {
      "type" : "meta",
      "tick" : 0,
      "timeSeconds" : 0.0,
      "text" : "track_name: "
    }, {
      "type" : "control_change",
      "tick" : 0,
      "timeSeconds" : 0.0,
      "channel" : 8,
      "controller" : 7,
      "value" : 64
    }, {
      "type" : "control_change",
      "tick" : 0,
      "timeSeconds" : 0.0,
      "channel" : 8,
      "controller" : 10,
      "value" : 64
    }, {
      "type" : "control_change",
      "tick" : 0,
      "timeSeconds" : 0.0,
      "channel" : 8,
      "controller" : 0,
      "value" : 0
    }, {
      "type" : "control_change",
      "tick" : 0,
      "timeSeconds" : 0.0,
      "channel" : 8,
      "controller" : 11,
      "value" : 127
    }, {
      "type" : "control_change",
      "tick" : 0,
      "timeSeconds" : 0.0,
      "channel" : 8,
      "controller" : 121,
      "value" : 0
    }, {
      "type" : "control_change",
      "tick" : 0,
      "timeSeconds" : 0.0,
      "channel" : 8,
      "controller" : 94,
      "value" : 0
    }, {
      "type" : "control_change",
      "tick" : 0,
      "timeSeconds" : 0.0,
      "channel" : 8,
      "controller" : 93,
      "value" : 32
    }, {
      "type" : "control_change",
      "tick" : 0,
      "timeSeconds" : 0.0,
      "channel" : 8,
      "controller" : 1,
      "value" : 0
    }, {
      "type" : "control_change",
      "tick" : 0,
      "timeSeconds" : 0.0,
      "channel" : 8,
      "controller" : 91,
      "value" : 127
    }, {
      "type" : "control_change",
      "tick" : 2,
      "timeSeconds" : 0.004310341666666667,
      "channel" : 8,
      "controller" : 32,
      "value" : 0
    }, {
      "type" : "control_change",
      "tick" : 2,
      "timeSeconds" : 0.004310341666666667,
      "channel" : 8,
      "controller" : 0,
      "value" : 0
    }, {
      "type" : "control_change",
      "tick" : 2,
      "timeSeconds" : 0.004310341666666667,
      "channel" : 8,
      "controller" : 32,
      "value" : 0
    }, {
      "type" : "control_change",
      "tick" : 37914,
      "timeSeconds" : 81.711146975,
      "channel" : 8,
      "controller" : 64,
      "value" : 127
    }, {
      "type" : "control_change",
      "tick" : 38401,
      "timeSeconds" : 82.76071517083334,
      "channel" : 8,
      "controller" : 64,
      "value" : 0
    }, {
      "type" : "control_change",
      "tick" : 46792,
      "timeSeconds" : 100.84475363333334,
      "channel" : 8,
      "controller" : 64,
      "value" : 127
    }, {
      "type" : "control_change",
      "tick" : 46962,
      "timeSeconds" : 101.211132675,
      "channel" : 8,
      "controller" : 64,
      "value" : 0
    }, {
      "type" : "control_change",
      "tick" : 47019,
      "timeSeconds" : 101.3339774125,
      "channel" : 8,
      "controller" : 64,
      "value" : 127
    }, {
      "type" : "note",
      "tick" : 47040,
      "timeSeconds" : 101.379236,
      "channel" : 8,
      "noteNumber" : 74,
      "noteName" : "D5",
      "velocity" : 94,
      "durationTicks" : 36,
      "durationSeconds" : 0.0775861499999877
    }, {
      "type" : "note",
      "tick" : 47100,
      "timeSeconds" : 101.50854625,
      "channel" : 8,
      "noteNumber" : 74,
      "noteName" : "D5",
      "velocity" : 97,
      "durationTicks" : 37,
      "durationSeconds" : 0.0797413208333353
    }, {
      "type" : "control_change",
      "tick" : 47197,
      "timeSeconds" : 101.71759782083333,
      "channel" : 8,
      "controller" : 64,
      "value" : 0
    }, {
      "type" : "control_change",
      "tick" : 47261,
      "timeSeconds" : 101.85552875416667,
      "channel" : 8,
      "controller" : 64,
      "value" : 127
    }, {
      "type" : "note",
      "tick" : 47280,
      "timeSeconds" : 101.896477,
      "channel" : 8,
      "noteNumber" : 74,
      "noteName" : "D5",
      "velocity" : 101,
      "durationTicks" : 27,
      "durationSeconds" : 0.05818961250000143
    }, {
      "type" : "note",
      "tick" : 47340,
      "timeSeconds" : 102.02578725,
      "channel" : 8,
      "noteNumber" : 74,
      "noteName" : "D5",
      "velocity" : 88,
      "durationTicks" : 43,
      "durationSeconds" : 0.09267234583333561
    }, {
      "type" : "control_change",
      "tick" : 47439,
      "timeSeconds" : 102.2391491625,
      "channel" : 8,
      "controller" : 64,
      "value" : 0
    }, {
      "type" : "control_change",
      "tick" : 47517,
      "timeSeconds" : 102.4072524875,
      "channel" : 8,
      "controller" : 64,
      "value" : 127
    }, {
      "type" : "note",
      "tick" : 47520,
      "timeSeconds" : 102.413718,
      "channel" : 8,
      "noteNumber" : 74,
      "noteName" : "D5",
      "velocity" : 101,
      "durationTicks" : 31,
      "durationSeconds" : 0.06681029583333498
    }, {
      "type" : "note",
      "tick" : 47580,
      "timeSeconds" : 102.54302825,
      "channel" : 8,
      "noteNumber" : 74,
      "noteName" : "D5",
      "velocity" : 86,
      "durationTicks" : 34,
      "durationSeconds" : 0.07327580833332092
    }, {
      "type" : "control_change",
      "tick" : 47660,
      "timeSeconds" : 102.71544191666666,
      "channel" : 8,
      "controller" : 64,
      "value" : 0
    }, {
      "type" : "control_change",
      "tick" : 47745,
      "timeSeconds" : 102.8986314375,
      "channel" : 8,
      "controller" : 64,
      "value" : 127
    }, {
      "type" : "note",
      "tick" : 47760,
      "timeSeconds" : 102.930959,
      "channel" : 8,
      "noteNumber" : 74,
      "noteName" : "D5",
      "velocity" : 104,
      "durationTicks" : 26,
      "durationSeconds" : 0.056034441666668044
    }, {
      "type" : "note",
      "tick" : 47820,
      "timeSeconds" : 103.06026925,
      "channel" : 8,
      "noteNumber" : 74,
      "noteName" : "D5",
      "velocity" : 88,
      "durationTicks" : 35,
      "durationSeconds" : 0.07543097916666852
    }, {
      "type" : "control_change",
      "tick" : 47924,
      "timeSeconds" : 103.28440701666666,
      "channel" : 8,
      "controller" : 64,
      "value" : 0
    }, {
      "type" : "note",
      "tick" : 48000,
      "timeSeconds" : 103.4482,
      "channel" : 8,
      "noteNumber" : 74,
      "noteName" : "D5",
      "velocity" : 88,
      "durationTicks" : 21,
      "durationSeconds" : 0.04525858750000111
    }, {
      "type" : "control_change",
      "tick" : 48024,
      "timeSeconds" : 103.4999241,
      "channel" : 8,
      "controller" : 64,
      "value" : 127
    }, {
      "type" : "note",
      "tick" : 48060,
      "timeSeconds" : 103.57751025,
      "channel" : 8,
      "noteNumber" : 74,
      "noteName" : "D5",
      "velocity" : 70,
      "durationTicks" : 39,
      "durationSeconds" : 0.08405166250000207
    }, {
      "type" : "control_change",
      "tick" : 48159,
      "timeSeconds" : 103.7908721625,
      "channel" : 8,
      "controller" : 64,
      "value" : 0
    }, {
      "type" : "control_change",
      "tick" : 48251,
      "timeSeconds" : 103.98914787916667,
      "channel" : 8,
      "controller" : 64,
      "value" : 127
    }, {
      "type" : "note",
      "tick" : 48240,
      "timeSeconds" : 103.965441,
      "channel" : 8,
      "noteNumber" : 74,
      "noteName" : "D5",
      "velocity" : 108,
      "durationTicks" : 26,
      "durationSeconds" : 0.056034441666668044
    }, {
      "type" : "note",
      "tick" : 48300,
      "timeSeconds" : 104.09475125,
      "channel" : 8,
      "noteNumber" : 74,
      "noteName" : "D5",
      "velocity" : 71,
      "durationTicks" : 37,
      "durationSeconds" : 0.0797413208333353
    }, {
      "type" : "control_change",
      "tick" : 48393,
      "timeSeconds" : 104.2951821375,
      "channel" : 8,
      "controller" : 64,
      "value" : 0
    }, {
      "type" : "control_change",
      "tick" : 48479,
      "timeSeconds" : 104.48052682916666,
      "channel" : 8,
      "controller" : 64,
      "value" : 127
    }, {
      "type" : "note",
      "tick" : 48480,
      "timeSeconds" : 104.482682,
      "channel" : 8,
      "noteNumber" : 74,
      "noteName" : "D5",
      "velocity" : 122,
      "durationTicks" : 32,
      "durationSeconds" : 0.06896546666666836
    }, {
      "type" : "note",
      "tick" : 48540,
      "timeSeconds" : 104.61199225,
      "channel" : 8,
      "noteNumber" : 74,
      "noteName" : "D5",
      "velocity" : 83,
      "durationTicks" : 30,
      "durationSeconds" : 0.06465512500000159
    }, {
      "type" : "control_change",
      "tick" : 48602,
      "timeSeconds" : 104.74561284166667,
      "channel" : 8,
      "controller" : 64,
      "value" : 0
    }, {
      "type" : "note",
      "tick" : 48600,
      "timeSeconds" : 104.7413025,
      "channel" : 8,
      "noteNumber" : 74,
      "noteName" : "D5",
      "velocity" : 86,
      "durationTicks" : 34,
      "durationSeconds" : 0.07327580833333514
    }, {
      "type" : "note",
      "tick" : 48660,
      "timeSeconds" : 104.87061275,
      "channel" : 8,
      "noteNumber" : 74,
      "noteName" : "D5",
      "velocity" : 104,
      "durationTicks" : 30,
      "durationSeconds" : 0.06465512499998738
    }, {
      "type" : "control_change",
      "tick" : 48730,
      "timeSeconds" : 105.02147470833333,
      "channel" : 8,
      "controller" : 64,
      "value" : 127
    }, {
      "type" : "note",
      "tick" : 48720,
      "timeSeconds" : 104.999923,
      "channel" : 8,
      "noteNumber" : 74,
      "noteName" : "D5",
      "velocity" : 117,
      "durationTicks" : 29,
      "durationSeconds" : 0.062499954166668203
    }, {
      "type" : "note",
      "tick" : 48780,
      "timeSeconds" : 105.12923325,
      "channel" : 8,
      "noteNumber" : 74,
      "noteName" : "D5",
      "velocity" : 73,
      "durationTicks" : 38,
      "durationSeconds" : 0.08189649166666868
    }, {
      "type" : "control_change",
      "tick" : 48851,
      "timeSeconds" : 105.28225037916667,
      "channel" : 8,
      "controller" : 64,
      "value" : 0
    }, {
      "type" : "note",
      "tick" : 48840,
      "timeSeconds" : 105.2585435,
      "channel" : 8,
      "noteNumber" : 74,
      "noteName" : "D5",
      "velocity" : 64,
      "durationTicks" : 43,
      "durationSeconds" : 0.09267234583333561
    }, {
      "type" : "note",
      "tick" : 48900,
      "timeSeconds" : 105.38785375,
      "channel" : 8,
      "noteNumber" : 74,
      "noteName" : "D5",
      "velocity" : 113,
      "durationTicks" : 33,
      "durationSeconds" : 0.07112063750000175
    }, {
      "type" : "control_change",
      "tick" : 48958,
      "timeSeconds" : 105.51285365833333,
      "channel" : 8,
      "controller" : 64,
      "value" : 127
    } ]
  }, {
    "index" : 10,
    "name" : "",
    "programChanges" : [ {
      "tick" : 2,
      "channel" : 9,
      "program" : 0
    } ],
    "events" : [ {
      "type" : "meta",
      "tick" : 0,
      "timeSeconds" : 0.0,
      "text" : "track_name: "
    }, {
      "type" : "control_change",
      "tick" : 0,
      "timeSeconds" : 0.0,
      "channel" : 9,
      "controller" : 7,
      "value" : 85
    }, {
      "type" : "control_change",
      "tick" : 0,
      "timeSeconds" : 0.0,
      "channel" : 9,
      "controller" : 10,
      "value" : 64
    }, {
      "type" : "control_change",
      "tick" : 0,
      "timeSeconds" : 0.0,
      "channel" : 9,
      "controller" : 0,
      "value" : 0
    }, {
      "type" : "control_change",
      "tick" : 0,
      "timeSeconds" : 0.0,
      "channel" : 9,
      "controller" : 91,
      "value" : 127
    }, {
      "type" : "control_change",
      "tick" : 0,
      "timeSeconds" : 0.0,
      "channel" : 9,
      "controller" : 1,
      "value" : 0
    }, {
      "type" : "control_change",
      "tick" : 0,
      "timeSeconds" : 0.0,
      "channel" : 9,
      "controller" : 94,
      "value" : 0
    }, {
      "type" : "control_change",
      "tick" : 0,
      "timeSeconds" : 0.0,
      "channel" : 9,
      "controller" : 93,
      "value" : 0
    }, {
      "type" : "control_change",
      "tick" : 0,
      "timeSeconds" : 0.0,
      "channel" : 9,
      "controller" : 11,
      "value" : 127
    }, {
      "type" : "control_change",
      "tick" : 0,
      "timeSeconds" : 0.0,
      "channel" : 9,
      "controller" : 121,
      "value" : 0
    }, {
      "type" : "control_change",
      "tick" : 2,
      "timeSeconds" : 0.004310341666666667,
      "channel" : 9,
      "controller" : 32,
      "value" : 0
    }, {
      "type" : "control_change",
      "tick" : 2,
      "timeSeconds" : 0.004310341666666667,
      "channel" : 9,
      "controller" : 0,
      "value" : 0
    }, {
      "type" : "control_change",
      "tick" : 2,
      "timeSeconds" : 0.004310341666666667,
      "channel" : 9,
      "controller" : 32,
      "value" : 0
    }, {
      "type" : "note",
      "tick" : 0,
      "timeSeconds" : 0.0,
      "channel" : 9,
      "noteNumber" : 44,
      "noteName" : "G#2",
      "velocity" : 104,
      "durationTicks" : 32,
      "durationSeconds" : 0.06896546666666667
    }, {
      "type" : "note",
      "tick" : 240,
      "timeSeconds" : 0.517241,
      "channel" : 9,
      "noteNumber" : 44,
      "noteName" : "G#2",
      "velocity" : 100,
      "durationTicks" : 29,
      "durationSeconds" : 0.06249995416666676
    }, {
      "type" : "note",
      "tick" : 480,
      "timeSeconds" : 1.034482,
      "channel" : 9,
      "noteNumber" : 44,
      "noteName" : "G#2",
      "velocity" : 110,
      "durationTicks" : 32,
      "durationSeconds" : 0.06896546666666681
    }, {
      "type" : "note",
      "tick" : 660,
      "timeSeconds" : 1.42241275,
      "channel" : 9,
      "noteNumber" : 40,
      "noteName" : "E2",
      "velocity" : 57,
      "durationTicks" : 44,
      "durationSeconds" : 0.09482751666666678
    }, {
      "type" : "note",
      "tick" : 720,
      "timeSeconds" : 1.551723,
      "channel" : 9,
      "noteNumber" : 44,
      "noteName" : "G#2",
      "velocity" : 110,
      "durationTicks" : 32,
      "durationSeconds" : 0.06896546666666681
    }, {
      "type" : "note",
      "tick" : 720,
      "timeSeconds" : 1.551723,
      "channel" : 9,
      "noteNumber" : 40,
      "noteName" : "E2",
      "velocity" : 122,
      "durationTicks" : 38,
      "durationSeconds" : 0.08189649166666668
    }, {
      "type" : "note",
      "tick" : 780,
      "timeSeconds" : 1.68103325,
      "channel" : 9,
      "noteNumber" : 40,
      "noteName" : "E2",
      "velocity" : 113,
      "durationTicks" : 27,
      "durationSeconds" : 0.058189612499999877
    }, {
      "type" : "note",
      "tick" : 900,
      "timeSeconds" : 1.93965375,
      "channel" : 9,
      "noteNumber" : 40,
      "noteName" : "E2",
      "velocity" : 122,
      "durationTicks" : 16,
      "durationSeconds" : 0.03448273333333329
    }, {
      "type" : "note",
      "tick" : 960,
      "timeSeconds" : 2.068964,
      "channel" : 9,
      "noteNumber" : 42,
      "noteName" : "F#2",
      "velocity" : 73,
      "durationTicks" : 39,
      "durationSeconds" : 0.08405166250000029
    }, {
      "type" : "note",
      "tick" : 960,
      "timeSeconds" : 2.068964,
      "channel" : 9,
      "noteNumber" : 49,
      "noteName" : "C#3",
      "velocity" : 95,
      "durationTicks" : 39,
      "durationSeconds" : 0.08405166250000029
    }, {
      "type" : "note",
      "tick" : 960,
      "timeSeconds" : 2.068964,
      "channel" : 9,
      "noteNumber" : 36,
      "noteName" : "C2",
      "velocity" : 122,
      "durationTicks" : 53,
      "durationSeconds" : 0.11422405416666681
    }, {
      "type" : "note",
      "tick" : 1080,
      "timeSeconds" : 2.3275845,
      "channel" : 9,
      "noteNumber" : 42,
      "noteName" : "F#2",
      "velocity" : 44,
      "durationTicks" : 43,
      "durationSeconds" : 0.09267234583333339
    }, {
      "type" : "note",
      "tick" : 1200,
      "timeSeconds" : 2.586205,
      "channel" : 9,
      "noteNumber" : 42,
      "noteName" : "F#2",
      "velocity" : 104,
      "durationTicks" : 46,
      "durationSeconds" : 0.0991378583333331
    }, {
      "type" : "note",
      "tick" : 1320,
      "timeSeconds" : 2.8448255,
      "channel" : 9,
      "noteNumber" : 42,
      "noteName" : "F#2",
      "velocity" : 47,
      "durationTicks" : 45,
      "durationSeconds" : 0.09698268750000016
    }, {
      "type" : "note",
      "tick" : 1440,
      "timeSeconds" : 3.103446,
      "channel" : 9,
      "noteNumber" : 82,
      "noteName" : "A#5",
      "velocity" : 59,
      "durationTicks" : 35,
      "durationSeconds" : 0.07543097916666675
    }, {
      "type" : "note",
      "tick" : 1440,
      "timeSeconds" : 3.103446,
      "channel" : 9,
      "noteNumber" : 42,
      "noteName" : "F#2",
      "velocity" : 100,
      "durationTicks" : 45,
      "durationSeconds" : 0.09698268750000016
    }, {
      "type" : "note",
      "tick" : 1560,
      "timeSeconds" : 3.3620665,
      "channel" : 9,
      "noteNumber" : 42,
      "noteName" : "F#2",
      "velocity" : 36,
      "durationTicks" : 55,
      "durationSeconds" : 0.11853439583333314
    }, {
      "type" : "note",
      "tick" : 1680,
      "timeSeconds" : 3.620687,
      "channel" : 9,
      "noteNumber" : 42,
      "noteName" : "F#2",
      "velocity" : 104,
      "durationTicks" : 55,
      "durationSeconds" : 0.11853439583333314
    }, {
      "type" : "note",
      "tick" : 1800,
      "timeSeconds" : 3.8793075,
      "channel" : 9,
      "noteNumber" : 70,
      "noteName" : "A#4",
      "velocity" : 95,
      "durationTicks" : 29,
      "durationSeconds" : 0.06249995416666687
    }, {
      "type" : "note",
      "tick" : 1800,
      "timeSeconds" : 3.8793075,
      "channel" : 9,
      "noteNumber" : 42,
      "noteName" : "F#2",
      "velocity" : 36,
      "durationTicks" : 49,
      "durationSeconds" : 0.10560337083333327
    }, {
      "type" : "note",
      "tick" : 1920,
      "timeSeconds" : 4.137928,
      "channel" : 9,
      "noteNumber" : 36,
      "noteName" : "C2",
      "velocity" : 127,
      "durationTicks" : 50,
      "durationSeconds" : 0.10775854166666665
    }, {
      "type" : "note",
      "tick" : 1920,
      "timeSeconds" : 4.137928,
      "channel" : 9,
      "noteNumber" : 42,
      "noteName" : "F#2",
      "velocity" : 104,
      "durationTicks" : 54,
      "durationSeconds" : 0.1163792250000002
    }, {
      "type" : "note",
      "tick" : 2040,
      "timeSeconds" : 4.3965485,
      "channel" : 9,
      "noteNumber" : 42,
      "noteName" : "F#2",
      "velocity" : 35,
      "durationTicks" : 50,
      "durationSeconds" : 0.10775854166666665
    }, {
      "type" : "note",
      "tick" : 2160,
      "timeSeconds" : 4.655169,
      "channel" : 9,
      "noteNumber" : 42,
      "noteName" : "F#2",
      "velocity" : 104,
      "durationTicks" : 54,
      "durationSeconds" : 0.1163792250000002
    }, {
      "type" : "note",
      "tick" : 2280,
      "timeSeconds" : 4.9137895,
      "channel" : 9,
      "noteNumber" : 42,
      "noteName" : "F#2",
      "velocity" : 37,
      "durationTicks" : 35,
      "durationSeconds" : 0.07543097916666675
    }, {
      "type" : "note",
      "tick" : 2280,
      "timeSeconds" : 4.9137895,
      "channel" : 9,
      "noteNumber" : 70,
      "noteName" : "A#4",
      "velocity" : 36,
      "durationTicks" : 50,
      "durationSeconds" : 0.10775854166666665
    }, {
      "type" : "note",
      "tick" : 2400,
      "timeSeconds" : 5.17241,
      "channel" : 9,
      "noteNumber" : 82,
      "noteName" : "A#5",
      "velocity" : 71,
      "durationTicks" : 44,
      "durationSeconds" : 0.09482751666666633
    }, {
      "type" : "note",
      "tick" : 2400,
      "timeSeconds" : 5.17241,
      "channel" : 9,
      "noteNumber" : 42,
      "noteName" : "F#2",
      "velocity" : 110,
      "durationTicks" : 45,
      "durationSeconds" : 0.09698268749999972
    }, {
      "type" : "note",
      "tick" : 2400,
      "timeSeconds" : 5.17241,
      "channel" : 9,
      "noteNumber" : 37,
      "noteName" : "C#2",
      "velocity" : 104,
      "durationTicks" : 55,
      "durationSeconds" : 0.11853439583333358
    }, {
      "type" : "note",
      "tick" : 2520,
      "timeSeconds" : 5.4310305,
      "channel" : 9,
      "noteNumber" : 42,
      "noteName" : "F#2",
      "velocity" : 42,
      "durationTicks" : 51,
      "durationSeconds" : 0.10991371250000004
    }, {
      "type" : "note",
      "tick" : 2520,
      "timeSeconds" : 5.4310305,
      "channel" : 9,
      "noteNumber" : 37,
      "noteName" : "C#2",
      "velocity" : 61,
      "durationTicks" : 56,
      "durationSeconds" : 0.12068956666666608
    }, {
      "type" : "note",
      "tick" : 2640,
      "timeSeconds" : 5.689651,
      "channel" : 9,
      "noteNumber" : 70,
      "noteName" : "A#4",
      "velocity" : 34,
      "durationTicks" : 36,
      "durationSeconds" : 0.07758615000000013
    }, {
      "type" : "note",
      "tick" : 2640,
      "timeSeconds" : 5.689651,
      "channel" : 9,
      "noteNumber" : 42,
      "noteName" : "F#2",
      "velocity" : 104,
      "durationTicks" : 54,
      "durationSeconds" : 0.1163792250000002
    }, {
      "type" : "note",
      "tick" : 2760,
      "timeSeconds" : 5.9482715,
      "channel" : 9,
      "noteNumber" : 70,
      "noteName" : "A#4",
      "velocity" : 104,
      "durationTicks" : 47,
      "durationSeconds" : 0.10129302916666738
    }, {
      "type" : "note",
      "tick" : 2760,
      "timeSeconds" : 5.9482715,
      "channel" : 9,
      "noteNumber" : 42,
      "noteName" : "F#2",
      "velocity" : 47,
      "durationTicks" : 51,
      "durationSeconds" : 0.10991371250000004
    }, {
      "type" : "note",
      "tick" : 2880,
      "timeSeconds" : 6.206892,
      "channel" : 9,
      "noteNumber" : 46,
      "noteName" : "A#2",
      "velocity" : 100,
      "durationTicks" : 46,
      "durationSeconds" : 0.0991378583333331
    }, {
      "type" : "note",
      "tick" : 2880,
      "timeSeconds" : 6.206892,
      "channel" : 9,
      "noteNumber" : 36,
      "noteName" : "C2",
      "velocity" : 117,
      "durationTicks" : 69,
      "durationSeconds" : 0.1487067875000001
    }, {
      "type" : "note",
      "tick" : 3000,
      "timeSeconds" : 6.4655125,
      "channel" : 9,
      "noteNumber" : 70,
      "noteName" : "A#4",
      "velocity" : 31,
      "durationTicks" : 35,
      "durationSeconds" : 0.07543097916666675
    }, {
      "type" : "note",
      "tick" : 3000,
      "timeSeconds" : 6.4655125,
      "channel" : 9,
      "noteNumber" : 42,
      "noteName" : "F#2",
      "velocity" : 36,
      "durationTicks" : 52,
      "durationSeconds" : 0.11206888333333342
    }, {
      "type" : "note",
      "tick" : 3120,
      "timeSeconds" : 6.724133,
      "channel" : 9,
      "noteNumber" : 70,
      "noteName" : "A#4",
      "velocity" : 40,
      "durationTicks" : 33,
      "durationSeconds" : 0.07112063749999997
    }, {
      "type" : "note",
      "tick" : 3120,
      "timeSeconds" : 6.724133,
      "channel" : 9,
      "noteNumber" : 42,
      "noteName" : "F#2",
      "velocity" : 104,
      "durationTicks" : 61,
      "durationSeconds" : 0.131465420833333
    }, {
      "type" : "note",
      "tick" : 3240,
      "timeSeconds" : 6.9827535,
      "channel" : 9,
      "noteNumber" : 70,
      "noteName" : "A#4",
      "velocity" : 45,
      "durationTicks" : 43,
      "durationSeconds" : 0.09267234583333295
    }, {
      "type" : "note",
      "tick" : 3240,
      "timeSeconds" : 6.9827535,
      "channel" : 9,
      "noteNumber" : 42,
      "noteName" : "F#2",
      "velocity" : 45,
      "durationTicks" : 44,
      "durationSeconds" : 0.09482751666666633
    }, {
      "type" : "note",
      "tick" : 3360,
      "timeSeconds" : 7.241374,
      "channel" : 9,
      "noteNumber" : 82,
      "noteName" : "A#5",
      "velocity" : 53,
      "durationTicks" : 26,
      "durationSeconds" : 0.05603444166666627
    }, {
      "type" : "note",
      "tick" : 3360,
      "timeSeconds" : 7.241374,
      "channel" : 9,
      "noteNumber" : 42,
      "noteName" : "F#2",
      "velocity" : 104,
      "durationTicks" : 51,
      "durationSeconds" : 0.10991371249999915
    }, {
      "type" : "note",
      "tick" : 3480,
      "timeSeconds" : 7.4999945,
      "channel" : 9,
      "noteNumber" : 42,
      "noteName" : "F#2",
      "velocity" : 45,
      "durationTicks" : 46,
      "durationSeconds" : 0.099137858333334
    }, {
      "type" : "note",
      "tick" : 3600,
      "timeSeconds" : 7.758615,
      "channel" : 9,
      "noteNumber" : 42,
      "noteName" : "F#2",
      "velocity" : 100,
      "durationTicks" : 53,
      "durationSeconds" : 0.11422405416666681
    }, {
      "type" : "note",
      "tick" : 3720,
      "timeSeconds" : 8.0172355,
      "channel" : 9,
      "noteNumber" : 42,
      "noteName" : "F#2",
      "velocity" : 38,
      "durationTicks" : 50,
      "durationSeconds" : 0.10775854166666754
    }, {
      "type" : "note",
      "tick" : 3840,
      "timeSeconds" : 8.275856,
      "channel" : 9,
      "noteNumber" : 70,
      "noteName" : "A#4",
      "velocity" : 46,
      "durationTicks" : 37,
      "durationSeconds" : 0.07974132083333352
    }, {
      "type" : "note",
      "tick" : 3840,
      "timeSeconds" : 8.275856,
      "channel" : 9,
      "noteNumber" : 42,
      "noteName" : "F#2",
      "velocity" : 104,
      "durationTicks" : 52,
      "durationSeconds" : 0.11206888333333431
    }, {
      "type" : "note",
      "tick" : 3840,
      "timeSeconds" : 8.275856,
      "channel" : 9,
      "noteNumber" : 36,
      "noteName" : "C2",
      "velocity" : 127,
      "durationTicks" : 63,
      "durationSeconds" : 0.13577576250000156
    }, {
      "type" : "note",
      "tick" : 3960,
      "timeSeconds" : 8.5344765,
      "channel" : 9,
      "noteNumber" : 42,
      "noteName" : "F#2",
      "velocity" : 36,
      "durationTicks" : 40,
      "durationSeconds" : 0.08620683333333368
    }, {
      "type" : "note",
      "tick" : 4080,
      "timeSeconds" : 8.793097,
      "channel" : 9,
      "noteNumber" : 42,
      "noteName" : "F#2",
      "velocity" : 104,
      "durationTicks" : 53,
      "durationSeconds" : 0.1142240541666677
    }, {
      "type" : "note",
      "tick" : 4200,
      "timeSeconds" : 9.0517175,
      "channel" : 9,
      "noteNumber" : 70,
      "noteName" : "A#4",
      "velocity" : 41,
      "durationTicks" : 19,
      "durationSeconds" : 0.040948245833332564
    }, {
      "type" : "note",
      "tick" : 4200,
      "timeSeconds" : 9.0517175,
      "channel" : 9,
      "noteNumber" : 42,
      "noteName" : "F#2",
      "velocity" : 35,
      "durationTicks" : 41,
      "durationSeconds" : 0.08836200416666529
    }, {
      "type" : "note",
      "tick" : 4260,
      "timeSeconds" : 9.18102775,
      "channel" : 9,
      "noteNumber" : 70,
      "noteName" : "A#4",
      "velocity" : 61,
      "durationTicks" : 33,
      "durationSeconds" : 0.07112063749999997
    }, {
      "type" : "note",
      "tick" : 4320,
      "timeSeconds" : 9.310338,
      "channel" : 9,
      "noteNumber" : 42,
      "noteName" : "F#2",
      "velocity" : 104,
      "durationTicks" : 52,
      "durationSeconds" : 0.11206888333333431
    }, {
      "type" : "note",
      "tick" : 4320,
      "timeSeconds" : 9.310338,
      "channel" : 9,
      "noteNumber" : 37,
      "noteName" : "C#2",
      "velocity" : 127,
      "durationTicks" : 55,
      "durationSeconds" : 0.1185343958333327
    }, {
      "type" : "note",
      "tick" : 4440,
      "timeSeconds" : 9.5689585,
      "channel" : 9,
      "noteNumber" : 42,
      "noteName" : "F#2",
      "velocity" : 42,
      "durationTicks" : 28,
      "durationSeconds" : 0.06034478333333304
    }, {
      "type" : "note",
      "tick" : 4440,
      "timeSeconds" : 9.5689585,
      "channel" : 9,
      "noteNumber" : 69,
      "noteName" : "A4",
      "velocity" : 79,
      "durationTicks" : 35,
      "durationSeconds" : 0.07543097916666497
    }, {
      "type" : "note",
      "tick" : 4560,
      "timeSeconds" : 9.827579,
      "channel" : 9,
      "noteNumber" : 70,
      "noteName" : "A#4",
      "velocity" : 50,
      "durationTicks" : 38,
      "durationSeconds" : 0.0818964916666669
    }, {
      "type" : "note",
      "tick" : 4560,
      "timeSeconds" : 9.827579,
      "channel" : 9,
      "noteNumber" : 42,
      "noteName" : "F#2",
      "velocity" : 95,
      "durationTicks" : 47,
      "durationSeconds" : 0.10129302916666738
    }, {
      "type" : "note",
      "tick" : 4680,
      "timeSeconds" : 10.0861995,
      "channel" : 9,
      "noteNumber" : 69,
      "noteName" : "A4",
      "velocity" : 77,
      "durationTicks" : 36,
      "durationSeconds" : 0.07758615000000013
    }, {
      "type" : "note",
      "tick" : 4680,
      "timeSeconds" : 10.0861995,
      "channel" : 9,
      "noteNumber" : 42,
      "noteName" : "F#2",
      "velocity" : 61,
      "durationTicks" : 47,
      "durationSeconds" : 0.10129302916666738
    }, {
      "type" : "note",
      "tick" : 4680,
      "timeSeconds" : 10.0861995,
      "channel" : 9,
      "noteNumber" : 37,
      "noteName" : "C#2",
      "velocity" : 95,
      "durationTicks" : 48,
      "durationSeconds" : 0.10344820000000077
    }, {
      "type" : "note",
      "tick" : 4800,
      "timeSeconds" : 10.34482,
      "channel" : 9,
      "noteNumber" : 49,
      "noteName" : "C#3",
      "velocity" : 73,
      "durationTicks" : 32,
      "durationSeconds" : 0.06896546666666659
    }, {
      "type" : "note",
      "tick" : 4800,
      "timeSeconds" : 10.34482,
      "channel" : 9,
      "noteNumber" : 36,
      "noteName" : "C2",
      "velocity" : 122,
      "durationTicks" : 48,
      "durationSeconds" : 0.10344819999999899
    }, {
      "type" : "note",
      "tick" : 4920,
      "timeSeconds" : 10.6034405,
      "channel" : 9,
      "noteNumber" : 42,
      "noteName" : "F#2",
      "velocity" : 43,
      "durationTicks" : 26,
      "durationSeconds" : 0.05603444166666627
    }, {
      "type" : "note",
      "tick" : 5040,
      "timeSeconds" : 10.862061,
      "channel" : 9,
      "noteNumber" : 70,
      "noteName" : "A#4",
      "velocity" : 76,
      "durationTicks" : 32,
      "durationSeconds" : 0.06896546666666659
    }, {
      "type" : "note",
      "tick" : 5040,
      "timeSeconds" : 10.862061,
      "channel" : 9,
      "noteNumber" : 42,
      "noteName" : "F#2",
      "velocity" : 110,
      "durationTicks" : 53,
      "durationSeconds" : 0.11422405416666592
    }, {
      "type" : "note",
      "tick" : 5160,
      "timeSeconds" : 11.1206815,
      "channel" : 9,
      "noteNumber" : 70,
      "noteName" : "A#4",
      "velocity" : 59,
      "durationTicks" : 19,
      "durationSeconds" : 0.040948245833332564
    }, {
      "type" : "note",
      "tick" : 5160,
      "timeSeconds" : 11.1206815,
      "channel" : 9,
      "noteNumber" : 42,
      "noteName" : "F#2",
      "velocity" : 53,
      "durationTicks" : 39,
      "durationSeconds" : 0.08405166250000029
    }, {
      "type" : "note",
      "tick" : 5280,
      "timeSeconds" : 11.379302,
      "channel" : 9,
      "noteNumber" : 37,
      "noteName" : "C#2",
      "velocity" : 100,
      "durationTicks" : 32,
      "durationSeconds" : 0.06896546666666836
    }, {
      "type" : "note",
      "tick" : 5280,
      "timeSeconds" : 11.379302,
      "channel" : 9,
      "noteNumber" : 42,
      "noteName" : "F#2",
      "velocity" : 110,
      "durationTicks" : 52,
      "durationSeconds" : 0.11206888333333431
    }, {
      "type" : "note",
      "tick" : 5400,
      "timeSeconds" : 11.6379225,
      "channel" : 9,
      "noteNumber" : 42,
      "noteName" : "F#2",
      "velocity" : 46,
      "durationTicks" : 32,
      "durationSeconds" : 0.06896546666666659
    }, {
      "type" : "note",
      "tick" : 5520,
      "timeSeconds" : 11.896543,
      "channel" : 9,
      "noteNumber" : 70,
      "noteName" : "A#4",
      "velocity" : 38,
      "durationTicks" : 27,
      "durationSeconds" : 0.05818961250000143
    }, {
      "type" : "note",
      "tick" : 5520,
      "timeSeconds" : 11.896543,
      "channel" : 9,
      "noteNumber" : 82,
      "noteName" : "A#5",
      "velocity" : 65,
      "durationTicks" : 34,
      "durationSeconds" : 0.07327580833333336
    }, {
      "type" : "note",
      "tick" : 5520,
      "timeSeconds" : 11.896543,
      "channel" : 9,
      "noteNumber" : 37,
      "noteName" : "C#2",
      "velocity" : 1,
      "durationTicks" : 50,
      "durationSeconds" : 0.10775854166666754
    }, {
      "type" : "note",
      "tick" : 5520,
      "timeSeconds" : 11.896543,
      "channel" : 9,
      "noteNumber" : 42,
      "noteName" : "F#2",
      "velocity" : 104,
      "durationTicks" : 50,
      "durationSeconds" : 0.10775854166666754
    }, {
      "type" : "note",
      "tick" : 5640,
      "timeSeconds" : 12.1551635,
      "channel" : 9,
      "noteNumber" : 42,
      "noteName" : "F#2",
      "velocity" : 65,
      "durationTicks" : 45,
      "durationSeconds" : 0.09698268749999883
    }, {
      "type" : "note",
      "tick" : 5640,
      "timeSeconds" : 12.1551635,
      "channel" : 9,
      "noteNumber" : 37,
      "noteName" : "C#2",
      "velocity" : 80,
      "durationTicks" : 56,
      "durationSeconds" : 0.12068956666666608
    }, {
      "type" : "note",
      "tick" : 5760,
      "timeSeconds" : 12.413784,
      "channel" : 9,
      "noteNumber" : 42,
      "noteName" : "F#2",
      "velocity" : 100,
      "durationTicks" : 52,
      "durationSeconds" : 0.11206888333333431
    }, {
      "type" : "note",
      "tick" : 5760,
      "timeSeconds" : 12.413784,
      "channel" : 9,
      "noteNumber" : 36,
      "noteName" : "C2",
      "velocity" : 83,
      "durationTicks" : 60,
      "durationSeconds" : 0.12931024999999963
    }, {
      "type" : "note",
      "tick" : 5880,
      "timeSeconds" : 12.6724045,
      "channel" : 9,
      "noteNumber" : 70,
      "noteName" : "A#4",
      "velocity" : 57,
      "durationTicks" : 22,
      "durationSeconds" : 0.04741375833333272
    }, {
      "type" : "note",
      "tick" : 5880,
      "timeSeconds" : 12.6724045,
      "channel" : 9,
      "noteNumber" : 42,
      "noteName" : "F#2",
      "velocity" : 39,
      "durationTicks" : 37,
      "durationSeconds" : 0.07974132083333174
    }, {
      "type" : "note",
      "tick" : 6000,
      "timeSeconds" : 12.931025,
      "channel" : 9,
      "noteNumber" : 69,
      "noteName" : "A4",
      "velocity" : 73,
      "durationTicks" : 50,
      "durationSeconds" : 0.10775854166666754
    }, {
      "type" : "note",
      "tick" : 6000,
      "timeSeconds" : 12.931025,
      "channel" : 9,
      "noteNumber" : 42,
      "noteName" : "F#2",
      "velocity" : 104,
      "durationTicks" : 55,
      "durationSeconds" : 0.1185343958333327
    }, {
      "type" : "note",
      "tick" : 6120,
      "timeSeconds" : 13.1896455,
      "channel" : 9,
      "noteNumber" : 70,
      "noteName" : "A#4",
      "velocity" : 51,
      "durationTicks" : 21,
      "durationSeconds" : 0.04525858750000111
    }, {
      "type" : "note",
      "tick" : 6120,
      "timeSeconds" : 13.1896455,
      "channel" : 9,
      "noteNumber" : 42,
      "noteName" : "F#2",
      "velocity" : 43,
      "durationTicks" : 41,
      "durationSeconds" : 0.08836200416666706
    }, {
      "type" : "note",
      "tick" : 6120,
      "timeSeconds" : 13.1896455,
      "channel" : 9,
      "noteNumber" : 69,
      "noteName" : "A4",
      "velocity" : 70,
      "durationTicks" : 47,
      "durationSeconds" : 0.10129302916666738
    }, {
      "type" : "note",
      "tick" : 6240,
      "timeSeconds" : 13.448266,
      "channel" : 9,
      "noteNumber" : 70,
      "noteName" : "A#4",
      "velocity" : 57,
      "durationTicks" : 23,
      "durationSeconds" : 0.04956892916666611
    }, {
      "type" : "note",
      "tick" : 6240,
      "timeSeconds" : 13.448266,
      "channel" : 9,
      "noteNumber" : 42,
      "noteName" : "F#2",
      "velocity" : 104,
      "durationTicks" : 64,
      "durationSeconds" : 0.13793093333333317
    }, {
      "type" : "note",
      "tick" : 6360,
      "timeSeconds" : 13.7068865,
      "channel" : 9,
      "noteNumber" : 70,
      "noteName" : "A#4",
      "velocity" : 53,
      "durationTicks" : 27,
      "durationSeconds" : 0.058189612499999654
    }, {
      "type" : "note",
      "tick" : 6360,
      "timeSeconds" : 13.7068865,
      "channel" : 9,
      "noteNumber" : 42,
      "noteName" : "F#2",
      "velocity" : 39,
      "durationTicks" : 38,
      "durationSeconds" : 0.0818964916666669
    }, {
      "type" : "note",
      "tick" : 6480,
      "timeSeconds" : 13.965507,
      "channel" : 9,
      "noteNumber" : 42,
      "noteName" : "F#2",
      "velocity" : 104,
      "durationTicks" : 50,
      "durationSeconds" : 0.10775854166666576
    }, {
      "type" : "note",
      "tick" : 6600,
      "timeSeconds" : 14.2241275,
      "channel" : 9,
      "noteNumber" : 70,
      "noteName" : "A#4",
      "velocity" : 47,
      "durationTicks" : 25,
      "durationSeconds" : 0.05387927083333288
    }, {
      "type" : "note",
      "tick" : 6600,
      "timeSeconds" : 14.2241275,
      "channel" : 9,
      "noteNumber" : 36,
      "noteName" : "C2",
      "velocity" : 55,
      "durationTicks" : 30,
      "durationSeconds" : 0.06465512499999981
    }, {
      "type" : "note",
      "tick" : 6600,
      "timeSeconds" : 14.2241275,
      "channel" : 9,
      "noteNumber" : 42,
      "noteName" : "F#2",
      "velocity" : 71,
      "durationTicks" : 36,
      "durationSeconds" : 0.07758615000000013
    }, {
      "type" : "note",
      "tick" : 6660,
      "timeSeconds" : 14.35343775,
      "channel" : 9,
      "noteNumber" : 70,
      "noteName" : "A#4",
      "velocity" : 49,
      "durationTicks" : 30,
      "durationSeconds" : 0.06465512499999981
    }, {
      "type" : "note",
      "tick" : 6720,
      "timeSeconds" : 14.482748,
      "channel" : 9,
      "noteNumber" : 36,
      "noteName" : "C2",
      "velocity" : 117,
      "durationTicks" : 57,
      "durationSeconds" : 0.12284473749999947
    }, {
      "type" : "note",
      "tick" : 6720,
      "timeSeconds" : 14.482748,
      "channel" : 9,
      "noteNumber" : 42,
      "noteName" : "F#2",
      "velocity" : 110,
      "durationTicks" : 58,
      "durationSeconds" : 0.12499990833333285
    }, {
      "type" : "note",
      "tick" : 6840,
      "timeSeconds" : 14.7413685,
      "channel" : 9,
      "noteNumber" : 42,
      "noteName" : "F#2",
      "velocity" : 30,
      "durationTicks" : 27,
      "durationSeconds" : 0.058189612499999654
    }, {
      "type" : "note",
      "tick" : 6840,
      "timeSeconds" : 14.7413685,
      "channel" : 9,
      "noteNumber" : 70,
      "noteName" : "A#4",
      "velocity" : 49,
      "durationTicks" : 36,
      "durationSeconds" : 0.07758615000000013
    }, {
      "type" : "note",
      "tick" : 6960,
      "timeSeconds" : 14.999989,
      "channel" : 9,
      "noteNumber" : 70,
      "noteName" : "A#4",
      "velocity" : 35,
      "durationTicks" : 27,
      "durationSeconds" : 0.05818961250000143
    }, {
      "type" : "note",
      "tick" : 6960,
      "timeSeconds" : 14.999989,
      "channel" : 9,
      "noteNumber" : 69,
      "noteName" : "A4",
      "velocity" : 79,
      "durationTicks" : 38,
      "durationSeconds" : 0.0818964916666669
    }, {
      "type" : "note",
      "tick" : 6960,
      "timeSeconds" : 14.999989,
      "channel" : 9,
      "noteNumber" : 42,
      "noteName" : "F#2",
      "velocity" : 110,
      "durationTicks" : 64,
      "durationSeconds" : 0.13793093333333317
    }, {
      "type" : "note",
      "tick" : 7080,
      "timeSeconds" : 15.2586095,
      "channel" : 9,
      "noteNumber" : 69,
      "noteName" : "A4",
      "velocity" : 88,
      "durationTicks" : 26,
      "durationSeconds" : 0.05603444166666627
    }, {
      "type" : "note",
      "tick" : 7080,
      "timeSeconds" : 15.2586095,
      "channel" : 9,
      "noteNumber" : 42,
      "noteName" : "F#2",
      "velocity" : 33,
      "durationTicks" : 40,
      "durationSeconds" : 0.08620683333333368
    }, {
      "type" : "note",
      "tick" : 7200,
      "timeSeconds" : 15.51723,
      "channel" : 9,
      "noteNumber" : 70,
      "noteName" : "A#4",
      "velocity" : 44,
      "durationTicks" : 45,
      "durationSeconds" : 0.09698268750000061
    }, {
      "type" : "note",
      "tick" : 7200,
      "timeSeconds" : 15.51723,
      "channel" : 9,
      "noteNumber" : 42,
      "noteName" : "F#2",
      "velocity" : 104,
      "durationTicks" : 59,
      "durationSeconds" : 0.12715507916666624
    }, {
      "type" : "note",
      "tick" : 7320,
      "timeSeconds" : 15.7758505,
      "channel" : 9,
      "noteNumber" : 70,
      "noteName" : "A#4",
      "velocity" : 47,
      "durationTicks" : 30,
      "durationSeconds" : 0.06465512499999981
    }, {
      "type" : "note",
      "tick" : 7320,
      "timeSeconds" : 15.7758505,
      "channel" : 9,
      "noteNumber" : 42,
      "noteName" : "F#2",
      "velocity" : 29,
      "durationTicks" : 42,
      "durationSeconds" : 0.09051717499999867
    }, {
      "type" : "note",
      "tick" : 7440,
      "timeSeconds" : 16.034471,
      "channel" : 9,
      "noteNumber" : 82,
      "noteName" : "A#5",
      "velocity" : 63,
      "durationTicks" : 27,
      "durationSeconds" : 0.05818961250000143
    }, {
      "type" : "note",
      "tick" : 7440,
      "timeSeconds" : 16.034471,
      "channel" : 9,
      "noteNumber" : 70,
      "noteName" : "A#4",
      "velocity" : 50,
      "durationTicks" : 28,
      "durationSeconds" : 0.06034478333333482
    }, {
      "type" : "note",
      "tick" : 7440,
      "timeSeconds" : 16.034471,
      "channel" : 9,
      "noteNumber" : 42,
      "noteName" : "F#2",
      "velocity" : 104,
      "durationTicks" : 58,
      "durationSeconds" : 0.12499990833333285
    }, {
      "type" : "note",
      "tick" : 7560,
      "timeSeconds" : 16.2930915,
      "channel" : 9,
      "noteNumber" : 70,
      "noteName" : "A#4",
      "velocity" : 47,
      "durationTicks" : 20,
      "durationSeconds" : 0.04310341666666773
    }, {
      "type" : "note",
      "tick" : 7560,
      "timeSeconds" : 16.2930915,
      "channel" : 9,
      "noteNumber" : 42,
      "noteName" : "F#2",
      "velocity" : 42,
      "durationTicks" : 39,
      "durationSeconds" : 0.08405166250000207
    }, {
      "type" : "note",
      "tick" : 7680,
      "timeSeconds" : 16.551712,
      "channel" : 9,
      "noteNumber" : 42,
      "noteName" : "F#2",
      "velocity" : 104,
      "durationTicks" : 51,
      "durationSeconds" : 0.1099137125000027
    }, {
      "type" : "note",
      "tick" : 7680,
      "timeSeconds" : 16.551712,
      "channel" : 9,
      "noteNumber" : 36,
      "noteName" : "C2",
      "velocity" : 97,
      "durationTicks" : 54,
      "durationSeconds" : 0.11637922500000286
    }, {
      "type" : "note",
      "tick" : 7800,
      "timeSeconds" : 16.8103325,
      "channel" : 9,
      "noteNumber" : 42,
      "noteName" : "F#2",
      "velocity" : 37,
      "durationTicks" : 39,
      "durationSeconds" : 0.08405166249999851
    }, {
      "type" : "note",
      "tick" : 7920,
      "timeSeconds" : 17.068953,
      "channel" : 9,
      "noteNumber" : 70,
      "noteName" : "A#4",
      "velocity" : 36,
      "durationTicks" : 33,
      "durationSeconds" : 0.0711206374999982
    }, {
      "type" : "note",
      "tick" : 7920,
      "timeSeconds" : 17.068953,
      "channel" : 9,
      "noteNumber" : 42,
      "noteName" : "F#2",
      "velocity" : 104,
      "durationTicks" : 48,
      "durationSeconds" : 0.10344819999999899
    }, {
      "type" : "note",
      "tick" : 8040,
      "timeSeconds" : 17.3275735,
      "channel" : 9,
      "noteNumber" : 42,
      "noteName" : "F#2",
      "velocity" : 31,
      "durationTicks" : 34,
      "durationSeconds" : 0.07327580833333514
    }, {
      "type" : "note",
      "tick" : 8040,
      "timeSeconds" : 17.3275735,
      "channel" : 9,
      "noteNumber" : 70,
      "noteName" : "A#4",
      "velocity" : 36,
      "durationTicks" : 41,
      "durationSeconds" : 0.08836200416666529
    }, {
      "type" : "note",
      "tick" : 8160,
      "timeSeconds" : 17.586194,
      "channel" : 9,
      "noteNumber" : 69,
      "noteName" : "A4",
      "velocity" : 64,
      "durationTicks" : 26,
      "durationSeconds" : 0.056034441666668044
    }, {
      "type" : "note",
      "tick" : 8160,
      "timeSeconds" : 17.586194,
      "channel" : 9,
      "noteNumber" : 42,
      "noteName" : "F#2",
      "velocity" : 73,
      "durationTicks" : 33,
      "durationSeconds" : 0.07112063750000175
    }, {
      "type" : "note",
      "tick" : 8160,
      "timeSeconds" : 17.586194,
      "channel" : 9,
      "noteNumber" : 36,
      "noteName" : "C2",
      "velocity" : 71,
      "durationTicks" : 47,
      "durationSeconds" : 0.10129302916666916
    }, {
      "type" : "note",
      "tick" : 8280,
      "timeSeconds" : 17.8448145,
      "channel" : 9,
      "noteNumber" : 70,
      "noteName" : "A#4",
      "velocity" : 33,
      "durationTicks" : 31,
      "durationSeconds" : 0.06681029583333498
    }, {
      "type" : "note",
      "tick" : 8280,
      "timeSeconds" : 17.8448145,
      "channel" : 9,
      "noteNumber" : 49,
      "noteName" : "C#3",
      "velocity" : 100,
      "durationTicks" : 36,
      "durationSeconds" : 0.07758615000000191
    }, {
      "type" : "note",
      "tick" : 8280,
      "timeSeconds" : 17.8448145,
      "channel" : 9,
      "noteNumber" : 40,
      "noteName" : "E2",
      "velocity" : 127,
      "durationTicks" : 56,
      "durationSeconds" : 0.12068956666666963
    }, {
      "type" : "note",
      "tick" : 8520,
      "timeSeconds" : 18.3620555,
      "channel" : 9,
      "noteNumber" : 70,
      "noteName" : "A#4",
      "velocity" : 35,
      "durationTicks" : 37,
      "durationSeconds" : 0.07974132083333174
    }, {
      "type" : "note",
      "tick" : 8520,
      "timeSeconds" : 18.3620555,
      "channel" : 9,
      "noteNumber" : 49,
      "noteName" : "C#3",
      "velocity" : 87,
      "durationTicks" : 39,
      "durationSeconds" : 0.08405166249999851
    }, {
      "type" : "note",
      "tick" : 8520,
      "timeSeconds" : 18.3620555,
      "channel" : 9,
      "noteNumber" : 40,
      "noteName" : "E2",
      "velocity" : 127,
      "durationTicks" : 44,
      "durationSeconds" : 0.09482751666666545
    }, {
      "type" : "note",
      "tick" : 8640,
      "timeSeconds" : 18.620676,
      "channel" : 9,
      "noteNumber" : 36,
      "noteName" : "C2",
      "velocity" : 127,
      "durationTicks" : 33,
      "durationSeconds" : 0.07112063750000175
    }, {
      "type" : "note",
      "tick" : 8640,
      "timeSeconds" : 18.620676,
      "channel" : 9,
      "noteNumber" : 82,
      "noteName" : "A#5",
      "velocity" : 61,
      "durationTicks" : 34,
      "durationSeconds" : 0.07327580833333514
    }, {
      "type" : "note",
      "tick" : 8640,
      "timeSeconds" : 18.620676,
      "channel" : 9,
      "noteNumber" : 42,
      "noteName" : "F#2",
      "velocity" : 95,
      "durationTicks" : 35,
      "durationSeconds" : 0.07543097916666852
    }, {
      "type" : "note",
      "tick" : 8760,
      "timeSeconds" : 18.8792965,
      "channel" : 9,
      "noteNumber" : 42,
      "noteName" : "F#2",
      "velocity" : 59,
      "durationTicks" : 37,
      "durationSeconds" : 0.0797413208333353
    }, {
      "type" : "note",
      "tick" : 8880,
      "timeSeconds" : 19.137917,
      "channel" : 9,
      "noteNumber" : 69,
      "noteName" : "A4",
      "velocity" : 50,
      "durationTicks" : 40,
      "durationSeconds" : 0.0862068333333319
    }, {
      "type" : "note",
      "tick" : 8880,
      "timeSeconds" : 19.137917,
      "channel" : 9,
      "noteNumber" : 42,
      "noteName" : "F#2",
      "velocity" : 100,
      "durationTicks" : 59,
      "durationSeconds" : 0.12715507916666624
    }, {
      "type" : "note",
      "tick" : 9000,
      "timeSeconds" : 19.3965375,
      "channel" : 9,
      "noteNumber" : 69,
      "noteName" : "A4",
      "velocity" : 88,
      "durationTicks" : 35,
      "durationSeconds" : 0.07543097916666497
    }, {
      "type" : "note",
      "tick" : 9000,
      "timeSeconds" : 19.3965375,
      "channel" : 9,
      "noteNumber" : 42,
      "noteName" : "F#2",
      "velocity" : 50,
      "durationTicks" : 41,
      "durationSeconds" : 0.08836200416666529
    }, {
      "type" : "note",
      "tick" : 9120,
      "timeSeconds" : 19.655158,
      "channel" : 9,
      "noteNumber" : 70,
      "noteName" : "A#4",
      "velocity" : 63,
      "durationTicks" : 36,
      "durationSeconds" : 0.07758614999999836
    }, {
      "type" : "note",
      "tick" : 9120,
      "timeSeconds" : 19.655158,
      "channel" : 9,
      "noteNumber" : 42,
      "noteName" : "F#2",
      "velocity" : 104,
      "durationTicks" : 64,
      "durationSeconds" : 0.13793093333333317
    }, {
      "type" : "note",
      "tick" : 9240,
      "timeSeconds" : 19.9137785,
      "channel" : 9,
      "noteNumber" : 42,
      "noteName" : "F#2",
      "velocity" : 31,
      "durationTicks" : 42,
      "durationSeconds" : 0.09051717500000223
    }, {
      "type" : "note",
      "tick" : 9360,
      "timeSeconds" : 20.172399,
      "channel" : 9,
      "noteNumber" : 42,
      "noteName" : "F#2",
      "velocity" : 104,
      "durationTicks" : 53,
      "durationSeconds" : 0.11422405416666948
    }, {
      "type" : "note",
      "tick" : 9480,
      "timeSeconds" : 20.4310195,
      "channel" : 9,
      "noteNumber" : 36,
      "noteName" : "C2",
      "velocity" : 64,
      "durationTicks" : 26,
      "durationSeconds" : 0.05603444166666449
    }, {
      "type" : "note",
      "tick" : 9480,
      "timeSeconds" : 20.4310195,
      "channel" : 9,
      "noteNumber" : 70,
      "noteName" : "A#4",
      "velocity" : 57,
      "durationTicks" : 38,
      "durationSeconds" : 0.08189649166666513
    }, {
      "type" : "note",
      "tick" : 9480,
      "timeSeconds" : 20.4310195,
      "channel" : 9,
      "noteNumber" : 42,
      "noteName" : "F#2",
      "velocity" : 45,
      "durationTicks" : 44,
      "durationSeconds" : 0.09482751666666545
    }, {
      "type" : "note",
      "tick" : 9600,
      "timeSeconds" : 20.68964,
      "channel" : 9,
      "noteNumber" : 82,
      "noteName" : "A#5",
      "velocity" : 68,
      "durationTicks" : 29,
      "durationSeconds" : 0.06249995416666465
    }, {
      "type" : "note",
      "tick" : 9600,
      "timeSeconds" : 20.68964,
      "channel" : 9,
      "noteNumber" : 36,
      "noteName" : "C2",
      "velocity" : 127,
      "durationTicks" : 53,
      "durationSeconds" : 0.11422405416666592
    }, {
      "type" : "note",
      "tick" : 9600,
      "timeSeconds" : 20.68964,
      "channel" : 9,
      "noteNumber" : 42,
      "noteName" : "F#2",
      "velocity" : 110,
      "durationTicks" : 56,
      "durationSeconds" : 0.12068956666666608
    }, {
      "type" : "note",
      "tick" : 9720,
      "timeSeconds" : 20.9482605,
      "channel" : 9,
      "noteNumber" : 42,
      "noteName" : "F#2",
      "velocity" : 38,
      "durationTicks" : 34,
      "durationSeconds" : 0.07327580833333514
    }, {
      "type" : "note",
      "tick" : 9840,
      "timeSeconds" : 21.206881,
      "channel" : 9,
      "noteNumber" : 70,
      "noteName" : "A#4",
      "velocity" : 55,
      "durationTicks" : 37,
      "durationSeconds" : 0.0797413208333353
    }, {
      "type" : "note",
      "tick" : 9840,
      "timeSeconds" : 21.206881,
      "channel" : 9,
      "noteNumber" : 42,
      "noteName" : "F#2",
      "velocity" : 104,
      "durationTicks" : 51,
      "durationSeconds" : 0.10991371249999915
    }, {
      "type" : "note",
      "tick" : 9960,
      "timeSeconds" : 21.4655015,
      "channel" : 9,
      "noteNumber" : 70,
      "noteName" : "A#4",
      "velocity" : 71,
      "durationTicks" : 33,
      "durationSeconds" : 0.07112063750000175
    }, {
      "type" : "note",
      "tick" : 9960,
      "timeSeconds" : 21.4655015,
      "channel" : 9,
      "noteNumber" : 42,
      "noteName" : "F#2",
      "velocity" : 49,
      "durationTicks" : 48,
      "durationSeconds" : 0.10344820000000254
    }, {
      "type" : "note",
      "tick" : 10080,
      "timeSeconds" : 21.724122,
      "channel" : 9,
      "noteNumber" : 42,
      "noteName" : "F#2",
      "velocity" : 100,
      "durationTicks" : 41,
      "durationSeconds" : 0.08836200416666529
    }, {
      "type" : "note",
      "tick" : 10200,
      "timeSeconds" : 21.9827425,
      "channel" : 9,
      "noteNumber" : 70,
      "noteName" : "A#4",
      "velocity" : 55,
      "durationTicks" : 34,
      "durationSeconds" : 0.07327580833333158
    }, {
      "type" : "note",
      "tick" : 10200,
      "timeSeconds" : 21.9827425,
      "channel" : 9,
      "noteNumber" : 37,
      "noteName" : "C#2",
      "velocity" : 87,
      "durationTicks" : 40,
      "durationSeconds" : 0.0862068333333319
    }, {
      "type" : "note",
      "tick" : 10200,
      "timeSeconds" : 21.9827425,
      "channel" : 9,
      "noteNumber" : 46,
      "noteName" : "A#2",
      "velocity" : 57,
      "durationTicks" : 47,
      "durationSeconds" : 0.1012930291666656
    }, {
      "type" : "note",
      "tick" : 10320,
      "timeSeconds" : 22.241363,
      "channel" : 9,
      "noteNumber" : 69,
      "noteName" : "A4",
      "velocity" : 86,
      "durationTicks" : 37,
      "durationSeconds" : 0.0797413208333353
    }, {
      "type" : "note",
      "tick" : 10320,
      "timeSeconds" : 22.241363,
      "channel" : 9,
      "noteNumber" : 42,
      "noteName" : "F#2",
      "velocity" : 63,
      "durationTicks" : 54,
      "durationSeconds" : 0.11637922499999931
    }, {
      "type" : "note",
      "tick" : 10440,
      "timeSeconds" : 22.4999835,
      "channel" : 9,
      "noteNumber" : 37,
      "noteName" : "C#2",
      "velocity" : 100,
      "durationTicks" : 16,
      "durationSeconds" : 0.03448273333333418
    }, {
      "type" : "note",
      "tick" : 10440,
      "timeSeconds" : 22.4999835,
      "channel" : 9,
      "noteNumber" : 70,
      "noteName" : "A#4",
      "velocity" : 35,
      "durationTicks" : 19,
      "durationSeconds" : 0.04094824583333434
    }, {
      "type" : "note",
      "tick" : 10440,
      "timeSeconds" : 22.4999835,
      "channel" : 9,
      "noteNumber" : 69,
      "noteName" : "A4",
      "velocity" : 73,
      "durationTicks" : 26,
      "durationSeconds" : 0.056034441666668044
    }, {
      "type" : "note",
      "tick" : 10440,
      "timeSeconds" : 22.4999835,
      "channel" : 9,
      "noteNumber" : 42,
      "noteName" : "F#2",
      "velocity" : 37,
      "durationTicks" : 31,
      "durationSeconds" : 0.06681029583333498
    }, {
      "type" : "note",
      "tick" : 10560,
      "timeSeconds" : 22.758604,
      "channel" : 9,
      "noteNumber" : 70,
      "noteName" : "A#4",
      "velocity" : 32,
      "durationTicks" : 15,
      "durationSeconds" : 0.032327562500000795
    }, {
      "type" : "note",
      "tick" : 10560,
      "timeSeconds" : 22.758604,
      "channel" : 9,
      "noteNumber" : 36,
      "noteName" : "C2",
      "velocity" : 117,
      "durationTicks" : 34,
      "durationSeconds" : 0.07327580833333514
    }, {
      "type" : "note",
      "tick" : 10560,
      "timeSeconds" : 22.758604,
      "channel" : 9,
      "noteNumber" : 42,
      "noteName" : "F#2",
      "velocity" : 100,
      "durationTicks" : 57,
      "durationSeconds" : 0.12284473750000302
    }, {
      "type" : "note",
      "tick" : 10680,
      "timeSeconds" : 23.0172245,
      "channel" : 9,
      "noteNumber" : 70,
      "noteName" : "A#4",
      "velocity" : 59,
      "durationTicks" : 25,
      "durationSeconds" : 0.053879270833331105
    }, {
      "type" : "note",
      "tick" : 10680,
      "timeSeconds" : 23.0172245,
      "channel" : 9,
      "noteNumber" : 42,
      "noteName" : "F#2",
      "velocity" : 38,
      "durationTicks" : 44,
      "durationSeconds" : 0.09482751666666545
    }, {
      "type" : "note",
      "tick" : 10800,
      "timeSeconds" : 23.275845,
      "channel" : 9,
      "noteNumber" : 42,
      "noteName" : "F#2",
      "velocity" : 104,
      "durationTicks" : 60,
      "durationSeconds" : 0.12931024999999963
    }, {
      "type" : "note",
      "tick" : 10920,
      "timeSeconds" : 23.5344655,
      "channel" : 9,
      "noteNumber" : 42,
      "noteName" : "F#2",
      "velocity" : 31,
      "durationTicks" : 46,
      "durationSeconds" : 0.09913785833333222
    }, {
      "type" : "note",
      "tick" : 11040,
      "timeSeconds" : 23.793086,
      "channel" : 9,
      "noteNumber" : 70,
      "noteName" : "A#4",
      "velocity" : 45,
      "durationTicks" : 26,
      "durationSeconds" : 0.056034441666668044
    }, {
      "type" : "note",
      "tick" : 11040,
      "timeSeconds" : 23.793086,
      "channel" : 9,
      "noteNumber" : 42,
      "noteName" : "F#2",
      "velocity" : 104,
      "durationTicks" : 51,
      "durationSeconds" : 0.1099137125000027
    }, {
      "type" : "note",
      "tick" : 11160,
      "timeSeconds" : 24.0517065,
      "channel" : 9,
      "noteNumber" : 42,
      "noteName" : "F#2",
      "velocity" : 39,
      "durationTicks" : 37,
      "durationSeconds" : 0.07974132083333174
    }, {
      "type" : "note",
      "tick" : 11280,
      "timeSeconds" : 24.310327,
      "channel" : 9,
      "noteNumber" : 69,
      "noteName" : "A4",
      "velocity" : 79,
      "durationTicks" : 51,
      "durationSeconds" : 0.10991371249999915
    }, {
      "type" : "note",
      "tick" : 11280,
      "timeSeconds" : 24.310327,
      "channel" : 9,
      "noteNumber" : 42,
      "noteName" : "F#2",
      "velocity" : 95,
      "durationTicks" : 54,
      "durationSeconds" : 0.11637922499999931
    }, {
      "type" : "note",
      "tick" : 11400,
      "timeSeconds" : 24.5689475,
      "channel" : 9,
      "noteNumber" : 69,
      "noteName" : "A4",
      "velocity" : 73,
      "durationTicks" : 33,
      "durationSeconds" : 0.0711206374999982
    }, {
      "type" : "note",
      "tick" : 11400,
      "timeSeconds" : 24.5689475,
      "channel" : 9,
      "noteNumber" : 42,
      "noteName" : "F#2",
      "velocity" : 51,
      "durationTicks" : 53,
      "durationSeconds" : 0.11422405416666592
    }, {
      "type" : "note",
      "tick" : 11520,
      "timeSeconds" : 24.827568,
      "channel" : 9,
      "noteNumber" : 70,
      "noteName" : "A#4",
      "velocity" : 33,
      "durationTicks" : 32,
      "durationSeconds" : 0.06896546666666836
    }, {
      "type" : "note",
      "tick" : 11520,
      "timeSeconds" : 24.827568,
      "channel" : 9,
      "noteNumber" : 42,
      "noteName" : "F#2",
      "velocity" : 104,
      "durationTicks" : 50,
      "durationSeconds" : 0.10775854166666576
    }, {
      "type" : "note",
      "tick" : 11520,
      "timeSeconds" : 24.827568,
      "channel" : 9,
      "noteNumber" : 36,
      "noteName" : "C2",
      "velocity" : 127,
      "durationTicks" : 58,
      "durationSeconds" : 0.12499990833333285
    }, {
      "type" : "note",
      "tick" : 11640,
      "timeSeconds" : 25.0861885,
      "channel" : 9,
      "noteNumber" : 42,
      "noteName" : "F#2",
      "velocity" : 33,
      "durationTicks" : 27,
      "durationSeconds" : 0.05818961250000143
    }, {
      "type" : "note",
      "tick" : 11640,
      "timeSeconds" : 25.0861885,
      "channel" : 9,
      "noteNumber" : 70,
      "noteName" : "A#4",
      "velocity" : 35,
      "durationTicks" : 47,
      "durationSeconds" : 0.10129302916666916
    }, {
      "type" : "note",
      "tick" : 11760,
      "timeSeconds" : 25.344809,
      "channel" : 9,
      "noteNumber" : 42,
      "noteName" : "F#2",
      "velocity" : 104,
      "durationTicks" : 46,
      "durationSeconds" : 0.09913785833333222
    }, {
      "type" : "note",
      "tick" : 11880,
      "timeSeconds" : 25.6034295,
      "channel" : 9,
      "noteNumber" : 70,
      "noteName" : "A#4",
      "velocity" : 32,
      "durationTicks" : 31,
      "durationSeconds" : 0.06681029583333142
    }, {
      "type" : "note",
      "tick" : 11880,
      "timeSeconds" : 25.6034295,
      "channel" : 9,
      "noteNumber" : 42,
      "noteName" : "F#2",
      "velocity" : 45,
      "durationTicks" : 48,
      "durationSeconds" : 0.10344819999999899
    }, {
      "type" : "note",
      "tick" : 12000,
      "timeSeconds" : 25.86205,
      "channel" : 9,
      "noteNumber" : 70,
      "noteName" : "A#4",
      "velocity" : 37,
      "durationTicks" : 38,
      "durationSeconds" : 0.08189649166666513
    }, {
      "type" : "note",
      "tick" : 12000,
      "timeSeconds" : 25.86205,
      "channel" : 9,
      "noteNumber" : 42,
      "noteName" : "F#2",
      "velocity" : 104,
      "durationTicks" : 54,
      "durationSeconds" : 0.11637922499999931
    }, {
      "type" : "note",
      "tick" : 12120,
      "timeSeconds" : 26.1206705,
      "channel" : 9,
      "noteNumber" : 82,
      "noteName" : "A#5",
      "velocity" : 73,
      "durationTicks" : 11,
      "durationSeconds" : 0.02370687916666725
    }, {
      "type" : "note",
      "tick" : 12120,
      "timeSeconds" : 26.1206705,
      "channel" : 9,
      "noteNumber" : 42,
      "noteName" : "F#2",
      "velocity" : 34,
      "durationTicks" : 37,
      "durationSeconds" : 0.0797413208333353
    }, {
      "type" : "note",
      "tick" : 12180,
      "timeSeconds" : 26.24998075,
      "channel" : 9,
      "noteNumber" : 70,
      "noteName" : "A#4",
      "velocity" : 57,
      "durationTicks" : 27,
      "durationSeconds" : 0.05818961250000143
    }, {
      "type" : "note",
      "tick" : 12240,
      "timeSeconds" : 26.379291,
      "channel" : 9,
      "noteNumber" : 36,
      "noteName" : "C2",
      "velocity" : 50,
      "durationTicks" : 27,
      "durationSeconds" : 0.05818961250000143
    }, {
      "type" : "note",
      "tick" : 12240,
      "timeSeconds" : 26.379291,
      "channel" : 9,
      "noteNumber" : 42,
      "noteName" : "F#2",
      "velocity" : 80,
      "durationTicks" : 33,
      "durationSeconds" : 0.07112063750000175
    }, {
      "type" : "note",
      "tick" : 12360,
      "timeSeconds" : 26.6379115,
      "channel" : 9,
      "noteNumber" : 46,
      "noteName" : "A#2",
      "velocity" : 110,
      "durationTicks" : 23,
      "durationSeconds" : 0.04956892916666433
    }, {
      "type" : "note",
      "tick" : 12360,
      "timeSeconds" : 26.6379115,
      "channel" : 9,
      "noteNumber" : 40,
      "noteName" : "E2",
      "velocity" : 127,
      "durationTicks" : 27,
      "durationSeconds" : 0.05818961249999788
    }, {
      "type" : "note",
      "tick" : 12360,
      "timeSeconds" : 26.6379115,
      "channel" : 9,
      "noteNumber" : 82,
      "noteName" : "A#5",
      "velocity" : 61,
      "durationTicks" : 37,
      "durationSeconds" : 0.07974132083333174
    }, {
      "type" : "note",
      "tick" : 12480,
      "timeSeconds" : 26.896532,
      "channel" : 9,
      "noteNumber" : 70,
      "noteName" : "A#4",
      "velocity" : 57,
      "durationTicks" : 35,
      "durationSeconds" : 0.07543097916666497
    }, {
      "type" : "note",
      "tick" : 12600,
      "timeSeconds" : 27.1551525,
      "channel" : 9,
      "noteNumber" : 70,
      "noteName" : "A#4",
      "velocity" : 44,
      "durationTicks" : 34,
      "durationSeconds" : 0.07327580833333514
    }, {
      "type" : "note",
      "tick" : 12720,
      "timeSeconds" : 27.413773,
      "channel" : 9,
      "noteNumber" : 69,
      "noteName" : "A4",
      "velocity" : 71,
      "durationTicks" : 35,
      "durationSeconds" : 0.07543097916666852
    }, {
      "type" : "note",
      "tick" : 12720,
      "timeSeconds" : 27.413773,
      "channel" : 9,
      "noteNumber" : 42,
      "noteName" : "F#2",
      "velocity" : 100,
      "durationTicks" : 43,
      "durationSeconds" : 0.09267234583333561
    }, {
      "type" : "note",
      "tick" : 12840,
      "timeSeconds" : 27.6723935,
      "channel" : 9,
      "noteNumber" : 69,
      "noteName" : "A4",
      "velocity" : 50,
      "durationTicks" : 24,
      "durationSeconds" : 0.05172410000000127
    }, {
      "type" : "note",
      "tick" : 12840,
      "timeSeconds" : 27.6723935,
      "channel" : 9,
      "noteNumber" : 42,
      "noteName" : "F#2",
      "velocity" : 50,
      "durationTicks" : 47,
      "durationSeconds" : 0.10129302916666916
    }, {
      "type" : "note",
      "tick" : 12960,
      "timeSeconds" : 27.931014,
      "channel" : 9,
      "noteNumber" : 70,
      "noteName" : "A#4",
      "velocity" : 51,
      "durationTicks" : 30,
      "durationSeconds" : 0.06465512499999804
    }, {
      "type" : "note",
      "tick" : 12960,
      "timeSeconds" : 27.931014,
      "channel" : 9,
      "noteNumber" : 36,
      "noteName" : "C2",
      "velocity" : 127,
      "durationTicks" : 46,
      "durationSeconds" : 0.09913785833333222
    }, {
      "type" : "note",
      "tick" : 12960,
      "timeSeconds" : 27.931014,
      "channel" : 9,
      "noteNumber" : 42,
      "noteName" : "F#2",
      "velocity" : 100,
      "durationTicks" : 49,
      "durationSeconds" : 0.10560337083333238
    }, {
      "type" : "note",
      "tick" : 13080,
      "timeSeconds" : 28.1896345,
      "channel" : 9,
      "noteNumber" : 42,
      "noteName" : "F#2",
      "velocity" : 59,
      "durationTicks" : 34,
      "durationSeconds" : 0.07327580833333158
    }, {
      "type" : "note",
      "tick" : 13080,
      "timeSeconds" : 28.1896345,
      "channel" : 9,
      "noteNumber" : 70,
      "noteName" : "A#4",
      "velocity" : 50,
      "durationTicks" : 38,
      "durationSeconds" : 0.08189649166666513
    }, {
      "type" : "note",
      "tick" : 13200,
      "timeSeconds" : 28.448255,
      "channel" : 9,
      "noteNumber" : 42,
      "noteName" : "F#2",
      "velocity" : 91,
      "durationTicks" : 32,
      "durationSeconds" : 0.06896546666666836
    }, {
      "type" : "note",
      "tick" : 13320,
      "timeSeconds" : 28.7068755,
      "channel" : 9,
      "noteNumber" : 70,
      "noteName" : "A#4",
      "velocity" : 34,
      "durationTicks" : 22,
      "durationSeconds" : 0.0474137583333345
    }, {
      "type" : "note",
      "tick" : 13320,
      "timeSeconds" : 28.7068755,
      "channel" : 9,
      "noteNumber" : 42,
      "noteName" : "F#2",
      "velocity" : 36,
      "durationTicks" : 29,
      "durationSeconds" : 0.062499954166668203
    }, {
      "type" : "note",
      "tick" : 13440,
      "timeSeconds" : 28.965496,
      "channel" : 9,
      "noteNumber" : 70,
      "noteName" : "A#4",
      "velocity" : 29,
      "durationTicks" : 29,
      "durationSeconds" : 0.06249995416666465
    }, {
      "type" : "note",
      "tick" : 13440,
      "timeSeconds" : 28.965496,
      "channel" : 9,
      "noteNumber" : 42,
      "noteName" : "F#2",
      "velocity" : 104,
      "durationTicks" : 53,
      "durationSeconds" : 0.11422405416666592
    }, {
      "type" : "note",
      "tick" : 13560,
      "timeSeconds" : 29.2241165,
      "channel" : 9,
      "noteNumber" : 82,
      "noteName" : "A#5",
      "velocity" : 50,
      "durationTicks" : 18,
      "durationSeconds" : 0.0387930749999974
    }, {
      "type" : "note",
      "tick" : 13560,
      "timeSeconds" : 29.2241165,
      "channel" : 9,
      "noteNumber" : 42,
      "noteName" : "F#2",
      "velocity" : 38,
      "durationTicks" : 27,
      "durationSeconds" : 0.05818961249999788
    }, {
      "type" : "note",
      "tick" : 13680,
      "timeSeconds" : 29.482737,
      "channel" : 9,
      "noteNumber" : 70,
      "noteName" : "A#4",
      "velocity" : 38,
      "durationTicks" : 39,
      "durationSeconds" : 0.08405166249999851
    }, {
      "type" : "note",
      "tick" : 13680,
      "timeSeconds" : 29.482737,
      "channel" : 9,
      "noteNumber" : 42,
      "noteName" : "F#2",
      "velocity" : 104,
      "durationTicks" : 43,
      "durationSeconds" : 0.09267234583333206
    }, {
      "type" : "note",
      "tick" : 13800,
      "timeSeconds" : 29.7413575,
      "channel" : 9,
      "noteNumber" : 69,
      "noteName" : "A4",
      "velocity" : 68,
      "durationTicks" : 45,
      "durationSeconds" : 0.09698268749999883
    }, {
      "type" : "note",
      "tick" : 13920,
      "timeSeconds" : 29.999978,
      "channel" : 9,
      "noteNumber" : 70,
      "noteName" : "A#4",
      "velocity" : 50,
      "durationTicks" : 31,
      "durationSeconds" : 0.06681029583333498
    }, {
      "type" : "note",
      "tick" : 13920,
      "timeSeconds" : 29.999978,
      "channel" : 9,
      "noteNumber" : 42,
      "noteName" : "F#2",
      "velocity" : 104,
      "durationTicks" : 48,
      "durationSeconds" : 0.10344820000000254
    }, {
      "type" : "note",
      "tick" : 13920,
      "timeSeconds" : 29.999978,
      "channel" : 9,
      "noteNumber" : 36,
      "noteName" : "C2",
      "velocity" : 127,
      "durationTicks" : 60,
      "durationSeconds" : 0.12931024999999963
    }, {
      "type" : "note",
      "tick" : 14040,
      "timeSeconds" : 30.2585985,
      "channel" : 9,
      "noteNumber" : 42,
      "noteName" : "F#2",
      "velocity" : 35,
      "durationTicks" : 40,
      "durationSeconds" : 0.0862068333333319
    }, {
      "type" : "note",
      "tick" : 14160,
      "timeSeconds" : 30.517219,
      "channel" : 9,
      "noteNumber" : 42,
      "noteName" : "F#2",
      "velocity" : 100,
      "durationTicks" : 40,
      "durationSeconds" : 0.0862068333333319
    }, {
      "type" : "note",
      "tick" : 14220,
      "timeSeconds" : 30.64652925,
      "channel" : 9,
      "noteNumber" : 70,
      "noteName" : "A#4",
      "velocity" : 49,
      "durationTicks" : 28,
      "durationSeconds" : 0.060344783333331264
    }, {
      "type" : "note",
      "tick" : 14280,
      "timeSeconds" : 30.7758395,
      "channel" : 9,
      "noteNumber" : 37,
      "noteName" : "C#2",
      "velocity" : 127,
      "durationTicks" : 43,
      "durationSeconds" : 0.09267234583333206
    }, {
      "type" : "note",
      "tick" : 14280,
      "timeSeconds" : 30.7758395,
      "channel" : 9,
      "noteNumber" : 42,
      "noteName" : "F#2",
      "velocity" : 100,
      "durationTicks" : 50,
      "durationSeconds" : 0.10775854166666576
    }, {
      "type" : "note",
      "tick" : 14400,
      "timeSeconds" : 31.03446,
      "channel" : 9,
      "noteNumber" : 70,
      "noteName" : "A#4",
      "velocity" : 34,
      "durationTicks" : 17,
      "durationSeconds" : 0.03663790416666757
    }, {
      "type" : "note",
      "tick" : 14400,
      "timeSeconds" : 31.03446,
      "channel" : 9,
      "noteNumber" : 42,
      "noteName" : "F#2",
      "velocity" : 55,
      "durationTicks" : 47,
      "durationSeconds" : 0.10129302916666916
    }, {
      "type" : "note",
      "tick" : 14520,
      "timeSeconds" : 31.2930805,
      "channel" : 9,
      "noteNumber" : 70,
      "noteName" : "A#4",
      "velocity" : 36,
      "durationTicks" : 23,
      "durationSeconds" : 0.049568929166667886
    }, {
      "type" : "note",
      "tick" : 14520,
      "timeSeconds" : 31.2930805,
      "channel" : 9,
      "noteNumber" : 42,
      "noteName" : "F#2",
      "velocity" : 43,
      "durationTicks" : 36,
      "durationSeconds" : 0.07758615000000191
    }, {
      "type" : "note",
      "tick" : 14640,
      "timeSeconds" : 31.551701,
      "channel" : 9,
      "noteNumber" : 70,
      "noteName" : "A#4",
      "velocity" : 44,
      "durationTicks" : 24,
      "durationSeconds" : 0.05172409999999772
    }, {
      "type" : "note",
      "tick" : 14640,
      "timeSeconds" : 31.551701,
      "channel" : 9,
      "noteNumber" : 69,
      "noteName" : "A4",
      "velocity" : 62,
      "durationTicks" : 36,
      "durationSeconds" : 0.07758614999999836
    }, {
      "type" : "note",
      "tick" : 14640,
      "timeSeconds" : 31.551701,
      "channel" : 9,
      "noteNumber" : 42,
      "noteName" : "F#2",
      "velocity" : 100,
      "durationTicks" : 53,
      "durationSeconds" : 0.11422405416666592
    }, {
      "type" : "note",
      "tick" : 14760,
      "timeSeconds" : 31.8103215,
      "channel" : 9,
      "noteNumber" : 70,
      "noteName" : "A#4",
      "velocity" : 51,
      "durationTicks" : 29,
      "durationSeconds" : 0.06249995416666465
    }, {
      "type" : "note",
      "tick" : 14760,
      "timeSeconds" : 31.8103215,
      "channel" : 9,
      "noteNumber" : 69,
      "noteName" : "A4",
      "velocity" : 61,
      "durationTicks" : 30,
      "durationSeconds" : 0.06465512499999804
    }, {
      "type" : "note",
      "tick" : 14760,
      "timeSeconds" : 31.8103215,
      "channel" : 9,
      "noteNumber" : 42,
      "noteName" : "F#2",
      "velocity" : 38,
      "durationTicks" : 49,
      "durationSeconds" : 0.10560337083333238
    }, {
      "type" : "note",
      "tick" : 14880,
      "timeSeconds" : 32.068942,
      "channel" : 9,
      "noteNumber" : 36,
      "noteName" : "C2",
      "velocity" : 127,
      "durationTicks" : 46,
      "durationSeconds" : 0.09913785833333577
    }, {
      "type" : "note",
      "tick" : 14880,
      "timeSeconds" : 32.068942,
      "channel" : 9,
      "noteNumber" : 42,
      "noteName" : "F#2",
      "velocity" : 100,
      "durationTicks" : 56,
      "durationSeconds" : 0.12068956666666963
    }, {
      "type" : "note",
      "tick" : 15000,
      "timeSeconds" : 32.3275625,
      "channel" : 9,
      "noteNumber" : 42,
      "noteName" : "F#2",
      "velocity" : 36,
      "durationTicks" : 46,
      "durationSeconds" : 0.09913785833333577
    }, {
      "type" : "note",
      "tick" : 15120,
      "timeSeconds" : 32.586183,
      "channel" : 9,
      "noteNumber" : 82,
      "noteName" : "A#5",
      "velocity" : 43,
      "durationTicks" : 26,
      "durationSeconds" : 0.056034441666668044
    }, {
      "type" : "note",
      "tick" : 15120,
      "timeSeconds" : 32.586183,
      "channel" : 9,
      "noteNumber" : 42,
      "noteName" : "F#2",
      "velocity" : 95,
      "durationTicks" : 68,
      "durationSeconds" : 0.14655161666667027
    }, {
      "type" : "note",
      "tick" : 15240,
      "timeSeconds" : 32.8448035,
      "channel" : 9,
      "noteNumber" : 70,
      "noteName" : "A#4",
      "velocity" : 37,
      "durationTicks" : 27,
      "durationSeconds" : 0.05818961250000143
    }, {
      "type" : "note",
      "tick" : 15240,
      "timeSeconds" : 32.8448035,
      "channel" : 9,
      "noteNumber" : 82,
      "noteName" : "A#5",
      "velocity" : 57,
      "durationTicks" : 29,
      "durationSeconds" : 0.062499954166668203
    }, {
      "type" : "note",
      "tick" : 15240,
      "timeSeconds" : 32.8448035,
      "channel" : 9,
      "noteNumber" : 42,
      "noteName" : "F#2",
      "velocity" : 30,
      "durationTicks" : 46,
      "durationSeconds" : 0.09913785833333577
    }, {
      "type" : "note",
      "tick" : 15360,
      "timeSeconds" : 33.103424,
      "channel" : 9,
      "noteNumber" : 42,
      "noteName" : "F#2",
      "velocity" : 95,
      "durationTicks" : 59,
      "durationSeconds" : 0.1271550791666698
    }, {
      "type" : "note",
      "tick" : 15480,
      "timeSeconds" : 33.3620445,
      "channel" : 9,
      "noteNumber" : 70,
      "noteName" : "A#4",
      "velocity" : 35,
      "durationTicks" : 23,
      "durationSeconds" : 0.04956892916666078
    }, {
      "type" : "note",
      "tick" : 15480,
      "timeSeconds" : 33.3620445,
      "channel" : 9,
      "noteNumber" : 42,
      "noteName" : "F#2",
      "velocity" : 34,
      "durationTicks" : 30,
      "durationSeconds" : 0.06465512499999448
    }, {
      "type" : "note",
      "tick" : 15600,
      "timeSeconds" : 33.620665,
      "channel" : 9,
      "noteNumber" : 70,
      "noteName" : "A#4",
      "velocity" : 51,
      "durationTicks" : 28,
      "durationSeconds" : 0.06034478333332771
    }, {
      "type" : "note",
      "tick" : 15600,
      "timeSeconds" : 33.620665,
      "channel" : 9,
      "noteNumber" : 69,
      "noteName" : "A4",
      "velocity" : 64,
      "durationTicks" : 35,
      "durationSeconds" : 0.07543097916666142
    }, {
      "type" : "note",
      "tick" : 15600,
      "timeSeconds" : 33.620665,
      "channel" : 9,
      "noteNumber" : 42,
      "noteName" : "F#2",
      "velocity" : 91,
      "durationTicks" : 50,
      "durationSeconds" : 0.10775854166666221
    }, {
      "type" : "note",
      "tick" : 15720,
      "timeSeconds" : 33.8792855,
      "channel" : 9,
      "noteNumber" : 69,
      "noteName" : "A4",
      "velocity" : 57,
      "durationTicks" : 25,
      "durationSeconds" : 0.05387927083333466
    }, {
      "type" : "note",
      "tick" : 15720,
      "timeSeconds" : 33.8792855,
      "channel" : 9,
      "noteNumber" : 70,
      "noteName" : "A#4",
      "velocity" : 36,
      "durationTicks" : 25,
      "durationSeconds" : 0.05387927083333466
    }, {
      "type" : "note",
      "tick" : 15720,
      "timeSeconds" : 33.8792855,
      "channel" : 9,
      "noteNumber" : 42,
      "noteName" : "F#2",
      "velocity" : 35,
      "durationTicks" : 29,
      "durationSeconds" : 0.062499954166668203
    }, {
      "type" : "note",
      "tick" : 15840,
      "timeSeconds" : 34.137906,
      "channel" : 9,
      "noteNumber" : 45,
      "noteName" : "A2",
      "velocity" : 104,
      "durationTicks" : 40,
      "durationSeconds" : 0.08620683333333545
    }, {
      "type" : "note",
      "tick" : 15840,
      "timeSeconds" : 34.137906,
      "channel" : 9,
      "noteNumber" : 40,
      "noteName" : "E2",
      "velocity" : 77,
      "durationTicks" : 60,
      "durationSeconds" : 0.12931024999999607
    }, {
      "type" : "note",
      "tick" : 16020,
      "timeSeconds" : 34.52583675,
      "channel" : 9,
      "noteNumber" : 40,
      "noteName" : "E2",
      "velocity" : 64,
      "durationTicks" : 28,
      "durationSeconds" : 0.06034478333332771
    }, {
      "type" : "note",
      "tick" : 16080,
      "timeSeconds" : 34.655147,
      "channel" : 9,
      "noteNumber" : 82,
      "noteName" : "A#5",
      "velocity" : 45,
      "durationTicks" : 17,
      "durationSeconds" : 0.03663790416666757
    }, {
      "type" : "note",
      "tick" : 16080,
      "timeSeconds" : 34.655147,
      "channel" : 9,
      "noteNumber" : 70,
      "noteName" : "A#4",
      "velocity" : 39,
      "durationTicks" : 22,
      "durationSeconds" : 0.0474137583333345
    }, {
      "type" : "note",
      "tick" : 16080,
      "timeSeconds" : 34.655147,
      "channel" : 9,
      "noteNumber" : 36,
      "noteName" : "C2",
      "velocity" : 122,
      "durationTicks" : 40,
      "durationSeconds" : 0.08620683333333545
    }, {
      "type" : "note",
      "tick" : 16080,
      "timeSeconds" : 34.655147,
      "channel" : 9,
      "noteNumber" : 40,
      "noteName" : "E2",
      "velocity" : 59,
      "durationTicks" : 45,
      "durationSeconds" : 0.09698268750000238
    }, {
      "type" : "note",
      "tick" : 16140,
      "timeSeconds" : 34.78445725,
      "channel" : 9,
      "noteNumber" : 40,
      "noteName" : "E2",
      "velocity" : 88,
      "durationTicks" : 20,
      "durationSeconds" : 0.04310341666666062
    }, {
      "type" : "note",
      "tick" : 16200,
      "timeSeconds" : 34.9137675,
      "channel" : 9,
      "noteNumber" : 45,
      "noteName" : "A2",
      "velocity" : 60,
      "durationTicks" : 25,
      "durationSeconds" : 0.05387927083333466
    }, {
      "type" : "note",
      "tick" : 16200,
      "timeSeconds" : 34.9137675,
      "channel" : 9,
      "noteNumber" : 41,
      "noteName" : "F2",
      "velocity" : 56,
      "durationTicks" : 38,
      "durationSeconds" : 0.08189649166666868
    }, {
      "type" : "note",
      "tick" : 16320,
      "timeSeconds" : 35.172388,
      "channel" : 9,
      "noteNumber" : 49,
      "noteName" : "C#3",
      "velocity" : 100,
      "durationTicks" : 42,
      "durationSeconds" : 0.09051717500000223
    }, {
      "type" : "note",
      "tick" : 16320,
      "timeSeconds" : 35.172388,
      "channel" : 9,
      "noteNumber" : 36,
      "noteName" : "C2",
      "velocity" : 127,
      "durationTicks" : 49,
      "durationSeconds" : 0.10560337083333593
    }, {
      "type" : "note",
      "tick" : 16440,
      "timeSeconds" : 35.4310085,
      "channel" : 9,
      "noteNumber" : 42,
      "noteName" : "F#2",
      "velocity" : 44,
      "durationTicks" : 40,
      "durationSeconds" : 0.08620683333333545
    }, {
      "type" : "note",
      "tick" : 16500,
      "timeSeconds" : 35.56031875,
      "channel" : 9,
      "noteNumber" : 70,
      "noteName" : "A#4",
      "velocity" : 59,
      "durationTicks" : 48,
      "durationSeconds" : 0.10344820000000254
    }, {
      "type" : "note",
      "tick" : 16560,
      "timeSeconds" : 35.689629,
      "channel" : 9,
      "noteNumber" : 42,
      "noteName" : "F#2",
      "velocity" : 104,
      "durationTicks" : 44,
      "durationSeconds" : 0.094827516666669
    }, {
      "type" : "note",
      "tick" : 16680,
      "timeSeconds" : 35.9482495,
      "channel" : 9,
      "noteNumber" : 70,
      "noteName" : "A#4",
      "velocity" : 34,
      "durationTicks" : 35,
      "durationSeconds" : 0.07543097916666142
    }, {
      "type" : "note",
      "tick" : 16680,
      "timeSeconds" : 35.9482495,
      "channel" : 9,
      "noteNumber" : 42,
      "noteName" : "F#2",
      "velocity" : 39,
      "durationTicks" : 42,
      "durationSeconds" : 0.09051717499999512
    }, {
      "type" : "note",
      "tick" : 16800,
      "timeSeconds" : 36.20687,
      "channel" : 9,
      "noteNumber" : 42,
      "noteName" : "F#2",
      "velocity" : 100,
      "durationTicks" : 58,
      "durationSeconds" : 0.1249999083333293
    }, {
      "type" : "note",
      "tick" : 16920,
      "timeSeconds" : 36.4654905,
      "channel" : 9,
      "noteNumber" : 42,
      "noteName" : "F#2",
      "velocity" : 31,
      "durationTicks" : 45,
      "durationSeconds" : 0.09698268749999528
    }, {
      "type" : "note",
      "tick" : 16920,
      "timeSeconds" : 36.4654905,
      "channel" : 9,
      "noteNumber" : 70,
      "noteName" : "A#4",
      "velocity" : 55,
      "durationTicks" : 55,
      "durationSeconds" : 0.11853439583332914
    }, {
      "type" : "note",
      "tick" : 17040,
      "timeSeconds" : 36.724111,
      "channel" : 9,
      "noteNumber" : 70,
      "noteName" : "A#4",
      "velocity" : 57,
      "durationTicks" : 58,
      "durationSeconds" : 0.1249999083333293
    }, {
      "type" : "note",
      "tick" : 17040,
      "timeSeconds" : 36.724111,
      "channel" : 9,
      "noteNumber" : 42,
      "noteName" : "F#2",
      "velocity" : 104,
      "durationTicks" : 60,
      "durationSeconds" : 0.12931024999999607
    }, {
      "type" : "note",
      "tick" : 17160,
      "timeSeconds" : 36.9827315,
      "channel" : 9,
      "noteNumber" : 42,
      "noteName" : "F#2",
      "velocity" : 43,
      "durationTicks" : 47,
      "durationSeconds" : 0.10129302916666916
    }, {
      "type" : "note",
      "tick" : 17160,
      "timeSeconds" : 36.9827315,
      "channel" : 9,
      "noteNumber" : 70,
      "noteName" : "A#4",
      "velocity" : 51,
      "durationTicks" : 51,
      "durationSeconds" : 0.1099137125000027
    }, {
      "type" : "note",
      "tick" : 17280,
      "timeSeconds" : 37.241352,
      "channel" : 9,
      "noteNumber" : 36,
      "noteName" : "C2",
      "velocity" : 127,
      "durationTicks" : 56,
      "durationSeconds" : 0.12068956666666963
    }, {
      "type" : "note",
      "tick" : 17280,
      "timeSeconds" : 37.241352,
      "channel" : 9,
      "noteNumber" : 42,
      "noteName" : "F#2",
      "velocity" : 100,
      "durationTicks" : 58,
      "durationSeconds" : 0.12499990833333641
    }, {
      "type" : "note",
      "tick" : 17400,
      "timeSeconds" : 37.4999725,
      "channel" : 9,
      "noteNumber" : 42,
      "noteName" : "F#2",
      "velocity" : 47,
      "durationTicks" : 57,
      "durationSeconds" : 0.12284473750000302
    }, {
      "type" : "note",
      "tick" : 17520,
      "timeSeconds" : 37.758593,
      "channel" : 9,
      "noteNumber" : 70,
      "noteName" : "A#4",
      "velocity" : 50,
      "durationTicks" : 43,
      "durationSeconds" : 0.09267234583333561
    }, {
      "type" : "note",
      "tick" : 17520,
      "timeSeconds" : 37.758593,
      "channel" : 9,
      "noteNumber" : 42,
      "noteName" : "F#2",
      "velocity" : 104,
      "durationTicks" : 56,
      "durationSeconds" : 0.12068956666666963
    }, {
      "type" : "note",
      "tick" : 17640,
      "timeSeconds" : 38.0172135,
      "channel" : 9,
      "noteNumber" : 70,
      "noteName" : "A#4",
      "velocity" : 57,
      "durationTicks" : 40,
      "durationSeconds" : 0.08620683333333545
    }, {
      "type" : "note",
      "tick" : 17640,
      "timeSeconds" : 38.0172135,
      "channel" : 9,
      "noteNumber" : 42,
      "noteName" : "F#2",
      "velocity" : 42,
      "durationTicks" : 42,
      "durationSeconds" : 0.09051717500000223
    }, {
      "type" : "note",
      "tick" : 17760,
      "timeSeconds" : 38.275834,
      "channel" : 9,
      "noteNumber" : 70,
      "noteName" : "A#4",
      "velocity" : 49,
      "durationTicks" : 37,
      "durationSeconds" : 0.07974132083332819
    }, {
      "type" : "note",
      "tick" : 17760,
      "timeSeconds" : 38.275834,
      "channel" : 9,
      "noteNumber" : 42,
      "noteName" : "F#2",
      "velocity" : 100,
      "durationTicks" : 52,
      "durationSeconds" : 0.11206888333332898
    }, {
      "type" : "note",
      "tick" : 17880,
      "timeSeconds" : 38.5344545,
      "channel" : 9,
      "noteNumber" : 69,
      "noteName" : "A4",
      "velocity" : 67,
      "durationTicks" : 34,
      "durationSeconds" : 0.07327580833332803
    }, {
      "type" : "note",
      "tick" : 17880,
      "timeSeconds" : 38.5344545,
      "channel" : 9,
      "noteNumber" : 42,
      "noteName" : "F#2",
      "velocity" : 32,
      "durationTicks" : 46,
      "durationSeconds" : 0.09913785833332867
    }, {
      "type" : "note",
      "tick" : 18000,
      "timeSeconds" : 38.793075,
      "channel" : 9,
      "noteNumber" : 70,
      "noteName" : "A#4",
      "velocity" : 50,
      "durationTicks" : 43,
      "durationSeconds" : 0.0926723458333285
    }, {
      "type" : "note",
      "tick" : 18000,
      "timeSeconds" : 38.793075,
      "channel" : 9,
      "noteNumber" : 42,
      "noteName" : "F#2",
      "velocity" : 100,
      "durationTicks" : 55,
      "durationSeconds" : 0.11853439583332914
    }, {
      "type" : "note",
      "tick" : 18120,
      "timeSeconds" : 39.0516955,
      "channel" : 9,
      "noteNumber" : 70,
      "noteName" : "A#4",
      "velocity" : 33,
      "durationTicks" : 35,
      "durationSeconds" : 0.07543097916666852
    }, {
      "type" : "note",
      "tick" : 18120,
      "timeSeconds" : 39.0516955,
      "channel" : 9,
      "noteNumber" : 46,
      "noteName" : "A#2",
      "velocity" : 65,
      "durationTicks" : 43,
      "durationSeconds" : 0.09267234583333561
    }, {
      "type" : "note",
      "tick" : 18240,
      "timeSeconds" : 39.310316,
      "channel" : 9,
      "noteNumber" : 42,
      "noteName" : "F#2",
      "velocity" : 104,
      "durationTicks" : 52,
      "durationSeconds" : 0.11206888333333609
    }, {
      "type" : "note",
      "tick" : 18240,
      "timeSeconds" : 39.310316,
      "channel" : 9,
      "noteNumber" : 36,
      "noteName" : "C2",
      "velocity" : 127,
      "durationTicks" : 61,
      "durationSeconds" : 0.13146542083333657
    }, {
      "type" : "note",
      "tick" : 18360,
      "timeSeconds" : 39.5689365,
      "channel" : 9,
      "noteNumber" : 42,
      "noteName" : "F#2",
      "velocity" : 47,
      "durationTicks" : 49,
      "durationSeconds" : 0.10560337083333593
    }, {
      "type" : "note",
      "tick" : 18480,
      "timeSeconds" : 39.827557,
      "channel" : 9,
      "noteNumber" : 70,
      "noteName" : "A#4",
      "velocity" : 41,
      "durationTicks" : 35,
      "durationSeconds" : 0.07543097916666852
    }, {
      "type" : "note",
      "tick" : 18480,
      "timeSeconds" : 39.827557,
      "channel" : 9,
      "noteNumber" : 42,
      "noteName" : "F#2",
      "velocity" : 104,
      "durationTicks" : 55,
      "durationSeconds" : 0.11853439583333625
    }, {
      "type" : "note",
      "tick" : 18600,
      "timeSeconds" : 40.0861775,
      "channel" : 9,
      "noteNumber" : 70,
      "noteName" : "A#4",
      "velocity" : 39,
      "durationTicks" : 44,
      "durationSeconds" : 0.094827516666669
    }, {
      "type" : "note",
      "tick" : 18600,
      "timeSeconds" : 40.0861775,
      "channel" : 9,
      "noteNumber" : 42,
      "noteName" : "F#2",
      "velocity" : 36,
      "durationTicks" : 45,
      "durationSeconds" : 0.09698268750000238
    }, {
      "type" : "note",
      "tick" : 18720,
      "timeSeconds" : 40.344798,
      "channel" : 9,
      "noteNumber" : 42,
      "noteName" : "F#2",
      "velocity" : 100,
      "durationTicks" : 51,
      "durationSeconds" : 0.1099137125000027
    }, {
      "type" : "note",
      "tick" : 18840,
      "timeSeconds" : 40.6034185,
      "channel" : 9,
      "noteNumber" : 42,
      "noteName" : "F#2",
      "velocity" : 29,
      "durationTicks" : 46,
      "durationSeconds" : 0.09913785833333577
    }, {
      "type" : "note",
      "tick" : 18960,
      "timeSeconds" : 40.862039,
      "channel" : 9,
      "noteNumber" : 70,
      "noteName" : "A#4",
      "velocity" : 51,
      "durationTicks" : 24,
      "durationSeconds" : 0.051724099999994166
    }, {
      "type" : "note",
      "tick" : 18960,
      "timeSeconds" : 40.862039,
      "channel" : 9,
      "noteNumber" : 42,
      "noteName" : "F#2",
      "velocity" : 95,
      "durationTicks" : 65,
      "durationSeconds" : 0.140086104166663
    }, {
      "type" : "note",
      "tick" : 19080,
      "timeSeconds" : 41.1206595,
      "channel" : 9,
      "noteNumber" : 70,
      "noteName" : "A#4",
      "velocity" : 50,
      "durationTicks" : 25,
      "durationSeconds" : 0.05387927083333466
    }, {
      "type" : "note",
      "tick" : 19080,
      "timeSeconds" : 41.1206595,
      "channel" : 9,
      "noteNumber" : 42,
      "noteName" : "F#2",
      "velocity" : 43,
      "durationTicks" : 42,
      "durationSeconds" : 0.09051717499999512
    }, {
      "type" : "note",
      "tick" : 19200,
      "timeSeconds" : 41.37928,
      "channel" : 9,
      "noteNumber" : 42,
      "noteName" : "F#2",
      "velocity" : 91,
      "durationTicks" : 62,
      "durationSeconds" : 0.13362059166666285
    }, {
      "type" : "note",
      "tick" : 19200,
      "timeSeconds" : 41.37928,
      "channel" : 9,
      "noteNumber" : 36,
      "noteName" : "C2",
      "velocity" : 127,
      "durationTicks" : 78,
      "durationSeconds" : 0.16810332499999703
    }, {
      "type" : "note",
      "tick" : 19320,
      "timeSeconds" : 41.6379005,
      "channel" : 9,
      "noteNumber" : 42,
      "noteName" : "F#2",
      "velocity" : 36,
      "durationTicks" : 27,
      "durationSeconds" : 0.05818961250000143
    }, {
      "type" : "note",
      "tick" : 19440,
      "timeSeconds" : 41.896521,
      "channel" : 9,
      "noteNumber" : 70,
      "noteName" : "A#4",
      "velocity" : 50,
      "durationTicks" : 33,
      "durationSeconds" : 0.07112063750000175
    }, {
      "type" : "note",
      "tick" : 19440,
      "timeSeconds" : 41.896521,
      "channel" : 9,
      "noteNumber" : 42,
      "noteName" : "F#2",
      "velocity" : 100,
      "durationTicks" : 37,
      "durationSeconds" : 0.0797413208333353
    }, {
      "type" : "note",
      "tick" : 19560,
      "timeSeconds" : 42.1551415,
      "channel" : 9,
      "noteNumber" : 42,
      "noteName" : "F#2",
      "velocity" : 43,
      "durationTicks" : 32,
      "durationSeconds" : 0.06896546666666836
    }, {
      "type" : "note",
      "tick" : 19680,
      "timeSeconds" : 42.413762,
      "channel" : 9,
      "noteNumber" : 70,
      "noteName" : "A#4",
      "velocity" : 63,
      "durationTicks" : 28,
      "durationSeconds" : 0.06034478333333482
    }, {
      "type" : "note",
      "tick" : 19680,
      "timeSeconds" : 42.413762,
      "channel" : 9,
      "noteNumber" : 42,
      "noteName" : "F#2",
      "velocity" : 100,
      "durationTicks" : 41,
      "durationSeconds" : 0.08836200416666884
    }, {
      "type" : "note",
      "tick" : 19680,
      "timeSeconds" : 42.413762,
      "channel" : 9,
      "noteNumber" : 37,
      "noteName" : "C#2",
      "velocity" : 127,
      "durationTicks" : 50,
      "durationSeconds" : 0.10775854166666932
    }, {
      "type" : "note",
      "tick" : 19800,
      "timeSeconds" : 42.6723825,
      "channel" : 9,
      "noteNumber" : 37,
      "noteName" : "C#2",
      "velocity" : 104,
      "durationTicks" : 22,
      "durationSeconds" : 0.0474137583333345
    }, {
      "type" : "note",
      "tick" : 19800,
      "timeSeconds" : 42.6723825,
      "channel" : 9,
      "noteNumber" : 42,
      "noteName" : "F#2",
      "velocity" : 40,
      "durationTicks" : 35,
      "durationSeconds" : 0.07543097916666852
    }, {
      "type" : "note",
      "tick" : 19800,
      "timeSeconds" : 42.6723825,
      "channel" : 9,
      "noteNumber" : 69,
      "noteName" : "A4",
      "velocity" : 71,
      "durationTicks" : 41,
      "durationSeconds" : 0.08836200416666884
    }, {
      "type" : "note",
      "tick" : 19920,
      "timeSeconds" : 42.931003,
      "channel" : 9,
      "noteNumber" : 82,
      "noteName" : "A#5",
      "velocity" : 71,
      "durationTicks" : 31,
      "durationSeconds" : 0.06681029583333498
    }, {
      "type" : "note",
      "tick" : 19920,
      "timeSeconds" : 42.931003,
      "channel" : 9,
      "noteNumber" : 42,
      "noteName" : "F#2",
      "velocity" : 100,
      "durationTicks" : 36,
      "durationSeconds" : 0.07758615000000191
    }, {
      "type" : "note",
      "tick" : 20040,
      "timeSeconds" : 43.1896235,
      "channel" : 9,
      "noteNumber" : 36,
      "noteName" : "C2",
      "velocity" : 73,
      "durationTicks" : 23,
      "durationSeconds" : 0.04956892916666078
    }, {
      "type" : "note",
      "tick" : 20040,
      "timeSeconds" : 43.1896235,
      "channel" : 9,
      "noteNumber" : 70,
      "noteName" : "A#4",
      "velocity" : 36,
      "durationTicks" : 30,
      "durationSeconds" : 0.06465512499999448
    }, {
      "type" : "note",
      "tick" : 20040,
      "timeSeconds" : 43.1896235,
      "channel" : 9,
      "noteNumber" : 42,
      "noteName" : "F#2",
      "velocity" : 49,
      "durationTicks" : 33,
      "durationSeconds" : 0.07112063749999464
    }, {
      "type" : "note",
      "tick" : 20160,
      "timeSeconds" : 43.448244,
      "channel" : 9,
      "noteNumber" : 36,
      "noteName" : "C2",
      "velocity" : 127,
      "durationTicks" : 47,
      "durationSeconds" : 0.10129302916666205
    }, {
      "type" : "note",
      "tick" : 20160,
      "timeSeconds" : 43.448244,
      "channel" : 9,
      "noteNumber" : 42,
      "noteName" : "F#2",
      "velocity" : 110,
      "durationTicks" : 49,
      "durationSeconds" : 0.10560337083332882
    }, {
      "type" : "note",
      "tick" : 20280,
      "timeSeconds" : 43.7068645,
      "channel" : 9,
      "noteNumber" : 42,
      "noteName" : "F#2",
      "velocity" : 37,
      "durationTicks" : 32,
      "durationSeconds" : 0.06896546666666836
    }, {
      "type" : "note",
      "tick" : 20400,
      "timeSeconds" : 43.965485,
      "channel" : 9,
      "noteNumber" : 70,
      "noteName" : "A#4",
      "velocity" : 61,
      "durationTicks" : 26,
      "durationSeconds" : 0.056034441666668044
    }, {
      "type" : "note",
      "tick" : 20400,
      "timeSeconds" : 43.965485,
      "channel" : 9,
      "noteNumber" : 42,
      "noteName" : "F#2",
      "velocity" : 104,
      "durationTicks" : 42,
      "durationSeconds" : 0.09051717500000223
    }, {
      "type" : "note",
      "tick" : 20520,
      "timeSeconds" : 44.2241055,
      "channel" : 9,
      "noteNumber" : 42,
      "noteName" : "F#2",
      "velocity" : 28,
      "durationTicks" : 35,
      "durationSeconds" : 0.07543097916666852
    }, {
      "type" : "note",
      "tick" : 20520,
      "timeSeconds" : 44.2241055,
      "channel" : 9,
      "noteNumber" : 70,
      "noteName" : "A#4",
      "velocity" : 80,
      "durationTicks" : 38,
      "durationSeconds" : 0.08189649166666868
    }, {
      "type" : "note",
      "tick" : 20640,
      "timeSeconds" : 44.482726,
      "channel" : 9,
      "noteNumber" : 42,
      "noteName" : "F#2",
      "velocity" : 104,
      "durationTicks" : 41,
      "durationSeconds" : 0.08836200416666884
    }, {
      "type" : "note",
      "tick" : 20760,
      "timeSeconds" : 44.7413465,
      "channel" : 9,
      "noteNumber" : 42,
      "noteName" : "F#2",
      "velocity" : 34,
      "durationTicks" : 44,
      "durationSeconds" : 0.094827516666669
    }, {
      "type" : "note",
      "tick" : 20760,
      "timeSeconds" : 44.7413465,
      "channel" : 9,
      "noteNumber" : 69,
      "noteName" : "A4",
      "velocity" : 62,
      "durationTicks" : 57,
      "durationSeconds" : 0.12284473750000302
    }, {
      "type" : "note",
      "tick" : 20880,
      "timeSeconds" : 44.999967,
      "channel" : 9,
      "noteNumber" : 70,
      "noteName" : "A#4",
      "velocity" : 83,
      "durationTicks" : 49,
      "durationSeconds" : 0.10560337083333593
    }, {
      "type" : "note",
      "tick" : 20880,
      "timeSeconds" : 44.999967,
      "channel" : 9,
      "noteNumber" : 42,
      "noteName" : "F#2",
      "velocity" : 104,
      "durationTicks" : 49,
      "durationSeconds" : 0.10560337083333593
    }, {
      "type" : "note",
      "tick" : 21000,
      "timeSeconds" : 45.2585875,
      "channel" : 9,
      "noteNumber" : 70,
      "noteName" : "A#4",
      "velocity" : 43,
      "durationTicks" : 28,
      "durationSeconds" : 0.06034478333333482
    }, {
      "type" : "note",
      "tick" : 21000,
      "timeSeconds" : 45.2585875,
      "channel" : 9,
      "noteNumber" : 42,
      "noteName" : "F#2",
      "velocity" : 36,
      "durationTicks" : 41,
      "durationSeconds" : 0.08836200416666884
    }, {
      "type" : "note",
      "tick" : 21120,
      "timeSeconds" : 45.517208,
      "channel" : 9,
      "noteNumber" : 42,
      "noteName" : "F#2",
      "velocity" : 104,
      "durationTicks" : 45,
      "durationSeconds" : 0.09698268750000238
    }, {
      "type" : "note",
      "tick" : 21120,
      "timeSeconds" : 45.517208,
      "channel" : 9,
      "noteNumber" : 36,
      "noteName" : "C2",
      "velocity" : 127,
      "durationTicks" : 60,
      "durationSeconds" : 0.12931025000000318
    }, {
      "type" : "note",
      "tick" : 21240,
      "timeSeconds" : 45.7758285,
      "channel" : 9,
      "noteNumber" : 42,
      "noteName" : "F#2",
      "velocity" : 42,
      "durationTicks" : 34,
      "durationSeconds" : 0.07327580833332803
    }, {
      "type" : "note",
      "tick" : 21360,
      "timeSeconds" : 46.034449,
      "channel" : 9,
      "noteNumber" : 70,
      "noteName" : "A#4",
      "velocity" : 73,
      "durationTicks" : 26,
      "durationSeconds" : 0.056034441666668044
    }, {
      "type" : "note",
      "tick" : 21360,
      "timeSeconds" : 46.034449,
      "channel" : 9,
      "noteNumber" : 42,
      "noteName" : "F#2",
      "velocity" : 104,
      "durationTicks" : 49,
      "durationSeconds" : 0.10560337083332882
    }, {
      "type" : "note",
      "tick" : 21480,
      "timeSeconds" : 46.2930695,
      "channel" : 9,
      "noteNumber" : 70,
      "noteName" : "A#4",
      "velocity" : 53,
      "durationTicks" : 29,
      "durationSeconds" : 0.062499954166668203
    }, {
      "type" : "note",
      "tick" : 21480,
      "timeSeconds" : 46.2930695,
      "channel" : 9,
      "noteNumber" : 42,
      "noteName" : "F#2",
      "velocity" : 43,
      "durationTicks" : 49,
      "durationSeconds" : 0.10560337083332882
    }, {
      "type" : "note",
      "tick" : 21600,
      "timeSeconds" : 46.55169,
      "channel" : 9,
      "noteNumber" : 70,
      "noteName" : "A#4",
      "velocity" : 51,
      "durationTicks" : 24,
      "durationSeconds" : 0.05172410000000127
    }, {
      "type" : "note",
      "tick" : 21600,
      "timeSeconds" : 46.55169,
      "channel" : 9,
      "noteNumber" : 42,
      "noteName" : "F#2",
      "velocity" : 104,
      "durationTicks" : 51,
      "durationSeconds" : 0.1099137125000027
    }, {
      "type" : "note",
      "tick" : 21720,
      "timeSeconds" : 46.8103105,
      "channel" : 9,
      "noteNumber" : 70,
      "noteName" : "A#4",
      "velocity" : 34,
      "durationTicks" : 16,
      "durationSeconds" : 0.03448273333333418
    }, {
      "type" : "note",
      "tick" : 21720,
      "timeSeconds" : 46.8103105,
      "channel" : 9,
      "noteNumber" : 42,
      "noteName" : "F#2",
      "velocity" : 40,
      "durationTicks" : 47,
      "durationSeconds" : 0.10129302916666916
    }, {
      "type" : "note",
      "tick" : 21840,
      "timeSeconds" : 47.068931,
      "channel" : 9,
      "noteNumber" : 70,
      "noteName" : "A#4",
      "velocity" : 39,
      "durationTicks" : 20,
      "durationSeconds" : 0.04310341666666773
    }, {
      "type" : "note",
      "tick" : 21840,
      "timeSeconds" : 47.068931,
      "channel" : 9,
      "noteNumber" : 42,
      "noteName" : "F#2",
      "velocity" : 104,
      "durationTicks" : 47,
      "durationSeconds" : 0.10129302916666916
    }, {
      "type" : "note",
      "tick" : 21960,
      "timeSeconds" : 47.3275515,
      "channel" : 9,
      "noteNumber" : 70,
      "noteName" : "A#4",
      "velocity" : 33,
      "durationTicks" : 20,
      "durationSeconds" : 0.04310341666666773
    }, {
      "type" : "note",
      "tick" : 21960,
      "timeSeconds" : 47.3275515,
      "channel" : 9,
      "noteNumber" : 82,
      "noteName" : "A#5",
      "velocity" : 73,
      "durationTicks" : 26,
      "durationSeconds" : 0.056034441666668044
    }, {
      "type" : "note",
      "tick" : 21960,
      "timeSeconds" : 47.3275515,
      "channel" : 9,
      "noteNumber" : 46,
      "noteName" : "A#2",
      "velocity" : 53,
      "durationTicks" : 29,
      "durationSeconds" : 0.062499954166668203
    }, {
      "type" : "note",
      "tick" : 22080,
      "timeSeconds" : 47.586172,
      "channel" : 9,
      "noteNumber" : 70,
      "noteName" : "A#4",
      "velocity" : 46,
      "durationTicks" : 28,
      "durationSeconds" : 0.06034478333333482
    }, {
      "type" : "note",
      "tick" : 22080,
      "timeSeconds" : 47.586172,
      "channel" : 9,
      "noteNumber" : 42,
      "noteName" : "F#2",
      "velocity" : 104,
      "durationTicks" : 41,
      "durationSeconds" : 0.08836200416666884
    }, {
      "type" : "note",
      "tick" : 22080,
      "timeSeconds" : 47.586172,
      "channel" : 9,
      "noteNumber" : 36,
      "noteName" : "C2",
      "velocity" : 127,
      "durationTicks" : 56,
      "durationSeconds" : 0.12068956666666963
    }, {
      "type" : "note",
      "tick" : 22200,
      "timeSeconds" : 47.8447925,
      "channel" : 9,
      "noteNumber" : 70,
      "noteName" : "A#4",
      "velocity" : 41,
      "durationTicks" : 20,
      "durationSeconds" : 0.04310341666666773
    }, {
      "type" : "note",
      "tick" : 22200,
      "timeSeconds" : 47.8447925,
      "channel" : 9,
      "noteNumber" : 42,
      "noteName" : "F#2",
      "velocity" : 47,
      "durationTicks" : 45,
      "durationSeconds" : 0.09698268750000238
    }, {
      "type" : "note",
      "tick" : 22320,
      "timeSeconds" : 48.103413,
      "channel" : 9,
      "noteNumber" : 70,
      "noteName" : "A#4",
      "velocity" : 63,
      "durationTicks" : 27,
      "durationSeconds" : 0.058189612499994325
    }, {
      "type" : "note",
      "tick" : 22320,
      "timeSeconds" : 48.103413,
      "channel" : 9,
      "noteNumber" : 42,
      "noteName" : "F#2",
      "velocity" : 104,
      "durationTicks" : 52,
      "durationSeconds" : 0.11206888333332898
    }, {
      "type" : "note",
      "tick" : 22440,
      "timeSeconds" : 48.3620335,
      "channel" : 9,
      "noteNumber" : 70,
      "noteName" : "A#4",
      "velocity" : 80,
      "durationTicks" : 39,
      "durationSeconds" : 0.08405166249999496
    }, {
      "type" : "note",
      "tick" : 22440,
      "timeSeconds" : 48.3620335,
      "channel" : 9,
      "noteNumber" : 42,
      "noteName" : "F#2",
      "velocity" : 45,
      "durationTicks" : 39,
      "durationSeconds" : 0.08405166249999496
    }, {
      "type" : "note",
      "tick" : 22560,
      "timeSeconds" : 48.620654,
      "channel" : 9,
      "noteNumber" : 42,
      "noteName" : "F#2",
      "velocity" : 100,
      "durationTicks" : 37,
      "durationSeconds" : 0.07974132083332819
    }, {
      "type" : "note",
      "tick" : 22680,
      "timeSeconds" : 48.8792745,
      "channel" : 9,
      "noteNumber" : 42,
      "noteName" : "F#2",
      "velocity" : 36,
      "durationTicks" : 54,
      "durationSeconds" : 0.11637922499999576
    }, {
      "type" : "note",
      "tick" : 22800,
      "timeSeconds" : 49.137895,
      "channel" : 9,
      "noteNumber" : 70,
      "noteName" : "A#4",
      "velocity" : 33,
      "durationTicks" : 22,
      "durationSeconds" : 0.0474137583333345
    }, {
      "type" : "note",
      "tick" : 22800,
      "timeSeconds" : 49.137895,
      "channel" : 9,
      "noteNumber" : 42,
      "noteName" : "F#2",
      "velocity" : 100,
      "durationTicks" : 55,
      "durationSeconds" : 0.11853439583333625
    }, {
      "type" : "note",
      "tick" : 22920,
      "timeSeconds" : 49.3965155,
      "channel" : 9,
      "noteNumber" : 70,
      "noteName" : "A#4",
      "velocity" : 57,
      "durationTicks" : 28,
      "durationSeconds" : 0.06034478333333482
    }, {
      "type" : "note",
      "tick" : 22920,
      "timeSeconds" : 49.3965155,
      "channel" : 9,
      "noteNumber" : 42,
      "noteName" : "F#2",
      "velocity" : 35,
      "durationTicks" : 33,
      "durationSeconds" : 0.07112063750000175
    }, {
      "type" : "note",
      "tick" : 23048,
      "timeSeconds" : 49.672377366666666,
      "channel" : 9,
      "noteNumber" : 70,
      "noteName" : "A#4",
      "velocity" : 50,
      "durationTicks" : 25,
      "durationSeconds" : 0.05387927083333466
    }, {
      "type" : "note",
      "tick" : 23040,
      "timeSeconds" : 49.655136,
      "channel" : 9,
      "noteNumber" : 42,
      "noteName" : "F#2",
      "velocity" : 104,
      "durationTicks" : 48,
      "durationSeconds" : 0.10344820000000254
    }, {
      "type" : "note",
      "tick" : 23040,
      "timeSeconds" : 49.655136,
      "channel" : 9,
      "noteNumber" : 36,
      "noteName" : "C2",
      "velocity" : 127,
      "durationTicks" : 52,
      "durationSeconds" : 0.11206888333333609
    }, {
      "type" : "note",
      "tick" : 23160,
      "timeSeconds" : 49.9137565,
      "channel" : 9,
      "noteNumber" : 42,
      "noteName" : "F#2",
      "velocity" : 39,
      "durationTicks" : 41,
      "durationSeconds" : 0.08836200416666884
    }, {
      "type" : "note",
      "tick" : 23280,
      "timeSeconds" : 50.172377,
      "channel" : 9,
      "noteNumber" : 70,
      "noteName" : "A#4",
      "velocity" : 63,
      "durationTicks" : 30,
      "durationSeconds" : 0.06465512500000159
    }, {
      "type" : "note",
      "tick" : 23280,
      "timeSeconds" : 50.172377,
      "channel" : 9,
      "noteNumber" : 42,
      "noteName" : "F#2",
      "velocity" : 104,
      "durationTicks" : 61,
      "durationSeconds" : 0.13146542083333657
    }, {
      "type" : "note",
      "tick" : 23400,
      "timeSeconds" : 50.4309975,
      "channel" : 9,
      "noteNumber" : 42,
      "noteName" : "F#2",
      "velocity" : 30,
      "durationTicks" : 26,
      "durationSeconds" : 0.056034441666668044
    }, {
      "type" : "note",
      "tick" : 23400,
      "timeSeconds" : 50.4309975,
      "channel" : 9,
      "noteNumber" : 70,
      "noteName" : "A#4",
      "velocity" : 53,
      "durationTicks" : 29,
      "durationSeconds" : 0.062499954166668203
    }, {
      "type" : "note",
      "tick" : 23520,
      "timeSeconds" : 50.689618,
      "channel" : 9,
      "noteNumber" : 70,
      "noteName" : "A#4",
      "velocity" : 50,
      "durationTicks" : 37,
      "durationSeconds" : 0.07974132083332819
    }, {
      "type" : "note",
      "tick" : 23520,
      "timeSeconds" : 50.689618,
      "channel" : 9,
      "noteNumber" : 42,
      "noteName" : "F#2",
      "velocity" : 104,
      "durationTicks" : 55,
      "durationSeconds" : 0.11853439583332914
    }, {
      "type" : "note",
      "tick" : 23640,
      "timeSeconds" : 50.9482385,
      "channel" : 9,
      "noteNumber" : 69,
      "noteName" : "A4",
      "velocity" : 108,
      "durationTicks" : 32,
      "durationSeconds" : 0.06896546666666126
    }, {
      "type" : "note",
      "tick" : 23640,
      "timeSeconds" : 50.9482385,
      "channel" : 9,
      "noteNumber" : 42,
      "noteName" : "F#2",
      "velocity" : 35,
      "durationTicks" : 42,
      "durationSeconds" : 0.09051717499999512
    }, {
      "type" : "note",
      "tick" : 23760,
      "timeSeconds" : 51.206859,
      "channel" : 9,
      "noteNumber" : 70,
      "noteName" : "A#4",
      "velocity" : 63,
      "durationTicks" : 35,
      "durationSeconds" : 0.07543097916666852
    }, {
      "type" : "note",
      "tick" : 23760,
      "timeSeconds" : 51.206859,
      "channel" : 9,
      "noteNumber" : 42,
      "noteName" : "F#2",
      "velocity" : 83,
      "durationTicks" : 42,
      "durationSeconds" : 0.09051717499999512
    }, {
      "type" : "note",
      "tick" : 23760,
      "timeSeconds" : 51.206859,
      "channel" : 9,
      "noteNumber" : 36,
      "noteName" : "C2",
      "velocity" : 66,
      "durationTicks" : 50,
      "durationSeconds" : 0.10775854166666221
    }, {
      "type" : "note",
      "tick" : 23880,
      "timeSeconds" : 51.4654795,
      "channel" : 9,
      "noteNumber" : 49,
      "noteName" : "C#3",
      "velocity" : 91,
      "durationTicks" : 18,
      "durationSeconds" : 0.038793075000000954
    }, {
      "type" : "note",
      "tick" : 23880,
      "timeSeconds" : 51.4654795,
      "channel" : 9,
      "noteNumber" : 46,
      "noteName" : "A#2",
      "velocity" : 100,
      "durationTicks" : 25,
      "durationSeconds" : 0.05387927083333466
    }, {
      "type" : "note",
      "tick" : 23880,
      "timeSeconds" : 51.4654795,
      "channel" : 9,
      "noteNumber" : 70,
      "noteName" : "A#4",
      "velocity" : 46,
      "durationTicks" : 33,
      "durationSeconds" : 0.07112063750000175
    }, {
      "type" : "note",
      "tick" : 23880,
      "timeSeconds" : 51.4654795,
      "channel" : 9,
      "noteNumber" : 40,
      "noteName" : "E2",
      "velocity" : 127,
      "durationTicks" : 40,
      "durationSeconds" : 0.08620683333333545
    }, {
      "type" : "note",
      "tick" : 24000,
      "timeSeconds" : 51.7241,
      "channel" : 9,
      "noteNumber" : 70,
      "noteName" : "A#4",
      "velocity" : 55,
      "durationTicks" : 40,
      "durationSeconds" : 0.08620683333333545
    }, {
      "type" : "note",
      "tick" : 24000,
      "timeSeconds" : 51.7241,
      "channel" : 9,
      "noteNumber" : 42,
      "noteName" : "F#2",
      "velocity" : 71,
      "durationTicks" : 51,
      "durationSeconds" : 0.1099137125000027
    }, {
      "type" : "note",
      "tick" : 24120,
      "timeSeconds" : 51.9827205,
      "channel" : 9,
      "noteNumber" : 70,
      "noteName" : "A#4",
      "velocity" : 40,
      "durationTicks" : 28,
      "durationSeconds" : 0.06034478333333482
    }, {
      "type" : "note",
      "tick" : 24120,
      "timeSeconds" : 51.9827205,
      "channel" : 9,
      "noteNumber" : 42,
      "noteName" : "F#2",
      "velocity" : 43,
      "durationTicks" : 41,
      "durationSeconds" : 0.08836200416666884
    }, {
      "type" : "note",
      "tick" : 24240,
      "timeSeconds" : 52.241341,
      "channel" : 9,
      "noteNumber" : 70,
      "noteName" : "A#4",
      "velocity" : 47,
      "durationTicks" : 27,
      "durationSeconds" : 0.05818961250000143
    }, {
      "type" : "note",
      "tick" : 24240,
      "timeSeconds" : 52.241341,
      "channel" : 9,
      "noteNumber" : 42,
      "noteName" : "F#2",
      "velocity" : 104,
      "durationTicks" : 51,
      "durationSeconds" : 0.1099137125000027
    }, {
      "type" : "note",
      "tick" : 24360,
      "timeSeconds" : 52.4999615,
      "channel" : 9,
      "noteNumber" : 70,
      "noteName" : "A#4",
      "velocity" : 49,
      "durationTicks" : 35,
      "durationSeconds" : 0.07543097916666852
    }, {
      "type" : "note",
      "tick" : 24360,
      "timeSeconds" : 52.4999615,
      "channel" : 9,
      "noteNumber" : 42,
      "noteName" : "F#2",
      "velocity" : 71,
      "durationTicks" : 41,
      "durationSeconds" : 0.08836200416666884
    }, {
      "type" : "note",
      "tick" : 24480,
      "timeSeconds" : 52.758582,
      "channel" : 9,
      "noteNumber" : 42,
      "noteName" : "F#2",
      "velocity" : 104,
      "durationTicks" : 53,
      "durationSeconds" : 0.11422405416666948
    }, {
      "type" : "note",
      "tick" : 24480,
      "timeSeconds" : 52.758582,
      "channel" : 9,
      "noteNumber" : 36,
      "noteName" : "C2",
      "velocity" : 127,
      "durationTicks" : 55,
      "durationSeconds" : 0.11853439583333625
    }, {
      "type" : "note",
      "tick" : 24600,
      "timeSeconds" : 53.0172025,
      "channel" : 9,
      "noteNumber" : 70,
      "noteName" : "A#4",
      "velocity" : 47,
      "durationTicks" : 23,
      "durationSeconds" : 0.04956892916666078
    }, {
      "type" : "note",
      "tick" : 24600,
      "timeSeconds" : 53.0172025,
      "channel" : 9,
      "noteNumber" : 42,
      "noteName" : "F#2",
      "velocity" : 65,
      "durationTicks" : 38,
      "durationSeconds" : 0.08189649166666157
    }, {
      "type" : "note",
      "tick" : 24720,
      "timeSeconds" : 53.275823,
      "channel" : 9,
      "noteNumber" : 70,
      "noteName" : "A#4",
      "velocity" : 51,
      "durationTicks" : 34,
      "durationSeconds" : 0.07327580833332803
    }, {
      "type" : "note",
      "tick" : 24720,
      "timeSeconds" : 53.275823,
      "channel" : 9,
      "noteNumber" : 42,
      "noteName" : "F#2",
      "velocity" : 104,
      "durationTicks" : 50,
      "durationSeconds" : 0.10775854166666221
    }, {
      "type" : "note",
      "tick" : 24840,
      "timeSeconds" : 53.5344435,
      "channel" : 9,
      "noteNumber" : 82,
      "noteName" : "A#5",
      "velocity" : 50,
      "durationTicks" : 35,
      "durationSeconds" : 0.07543097916666142
    }, {
      "type" : "note",
      "tick" : 24840,
      "timeSeconds" : 53.5344435,
      "channel" : 9,
      "noteNumber" : 42,
      "noteName" : "F#2",
      "velocity" : 49,
      "durationTicks" : 35,
      "durationSeconds" : 0.07543097916666142
    }, {
      "type" : "note",
      "tick" : 24960,
      "timeSeconds" : 53.793064,
      "channel" : 9,
      "noteNumber" : 70,
      "noteName" : "A#4",
      "velocity" : 45,
      "durationTicks" : 28,
      "durationSeconds" : 0.06034478333333482
    }, {
      "type" : "note",
      "tick" : 24960,
      "timeSeconds" : 53.793064,
      "channel" : 9,
      "noteNumber" : 36,
      "noteName" : "C2",
      "velocity" : 127,
      "durationTicks" : 38,
      "durationSeconds" : 0.08189649166666868
    }, {
      "type" : "note",
      "tick" : 24960,
      "timeSeconds" : 53.793064,
      "channel" : 9,
      "noteNumber" : 42,
      "noteName" : "F#2",
      "velocity" : 104,
      "durationTicks" : 54,
      "durationSeconds" : 0.11637922499999576
    }, {
      "type" : "note",
      "tick" : 25080,
      "timeSeconds" : 54.0516845,
      "channel" : 9,
      "noteNumber" : 70,
      "noteName" : "A#4",
      "velocity" : 37,
      "durationTicks" : 30,
      "durationSeconds" : 0.06465512500000159
    }, {
      "type" : "note",
      "tick" : 25080,
      "timeSeconds" : 54.0516845,
      "channel" : 9,
      "noteNumber" : 42,
      "noteName" : "F#2",
      "velocity" : 36,
      "durationTicks" : 35,
      "durationSeconds" : 0.07543097916666852
    }, {
      "type" : "note",
      "tick" : 25200,
      "timeSeconds" : 54.310305,
      "channel" : 9,
      "noteNumber" : 42,
      "noteName" : "F#2",
      "velocity" : 100,
      "durationTicks" : 54,
      "durationSeconds" : 0.11637922500000286
    }, {
      "type" : "note",
      "tick" : 25320,
      "timeSeconds" : 54.5689255,
      "channel" : 9,
      "noteNumber" : 70,
      "noteName" : "A#4",
      "velocity" : 57,
      "durationTicks" : 39,
      "durationSeconds" : 0.08405166250000207
    }, {
      "type" : "note",
      "tick" : 25320,
      "timeSeconds" : 54.5689255,
      "channel" : 9,
      "noteNumber" : 42,
      "noteName" : "F#2",
      "velocity" : 47,
      "durationTicks" : 39,
      "durationSeconds" : 0.08405166250000207
    }, {
      "type" : "note",
      "tick" : 25440,
      "timeSeconds" : 54.827546,
      "channel" : 9,
      "noteNumber" : 70,
      "noteName" : "A#4",
      "velocity" : 30,
      "durationTicks" : 15,
      "durationSeconds" : 0.032327562500000795
    }, {
      "type" : "note",
      "tick" : 25440,
      "timeSeconds" : 54.827546,
      "channel" : 9,
      "noteNumber" : 42,
      "noteName" : "F#2",
      "velocity" : 100,
      "durationTicks" : 58,
      "durationSeconds" : 0.12499990833333641
    }, {
      "type" : "note",
      "tick" : 25560,
      "timeSeconds" : 55.0861665,
      "channel" : 9,
      "noteNumber" : 70,
      "noteName" : "A#4",
      "velocity" : 44,
      "durationTicks" : 28,
      "durationSeconds" : 0.06034478333333482
    }, {
      "type" : "note",
      "tick" : 25560,
      "timeSeconds" : 55.0861665,
      "channel" : 9,
      "noteNumber" : 42,
      "noteName" : "F#2",
      "velocity" : 38,
      "durationTicks" : 61,
      "durationSeconds" : 0.13146542083333657
    }, {
      "type" : "note",
      "tick" : 25680,
      "timeSeconds" : 55.344787,
      "channel" : 9,
      "noteNumber" : 70,
      "noteName" : "A#4",
      "velocity" : 53,
      "durationTicks" : 38,
      "durationSeconds" : 0.08189649166666868
    }, {
      "type" : "note",
      "tick" : 25680,
      "timeSeconds" : 55.344787,
      "channel" : 9,
      "noteNumber" : 42,
      "noteName" : "F#2",
      "velocity" : 100,
      "durationTicks" : 54,
      "durationSeconds" : 0.11637922500000286
    }, {
      "type" : "note",
      "tick" : 25800,
      "timeSeconds" : 55.6034075,
      "channel" : 9,
      "noteNumber" : 42,
      "noteName" : "F#2",
      "velocity" : 42,
      "durationTicks" : 35,
      "durationSeconds" : 0.07543097916666142
    }, {
      "type" : "note",
      "tick" : 25800,
      "timeSeconds" : 55.6034075,
      "channel" : 9,
      "noteNumber" : 69,
      "noteName" : "A4",
      "velocity" : 79,
      "durationTicks" : 49,
      "durationSeconds" : 0.10560337083332882
    }, {
      "type" : "note",
      "tick" : 25920,
      "timeSeconds" : 55.862028,
      "channel" : 9,
      "noteNumber" : 70,
      "noteName" : "A#4",
      "velocity" : 53,
      "durationTicks" : 35,
      "durationSeconds" : 0.07543097916666142
    }, {
      "type" : "note",
      "tick" : 25920,
      "timeSeconds" : 55.862028,
      "channel" : 9,
      "noteNumber" : 42,
      "noteName" : "F#2",
      "velocity" : 104,
      "durationTicks" : 55,
      "durationSeconds" : 0.11853439583332914
    }, {
      "type" : "note",
      "tick" : 25920,
      "timeSeconds" : 55.862028,
      "channel" : 9,
      "noteNumber" : 36,
      "noteName" : "C2",
      "velocity" : 127,
      "durationTicks" : 57,
      "durationSeconds" : 0.12284473749999592
    }, {
      "type" : "note",
      "tick" : 26040,
      "timeSeconds" : 56.1206485,
      "channel" : 9,
      "noteNumber" : 70,
      "noteName" : "A#4",
      "velocity" : 44,
      "durationTicks" : 29,
      "durationSeconds" : 0.062499954166668203
    }, {
      "type" : "note",
      "tick" : 26040,
      "timeSeconds" : 56.1206485,
      "channel" : 9,
      "noteNumber" : 42,
      "noteName" : "F#2",
      "velocity" : 47,
      "durationTicks" : 40,
      "durationSeconds" : 0.08620683333332835
    }, {
      "type" : "note",
      "tick" : 26160,
      "timeSeconds" : 56.379269,
      "channel" : 9,
      "noteNumber" : 70,
      "noteName" : "A#4",
      "velocity" : 55,
      "durationTicks" : 46,
      "durationSeconds" : 0.09913785833333577
    }, {
      "type" : "note",
      "tick" : 26160,
      "timeSeconds" : 56.379269,
      "channel" : 9,
      "noteNumber" : 42,
      "noteName" : "F#2",
      "velocity" : 104,
      "durationTicks" : 59,
      "durationSeconds" : 0.1271550791666627
    }, {
      "type" : "note",
      "tick" : 26280,
      "timeSeconds" : 56.6378895,
      "channel" : 9,
      "noteNumber" : 70,
      "noteName" : "A#4",
      "velocity" : 42,
      "durationTicks" : 35,
      "durationSeconds" : 0.07543097916666852
    }, {
      "type" : "note",
      "tick" : 26280,
      "timeSeconds" : 56.6378895,
      "channel" : 9,
      "noteNumber" : 42,
      "noteName" : "F#2",
      "velocity" : 46,
      "durationTicks" : 47,
      "durationSeconds" : 0.10129302916666916
    }, {
      "type" : "note",
      "tick" : 26400,
      "timeSeconds" : 56.89651,
      "channel" : 9,
      "noteNumber" : 70,
      "noteName" : "A#4",
      "velocity" : 35,
      "durationTicks" : 21,
      "durationSeconds" : 0.04525858750000111
    }, {
      "type" : "note",
      "tick" : 26400,
      "timeSeconds" : 56.89651,
      "channel" : 9,
      "noteNumber" : 42,
      "noteName" : "F#2",
      "velocity" : 104,
      "durationTicks" : 58,
      "durationSeconds" : 0.12499990833333641
    }, {
      "type" : "note",
      "tick" : 26520,
      "timeSeconds" : 57.1551305,
      "channel" : 9,
      "noteNumber" : 70,
      "noteName" : "A#4",
      "velocity" : 30,
      "durationTicks" : 15,
      "durationSeconds" : 0.032327562500000795
    }, {
      "type" : "note",
      "tick" : 26520,
      "timeSeconds" : 57.1551305,
      "channel" : 9,
      "noteNumber" : 42,
      "noteName" : "F#2",
      "velocity" : 30,
      "durationTicks" : 30,
      "durationSeconds" : 0.06465512500000159
    }, {
      "type" : "note",
      "tick" : 26640,
      "timeSeconds" : 57.413751,
      "channel" : 9,
      "noteNumber" : 42,
      "noteName" : "F#2",
      "velocity" : 104,
      "durationTicks" : 62,
      "durationSeconds" : 0.13362059166666995
    }, {
      "type" : "note",
      "tick" : 26760,
      "timeSeconds" : 57.6723715,
      "channel" : 9,
      "noteNumber" : 70,
      "noteName" : "A#4",
      "velocity" : 50,
      "durationTicks" : 29,
      "durationSeconds" : 0.062499954166668203
    }, {
      "type" : "note",
      "tick" : 26760,
      "timeSeconds" : 57.6723715,
      "channel" : 9,
      "noteNumber" : 42,
      "noteName" : "F#2",
      "velocity" : 40,
      "durationTicks" : 42,
      "durationSeconds" : 0.09051717500000223
    }, {
      "type" : "note",
      "tick" : 26880,
      "timeSeconds" : 57.930992,
      "channel" : 9,
      "noteNumber" : 70,
      "noteName" : "A#4",
      "velocity" : 35,
      "durationTicks" : 20,
      "durationSeconds" : 0.04310341666666062
    }, {
      "type" : "note",
      "tick" : 26880,
      "timeSeconds" : 57.930992,
      "channel" : 9,
      "noteNumber" : 36,
      "noteName" : "C2",
      "velocity" : 127,
      "durationTicks" : 46,
      "durationSeconds" : 0.09913785833332867
    }, {
      "type" : "note",
      "tick" : 26880,
      "timeSeconds" : 57.930992,
      "channel" : 9,
      "noteNumber" : 42,
      "noteName" : "F#2",
      "velocity" : 100,
      "durationTicks" : 49,
      "durationSeconds" : 0.10560337083332882
    }, {
      "type" : "note",
      "tick" : 27000,
      "timeSeconds" : 58.1896125,
      "channel" : 9,
      "noteNumber" : 70,
      "noteName" : "A#4",
      "velocity" : 32,
      "durationTicks" : 25,
      "durationSeconds" : 0.05387927083332755
    }, {
      "type" : "note",
      "tick" : 27000,
      "timeSeconds" : 58.1896125,
      "channel" : 9,
      "noteNumber" : 42,
      "noteName" : "F#2",
      "velocity" : 38,
      "durationTicks" : 39,
      "durationSeconds" : 0.08405166249999496
    }, {
      "type" : "note",
      "tick" : 27120,
      "timeSeconds" : 58.448233,
      "channel" : 9,
      "noteNumber" : 70,
      "noteName" : "A#4",
      "velocity" : 44,
      "durationTicks" : 35,
      "durationSeconds" : 0.07543097916666142
    }, {
      "type" : "note",
      "tick" : 27120,
      "timeSeconds" : 58.448233,
      "channel" : 9,
      "noteNumber" : 42,
      "noteName" : "F#2",
      "velocity" : 104,
      "durationTicks" : 61,
      "durationSeconds" : 0.13146542083332946
    }, {
      "type" : "note",
      "tick" : 27240,
      "timeSeconds" : 58.7068535,
      "channel" : 9,
      "noteNumber" : 70,
      "noteName" : "A#4",
      "velocity" : 30,
      "durationTicks" : 25,
      "durationSeconds" : 0.05387927083333466
    }, {
      "type" : "note",
      "tick" : 27240,
      "timeSeconds" : 58.7068535,
      "channel" : 9,
      "noteNumber" : 42,
      "noteName" : "F#2",
      "velocity" : 36,
      "durationTicks" : 43,
      "durationSeconds" : 0.09267234583333561
    }, {
      "type" : "note",
      "tick" : 27360,
      "timeSeconds" : 58.965474,
      "channel" : 9,
      "noteNumber" : 70,
      "noteName" : "A#4",
      "velocity" : 39,
      "durationTicks" : 22,
      "durationSeconds" : 0.0474137583333345
    }, {
      "type" : "note",
      "tick" : 27360,
      "timeSeconds" : 58.965474,
      "channel" : 9,
      "noteNumber" : 42,
      "noteName" : "F#2",
      "velocity" : 104,
      "durationTicks" : 57,
      "durationSeconds" : 0.12284473750000302
    }, {
      "type" : "note",
      "tick" : 27480,
      "timeSeconds" : 59.2240945,
      "channel" : 9,
      "noteNumber" : 42,
      "noteName" : "F#2",
      "velocity" : 36,
      "durationTicks" : 38,
      "durationSeconds" : 0.08189649166666868
    }, {
      "type" : "note",
      "tick" : 27480,
      "timeSeconds" : 59.2240945,
      "channel" : 9,
      "noteNumber" : 70,
      "noteName" : "A#4",
      "velocity" : 76,
      "durationTicks" : 39,
      "durationSeconds" : 0.08405166250000207
    }, {
      "type" : "note",
      "tick" : 27600,
      "timeSeconds" : 59.482715,
      "channel" : 9,
      "noteNumber" : 82,
      "noteName" : "A#5",
      "velocity" : 71,
      "durationTicks" : 31,
      "durationSeconds" : 0.06681029583333498
    }, {
      "type" : "note",
      "tick" : 27600,
      "timeSeconds" : 59.482715,
      "channel" : 9,
      "noteNumber" : 70,
      "noteName" : "A#4",
      "velocity" : 73,
      "durationTicks" : 37,
      "durationSeconds" : 0.0797413208333353
    }, {
      "type" : "note",
      "tick" : 27600,
      "timeSeconds" : 59.482715,
      "channel" : 9,
      "noteNumber" : 42,
      "noteName" : "F#2",
      "velocity" : 95,
      "durationTicks" : 44,
      "durationSeconds" : 0.094827516666669
    }, {
      "type" : "note",
      "tick" : 27720,
      "timeSeconds" : 59.7413355,
      "channel" : 9,
      "noteNumber" : 70,
      "noteName" : "A#4",
      "velocity" : 47,
      "durationTicks" : 21,
      "durationSeconds" : 0.04525858750000111
    }, {
      "type" : "note",
      "tick" : 27720,
      "timeSeconds" : 59.7413355,
      "channel" : 9,
      "noteNumber" : 46,
      "noteName" : "A#2",
      "velocity" : 104,
      "durationTicks" : 32,
      "durationSeconds" : 0.06896546666666836
    }, {
      "type" : "note",
      "tick" : 27720,
      "timeSeconds" : 59.7413355,
      "channel" : 9,
      "noteNumber" : 40,
      "noteName" : "E2",
      "velocity" : 127,
      "durationTicks" : 38,
      "durationSeconds" : 0.08189649166666868
    }, {
      "type" : "note",
      "tick" : 27840,
      "timeSeconds" : 59.999956,
      "channel" : 9,
      "noteNumber" : 70,
      "noteName" : "A#4",
      "velocity" : 63,
      "durationTicks" : 23,
      "durationSeconds" : 0.049568929166667886
    }, {
      "type" : "note",
      "tick" : 27840,
      "timeSeconds" : 59.999956,
      "channel" : 9,
      "noteNumber" : 36,
      "noteName" : "C2",
      "velocity" : 127,
      "durationTicks" : 46,
      "durationSeconds" : 0.09913785833333577
    }, {
      "type" : "note",
      "tick" : 27840,
      "timeSeconds" : 59.999956,
      "channel" : 9,
      "noteNumber" : 42,
      "noteName" : "F#2",
      "velocity" : 104,
      "durationTicks" : 50,
      "durationSeconds" : 0.10775854166666932
    }, {
      "type" : "note",
      "tick" : 27960,
      "timeSeconds" : 60.2585765,
      "channel" : 9,
      "noteNumber" : 70,
      "noteName" : "A#4",
      "velocity" : 61,
      "durationTicks" : 17,
      "durationSeconds" : 0.03663790416666757
    }, {
      "type" : "note",
      "tick" : 27960,
      "timeSeconds" : 60.2585765,
      "channel" : 9,
      "noteNumber" : 42,
      "noteName" : "F#2",
      "velocity" : 51,
      "durationTicks" : 42,
      "durationSeconds" : 0.09051717500000223
    }, {
      "type" : "note",
      "tick" : 28080,
      "timeSeconds" : 60.517197,
      "channel" : 9,
      "noteNumber" : 69,
      "noteName" : "A4",
      "velocity" : 59,
      "durationTicks" : 52,
      "durationSeconds" : 0.11206888333332898
    }, {
      "type" : "note",
      "tick" : 28080,
      "timeSeconds" : 60.517197,
      "channel" : 9,
      "noteNumber" : 42,
      "noteName" : "F#2",
      "velocity" : 100,
      "durationTicks" : 56,
      "durationSeconds" : 0.12068956666666253
    }, {
      "type" : "note",
      "tick" : 28200,
      "timeSeconds" : 60.7758175,
      "channel" : 9,
      "noteNumber" : 69,
      "noteName" : "A4",
      "velocity" : 57,
      "durationTicks" : 48,
      "durationSeconds" : 0.10344819999999544
    }, {
      "type" : "note",
      "tick" : 28200,
      "timeSeconds" : 60.7758175,
      "channel" : 9,
      "noteNumber" : 42,
      "noteName" : "F#2",
      "velocity" : 46,
      "durationTicks" : 49,
      "durationSeconds" : 0.10560337083332882
    }, {
      "type" : "note",
      "tick" : 28320,
      "timeSeconds" : 61.034438,
      "channel" : 9,
      "noteNumber" : 70,
      "noteName" : "A#4",
      "velocity" : 29,
      "durationTicks" : 24,
      "durationSeconds" : 0.05172410000000127
    }, {
      "type" : "note",
      "tick" : 28320,
      "timeSeconds" : 61.034438,
      "channel" : 9,
      "noteNumber" : 42,
      "noteName" : "F#2",
      "velocity" : 110,
      "durationTicks" : 62,
      "durationSeconds" : 0.13362059166666285
    }, {
      "type" : "note",
      "tick" : 28440,
      "timeSeconds" : 61.2930585,
      "channel" : 9,
      "noteNumber" : 42,
      "noteName" : "F#2",
      "velocity" : 42,
      "durationTicks" : 42,
      "durationSeconds" : 0.09051717500000223
    }, {
      "type" : "note",
      "tick" : 28560,
      "timeSeconds" : 61.551679,
      "channel" : 9,
      "noteNumber" : 70,
      "noteName" : "A#4",
      "velocity" : 30,
      "durationTicks" : 22,
      "durationSeconds" : 0.0474137583333345
    }, {
      "type" : "note",
      "tick" : 28560,
      "timeSeconds" : 61.551679,
      "channel" : 9,
      "noteNumber" : 42,
      "noteName" : "F#2",
      "velocity" : 104,
      "durationTicks" : 58,
      "durationSeconds" : 0.12499990833333641
    }, {
      "type" : "note",
      "tick" : 28680,
      "timeSeconds" : 61.8102995,
      "channel" : 9,
      "noteNumber" : 70,
      "noteName" : "A#4",
      "velocity" : 34,
      "durationTicks" : 30,
      "durationSeconds" : 0.06465512500000159
    }, {
      "type" : "note",
      "tick" : 28680,
      "timeSeconds" : 61.8102995,
      "channel" : 9,
      "noteNumber" : 42,
      "noteName" : "F#2",
      "velocity" : 45,
      "durationTicks" : 40,
      "durationSeconds" : 0.08620683333333545
    }, {
      "type" : "note",
      "tick" : 28800,
      "timeSeconds" : 62.06892,
      "channel" : 9,
      "noteNumber" : 70,
      "noteName" : "A#4",
      "velocity" : 32,
      "durationTicks" : 38,
      "durationSeconds" : 0.08189649166666868
    }, {
      "type" : "note",
      "tick" : 28800,
      "timeSeconds" : 62.06892,
      "channel" : 9,
      "noteNumber" : 42,
      "noteName" : "F#2",
      "velocity" : 104,
      "durationTicks" : 55,
      "durationSeconds" : 0.11853439583333625
    }, {
      "type" : "note",
      "tick" : 28800,
      "timeSeconds" : 62.06892,
      "channel" : 9,
      "noteNumber" : 36,
      "noteName" : "C2",
      "velocity" : 127,
      "durationTicks" : 55,
      "durationSeconds" : 0.11853439583333625
    }, {
      "type" : "note",
      "tick" : 28920,
      "timeSeconds" : 62.3275405,
      "channel" : 9,
      "noteNumber" : 70,
      "noteName" : "A#4",
      "velocity" : 35,
      "durationTicks" : 40,
      "durationSeconds" : 0.08620683333333545
    }, {
      "type" : "note",
      "tick" : 28920,
      "timeSeconds" : 62.3275405,
      "channel" : 9,
      "noteNumber" : 42,
      "noteName" : "F#2",
      "velocity" : 36,
      "durationTicks" : 47,
      "durationSeconds" : 0.10129302916666916
    }, {
      "type" : "note",
      "tick" : 29040,
      "timeSeconds" : 62.586161,
      "channel" : 9,
      "noteNumber" : 42,
      "noteName" : "F#2",
      "velocity" : 104,
      "durationTicks" : 32,
      "durationSeconds" : 0.06896546666666836
    }, {
      "type" : "note",
      "tick" : 29280,
      "timeSeconds" : 63.103402,
      "channel" : 9,
      "noteNumber" : 70,
      "noteName" : "A#4",
      "velocity" : 37,
      "durationTicks" : 40,
      "durationSeconds" : 0.08620683333332835
    }, {
      "type" : "note",
      "tick" : 29280,
      "timeSeconds" : 63.103402,
      "channel" : 9,
      "noteNumber" : 42,
      "noteName" : "F#2",
      "velocity" : 110,
      "durationTicks" : 56,
      "durationSeconds" : 0.12068956666666253
    }, {
      "type" : "note",
      "tick" : 29400,
      "timeSeconds" : 63.3620225,
      "channel" : 9,
      "noteNumber" : 42,
      "noteName" : "F#2",
      "velocity" : 43,
      "durationTicks" : 26,
      "durationSeconds" : 0.056034441666668044
    }, {
      "type" : "note",
      "tick" : 29400,
      "timeSeconds" : 63.3620225,
      "channel" : 9,
      "noteNumber" : 82,
      "noteName" : "A#5",
      "velocity" : 46,
      "durationTicks" : 35,
      "durationSeconds" : 0.07543097916666142
    }, {
      "type" : "note",
      "tick" : 29520,
      "timeSeconds" : 63.620643,
      "channel" : 9,
      "noteNumber" : 42,
      "noteName" : "F#2",
      "velocity" : 100,
      "durationTicks" : 42,
      "durationSeconds" : 0.09051717500000223
    }, {
      "type" : "note",
      "tick" : 29640,
      "timeSeconds" : 63.8792635,
      "channel" : 9,
      "noteNumber" : 82,
      "noteName" : "A#5",
      "velocity" : 42,
      "durationTicks" : 30,
      "durationSeconds" : 0.06465512500000159
    }, {
      "type" : "note",
      "tick" : 29640,
      "timeSeconds" : 63.8792635,
      "channel" : 9,
      "noteNumber" : 42,
      "noteName" : "F#2",
      "velocity" : 36,
      "durationTicks" : 33,
      "durationSeconds" : 0.07112063750000175
    }, {
      "type" : "note",
      "tick" : 29760,
      "timeSeconds" : 64.137884,
      "channel" : 9,
      "noteNumber" : 70,
      "noteName" : "A#4",
      "velocity" : 34,
      "durationTicks" : 49,
      "durationSeconds" : 0.10560337083333593
    }, {
      "type" : "note",
      "tick" : 29760,
      "timeSeconds" : 64.137884,
      "channel" : 9,
      "noteNumber" : 42,
      "noteName" : "F#2",
      "velocity" : 110,
      "durationTicks" : 52,
      "durationSeconds" : 0.11206888333333609
    }, {
      "type" : "note",
      "tick" : 29760,
      "timeSeconds" : 64.137884,
      "channel" : 9,
      "noteNumber" : 36,
      "noteName" : "C2",
      "velocity" : 127,
      "durationTicks" : 52,
      "durationSeconds" : 0.11206888333333609
    }, {
      "type" : "note",
      "tick" : 29880,
      "timeSeconds" : 64.3965045,
      "channel" : 9,
      "noteNumber" : 42,
      "noteName" : "F#2",
      "velocity" : 45,
      "durationTicks" : 39,
      "durationSeconds" : 0.08405166249998786
    }, {
      "type" : "note",
      "tick" : 29880,
      "timeSeconds" : 64.3965045,
      "channel" : 9,
      "noteNumber" : 70,
      "noteName" : "A#4",
      "velocity" : 37,
      "durationTicks" : 49,
      "durationSeconds" : 0.10560337083332172
    }, {
      "type" : "note",
      "tick" : 30000,
      "timeSeconds" : 64.655125,
      "channel" : 9,
      "noteNumber" : 69,
      "noteName" : "A4",
      "velocity" : 77,
      "durationTicks" : 55,
      "durationSeconds" : 0.11853439583333625
    }, {
      "type" : "note",
      "tick" : 30000,
      "timeSeconds" : 64.655125,
      "channel" : 9,
      "noteNumber" : 42,
      "noteName" : "F#2",
      "velocity" : 104,
      "durationTicks" : 55,
      "durationSeconds" : 0.11853439583333625
    }, {
      "type" : "note",
      "tick" : 30120,
      "timeSeconds" : 64.9137455,
      "channel" : 9,
      "noteNumber" : 42,
      "noteName" : "F#2",
      "velocity" : 38,
      "durationTicks" : 27,
      "durationSeconds" : 0.05818961250000143
    }, {
      "type" : "note",
      "tick" : 30120,
      "timeSeconds" : 64.9137455,
      "channel" : 9,
      "noteNumber" : 70,
      "noteName" : "A#4",
      "velocity" : 36,
      "durationTicks" : 34,
      "durationSeconds" : 0.07327580833333514
    }, {
      "type" : "note",
      "tick" : 30240,
      "timeSeconds" : 65.172366,
      "channel" : 9,
      "noteNumber" : 70,
      "noteName" : "A#4",
      "velocity" : 36,
      "durationTicks" : 39,
      "durationSeconds" : 0.08405166250000207
    }, {
      "type" : "note",
      "tick" : 30240,
      "timeSeconds" : 65.172366,
      "channel" : 9,
      "noteNumber" : 42,
      "noteName" : "F#2",
      "velocity" : 100,
      "durationTicks" : 55,
      "durationSeconds" : 0.11853439583333625
    }, {
      "type" : "note",
      "tick" : 30360,
      "timeSeconds" : 65.4309865,
      "channel" : 9,
      "noteNumber" : 42,
      "noteName" : "F#2",
      "velocity" : 36,
      "durationTicks" : 32,
      "durationSeconds" : 0.06896546666666836
    }, {
      "type" : "note",
      "tick" : 30360,
      "timeSeconds" : 65.4309865,
      "channel" : 9,
      "noteNumber" : 70,
      "noteName" : "A#4",
      "velocity" : 36,
      "durationTicks" : 34,
      "durationSeconds" : 0.07327580833333514
    }, {
      "type" : "note",
      "tick" : 30480,
      "timeSeconds" : 65.689607,
      "channel" : 9,
      "noteNumber" : 70,
      "noteName" : "A#4",
      "velocity" : 34,
      "durationTicks" : 36,
      "durationSeconds" : 0.07758615000000191
    }, {
      "type" : "note",
      "tick" : 30480,
      "timeSeconds" : 65.689607,
      "channel" : 9,
      "noteNumber" : 42,
      "noteName" : "F#2",
      "velocity" : 104,
      "durationTicks" : 58,
      "durationSeconds" : 0.12499990833333641
    }, {
      "type" : "note",
      "tick" : 30600,
      "timeSeconds" : 65.9482275,
      "channel" : 9,
      "noteNumber" : 46,
      "noteName" : "A#2",
      "velocity" : 55,
      "durationTicks" : 40,
      "durationSeconds" : 0.08620683333333545
    }, {
      "type" : "note",
      "tick" : 30660,
      "timeSeconds" : 66.07753775,
      "channel" : 9,
      "noteNumber" : 70,
      "noteName" : "A#4",
      "velocity" : 32,
      "durationTicks" : 33,
      "durationSeconds" : 0.07112063750000175
    }, {
      "type" : "note",
      "tick" : 30720,
      "timeSeconds" : 66.206848,
      "channel" : 9,
      "noteNumber" : 42,
      "noteName" : "F#2",
      "velocity" : 104,
      "durationTicks" : 58,
      "durationSeconds" : 0.12499990833333641
    }, {
      "type" : "note",
      "tick" : 30720,
      "timeSeconds" : 66.206848,
      "channel" : 9,
      "noteNumber" : 36,
      "noteName" : "C2",
      "velocity" : 127,
      "durationTicks" : 67,
      "durationSeconds" : 0.14439644583333688
    }, {
      "type" : "note",
      "tick" : 30840,
      "timeSeconds" : 66.4654685,
      "channel" : 9,
      "noteNumber" : 42,
      "noteName" : "F#2",
      "velocity" : 63,
      "durationTicks" : 41,
      "durationSeconds" : 0.08836200416666884
    }, {
      "type" : "note",
      "tick" : 30960,
      "timeSeconds" : 66.724089,
      "channel" : 9,
      "noteNumber" : 42,
      "noteName" : "F#2",
      "velocity" : 104,
      "durationTicks" : 56,
      "durationSeconds" : 0.12068956666665542
    }, {
      "type" : "note",
      "tick" : 31080,
      "timeSeconds" : 66.9827095,
      "channel" : 9,
      "noteNumber" : 70,
      "noteName" : "A#4",
      "velocity" : 31,
      "durationTicks" : 36,
      "durationSeconds" : 0.07758615000000191
    }, {
      "type" : "note",
      "tick" : 31080,
      "timeSeconds" : 66.9827095,
      "channel" : 9,
      "noteNumber" : 44,
      "noteName" : "G#2",
      "velocity" : 65,
      "durationTicks" : 39,
      "durationSeconds" : 0.08405166250000207
    }, {
      "type" : "note",
      "tick" : 31080,
      "timeSeconds" : 66.9827095,
      "channel" : 9,
      "noteNumber" : 42,
      "noteName" : "F#2",
      "velocity" : 59,
      "durationTicks" : 62,
      "durationSeconds" : 0.13362059166666995
    }, {
      "type" : "note",
      "tick" : 31200,
      "timeSeconds" : 67.24133,
      "channel" : 9,
      "noteNumber" : 70,
      "noteName" : "A#4",
      "velocity" : 33,
      "durationTicks" : 40,
      "durationSeconds" : 0.08620683333333545
    }, {
      "type" : "note",
      "tick" : 31200,
      "timeSeconds" : 67.24133,
      "channel" : 9,
      "noteNumber" : 42,
      "noteName" : "F#2",
      "velocity" : 95,
      "durationTicks" : 61,
      "durationSeconds" : 0.13146542083332236
    }, {
      "type" : "note",
      "tick" : 31320,
      "timeSeconds" : 67.4999505,
      "channel" : 9,
      "noteNumber" : 82,
      "noteName" : "A#5",
      "velocity" : 46,
      "durationTicks" : 27,
      "durationSeconds" : 0.05818961250000143
    }, {
      "type" : "note",
      "tick" : 31320,
      "timeSeconds" : 67.4999505,
      "channel" : 9,
      "noteNumber" : 42,
      "noteName" : "F#2",
      "velocity" : 61,
      "durationTicks" : 37,
      "durationSeconds" : 0.0797413208333353
    }, {
      "type" : "note",
      "tick" : 31440,
      "timeSeconds" : 67.758571,
      "channel" : 9,
      "noteNumber" : 70,
      "noteName" : "A#4",
      "velocity" : 32,
      "durationTicks" : 48,
      "durationSeconds" : 0.10344820000000254
    }, {
      "type" : "note",
      "tick" : 31440,
      "timeSeconds" : 67.758571,
      "channel" : 9,
      "noteNumber" : 42,
      "noteName" : "F#2",
      "velocity" : 104,
      "durationTicks" : 55,
      "durationSeconds" : 0.11853439583333625
    }, {
      "type" : "note",
      "tick" : 31560,
      "timeSeconds" : 68.0171915,
      "channel" : 9,
      "noteNumber" : 82,
      "noteName" : "A#5",
      "velocity" : 51,
      "durationTicks" : 26,
      "durationSeconds" : 0.056034441666668044
    }, {
      "type" : "note",
      "tick" : 31560,
      "timeSeconds" : 68.0171915,
      "channel" : 9,
      "noteNumber" : 42,
      "noteName" : "F#2",
      "velocity" : 61,
      "durationTicks" : 47,
      "durationSeconds" : 0.10129302916666916
    }, {
      "type" : "note",
      "tick" : 31680,
      "timeSeconds" : 68.275812,
      "channel" : 9,
      "noteNumber" : 70,
      "noteName" : "A#4",
      "velocity" : 28,
      "durationTicks" : 32,
      "durationSeconds" : 0.06896546666666836
    }, {
      "type" : "note",
      "tick" : 31680,
      "timeSeconds" : 68.275812,
      "channel" : 9,
      "noteNumber" : 49,
      "noteName" : "C#3",
      "velocity" : 91,
      "durationTicks" : 32,
      "durationSeconds" : 0.06896546666666836
    }, {
      "type" : "note",
      "tick" : 31680,
      "timeSeconds" : 68.275812,
      "channel" : 9,
      "noteNumber" : 36,
      "noteName" : "C2",
      "velocity" : 127,
      "durationTicks" : 44,
      "durationSeconds" : 0.094827516666669
    }, {
      "type" : "note",
      "tick" : 31800,
      "timeSeconds" : 68.5344325,
      "channel" : 9,
      "noteNumber" : 42,
      "noteName" : "F#2",
      "velocity" : 38,
      "durationTicks" : 35,
      "durationSeconds" : 0.07543097916666852
    }, {
      "type" : "note",
      "tick" : 31920,
      "timeSeconds" : 68.793053,
      "channel" : 9,
      "noteNumber" : 42,
      "noteName" : "F#2",
      "velocity" : 104,
      "durationTicks" : 54,
      "durationSeconds" : 0.11637922500000286
    }, {
      "type" : "note",
      "tick" : 32040,
      "timeSeconds" : 69.0516735,
      "channel" : 9,
      "noteNumber" : 70,
      "noteName" : "A#4",
      "velocity" : 35,
      "durationTicks" : 35,
      "durationSeconds" : 0.07543097916665431
    }, {
      "type" : "note",
      "tick" : 32040,
      "timeSeconds" : 69.0516735,
      "channel" : 9,
      "noteNumber" : 42,
      "noteName" : "F#2",
      "velocity" : 49,
      "durationTicks" : 44,
      "durationSeconds" : 0.09482751666665479
    }, {
      "type" : "note",
      "tick" : 32160,
      "timeSeconds" : 69.310294,
      "channel" : 9,
      "noteNumber" : 70,
      "noteName" : "A#4",
      "velocity" : 37,
      "durationTicks" : 36,
      "durationSeconds" : 0.07758615000000191
    }, {
      "type" : "note",
      "tick" : 32160,
      "timeSeconds" : 69.310294,
      "channel" : 9,
      "noteNumber" : 42,
      "noteName" : "F#2",
      "velocity" : 110,
      "durationTicks" : 63,
      "durationSeconds" : 0.13577576250000334
    }, {
      "type" : "note",
      "tick" : 32280,
      "timeSeconds" : 69.5689145,
      "channel" : 9,
      "noteNumber" : 42,
      "noteName" : "F#2",
      "velocity" : 36,
      "durationTicks" : 37,
      "durationSeconds" : 0.07974132083332108
    }, {
      "type" : "note",
      "tick" : 32400,
      "timeSeconds" : 69.827535,
      "channel" : 9,
      "noteNumber" : 70,
      "noteName" : "A#4",
      "velocity" : 57,
      "durationTicks" : 31,
      "durationSeconds" : 0.06681029583333498
    }, {
      "type" : "note",
      "tick" : 32400,
      "timeSeconds" : 69.827535,
      "channel" : 9,
      "noteNumber" : 42,
      "noteName" : "F#2",
      "velocity" : 104,
      "durationTicks" : 62,
      "durationSeconds" : 0.13362059166666995
    }, {
      "type" : "note",
      "tick" : 32520,
      "timeSeconds" : 70.0861555,
      "channel" : 9,
      "noteNumber" : 70,
      "noteName" : "A#4",
      "velocity" : 45,
      "durationTicks" : 35,
      "durationSeconds" : 0.07543097916666852
    }, {
      "type" : "note",
      "tick" : 32520,
      "timeSeconds" : 70.0861555,
      "channel" : 9,
      "noteNumber" : 42,
      "noteName" : "F#2",
      "velocity" : 51,
      "durationTicks" : 40,
      "durationSeconds" : 0.08620683333333545
    }, {
      "type" : "note",
      "tick" : 32640,
      "timeSeconds" : 70.344776,
      "channel" : 9,
      "noteNumber" : 36,
      "noteName" : "C2",
      "velocity" : 127,
      "durationTicks" : 23,
      "durationSeconds" : 0.049568929166667886
    }, {
      "type" : "note",
      "tick" : 32640,
      "timeSeconds" : 70.344776,
      "channel" : 9,
      "noteNumber" : 70,
      "noteName" : "A#4",
      "velocity" : 31,
      "durationTicks" : 24,
      "durationSeconds" : 0.05172410000000127
    }, {
      "type" : "note",
      "tick" : 32640,
      "timeSeconds" : 70.344776,
      "channel" : 9,
      "noteNumber" : 42,
      "noteName" : "F#2",
      "velocity" : 104,
      "durationTicks" : 28,
      "durationSeconds" : 0.06034478333333482
    }, {
      "type" : "note",
      "tick" : 32760,
      "timeSeconds" : 70.6033965,
      "channel" : 9,
      "noteNumber" : 70,
      "noteName" : "A#4",
      "velocity" : 29,
      "durationTicks" : 23,
      "durationSeconds" : 0.049568929166667886
    }, {
      "type" : "note",
      "tick" : 32760,
      "timeSeconds" : 70.6033965,
      "channel" : 9,
      "noteNumber" : 42,
      "noteName" : "F#2",
      "velocity" : 45,
      "durationTicks" : 35,
      "durationSeconds" : 0.07543097916666852
    }, {
      "type" : "note",
      "tick" : 32760,
      "timeSeconds" : 70.6033965,
      "channel" : 9,
      "noteNumber" : 69,
      "noteName" : "A4",
      "velocity" : 64,
      "durationTicks" : 39,
      "durationSeconds" : 0.08405166250000207
    }, {
      "type" : "note",
      "tick" : 32880,
      "timeSeconds" : 70.862017,
      "channel" : 9,
      "noteNumber" : 70,
      "noteName" : "A#4",
      "velocity" : 41,
      "durationTicks" : 33,
      "durationSeconds" : 0.07112063750000175
    }, {
      "type" : "note",
      "tick" : 32880,
      "timeSeconds" : 70.862017,
      "channel" : 9,
      "noteNumber" : 42,
      "noteName" : "F#2",
      "velocity" : 104,
      "durationTicks" : 52,
      "durationSeconds" : 0.11206888333333609
    }, {
      "type" : "note",
      "tick" : 33000,
      "timeSeconds" : 71.1206375,
      "channel" : 9,
      "noteNumber" : 70,
      "noteName" : "A#4",
      "velocity" : 32,
      "durationTicks" : 29,
      "durationSeconds" : 0.062499954166668203
    }, {
      "type" : "note",
      "tick" : 33000,
      "timeSeconds" : 71.1206375,
      "channel" : 9,
      "noteNumber" : 42,
      "noteName" : "F#2",
      "velocity" : 42,
      "durationTicks" : 53,
      "durationSeconds" : 0.11422405416666948
    }, {
      "type" : "note",
      "tick" : 33120,
      "timeSeconds" : 71.379258,
      "channel" : 9,
      "noteNumber" : 70,
      "noteName" : "A#4",
      "velocity" : 28,
      "durationTicks" : 23,
      "durationSeconds" : 0.049568929166667886
    }, {
      "type" : "note",
      "tick" : 33120,
      "timeSeconds" : 71.379258,
      "channel" : 9,
      "noteNumber" : 42,
      "noteName" : "F#2",
      "velocity" : 100,
      "durationTicks" : 57,
      "durationSeconds" : 0.12284473750000302
    }, {
      "type" : "note",
      "tick" : 33240,
      "timeSeconds" : 71.6378785,
      "channel" : 9,
      "noteNumber" : 70,
      "noteName" : "A#4",
      "velocity" : 33,
      "durationTicks" : 28,
      "durationSeconds" : 0.06034478333333482
    }, {
      "type" : "note",
      "tick" : 33240,
      "timeSeconds" : 71.6378785,
      "channel" : 9,
      "noteNumber" : 42,
      "noteName" : "F#2",
      "velocity" : 32,
      "durationTicks" : 38,
      "durationSeconds" : 0.08189649166666868
    }, {
      "type" : "note",
      "tick" : 33360,
      "timeSeconds" : 71.896499,
      "channel" : 9,
      "noteNumber" : 42,
      "noteName" : "F#2",
      "velocity" : 100,
      "durationTicks" : 62,
      "durationSeconds" : 0.13362059166665574
    }, {
      "type" : "note",
      "tick" : 33480,
      "timeSeconds" : 72.1551195,
      "channel" : 9,
      "noteNumber" : 82,
      "noteName" : "A#5",
      "velocity" : 53,
      "durationTicks" : 24,
      "durationSeconds" : 0.05172410000000127
    }, {
      "type" : "note",
      "tick" : 33480,
      "timeSeconds" : 72.1551195,
      "channel" : 9,
      "noteNumber" : 42,
      "noteName" : "F#2",
      "velocity" : 47,
      "durationTicks" : 45,
      "durationSeconds" : 0.09698268750000238
    }, {
      "type" : "note",
      "tick" : 33600,
      "timeSeconds" : 72.41374,
      "channel" : 9,
      "noteNumber" : 70,
      "noteName" : "A#4",
      "velocity" : 38,
      "durationTicks" : 18,
      "durationSeconds" : 0.038793075000000954
    }, {
      "type" : "note",
      "tick" : 33600,
      "timeSeconds" : 72.41374,
      "channel" : 9,
      "noteNumber" : 42,
      "noteName" : "F#2",
      "velocity" : 104,
      "durationTicks" : 55,
      "durationSeconds" : 0.11853439583332204
    }, {
      "type" : "note",
      "tick" : 33600,
      "timeSeconds" : 72.41374,
      "channel" : 9,
      "noteNumber" : 36,
      "noteName" : "C2",
      "velocity" : 127,
      "durationTicks" : 59,
      "durationSeconds" : 0.12715507916665558
    }, {
      "type" : "note",
      "tick" : 33720,
      "timeSeconds" : 72.6723605,
      "channel" : 9,
      "noteNumber" : 42,
      "noteName" : "F#2",
      "velocity" : 65,
      "durationTicks" : 41,
      "durationSeconds" : 0.08836200416666884
    }, {
      "type" : "note",
      "tick" : 33840,
      "timeSeconds" : 72.930981,
      "channel" : 9,
      "noteNumber" : 70,
      "noteName" : "A#4",
      "velocity" : 46,
      "durationTicks" : 37,
      "durationSeconds" : 0.0797413208333353
    }, {
      "type" : "note",
      "tick" : 33840,
      "timeSeconds" : 72.930981,
      "channel" : 9,
      "noteNumber" : 42,
      "noteName" : "F#2",
      "velocity" : 104,
      "durationTicks" : 52,
      "durationSeconds" : 0.11206888333333609
    }, {
      "type" : "note",
      "tick" : 33960,
      "timeSeconds" : 73.1896015,
      "channel" : 9,
      "noteNumber" : 70,
      "noteName" : "A#4",
      "velocity" : 49,
      "durationTicks" : 19,
      "durationSeconds" : 0.04094824583333434
    }, {
      "type" : "note",
      "tick" : 33960,
      "timeSeconds" : 73.1896015,
      "channel" : 9,
      "noteNumber" : 42,
      "noteName" : "F#2",
      "velocity" : 55,
      "durationTicks" : 33,
      "durationSeconds" : 0.07112063750000175
    }, {
      "type" : "note",
      "tick" : 34020,
      "timeSeconds" : 73.31891175,
      "channel" : 9,
      "noteNumber" : 70,
      "noteName" : "A#4",
      "velocity" : 39,
      "durationTicks" : 25,
      "durationSeconds" : 0.05387927083333466
    }, {
      "type" : "note",
      "tick" : 34080,
      "timeSeconds" : 73.448222,
      "channel" : 9,
      "noteNumber" : 42,
      "noteName" : "F#2",
      "velocity" : 100,
      "durationTicks" : 58,
      "durationSeconds" : 0.12499990833333641
    }, {
      "type" : "note",
      "tick" : 34200,
      "timeSeconds" : 73.7068425,
      "channel" : 9,
      "noteNumber" : 42,
      "noteName" : "F#2",
      "velocity" : 44,
      "durationTicks" : 47,
      "durationSeconds" : 0.10129302916666916
    }, {
      "type" : "note",
      "tick" : 34260,
      "timeSeconds" : 73.83615275,
      "channel" : 9,
      "noteNumber" : 70,
      "noteName" : "A#4",
      "velocity" : 31,
      "durationTicks" : 23,
      "durationSeconds" : 0.049568929166667886
    }, {
      "type" : "note",
      "tick" : 34320,
      "timeSeconds" : 73.965463,
      "channel" : 9,
      "noteNumber" : 42,
      "noteName" : "F#2",
      "velocity" : 104,
      "durationTicks" : 42,
      "durationSeconds" : 0.09051717500000223
    }, {
      "type" : "note",
      "tick" : 34560,
      "timeSeconds" : 74.482704,
      "channel" : 9,
      "noteNumber" : 42,
      "noteName" : "F#2",
      "velocity" : 104,
      "durationTicks" : 60,
      "durationSeconds" : 0.12931025000000318
    }, {
      "type" : "note",
      "tick" : 34560,
      "timeSeconds" : 74.482704,
      "channel" : 9,
      "noteNumber" : 36,
      "noteName" : "C2",
      "velocity" : 127,
      "durationTicks" : 62,
      "durationSeconds" : 0.13362059166666995
    }, {
      "type" : "note",
      "tick" : 34680,
      "timeSeconds" : 74.7413245,
      "channel" : 9,
      "noteNumber" : 42,
      "noteName" : "F#2",
      "velocity" : 39,
      "durationTicks" : 42,
      "durationSeconds" : 0.09051717500000223
    }, {
      "type" : "note",
      "tick" : 34800,
      "timeSeconds" : 74.999945,
      "channel" : 9,
      "noteNumber" : 70,
      "noteName" : "A#4",
      "velocity" : 27,
      "durationTicks" : 43,
      "durationSeconds" : 0.09267234583333561
    }, {
      "type" : "note",
      "tick" : 34800,
      "timeSeconds" : 74.999945,
      "channel" : 9,
      "noteNumber" : 42,
      "noteName" : "F#2",
      "velocity" : 110,
      "durationTicks" : 56,
      "durationSeconds" : 0.12068956666666963
    }, {
      "type" : "note",
      "tick" : 34920,
      "timeSeconds" : 75.2585655,
      "channel" : 9,
      "noteNumber" : 42,
      "noteName" : "F#2",
      "velocity" : 39,
      "durationTicks" : 34,
      "durationSeconds" : 0.07327580833333514
    }, {
      "type" : "note",
      "tick" : 34920,
      "timeSeconds" : 75.2585655,
      "channel" : 9,
      "noteNumber" : 70,
      "noteName" : "A#4",
      "velocity" : 45,
      "durationTicks" : 35,
      "durationSeconds" : 0.07543097916666852
    }, {
      "type" : "note",
      "tick" : 35040,
      "timeSeconds" : 75.517186,
      "channel" : 9,
      "noteNumber" : 42,
      "noteName" : "F#2",
      "velocity" : 110,
      "durationTicks" : 62,
      "durationSeconds" : 0.13362059166666995
    }, {
      "type" : "note",
      "tick" : 35160,
      "timeSeconds" : 75.7758065,
      "channel" : 9,
      "noteNumber" : 70,
      "noteName" : "A#4",
      "velocity" : 31,
      "durationTicks" : 17,
      "durationSeconds" : 0.03663790416666757
    }, {
      "type" : "note",
      "tick" : 35160,
      "timeSeconds" : 75.7758065,
      "channel" : 9,
      "noteNumber" : 42,
      "noteName" : "F#2",
      "velocity" : 37,
      "durationTicks" : 33,
      "durationSeconds" : 0.07112063750000175
    }, {
      "type" : "note",
      "tick" : 35280,
      "timeSeconds" : 76.034427,
      "channel" : 9,
      "noteNumber" : 70,
      "noteName" : "A#4",
      "velocity" : 35,
      "durationTicks" : 23,
      "durationSeconds" : 0.049568929166667886
    }, {
      "type" : "note",
      "tick" : 35280,
      "timeSeconds" : 76.034427,
      "channel" : 9,
      "noteNumber" : 42,
      "noteName" : "F#2",
      "velocity" : 91,
      "durationTicks" : 43,
      "durationSeconds" : 0.09267234583333561
    }, {
      "type" : "note",
      "tick" : 35400,
      "timeSeconds" : 76.2930475,
      "channel" : 9,
      "noteNumber" : 70,
      "noteName" : "A#4",
      "velocity" : 34,
      "durationTicks" : 20,
      "durationSeconds" : 0.04310341666666773
    }, {
      "type" : "note",
      "tick" : 35400,
      "timeSeconds" : 76.2930475,
      "channel" : 9,
      "noteNumber" : 69,
      "noteName" : "A4",
      "velocity" : 86,
      "durationTicks" : 33,
      "durationSeconds" : 0.07112063750000175
    }, {
      "type" : "note",
      "tick" : 35400,
      "timeSeconds" : 76.2930475,
      "channel" : 9,
      "noteNumber" : 40,
      "noteName" : "E2",
      "velocity" : 127,
      "durationTicks" : 43,
      "durationSeconds" : 0.09267234583333561
    }, {
      "type" : "note",
      "tick" : 35520,
      "timeSeconds" : 76.551668,
      "channel" : 9,
      "noteNumber" : 70,
      "noteName" : "A#4",
      "velocity" : 46,
      "durationTicks" : 26,
      "durationSeconds" : 0.056034441666653834
    }, {
      "type" : "note",
      "tick" : 35520,
      "timeSeconds" : 76.551668,
      "channel" : 9,
      "noteNumber" : 42,
      "noteName" : "F#2",
      "velocity" : 104,
      "durationTicks" : 33,
      "durationSeconds" : 0.07112063749998754
    }, {
      "type" : "note",
      "tick" : 35640,
      "timeSeconds" : 76.8102885,
      "channel" : 9,
      "noteNumber" : 70,
      "noteName" : "A#4",
      "velocity" : 34,
      "durationTicks" : 20,
      "durationSeconds" : 0.04310341666666773
    }, {
      "type" : "note",
      "tick" : 35640,
      "timeSeconds" : 76.8102885,
      "channel" : 9,
      "noteNumber" : 42,
      "noteName" : "F#2",
      "velocity" : 35,
      "durationTicks" : 34,
      "durationSeconds" : 0.07327580833333514
    }, {
      "type" : "note",
      "tick" : 35760,
      "timeSeconds" : 77.068909,
      "channel" : 9,
      "noteNumber" : 70,
      "noteName" : "A#4",
      "velocity" : 46,
      "durationTicks" : 26,
      "durationSeconds" : 0.056034441666668044
    }, {
      "type" : "note",
      "tick" : 35760,
      "timeSeconds" : 77.068909,
      "channel" : 9,
      "noteNumber" : 42,
      "noteName" : "F#2",
      "velocity" : 104,
      "durationTicks" : 53,
      "durationSeconds" : 0.11422405416665526
    }, {
      "type" : "note",
      "tick" : 35880,
      "timeSeconds" : 77.3275295,
      "channel" : 9,
      "noteNumber" : 70,
      "noteName" : "A#4",
      "velocity" : 30,
      "durationTicks" : 20,
      "durationSeconds" : 0.04310341666666773
    }, {
      "type" : "note",
      "tick" : 35880,
      "timeSeconds" : 77.3275295,
      "channel" : 9,
      "noteNumber" : 42,
      "noteName" : "F#2",
      "velocity" : 51,
      "durationTicks" : 42,
      "durationSeconds" : 0.09051717500000223
    }, {
      "type" : "note",
      "tick" : 35940,
      "timeSeconds" : 77.45683975,
      "channel" : 9,
      "noteNumber" : 70,
      "noteName" : "A#4",
      "velocity" : 35,
      "durationTicks" : 30,
      "durationSeconds" : 0.06465512500000159
    }, {
      "type" : "note",
      "tick" : 36000,
      "timeSeconds" : 77.58615,
      "channel" : 9,
      "noteNumber" : 42,
      "noteName" : "F#2",
      "velocity" : 104,
      "durationTicks" : 56,
      "durationSeconds" : 0.12068956666666963
    }, {
      "type" : "note",
      "tick" : 36120,
      "timeSeconds" : 77.8447705,
      "channel" : 9,
      "noteNumber" : 70,
      "noteName" : "A#4",
      "velocity" : 35,
      "durationTicks" : 23,
      "durationSeconds" : 0.049568929166667886
    }, {
      "type" : "note",
      "tick" : 36120,
      "timeSeconds" : 77.8447705,
      "channel" : 9,
      "noteNumber" : 42,
      "noteName" : "F#2",
      "velocity" : 33,
      "durationTicks" : 37,
      "durationSeconds" : 0.0797413208333353
    }, {
      "type" : "note",
      "tick" : 36240,
      "timeSeconds" : 78.103391,
      "channel" : 9,
      "noteNumber" : 70,
      "noteName" : "A#4",
      "velocity" : 47,
      "durationTicks" : 30,
      "durationSeconds" : 0.06465512500000159
    }, {
      "type" : "note",
      "tick" : 36240,
      "timeSeconds" : 78.103391,
      "channel" : 9,
      "noteNumber" : 42,
      "noteName" : "F#2",
      "velocity" : 104,
      "durationTicks" : 64,
      "durationSeconds" : 0.13793093333333672
    }, {
      "type" : "note",
      "tick" : 36360,
      "timeSeconds" : 78.3620115,
      "channel" : 9,
      "noteNumber" : 70,
      "noteName" : "A#4",
      "velocity" : 37,
      "durationTicks" : 22,
      "durationSeconds" : 0.0474137583333345
    }, {
      "type" : "note",
      "tick" : 36360,
      "timeSeconds" : 78.3620115,
      "channel" : 9,
      "noteNumber" : 42,
      "noteName" : "F#2",
      "velocity" : 46,
      "durationTicks" : 35,
      "durationSeconds" : 0.07543097916666852
    }, {
      "type" : "note",
      "tick" : 36480,
      "timeSeconds" : 78.620632,
      "channel" : 9,
      "noteNumber" : 36,
      "noteName" : "C2",
      "velocity" : 127,
      "durationTicks" : 21,
      "durationSeconds" : 0.04525858750000111
    }, {
      "type" : "note",
      "tick" : 36480,
      "timeSeconds" : 78.620632,
      "channel" : 9,
      "noteNumber" : 70,
      "noteName" : "A#4",
      "velocity" : 45,
      "durationTicks" : 30,
      "durationSeconds" : 0.06465512500000159
    }, {
      "type" : "note",
      "tick" : 36480,
      "timeSeconds" : 78.620632,
      "channel" : 9,
      "noteNumber" : 42,
      "noteName" : "F#2",
      "velocity" : 104,
      "durationTicks" : 32,
      "durationSeconds" : 0.06896546666666836
    }, {
      "type" : "note",
      "tick" : 36600,
      "timeSeconds" : 78.8792525,
      "channel" : 9,
      "noteNumber" : 70,
      "noteName" : "A#4",
      "velocity" : 36,
      "durationTicks" : 27,
      "durationSeconds" : 0.05818961249998722
    }, {
      "type" : "note",
      "tick" : 36600,
      "timeSeconds" : 78.8792525,
      "channel" : 9,
      "noteNumber" : 42,
      "noteName" : "F#2",
      "velocity" : 65,
      "durationTicks" : 30,
      "durationSeconds" : 0.06465512499998738
    }, {
      "type" : "note",
      "tick" : 36720,
      "timeSeconds" : 79.137873,
      "channel" : 9,
      "noteNumber" : 70,
      "noteName" : "A#4",
      "velocity" : 38,
      "durationTicks" : 29,
      "durationSeconds" : 0.062499954166668203
    }, {
      "type" : "note",
      "tick" : 36720,
      "timeSeconds" : 79.137873,
      "channel" : 9,
      "noteNumber" : 42,
      "noteName" : "F#2",
      "velocity" : 104,
      "durationTicks" : 51,
      "durationSeconds" : 0.1099137125000027
    }, {
      "type" : "note",
      "tick" : 36840,
      "timeSeconds" : 79.3964935,
      "channel" : 9,
      "noteNumber" : 42,
      "noteName" : "F#2",
      "velocity" : 31,
      "durationTicks" : 21,
      "durationSeconds" : 0.04525858750000111
    }, {
      "type" : "note",
      "tick" : 36840,
      "timeSeconds" : 79.3964935,
      "channel" : 9,
      "noteNumber" : 70,
      "noteName" : "A#4",
      "velocity" : 43,
      "durationTicks" : 32,
      "durationSeconds" : 0.06896546666666836
    }, {
      "type" : "note",
      "tick" : 36960,
      "timeSeconds" : 79.655114,
      "channel" : 9,
      "noteNumber" : 42,
      "noteName" : "F#2",
      "velocity" : 104,
      "durationTicks" : 65,
      "durationSeconds" : 0.1400861041666701
    }, {
      "type" : "note",
      "tick" : 37080,
      "timeSeconds" : 79.9137345,
      "channel" : 9,
      "noteNumber" : 70,
      "noteName" : "A#4",
      "velocity" : 38,
      "durationTicks" : 27,
      "durationSeconds" : 0.05818961250000143
    }, {
      "type" : "note",
      "tick" : 37080,
      "timeSeconds" : 79.9137345,
      "channel" : 9,
      "noteNumber" : 82,
      "noteName" : "A#5",
      "velocity" : 49,
      "durationTicks" : 30,
      "durationSeconds" : 0.06465512500000159
    }, {
      "type" : "note",
      "tick" : 37080,
      "timeSeconds" : 79.9137345,
      "channel" : 9,
      "noteNumber" : 42,
      "noteName" : "F#2",
      "velocity" : 45,
      "durationTicks" : 36,
      "durationSeconds" : 0.07758615000000191
    }, {
      "type" : "note",
      "tick" : 37200,
      "timeSeconds" : 80.172355,
      "channel" : 9,
      "noteNumber" : 70,
      "noteName" : "A#4",
      "velocity" : 39,
      "durationTicks" : 28,
      "durationSeconds" : 0.06034478333333482
    }, {
      "type" : "note",
      "tick" : 37200,
      "timeSeconds" : 80.172355,
      "channel" : 9,
      "noteNumber" : 42,
      "noteName" : "F#2",
      "velocity" : 104,
      "durationTicks" : 50,
      "durationSeconds" : 0.10775854166666932
    }, {
      "type" : "note",
      "tick" : 37320,
      "timeSeconds" : 80.4309755,
      "channel" : 9,
      "noteNumber" : 42,
      "noteName" : "F#2",
      "velocity" : 57,
      "durationTicks" : 26,
      "durationSeconds" : 0.056034441666668044
    }, {
      "type" : "note",
      "tick" : 37320,
      "timeSeconds" : 80.4309755,
      "channel" : 9,
      "noteNumber" : 82,
      "noteName" : "A#5",
      "velocity" : 53,
      "durationTicks" : 30,
      "durationSeconds" : 0.06465512500000159
    }, {
      "type" : "note",
      "tick" : 37320,
      "timeSeconds" : 80.4309755,
      "channel" : 9,
      "noteNumber" : 70,
      "noteName" : "A#4",
      "velocity" : 43,
      "durationTicks" : 37,
      "durationSeconds" : 0.0797413208333353
    }, {
      "type" : "note",
      "tick" : 37380,
      "timeSeconds" : 80.56028575,
      "channel" : 9,
      "noteNumber" : 70,
      "noteName" : "A#4",
      "velocity" : 49,
      "durationTicks" : 40,
      "durationSeconds" : 0.08620683333332124
    }, {
      "type" : "note",
      "tick" : 37440,
      "timeSeconds" : 80.689596,
      "channel" : 9,
      "noteNumber" : 42,
      "noteName" : "F#2",
      "velocity" : 104,
      "durationTicks" : 47,
      "durationSeconds" : 0.10129302916666916
    }, {
      "type" : "note",
      "tick" : 37440,
      "timeSeconds" : 80.689596,
      "channel" : 9,
      "noteNumber" : 36,
      "noteName" : "C2",
      "velocity" : 127,
      "durationTicks" : 52,
      "durationSeconds" : 0.11206888333333609
    }, {
      "type" : "note",
      "tick" : 37560,
      "timeSeconds" : 80.9482165,
      "channel" : 9,
      "noteNumber" : 42,
      "noteName" : "F#2",
      "velocity" : 55,
      "durationTicks" : 20,
      "durationSeconds" : 0.04310341666666773
    }, {
      "type" : "note",
      "tick" : 37680,
      "timeSeconds" : 81.206837,
      "channel" : 9,
      "noteNumber" : 69,
      "noteName" : "A4",
      "velocity" : 55,
      "durationTicks" : 45,
      "durationSeconds" : 0.09698268750000238
    }, {
      "type" : "note",
      "tick" : 37680,
      "timeSeconds" : 81.206837,
      "channel" : 9,
      "noteNumber" : 42,
      "noteName" : "F#2",
      "velocity" : 104,
      "durationTicks" : 45,
      "durationSeconds" : 0.09698268750000238
    }, {
      "type" : "note",
      "tick" : 37800,
      "timeSeconds" : 81.4654575,
      "channel" : 9,
      "noteNumber" : 42,
      "noteName" : "F#2",
      "velocity" : 45,
      "durationTicks" : 28,
      "durationSeconds" : 0.06034478333333482
    }, {
      "type" : "note",
      "tick" : 37800,
      "timeSeconds" : 81.4654575,
      "channel" : 9,
      "noteNumber" : 69,
      "noteName" : "A4",
      "velocity" : 51,
      "durationTicks" : 39,
      "durationSeconds" : 0.08405166250000207
    }, {
      "type" : "note",
      "tick" : 37920,
      "timeSeconds" : 81.724078,
      "channel" : 9,
      "noteNumber" : 42,
      "noteName" : "F#2",
      "velocity" : 110,
      "durationTicks" : 49,
      "durationSeconds" : 0.10560337083332172
    }, {
      "type" : "note",
      "tick" : 38040,
      "timeSeconds" : 81.9826985,
      "channel" : 9,
      "noteNumber" : 42,
      "noteName" : "F#2",
      "velocity" : 32,
      "durationTicks" : 21,
      "durationSeconds" : 0.04525858750000111
    }, {
      "type" : "note",
      "tick" : 38040,
      "timeSeconds" : 81.9826985,
      "channel" : 9,
      "noteNumber" : 70,
      "noteName" : "A#4",
      "velocity" : 41,
      "durationTicks" : 36,
      "durationSeconds" : 0.07758615000000191
    }, {
      "type" : "note",
      "tick" : 38160,
      "timeSeconds" : 82.241319,
      "channel" : 9,
      "noteNumber" : 70,
      "noteName" : "A#4",
      "velocity" : 38,
      "durationTicks" : 32,
      "durationSeconds" : 0.06896546666666836
    }, {
      "type" : "note",
      "tick" : 38160,
      "timeSeconds" : 82.241319,
      "channel" : 9,
      "noteNumber" : 42,
      "noteName" : "F#2",
      "velocity" : 104,
      "durationTicks" : 59,
      "durationSeconds" : 0.12715507916665558
    }, {
      "type" : "note",
      "tick" : 38280,
      "timeSeconds" : 82.4999395,
      "channel" : 9,
      "noteNumber" : 42,
      "noteName" : "F#2",
      "velocity" : 38,
      "durationTicks" : 36,
      "durationSeconds" : 0.07758615000000191
    }, {
      "type" : "note",
      "tick" : 38280,
      "timeSeconds" : 82.4999395,
      "channel" : 9,
      "noteNumber" : 70,
      "noteName" : "A#4",
      "velocity" : 43,
      "durationTicks" : 39,
      "durationSeconds" : 0.08405166250000207
    }, {
      "type" : "note",
      "tick" : 38400,
      "timeSeconds" : 82.75856,
      "channel" : 9,
      "noteNumber" : 70,
      "noteName" : "A#4",
      "velocity" : 41,
      "durationTicks" : 38,
      "durationSeconds" : 0.08189649166666868
    }, {
      "type" : "note",
      "tick" : 38400,
      "timeSeconds" : 82.75856,
      "channel" : 9,
      "noteNumber" : 42,
      "noteName" : "F#2",
      "velocity" : 104,
      "durationTicks" : 58,
      "durationSeconds" : 0.12499990833333641
    }, {
      "type" : "note",
      "tick" : 38400,
      "timeSeconds" : 82.75856,
      "channel" : 9,
      "noteNumber" : 36,
      "noteName" : "C2",
      "velocity" : 127,
      "durationTicks" : 95,
      "durationSeconds" : 0.2047412291666575
    }, {
      "type" : "note",
      "tick" : 38520,
      "timeSeconds" : 83.0171805,
      "channel" : 9,
      "noteNumber" : 42,
      "noteName" : "F#2",
      "velocity" : 39,
      "durationTicks" : 26,
      "durationSeconds" : 0.056034441666668044
    }, {
      "type" : "note",
      "tick" : 38520,
      "timeSeconds" : 83.0171805,
      "channel" : 9,
      "noteNumber" : 70,
      "noteName" : "A#4",
      "velocity" : 37,
      "durationTicks" : 30,
      "durationSeconds" : 0.06465512500000159
    }, {
      "type" : "note",
      "tick" : 38640,
      "timeSeconds" : 83.275801,
      "channel" : 9,
      "noteNumber" : 42,
      "noteName" : "F#2",
      "velocity" : 104,
      "durationTicks" : 29,
      "durationSeconds" : 0.062499954166668203
    }, {
      "type" : "note",
      "tick" : 38700,
      "timeSeconds" : 83.40511125,
      "channel" : 9,
      "noteNumber" : 70,
      "noteName" : "A#4",
      "velocity" : 38,
      "durationTicks" : 39,
      "durationSeconds" : 0.08405166250000207
    }, {
      "type" : "note",
      "tick" : 38760,
      "timeSeconds" : 83.5344215,
      "channel" : 9,
      "noteNumber" : 42,
      "noteName" : "F#2",
      "velocity" : 45,
      "durationTicks" : 42,
      "durationSeconds" : 0.09051717500000223
    }, {
      "type" : "note",
      "tick" : 38880,
      "timeSeconds" : 83.793042,
      "channel" : 9,
      "noteNumber" : 70,
      "noteName" : "A#4",
      "velocity" : 30,
      "durationTicks" : 24,
      "durationSeconds" : 0.05172410000000127
    }, {
      "type" : "note",
      "tick" : 38880,
      "timeSeconds" : 83.793042,
      "channel" : 9,
      "noteNumber" : 40,
      "noteName" : "E2",
      "velocity" : 122,
      "durationTicks" : 52,
      "durationSeconds" : 0.11206888333333609
    }, {
      "type" : "note",
      "tick" : 38940,
      "timeSeconds" : 83.92235225,
      "channel" : 9,
      "noteNumber" : 45,
      "noteName" : "A2",
      "velocity" : 70,
      "durationTicks" : 21,
      "durationSeconds" : 0.04525858750000111
    }, {
      "type" : "note",
      "tick" : 39000,
      "timeSeconds" : 84.0516625,
      "channel" : 9,
      "noteNumber" : 45,
      "noteName" : "A2",
      "velocity" : 77,
      "durationTicks" : 32,
      "durationSeconds" : 0.06896546666665415
    }, {
      "type" : "note",
      "tick" : 39000,
      "timeSeconds" : 84.0516625,
      "channel" : 9,
      "noteNumber" : 82,
      "noteName" : "A#5",
      "velocity" : 61,
      "durationTicks" : 35,
      "durationSeconds" : 0.07543097916665431
    }, {
      "type" : "note",
      "tick" : 39060,
      "timeSeconds" : 84.18097275,
      "channel" : 9,
      "noteNumber" : 40,
      "noteName" : "E2",
      "velocity" : 101,
      "durationTicks" : 20,
      "durationSeconds" : 0.04310341666666773
    }, {
      "type" : "note",
      "tick" : 39120,
      "timeSeconds" : 84.310283,
      "channel" : 9,
      "noteNumber" : 43,
      "noteName" : "G2",
      "velocity" : 81,
      "durationTicks" : 31,
      "durationSeconds" : 0.06681029583333498
    }, {
      "type" : "note",
      "tick" : 39180,
      "timeSeconds" : 84.43959325,
      "channel" : 9,
      "noteNumber" : 43,
      "noteName" : "G2",
      "velocity" : 79,
      "durationTicks" : 27,
      "durationSeconds" : 0.05818961250000143
    }, {
      "type" : "note",
      "tick" : 39240,
      "timeSeconds" : 84.5689035,
      "channel" : 9,
      "noteNumber" : 41,
      "noteName" : "F2",
      "velocity" : 104,
      "durationTicks" : 19,
      "durationSeconds" : 0.04094824583333434
    }, {
      "type" : "note",
      "tick" : 39360,
      "timeSeconds" : 84.827524,
      "channel" : 9,
      "noteNumber" : 49,
      "noteName" : "C#3",
      "velocity" : 50,
      "durationTicks" : 19,
      "durationSeconds" : 0.04094824583333434
    }, {
      "type" : "note",
      "tick" : 39360,
      "timeSeconds" : 84.827524,
      "channel" : 9,
      "noteNumber" : 70,
      "noteName" : "A#4",
      "velocity" : 80,
      "durationTicks" : 25,
      "durationSeconds" : 0.05387927083333466
    }, {
      "type" : "note",
      "tick" : 39360,
      "timeSeconds" : 84.827524,
      "channel" : 9,
      "noteNumber" : 51,
      "noteName" : "D#3",
      "velocity" : 57,
      "durationTicks" : 28,
      "durationSeconds" : 0.06034478333333482
    }, {
      "type" : "note",
      "tick" : 39360,
      "timeSeconds" : 84.827524,
      "channel" : 9,
      "noteNumber" : 40,
      "noteName" : "E2",
      "velocity" : 79,
      "durationTicks" : 33,
      "durationSeconds" : 0.07112063750000175
    }, {
      "type" : "note",
      "tick" : 39360,
      "timeSeconds" : 84.827524,
      "channel" : 9,
      "noteNumber" : 46,
      "noteName" : "A#2",
      "velocity" : 104,
      "durationTicks" : 61,
      "durationSeconds" : 0.13146542083333657
    }, {
      "type" : "note",
      "tick" : 39420,
      "timeSeconds" : 84.95683425,
      "channel" : 9,
      "noteNumber" : 51,
      "noteName" : "D#3",
      "velocity" : 61,
      "durationTicks" : 46,
      "durationSeconds" : 0.09913785833333577
    }, {
      "type" : "note",
      "tick" : 39480,
      "timeSeconds" : 85.0861445,
      "channel" : 9,
      "noteNumber" : 70,
      "noteName" : "A#4",
      "velocity" : 68,
      "durationTicks" : 49,
      "durationSeconds" : 0.10560337083333593
    }, {
      "type" : "note",
      "tick" : 39480,
      "timeSeconds" : 85.0861445,
      "channel" : 9,
      "noteNumber" : 42,
      "noteName" : "F#2",
      "velocity" : 71,
      "durationTicks" : 52,
      "durationSeconds" : 0.11206888333333609
    }, {
      "type" : "note",
      "tick" : 39540,
      "timeSeconds" : 85.21545475,
      "channel" : 9,
      "noteNumber" : 70,
      "noteName" : "A#4",
      "velocity" : 63,
      "durationTicks" : 31,
      "durationSeconds" : 0.06681029583332077
    }, {
      "type" : "note",
      "tick" : 39540,
      "timeSeconds" : 85.21545475,
      "channel" : 9,
      "noteNumber" : 40,
      "noteName" : "E2",
      "velocity" : 64,
      "durationTicks" : 42,
      "durationSeconds" : 0.09051717499998801
    }, {
      "type" : "note",
      "tick" : 39540,
      "timeSeconds" : 85.21545475,
      "channel" : 9,
      "noteNumber" : 44,
      "noteName" : "G#2",
      "velocity" : 61,
      "durationTicks" : 43,
      "durationSeconds" : 0.0926723458333214
    }, {
      "type" : "note",
      "tick" : 39600,
      "timeSeconds" : 85.344765,
      "channel" : 9,
      "noteNumber" : 51,
      "noteName" : "D#3",
      "velocity" : 95,
      "durationTicks" : 33,
      "durationSeconds" : 0.07112063750000175
    }, {
      "type" : "note",
      "tick" : 39600,
      "timeSeconds" : 85.344765,
      "channel" : 9,
      "noteNumber" : 70,
      "noteName" : "A#4",
      "velocity" : 100,
      "durationTicks" : 42,
      "durationSeconds" : 0.09051717500000223
    }, {
      "type" : "note",
      "tick" : 39600,
      "timeSeconds" : 85.344765,
      "channel" : 9,
      "noteNumber" : 36,
      "noteName" : "C2",
      "velocity" : 127,
      "durationTicks" : 44,
      "durationSeconds" : 0.094827516666669
    }, {
      "type" : "note",
      "tick" : 39600,
      "timeSeconds" : 85.344765,
      "channel" : 9,
      "noteNumber" : 46,
      "noteName" : "A#2",
      "velocity" : 95,
      "durationTicks" : 50,
      "durationSeconds" : 0.10775854166666932
    }, {
      "type" : "note",
      "tick" : 39720,
      "timeSeconds" : 85.6033855,
      "channel" : 9,
      "noteNumber" : 35,
      "noteName" : "B1",
      "velocity" : 86,
      "durationTicks" : 29,
      "durationSeconds" : 0.062499954166668203
    }, {
      "type" : "note",
      "tick" : 39720,
      "timeSeconds" : 85.6033855,
      "channel" : 9,
      "noteNumber" : 51,
      "noteName" : "D#3",
      "velocity" : 87,
      "durationTicks" : 34,
      "durationSeconds" : 0.07327580833333514
    }, {
      "type" : "note",
      "tick" : 39720,
      "timeSeconds" : 85.6033855,
      "channel" : 9,
      "noteNumber" : 70,
      "noteName" : "A#4",
      "velocity" : 51,
      "durationTicks" : 42,
      "durationSeconds" : 0.09051717500000223
    }, {
      "type" : "note",
      "tick" : 39720,
      "timeSeconds" : 85.6033855,
      "channel" : 9,
      "noteNumber" : 42,
      "noteName" : "F#2",
      "velocity" : 91,
      "durationTicks" : 49,
      "durationSeconds" : 0.10560337083333593
    }, {
      "type" : "note",
      "tick" : 39720,
      "timeSeconds" : 85.6033855,
      "channel" : 9,
      "noteNumber" : 36,
      "noteName" : "C2",
      "velocity" : 127,
      "durationTicks" : 53,
      "durationSeconds" : 0.11422405416666948
    }, {
      "type" : "note",
      "tick" : 39780,
      "timeSeconds" : 85.73269575,
      "channel" : 9,
      "noteNumber" : 70,
      "noteName" : "A#4",
      "velocity" : 51,
      "durationTicks" : 31,
      "durationSeconds" : 0.06681029583333498
    }, {
      "type" : "note",
      "tick" : 39780,
      "timeSeconds" : 85.73269575,
      "channel" : 9,
      "noteNumber" : 44,
      "noteName" : "G#2",
      "velocity" : 57,
      "durationTicks" : 48,
      "durationSeconds" : 0.10344819999998833
    }, {
      "type" : "note",
      "tick" : 39840,
      "timeSeconds" : 85.862006,
      "channel" : 9,
      "noteNumber" : 51,
      "noteName" : "D#3",
      "velocity" : 95,
      "durationTicks" : 28,
      "durationSeconds" : 0.06034478333333482
    }, {
      "type" : "note",
      "tick" : 39840,
      "timeSeconds" : 85.862006,
      "channel" : 9,
      "noteNumber" : 70,
      "noteName" : "A#4",
      "velocity" : 100,
      "durationTicks" : 41,
      "durationSeconds" : 0.08836200416666884
    }, {
      "type" : "note",
      "tick" : 39840,
      "timeSeconds" : 85.862006,
      "channel" : 9,
      "noteNumber" : 46,
      "noteName" : "A#2",
      "velocity" : 63,
      "durationTicks" : 51,
      "durationSeconds" : 0.1099137125000027
    }, {
      "type" : "note",
      "tick" : 39960,
      "timeSeconds" : 86.1206265,
      "channel" : 9,
      "noteNumber" : 51,
      "noteName" : "D#3",
      "velocity" : 68,
      "durationTicks" : 35,
      "durationSeconds" : 0.07543097916666852
    }, {
      "type" : "note",
      "tick" : 39960,
      "timeSeconds" : 86.1206265,
      "channel" : 9,
      "noteNumber" : 70,
      "noteName" : "A#4",
      "velocity" : 76,
      "durationTicks" : 42,
      "durationSeconds" : 0.09051717500000223
    }, {
      "type" : "note",
      "tick" : 39960,
      "timeSeconds" : 86.1206265,
      "channel" : 9,
      "noteNumber" : 42,
      "noteName" : "F#2",
      "velocity" : 73,
      "durationTicks" : 49,
      "durationSeconds" : 0.10560337083333593
    }, {
      "type" : "note",
      "tick" : 40020,
      "timeSeconds" : 86.24993675,
      "channel" : 9,
      "noteNumber" : 70,
      "noteName" : "A#4",
      "velocity" : 65,
      "durationTicks" : 35,
      "durationSeconds" : 0.07543097916666852
    }, {
      "type" : "note",
      "tick" : 40020,
      "timeSeconds" : 86.24993675,
      "channel" : 9,
      "noteNumber" : 44,
      "noteName" : "G#2",
      "velocity" : 71,
      "durationTicks" : 46,
      "durationSeconds" : 0.09913785833333577
    }, {
      "type" : "note",
      "tick" : 40080,
      "timeSeconds" : 86.379247,
      "channel" : 9,
      "noteNumber" : 51,
      "noteName" : "D#3",
      "velocity" : 95,
      "durationTicks" : 35,
      "durationSeconds" : 0.07543097916665431
    }, {
      "type" : "note",
      "tick" : 40080,
      "timeSeconds" : 86.379247,
      "channel" : 9,
      "noteNumber" : 70,
      "noteName" : "A#4",
      "velocity" : 100,
      "durationTicks" : 42,
      "durationSeconds" : 0.09051717499998801
    }, {
      "type" : "note",
      "tick" : 40080,
      "timeSeconds" : 86.379247,
      "channel" : 9,
      "noteNumber" : 36,
      "noteName" : "C2",
      "velocity" : 127,
      "durationTicks" : 44,
      "durationSeconds" : 0.09482751666665479
    }, {
      "type" : "note",
      "tick" : 40080,
      "timeSeconds" : 86.379247,
      "channel" : 9,
      "noteNumber" : 46,
      "noteName" : "A#2",
      "velocity" : 91,
      "durationTicks" : 52,
      "durationSeconds" : 0.11206888333332188
    }, {
      "type" : "note",
      "tick" : 40200,
      "timeSeconds" : 86.6378675,
      "channel" : 9,
      "noteNumber" : 51,
      "noteName" : "D#3",
      "velocity" : 76,
      "durationTicks" : 31,
      "durationSeconds" : 0.06681029583333498
    }, {
      "type" : "note",
      "tick" : 40200,
      "timeSeconds" : 86.6378675,
      "channel" : 9,
      "noteNumber" : 70,
      "noteName" : "A#4",
      "velocity" : 80,
      "durationTicks" : 39,
      "durationSeconds" : 0.08405166250000207
    }, {
      "type" : "note",
      "tick" : 40200,
      "timeSeconds" : 86.6378675,
      "channel" : 9,
      "noteNumber" : 36,
      "noteName" : "C2",
      "velocity" : 127,
      "durationTicks" : 55,
      "durationSeconds" : 0.11853439583333625
    }, {
      "type" : "note",
      "tick" : 40200,
      "timeSeconds" : 86.6378675,
      "channel" : 9,
      "noteNumber" : 42,
      "noteName" : "F#2",
      "velocity" : 83,
      "durationTicks" : 57,
      "durationSeconds" : 0.12284473750000302
    }, {
      "type" : "note",
      "tick" : 40260,
      "timeSeconds" : 86.76717775,
      "channel" : 9,
      "noteNumber" : 70,
      "noteName" : "A#4",
      "velocity" : 55,
      "durationTicks" : 29,
      "durationSeconds" : 0.062499954166668203
    }, {
      "type" : "note",
      "tick" : 40260,
      "timeSeconds" : 86.76717775,
      "channel" : 9,
      "noteNumber" : 44,
      "noteName" : "G#2",
      "velocity" : 50,
      "durationTicks" : 39,
      "durationSeconds" : 0.08405166250000207
    }, {
      "type" : "note",
      "tick" : 40320,
      "timeSeconds" : 86.896488,
      "channel" : 9,
      "noteNumber" : 51,
      "noteName" : "D#3",
      "velocity" : 104,
      "durationTicks" : 36,
      "durationSeconds" : 0.07758615000000191
    }, {
      "type" : "note",
      "tick" : 40320,
      "timeSeconds" : 86.896488,
      "channel" : 9,
      "noteNumber" : 70,
      "noteName" : "A#4",
      "velocity" : 100,
      "durationTicks" : 38,
      "durationSeconds" : 0.08189649166666868
    }, {
      "type" : "note",
      "tick" : 40320,
      "timeSeconds" : 86.896488,
      "channel" : 9,
      "noteNumber" : 46,
      "noteName" : "A#2",
      "velocity" : 42,
      "durationTicks" : 54,
      "durationSeconds" : 0.11637922499998865
    }, {
      "type" : "note",
      "tick" : 40440,
      "timeSeconds" : 87.1551085,
      "channel" : 9,
      "noteNumber" : 70,
      "noteName" : "A#4",
      "velocity" : 95,
      "durationTicks" : 36,
      "durationSeconds" : 0.07758615000000191
    }, {
      "type" : "note",
      "tick" : 40440,
      "timeSeconds" : 87.1551085,
      "channel" : 9,
      "noteNumber" : 51,
      "noteName" : "D#3",
      "velocity" : 65,
      "durationTicks" : 38,
      "durationSeconds" : 0.08189649166666868
    }, {
      "type" : "note",
      "tick" : 40440,
      "timeSeconds" : 87.1551085,
      "channel" : 9,
      "noteNumber" : 42,
      "noteName" : "F#2",
      "velocity" : 80,
      "durationTicks" : 56,
      "durationSeconds" : 0.12068956666666963
    }, {
      "type" : "note",
      "tick" : 40500,
      "timeSeconds" : 87.28441875,
      "channel" : 9,
      "noteNumber" : 70,
      "noteName" : "A#4",
      "velocity" : 46,
      "durationTicks" : 28,
      "durationSeconds" : 0.06034478333333482
    }, {
      "type" : "note",
      "tick" : 40500,
      "timeSeconds" : 87.28441875,
      "channel" : 9,
      "noteNumber" : 35,
      "noteName" : "B1",
      "velocity" : 73,
      "durationTicks" : 29,
      "durationSeconds" : 0.062499954166668203
    }, {
      "type" : "note",
      "tick" : 40500,
      "timeSeconds" : 87.28441875,
      "channel" : 9,
      "noteNumber" : 44,
      "noteName" : "G#2",
      "velocity" : 68,
      "durationTicks" : 46,
      "durationSeconds" : 0.09913785833333577
    }, {
      "type" : "note",
      "tick" : 40560,
      "timeSeconds" : 87.413729,
      "channel" : 9,
      "noteNumber" : 51,
      "noteName" : "D#3",
      "velocity" : 100,
      "durationTicks" : 31,
      "durationSeconds" : 0.06681029583333498
    }, {
      "type" : "note",
      "tick" : 40560,
      "timeSeconds" : 87.413729,
      "channel" : 9,
      "noteNumber" : 70,
      "noteName" : "A#4",
      "velocity" : 100,
      "durationTicks" : 33,
      "durationSeconds" : 0.07112063750000175
    }, {
      "type" : "note",
      "tick" : 40560,
      "timeSeconds" : 87.413729,
      "channel" : 9,
      "noteNumber" : 36,
      "noteName" : "C2",
      "velocity" : 127,
      "durationTicks" : 43,
      "durationSeconds" : 0.09267234583333561
    }, {
      "type" : "note",
      "tick" : 40560,
      "timeSeconds" : 87.413729,
      "channel" : 9,
      "noteNumber" : 46,
      "noteName" : "A#2",
      "velocity" : 91,
      "durationTicks" : 51,
      "durationSeconds" : 0.1099137125000027
    }, {
      "type" : "note",
      "tick" : 40680,
      "timeSeconds" : 87.6723495,
      "channel" : 9,
      "noteNumber" : 70,
      "noteName" : "A#4",
      "velocity" : 91,
      "durationTicks" : 35,
      "durationSeconds" : 0.07543097916666852
    }, {
      "type" : "note",
      "tick" : 40680,
      "timeSeconds" : 87.6723495,
      "channel" : 9,
      "noteNumber" : 51,
      "noteName" : "D#3",
      "velocity" : 65,
      "durationTicks" : 36,
      "durationSeconds" : 0.07758615000000191
    }, {
      "type" : "note",
      "tick" : 40680,
      "timeSeconds" : 87.6723495,
      "channel" : 9,
      "noteNumber" : 36,
      "noteName" : "C2",
      "velocity" : 127,
      "durationTicks" : 46,
      "durationSeconds" : 0.09913785833333577
    }, {
      "type" : "note",
      "tick" : 40680,
      "timeSeconds" : 87.6723495,
      "channel" : 9,
      "noteNumber" : 42,
      "noteName" : "F#2",
      "velocity" : 91,
      "durationTicks" : 55,
      "durationSeconds" : 0.11853439583333625
    }, {
      "type" : "note",
      "tick" : 40740,
      "timeSeconds" : 87.80165975,
      "channel" : 9,
      "noteNumber" : 70,
      "noteName" : "A#4",
      "velocity" : 57,
      "durationTicks" : 31,
      "durationSeconds" : 0.06681029583333498
    }, {
      "type" : "note",
      "tick" : 40740,
      "timeSeconds" : 87.80165975,
      "channel" : 9,
      "noteNumber" : 44,
      "noteName" : "G#2",
      "velocity" : 43,
      "durationTicks" : 52,
      "durationSeconds" : 0.11206888333333609
    }, {
      "type" : "note",
      "tick" : 40800,
      "timeSeconds" : 87.93097,
      "channel" : 9,
      "noteNumber" : 51,
      "noteName" : "D#3",
      "velocity" : 100,
      "durationTicks" : 30,
      "durationSeconds" : 0.06465512500000159
    }, {
      "type" : "note",
      "tick" : 40800,
      "timeSeconds" : 87.93097,
      "channel" : 9,
      "noteNumber" : 70,
      "noteName" : "A#4",
      "velocity" : 100,
      "durationTicks" : 39,
      "durationSeconds" : 0.08405166250000207
    }, {
      "type" : "note",
      "tick" : 40800,
      "timeSeconds" : 87.93097,
      "channel" : 9,
      "noteNumber" : 46,
      "noteName" : "A#2",
      "velocity" : 73,
      "durationTicks" : 53,
      "durationSeconds" : 0.11422405416666948
    }, {
      "type" : "note",
      "tick" : 40860,
      "timeSeconds" : 88.06028025,
      "channel" : 9,
      "noteNumber" : 51,
      "noteName" : "D#3",
      "velocity" : 73,
      "durationTicks" : 46,
      "durationSeconds" : 0.09913785833332156
    }, {
      "type" : "note",
      "tick" : 40920,
      "timeSeconds" : 88.1895905,
      "channel" : 9,
      "noteNumber" : 70,
      "noteName" : "A#4",
      "velocity" : 95,
      "durationTicks" : 41,
      "durationSeconds" : 0.08836200416666884
    }, {
      "type" : "note",
      "tick" : 40920,
      "timeSeconds" : 88.1895905,
      "channel" : 9,
      "noteNumber" : 42,
      "noteName" : "F#2",
      "velocity" : 83,
      "durationTicks" : 49,
      "durationSeconds" : 0.10560337083333593
    }, {
      "type" : "note",
      "tick" : 40980,
      "timeSeconds" : 88.31890075,
      "channel" : 9,
      "noteNumber" : 35,
      "noteName" : "B1",
      "velocity" : 81,
      "durationTicks" : 31,
      "durationSeconds" : 0.06681029583333498
    }, {
      "type" : "note",
      "tick" : 40980,
      "timeSeconds" : 88.31890075,
      "channel" : 9,
      "noteNumber" : 70,
      "noteName" : "A#4",
      "velocity" : 61,
      "durationTicks" : 34,
      "durationSeconds" : 0.07327580833333514
    }, {
      "type" : "note",
      "tick" : 40980,
      "timeSeconds" : 88.31890075,
      "channel" : 9,
      "noteNumber" : 44,
      "noteName" : "G#2",
      "velocity" : 57,
      "durationTicks" : 40,
      "durationSeconds" : 0.08620683333333545
    }, {
      "type" : "note",
      "tick" : 41040,
      "timeSeconds" : 88.448211,
      "channel" : 9,
      "noteNumber" : 51,
      "noteName" : "D#3",
      "velocity" : 100,
      "durationTicks" : 35,
      "durationSeconds" : 0.07543097916666852
    }, {
      "type" : "note",
      "tick" : 41040,
      "timeSeconds" : 88.448211,
      "channel" : 9,
      "noteNumber" : 70,
      "noteName" : "A#4",
      "velocity" : 104,
      "durationTicks" : 35,
      "durationSeconds" : 0.07543097916666852
    }, {
      "type" : "note",
      "tick" : 41040,
      "timeSeconds" : 88.448211,
      "channel" : 9,
      "noteNumber" : 36,
      "noteName" : "C2",
      "velocity" : 127,
      "durationTicks" : 39,
      "durationSeconds" : 0.08405166250000207
    }, {
      "type" : "note",
      "tick" : 41040,
      "timeSeconds" : 88.448211,
      "channel" : 9,
      "noteNumber" : 46,
      "noteName" : "A#2",
      "velocity" : 87,
      "durationTicks" : 47,
      "durationSeconds" : 0.10129302916666916
    }, {
      "type" : "note",
      "tick" : 41160,
      "timeSeconds" : 88.7068315,
      "channel" : 9,
      "noteNumber" : 51,
      "noteName" : "D#3",
      "velocity" : 91,
      "durationTicks" : 32,
      "durationSeconds" : 0.06896546666665415
    }, {
      "type" : "note",
      "tick" : 41160,
      "timeSeconds" : 88.7068315,
      "channel" : 9,
      "noteNumber" : 40,
      "noteName" : "E2",
      "velocity" : 122,
      "durationTicks" : 33,
      "durationSeconds" : 0.07112063749998754
    }, {
      "type" : "note",
      "tick" : 41160,
      "timeSeconds" : 88.7068315,
      "channel" : 9,
      "noteNumber" : 70,
      "noteName" : "A#4",
      "velocity" : 91,
      "durationTicks" : 40,
      "durationSeconds" : 0.08620683333332124
    }, {
      "type" : "note",
      "tick" : 41160,
      "timeSeconds" : 88.7068315,
      "channel" : 9,
      "noteNumber" : 36,
      "noteName" : "C2",
      "velocity" : 127,
      "durationTicks" : 48,
      "durationSeconds" : 0.10344819999998833
    }, {
      "type" : "note",
      "tick" : 41160,
      "timeSeconds" : 88.7068315,
      "channel" : 9,
      "noteNumber" : 42,
      "noteName" : "F#2",
      "velocity" : 87,
      "durationTicks" : 49,
      "durationSeconds" : 0.10560337083332172
    }, {
      "type" : "note",
      "tick" : 41220,
      "timeSeconds" : 88.83614175,
      "channel" : 9,
      "noteNumber" : 70,
      "noteName" : "A#4",
      "velocity" : 59,
      "durationTicks" : 33,
      "durationSeconds" : 0.07112063750000175
    }, {
      "type" : "note",
      "tick" : 41220,
      "timeSeconds" : 88.83614175,
      "channel" : 9,
      "noteNumber" : 44,
      "noteName" : "G#2",
      "velocity" : 61,
      "durationTicks" : 40,
      "durationSeconds" : 0.08620683333333545
    }, {
      "type" : "note",
      "tick" : 41280,
      "timeSeconds" : 88.965452,
      "channel" : 9,
      "noteNumber" : 51,
      "noteName" : "D#3",
      "velocity" : 95,
      "durationTicks" : 32,
      "durationSeconds" : 0.06896546666666836
    }, {
      "type" : "note",
      "tick" : 41280,
      "timeSeconds" : 88.965452,
      "channel" : 9,
      "noteNumber" : 70,
      "noteName" : "A#4",
      "velocity" : 104,
      "durationTicks" : 37,
      "durationSeconds" : 0.0797413208333353
    }, {
      "type" : "note",
      "tick" : 41280,
      "timeSeconds" : 88.965452,
      "channel" : 9,
      "noteNumber" : 46,
      "noteName" : "A#2",
      "velocity" : 87,
      "durationTicks" : 43,
      "durationSeconds" : 0.09267234583333561
    }, {
      "type" : "note",
      "tick" : 41400,
      "timeSeconds" : 89.2240725,
      "channel" : 9,
      "noteNumber" : 42,
      "noteName" : "F#2",
      "velocity" : 49,
      "durationTicks" : 32,
      "durationSeconds" : 0.06896546666665415
    }, {
      "type" : "note",
      "tick" : 41400,
      "timeSeconds" : 89.2240725,
      "channel" : 9,
      "noteNumber" : 70,
      "noteName" : "A#4",
      "velocity" : 87,
      "durationTicks" : 33,
      "durationSeconds" : 0.07112063749998754
    }, {
      "type" : "note",
      "tick" : 41400,
      "timeSeconds" : 89.2240725,
      "channel" : 9,
      "noteNumber" : 51,
      "noteName" : "D#3",
      "velocity" : 87,
      "durationTicks" : 34,
      "durationSeconds" : 0.07327580833332092
    }, {
      "type" : "note",
      "tick" : 41460,
      "timeSeconds" : 89.35338275,
      "channel" : 9,
      "noteNumber" : 70,
      "noteName" : "A#4",
      "velocity" : 68,
      "durationTicks" : 32,
      "durationSeconds" : 0.06896546666666836
    }, {
      "type" : "note",
      "tick" : 41460,
      "timeSeconds" : 89.35338275,
      "channel" : 9,
      "noteNumber" : 35,
      "noteName" : "B1",
      "velocity" : 83,
      "durationTicks" : 35,
      "durationSeconds" : 0.07543097916666852
    }, {
      "type" : "note",
      "tick" : 41460,
      "timeSeconds" : 89.35338275,
      "channel" : 9,
      "noteNumber" : 44,
      "noteName" : "G#2",
      "velocity" : 73,
      "durationTicks" : 43,
      "durationSeconds" : 0.09267234583333561
    }, {
      "type" : "note",
      "tick" : 41520,
      "timeSeconds" : 89.482693,
      "channel" : 9,
      "noteNumber" : 70,
      "noteName" : "A#4",
      "velocity" : 100,
      "durationTicks" : 39,
      "durationSeconds" : 0.08405166250000207
    }, {
      "type" : "note",
      "tick" : 41520,
      "timeSeconds" : 89.482693,
      "channel" : 9,
      "noteNumber" : 36,
      "noteName" : "C2",
      "velocity" : 127,
      "durationTicks" : 40,
      "durationSeconds" : 0.08620683333333545
    }, {
      "type" : "note",
      "tick" : 41520,
      "timeSeconds" : 89.482693,
      "channel" : 9,
      "noteNumber" : 51,
      "noteName" : "D#3",
      "velocity" : 100,
      "durationTicks" : 41,
      "durationSeconds" : 0.08836200416666884
    }, {
      "type" : "note",
      "tick" : 41520,
      "timeSeconds" : 89.482693,
      "channel" : 9,
      "noteNumber" : 46,
      "noteName" : "A#2",
      "velocity" : 91,
      "durationTicks" : 46,
      "durationSeconds" : 0.09913785833333577
    }, {
      "type" : "note",
      "tick" : 41640,
      "timeSeconds" : 89.7413135,
      "channel" : 9,
      "noteNumber" : 51,
      "noteName" : "D#3",
      "velocity" : 73,
      "durationTicks" : 32,
      "durationSeconds" : 0.06896546666666836
    }, {
      "type" : "note",
      "tick" : 41640,
      "timeSeconds" : 89.7413135,
      "channel" : 9,
      "noteNumber" : 70,
      "noteName" : "A#4",
      "velocity" : 91,
      "durationTicks" : 35,
      "durationSeconds" : 0.07543097916666852
    }, {
      "type" : "note",
      "tick" : 41640,
      "timeSeconds" : 89.7413135,
      "channel" : 9,
      "noteNumber" : 36,
      "noteName" : "C2",
      "velocity" : 127,
      "durationTicks" : 44,
      "durationSeconds" : 0.094827516666669
    }, {
      "type" : "note",
      "tick" : 41640,
      "timeSeconds" : 89.7413135,
      "channel" : 9,
      "noteNumber" : 42,
      "noteName" : "F#2",
      "velocity" : 91,
      "durationTicks" : 48,
      "durationSeconds" : 0.10344820000000254
    }, {
      "type" : "note",
      "tick" : 41700,
      "timeSeconds" : 89.87062375,
      "channel" : 9,
      "noteNumber" : 70,
      "noteName" : "A#4",
      "velocity" : 57,
      "durationTicks" : 31,
      "durationSeconds" : 0.06681029583333498
    }, {
      "type" : "note",
      "tick" : 41700,
      "timeSeconds" : 89.87062375,
      "channel" : 9,
      "noteNumber" : 44,
      "noteName" : "G#2",
      "velocity" : 49,
      "durationTicks" : 44,
      "durationSeconds" : 0.094827516666669
    }, {
      "type" : "note",
      "tick" : 41760,
      "timeSeconds" : 89.999934,
      "channel" : 9,
      "noteNumber" : 70,
      "noteName" : "A#4",
      "velocity" : 104,
      "durationTicks" : 30,
      "durationSeconds" : 0.06465512500000159
    }, {
      "type" : "note",
      "tick" : 41760,
      "timeSeconds" : 89.999934,
      "channel" : 9,
      "noteNumber" : 51,
      "noteName" : "D#3",
      "velocity" : 100,
      "durationTicks" : 38,
      "durationSeconds" : 0.08189649166666868
    }, {
      "type" : "note",
      "tick" : 41760,
      "timeSeconds" : 89.999934,
      "channel" : 9,
      "noteNumber" : 46,
      "noteName" : "A#2",
      "velocity" : 83,
      "durationTicks" : 57,
      "durationSeconds" : 0.12284473750000302
    }, {
      "type" : "note",
      "tick" : 41820,
      "timeSeconds" : 90.12924425,
      "channel" : 9,
      "noteNumber" : 51,
      "noteName" : "D#3",
      "velocity" : 65,
      "durationTicks" : 37,
      "durationSeconds" : 0.0797413208333353
    }, {
      "type" : "note",
      "tick" : 41880,
      "timeSeconds" : 90.2585545,
      "channel" : 9,
      "noteNumber" : 70,
      "noteName" : "A#4",
      "velocity" : 87,
      "durationTicks" : 30,
      "durationSeconds" : 0.06465512500000159
    }, {
      "type" : "note",
      "tick" : 41880,
      "timeSeconds" : 90.2585545,
      "channel" : 9,
      "noteNumber" : 42,
      "noteName" : "F#2",
      "velocity" : 71,
      "durationTicks" : 65,
      "durationSeconds" : 0.1400861041666701
    }, {
      "type" : "note",
      "tick" : 41940,
      "timeSeconds" : 90.38786475,
      "channel" : 9,
      "noteNumber" : 70,
      "noteName" : "A#4",
      "velocity" : 57,
      "durationTicks" : 30,
      "durationSeconds" : 0.06465512499998738
    }, {
      "type" : "note",
      "tick" : 41940,
      "timeSeconds" : 90.38786475,
      "channel" : 9,
      "noteNumber" : 35,
      "noteName" : "B1",
      "velocity" : 86,
      "durationTicks" : 34,
      "durationSeconds" : 0.07327580833332092
    }, {
      "type" : "note",
      "tick" : 41940,
      "timeSeconds" : 90.38786475,
      "channel" : 9,
      "noteNumber" : 44,
      "noteName" : "G#2",
      "velocity" : 65,
      "durationTicks" : 53,
      "durationSeconds" : 0.11422405416665526
    }, {
      "type" : "note",
      "tick" : 42000,
      "timeSeconds" : 90.517175,
      "channel" : 9,
      "noteNumber" : 70,
      "noteName" : "A#4",
      "velocity" : 100,
      "durationTicks" : 34,
      "durationSeconds" : 0.07327580833333514
    }, {
      "type" : "note",
      "tick" : 42000,
      "timeSeconds" : 90.517175,
      "channel" : 9,
      "noteNumber" : 51,
      "noteName" : "D#3",
      "velocity" : 100,
      "durationTicks" : 39,
      "durationSeconds" : 0.08405166250000207
    }, {
      "type" : "note",
      "tick" : 42000,
      "timeSeconds" : 90.517175,
      "channel" : 9,
      "noteNumber" : 36,
      "noteName" : "C2",
      "velocity" : 127,
      "durationTicks" : 40,
      "durationSeconds" : 0.08620683333333545
    }, {
      "type" : "note",
      "tick" : 42000,
      "timeSeconds" : 90.517175,
      "channel" : 9,
      "noteNumber" : 46,
      "noteName" : "A#2",
      "velocity" : 80,
      "durationTicks" : 54,
      "durationSeconds" : 0.11637922500000286
    }, {
      "type" : "note",
      "tick" : 42120,
      "timeSeconds" : 90.7757955,
      "channel" : 9,
      "noteNumber" : 51,
      "noteName" : "D#3",
      "velocity" : 87,
      "durationTicks" : 32,
      "durationSeconds" : 0.06896546666666836
    }, {
      "type" : "note",
      "tick" : 42120,
      "timeSeconds" : 90.7757955,
      "channel" : 9,
      "noteNumber" : 70,
      "noteName" : "A#4",
      "velocity" : 91,
      "durationTicks" : 36,
      "durationSeconds" : 0.07758615000000191
    }, {
      "type" : "note",
      "tick" : 42120,
      "timeSeconds" : 90.7757955,
      "channel" : 9,
      "noteNumber" : 36,
      "noteName" : "C2",
      "velocity" : 127,
      "durationTicks" : 43,
      "durationSeconds" : 0.09267234583333561
    }, {
      "type" : "note",
      "tick" : 42120,
      "timeSeconds" : 90.7757955,
      "channel" : 9,
      "noteNumber" : 42,
      "noteName" : "F#2",
      "velocity" : 91,
      "durationTicks" : 50,
      "durationSeconds" : 0.10775854166666932
    }, {
      "type" : "note",
      "tick" : 42180,
      "timeSeconds" : 90.90510575,
      "channel" : 9,
      "noteNumber" : 70,
      "noteName" : "A#4",
      "velocity" : 46,
      "durationTicks" : 28,
      "durationSeconds" : 0.06034478333333482
    }, {
      "type" : "note",
      "tick" : 42180,
      "timeSeconds" : 90.90510575,
      "channel" : 9,
      "noteNumber" : 44,
      "noteName" : "G#2",
      "velocity" : 55,
      "durationTicks" : 47,
      "durationSeconds" : 0.10129302916666916
    }, {
      "type" : "note",
      "tick" : 42240,
      "timeSeconds" : 91.034416,
      "channel" : 9,
      "noteNumber" : 51,
      "noteName" : "D#3",
      "velocity" : 95,
      "durationTicks" : 34,
      "durationSeconds" : 0.07327580833333514
    }, {
      "type" : "note",
      "tick" : 42240,
      "timeSeconds" : 91.034416,
      "channel" : 9,
      "noteNumber" : 70,
      "noteName" : "A#4",
      "velocity" : 95,
      "durationTicks" : 36,
      "durationSeconds" : 0.07758615000000191
    }, {
      "type" : "note",
      "tick" : 42240,
      "timeSeconds" : 91.034416,
      "channel" : 9,
      "noteNumber" : 46,
      "noteName" : "A#2",
      "velocity" : 53,
      "durationTicks" : 48,
      "durationSeconds" : 0.10344820000000254
    }, {
      "type" : "note",
      "tick" : 42360,
      "timeSeconds" : 91.2930365,
      "channel" : 9,
      "noteNumber" : 51,
      "noteName" : "D#3",
      "velocity" : 80,
      "durationTicks" : 33,
      "durationSeconds" : 0.07112063750000175
    }, {
      "type" : "note",
      "tick" : 42360,
      "timeSeconds" : 91.2930365,
      "channel" : 9,
      "noteNumber" : 70,
      "noteName" : "A#4",
      "velocity" : 83,
      "durationTicks" : 39,
      "durationSeconds" : 0.08405166250000207
    }, {
      "type" : "note",
      "tick" : 42360,
      "timeSeconds" : 91.2930365,
      "channel" : 9,
      "noteNumber" : 42,
      "noteName" : "F#2",
      "velocity" : 87,
      "durationTicks" : 45,
      "durationSeconds" : 0.09698268750000238
    }, {
      "type" : "note",
      "tick" : 42420,
      "timeSeconds" : 91.42234675,
      "channel" : 9,
      "noteNumber" : 35,
      "noteName" : "B1",
      "velocity" : 81,
      "durationTicks" : 34,
      "durationSeconds" : 0.07327580833333514
    }, {
      "type" : "note",
      "tick" : 42420,
      "timeSeconds" : 91.42234675,
      "channel" : 9,
      "noteNumber" : 70,
      "noteName" : "A#4",
      "velocity" : 57,
      "durationTicks" : 35,
      "durationSeconds" : 0.07543097916666852
    }, {
      "type" : "note",
      "tick" : 42420,
      "timeSeconds" : 91.42234675,
      "channel" : 9,
      "noteNumber" : 44,
      "noteName" : "G#2",
      "velocity" : 63,
      "durationTicks" : 48,
      "durationSeconds" : 0.10344820000000254
    }, {
      "type" : "note",
      "tick" : 42480,
      "timeSeconds" : 91.551657,
      "channel" : 9,
      "noteNumber" : 51,
      "noteName" : "D#3",
      "velocity" : 95,
      "durationTicks" : 34,
      "durationSeconds" : 0.07327580833332092
    }, {
      "type" : "note",
      "tick" : 42480,
      "timeSeconds" : 91.551657,
      "channel" : 9,
      "noteNumber" : 70,
      "noteName" : "A#4",
      "velocity" : 95,
      "durationTicks" : 35,
      "durationSeconds" : 0.07543097916665431
    }, {
      "type" : "note",
      "tick" : 42480,
      "timeSeconds" : 91.551657,
      "channel" : 9,
      "noteNumber" : 36,
      "noteName" : "C2",
      "velocity" : 127,
      "durationTicks" : 39,
      "durationSeconds" : 0.08405166249998786
    }, {
      "type" : "note",
      "tick" : 42480,
      "timeSeconds" : 91.551657,
      "channel" : 9,
      "noteNumber" : 46,
      "noteName" : "A#2",
      "velocity" : 73,
      "durationTicks" : 46,
      "durationSeconds" : 0.09913785833332156
    }, {
      "type" : "note",
      "tick" : 42540,
      "timeSeconds" : 91.68096725,
      "channel" : 9,
      "noteNumber" : 42,
      "noteName" : "F#2",
      "velocity" : 87,
      "durationTicks" : 62,
      "durationSeconds" : 0.13362059166666995
    }, {
      "type" : "note",
      "tick" : 42600,
      "timeSeconds" : 91.8102775,
      "channel" : 9,
      "noteNumber" : 51,
      "noteName" : "D#3",
      "velocity" : 87,
      "durationTicks" : 28,
      "durationSeconds" : 0.06034478333333482
    }, {
      "type" : "note",
      "tick" : 42600,
      "timeSeconds" : 91.8102775,
      "channel" : 9,
      "noteNumber" : 70,
      "noteName" : "A#4",
      "velocity" : 91,
      "durationTicks" : 34,
      "durationSeconds" : 0.07327580833333514
    }, {
      "type" : "note",
      "tick" : 42600,
      "timeSeconds" : 91.8102775,
      "channel" : 9,
      "noteNumber" : 36,
      "noteName" : "C2",
      "velocity" : 127,
      "durationTicks" : 50,
      "durationSeconds" : 0.10775854166666932
    }, {
      "type" : "note",
      "tick" : 42660,
      "timeSeconds" : 91.93958775,
      "channel" : 9,
      "noteNumber" : 70,
      "noteName" : "A#4",
      "velocity" : 57,
      "durationTicks" : 36,
      "durationSeconds" : 0.07758615000000191
    }, {
      "type" : "note",
      "tick" : 42660,
      "timeSeconds" : 91.93958775,
      "channel" : 9,
      "noteNumber" : 44,
      "noteName" : "G#2",
      "velocity" : 55,
      "durationTicks" : 46,
      "durationSeconds" : 0.09913785833333577
    }, {
      "type" : "note",
      "tick" : 42720,
      "timeSeconds" : 92.068898,
      "channel" : 9,
      "noteNumber" : 51,
      "noteName" : "D#3",
      "velocity" : 95,
      "durationTicks" : 35,
      "durationSeconds" : 0.07543097916666852
    }, {
      "type" : "note",
      "tick" : 42720,
      "timeSeconds" : 92.068898,
      "channel" : 9,
      "noteNumber" : 70,
      "noteName" : "A#4",
      "velocity" : 91,
      "durationTicks" : 36,
      "durationSeconds" : 0.07758615000000191
    }, {
      "type" : "note",
      "tick" : 42720,
      "timeSeconds" : 92.068898,
      "channel" : 9,
      "noteNumber" : 46,
      "noteName" : "A#2",
      "velocity" : 76,
      "durationTicks" : 53,
      "durationSeconds" : 0.11422405416665526
    }, {
      "type" : "note",
      "tick" : 42780,
      "timeSeconds" : 92.19820825,
      "channel" : 9,
      "noteNumber" : 40,
      "noteName" : "E2",
      "velocity" : 77,
      "durationTicks" : 51,
      "durationSeconds" : 0.1099137125000027
    }, {
      "type" : "note",
      "tick" : 42840,
      "timeSeconds" : 92.3275185,
      "channel" : 9,
      "noteNumber" : 51,
      "noteName" : "D#3",
      "velocity" : 83,
      "durationTicks" : 33,
      "durationSeconds" : 0.07112063750000175
    }, {
      "type" : "note",
      "tick" : 42840,
      "timeSeconds" : 92.3275185,
      "channel" : 9,
      "noteNumber" : 70,
      "noteName" : "A#4",
      "velocity" : 91,
      "durationTicks" : 36,
      "durationSeconds" : 0.07758615000000191
    }, {
      "type" : "note",
      "tick" : 42840,
      "timeSeconds" : 92.3275185,
      "channel" : 9,
      "noteNumber" : 42,
      "noteName" : "F#2",
      "velocity" : 44,
      "durationTicks" : 53,
      "durationSeconds" : 0.11422405416666948
    }, {
      "type" : "note",
      "tick" : 42900,
      "timeSeconds" : 92.45682875,
      "channel" : 9,
      "noteNumber" : 70,
      "noteName" : "A#4",
      "velocity" : 59,
      "durationTicks" : 35,
      "durationSeconds" : 0.07543097916666852
    }, {
      "type" : "note",
      "tick" : 42900,
      "timeSeconds" : 92.45682875,
      "channel" : 9,
      "noteNumber" : 40,
      "noteName" : "E2",
      "velocity" : 79,
      "durationTicks" : 43,
      "durationSeconds" : 0.09267234583333561
    }, {
      "type" : "note",
      "tick" : 42900,
      "timeSeconds" : 92.45682875,
      "channel" : 9,
      "noteNumber" : 44,
      "noteName" : "G#2",
      "velocity" : 55,
      "durationTicks" : 68,
      "durationSeconds" : 0.14655161666667027
    }, {
      "type" : "note",
      "tick" : 42960,
      "timeSeconds" : 92.586139,
      "channel" : 9,
      "noteNumber" : 51,
      "noteName" : "D#3",
      "velocity" : 100,
      "durationTicks" : 32,
      "durationSeconds" : 0.06896546666666836
    }, {
      "type" : "note",
      "tick" : 42960,
      "timeSeconds" : 92.586139,
      "channel" : 9,
      "noteNumber" : 70,
      "noteName" : "A#4",
      "velocity" : 91,
      "durationTicks" : 32,
      "durationSeconds" : 0.06896546666666836
    }, {
      "type" : "note",
      "tick" : 42968,
      "timeSeconds" : 92.60338036666667,
      "channel" : 9,
      "noteNumber" : 36,
      "noteName" : "C2",
      "velocity" : 127,
      "durationTicks" : 41,
      "durationSeconds" : 0.08836200416666884
    }, {
      "type" : "note",
      "tick" : 42960,
      "timeSeconds" : 92.586139,
      "channel" : 9,
      "noteNumber" : 46,
      "noteName" : "A#2",
      "velocity" : 49,
      "durationTicks" : 56,
      "durationSeconds" : 0.12068956666666963
    }, {
      "type" : "note",
      "tick" : 43020,
      "timeSeconds" : 92.71544925,
      "channel" : 9,
      "noteNumber" : 42,
      "noteName" : "F#2",
      "velocity" : 73,
      "durationTicks" : 57,
      "durationSeconds" : 0.12284473749998881
    }, {
      "type" : "note",
      "tick" : 43080,
      "timeSeconds" : 92.8447595,
      "channel" : 9,
      "noteNumber" : 35,
      "noteName" : "B1",
      "velocity" : 64,
      "durationTicks" : 25,
      "durationSeconds" : 0.05387927083333466
    }, {
      "type" : "note",
      "tick" : 43080,
      "timeSeconds" : 92.8447595,
      "channel" : 9,
      "noteNumber" : 51,
      "noteName" : "D#3",
      "velocity" : 95,
      "durationTicks" : 25,
      "durationSeconds" : 0.05387927083333466
    }, {
      "type" : "note",
      "tick" : 43080,
      "timeSeconds" : 92.8447595,
      "channel" : 9,
      "noteNumber" : 70,
      "noteName" : "A#4",
      "velocity" : 76,
      "durationTicks" : 30,
      "durationSeconds" : 0.06465512500000159
    }, {
      "type" : "note",
      "tick" : 43080,
      "timeSeconds" : 92.8447595,
      "channel" : 9,
      "noteNumber" : 36,
      "noteName" : "C2",
      "velocity" : 127,
      "durationTicks" : 48,
      "durationSeconds" : 0.10344820000000254
    }, {
      "type" : "note",
      "tick" : 43080,
      "timeSeconds" : 92.8447595,
      "channel" : 9,
      "noteNumber" : 44,
      "noteName" : "G#2",
      "velocity" : 57,
      "durationTicks" : 82,
      "durationSeconds" : 0.17672400833333768
    }, {
      "type" : "note",
      "tick" : 43200,
      "timeSeconds" : 93.10338,
      "channel" : 9,
      "noteNumber" : 51,
      "noteName" : "D#3",
      "velocity" : 91,
      "durationTicks" : 30,
      "durationSeconds" : 0.06465512500000159
    }, {
      "type" : "note",
      "tick" : 43200,
      "timeSeconds" : 93.10338,
      "channel" : 9,
      "noteNumber" : 70,
      "noteName" : "A#4",
      "velocity" : 95,
      "durationTicks" : 37,
      "durationSeconds" : 0.0797413208333353
    }, {
      "type" : "note",
      "tick" : 43200,
      "timeSeconds" : 93.10338,
      "channel" : 9,
      "noteNumber" : 49,
      "noteName" : "C#3",
      "velocity" : 76,
      "durationTicks" : 43,
      "durationSeconds" : 0.09267234583333561
    }, {
      "type" : "note",
      "tick" : 43260,
      "timeSeconds" : 93.23269025,
      "channel" : 9,
      "noteNumber" : 51,
      "noteName" : "D#3",
      "velocity" : 76,
      "durationTicks" : 34,
      "durationSeconds" : 0.07327580833333514
    }, {
      "type" : "note",
      "tick" : 43320,
      "timeSeconds" : 93.3620005,
      "channel" : 9,
      "noteNumber" : 70,
      "noteName" : "A#4",
      "velocity" : 91,
      "durationTicks" : 34,
      "durationSeconds" : 0.07327580833333514
    }, {
      "type" : "note",
      "tick" : 43320,
      "timeSeconds" : 93.3620005,
      "channel" : 9,
      "noteNumber" : 42,
      "noteName" : "F#2",
      "velocity" : 63,
      "durationTicks" : 54,
      "durationSeconds" : 0.11637922500000286
    }, {
      "type" : "note",
      "tick" : 43380,
      "timeSeconds" : 93.49131075,
      "channel" : 9,
      "noteNumber" : 35,
      "noteName" : "B1",
      "velocity" : 49,
      "durationTicks" : 20,
      "durationSeconds" : 0.04310341666666773
    }, {
      "type" : "note",
      "tick" : 43380,
      "timeSeconds" : 93.49131075,
      "channel" : 9,
      "noteNumber" : 51,
      "noteName" : "D#3",
      "velocity" : 100,
      "durationTicks" : 34,
      "durationSeconds" : 0.07327580833333514
    }, {
      "type" : "note",
      "tick" : 43380,
      "timeSeconds" : 93.49131075,
      "channel" : 9,
      "noteNumber" : 70,
      "noteName" : "A#4",
      "velocity" : 71,
      "durationTicks" : 36,
      "durationSeconds" : 0.07758615000000191
    }, {
      "type" : "note",
      "tick" : 43380,
      "timeSeconds" : 93.49131075,
      "channel" : 9,
      "noteNumber" : 44,
      "noteName" : "G#2",
      "velocity" : 71,
      "durationTicks" : 45,
      "durationSeconds" : 0.09698268750000238
    }, {
      "type" : "note",
      "tick" : 43440,
      "timeSeconds" : 93.620621,
      "channel" : 9,
      "noteNumber" : 70,
      "noteName" : "A#4",
      "velocity" : 95,
      "durationTicks" : 34,
      "durationSeconds" : 0.07327580833333514
    }, {
      "type" : "note",
      "tick" : 43440,
      "timeSeconds" : 93.620621,
      "channel" : 9,
      "noteNumber" : 36,
      "noteName" : "C2",
      "velocity" : 127,
      "durationTicks" : 40,
      "durationSeconds" : 0.08620683333333545
    }, {
      "type" : "note",
      "tick" : 43440,
      "timeSeconds" : 93.620621,
      "channel" : 9,
      "noteNumber" : 46,
      "noteName" : "A#2",
      "velocity" : 91,
      "durationTicks" : 48,
      "durationSeconds" : 0.10344820000000254
    }, {
      "type" : "note",
      "tick" : 43560,
      "timeSeconds" : 93.8792415,
      "channel" : 9,
      "noteNumber" : 51,
      "noteName" : "D#3",
      "velocity" : 80,
      "durationTicks" : 30,
      "durationSeconds" : 0.06465512499998738
    }, {
      "type" : "note",
      "tick" : 43560,
      "timeSeconds" : 93.8792415,
      "channel" : 9,
      "noteNumber" : 70,
      "noteName" : "A#4",
      "velocity" : 91,
      "durationTicks" : 34,
      "durationSeconds" : 0.07327580833332092
    }, {
      "type" : "note",
      "tick" : 43560,
      "timeSeconds" : 93.8792415,
      "channel" : 9,
      "noteNumber" : 42,
      "noteName" : "F#2",
      "velocity" : 87,
      "durationTicks" : 47,
      "durationSeconds" : 0.10129302916665495
    }, {
      "type" : "note",
      "tick" : 43560,
      "timeSeconds" : 93.8792415,
      "channel" : 9,
      "noteNumber" : 36,
      "noteName" : "C2",
      "velocity" : 127,
      "durationTicks" : 52,
      "durationSeconds" : 0.11206888333332188
    }, {
      "type" : "note",
      "tick" : 43620,
      "timeSeconds" : 94.00855175,
      "channel" : 9,
      "noteNumber" : 70,
      "noteName" : "A#4",
      "velocity" : 63,
      "durationTicks" : 35,
      "durationSeconds" : 0.07543097916666852
    }, {
      "type" : "note",
      "tick" : 43620,
      "timeSeconds" : 94.00855175,
      "channel" : 9,
      "noteNumber" : 44,
      "noteName" : "G#2",
      "velocity" : 46,
      "durationTicks" : 50,
      "durationSeconds" : 0.10775854166666932
    }, {
      "type" : "note",
      "tick" : 43680,
      "timeSeconds" : 94.137862,
      "channel" : 9,
      "noteNumber" : 51,
      "noteName" : "D#3",
      "velocity" : 100,
      "durationTicks" : 30,
      "durationSeconds" : 0.06465512500000159
    }, {
      "type" : "note",
      "tick" : 43680,
      "timeSeconds" : 94.137862,
      "channel" : 9,
      "noteNumber" : 70,
      "noteName" : "A#4",
      "velocity" : 95,
      "durationTicks" : 36,
      "durationSeconds" : 0.07758615000000191
    }, {
      "type" : "note",
      "tick" : 43680,
      "timeSeconds" : 94.137862,
      "channel" : 9,
      "noteNumber" : 46,
      "noteName" : "A#2",
      "velocity" : 50,
      "durationTicks" : 47,
      "durationSeconds" : 0.10129302916666916
    }, {
      "type" : "note",
      "tick" : 43800,
      "timeSeconds" : 94.3964825,
      "channel" : 9,
      "noteNumber" : 51,
      "noteName" : "D#3",
      "velocity" : 80,
      "durationTicks" : 29,
      "durationSeconds" : 0.062499954166668203
    }, {
      "type" : "note",
      "tick" : 43800,
      "timeSeconds" : 94.3964825,
      "channel" : 9,
      "noteNumber" : 70,
      "noteName" : "A#4",
      "velocity" : 95,
      "durationTicks" : 36,
      "durationSeconds" : 0.07758615000000191
    }, {
      "type" : "note",
      "tick" : 43800,
      "timeSeconds" : 94.3964825,
      "channel" : 9,
      "noteNumber" : 44,
      "noteName" : "G#2",
      "velocity" : 71,
      "durationTicks" : 49,
      "durationSeconds" : 0.10560337083332172
    }, {
      "type" : "note",
      "tick" : 43800,
      "timeSeconds" : 94.3964825,
      "channel" : 9,
      "noteNumber" : 42,
      "noteName" : "F#2",
      "velocity" : 80,
      "durationTicks" : 51,
      "durationSeconds" : 0.10991371249998849
    }, {
      "type" : "note",
      "tick" : 43860,
      "timeSeconds" : 94.52579275,
      "channel" : 9,
      "noteNumber" : 35,
      "noteName" : "B1",
      "velocity" : 81,
      "durationTicks" : 31,
      "durationSeconds" : 0.06681029583333498
    }, {
      "type" : "note",
      "tick" : 43860,
      "timeSeconds" : 94.52579275,
      "channel" : 9,
      "noteNumber" : 70,
      "noteName" : "A#4",
      "velocity" : 63,
      "durationTicks" : 34,
      "durationSeconds" : 0.07327580833333514
    }, {
      "type" : "note",
      "tick" : 43920,
      "timeSeconds" : 94.655103,
      "channel" : 9,
      "noteNumber" : 70,
      "noteName" : "A#4",
      "velocity" : 95,
      "durationTicks" : 32,
      "durationSeconds" : 0.06896546666666836
    }, {
      "type" : "note",
      "tick" : 43920,
      "timeSeconds" : 94.655103,
      "channel" : 9,
      "noteNumber" : 51,
      "noteName" : "D#3",
      "velocity" : 104,
      "durationTicks" : 36,
      "durationSeconds" : 0.07758615000000191
    }, {
      "type" : "note",
      "tick" : 43920,
      "timeSeconds" : 94.655103,
      "channel" : 9,
      "noteNumber" : 36,
      "noteName" : "C2",
      "velocity" : 127,
      "durationTicks" : 38,
      "durationSeconds" : 0.08189649166666868
    }, {
      "type" : "note",
      "tick" : 43920,
      "timeSeconds" : 94.655103,
      "channel" : 9,
      "noteNumber" : 46,
      "noteName" : "A#2",
      "velocity" : 95,
      "durationTicks" : 48,
      "durationSeconds" : 0.10344820000000254
    }, {
      "type" : "note",
      "tick" : 44040,
      "timeSeconds" : 94.9137235,
      "channel" : 9,
      "noteNumber" : 51,
      "noteName" : "D#3",
      "velocity" : 83,
      "durationTicks" : 26,
      "durationSeconds" : 0.056034441666668044
    }, {
      "type" : "note",
      "tick" : 44040,
      "timeSeconds" : 94.9137235,
      "channel" : 9,
      "noteNumber" : 70,
      "noteName" : "A#4",
      "velocity" : 95,
      "durationTicks" : 35,
      "durationSeconds" : 0.07543097916666852
    }, {
      "type" : "note",
      "tick" : 44040,
      "timeSeconds" : 94.9137235,
      "channel" : 9,
      "noteNumber" : 36,
      "noteName" : "C2",
      "velocity" : 127,
      "durationTicks" : 52,
      "durationSeconds" : 0.11206888333333609
    }, {
      "type" : "note",
      "tick" : 44040,
      "timeSeconds" : 94.9137235,
      "channel" : 9,
      "noteNumber" : 42,
      "noteName" : "F#2",
      "velocity" : 83,
      "durationTicks" : 53,
      "durationSeconds" : 0.11422405416666948
    }, {
      "type" : "note",
      "tick" : 44100,
      "timeSeconds" : 95.04303375,
      "channel" : 9,
      "noteNumber" : 70,
      "noteName" : "A#4",
      "velocity" : 71,
      "durationTicks" : 34,
      "durationSeconds" : 0.07327580833332092
    }, {
      "type" : "note",
      "tick" : 44100,
      "timeSeconds" : 95.04303375,
      "channel" : 9,
      "noteNumber" : 44,
      "noteName" : "G#2",
      "velocity" : 53,
      "durationTicks" : 49,
      "durationSeconds" : 0.10560337083332172
    }, {
      "type" : "note",
      "tick" : 44160,
      "timeSeconds" : 95.172344,
      "channel" : 9,
      "noteNumber" : 51,
      "noteName" : "D#3",
      "velocity" : 100,
      "durationTicks" : 33,
      "durationSeconds" : 0.07112063750000175
    }, {
      "type" : "note",
      "tick" : 44160,
      "timeSeconds" : 95.172344,
      "channel" : 9,
      "noteNumber" : 70,
      "noteName" : "A#4",
      "velocity" : 95,
      "durationTicks" : 35,
      "durationSeconds" : 0.07543097916666852
    }, {
      "type" : "note",
      "tick" : 44160,
      "timeSeconds" : 95.172344,
      "channel" : 9,
      "noteNumber" : 46,
      "noteName" : "A#2",
      "velocity" : 87,
      "durationTicks" : 43,
      "durationSeconds" : 0.09267234583333561
    }, {
      "type" : "note",
      "tick" : 44280,
      "timeSeconds" : 95.4309645,
      "channel" : 9,
      "noteNumber" : 51,
      "noteName" : "D#3",
      "velocity" : 83,
      "durationTicks" : 32,
      "durationSeconds" : 0.06896546666666836
    }, {
      "type" : "note",
      "tick" : 44280,
      "timeSeconds" : 95.4309645,
      "channel" : 9,
      "noteNumber" : 70,
      "noteName" : "A#4",
      "velocity" : 87,
      "durationTicks" : 32,
      "durationSeconds" : 0.06896546666666836
    }, {
      "type" : "note",
      "tick" : 44280,
      "timeSeconds" : 95.4309645,
      "channel" : 9,
      "noteNumber" : 42,
      "noteName" : "F#2",
      "velocity" : 49,
      "durationTicks" : 32,
      "durationSeconds" : 0.06896546666666836
    }, {
      "type" : "note",
      "tick" : 44340,
      "timeSeconds" : 95.56027475,
      "channel" : 9,
      "noteNumber" : 35,
      "noteName" : "B1",
      "velocity" : 97,
      "durationTicks" : 33,
      "durationSeconds" : 0.07112063750000175
    }, {
      "type" : "note",
      "tick" : 44340,
      "timeSeconds" : 95.56027475,
      "channel" : 9,
      "noteNumber" : 70,
      "noteName" : "A#4",
      "velocity" : 59,
      "durationTicks" : 36,
      "durationSeconds" : 0.07758615000000191
    }, {
      "type" : "note",
      "tick" : 44340,
      "timeSeconds" : 95.56027475,
      "channel" : 9,
      "noteNumber" : 44,
      "noteName" : "G#2",
      "velocity" : 73,
      "durationTicks" : 43,
      "durationSeconds" : 0.0926723458333214
    }, {
      "type" : "note",
      "tick" : 44400,
      "timeSeconds" : 95.689585,
      "channel" : 9,
      "noteNumber" : 51,
      "noteName" : "D#3",
      "velocity" : 91,
      "durationTicks" : 32,
      "durationSeconds" : 0.06896546666666836
    }, {
      "type" : "note",
      "tick" : 44400,
      "timeSeconds" : 95.689585,
      "channel" : 9,
      "noteNumber" : 70,
      "noteName" : "A#4",
      "velocity" : 95,
      "durationTicks" : 34,
      "durationSeconds" : 0.07327580833333514
    }, {
      "type" : "note",
      "tick" : 44400,
      "timeSeconds" : 95.689585,
      "channel" : 9,
      "noteNumber" : 36,
      "noteName" : "C2",
      "velocity" : 127,
      "durationTicks" : 40,
      "durationSeconds" : 0.08620683333333545
    }, {
      "type" : "note",
      "tick" : 44400,
      "timeSeconds" : 95.689585,
      "channel" : 9,
      "noteNumber" : 46,
      "noteName" : "A#2",
      "velocity" : 91,
      "durationTicks" : 46,
      "durationSeconds" : 0.09913785833333577
    }, {
      "type" : "note",
      "tick" : 44520,
      "timeSeconds" : 95.9482055,
      "channel" : 9,
      "noteNumber" : 51,
      "noteName" : "D#3",
      "velocity" : 91,
      "durationTicks" : 23,
      "durationSeconds" : 0.049568929166667886
    }, {
      "type" : "note",
      "tick" : 44520,
      "timeSeconds" : 95.9482055,
      "channel" : 9,
      "noteNumber" : 70,
      "noteName" : "A#4",
      "velocity" : 80,
      "durationTicks" : 29,
      "durationSeconds" : 0.062499954166668203
    }, {
      "type" : "note",
      "tick" : 44520,
      "timeSeconds" : 95.9482055,
      "channel" : 9,
      "noteNumber" : 36,
      "noteName" : "C2",
      "velocity" : 127,
      "durationTicks" : 44,
      "durationSeconds" : 0.094827516666669
    }, {
      "type" : "note",
      "tick" : 44520,
      "timeSeconds" : 95.9482055,
      "channel" : 9,
      "noteNumber" : 42,
      "noteName" : "F#2",
      "velocity" : 91,
      "durationTicks" : 48,
      "durationSeconds" : 0.10344820000000254
    }, {
      "type" : "note",
      "tick" : 44580,
      "timeSeconds" : 96.07751575,
      "channel" : 9,
      "noteNumber" : 70,
      "noteName" : "A#4",
      "velocity" : 55,
      "durationTicks" : 31,
      "durationSeconds" : 0.06681029583333498
    }, {
      "type" : "note",
      "tick" : 44580,
      "timeSeconds" : 96.07751575,
      "channel" : 9,
      "noteNumber" : 44,
      "noteName" : "G#2",
      "velocity" : 49,
      "durationTicks" : 44,
      "durationSeconds" : 0.094827516666669
    }, {
      "type" : "note",
      "tick" : 44640,
      "timeSeconds" : 96.206826,
      "channel" : 9,
      "noteNumber" : 51,
      "noteName" : "D#3",
      "velocity" : 100,
      "durationTicks" : 35,
      "durationSeconds" : 0.07543097916665431
    }, {
      "type" : "note",
      "tick" : 44640,
      "timeSeconds" : 96.206826,
      "channel" : 9,
      "noteNumber" : 70,
      "noteName" : "A#4",
      "velocity" : 100,
      "durationTicks" : 39,
      "durationSeconds" : 0.08405166249998786
    }, {
      "type" : "note",
      "tick" : 44640,
      "timeSeconds" : 96.206826,
      "channel" : 9,
      "noteNumber" : 46,
      "noteName" : "A#2",
      "velocity" : 83,
      "durationTicks" : 57,
      "durationSeconds" : 0.12284473749998881
    }, {
      "type" : "note",
      "tick" : 44700,
      "timeSeconds" : 96.33613625,
      "channel" : 9,
      "noteNumber" : 40,
      "noteName" : "E2",
      "velocity" : 77,
      "durationTicks" : 40,
      "durationSeconds" : 0.08620683333333545
    }, {
      "type" : "note",
      "tick" : 44760,
      "timeSeconds" : 96.4654465,
      "channel" : 9,
      "noteNumber" : 51,
      "noteName" : "D#3",
      "velocity" : 91,
      "durationTicks" : 31,
      "durationSeconds" : 0.06681029583333498
    }, {
      "type" : "note",
      "tick" : 44760,
      "timeSeconds" : 96.4654465,
      "channel" : 9,
      "noteNumber" : 70,
      "noteName" : "A#4",
      "velocity" : 95,
      "durationTicks" : 31,
      "durationSeconds" : 0.06681029583333498
    }, {
      "type" : "note",
      "tick" : 44760,
      "timeSeconds" : 96.4654465,
      "channel" : 9,
      "noteNumber" : 42,
      "noteName" : "F#2",
      "velocity" : 71,
      "durationTicks" : 65,
      "durationSeconds" : 0.1400861041666701
    }, {
      "type" : "note",
      "tick" : 44820,
      "timeSeconds" : 96.59475675,
      "channel" : 9,
      "noteNumber" : 70,
      "noteName" : "A#4",
      "velocity" : 63,
      "durationTicks" : 37,
      "durationSeconds" : 0.0797413208333353
    }, {
      "type" : "note",
      "tick" : 44820,
      "timeSeconds" : 96.59475675,
      "channel" : 9,
      "noteNumber" : 35,
      "noteName" : "B1",
      "velocity" : 86,
      "durationTicks" : 40,
      "durationSeconds" : 0.08620683333333545
    }, {
      "type" : "note",
      "tick" : 44820,
      "timeSeconds" : 96.59475675,
      "channel" : 9,
      "noteNumber" : 44,
      "noteName" : "G#2",
      "velocity" : 65,
      "durationTicks" : 53,
      "durationSeconds" : 0.11422405416666948
    }, {
      "type" : "note",
      "tick" : 44880,
      "timeSeconds" : 96.724067,
      "channel" : 9,
      "noteNumber" : 70,
      "noteName" : "A#4",
      "velocity" : 95,
      "durationTicks" : 33,
      "durationSeconds" : 0.07112063750000175
    }, {
      "type" : "note",
      "tick" : 44880,
      "timeSeconds" : 96.724067,
      "channel" : 9,
      "noteNumber" : 51,
      "noteName" : "D#3",
      "velocity" : 104,
      "durationTicks" : 35,
      "durationSeconds" : 0.07543097916666852
    }, {
      "type" : "note",
      "tick" : 44880,
      "timeSeconds" : 96.724067,
      "channel" : 9,
      "noteNumber" : 36,
      "noteName" : "C2",
      "velocity" : 127,
      "durationTicks" : 40,
      "durationSeconds" : 0.08620683333332124
    }, {
      "type" : "note",
      "tick" : 44880,
      "timeSeconds" : 96.724067,
      "channel" : 9,
      "noteNumber" : 46,
      "noteName" : "A#2",
      "velocity" : 80,
      "durationTicks" : 54,
      "durationSeconds" : 0.11637922499998865
    }, {
      "type" : "note",
      "tick" : 45000,
      "timeSeconds" : 96.9826875,
      "channel" : 9,
      "noteNumber" : 51,
      "noteName" : "D#3",
      "velocity" : 87,
      "durationTicks" : 26,
      "durationSeconds" : 0.056034441666668044
    }, {
      "type" : "note",
      "tick" : 45000,
      "timeSeconds" : 96.9826875,
      "channel" : 9,
      "noteNumber" : 70,
      "noteName" : "A#4",
      "velocity" : 76,
      "durationTicks" : 26,
      "durationSeconds" : 0.056034441666668044
    }, {
      "type" : "note",
      "tick" : 45000,
      "timeSeconds" : 96.9826875,
      "channel" : 9,
      "noteNumber" : 36,
      "noteName" : "C2",
      "velocity" : 127,
      "durationTicks" : 43,
      "durationSeconds" : 0.09267234583333561
    }, {
      "type" : "note",
      "tick" : 45000,
      "timeSeconds" : 96.9826875,
      "channel" : 9,
      "noteNumber" : 42,
      "noteName" : "F#2",
      "velocity" : 91,
      "durationTicks" : 50,
      "durationSeconds" : 0.10775854166666932
    }, {
      "type" : "note",
      "tick" : 45060,
      "timeSeconds" : 97.11199775,
      "channel" : 9,
      "noteNumber" : 70,
      "noteName" : "A#4",
      "velocity" : 73,
      "durationTicks" : 32,
      "durationSeconds" : 0.06896546666666836
    }, {
      "type" : "note",
      "tick" : 45060,
      "timeSeconds" : 97.11199775,
      "channel" : 9,
      "noteNumber" : 44,
      "noteName" : "G#2",
      "velocity" : 55,
      "durationTicks" : 47,
      "durationSeconds" : 0.10129302916666916
    }, {
      "type" : "note",
      "tick" : 45120,
      "timeSeconds" : 97.241308,
      "channel" : 9,
      "noteNumber" : 51,
      "noteName" : "D#3",
      "velocity" : 95,
      "durationTicks" : 31,
      "durationSeconds" : 0.06681029583333498
    }, {
      "type" : "note",
      "tick" : 45120,
      "timeSeconds" : 97.241308,
      "channel" : 9,
      "noteNumber" : 70,
      "noteName" : "A#4",
      "velocity" : 100,
      "durationTicks" : 32,
      "durationSeconds" : 0.06896546666666836
    }, {
      "type" : "note",
      "tick" : 45120,
      "timeSeconds" : 97.241308,
      "channel" : 9,
      "noteNumber" : 46,
      "noteName" : "A#2",
      "velocity" : 87,
      "durationTicks" : 45,
      "durationSeconds" : 0.09698268750000238
    }, {
      "type" : "note",
      "tick" : 45240,
      "timeSeconds" : 97.4999285,
      "channel" : 9,
      "noteNumber" : 51,
      "noteName" : "D#3",
      "velocity" : 83,
      "durationTicks" : 24,
      "durationSeconds" : 0.05172410000000127
    }, {
      "type" : "note",
      "tick" : 45240,
      "timeSeconds" : 97.4999285,
      "channel" : 9,
      "noteNumber" : 70,
      "noteName" : "A#4",
      "velocity" : 91,
      "durationTicks" : 31,
      "durationSeconds" : 0.06681029583333498
    }, {
      "type" : "note",
      "tick" : 45240,
      "timeSeconds" : 97.4999285,
      "channel" : 9,
      "noteNumber" : 42,
      "noteName" : "F#2",
      "velocity" : 73,
      "durationTicks" : 59,
      "durationSeconds" : 0.1271550791666698
    }, {
      "type" : "note",
      "tick" : 45300,
      "timeSeconds" : 97.62923875,
      "channel" : 9,
      "noteNumber" : 40,
      "noteName" : "E2",
      "velocity" : 94,
      "durationTicks" : 38,
      "durationSeconds" : 0.08189649166666868
    }, {
      "type" : "note",
      "tick" : 45300,
      "timeSeconds" : 97.62923875,
      "channel" : 9,
      "noteNumber" : 44,
      "noteName" : "G#2",
      "velocity" : 65,
      "durationTicks" : 44,
      "durationSeconds" : 0.094827516666669
    }, {
      "type" : "note",
      "tick" : 45360,
      "timeSeconds" : 97.758549,
      "channel" : 9,
      "noteNumber" : 70,
      "noteName" : "A#4",
      "velocity" : 100,
      "durationTicks" : 29,
      "durationSeconds" : 0.062499954166668203
    }, {
      "type" : "note",
      "tick" : 45360,
      "timeSeconds" : 97.758549,
      "channel" : 9,
      "noteNumber" : 51,
      "noteName" : "D#3",
      "velocity" : 100,
      "durationTicks" : 35,
      "durationSeconds" : 0.07543097916666852
    }, {
      "type" : "note",
      "tick" : 45360,
      "timeSeconds" : 97.758549,
      "channel" : 9,
      "noteNumber" : 36,
      "noteName" : "C2",
      "velocity" : 127,
      "durationTicks" : 42,
      "durationSeconds" : 0.09051717500000223
    }, {
      "type" : "note",
      "tick" : 45360,
      "timeSeconds" : 97.758549,
      "channel" : 9,
      "noteNumber" : 46,
      "noteName" : "A#2",
      "velocity" : 91,
      "durationTicks" : 47,
      "durationSeconds" : 0.10129302916666916
    }, {
      "type" : "note",
      "tick" : 45480,
      "timeSeconds" : 98.0171695,
      "channel" : 9,
      "noteNumber" : 51,
      "noteName" : "D#3",
      "velocity" : 73,
      "durationTicks" : 25,
      "durationSeconds" : 0.05387927083333466
    }, {
      "type" : "note",
      "tick" : 45480,
      "timeSeconds" : 98.0171695,
      "channel" : 9,
      "noteNumber" : 70,
      "noteName" : "A#4",
      "velocity" : 100,
      "durationTicks" : 33,
      "durationSeconds" : 0.07112063750000175
    }, {
      "type" : "note",
      "tick" : 45480,
      "timeSeconds" : 98.0171695,
      "channel" : 9,
      "noteNumber" : 36,
      "noteName" : "C2",
      "velocity" : 127,
      "durationTicks" : 43,
      "durationSeconds" : 0.09267234583333561
    }, {
      "type" : "note",
      "tick" : 45480,
      "timeSeconds" : 98.0171695,
      "channel" : 9,
      "noteNumber" : 42,
      "noteName" : "F#2",
      "velocity" : 91,
      "durationTicks" : 54,
      "durationSeconds" : 0.11637922500000286
    }, {
      "type" : "note",
      "tick" : 45540,
      "timeSeconds" : 98.14647975,
      "channel" : 9,
      "noteNumber" : 70,
      "noteName" : "A#4",
      "velocity" : 71,
      "durationTicks" : 33,
      "durationSeconds" : 0.07112063750000175
    }, {
      "type" : "note",
      "tick" : 45540,
      "timeSeconds" : 98.14647975,
      "channel" : 9,
      "noteNumber" : 44,
      "noteName" : "G#2",
      "velocity" : 57,
      "durationTicks" : 54,
      "durationSeconds" : 0.11637922500000286
    }, {
      "type" : "note",
      "tick" : 45600,
      "timeSeconds" : 98.27579,
      "channel" : 9,
      "noteNumber" : 70,
      "noteName" : "A#4",
      "velocity" : 100,
      "durationTicks" : 32,
      "durationSeconds" : 0.06896546666666836
    }, {
      "type" : "note",
      "tick" : 45600,
      "timeSeconds" : 98.27579,
      "channel" : 9,
      "noteNumber" : 51,
      "noteName" : "D#3",
      "velocity" : 100,
      "durationTicks" : 34,
      "durationSeconds" : 0.07327580833333514
    }, {
      "type" : "note",
      "tick" : 45600,
      "timeSeconds" : 98.27579,
      "channel" : 9,
      "noteNumber" : 46,
      "noteName" : "A#2",
      "velocity" : 73,
      "durationTicks" : 55,
      "durationSeconds" : 0.11853439583333625
    }, {
      "type" : "note",
      "tick" : 45720,
      "timeSeconds" : 98.5344105,
      "channel" : 9,
      "noteNumber" : 51,
      "noteName" : "D#3",
      "velocity" : 73,
      "durationTicks" : 29,
      "durationSeconds" : 0.06249995416665399
    }, {
      "type" : "note",
      "tick" : 45720,
      "timeSeconds" : 98.5344105,
      "channel" : 9,
      "noteNumber" : 70,
      "noteName" : "A#4",
      "velocity" : 100,
      "durationTicks" : 32,
      "durationSeconds" : 0.06896546666665415
    }, {
      "type" : "note",
      "tick" : 45720,
      "timeSeconds" : 98.5344105,
      "channel" : 9,
      "noteNumber" : 42,
      "noteName" : "F#2",
      "velocity" : 83,
      "durationTicks" : 47,
      "durationSeconds" : 0.10129302916665495
    }, {
      "type" : "note",
      "tick" : 45780,
      "timeSeconds" : 98.66372075,
      "channel" : 9,
      "noteNumber" : 35,
      "noteName" : "B1",
      "velocity" : 94,
      "durationTicks" : 34,
      "durationSeconds" : 0.07327580833333514
    }, {
      "type" : "note",
      "tick" : 45780,
      "timeSeconds" : 98.66372075,
      "channel" : 9,
      "noteNumber" : 70,
      "noteName" : "A#4",
      "velocity" : 71,
      "durationTicks" : 37,
      "durationSeconds" : 0.0797413208333353
    }, {
      "type" : "note",
      "tick" : 45780,
      "timeSeconds" : 98.66372075,
      "channel" : 9,
      "noteNumber" : 44,
      "noteName" : "G#2",
      "velocity" : 61,
      "durationTicks" : 53,
      "durationSeconds" : 0.11422405416666948
    }, {
      "type" : "note",
      "tick" : 45840,
      "timeSeconds" : 98.793031,
      "channel" : 9,
      "noteNumber" : 51,
      "noteName" : "D#3",
      "velocity" : 95,
      "durationTicks" : 34,
      "durationSeconds" : 0.07327580833333514
    }, {
      "type" : "note",
      "tick" : 45840,
      "timeSeconds" : 98.793031,
      "channel" : 9,
      "noteNumber" : 70,
      "noteName" : "A#4",
      "velocity" : 104,
      "durationTicks" : 36,
      "durationSeconds" : 0.07758615000000191
    }, {
      "type" : "note",
      "tick" : 45840,
      "timeSeconds" : 98.793031,
      "channel" : 9,
      "noteNumber" : 36,
      "noteName" : "C2",
      "velocity" : 127,
      "durationTicks" : 48,
      "durationSeconds" : 0.10344820000000254
    }, {
      "type" : "note",
      "tick" : 45840,
      "timeSeconds" : 98.793031,
      "channel" : 9,
      "noteNumber" : 46,
      "noteName" : "A#2",
      "velocity" : 73,
      "durationTicks" : 54,
      "durationSeconds" : 0.11637922500000286
    }, {
      "type" : "note",
      "tick" : 45960,
      "timeSeconds" : 99.0516515,
      "channel" : 9,
      "noteNumber" : 51,
      "noteName" : "D#3",
      "velocity" : 91,
      "durationTicks" : 28,
      "durationSeconds" : 0.06034478333333482
    }, {
      "type" : "note",
      "tick" : 45960,
      "timeSeconds" : 99.0516515,
      "channel" : 9,
      "noteNumber" : 70,
      "noteName" : "A#4",
      "velocity" : 91,
      "durationTicks" : 35,
      "durationSeconds" : 0.07543097916665431
    }, {
      "type" : "note",
      "tick" : 45960,
      "timeSeconds" : 99.0516515,
      "channel" : 9,
      "noteNumber" : 36,
      "noteName" : "C2",
      "velocity" : 127,
      "durationTicks" : 49,
      "durationSeconds" : 0.10560337083332172
    }, {
      "type" : "note",
      "tick" : 45960,
      "timeSeconds" : 99.0516515,
      "channel" : 9,
      "noteNumber" : 42,
      "noteName" : "F#2",
      "velocity" : 87,
      "durationTicks" : 63,
      "durationSeconds" : 0.13577576249998913
    }, {
      "type" : "note",
      "tick" : 46020,
      "timeSeconds" : 99.18096175,
      "channel" : 9,
      "noteNumber" : 70,
      "noteName" : "A#4",
      "velocity" : 68,
      "durationTicks" : 36,
      "durationSeconds" : 0.07758615000000191
    }, {
      "type" : "note",
      "tick" : 46020,
      "timeSeconds" : 99.18096175,
      "channel" : 9,
      "noteNumber" : 44,
      "noteName" : "G#2",
      "velocity" : 57,
      "durationTicks" : 57,
      "durationSeconds" : 0.12284473750000302
    }, {
      "type" : "note",
      "tick" : 46080,
      "timeSeconds" : 99.310272,
      "channel" : 9,
      "noteNumber" : 70,
      "noteName" : "A#4",
      "velocity" : 100,
      "durationTicks" : 37,
      "durationSeconds" : 0.0797413208333353
    }, {
      "type" : "note",
      "tick" : 46080,
      "timeSeconds" : 99.310272,
      "channel" : 9,
      "noteNumber" : 51,
      "noteName" : "D#3",
      "velocity" : 100,
      "durationTicks" : 39,
      "durationSeconds" : 0.08405166250000207
    }, {
      "type" : "note",
      "tick" : 46080,
      "timeSeconds" : 99.310272,
      "channel" : 9,
      "noteNumber" : 46,
      "noteName" : "A#2",
      "velocity" : 87,
      "durationTicks" : 43,
      "durationSeconds" : 0.09267234583333561
    }, {
      "type" : "note",
      "tick" : 46140,
      "timeSeconds" : 99.43958225,
      "channel" : 9,
      "noteNumber" : 51,
      "noteName" : "D#3",
      "velocity" : 80,
      "durationTicks" : 30,
      "durationSeconds" : 0.06465512500000159
    }, {
      "type" : "note",
      "tick" : 46200,
      "timeSeconds" : 99.5688925,
      "channel" : 9,
      "noteNumber" : 42,
      "noteName" : "F#2",
      "velocity" : 49,
      "durationTicks" : 32,
      "durationSeconds" : 0.06896546666666836
    }, {
      "type" : "note",
      "tick" : 46200,
      "timeSeconds" : 99.5688925,
      "channel" : 9,
      "noteNumber" : 70,
      "noteName" : "A#4",
      "velocity" : 95,
      "durationTicks" : 35,
      "durationSeconds" : 0.07543097916666852
    }, {
      "type" : "note",
      "tick" : 46260,
      "timeSeconds" : 99.69820275,
      "channel" : 9,
      "noteNumber" : 70,
      "noteName" : "A#4",
      "velocity" : 80,
      "durationTicks" : 39,
      "durationSeconds" : 0.08405166250000207
    }, {
      "type" : "note",
      "tick" : 46260,
      "timeSeconds" : 99.69820275,
      "channel" : 9,
      "noteNumber" : 35,
      "noteName" : "B1",
      "velocity" : 88,
      "durationTicks" : 43,
      "durationSeconds" : 0.09267234583333561
    }, {
      "type" : "note",
      "tick" : 46260,
      "timeSeconds" : 99.69820275,
      "channel" : 9,
      "noteNumber" : 44,
      "noteName" : "G#2",
      "velocity" : 73,
      "durationTicks" : 43,
      "durationSeconds" : 0.09267234583333561
    }, {
      "type" : "note",
      "tick" : 46320,
      "timeSeconds" : 99.827513,
      "channel" : 9,
      "noteNumber" : 70,
      "noteName" : "A#4",
      "velocity" : 100,
      "durationTicks" : 36,
      "durationSeconds" : 0.07758615000000191
    }, {
      "type" : "note",
      "tick" : 46320,
      "timeSeconds" : 99.827513,
      "channel" : 9,
      "noteNumber" : 36,
      "noteName" : "C2",
      "velocity" : 127,
      "durationTicks" : 40,
      "durationSeconds" : 0.08620683333333545
    }, {
      "type" : "note",
      "tick" : 46320,
      "timeSeconds" : 99.827513,
      "channel" : 9,
      "noteNumber" : 51,
      "noteName" : "D#3",
      "velocity" : 87,
      "durationTicks" : 41,
      "durationSeconds" : 0.08836200416666884
    }, {
      "type" : "note",
      "tick" : 46320,
      "timeSeconds" : 99.827513,
      "channel" : 9,
      "noteNumber" : 46,
      "noteName" : "A#2",
      "velocity" : 91,
      "durationTicks" : 46,
      "durationSeconds" : 0.09913785833333577
    }, {
      "type" : "note",
      "tick" : 46440,
      "timeSeconds" : 100.0861335,
      "channel" : 9,
      "noteNumber" : 51,
      "noteName" : "D#3",
      "velocity" : 87,
      "durationTicks" : 26,
      "durationSeconds" : 0.056034441666668044
    }, {
      "type" : "note",
      "tick" : 46440,
      "timeSeconds" : 100.0861335,
      "channel" : 9,
      "noteNumber" : 70,
      "noteName" : "A#4",
      "velocity" : 95,
      "durationTicks" : 36,
      "durationSeconds" : 0.07758615000000191
    }, {
      "type" : "note",
      "tick" : 46440,
      "timeSeconds" : 100.0861335,
      "channel" : 9,
      "noteNumber" : 36,
      "noteName" : "C2",
      "velocity" : 127,
      "durationTicks" : 44,
      "durationSeconds" : 0.094827516666669
    }, {
      "type" : "note",
      "tick" : 46440,
      "timeSeconds" : 100.0861335,
      "channel" : 9,
      "noteNumber" : 42,
      "noteName" : "F#2",
      "velocity" : 91,
      "durationTicks" : 48,
      "durationSeconds" : 0.10344820000000254
    }, {
      "type" : "note",
      "tick" : 46500,
      "timeSeconds" : 100.21544375,
      "channel" : 9,
      "noteNumber" : 70,
      "noteName" : "A#4",
      "velocity" : 76,
      "durationTicks" : 29,
      "durationSeconds" : 0.06249995416665399
    }, {
      "type" : "note",
      "tick" : 46500,
      "timeSeconds" : 100.21544375,
      "channel" : 9,
      "noteNumber" : 51,
      "noteName" : "D#3",
      "velocity" : 100,
      "durationTicks" : 34,
      "durationSeconds" : 0.07327580833332092
    }, {
      "type" : "note",
      "tick" : 46500,
      "timeSeconds" : 100.21544375,
      "channel" : 9,
      "noteNumber" : 44,
      "noteName" : "G#2",
      "velocity" : 49,
      "durationTicks" : 44,
      "durationSeconds" : 0.09482751666665479
    }, {
      "type" : "note",
      "tick" : 46560,
      "timeSeconds" : 100.344754,
      "channel" : 9,
      "noteNumber" : 70,
      "noteName" : "A#4",
      "velocity" : 100,
      "durationTicks" : 35,
      "durationSeconds" : 0.07543097916666852
    }, {
      "type" : "note",
      "tick" : 46560,
      "timeSeconds" : 100.344754,
      "channel" : 9,
      "noteNumber" : 46,
      "noteName" : "A#2",
      "velocity" : 83,
      "durationTicks" : 57,
      "durationSeconds" : 0.12284473750000302
    }, {
      "type" : "note",
      "tick" : 46620,
      "timeSeconds" : 100.47406425,
      "channel" : 9,
      "noteNumber" : 40,
      "noteName" : "E2",
      "velocity" : 108,
      "durationTicks" : 44,
      "durationSeconds" : 0.094827516666669
    }, {
      "type" : "note",
      "tick" : 46680,
      "timeSeconds" : 100.6033745,
      "channel" : 9,
      "noteNumber" : 70,
      "noteName" : "A#4",
      "velocity" : 95,
      "durationTicks" : 33,
      "durationSeconds" : 0.07112063750000175
    }, {
      "type" : "note",
      "tick" : 46680,
      "timeSeconds" : 100.6033745,
      "channel" : 9,
      "noteNumber" : 51,
      "noteName" : "D#3",
      "velocity" : 91,
      "durationTicks" : 36,
      "durationSeconds" : 0.07758615000000191
    }, {
      "type" : "note",
      "tick" : 46680,
      "timeSeconds" : 100.6033745,
      "channel" : 9,
      "noteNumber" : 42,
      "noteName" : "F#2",
      "velocity" : 71,
      "durationTicks" : 65,
      "durationSeconds" : 0.1400861041666701
    }, {
      "type" : "note",
      "tick" : 46740,
      "timeSeconds" : 100.73268475,
      "channel" : 9,
      "noteNumber" : 70,
      "noteName" : "A#4",
      "velocity" : 76,
      "durationTicks" : 36,
      "durationSeconds" : 0.07758615000000191
    }, {
      "type" : "note",
      "tick" : 46740,
      "timeSeconds" : 100.73268475,
      "channel" : 9,
      "noteNumber" : 40,
      "noteName" : "E2",
      "velocity" : 86,
      "durationTicks" : 41,
      "durationSeconds" : 0.08836200416666884
    }, {
      "type" : "note",
      "tick" : 46740,
      "timeSeconds" : 100.73268475,
      "channel" : 9,
      "noteNumber" : 44,
      "noteName" : "G#2",
      "velocity" : 65,
      "durationTicks" : 53,
      "durationSeconds" : 0.11422405416666948
    }, {
      "type" : "note",
      "tick" : 46800,
      "timeSeconds" : 100.861995,
      "channel" : 9,
      "noteNumber" : 51,
      "noteName" : "D#3",
      "velocity" : 100,
      "durationTicks" : 29,
      "durationSeconds" : 0.062499954166668203
    }, {
      "type" : "note",
      "tick" : 46800,
      "timeSeconds" : 100.861995,
      "channel" : 9,
      "noteNumber" : 70,
      "noteName" : "A#4",
      "velocity" : 100,
      "durationTicks" : 35,
      "durationSeconds" : 0.07543097916666852
    }, {
      "type" : "note",
      "tick" : 46800,
      "timeSeconds" : 100.861995,
      "channel" : 9,
      "noteNumber" : 36,
      "noteName" : "C2",
      "velocity" : 127,
      "durationTicks" : 40,
      "durationSeconds" : 0.08620683333333545
    }, {
      "type" : "note",
      "tick" : 46800,
      "timeSeconds" : 100.861995,
      "channel" : 9,
      "noteNumber" : 46,
      "noteName" : "A#2",
      "velocity" : 80,
      "durationTicks" : 54,
      "durationSeconds" : 0.11637922500000286
    }, {
      "type" : "note",
      "tick" : 46920,
      "timeSeconds" : 101.1206155,
      "channel" : 9,
      "noteNumber" : 51,
      "noteName" : "D#3",
      "velocity" : 87,
      "durationTicks" : 29,
      "durationSeconds" : 0.062499954166668203
    }, {
      "type" : "note",
      "tick" : 46920,
      "timeSeconds" : 101.1206155,
      "channel" : 9,
      "noteNumber" : 70,
      "noteName" : "A#4",
      "velocity" : 73,
      "durationTicks" : 34,
      "durationSeconds" : 0.07327580833333514
    }, {
      "type" : "note",
      "tick" : 46920,
      "timeSeconds" : 101.1206155,
      "channel" : 9,
      "noteNumber" : 35,
      "noteName" : "B1",
      "velocity" : 86,
      "durationTicks" : 42,
      "durationSeconds" : 0.09051717500000223
    }, {
      "type" : "note",
      "tick" : 46920,
      "timeSeconds" : 101.1206155,
      "channel" : 9,
      "noteNumber" : 36,
      "noteName" : "C2",
      "velocity" : 127,
      "durationTicks" : 43,
      "durationSeconds" : 0.09267234583333561
    }, {
      "type" : "note",
      "tick" : 46920,
      "timeSeconds" : 101.1206155,
      "channel" : 9,
      "noteNumber" : 42,
      "noteName" : "F#2",
      "velocity" : 91,
      "durationTicks" : 50,
      "durationSeconds" : 0.10775854166666932
    }, {
      "type" : "note",
      "tick" : 46980,
      "timeSeconds" : 101.24992575,
      "channel" : 9,
      "noteNumber" : 70,
      "noteName" : "A#4",
      "velocity" : 65,
      "durationTicks" : 33,
      "durationSeconds" : 0.07112063750000175
    }, {
      "type" : "note",
      "tick" : 46980,
      "timeSeconds" : 101.24992575,
      "channel" : 9,
      "noteNumber" : 44,
      "noteName" : "G#2",
      "velocity" : 55,
      "durationTicks" : 47,
      "durationSeconds" : 0.10129302916666916
    }, {
      "type" : "note",
      "tick" : 47040,
      "timeSeconds" : 101.379236,
      "channel" : 9,
      "noteNumber" : 52,
      "noteName" : "E3",
      "velocity" : 104,
      "durationTicks" : 25,
      "durationSeconds" : 0.05387927083332045
    }, {
      "type" : "note",
      "tick" : 47040,
      "timeSeconds" : 101.379236,
      "channel" : 9,
      "noteNumber" : 40,
      "noteName" : "E2",
      "velocity" : 113,
      "durationTicks" : 28,
      "durationSeconds" : 0.060344783333320606
    }, {
      "type" : "note",
      "tick" : 47040,
      "timeSeconds" : 101.379236,
      "channel" : 9,
      "noteNumber" : 70,
      "noteName" : "A#4",
      "velocity" : 104,
      "durationTicks" : 39,
      "durationSeconds" : 0.08405166249998786
    }, {
      "type" : "note",
      "tick" : 47040,
      "timeSeconds" : 101.379236,
      "channel" : 9,
      "noteNumber" : 82,
      "noteName" : "A#5",
      "velocity" : 71,
      "durationTicks" : 40,
      "durationSeconds" : 0.08620683333332124
    }, {
      "type" : "note",
      "tick" : 47040,
      "timeSeconds" : 101.379236,
      "channel" : 9,
      "noteNumber" : 46,
      "noteName" : "A#2",
      "velocity" : 87,
      "durationTicks" : 43,
      "durationSeconds" : 0.0926723458333214
    }, {
      "type" : "note",
      "tick" : 47160,
      "timeSeconds" : 101.6378565,
      "channel" : 9,
      "noteNumber" : 42,
      "noteName" : "F#2",
      "velocity" : 49,
      "durationTicks" : 32,
      "durationSeconds" : 0.06896546666666836
    }, {
      "type" : "note",
      "tick" : 47160,
      "timeSeconds" : 101.6378565,
      "channel" : 9,
      "noteNumber" : 70,
      "noteName" : "A#4",
      "velocity" : 71,
      "durationTicks" : 35,
      "durationSeconds" : 0.07543097916666852
    }, {
      "type" : "note",
      "tick" : 47220,
      "timeSeconds" : 101.76716675,
      "channel" : 9,
      "noteNumber" : 70,
      "noteName" : "A#4",
      "velocity" : 59,
      "durationTicks" : 28,
      "durationSeconds" : 0.06034478333333482
    }, {
      "type" : "note",
      "tick" : 47220,
      "timeSeconds" : 101.76716675,
      "channel" : 9,
      "noteNumber" : 40,
      "noteName" : "E2",
      "velocity" : 88,
      "durationTicks" : 34,
      "durationSeconds" : 0.07327580833333514
    }, {
      "type" : "note",
      "tick" : 47220,
      "timeSeconds" : 101.76716675,
      "channel" : 9,
      "noteNumber" : 44,
      "noteName" : "G#2",
      "velocity" : 73,
      "durationTicks" : 43,
      "durationSeconds" : 0.09267234583333561
    }, {
      "type" : "note",
      "tick" : 47280,
      "timeSeconds" : 101.896477,
      "channel" : 9,
      "noteNumber" : 51,
      "noteName" : "D#3",
      "velocity" : 100,
      "durationTicks" : 32,
      "durationSeconds" : 0.06896546666666836
    }, {
      "type" : "note",
      "tick" : 47280,
      "timeSeconds" : 101.896477,
      "channel" : 9,
      "noteNumber" : 70,
      "noteName" : "A#4",
      "velocity" : 95,
      "durationTicks" : 36,
      "durationSeconds" : 0.07758615000000191
    }, {
      "type" : "note",
      "tick" : 47280,
      "timeSeconds" : 101.896477,
      "channel" : 9,
      "noteNumber" : 36,
      "noteName" : "C2",
      "velocity" : 127,
      "durationTicks" : 40,
      "durationSeconds" : 0.08620683333333545
    }, {
      "type" : "note",
      "tick" : 47280,
      "timeSeconds" : 101.896477,
      "channel" : 9,
      "noteNumber" : 82,
      "noteName" : "A#5",
      "velocity" : 83,
      "durationTicks" : 44,
      "durationSeconds" : 0.094827516666669
    }, {
      "type" : "note",
      "tick" : 47280,
      "timeSeconds" : 101.896477,
      "channel" : 9,
      "noteNumber" : 46,
      "noteName" : "A#2",
      "velocity" : 91,
      "durationTicks" : 46,
      "durationSeconds" : 0.09913785833333577
    }, {
      "type" : "note",
      "tick" : 47400,
      "timeSeconds" : 102.1550975,
      "channel" : 9,
      "noteNumber" : 51,
      "noteName" : "D#3",
      "velocity" : 80,
      "durationTicks" : 29,
      "durationSeconds" : 0.062499954166668203
    }, {
      "type" : "note",
      "tick" : 47400,
      "timeSeconds" : 102.1550975,
      "channel" : 9,
      "noteNumber" : 70,
      "noteName" : "A#4",
      "velocity" : 91,
      "durationTicks" : 36,
      "durationSeconds" : 0.07758615000000191
    }, {
      "type" : "note",
      "tick" : 47400,
      "timeSeconds" : 102.1550975,
      "channel" : 9,
      "noteNumber" : 36,
      "noteName" : "C2",
      "velocity" : 127,
      "durationTicks" : 44,
      "durationSeconds" : 0.094827516666669
    }, {
      "type" : "note",
      "tick" : 47400,
      "timeSeconds" : 102.1550975,
      "channel" : 9,
      "noteNumber" : 42,
      "noteName" : "F#2",
      "velocity" : 91,
      "durationTicks" : 48,
      "durationSeconds" : 0.10344820000000254
    }, {
      "type" : "note",
      "tick" : 47460,
      "timeSeconds" : 102.28440775,
      "channel" : 9,
      "noteNumber" : 70,
      "noteName" : "A#4",
      "velocity" : 71,
      "durationTicks" : 33,
      "durationSeconds" : 0.07112063750000175
    }, {
      "type" : "note",
      "tick" : 47460,
      "timeSeconds" : 102.28440775,
      "channel" : 9,
      "noteNumber" : 44,
      "noteName" : "G#2",
      "velocity" : 49,
      "durationTicks" : 44,
      "durationSeconds" : 0.094827516666669
    }, {
      "type" : "note",
      "tick" : 47520,
      "timeSeconds" : 102.413718,
      "channel" : 9,
      "noteNumber" : 51,
      "noteName" : "D#3",
      "velocity" : 95,
      "durationTicks" : 26,
      "durationSeconds" : 0.056034441666668044
    }, {
      "type" : "note",
      "tick" : 47520,
      "timeSeconds" : 102.413718,
      "channel" : 9,
      "noteNumber" : 70,
      "noteName" : "A#4",
      "velocity" : 95,
      "durationTicks" : 38,
      "durationSeconds" : 0.08189649166666868
    }, {
      "type" : "note",
      "tick" : 47520,
      "timeSeconds" : 102.413718,
      "channel" : 9,
      "noteNumber" : 82,
      "noteName" : "A#5",
      "velocity" : 83,
      "durationTicks" : 44,
      "durationSeconds" : 0.094827516666669
    }, {
      "type" : "note",
      "tick" : 47520,
      "timeSeconds" : 102.413718,
      "channel" : 9,
      "noteNumber" : 46,
      "noteName" : "A#2",
      "velocity" : 83,
      "durationTicks" : 57,
      "durationSeconds" : 0.12284473750000302
    }, {
      "type" : "note",
      "tick" : 47640,
      "timeSeconds" : 102.6723385,
      "channel" : 9,
      "noteNumber" : 51,
      "noteName" : "D#3",
      "velocity" : 80,
      "durationTicks" : 34,
      "durationSeconds" : 0.07327580833333514
    }, {
      "type" : "note",
      "tick" : 47640,
      "timeSeconds" : 102.6723385,
      "channel" : 9,
      "noteNumber" : 70,
      "noteName" : "A#4",
      "velocity" : 87,
      "durationTicks" : 35,
      "durationSeconds" : 0.07543097916666852
    }, {
      "type" : "note",
      "tick" : 47640,
      "timeSeconds" : 102.6723385,
      "channel" : 9,
      "noteNumber" : 42,
      "noteName" : "F#2",
      "velocity" : 71,
      "durationTicks" : 65,
      "durationSeconds" : 0.1400861041666701
    }, {
      "type" : "note",
      "tick" : 47700,
      "timeSeconds" : 102.80164875,
      "channel" : 9,
      "noteNumber" : 70,
      "noteName" : "A#4",
      "velocity" : 49,
      "durationTicks" : 26,
      "durationSeconds" : 0.056034441666668044
    }, {
      "type" : "note",
      "tick" : 47700,
      "timeSeconds" : 102.80164875,
      "channel" : 9,
      "noteNumber" : 35,
      "noteName" : "B1",
      "velocity" : 108,
      "durationTicks" : 33,
      "durationSeconds" : 0.07112063750000175
    }, {
      "type" : "note",
      "tick" : 47700,
      "timeSeconds" : 102.80164875,
      "channel" : 9,
      "noteNumber" : 44,
      "noteName" : "G#2",
      "velocity" : 65,
      "durationTicks" : 53,
      "durationSeconds" : 0.11422405416666948
    }, {
      "type" : "note",
      "tick" : 47760,
      "timeSeconds" : 102.930959,
      "channel" : 9,
      "noteNumber" : 51,
      "noteName" : "D#3",
      "velocity" : 104,
      "durationTicks" : 35,
      "durationSeconds" : 0.07543097916666852
    }, {
      "type" : "note",
      "tick" : 47760,
      "timeSeconds" : 102.930959,
      "channel" : 9,
      "noteNumber" : 70,
      "noteName" : "A#4",
      "velocity" : 100,
      "durationTicks" : 37,
      "durationSeconds" : 0.0797413208333353
    }, {
      "type" : "note",
      "tick" : 47760,
      "timeSeconds" : 102.930959,
      "channel" : 9,
      "noteNumber" : 36,
      "noteName" : "C2",
      "velocity" : 127,
      "durationTicks" : 40,
      "durationSeconds" : 0.08620683333333545
    }, {
      "type" : "note",
      "tick" : 47760,
      "timeSeconds" : 102.930959,
      "channel" : 9,
      "noteNumber" : 82,
      "noteName" : "A#5",
      "velocity" : 80,
      "durationTicks" : 43,
      "durationSeconds" : 0.09267234583333561
    }, {
      "type" : "note",
      "tick" : 47760,
      "timeSeconds" : 102.930959,
      "channel" : 9,
      "noteNumber" : 46,
      "noteName" : "A#2",
      "velocity" : 80,
      "durationTicks" : 54,
      "durationSeconds" : 0.11637922500000286
    }, {
      "type" : "note",
      "tick" : 47880,
      "timeSeconds" : 103.1895795,
      "channel" : 9,
      "noteNumber" : 51,
      "noteName" : "D#3",
      "velocity" : 87,
      "durationTicks" : 30,
      "durationSeconds" : 0.06465512500000159
    }, {
      "type" : "note",
      "tick" : 47880,
      "timeSeconds" : 103.1895795,
      "channel" : 9,
      "noteNumber" : 70,
      "noteName" : "A#4",
      "velocity" : 87,
      "durationTicks" : 32,
      "durationSeconds" : 0.06896546666666836
    }, {
      "type" : "note",
      "tick" : 47880,
      "timeSeconds" : 103.1895795,
      "channel" : 9,
      "noteNumber" : 36,
      "noteName" : "C2",
      "velocity" : 127,
      "durationTicks" : 43,
      "durationSeconds" : 0.09267234583333561
    }, {
      "type" : "note",
      "tick" : 47880,
      "timeSeconds" : 103.1895795,
      "channel" : 9,
      "noteNumber" : 42,
      "noteName" : "F#2",
      "velocity" : 91,
      "durationTicks" : 50,
      "durationSeconds" : 0.10775854166666932
    }, {
      "type" : "note",
      "tick" : 47940,
      "timeSeconds" : 103.31888975,
      "channel" : 9,
      "noteNumber" : 70,
      "noteName" : "A#4",
      "velocity" : 65,
      "durationTicks" : 37,
      "durationSeconds" : 0.0797413208333353
    }, {
      "type" : "note",
      "tick" : 47940,
      "timeSeconds" : 103.31888975,
      "channel" : 9,
      "noteNumber" : 44,
      "noteName" : "G#2",
      "velocity" : 55,
      "durationTicks" : 47,
      "durationSeconds" : 0.10129302916666916
    }, {
      "type" : "note",
      "tick" : 48000,
      "timeSeconds" : 103.4482,
      "channel" : 9,
      "noteNumber" : 51,
      "noteName" : "D#3",
      "velocity" : 95,
      "durationTicks" : 40,
      "durationSeconds" : 0.08620683333333545
    }, {
      "type" : "note",
      "tick" : 48000,
      "timeSeconds" : 103.4482,
      "channel" : 9,
      "noteNumber" : 70,
      "noteName" : "A#4",
      "velocity" : 100,
      "durationTicks" : 41,
      "durationSeconds" : 0.08836200416666884
    }, {
      "type" : "note",
      "tick" : 48000,
      "timeSeconds" : 103.4482,
      "channel" : 9,
      "noteNumber" : 82,
      "noteName" : "A#5",
      "velocity" : 83,
      "durationTicks" : 46,
      "durationSeconds" : 0.09913785833333577
    }, {
      "type" : "note",
      "tick" : 48000,
      "timeSeconds" : 103.4482,
      "channel" : 9,
      "noteNumber" : 46,
      "noteName" : "A#2",
      "velocity" : 91,
      "durationTicks" : 51,
      "durationSeconds" : 0.1099137125000027
    }, {
      "type" : "note",
      "tick" : 48120,
      "timeSeconds" : 103.7068205,
      "channel" : 9,
      "noteNumber" : 51,
      "noteName" : "D#3",
      "velocity" : 71,
      "durationTicks" : 31,
      "durationSeconds" : 0.06681029583332077
    }, {
      "type" : "note",
      "tick" : 48120,
      "timeSeconds" : 103.7068205,
      "channel" : 9,
      "noteNumber" : 70,
      "noteName" : "A#4",
      "velocity" : 80,
      "durationTicks" : 34,
      "durationSeconds" : 0.07327580833332092
    }, {
      "type" : "note",
      "tick" : 48120,
      "timeSeconds" : 103.7068205,
      "channel" : 9,
      "noteNumber" : 42,
      "noteName" : "F#2",
      "velocity" : 63,
      "durationTicks" : 45,
      "durationSeconds" : 0.09698268749998817
    }, {
      "type" : "note",
      "tick" : 48180,
      "timeSeconds" : 103.83613075,
      "channel" : 9,
      "noteNumber" : 70,
      "noteName" : "A#4",
      "velocity" : 41,
      "durationTicks" : 30,
      "durationSeconds" : 0.06465512500000159
    }, {
      "type" : "note",
      "tick" : 48180,
      "timeSeconds" : 103.83613075,
      "channel" : 9,
      "noteNumber" : 35,
      "noteName" : "B1",
      "velocity" : 104,
      "durationTicks" : 42,
      "durationSeconds" : 0.09051717500000223
    }, {
      "type" : "note",
      "tick" : 48180,
      "timeSeconds" : 103.83613075,
      "channel" : 9,
      "noteNumber" : 44,
      "noteName" : "G#2",
      "velocity" : 65,
      "durationTicks" : 50,
      "durationSeconds" : 0.10775854166666932
    }, {
      "type" : "note",
      "tick" : 48240,
      "timeSeconds" : 103.965441,
      "channel" : 9,
      "noteNumber" : 70,
      "noteName" : "A#4",
      "velocity" : 95,
      "durationTicks" : 34,
      "durationSeconds" : 0.07327580833333514
    }, {
      "type" : "note",
      "tick" : 48240,
      "timeSeconds" : 103.965441,
      "channel" : 9,
      "noteNumber" : 51,
      "noteName" : "D#3",
      "velocity" : 104,
      "durationTicks" : 37,
      "durationSeconds" : 0.0797413208333353
    }, {
      "type" : "note",
      "tick" : 48240,
      "timeSeconds" : 103.965441,
      "channel" : 9,
      "noteNumber" : 36,
      "noteName" : "C2",
      "velocity" : 127,
      "durationTicks" : 40,
      "durationSeconds" : 0.08620683333333545
    }, {
      "type" : "note",
      "tick" : 48240,
      "timeSeconds" : 103.965441,
      "channel" : 9,
      "noteNumber" : 82,
      "noteName" : "A#5",
      "velocity" : 73,
      "durationTicks" : 44,
      "durationSeconds" : 0.094827516666669
    }, {
      "type" : "note",
      "tick" : 48240,
      "timeSeconds" : 103.965441,
      "channel" : 9,
      "noteNumber" : 46,
      "noteName" : "A#2",
      "velocity" : 83,
      "durationTicks" : 48,
      "durationSeconds" : 0.10344820000000254
    }, {
      "type" : "note",
      "tick" : 48360,
      "timeSeconds" : 104.2240615,
      "channel" : 9,
      "noteNumber" : 51,
      "noteName" : "D#3",
      "velocity" : 104,
      "durationTicks" : 30,
      "durationSeconds" : 0.06465512500000159
    }, {
      "type" : "note",
      "tick" : 48360,
      "timeSeconds" : 104.2240615,
      "channel" : 9,
      "noteNumber" : 70,
      "noteName" : "A#4",
      "velocity" : 83,
      "durationTicks" : 36,
      "durationSeconds" : 0.07758615000000191
    }, {
      "type" : "note",
      "tick" : 48360,
      "timeSeconds" : 104.2240615,
      "channel" : 9,
      "noteNumber" : 36,
      "noteName" : "C2",
      "velocity" : 127,
      "durationTicks" : 51,
      "durationSeconds" : 0.10991371249998849
    }, {
      "type" : "note",
      "tick" : 48360,
      "timeSeconds" : 104.2240615,
      "channel" : 9,
      "noteNumber" : 42,
      "noteName" : "F#2",
      "velocity" : 87,
      "durationTicks" : 59,
      "durationSeconds" : 0.12715507916665558
    }, {
      "type" : "note",
      "tick" : 48420,
      "timeSeconds" : 104.35337175,
      "channel" : 9,
      "noteNumber" : 70,
      "noteName" : "A#4",
      "velocity" : 68,
      "durationTicks" : 34,
      "durationSeconds" : 0.07327580833333514
    }, {
      "type" : "note",
      "tick" : 48420,
      "timeSeconds" : 104.35337175,
      "channel" : 9,
      "noteNumber" : 44,
      "noteName" : "G#2",
      "velocity" : 63,
      "durationTicks" : 58,
      "durationSeconds" : 0.12499990833333641
    }, {
      "type" : "note",
      "tick" : 48480,
      "timeSeconds" : 104.482682,
      "channel" : 9,
      "noteNumber" : 51,
      "noteName" : "D#3",
      "velocity" : 110,
      "durationTicks" : 33,
      "durationSeconds" : 0.07112063750000175
    }, {
      "type" : "note",
      "tick" : 48480,
      "timeSeconds" : 104.482682,
      "channel" : 9,
      "noteNumber" : 70,
      "noteName" : "A#4",
      "velocity" : 95,
      "durationTicks" : 38,
      "durationSeconds" : 0.08189649166666868
    }, {
      "type" : "note",
      "tick" : 48480,
      "timeSeconds" : 104.482682,
      "channel" : 9,
      "noteNumber" : 82,
      "noteName" : "A#5",
      "velocity" : 68,
      "durationTicks" : 44,
      "durationSeconds" : 0.094827516666669
    }, {
      "type" : "note",
      "tick" : 48480,
      "timeSeconds" : 104.482682,
      "channel" : 9,
      "noteNumber" : 46,
      "noteName" : "A#2",
      "velocity" : 71,
      "durationTicks" : 44,
      "durationSeconds" : 0.094827516666669
    }, {
      "type" : "note",
      "tick" : 48540,
      "timeSeconds" : 104.61199225,
      "channel" : 9,
      "noteNumber" : 51,
      "noteName" : "D#3",
      "velocity" : 91,
      "durationTicks" : 35,
      "durationSeconds" : 0.07543097916666852
    }, {
      "type" : "note",
      "tick" : 48600,
      "timeSeconds" : 104.7413025,
      "channel" : 9,
      "noteNumber" : 70,
      "noteName" : "A#4",
      "velocity" : 91,
      "durationTicks" : 37,
      "durationSeconds" : 0.0797413208333353
    }, {
      "type" : "note",
      "tick" : 48600,
      "timeSeconds" : 104.7413025,
      "channel" : 9,
      "noteNumber" : 42,
      "noteName" : "F#2",
      "velocity" : 80,
      "durationTicks" : 52,
      "durationSeconds" : 0.11206888333333609
    }, {
      "type" : "note",
      "tick" : 48660,
      "timeSeconds" : 104.87061275,
      "channel" : 9,
      "noteNumber" : 40,
      "noteName" : "E2",
      "velocity" : 97,
      "durationTicks" : 30,
      "durationSeconds" : 0.06465512499998738
    }, {
      "type" : "note",
      "tick" : 48660,
      "timeSeconds" : 104.87061275,
      "channel" : 9,
      "noteNumber" : 70,
      "noteName" : "A#4",
      "velocity" : 51,
      "durationTicks" : 30,
      "durationSeconds" : 0.06465512499998738
    }, {
      "type" : "note",
      "tick" : 48660,
      "timeSeconds" : 104.87061275,
      "channel" : 9,
      "noteNumber" : 44,
      "noteName" : "G#2",
      "velocity" : 59,
      "durationTicks" : 51,
      "durationSeconds" : 0.10991371249998849
    }, {
      "type" : "note",
      "tick" : 48720,
      "timeSeconds" : 104.999923,
      "channel" : 9,
      "noteNumber" : 51,
      "noteName" : "D#3",
      "velocity" : 110,
      "durationTicks" : 33,
      "durationSeconds" : 0.07112063750000175
    }, {
      "type" : "note",
      "tick" : 48720,
      "timeSeconds" : 104.999923,
      "channel" : 9,
      "noteNumber" : 70,
      "noteName" : "A#4",
      "velocity" : 95,
      "durationTicks" : 35,
      "durationSeconds" : 0.07543097916666852
    }, {
      "type" : "note",
      "tick" : 48720,
      "timeSeconds" : 104.999923,
      "channel" : 9,
      "noteNumber" : 82,
      "noteName" : "A#5",
      "velocity" : 61,
      "durationTicks" : 41,
      "durationSeconds" : 0.08836200416666884
    }, {
      "type" : "note",
      "tick" : 48720,
      "timeSeconds" : 104.999923,
      "channel" : 9,
      "noteNumber" : 36,
      "noteName" : "C2",
      "velocity" : 127,
      "durationTicks" : 41,
      "durationSeconds" : 0.08836200416666884
    }, {
      "type" : "note",
      "tick" : 48720,
      "timeSeconds" : 104.999923,
      "channel" : 9,
      "noteNumber" : 46,
      "noteName" : "A#2",
      "velocity" : 76,
      "durationTicks" : 52,
      "durationSeconds" : 0.11206888333333609
    }, {
      "type" : "note",
      "tick" : 48840,
      "timeSeconds" : 105.2585435,
      "channel" : 9,
      "noteNumber" : 35,
      "noteName" : "B1",
      "velocity" : 97,
      "durationTicks" : 23,
      "durationSeconds" : 0.049568929166667886
    }, {
      "type" : "note",
      "tick" : 48840,
      "timeSeconds" : 105.2585435,
      "channel" : 9,
      "noteNumber" : 70,
      "noteName" : "A#4",
      "velocity" : 80,
      "durationTicks" : 29,
      "durationSeconds" : 0.062499954166668203
    }, {
      "type" : "note",
      "tick" : 48840,
      "timeSeconds" : 105.2585435,
      "channel" : 9,
      "noteNumber" : 51,
      "noteName" : "D#3",
      "velocity" : 104,
      "durationTicks" : 34,
      "durationSeconds" : 0.07327580833333514
    }, {
      "type" : "note",
      "tick" : 48840,
      "timeSeconds" : 105.2585435,
      "channel" : 9,
      "noteNumber" : 36,
      "noteName" : "C2",
      "velocity" : 127,
      "durationTicks" : 47,
      "durationSeconds" : 0.10129302916666916
    }, {
      "type" : "note",
      "tick" : 48840,
      "timeSeconds" : 105.2585435,
      "channel" : 9,
      "noteNumber" : 42,
      "noteName" : "F#2",
      "velocity" : 95,
      "durationTicks" : 55,
      "durationSeconds" : 0.11853439583333625
    }, {
      "type" : "note",
      "tick" : 48900,
      "timeSeconds" : 105.38785375,
      "channel" : 9,
      "noteNumber" : 70,
      "noteName" : "A#4",
      "velocity" : 57,
      "durationTicks" : 26,
      "durationSeconds" : 0.056034441666668044
    }, {
      "type" : "note",
      "tick" : 48900,
      "timeSeconds" : 105.38785375,
      "channel" : 9,
      "noteNumber" : 44,
      "noteName" : "G#2",
      "velocity" : 73,
      "durationTicks" : 58,
      "durationSeconds" : 0.1249999083333222
    } ]
  }, {
    "index" : 11,
    "name" : "",
    "programChanges" : [ {
      "tick" : 2,
      "channel" : 10,
      "program" : 57
    } ],
    "events" : [ {
      "type" : "meta",
      "tick" : 0,
      "timeSeconds" : 0.0,
      "text" : "track_name: "
    }, {
      "type" : "control_change",
      "tick" : 0,
      "timeSeconds" : 0.0,
      "channel" : 10,
      "controller" : 0,
      "value" : 0
    }, {
      "type" : "control_change",
      "tick" : 0,
      "timeSeconds" : 0.0,
      "channel" : 10,
      "controller" : 7,
      "value" : 87
    }, {
      "type" : "control_change",
      "tick" : 0,
      "timeSeconds" : 0.0,
      "channel" : 10,
      "controller" : 94,
      "value" : 0
    }, {
      "type" : "control_change",
      "tick" : 0,
      "timeSeconds" : 0.0,
      "channel" : 10,
      "controller" : 121,
      "value" : 0
    }, {
      "type" : "control_change",
      "tick" : 0,
      "timeSeconds" : 0.0,
      "channel" : 10,
      "controller" : 10,
      "value" : 64
    }, {
      "type" : "control_change",
      "tick" : 0,
      "timeSeconds" : 0.0,
      "channel" : 10,
      "controller" : 93,
      "value" : 0
    }, {
      "type" : "control_change",
      "tick" : 0,
      "timeSeconds" : 0.0,
      "channel" : 10,
      "controller" : 91,
      "value" : 98
    }, {
      "type" : "control_change",
      "tick" : 0,
      "timeSeconds" : 0.0,
      "channel" : 10,
      "controller" : 1,
      "value" : 0
    }, {
      "type" : "control_change",
      "tick" : 0,
      "timeSeconds" : 0.0,
      "channel" : 10,
      "controller" : 11,
      "value" : 127
    }, {
      "type" : "control_change",
      "tick" : 1,
      "timeSeconds" : 0.0021551708333333334,
      "channel" : 10,
      "controller" : 32,
      "value" : 0
    }, {
      "type" : "control_change",
      "tick" : 1,
      "timeSeconds" : 0.0021551708333333334,
      "channel" : 10,
      "controller" : 0,
      "value" : 0
    }, {
      "type" : "control_change",
      "tick" : 1,
      "timeSeconds" : 0.0021551708333333334,
      "channel" : 10,
      "controller" : 32,
      "value" : 0
    }, {
      "type" : "note",
      "tick" : 43206,
      "timeSeconds" : 93.116311025,
      "channel" : 10,
      "noteNumber" : 57,
      "noteName" : "A3",
      "velocity" : 55,
      "durationTicks" : 948,
      "durationSeconds" : 2.0431019499999934
    }, {
      "type" : "note",
      "tick" : 43205,
      "timeSeconds" : 93.11415585416667,
      "channel" : 10,
      "noteNumber" : 65,
      "noteName" : "F4",
      "velocity" : 59,
      "durationTicks" : 966,
      "durationSeconds" : 2.0818950249999943
    }, {
      "type" : "note",
      "tick" : 44151,
      "timeSeconds" : 95.1529474625,
      "channel" : 10,
      "noteNumber" : 67,
      "noteName" : "G4",
      "velocity" : 67,
      "durationTicks" : 713,
      "durationSeconds" : 1.536636804166676
    }, {
      "type" : "note",
      "tick" : 44165,
      "timeSeconds" : 95.18311985416666,
      "channel" : 10,
      "noteNumber" : 62,
      "noteName" : "D4",
      "velocity" : 53,
      "durationTicks" : 729,
      "durationSeconds" : 1.5711195375000102
    }, {
      "type" : "note",
      "tick" : 44871,
      "timeSeconds" : 96.7046704625,
      "channel" : 10,
      "noteNumber" : 65,
      "noteName" : "F4",
      "velocity" : 67,
      "durationTicks" : 256,
      "durationSeconds" : 0.5517237333333327
    }, {
      "type" : "note",
      "tick" : 45116,
      "timeSeconds" : 97.23268731666667,
      "channel" : 10,
      "noteNumber" : 62,
      "noteName" : "D4",
      "velocity" : 75,
      "durationTicks" : 947,
      "durationSeconds" : 2.04094677916666
    }, {
      "type" : "note",
      "tick" : 46557,
      "timeSeconds" : 100.3382884875,
      "channel" : 10,
      "noteNumber" : 62,
      "noteName" : "D4",
      "velocity" : 83,
      "durationTicks" : 234,
      "durationSeconds" : 0.5043099750000124
    }, {
      "type" : "note",
      "tick" : 46790,
      "timeSeconds" : 100.84044329166667,
      "channel" : 10,
      "noteNumber" : 65,
      "noteName" : "F4",
      "velocity" : 83,
      "durationTicks" : 251,
      "durationSeconds" : 0.5409478791666658
    }, {
      "type" : "note",
      "tick" : 47037,
      "timeSeconds" : 101.3727704875,
      "channel" : 10,
      "noteNumber" : 67,
      "noteName" : "G4",
      "velocity" : 81,
      "durationTicks" : 480,
      "durationSeconds" : 1.034481999999997
    }, {
      "type" : "note",
      "tick" : 47524,
      "timeSeconds" : 102.42233868333334,
      "channel" : 10,
      "noteNumber" : 65,
      "noteName" : "F4",
      "velocity" : 62,
      "durationTicks" : 467,
      "durationSeconds" : 1.006464779166663
    }, {
      "type" : "note",
      "tick" : 48001,
      "timeSeconds" : 103.45035517083333,
      "channel" : 10,
      "noteNumber" : 62,
      "noteName" : "D4",
      "velocity" : 63,
      "durationTicks" : 950,
      "durationSeconds" : 2.04741229166666
    } ]
  } ]
}