{
  "schemaVersion" : "1.0",
  "file" : {
    "filename" : "interstellar.mid",
    "format" : 1,
    "division" : 480,
    "durationTicks" : 90721,
    "durationSeconds" : 122.55302100208333
  },
  "metadata" : {
    "tempoMap" : [ {
      "tick" : 0,
      "microsecondsPerQuarter" : 638297,
      "bpm" : 94.00012846684224
    }, {
      "tick" : 89280,
      "microsecondsPerQuarter" : 1276593,
      "bpm" : 47.00010105021726
    }, {
      "tick" : 90719,
      "microsecondsPerQuarter" : 638297,
      "bpm" : 94.00012846684224
    } ],
    "timeSignatures" : [ {
      "tick" : 0,
      "numerator" : 3,
      "denominator" : 4,
      "clocksPerClick" : 24,
      "thirtySecondsPer24Clocks" : 8
    } ],
    "keySignatures" : [ {
      "tick" : 0,
      "sharpsFlats" : 0,
      "majorMinor" : 0
    }, {
      "tick" : 0,
      "sharpsFlats" : 0,
      "majorMinor" : 0
    } ]
  },
  "tracks" : [ {
    "index" : 0,
    "name" : "Piano\u0000",
    "programChanges" : [ {
      "tick" : 0,
      "channel" : 0,
      "program" : 0
    }, {
      "tick" : 0,
      "channel" : 1,
      "program" : 0
    } ],
    "events" : [ {
      "type" : "meta",
      "tick" : 0,
      "timeSeconds" : 0.0,
      "text" : "track_name: Piano\u0000"
    }, {
      "type" : "control_change",
      "tick" : 0,
      "timeSeconds" : 0.0,
      "channel" : 0,
      "controller" : 121,
      "value" : 0
    }, {
      "type" : "control_change",
      "tick" : 0,
      "timeSeconds" : 0.0,
      "channel" : 0,
      "controller" : 7,
      "value" : 100
    }, {
      "type" : "control_change",
      "tick" : 0,
      "timeSeconds" : 0.0,
      "channel" : 0,
      "controller" : 10,
      "value" : 64
    }, {
      "type" : "control_change",
      "tick" : 0,
      "timeSeconds" : 0.0,
      "channel" : 0,
      "controller" : 91,
      "value" : 0
    }, {
      "type" : "control_change",
      "tick" : 0,
      "timeSeconds" : 0.0,
      "channel" : 0,
      "controller" : 93,
      "value" : 0
    }, {
      "type" : "control_change",
      "tick" : 0,
      "timeSeconds" : 0.0,
      "channel" : 1,
      "controller" : 121,
      "value" : 0
    }, {
      "type" : "control_change",
      "tick" : 0,
      "timeSeconds" : 0.0,
      "channel" : 1,
      "controller" : 7,
      "value" : 100
    }, {
      "type" : "control_change",
      "tick" : 0,
      "timeSeconds" : 0.0,
      "channel" : 1,
      "controller" : 10,
      "value" : 64
    }, {
      "type" : "control_change",
      "tick" : 0,
      "timeSeconds" : 0.0,
      "channel" : 1,
      "controller" : 91,
      "value" : 0
    }, {
      "type" : "control_change",
      "tick" : 0,
      "timeSeconds" : 0.0,
      "channel" : 1,
      "controller" : 93,
      "value" : 0
    }, {
      "type" : "note",
      "tick" : 0,
      "timeSeconds" : 0.0,
      "channel" : 0,
      "noteNumber" : 69,
      "noteName" : "A4",
      "velocity" : 33,
      "durationTicks" : 455,
      "durationSeconds" : 0.6050523645833333
    }, {
      "type" : "note",
      "tick" : 0,
      "timeSeconds" : 0.0,
      "channel" : 0,
      "noteNumber" : 81,
      "noteName" : "A5",
      "velocity" : 33,
      "durationTicks" : 455,
      "durationSeconds" : 0.6050523645833333
    }, {
      "type" : "note",
      "tick" : 480,
      "timeSeconds" : 0.638297,
      "channel" : 0,
      "noteNumber" : 88,
      "noteName" : "E6",
      "velocity" : 33,
      "durationTicks" : 911,
      "durationSeconds" : 1.2114345145833334
    }, {
      "type" : "note",
      "tick" : 1440,
      "timeSeconds" : 1.914891,
      "channel" : 0,
      "noteNumber" : 69,
      "noteName" : "A4",
      "velocity" : 33,
      "durationTicks" : 455,
      "durationSeconds" : 0.6050523645833334
    }, {
      "type" : "note",
      "tick" : 1440,
      "timeSeconds" : 1.914891,
      "channel" : 0,
      "noteNumber" : 81,
      "noteName" : "A5",
      "velocity" : 33,
      "durationTicks" : 455,
      "durationSeconds" : 0.6050523645833334
    }, {
      "type" : "note",
      "tick" : 1920,
      "timeSeconds" : 2.553188,
      "channel" : 0,
      "noteNumber" : 88,
      "noteName" : "E6",
      "velocity" : 33,
      "durationTicks" : 911,
      "durationSeconds" : 1.2114345145833334
    }, {
      "type" : "note",
      "tick" : 0,
      "timeSeconds" : 0.0,
      "channel" : 1,
      "noteNumber" : 41,
      "noteName" : "F2",
      "velocity" : 33,
      "durationTicks" : 2880,
      "durationSeconds" : 3.829782
    }, {
      "type" : "note",
      "tick" : 0,
      "timeSeconds" : 0.0,
      "channel" : 1,
      "noteNumber" : 60,
      "noteName" : "C4",
      "velocity" : 33,
      "durationTicks" : 2880,
      "durationSeconds" : 3.829782
    }, {
      "type" : "note",
      "tick" : 0,
      "timeSeconds" : 0.0,
      "channel" : 1,
      "noteNumber" : 64,
      "noteName" : "E4",
      "velocity" : 33,
      "durationTicks" : 2880,
      "durationSeconds" : 3.829782
    }, {
      "type" : "note",
      "tick" : 0,
      "timeSeconds" : 0.0,
      "channel" : 1,
      "noteNumber" : 65,
      "noteName" : "F4",
      "velocity" : 33,
      "durationTicks" : 2880,
      "durationSeconds" : 3.829782
    }, {
      "type" : "note",
      "tick" : 0,
      "timeSeconds" : 0.0,
      "channel" : 1,
      "noteNumber" : 69,
      "noteName" : "A4",
      "velocity" : 33,
      "durationTicks" : 2880,
      "durationSeconds" : 3.829782
    }, {
      "type" : "note",
      "tick" : 2880,
      "timeSeconds" : 3.829782,
      "channel" : 0,
      "noteNumber" : 71,
      "noteName" : "B4",
      "velocity" : 33,
      "durationTicks" : 455,
      "durationSeconds" : 0.6050523645833339
    }, {
      "type" : "note",
      "tick" : 2880,
      "timeSeconds" : 3.829782,
      "channel" : 0,
      "noteNumber" : 83,
      "noteName" : "B5",
      "velocity" : 33,
      "durationTicks" : 455,
      "durationSeconds" : 0.6050523645833339
    }, {
      "type" : "note",
      "tick" : 3360,
      "timeSeconds" : 4.468079,
      "channel" : 0,
      "noteNumber" : 88,
      "noteName" : "E6",
      "velocity" : 33,
      "durationTicks" : 911,
      "durationSeconds" : 1.211434514583333
    }, {
      "type" : "note",
      "tick" : 4320,
      "timeSeconds" : 5.744673,
      "channel" : 0,
      "noteNumber" : 71,
      "noteName" : "B4",
      "velocity" : 33,
      "durationTicks" : 455,
      "durationSeconds" : 0.6050523645833339
    }, {
      "type" : "note",
      "tick" : 4320,
      "timeSeconds" : 5.744673,
      "channel" : 0,
      "noteNumber" : 83,
      "noteName" : "B5",
      "velocity" : 33,
      "durationTicks" : 455,
      "durationSeconds" : 0.6050523645833339
    }, {
      "type" : "note",
      "tick" : 4800,
      "timeSeconds" : 6.38297,
      "channel" : 0,
      "noteNumber" : 88,
      "noteName" : "E6",
      "velocity" : 33,
      "durationTicks" : 911,
      "durationSeconds" : 1.211434514583333
    }, {
      "type" : "note",
      "tick" : 2880,
      "timeSeconds" : 3.829782,
      "channel" : 1,
      "noteNumber" : 43,
      "noteName" : "G2",
      "velocity" : 33,
      "durationTicks" : 2880,
      "durationSeconds" : 3.829782
    }, {
      "type" : "note",
      "tick" : 2880,
      "timeSeconds" : 3.829782,
      "channel" : 1,
      "noteNumber" : 64,
      "noteName" : "E4",
      "velocity" : 33,
      "durationTicks" : 2880,
      "durationSeconds" : 3.829782
    }, {
      "type" : "note",
      "tick" : 2880,
      "timeSeconds" : 3.829782,
      "channel" : 1,
      "noteNumber" : 67,
      "noteName" : "G4",
      "velocity" : 33,
      "durationTicks" : 2880,
      "durationSeconds" : 3.829782
    }, {
      "type" : "note",
      "tick" : 2880,
      "timeSeconds" : 3.829782,
      "channel" : 1,
      "noteNumber" : 71,
      "noteName" : "B4",
      "velocity" : 33,
      "durationTicks" : 2880,
      "durationSeconds" : 3.829782
    }, {
      "type" : "note",
      "tick" : 5760,
      "timeSeconds" : 7.659564,
      "channel" : 0,
      "noteNumber" : 72,
      "noteName" : "C5",
      "velocity" : 33,
      "durationTicks" : 455,
      "durationSeconds" : 0.605052364583333
    }, {
      "type" : "note",
      "tick" : 5760,
      "timeSeconds" : 7.659564,
      "channel" : 0,
      "noteNumber" : 84,
      "noteName" : "C6",
      "velocity" : 33,
      "durationTicks" : 455,
      "durationSeconds" : 0.605052364583333
    }, {
      "type" : "note",
      "tick" : 6240,
      "timeSeconds" : 8.297861,
      "channel" : 0,
      "noteNumber" : 88,
      "noteName" : "E6",
      "velocity" : 33,
      "durationTicks" : 911,
      "durationSeconds" : 1.2114345145833347
    }, {
      "type" : "note",
      "tick" : 7200,
      "timeSeconds" : 9.574455,
      "channel" : 0,
      "noteNumber" : 72,
      "noteName" : "C5",
      "velocity" : 33,
      "durationTicks" : 455,
      "durationSeconds" : 0.605052364583333
    }, {
      "type" : "note",
      "tick" : 7200,
      "timeSeconds" : 9.574455,
      "channel" : 0,
      "noteNumber" : 84,
      "noteName" : "C6",
      "velocity" : 33,
      "durationTicks" : 455,
      "durationSeconds" : 0.605052364583333
    }, {
      "type" : "note",
      "tick" : 7680,
      "timeSeconds" : 10.212752,
      "channel" : 0,
      "noteNumber" : 88,
      "noteName" : "E6",
      "velocity" : 33,
      "durationTicks" : 911,
      "durationSeconds" : 1.211434514583333
    }, {
      "type" : "note",
      "tick" : 5760,
      "timeSeconds" : 7.659564,
      "channel" : 1,
      "noteNumber" : 45,
      "noteName" : "A2",
      "velocity" : 33,
      "durationTicks" : 2880,
      "durationSeconds" : 3.829782
    }, {
      "type" : "note",
      "tick" : 5760,
      "timeSeconds" : 7.659564,
      "channel" : 1,
      "noteNumber" : 60,
      "noteName" : "C4",
      "velocity" : 33,
      "durationTicks" : 2880,
      "durationSeconds" : 3.829782
    }, {
      "type" : "note",
      "tick" : 5760,
      "timeSeconds" : 7.659564,
      "channel" : 1,
      "noteNumber" : 64,
      "noteName" : "E4",
      "velocity" : 33,
      "durationTicks" : 2880,
      "durationSeconds" : 3.829782
    }, {
      "type" : "note",
      "tick" : 5760,
      "timeSeconds" : 7.659564,
      "channel" : 1,
      "noteNumber" : 69,
      "noteName" : "A4",
      "velocity" : 33,
      "durationTicks" : 2880,
      "durationSeconds" : 3.829782
    }, {
      "type" : "note",
      "tick" : 8640,
      "timeSeconds" : 11.489346,
      "channel" : 0,
      "noteNumber" : 74,
      "noteName" : "D5",
      "velocity" : 33,
      "durationTicks" : 455,
      "durationSeconds" : 0.6050523645833348
    }, {
      "type" : "note",
      "tick" : 8640,
      "timeSeconds" : 11.489346,
      "channel" : 0,
      "noteNumber" : 86,
      "noteName" : "D6",
      "velocity" : 33,
      "durationTicks" : 455,
      "durationSeconds" : 0.6050523645833348
    }, {
      "type" : "note",
      "tick" : 9120,
      "timeSeconds" : 12.127643,
      "channel" : 0,
      "noteNumber" : 88,
      "noteName" : "E6",
      "velocity" : 33,
      "durationTicks" : 911,
      "durationSeconds" : 1.211434514583333
    }, {
      "type" : "note",
      "tick" : 10080,
      "timeSeconds" : 13.404237,
      "channel" : 0,
      "noteNumber" : 74,
      "noteName" : "D5",
      "velocity" : 33,
      "durationTicks" : 455,
      "durationSeconds" : 0.605052364583333
    }, {
      "type" : "note",
      "tick" : 10080,
      "timeSeconds" : 13.404237,
      "channel" : 0,
      "noteNumber" : 86,
      "noteName" : "D6",
      "velocity" : 33,
      "durationTicks" : 455,
      "durationSeconds" : 0.605052364583333
    }, {
      "type" : "note",
      "tick" : 10560,
      "timeSeconds" : 14.042534,
      "channel" : 0,
      "noteNumber" : 88,
      "noteName" : "E6",
      "velocity" : 33,
      "durationTicks" : 455,
      "durationSeconds" : 0.605052364583333
    }, {
      "type" : "note",
      "tick" : 11040,
      "timeSeconds" : 14.680831,
      "channel" : 0,
      "noteNumber" : 83,
      "noteName" : "B5",
      "velocity" : 33,
      "durationTicks" : 455,
      "durationSeconds" : 0.605052364583333
    }, {
      "type" : "note",
      "tick" : 8640,
      "timeSeconds" : 11.489346,
      "channel" : 1,
      "noteNumber" : 43,
      "noteName" : "G2",
      "velocity" : 33,
      "durationTicks" : 2880,
      "durationSeconds" : 3.829782
    }, {
      "type" : "note",
      "tick" : 8640,
      "timeSeconds" : 11.489346,
      "channel" : 1,
      "noteNumber" : 62,
      "noteName" : "D4",
      "velocity" : 33,
      "durationTicks" : 2880,
      "durationSeconds" : 3.829782
    }, {
      "type" : "note",
      "tick" : 8640,
      "timeSeconds" : 11.489346,
      "channel" : 1,
      "noteNumber" : 64,
      "noteName" : "E4",
      "velocity" : 33,
      "durationTicks" : 2880,
      "durationSeconds" : 3.829782
    }, {
      "type" : "note",
      "tick" : 8640,
      "timeSeconds" : 11.489346,
      "channel" : 1,
      "noteNumber" : 67,
      "noteName" : "G4",
      "velocity" : 33,
      "durationTicks" : 2880,
      "durationSeconds" : 3.829782
    }, {
      "type" : "note",
      "tick" : 8640,
      "timeSeconds" : 11.489346,
      "channel" : 1,
      "noteNumber" : 71,
      "noteName" : "B4",
      "velocity" : 33,
      "durationTicks" : 2880,
      "durationSeconds" : 3.829782
    }, {
      "type" : "note",
      "tick" : 11520,
      "timeSeconds" : 15.319128,
      "channel" : 0,
      "noteNumber" : 81,
      "noteName" : "A5",
      "velocity" : 73,
      "durationTicks" : 239,
      "durationSeconds" : 0.3178187145833338
    }, {
      "type" : "note",
      "tick" : 11760,
      "timeSeconds" : 15.6382765,
      "channel" : 0,
      "noteNumber" : 88,
      "noteName" : "E6",
      "velocity" : 49,
      "durationTicks" : 227,
      "durationSeconds" : 0.3018612895833339
    }, {
      "type" : "note",
      "tick" : 12000,
      "timeSeconds" : 15.957425,
      "channel" : 0,
      "noteNumber" : 88,
      "noteName" : "E6",
      "velocity" : 49,
      "durationTicks" : 227,
      "durationSeconds" : 0.30186128958333214
    }, {
      "type" : "note",
      "tick" : 12240,
      "timeSeconds" : 16.2765735,
      "channel" : 0,
      "noteNumber" : 88,
      "noteName" : "E6",
      "velocity" : 49,
      "durationTicks" : 227,
      "durationSeconds" : 0.30186128958333214
    }, {
      "type" : "note",
      "tick" : 12720,
      "timeSeconds" : 16.9148705,
      "channel" : 0,
      "noteNumber" : 88,
      "noteName" : "E6",
      "velocity" : 49,
      "durationTicks" : 227,
      "durationSeconds" : 0.3018612895833357
    }, {
      "type" : "note",
      "tick" : 12960,
      "timeSeconds" : 17.234019,
      "channel" : 0,
      "noteNumber" : 81,
      "noteName" : "A5",
      "velocity" : 73,
      "durationTicks" : 239,
      "durationSeconds" : 0.317818714583332
    }, {
      "type" : "note",
      "tick" : 13200,
      "timeSeconds" : 17.5531675,
      "channel" : 0,
      "noteNumber" : 88,
      "noteName" : "E6",
      "velocity" : 49,
      "durationTicks" : 227,
      "durationSeconds" : 0.30186128958333214
    }, {
      "type" : "note",
      "tick" : 13440,
      "timeSeconds" : 17.872316,
      "channel" : 0,
      "noteNumber" : 88,
      "noteName" : "E6",
      "velocity" : 49,
      "durationTicks" : 227,
      "durationSeconds" : 0.30186128958333214
    }, {
      "type" : "note",
      "tick" : 13680,
      "timeSeconds" : 18.1914645,
      "channel" : 0,
      "noteNumber" : 88,
      "noteName" : "E6",
      "velocity" : 49,
      "durationTicks" : 227,
      "durationSeconds" : 0.3018612895833357
    }, {
      "type" : "note",
      "tick" : 14160,
      "timeSeconds" : 18.8297615,
      "channel" : 0,
      "noteNumber" : 88,
      "noteName" : "E6",
      "velocity" : 49,
      "durationTicks" : 227,
      "durationSeconds" : 0.30186128958333214
    }, {
      "type" : "note",
      "tick" : 11520,
      "timeSeconds" : 15.319128,
      "channel" : 1,
      "noteNumber" : 41,
      "noteName" : "F2",
      "velocity" : 49,
      "durationTicks" : 2880,
      "durationSeconds" : 3.8297820000000016
    }, {
      "type" : "note",
      "tick" : 11520,
      "timeSeconds" : 15.319128,
      "channel" : 1,
      "noteNumber" : 60,
      "noteName" : "C4",
      "velocity" : 49,
      "durationTicks" : 2880,
      "durationSeconds" : 3.8297820000000016
    }, {
      "type" : "note",
      "tick" : 11520,
      "timeSeconds" : 15.319128,
      "channel" : 1,
      "noteNumber" : 64,
      "noteName" : "E4",
      "velocity" : 49,
      "durationTicks" : 2880,
      "durationSeconds" : 3.8297820000000016
    }, {
      "type" : "note",
      "tick" : 11520,
      "timeSeconds" : 15.319128,
      "channel" : 1,
      "noteNumber" : 65,
      "noteName" : "F4",
      "velocity" : 49,
      "durationTicks" : 2880,
      "durationSeconds" : 3.8297820000000016
    }, {
      "type" : "note",
      "tick" : 11520,
      "timeSeconds" : 15.319128,
      "channel" : 1,
      "noteNumber" : 69,
      "noteName" : "A4",
      "velocity" : 49,
      "durationTicks" : 2880,
      "durationSeconds" : 3.8297820000000016
    }, {
      "type" : "note",
      "tick" : 14400,
      "timeSeconds" : 19.14891,
      "channel" : 0,
      "noteNumber" : 83,
      "noteName" : "B5",
      "velocity" : 73,
      "durationTicks" : 239,
      "durationSeconds" : 0.317818714583332
    }, {
      "type" : "note",
      "tick" : 14640,
      "timeSeconds" : 19.4680585,
      "channel" : 0,
      "noteNumber" : 88,
      "noteName" : "E6",
      "velocity" : 49,
      "durationTicks" : 227,
      "durationSeconds" : 0.30186128958333214
    }, {
      "type" : "note",
      "tick" : 14880,
      "timeSeconds" : 19.787207,
      "channel" : 0,
      "noteNumber" : 88,
      "noteName" : "E6",
      "velocity" : 49,
      "durationTicks" : 227,
      "durationSeconds" : 0.3018612895833357
    }, {
      "type" : "note",
      "tick" : 15120,
      "timeSeconds" : 20.1063555,
      "channel" : 0,
      "noteNumber" : 88,
      "noteName" : "E6",
      "velocity" : 49,
      "durationTicks" : 227,
      "durationSeconds" : 0.3018612895833357
    }, {
      "type" : "note",
      "tick" : 15600,
      "timeSeconds" : 20.7446525,
      "channel" : 0,
      "noteNumber" : 88,
      "noteName" : "E6",
      "velocity" : 49,
      "durationTicks" : 227,
      "durationSeconds" : 0.30186128958333214
    }, {
      "type" : "note",
      "tick" : 15840,
      "timeSeconds" : 21.063801,
      "channel" : 0,
      "noteNumber" : 83,
      "noteName" : "B5",
      "velocity" : 73,
      "durationTicks" : 239,
      "durationSeconds" : 0.317818714583332
    }, {
      "type" : "note",
      "tick" : 16080,
      "timeSeconds" : 21.3829495,
      "channel" : 0,
      "noteNumber" : 88,
      "noteName" : "E6",
      "velocity" : 49,
      "durationTicks" : 227,
      "durationSeconds" : 0.3018612895833357
    }, {
      "type" : "note",
      "tick" : 16320,
      "timeSeconds" : 21.702098,
      "channel" : 0,
      "noteNumber" : 88,
      "noteName" : "E6",
      "velocity" : 49,
      "durationTicks" : 227,
      "durationSeconds" : 0.30186128958333214
    }, {
      "type" : "note",
      "tick" : 16560,
      "timeSeconds" : 22.0212465,
      "channel" : 0,
      "noteNumber" : 88,
      "noteName" : "E6",
      "velocity" : 49,
      "durationTicks" : 227,
      "durationSeconds" : 0.30186128958333214
    }, {
      "type" : "note",
      "tick" : 17040,
      "timeSeconds" : 22.6595435,
      "channel" : 0,
      "noteNumber" : 88,
      "noteName" : "E6",
      "velocity" : 49,
      "durationTicks" : 227,
      "durationSeconds" : 0.30186128958333214
    }, {
      "type" : "note",
      "tick" : 14400,
      "timeSeconds" : 19.14891,
      "channel" : 1,
      "noteNumber" : 43,
      "noteName" : "G2",
      "velocity" : 49,
      "durationTicks" : 2880,
      "durationSeconds" : 3.829781999999998
    }, {
      "type" : "note",
      "tick" : 14400,
      "timeSeconds" : 19.14891,
      "channel" : 1,
      "noteNumber" : 64,
      "noteName" : "E4",
      "velocity" : 49,
      "durationTicks" : 2880,
      "durationSeconds" : 3.829781999999998
    }, {
      "type" : "note",
      "tick" : 14400,
      "timeSeconds" : 19.14891,
      "channel" : 1,
      "noteNumber" : 67,
      "noteName" : "G4",
      "velocity" : 49,
      "durationTicks" : 2880,
      "durationSeconds" : 3.829781999999998
    }, {
      "type" : "note",
      "tick" : 14400,
      "timeSeconds" : 19.14891,
      "channel" : 1,
      "noteNumber" : 71,
      "noteName" : "B4",
      "velocity" : 49,
      "durationTicks" : 2880,
      "durationSeconds" : 3.829781999999998
    }, {
      "type" : "note",
      "tick" : 17280,
      "timeSeconds" : 22.978692,
      "channel" : 0,
      "noteNumber" : 84,
      "noteName" : "C6",
      "velocity" : 73,
      "durationTicks" : 239,
      "durationSeconds" : 0.31781871458333555
    }, {
      "type" : "note",
      "tick" : 17520,
      "timeSeconds" : 23.2978405,
      "channel" : 0,
      "noteNumber" : 88,
      "noteName" : "E6",
      "velocity" : 49,
      "durationTicks" : 227,
      "durationSeconds" : 0.30186128958333214
    }, {
      "type" : "note",
      "tick" : 17760,
      "timeSeconds" : 23.616989,
      "channel" : 0,
      "noteNumber" : 88,
      "noteName" : "E6",
      "velocity" : 49,
      "durationTicks" : 227,
      "durationSeconds" : 0.30186128958333214
    }, {
      "type" : "note",
      "tick" : 18000,
      "timeSeconds" : 23.9361375,
      "channel" : 0,
      "noteNumber" : 88,
      "noteName" : "E6",
      "velocity" : 49,
      "durationTicks" : 227,
      "durationSeconds" : 0.30186128958333214
    }, {
      "type" : "note",
      "tick" : 18480,
      "timeSeconds" : 24.5744345,
      "channel" : 0,
      "noteNumber" : 88,
      "noteName" : "E6",
      "velocity" : 49,
      "durationTicks" : 227,
      "durationSeconds" : 0.3018612895833357
    }, {
      "type" : "note",
      "tick" : 18720,
      "timeSeconds" : 24.893583,
      "channel" : 0,
      "noteNumber" : 84,
      "noteName" : "C6",
      "velocity" : 73,
      "durationTicks" : 239,
      "durationSeconds" : 0.317818714583332
    }, {
      "type" : "note",
      "tick" : 18960,
      "timeSeconds" : 25.2127315,
      "channel" : 0,
      "noteNumber" : 88,
      "noteName" : "E6",
      "velocity" : 49,
      "durationTicks" : 227,
      "durationSeconds" : 0.30186128958333214
    }, {
      "type" : "note",
      "tick" : 19200,
      "timeSeconds" : 25.53188,
      "channel" : 0,
      "noteNumber" : 88,
      "noteName" : "E6",
      "velocity" : 49,
      "durationTicks" : 227,
      "durationSeconds" : 0.30186128958333214
    }, {
      "type" : "note",
      "tick" : 19440,
      "timeSeconds" : 25.8510285,
      "channel" : 0,
      "noteNumber" : 88,
      "noteName" : "E6",
      "velocity" : 49,
      "durationTicks" : 227,
      "durationSeconds" : 0.30186128958333214
    }, {
      "type" : "note",
      "tick" : 19920,
      "timeSeconds" : 26.4893255,
      "channel" : 0,
      "noteNumber" : 88,
      "noteName" : "E6",
      "velocity" : 49,
      "durationTicks" : 227,
      "durationSeconds" : 0.30186128958333214
    }, {
      "type" : "note",
      "tick" : 17280,
      "timeSeconds" : 22.978692,
      "channel" : 1,
      "noteNumber" : 45,
      "noteName" : "A2",
      "velocity" : 49,
      "durationTicks" : 2880,
      "durationSeconds" : 3.8297820000000016
    }, {
      "type" : "note",
      "tick" : 17280,
      "timeSeconds" : 22.978692,
      "channel" : 1,
      "noteNumber" : 60,
      "noteName" : "C4",
      "velocity" : 49,
      "durationTicks" : 2880,
      "durationSeconds" : 3.8297820000000016
    }, {
      "type" : "note",
      "tick" : 17280,
      "timeSeconds" : 22.978692,
      "channel" : 1,
      "noteNumber" : 64,
      "noteName" : "E4",
      "velocity" : 49,
      "durationTicks" : 2880,
      "durationSeconds" : 3.8297820000000016
    }, {
      "type" : "note",
      "tick" : 17280,
      "timeSeconds" : 22.978692,
      "channel" : 1,
      "noteNumber" : 69,
      "noteName" : "A4",
      "velocity" : 49,
      "durationTicks" : 2880,
      "durationSeconds" : 3.8297820000000016
    }, {
      "type" : "note",
      "tick" : 20160,
      "timeSeconds" : 26.808474,
      "channel" : 0,
      "noteNumber" : 83,
      "noteName" : "B5",
      "velocity" : 73,
      "durationTicks" : 239,
      "durationSeconds" : 0.317818714583332
    }, {
      "type" : "note",
      "tick" : 20400,
      "timeSeconds" : 27.1276225,
      "channel" : 0,
      "noteNumber" : 88,
      "noteName" : "E6",
      "velocity" : 49,
      "durationTicks" : 227,
      "durationSeconds" : 0.30186128958333214
    }, {
      "type" : "note",
      "tick" : 20640,
      "timeSeconds" : 27.446771,
      "channel" : 0,
      "noteNumber" : 88,
      "noteName" : "E6",
      "velocity" : 49,
      "durationTicks" : 227,
      "durationSeconds" : 0.3018612895833357
    }, {
      "type" : "note",
      "tick" : 20880,
      "timeSeconds" : 27.7659195,
      "channel" : 0,
      "noteNumber" : 88,
      "noteName" : "E6",
      "velocity" : 49,
      "durationTicks" : 227,
      "durationSeconds" : 0.3018612895833357
    }, {
      "type" : "note",
      "tick" : 21360,
      "timeSeconds" : 28.4042165,
      "channel" : 0,
      "noteNumber" : 88,
      "noteName" : "E6",
      "velocity" : 49,
      "durationTicks" : 227,
      "durationSeconds" : 0.30186128958333214
    }, {
      "type" : "note",
      "tick" : 21600,
      "timeSeconds" : 28.723365,
      "channel" : 0,
      "noteNumber" : 83,
      "noteName" : "B5",
      "velocity" : 73,
      "durationTicks" : 239,
      "durationSeconds" : 0.317818714583332
    }, {
      "type" : "note",
      "tick" : 21840,
      "timeSeconds" : 29.0425135,
      "channel" : 0,
      "noteNumber" : 88,
      "noteName" : "E6",
      "velocity" : 49,
      "durationTicks" : 227,
      "durationSeconds" : 0.3018612895833357
    }, {
      "type" : "note",
      "tick" : 22080,
      "timeSeconds" : 29.361662,
      "channel" : 0,
      "noteNumber" : 88,
      "noteName" : "E6",
      "velocity" : 49,
      "durationTicks" : 227,
      "durationSeconds" : 0.3018612895833357
    }, {
      "type" : "note",
      "tick" : 22320,
      "timeSeconds" : 29.6808105,
      "channel" : 0,
      "noteNumber" : 88,
      "noteName" : "E6",
      "velocity" : 49,
      "durationTicks" : 227,
      "durationSeconds" : 0.30186128958333214
    }, {
      "type" : "note",
      "tick" : 22800,
      "timeSeconds" : 30.3191075,
      "channel" : 0,
      "noteNumber" : 88,
      "noteName" : "E6",
      "velocity" : 49,
      "durationTicks" : 227,
      "durationSeconds" : 0.30186128958333214
    }, {
      "type" : "note",
      "tick" : 20160,
      "timeSeconds" : 26.808474,
      "channel" : 1,
      "noteNumber" : 43,
      "noteName" : "G2",
      "velocity" : 49,
      "durationTicks" : 2880,
      "durationSeconds" : 3.829781999999998
    }, {
      "type" : "note",
      "tick" : 20160,
      "timeSeconds" : 26.808474,
      "channel" : 1,
      "noteNumber" : 62,
      "noteName" : "D4",
      "velocity" : 49,
      "durationTicks" : 2880,
      "durationSeconds" : 3.829781999999998
    }, {
      "type" : "note",
      "tick" : 20160,
      "timeSeconds" : 26.808474,
      "channel" : 1,
      "noteNumber" : 64,
      "noteName" : "E4",
      "velocity" : 49,
      "durationTicks" : 2880,
      "durationSeconds" : 3.829781999999998
    }, {
      "type" : "note",
      "tick" : 20160,
      "timeSeconds" : 26.808474,
      "channel" : 1,
      "noteNumber" : 67,
      "noteName" : "G4",
      "velocity" : 49,
      "durationTicks" : 2880,
      "durationSeconds" : 3.829781999999998
    }, {
      "type" : "note",
      "tick" : 20160,
      "timeSeconds" : 26.808474,
      "channel" : 1,
      "noteNumber" : 71,
      "noteName" : "B4",
      "velocity" : 49,
      "durationTicks" : 2880,
      "durationSeconds" : 3.829781999999998
    }, {
      "type" : "note",
      "tick" : 23040,
      "timeSeconds" : 30.638256,
      "channel" : 0,
      "noteNumber" : 69,
      "noteName" : "A4",
      "velocity" : 64,
      "durationTicks" : 113,
      "durationSeconds" : 0.15026575208333526
    }, {
      "type" : "note",
      "tick" : 23160,
      "timeSeconds" : 30.79783025,
      "channel" : 0,
      "noteNumber" : 72,
      "noteName" : "C5",
      "velocity" : 96,
      "durationTicks" : 119,
      "durationSeconds" : 0.1582444645833334
    }, {
      "type" : "note",
      "tick" : 23280,
      "timeSeconds" : 30.9574045,
      "channel" : 0,
      "noteNumber" : 76,
      "noteName" : "E5",
      "velocity" : 64,
      "durationTicks" : 113,
      "durationSeconds" : 0.15026575208333526
    }, {
      "type" : "note",
      "tick" : 23400,
      "timeSeconds" : 31.11697875,
      "channel" : 0,
      "noteNumber" : 81,
      "noteName" : "A5",
      "velocity" : 64,
      "durationTicks" : 113,
      "durationSeconds" : 0.1502657520833317
    }, {
      "type" : "note",
      "tick" : 23520,
      "timeSeconds" : 31.276553,
      "channel" : 0,
      "noteNumber" : 69,
      "noteName" : "A4",
      "velocity" : 64,
      "durationTicks" : 119,
      "durationSeconds" : 0.1582444645833334
    }, {
      "type" : "note",
      "tick" : 23640,
      "timeSeconds" : 31.43612725,
      "channel" : 0,
      "noteNumber" : 72,
      "noteName" : "C5",
      "velocity" : 96,
      "durationTicks" : 119,
      "durationSeconds" : 0.1582444645833334
    }, {
      "type" : "note",
      "tick" : 23760,
      "timeSeconds" : 31.5957015,
      "channel" : 0,
      "noteNumber" : 76,
      "noteName" : "E5",
      "velocity" : 64,
      "durationTicks" : 113,
      "durationSeconds" : 0.1502657520833317
    }, {
      "type" : "note",
      "tick" : 23880,
      "timeSeconds" : 31.75527575,
      "channel" : 0,
      "noteNumber" : 81,
      "noteName" : "A5",
      "velocity" : 64,
      "durationTicks" : 113,
      "durationSeconds" : 0.15026575208333526
    }, {
      "type" : "note",
      "tick" : 24000,
      "timeSeconds" : 31.91485,
      "channel" : 0,
      "noteNumber" : 69,
      "noteName" : "A4",
      "velocity" : 64,
      "durationTicks" : 119,
      "durationSeconds" : 0.1582444645833334
    }, {
      "type" : "note",
      "tick" : 24120,
      "timeSeconds" : 32.07442425,
      "channel" : 0,
      "noteNumber" : 72,
      "noteName" : "C5",
      "velocity" : 64,
      "durationTicks" : 113,
      "durationSeconds" : 0.15026575208333526
    }, {
      "type" : "note",
      "tick" : 24240,
      "timeSeconds" : 32.2339985,
      "channel" : 0,
      "noteNumber" : 76,
      "noteName" : "E5",
      "velocity" : 64,
      "durationTicks" : 113,
      "durationSeconds" : 0.15026575208333526
    }, {
      "type" : "note",
      "tick" : 24360,
      "timeSeconds" : 32.39357275,
      "channel" : 0,
      "noteNumber" : 81,
      "noteName" : "A5",
      "velocity" : 64,
      "durationTicks" : 113,
      "durationSeconds" : 0.15026575208333526
    }, {
      "type" : "note",
      "tick" : 24480,
      "timeSeconds" : 32.553147,
      "channel" : 0,
      "noteNumber" : 71,
      "noteName" : "B4",
      "velocity" : 64,
      "durationTicks" : 119,
      "durationSeconds" : 0.1582444645833334
    }, {
      "type" : "note",
      "tick" : 24600,
      "timeSeconds" : 32.71272125,
      "channel" : 0,
      "noteNumber" : 74,
      "noteName" : "D5",
      "velocity" : 96,
      "durationTicks" : 119,
      "durationSeconds" : 0.1582444645833334
    }, {
      "type" : "note",
      "tick" : 24720,
      "timeSeconds" : 32.8722955,
      "channel" : 0,
      "noteNumber" : 76,
      "noteName" : "E5",
      "velocity" : 64,
      "durationTicks" : 113,
      "durationSeconds" : 0.15026575208333526
    }, {
      "type" : "note",
      "tick" : 24840,
      "timeSeconds" : 33.03186975,
      "channel" : 0,
      "noteNumber" : 83,
      "noteName" : "B5",
      "velocity" : 64,
      "durationTicks" : 113,
      "durationSeconds" : 0.15026575208333526
    }, {
      "type" : "note",
      "tick" : 24960,
      "timeSeconds" : 33.191444,
      "channel" : 0,
      "noteNumber" : 71,
      "noteName" : "B4",
      "velocity" : 64,
      "durationTicks" : 119,
      "durationSeconds" : 0.1582444645833334
    }, {
      "type" : "note",
      "tick" : 25080,
      "timeSeconds" : 33.35101825,
      "channel" : 0,
      "noteNumber" : 74,
      "noteName" : "D5",
      "velocity" : 96,
      "durationTicks" : 119,
      "durationSeconds" : 0.1582444645833334
    }, {
      "type" : "note",
      "tick" : 25200,
      "timeSeconds" : 33.5105925,
      "channel" : 0,
      "noteNumber" : 76,
      "noteName" : "E5",
      "velocity" : 64,
      "durationTicks" : 113,
      "durationSeconds" : 0.15026575208333526
    }, {
      "type" : "note",
      "tick" : 25320,
      "timeSeconds" : 33.67016675,
      "channel" : 0,
      "noteNumber" : 83,
      "noteName" : "B5",
      "velocity" : 64,
      "durationTicks" : 113,
      "durationSeconds" : 0.15026575208333526
    }, {
      "type" : "note",
      "tick" : 25440,
      "timeSeconds" : 33.829741,
      "channel" : 0,
      "noteNumber" : 71,
      "noteName" : "B4",
      "velocity" : 64,
      "durationTicks" : 119,
      "durationSeconds" : 0.1582444645833334
    }, {
      "type" : "note",
      "tick" : 25560,
      "timeSeconds" : 33.98931525,
      "channel" : 0,
      "noteNumber" : 74,
      "noteName" : "D5",
      "velocity" : 96,
      "durationTicks" : 119,
      "durationSeconds" : 0.1582444645833334
    }, {
      "type" : "note",
      "tick" : 25680,
      "timeSeconds" : 34.1488895,
      "channel" : 0,
      "noteNumber" : 76,
      "noteName" : "E5",
      "velocity" : 64,
      "durationTicks" : 113,
      "durationSeconds" : 0.15026575208332815
    }, {
      "type" : "note",
      "tick" : 25800,
      "timeSeconds" : 34.30846375,
      "channel" : 0,
      "noteNumber" : 83,
      "noteName" : "B5",
      "velocity" : 64,
      "durationTicks" : 113,
      "durationSeconds" : 0.15026575208333526
    }, {
      "type" : "note",
      "tick" : 25920,
      "timeSeconds" : 34.468038,
      "channel" : 0,
      "noteNumber" : 71,
      "noteName" : "B4",
      "velocity" : 64,
      "durationTicks" : 119,
      "durationSeconds" : 0.1582444645833334
    }, {
      "type" : "note",
      "tick" : 26040,
      "timeSeconds" : 34.62761225,
      "channel" : 0,
      "noteNumber" : 74,
      "noteName" : "D5",
      "velocity" : 96,
      "durationTicks" : 119,
      "durationSeconds" : 0.1582444645833334
    }, {
      "type" : "note",
      "tick" : 26160,
      "timeSeconds" : 34.7871865,
      "channel" : 0,
      "noteNumber" : 76,
      "noteName" : "E5",
      "velocity" : 64,
      "durationTicks" : 113,
      "durationSeconds" : 0.15026575208333526
    }, {
      "type" : "note",
      "tick" : 26280,
      "timeSeconds" : 34.94676075,
      "channel" : 0,
      "noteNumber" : 83,
      "noteName" : "B5",
      "velocity" : 64,
      "durationTicks" : 113,
      "durationSeconds" : 0.15026575208332815
    }, {
      "type" : "note",
      "tick" : 26400,
      "timeSeconds" : 35.106335,
      "channel" : 0,
      "noteNumber" : 71,
      "noteName" : "B4",
      "velocity" : 64,
      "durationTicks" : 119,
      "durationSeconds" : 0.1582444645833334
    }, {
      "type" : "note",
      "tick" : 26520,
      "timeSeconds" : 35.26590925,
      "channel" : 0,
      "noteNumber" : 74,
      "noteName" : "D5",
      "velocity" : 96,
      "durationTicks" : 119,
      "durationSeconds" : 0.1582444645833334
    }, {
      "type" : "note",
      "tick" : 26640,
      "timeSeconds" : 35.4254835,
      "channel" : 0,
      "noteNumber" : 76,
      "noteName" : "E5",
      "velocity" : 64,
      "durationTicks" : 113,
      "durationSeconds" : 0.15026575208333526
    }, {
      "type" : "note",
      "tick" : 26760,
      "timeSeconds" : 35.58505775,
      "channel" : 0,
      "noteNumber" : 83,
      "noteName" : "B5",
      "velocity" : 64,
      "durationTicks" : 113,
      "durationSeconds" : 0.15026575208333526
    }, {
      "type" : "note",
      "tick" : 26880,
      "timeSeconds" : 35.744632,
      "channel" : 0,
      "noteNumber" : 71,
      "noteName" : "B4",
      "velocity" : 64,
      "durationTicks" : 119,
      "durationSeconds" : 0.1582444645833334
    }, {
      "type" : "note",
      "tick" : 27000,
      "timeSeconds" : 35.90420625,
      "channel" : 0,
      "noteNumber" : 74,
      "noteName" : "D5",
      "velocity" : 96,
      "durationTicks" : 119,
      "durationSeconds" : 0.1582444645833334
    }, {
      "type" : "note",
      "tick" : 27120,
      "timeSeconds" : 36.0637805,
      "channel" : 0,
      "noteNumber" : 76,
      "noteName" : "E5",
      "velocity" : 64,
      "durationTicks" : 113,
      "durationSeconds" : 0.15026575208333526
    }, {
      "type" : "note",
      "tick" : 27240,
      "timeSeconds" : 36.22335475,
      "channel" : 0,
      "noteNumber" : 83,
      "noteName" : "B5",
      "velocity" : 64,
      "durationTicks" : 113,
      "durationSeconds" : 0.15026575208333526
    }, {
      "type" : "note",
      "tick" : 27360,
      "timeSeconds" : 36.382929,
      "channel" : 0,
      "noteNumber" : 69,
      "noteName" : "A4",
      "velocity" : 64,
      "durationTicks" : 119,
      "durationSeconds" : 0.1582444645833334
    }, {
      "type" : "note",
      "tick" : 27480,
      "timeSeconds" : 36.54250325,
      "channel" : 0,
      "noteNumber" : 72,
      "noteName" : "C5",
      "velocity" : 96,
      "durationTicks" : 119,
      "durationSeconds" : 0.1582444645833334
    }, {
      "type" : "note",
      "tick" : 27600,
      "timeSeconds" : 36.7020775,
      "channel" : 0,
      "noteNumber" : 76,
      "noteName" : "E5",
      "velocity" : 64,
      "durationTicks" : 113,
      "durationSeconds" : 0.15026575208333526
    }, {
      "type" : "note",
      "tick" : 27720,
      "timeSeconds" : 36.86165175,
      "channel" : 0,
      "noteNumber" : 81,
      "noteName" : "A5",
      "velocity" : 64,
      "durationTicks" : 113,
      "durationSeconds" : 0.15026575208333526
    }, {
      "type" : "note",
      "tick" : 27840,
      "timeSeconds" : 37.021226,
      "channel" : 0,
      "noteNumber" : 67,
      "noteName" : "G4",
      "velocity" : 64,
      "durationTicks" : 119,
      "durationSeconds" : 0.1582444645833334
    }, {
      "type" : "note",
      "tick" : 27960,
      "timeSeconds" : 37.18080025,
      "channel" : 0,
      "noteNumber" : 71,
      "noteName" : "B4",
      "velocity" : 96,
      "durationTicks" : 119,
      "durationSeconds" : 0.1582444645833334
    }, {
      "type" : "note",
      "tick" : 28080,
      "timeSeconds" : 37.3403745,
      "channel" : 0,
      "noteNumber" : 76,
      "noteName" : "E5",
      "velocity" : 64,
      "durationTicks" : 113,
      "durationSeconds" : 0.15026575208332815
    }, {
      "type" : "note",
      "tick" : 28200,
      "timeSeconds" : 37.49994875,
      "channel" : 0,
      "noteNumber" : 79,
      "noteName" : "G5",
      "velocity" : 64,
      "durationTicks" : 113,
      "durationSeconds" : 0.15026575208333526
    }, {
      "type" : "note",
      "tick" : 28320,
      "timeSeconds" : 37.659523,
      "channel" : 0,
      "noteNumber" : 69,
      "noteName" : "A4",
      "velocity" : 64,
      "durationTicks" : 119,
      "durationSeconds" : 0.1582444645833334
    }, {
      "type" : "note",
      "tick" : 28440,
      "timeSeconds" : 37.81909725,
      "channel" : 0,
      "noteNumber" : 72,
      "noteName" : "C5",
      "velocity" : 96,
      "durationTicks" : 119,
      "durationSeconds" : 0.1582444645833334
    }, {
      "type" : "note",
      "tick" : 28560,
      "timeSeconds" : 37.9786715,
      "channel" : 0,
      "noteNumber" : 76,
      "noteName" : "E5",
      "velocity" : 64,
      "durationTicks" : 113,
      "durationSeconds" : 0.15026575208333526
    }, {
      "type" : "note",
      "tick" : 28680,
      "timeSeconds" : 38.13824575,
      "channel" : 0,
      "noteNumber" : 81,
      "noteName" : "A5",
      "velocity" : 64,
      "durationTicks" : 113,
      "durationSeconds" : 0.15026575208332815
    }, {
      "type" : "note",
      "tick" : 28800,
      "timeSeconds" : 38.29782,
      "channel" : 0,
      "noteNumber" : 71,
      "noteName" : "B4",
      "velocity" : 64,
      "durationTicks" : 119,
      "durationSeconds" : 0.1582444645833334
    }, {
      "type" : "note",
      "tick" : 28920,
      "timeSeconds" : 38.45739425,
      "channel" : 0,
      "noteNumber" : 74,
      "noteName" : "D5",
      "velocity" : 96,
      "durationTicks" : 119,
      "durationSeconds" : 0.1582444645833334
    }, {
      "type" : "note",
      "tick" : 29040,
      "timeSeconds" : 38.6169685,
      "channel" : 0,
      "noteNumber" : 76,
      "noteName" : "E5",
      "velocity" : 64,
      "durationTicks" : 113,
      "durationSeconds" : 0.15026575208333526
    }, {
      "type" : "note",
      "tick" : 29160,
      "timeSeconds" : 38.77654275,
      "channel" : 0,
      "noteNumber" : 83,
      "noteName" : "B5",
      "velocity" : 64,
      "durationTicks" : 113,
      "durationSeconds" : 0.15026575208333526
    }, {
      "type" : "note",
      "tick" : 29280,
      "timeSeconds" : 38.936117,
      "channel" : 0,
      "noteNumber" : 71,
      "noteName" : "B4",
      "velocity" : 64,
      "durationTicks" : 119,
      "durationSeconds" : 0.1582444645833334
    }, {
      "type" : "note",
      "tick" : 29400,
      "timeSeconds" : 39.09569125,
      "channel" : 0,
      "noteNumber" : 74,
      "noteName" : "D5",
      "velocity" : 96,
      "durationTicks" : 119,
      "durationSeconds" : 0.1582444645833334
    }, {
      "type" : "note",
      "tick" : 29520,
      "timeSeconds" : 39.2552655,
      "channel" : 0,
      "noteNumber" : 76,
      "noteName" : "E5",
      "velocity" : 64,
      "durationTicks" : 113,
      "durationSeconds" : 0.15026575208333526
    }, {
      "type" : "note",
      "tick" : 29640,
      "timeSeconds" : 39.41483975,
      "channel" : 0,
      "noteNumber" : 83,
      "noteName" : "B5",
      "velocity" : 64,
      "durationTicks" : 113,
      "durationSeconds" : 0.15026575208333526
    }, {
      "type" : "note",
      "tick" : 29760,
      "timeSeconds" : 39.574414,
      "channel" : 0,
      "noteNumber" : 71,
      "noteName" : "B4",
      "velocity" : 64,
      "durationTicks" : 119,
      "durationSeconds" : 0.1582444645833334
    }, {
      "type" : "note",
      "tick" : 29880,
      "timeSeconds" : 39.73398825,
      "channel" : 0,
      "noteNumber" : 74,
      "noteName" : "D5",
      "velocity" : 96,
      "durationTicks" : 119,
      "durationSeconds" : 0.1582444645833334
    }, {
      "type" : "note",
      "tick" : 30000,
      "timeSeconds" : 39.8935625,
      "channel" : 0,
      "noteNumber" : 76,
      "noteName" : "E5",
      "velocity" : 64,
      "durationTicks" : 113,
      "durationSeconds" : 0.15026575208333526
    }, {
      "type" : "note",
      "tick" : 30120,
      "timeSeconds" : 40.05313675,
      "channel" : 0,
      "noteNumber" : 83,
      "noteName" : "B5",
      "velocity" : 64,
      "durationTicks" : 113,
      "durationSeconds" : 0.15026575208333526
    }, {
      "type" : "note",
      "tick" : 23040,
      "timeSeconds" : 30.638256,
      "channel" : 1,
      "noteNumber" : 40,
      "noteName" : "E2",
      "velocity" : 64,
      "durationTicks" : 7200,
      "durationSeconds" : 9.574455
    }, {
      "type" : "note",
      "tick" : 23040,
      "timeSeconds" : 30.638256,
      "channel" : 1,
      "noteNumber" : 60,
      "noteName" : "C4",
      "velocity" : 64,
      "durationTicks" : 7200,
      "durationSeconds" : 9.574455
    }, {
      "type" : "note",
      "tick" : 23040,
      "timeSeconds" : 30.638256,
      "channel" : 1,
      "noteNumber" : 64,
      "noteName" : "E4",
      "velocity" : 64,
      "durationTicks" : 7200,
      "durationSeconds" : 9.574455
    }, {
      "type" : "note",
      "tick" : 23040,
      "timeSeconds" : 30.638256,
      "channel" : 1,
      "noteNumber" : 65,
      "noteName" : "F4",
      "velocity" : 64,
      "durationTicks" : 7200,
      "durationSeconds" : 9.574455
    }, {
      "type" : "note",
      "tick" : 23040,
      "timeSeconds" : 30.638256,
      "channel" : 1,
      "noteNumber" : 69,
      "noteName" : "A4",
      "velocity" : 64,
      "durationTicks" : 7200,
      "durationSeconds" : 9.574455
    }, {
      "type" : "note",
      "tick" : 30240,
      "timeSeconds" : 40.212711,
      "channel" : 0,
      "noteNumber" : 69,
      "noteName" : "A4",
      "velocity" : 80,
      "durationTicks" : 455,
      "durationSeconds" : 0.6050523645833366
    }, {
      "type" : "note",
      "tick" : 30240,
      "timeSeconds" : 40.212711,
      "channel" : 0,
      "noteNumber" : 81,
      "noteName" : "A5",
      "velocity" : 80,
      "durationTicks" : 455,
      "durationSeconds" : 0.6050523645833366
    }, {
      "type" : "note",
      "tick" : 30720,
      "timeSeconds" : 40.851008,
      "channel" : 0,
      "noteNumber" : 76,
      "noteName" : "E5",
      "velocity" : 80,
      "durationTicks" : 455,
      "durationSeconds" : 0.6050523645833366
    }, {
      "type" : "note",
      "tick" : 30720,
      "timeSeconds" : 40.851008,
      "channel" : 0,
      "noteNumber" : 88,
      "noteName" : "E6",
      "velocity" : 80,
      "durationTicks" : 455,
      "durationSeconds" : 0.6050523645833366
    }, {
      "type" : "note",
      "tick" : 31200,
      "timeSeconds" : 41.489305,
      "channel" : 0,
      "noteNumber" : 69,
      "noteName" : "A4",
      "velocity" : 80,
      "durationTicks" : 455,
      "durationSeconds" : 0.6050523645833294
    }, {
      "type" : "note",
      "tick" : 31200,
      "timeSeconds" : 41.489305,
      "channel" : 0,
      "noteNumber" : 81,
      "noteName" : "A5",
      "velocity" : 80,
      "durationTicks" : 455,
      "durationSeconds" : 0.6050523645833294
    }, {
      "type" : "note",
      "tick" : 31680,
      "timeSeconds" : 42.127602,
      "channel" : 0,
      "noteNumber" : 69,
      "noteName" : "A4",
      "velocity" : 80,
      "durationTicks" : 455,
      "durationSeconds" : 0.6050523645833294
    }, {
      "type" : "note",
      "tick" : 31680,
      "timeSeconds" : 42.127602,
      "channel" : 0,
      "noteNumber" : 81,
      "noteName" : "A5",
      "velocity" : 80,
      "durationTicks" : 455,
      "durationSeconds" : 0.6050523645833294
    }, {
      "type" : "note",
      "tick" : 32160,
      "timeSeconds" : 42.765899,
      "channel" : 0,
      "noteNumber" : 76,
      "noteName" : "E5",
      "velocity" : 80,
      "durationTicks" : 455,
      "durationSeconds" : 0.6050523645833366
    }, {
      "type" : "note",
      "tick" : 32160,
      "timeSeconds" : 42.765899,
      "channel" : 0,
      "noteNumber" : 88,
      "noteName" : "E6",
      "velocity" : 80,
      "durationTicks" : 455,
      "durationSeconds" : 0.6050523645833366
    }, {
      "type" : "note",
      "tick" : 32640,
      "timeSeconds" : 43.404196,
      "channel" : 0,
      "noteNumber" : 69,
      "noteName" : "A4",
      "velocity" : 80,
      "durationTicks" : 455,
      "durationSeconds" : 0.6050523645833366
    }, {
      "type" : "note",
      "tick" : 32640,
      "timeSeconds" : 43.404196,
      "channel" : 0,
      "noteNumber" : 81,
      "noteName" : "A5",
      "velocity" : 80,
      "durationTicks" : 455,
      "durationSeconds" : 0.6050523645833366
    }, {
      "type" : "note",
      "tick" : 30240,
      "timeSeconds" : 40.212711,
      "channel" : 1,
      "noteNumber" : 41,
      "noteName" : "F2",
      "velocity" : 80,
      "durationTicks" : 2880,
      "durationSeconds" : 3.8297820000000016
    }, {
      "type" : "note",
      "tick" : 30240,
      "timeSeconds" : 40.212711,
      "channel" : 1,
      "noteNumber" : 60,
      "noteName" : "C4",
      "velocity" : 80,
      "durationTicks" : 2880,
      "durationSeconds" : 3.8297820000000016
    }, {
      "type" : "note",
      "tick" : 30240,
      "timeSeconds" : 40.212711,
      "channel" : 1,
      "noteNumber" : 64,
      "noteName" : "E4",
      "velocity" : 80,
      "durationTicks" : 2880,
      "durationSeconds" : 3.8297820000000016
    }, {
      "type" : "note",
      "tick" : 30240,
      "timeSeconds" : 40.212711,
      "channel" : 1,
      "noteNumber" : 65,
      "noteName" : "F4",
      "velocity" : 80,
      "durationTicks" : 2880,
      "durationSeconds" : 3.8297820000000016
    }, {
      "type" : "note",
      "tick" : 30240,
      "timeSeconds" : 40.212711,
      "channel" : 1,
      "noteNumber" : 69,
      "noteName" : "A4",
      "velocity" : 80,
      "durationTicks" : 2880,
      "durationSeconds" : 3.8297820000000016
    }, {
      "type" : "note",
      "tick" : 33120,
      "timeSeconds" : 44.042493,
      "channel" : 0,
      "noteNumber" : 71,
      "noteName" : "B4",
      "velocity" : 80,
      "durationTicks" : 455,
      "durationSeconds" : 0.6050523645833294
    }, {
      "type" : "note",
      "tick" : 33120,
      "timeSeconds" : 44.042493,
      "channel" : 0,
      "noteNumber" : 83,
      "noteName" : "B5",
      "velocity" : 80,
      "durationTicks" : 455,
      "durationSeconds" : 0.6050523645833294
    }, {
      "type" : "note",
      "tick" : 33600,
      "timeSeconds" : 44.68079,
      "channel" : 0,
      "noteNumber" : 76,
      "noteName" : "E5",
      "velocity" : 80,
      "durationTicks" : 455,
      "durationSeconds" : 0.6050523645833294
    }, {
      "type" : "note",
      "tick" : 33600,
      "timeSeconds" : 44.68079,
      "channel" : 0,
      "noteNumber" : 88,
      "noteName" : "E6",
      "velocity" : 80,
      "durationTicks" : 455,
      "durationSeconds" : 0.6050523645833294
    }, {
      "type" : "note",
      "tick" : 34080,
      "timeSeconds" : 45.319087,
      "channel" : 0,
      "noteNumber" : 71,
      "noteName" : "B4",
      "velocity" : 80,
      "durationTicks" : 455,
      "durationSeconds" : 0.6050523645833294
    }, {
      "type" : "note",
      "tick" : 34080,
      "timeSeconds" : 45.319087,
      "channel" : 0,
      "noteNumber" : 83,
      "noteName" : "B5",
      "velocity" : 80,
      "durationTicks" : 455,
      "durationSeconds" : 0.6050523645833294
    }, {
      "type" : "note",
      "tick" : 34560,
      "timeSeconds" : 45.957384,
      "channel" : 0,
      "noteNumber" : 71,
      "noteName" : "B4",
      "velocity" : 80,
      "durationTicks" : 455,
      "durationSeconds" : 0.6050523645833366
    }, {
      "type" : "note",
      "tick" : 34560,
      "timeSeconds" : 45.957384,
      "channel" : 0,
      "noteNumber" : 83,
      "noteName" : "B5",
      "velocity" : 80,
      "durationTicks" : 455,
      "durationSeconds" : 0.6050523645833366
    }, {
      "type" : "note",
      "tick" : 35040,
      "timeSeconds" : 46.595681,
      "channel" : 0,
      "noteNumber" : 76,
      "noteName" : "E5",
      "velocity" : 80,
      "durationTicks" : 455,
      "durationSeconds" : 0.6050523645833366
    }, {
      "type" : "note",
      "tick" : 35040,
      "timeSeconds" : 46.595681,
      "channel" : 0,
      "noteNumber" : 88,
      "noteName" : "E6",
      "velocity" : 80,
      "durationTicks" : 455,
      "durationSeconds" : 0.6050523645833366
    }, {
      "type" : "note",
      "tick" : 35520,
      "timeSeconds" : 47.233978,
      "channel" : 0,
      "noteNumber" : 71,
      "noteName" : "B4",
      "velocity" : 80,
      "durationTicks" : 455,
      "durationSeconds" : 0.6050523645833294
    }, {
      "type" : "note",
      "tick" : 35520,
      "timeSeconds" : 47.233978,
      "channel" : 0,
      "noteNumber" : 83,
      "noteName" : "B5",
      "velocity" : 80,
      "durationTicks" : 455,
      "durationSeconds" : 0.6050523645833294
    }, {
      "type" : "note",
      "tick" : 33120,
      "timeSeconds" : 44.042493,
      "channel" : 1,
      "noteNumber" : 43,
      "noteName" : "G2",
      "velocity" : 80,
      "durationTicks" : 2880,
      "durationSeconds" : 3.8297820000000016
    }, {
      "type" : "note",
      "tick" : 33120,
      "timeSeconds" : 44.042493,
      "channel" : 1,
      "noteNumber" : 64,
      "noteName" : "E4",
      "velocity" : 80,
      "durationTicks" : 2880,
      "durationSeconds" : 3.8297820000000016
    }, {
      "type" : "note",
      "tick" : 33120,
      "timeSeconds" : 44.042493,
      "channel" : 1,
      "noteNumber" : 67,
      "noteName" : "G4",
      "velocity" : 80,
      "durationTicks" : 2880,
      "durationSeconds" : 3.8297820000000016
    }, {
      "type" : "note",
      "tick" : 33120,
      "timeSeconds" : 44.042493,
      "channel" : 1,
      "noteNumber" : 71,
      "noteName" : "B4",
      "velocity" : 80,
      "durationTicks" : 2880,
      "durationSeconds" : 3.8297820000000016
    }, {
      "type" : "note",
      "tick" : 36000,
      "timeSeconds" : 47.872275,
      "channel" : 0,
      "noteNumber" : 72,
      "noteName" : "C5",
      "velocity" : 80,
      "durationTicks" : 455,
      "durationSeconds" : 0.6050523645833294
    }, {
      "type" : "note",
      "tick" : 36000,
      "timeSeconds" : 47.872275,
      "channel" : 0,
      "noteNumber" : 84,
      "noteName" : "C6",
      "velocity" : 80,
      "durationTicks" : 455,
      "durationSeconds" : 0.6050523645833294
    }, {
      "type" : "note",
      "tick" : 36480,
      "timeSeconds" : 48.510572,
      "channel" : 0,
      "noteNumber" : 76,
      "noteName" : "E5",
      "velocity" : 80,
      "durationTicks" : 455,
      "durationSeconds" : 0.6050523645833294
    }, {
      "type" : "note",
      "tick" : 36480,
      "timeSeconds" : 48.510572,
      "channel" : 0,
      "noteNumber" : 88,
      "noteName" : "E6",
      "velocity" : 80,
      "durationTicks" : 455,
      "durationSeconds" : 0.6050523645833294
    }, {
      "type" : "note",
      "tick" : 36960,
      "timeSeconds" : 49.148869,
      "channel" : 0,
      "noteNumber" : 72,
      "noteName" : "C5",
      "velocity" : 80,
      "durationTicks" : 455,
      "durationSeconds" : 0.6050523645833366
    }, {
      "type" : "note",
      "tick" : 36960,
      "timeSeconds" : 49.148869,
      "channel" : 0,
      "noteNumber" : 84,
      "noteName" : "C6",
      "velocity" : 80,
      "durationTicks" : 455,
      "durationSeconds" : 0.6050523645833366
    }, {
      "type" : "note",
      "tick" : 37440,
      "timeSeconds" : 49.787166,
      "channel" : 0,
      "noteNumber" : 72,
      "noteName" : "C5",
      "velocity" : 80,
      "durationTicks" : 455,
      "durationSeconds" : 0.6050523645833366
    }, {
      "type" : "note",
      "tick" : 37440,
      "timeSeconds" : 49.787166,
      "channel" : 0,
      "noteNumber" : 84,
      "noteName" : "C6",
      "velocity" : 80,
      "durationTicks" : 455,
      "durationSeconds" : 0.6050523645833366
    }, {
      "type" : "note",
      "tick" : 37920,
      "timeSeconds" : 50.425463,
      "channel" : 0,
      "noteNumber" : 76,
      "noteName" : "E5",
      "velocity" : 80,
      "durationTicks" : 455,
      "durationSeconds" : 0.6050523645833294
    }, {
      "type" : "note",
      "tick" : 37920,
      "timeSeconds" : 50.425463,
      "channel" : 0,
      "noteNumber" : 88,
      "noteName" : "E6",
      "velocity" : 80,
      "durationTicks" : 455,
      "durationSeconds" : 0.6050523645833294
    }, {
      "type" : "note",
      "tick" : 38400,
      "timeSeconds" : 51.06376,
      "channel" : 0,
      "noteNumber" : 72,
      "noteName" : "C5",
      "velocity" : 80,
      "durationTicks" : 455,
      "durationSeconds" : 0.6050523645833294
    }, {
      "type" : "note",
      "tick" : 38400,
      "timeSeconds" : 51.06376,
      "channel" : 0,
      "noteNumber" : 84,
      "noteName" : "C6",
      "velocity" : 80,
      "durationTicks" : 455,
      "durationSeconds" : 0.6050523645833294
    }, {
      "type" : "note",
      "tick" : 36000,
      "timeSeconds" : 47.872275,
      "channel" : 1,
      "noteNumber" : 45,
      "noteName" : "A2",
      "velocity" : 80,
      "durationTicks" : 2880,
      "durationSeconds" : 3.8297820000000016
    }, {
      "type" : "note",
      "tick" : 36000,
      "timeSeconds" : 47.872275,
      "channel" : 1,
      "noteNumber" : 60,
      "noteName" : "C4",
      "velocity" : 80,
      "durationTicks" : 2880,
      "durationSeconds" : 3.8297820000000016
    }, {
      "type" : "note",
      "tick" : 36000,
      "timeSeconds" : 47.872275,
      "channel" : 1,
      "noteNumber" : 64,
      "noteName" : "E4",
      "velocity" : 80,
      "durationTicks" : 2880,
      "durationSeconds" : 3.8297820000000016
    }, {
      "type" : "note",
      "tick" : 36000,
      "timeSeconds" : 47.872275,
      "channel" : 1,
      "noteNumber" : 69,
      "noteName" : "A4",
      "velocity" : 80,
      "durationTicks" : 2880,
      "durationSeconds" : 3.8297820000000016
    }, {
      "type" : "note",
      "tick" : 39000,
      "timeSeconds" : 51.86163125,
      "channel" : 0,
      "noteNumber" : 74,
      "noteName" : "D5",
      "velocity" : 80,
      "durationTicks" : 113,
      "durationSeconds" : 0.15026575208332815
    }, {
      "type" : "note",
      "tick" : 39120,
      "timeSeconds" : 52.0212055,
      "channel" : 0,
      "noteNumber" : 76,
      "noteName" : "E5",
      "velocity" : 80,
      "durationTicks" : 113,
      "durationSeconds" : 0.15026575208333526
    }, {
      "type" : "note",
      "tick" : 39240,
      "timeSeconds" : 52.18077975,
      "channel" : 0,
      "noteNumber" : 77,
      "noteName" : "F5",
      "velocity" : 80,
      "durationTicks" : 113,
      "durationSeconds" : 0.15026575208333526
    }, {
      "type" : "note",
      "tick" : 38880,
      "timeSeconds" : 51.702057,
      "channel" : 0,
      "noteNumber" : 81,
      "noteName" : "A5",
      "velocity" : 120,
      "durationTicks" : 479,
      "durationSeconds" : 0.6369672145833292
    }, {
      "type" : "note",
      "tick" : 39480,
      "timeSeconds" : 52.49992825,
      "channel" : 0,
      "noteNumber" : 74,
      "noteName" : "D5",
      "velocity" : 80,
      "durationTicks" : 113,
      "durationSeconds" : 0.15026575208332815
    }, {
      "type" : "note",
      "tick" : 39600,
      "timeSeconds" : 52.6595025,
      "channel" : 0,
      "noteNumber" : 76,
      "noteName" : "E5",
      "velocity" : 80,
      "durationTicks" : 113,
      "durationSeconds" : 0.15026575208332815
    }, {
      "type" : "note",
      "tick" : 39720,
      "timeSeconds" : 52.81907675,
      "channel" : 0,
      "noteNumber" : 72,
      "noteName" : "C5",
      "velocity" : 80,
      "durationTicks" : 113,
      "durationSeconds" : 0.15026575208333526
    }, {
      "type" : "note",
      "tick" : 39360,
      "timeSeconds" : 52.340354,
      "channel" : 0,
      "noteNumber" : 81,
      "noteName" : "A5",
      "velocity" : 120,
      "durationTicks" : 479,
      "durationSeconds" : 0.6369672145833363
    }, {
      "type" : "note",
      "tick" : 39960,
      "timeSeconds" : 53.13822525,
      "channel" : 0,
      "noteNumber" : 74,
      "noteName" : "D5",
      "velocity" : 80,
      "durationTicks" : 113,
      "durationSeconds" : 0.15026575208333526
    }, {
      "type" : "note",
      "tick" : 40080,
      "timeSeconds" : 53.2977995,
      "channel" : 0,
      "noteNumber" : 76,
      "noteName" : "E5",
      "velocity" : 80,
      "durationTicks" : 113,
      "durationSeconds" : 0.15026575208332815
    }, {
      "type" : "note",
      "tick" : 40200,
      "timeSeconds" : 53.45737375,
      "channel" : 0,
      "noteNumber" : 77,
      "noteName" : "F5",
      "velocity" : 80,
      "durationTicks" : 113,
      "durationSeconds" : 0.15026575208332815
    }, {
      "type" : "note",
      "tick" : 39840,
      "timeSeconds" : 52.978651,
      "channel" : 0,
      "noteNumber" : 81,
      "noteName" : "A5",
      "velocity" : 120,
      "durationTicks" : 479,
      "durationSeconds" : 0.6369672145833363
    }, {
      "type" : "note",
      "tick" : 40440,
      "timeSeconds" : 53.77652225,
      "channel" : 0,
      "noteNumber" : 74,
      "noteName" : "D5",
      "velocity" : 80,
      "durationTicks" : 113,
      "durationSeconds" : 0.15026575208333526
    }, {
      "type" : "note",
      "tick" : 40560,
      "timeSeconds" : 53.9360965,
      "channel" : 0,
      "noteNumber" : 76,
      "noteName" : "E5",
      "velocity" : 80,
      "durationTicks" : 113,
      "durationSeconds" : 0.15026575208333526
    }, {
      "type" : "note",
      "tick" : 40680,
      "timeSeconds" : 54.09567075,
      "channel" : 0,
      "noteNumber" : 77,
      "noteName" : "F5",
      "velocity" : 80,
      "durationTicks" : 113,
      "durationSeconds" : 0.15026575208333526
    }, {
      "type" : "note",
      "tick" : 40320,
      "timeSeconds" : 53.616948,
      "channel" : 0,
      "noteNumber" : 81,
      "noteName" : "A5",
      "velocity" : 120,
      "durationTicks" : 479,
      "durationSeconds" : 0.6369672145833292
    }, {
      "type" : "note",
      "tick" : 40920,
      "timeSeconds" : 54.41481925,
      "channel" : 0,
      "noteNumber" : 84,
      "noteName" : "C6",
      "velocity" : 80,
      "durationTicks" : 113,
      "durationSeconds" : 0.15026575208333526
    }, {
      "type" : "note",
      "tick" : 40800,
      "timeSeconds" : 54.255245,
      "channel" : 0,
      "noteNumber" : 81,
      "noteName" : "A5",
      "velocity" : 120,
      "durationTicks" : 240,
      "durationSeconds" : 0.31914849999999717
    }, {
      "type" : "note",
      "tick" : 41160,
      "timeSeconds" : 54.73396775,
      "channel" : 0,
      "noteNumber" : 79,
      "noteName" : "G5",
      "velocity" : 80,
      "durationTicks" : 113,
      "durationSeconds" : 0.15026575208333526
    }, {
      "type" : "note",
      "tick" : 41040,
      "timeSeconds" : 54.5743935,
      "channel" : 0,
      "noteNumber" : 81,
      "noteName" : "A5",
      "velocity" : 80,
      "durationTicks" : 239,
      "durationSeconds" : 0.317818714583332
    }, {
      "type" : "note",
      "tick" : 41400,
      "timeSeconds" : 55.05311625,
      "channel" : 0,
      "noteNumber" : 74,
      "noteName" : "D5",
      "velocity" : 80,
      "durationTicks" : 113,
      "durationSeconds" : 0.15026575208332815
    }, {
      "type" : "note",
      "tick" : 41520,
      "timeSeconds" : 55.2126905,
      "channel" : 0,
      "noteNumber" : 76,
      "noteName" : "E5",
      "velocity" : 80,
      "durationTicks" : 113,
      "durationSeconds" : 0.15026575208333526
    }, {
      "type" : "note",
      "tick" : 41640,
      "timeSeconds" : 55.37226475,
      "channel" : 0,
      "noteNumber" : 77,
      "noteName" : "F5",
      "velocity" : 80,
      "durationTicks" : 113,
      "durationSeconds" : 0.15026575208333526
    }, {
      "type" : "note",
      "tick" : 41280,
      "timeSeconds" : 54.893542,
      "channel" : 0,
      "noteNumber" : 81,
      "noteName" : "A5",
      "velocity" : 120,
      "durationTicks" : 479,
      "durationSeconds" : 0.6369672145833363
    }, {
      "type" : "note",
      "tick" : 38880,
      "timeSeconds" : 51.702057,
      "channel" : 1,
      "noteNumber" : 41,
      "noteName" : "F2",
      "velocity" : 80,
      "durationTicks" : 2880,
      "durationSeconds" : 3.8297819999999945
    }, {
      "type" : "note",
      "tick" : 38880,
      "timeSeconds" : 51.702057,
      "channel" : 1,
      "noteNumber" : 60,
      "noteName" : "C4",
      "velocity" : 80,
      "durationTicks" : 2880,
      "durationSeconds" : 3.8297819999999945
    }, {
      "type" : "note",
      "tick" : 38880,
      "timeSeconds" : 51.702057,
      "channel" : 1,
      "noteNumber" : 64,
      "noteName" : "E4",
      "velocity" : 80,
      "durationTicks" : 2880,
      "durationSeconds" : 3.8297819999999945
    }, {
      "type" : "note",
      "tick" : 38880,
      "timeSeconds" : 51.702057,
      "channel" : 1,
      "noteNumber" : 65,
      "noteName" : "F4",
      "velocity" : 80,
      "durationTicks" : 2880,
      "durationSeconds" : 3.8297819999999945
    }, {
      "type" : "note",
      "tick" : 38880,
      "timeSeconds" : 51.702057,
      "channel" : 1,
      "noteNumber" : 69,
      "noteName" : "A4",
      "velocity" : 80,
      "durationTicks" : 2880,
      "durationSeconds" : 3.8297819999999945
    }, {
      "type" : "note",
      "tick" : 41880,
      "timeSeconds" : 55.69141325,
      "channel" : 0,
      "noteNumber" : 74,
      "noteName" : "D5",
      "velocity" : 80,
      "durationTicks" : 113,
      "durationSeconds" : 0.15026575208333526
    }, {
      "type" : "note",
      "tick" : 42000,
      "timeSeconds" : 55.8509875,
      "channel" : 0,
      "noteNumber" : 76,
      "noteName" : "E5",
      "velocity" : 80,
      "durationTicks" : 113,
      "durationSeconds" : 0.15026575208332815
    }, {
      "type" : "note",
      "tick" : 42120,
      "timeSeconds" : 56.01056175,
      "channel" : 0,
      "noteNumber" : 79,
      "noteName" : "G5",
      "velocity" : 80,
      "durationTicks" : 113,
      "durationSeconds" : 0.15026575208333526
    }, {
      "type" : "note",
      "tick" : 41760,
      "timeSeconds" : 55.531839,
      "channel" : 0,
      "noteNumber" : 83,
      "noteName" : "B5",
      "velocity" : 120,
      "durationTicks" : 479,
      "durationSeconds" : 0.6369672145833363
    }, {
      "type" : "note",
      "tick" : 42360,
      "timeSeconds" : 56.32971025,
      "channel" : 0,
      "noteNumber" : 74,
      "noteName" : "D5",
      "velocity" : 80,
      "durationTicks" : 113,
      "durationSeconds" : 0.15026575208333526
    }, {
      "type" : "note",
      "tick" : 42480,
      "timeSeconds" : 56.4892845,
      "channel" : 0,
      "noteNumber" : 76,
      "noteName" : "E5",
      "velocity" : 80,
      "durationTicks" : 113,
      "durationSeconds" : 0.15026575208333526
    }, {
      "type" : "note",
      "tick" : 42600,
      "timeSeconds" : 56.64885875,
      "channel" : 0,
      "noteNumber" : 72,
      "noteName" : "C5",
      "velocity" : 80,
      "durationTicks" : 113,
      "durationSeconds" : 0.15026575208332815
    }, {
      "type" : "note",
      "tick" : 42240,
      "timeSeconds" : 56.170136,
      "channel" : 0,
      "noteNumber" : 83,
      "noteName" : "B5",
      "velocity" : 120,
      "durationTicks" : 479,
      "durationSeconds" : 0.6369672145833363
    }, {
      "type" : "note",
      "tick" : 42840,
      "timeSeconds" : 56.96800725,
      "channel" : 0,
      "noteNumber" : 74,
      "noteName" : "D5",
      "velocity" : 80,
      "durationTicks" : 113,
      "durationSeconds" : 0.15026575208333526
    }, {
      "type" : "note",
      "tick" : 42960,
      "timeSeconds" : 57.1275815,
      "channel" : 0,
      "noteNumber" : 76,
      "noteName" : "E5",
      "velocity" : 80,
      "durationTicks" : 113,
      "durationSeconds" : 0.15026575208333526
    }, {
      "type" : "note",
      "tick" : 43080,
      "timeSeconds" : 57.28715575,
      "channel" : 0,
      "noteNumber" : 79,
      "noteName" : "G5",
      "velocity" : 80,
      "durationTicks" : 113,
      "durationSeconds" : 0.15026575208333526
    }, {
      "type" : "note",
      "tick" : 42720,
      "timeSeconds" : 56.808433,
      "channel" : 0,
      "noteNumber" : 83,
      "noteName" : "B5",
      "velocity" : 120,
      "durationTicks" : 479,
      "durationSeconds" : 0.6369672145833292
    }, {
      "type" : "note",
      "tick" : 43320,
      "timeSeconds" : 57.60630425,
      "channel" : 0,
      "noteNumber" : 74,
      "noteName" : "D5",
      "velocity" : 80,
      "durationTicks" : 113,
      "durationSeconds" : 0.15026575208333526
    }, {
      "type" : "note",
      "tick" : 43440,
      "timeSeconds" : 57.7658785,
      "channel" : 0,
      "noteNumber" : 76,
      "noteName" : "E5",
      "velocity" : 80,
      "durationTicks" : 113,
      "durationSeconds" : 0.15026575208333526
    }, {
      "type" : "note",
      "tick" : 43560,
      "timeSeconds" : 57.92545275,
      "channel" : 0,
      "noteNumber" : 79,
      "noteName" : "G5",
      "velocity" : 80,
      "durationTicks" : 113,
      "durationSeconds" : 0.15026575208333526
    }, {
      "type" : "note",
      "tick" : 43200,
      "timeSeconds" : 57.44673,
      "channel" : 0,
      "noteNumber" : 83,
      "noteName" : "B5",
      "velocity" : 120,
      "durationTicks" : 479,
      "durationSeconds" : 0.6369672145833292
    }, {
      "type" : "note",
      "tick" : 43800,
      "timeSeconds" : 58.24460125,
      "channel" : 0,
      "noteNumber" : 86,
      "noteName" : "D6",
      "velocity" : 80,
      "durationTicks" : 113,
      "durationSeconds" : 0.15026575208332815
    }, {
      "type" : "note",
      "tick" : 43920,
      "timeSeconds" : 58.4041755,
      "channel" : 0,
      "noteNumber" : 81,
      "noteName" : "A5",
      "velocity" : 80,
      "durationTicks" : 113,
      "durationSeconds" : 0.15026575208333526
    }, {
      "type" : "note",
      "tick" : 44040,
      "timeSeconds" : 58.56374975,
      "channel" : 0,
      "noteNumber" : 79,
      "noteName" : "G5",
      "velocity" : 80,
      "durationTicks" : 113,
      "durationSeconds" : 0.15026575208333526
    }, {
      "type" : "note",
      "tick" : 43680,
      "timeSeconds" : 58.085027,
      "channel" : 0,
      "noteNumber" : 83,
      "noteName" : "B5",
      "velocity" : 120,
      "durationTicks" : 479,
      "durationSeconds" : 0.6369672145833363
    }, {
      "type" : "note",
      "tick" : 44280,
      "timeSeconds" : 58.88289825,
      "channel" : 0,
      "noteNumber" : 74,
      "noteName" : "D5",
      "velocity" : 80,
      "durationTicks" : 113,
      "durationSeconds" : 0.15026575208333526
    }, {
      "type" : "note",
      "tick" : 44400,
      "timeSeconds" : 59.0424725,
      "channel" : 0,
      "noteNumber" : 76,
      "noteName" : "E5",
      "velocity" : 80,
      "durationTicks" : 113,
      "durationSeconds" : 0.15026575208332815
    }, {
      "type" : "note",
      "tick" : 44520,
      "timeSeconds" : 59.20204675,
      "channel" : 0,
      "noteNumber" : 79,
      "noteName" : "G5",
      "velocity" : 80,
      "durationTicks" : 113,
      "durationSeconds" : 0.15026575208333526
    }, {
      "type" : "note",
      "tick" : 44160,
      "timeSeconds" : 58.723324,
      "channel" : 0,
      "noteNumber" : 83,
      "noteName" : "B5",
      "velocity" : 120,
      "durationTicks" : 479,
      "durationSeconds" : 0.6369672145833363
    }, {
      "type" : "note",
      "tick" : 41760,
      "timeSeconds" : 55.531839,
      "channel" : 1,
      "noteNumber" : 43,
      "noteName" : "G2",
      "velocity" : 80,
      "durationTicks" : 2880,
      "durationSeconds" : 3.8297820000000016
    }, {
      "type" : "note",
      "tick" : 41760,
      "timeSeconds" : 55.531839,
      "channel" : 1,
      "noteNumber" : 64,
      "noteName" : "E4",
      "velocity" : 80,
      "durationTicks" : 2880,
      "durationSeconds" : 3.8297820000000016
    }, {
      "type" : "note",
      "tick" : 41760,
      "timeSeconds" : 55.531839,
      "channel" : 1,
      "noteNumber" : 67,
      "noteName" : "G4",
      "velocity" : 80,
      "durationTicks" : 2880,
      "durationSeconds" : 3.8297820000000016
    }, {
      "type" : "note",
      "tick" : 41760,
      "timeSeconds" : 55.531839,
      "channel" : 1,
      "noteNumber" : 71,
      "noteName" : "B4",
      "velocity" : 80,
      "durationTicks" : 2880,
      "durationSeconds" : 3.8297820000000016
    }, {
      "type" : "note",
      "tick" : 44760,
      "timeSeconds" : 59.52119525,
      "channel" : 0,
      "noteNumber" : 76,
      "noteName" : "E5",
      "velocity" : 80,
      "durationTicks" : 113,
      "durationSeconds" : 0.15026575208333526
    }, {
      "type" : "note",
      "tick" : 44880,
      "timeSeconds" : 59.6807695,
      "channel" : 0,
      "noteNumber" : 81,
      "noteName" : "A5",
      "velocity" : 80,
      "durationTicks" : 113,
      "durationSeconds" : 0.15026575208333526
    }, {
      "type" : "note",
      "tick" : 45000,
      "timeSeconds" : 59.84034375,
      "channel" : 0,
      "noteNumber" : 83,
      "noteName" : "B5",
      "velocity" : 80,
      "durationTicks" : 113,
      "durationSeconds" : 0.15026575208332815
    }, {
      "type" : "note",
      "tick" : 44640,
      "timeSeconds" : 59.361621,
      "channel" : 0,
      "noteNumber" : 84,
      "noteName" : "C6",
      "velocity" : 120,
      "durationTicks" : 479,
      "durationSeconds" : 0.6369672145833363
    }, {
      "type" : "note",
      "tick" : 45240,
      "timeSeconds" : 60.15949225,
      "channel" : 0,
      "noteNumber" : 76,
      "noteName" : "E5",
      "velocity" : 80,
      "durationTicks" : 113,
      "durationSeconds" : 0.15026575208333526
    }, {
      "type" : "note",
      "tick" : 45360,
      "timeSeconds" : 60.3190665,
      "channel" : 0,
      "noteNumber" : 81,
      "noteName" : "A5",
      "velocity" : 80,
      "durationTicks" : 113,
      "durationSeconds" : 0.15026575208333526
    }, {
      "type" : "note",
      "tick" : 45480,
      "timeSeconds" : 60.47864075,
      "channel" : 0,
      "noteNumber" : 72,
      "noteName" : "C5",
      "velocity" : 80,
      "durationTicks" : 113,
      "durationSeconds" : 0.15026575208333526
    }, {
      "type" : "note",
      "tick" : 45120,
      "timeSeconds" : 59.999918,
      "channel" : 0,
      "noteNumber" : 84,
      "noteName" : "C6",
      "velocity" : 120,
      "durationTicks" : 479,
      "durationSeconds" : 0.6369672145833292
    }, {
      "type" : "note",
      "tick" : 45720,
      "timeSeconds" : 60.79778925,
      "channel" : 0,
      "noteNumber" : 76,
      "noteName" : "E5",
      "velocity" : 80,
      "durationTicks" : 113,
      "durationSeconds" : 0.15026575208333526
    }, {
      "type" : "note",
      "tick" : 45840,
      "timeSeconds" : 60.9573635,
      "channel" : 0,
      "noteNumber" : 81,
      "noteName" : "A5",
      "velocity" : 80,
      "durationTicks" : 113,
      "durationSeconds" : 0.15026575208333526
    }, {
      "type" : "note",
      "tick" : 45960,
      "timeSeconds" : 61.11693775,
      "channel" : 0,
      "noteNumber" : 83,
      "noteName" : "B5",
      "velocity" : 80,
      "durationTicks" : 113,
      "durationSeconds" : 0.15026575208333526
    }, {
      "type" : "note",
      "tick" : 45600,
      "timeSeconds" : 60.638215,
      "channel" : 0,
      "noteNumber" : 84,
      "noteName" : "C6",
      "velocity" : 120,
      "durationTicks" : 479,
      "durationSeconds" : 0.6369672145833292
    }, {
      "type" : "note",
      "tick" : 46200,
      "timeSeconds" : 61.43608625,
      "channel" : 0,
      "noteNumber" : 76,
      "noteName" : "E5",
      "velocity" : 80,
      "durationTicks" : 113,
      "durationSeconds" : 0.15026575208332815
    }, {
      "type" : "note",
      "tick" : 46320,
      "timeSeconds" : 61.5956605,
      "channel" : 0,
      "noteNumber" : 81,
      "noteName" : "A5",
      "velocity" : 80,
      "durationTicks" : 113,
      "durationSeconds" : 0.15026575208333526
    }, {
      "type" : "note",
      "tick" : 46440,
      "timeSeconds" : 61.75523475,
      "channel" : 0,
      "noteNumber" : 83,
      "noteName" : "B5",
      "velocity" : 80,
      "durationTicks" : 113,
      "durationSeconds" : 0.15026575208333526
    }, {
      "type" : "note",
      "tick" : 46080,
      "timeSeconds" : 61.276512,
      "channel" : 0,
      "noteNumber" : 84,
      "noteName" : "C6",
      "velocity" : 120,
      "durationTicks" : 479,
      "durationSeconds" : 0.6369672145833363
    }, {
      "type" : "note",
      "tick" : 46680,
      "timeSeconds" : 62.07438325,
      "channel" : 0,
      "noteNumber" : 88,
      "noteName" : "E6",
      "velocity" : 80,
      "durationTicks" : 113,
      "durationSeconds" : 0.15026575208333526
    }, {
      "type" : "note",
      "tick" : 46800,
      "timeSeconds" : 62.2339575,
      "channel" : 0,
      "noteNumber" : 83,
      "noteName" : "B5",
      "velocity" : 80,
      "durationTicks" : 113,
      "durationSeconds" : 0.15026575208332815
    }, {
      "type" : "note",
      "tick" : 46920,
      "timeSeconds" : 62.39353175,
      "channel" : 0,
      "noteNumber" : 81,
      "noteName" : "A5",
      "velocity" : 80,
      "durationTicks" : 113,
      "durationSeconds" : 0.15026575208333526
    }, {
      "type" : "note",
      "tick" : 46560,
      "timeSeconds" : 61.914809,
      "channel" : 0,
      "noteNumber" : 84,
      "noteName" : "C6",
      "velocity" : 120,
      "durationTicks" : 479,
      "durationSeconds" : 0.6369672145833363
    }, {
      "type" : "note",
      "tick" : 47160,
      "timeSeconds" : 62.71268025,
      "channel" : 0,
      "noteNumber" : 76,
      "noteName" : "E5",
      "velocity" : 80,
      "durationTicks" : 113,
      "durationSeconds" : 0.15026575208333526
    }, {
      "type" : "note",
      "tick" : 47280,
      "timeSeconds" : 62.8722545,
      "channel" : 0,
      "noteNumber" : 81,
      "noteName" : "A5",
      "velocity" : 80,
      "durationTicks" : 113,
      "durationSeconds" : 0.15026575208333526
    }, {
      "type" : "note",
      "tick" : 47400,
      "timeSeconds" : 63.03182875,
      "channel" : 0,
      "noteNumber" : 83,
      "noteName" : "B5",
      "velocity" : 80,
      "durationTicks" : 113,
      "durationSeconds" : 0.15026575208332815
    }, {
      "type" : "note",
      "tick" : 47040,
      "timeSeconds" : 62.553106,
      "channel" : 0,
      "noteNumber" : 84,
      "noteName" : "C6",
      "velocity" : 120,
      "durationTicks" : 479,
      "durationSeconds" : 0.6369672145833363
    }, {
      "type" : "note",
      "tick" : 44640,
      "timeSeconds" : 59.361621,
      "channel" : 1,
      "noteNumber" : 45,
      "noteName" : "A2",
      "velocity" : 80,
      "durationTicks" : 2880,
      "durationSeconds" : 3.8297820000000016
    }, {
      "type" : "note",
      "tick" : 44640,
      "timeSeconds" : 59.361621,
      "channel" : 1,
      "noteNumber" : 60,
      "noteName" : "C4",
      "velocity" : 80,
      "durationTicks" : 2880,
      "durationSeconds" : 3.8297820000000016
    }, {
      "type" : "note",
      "tick" : 44640,
      "timeSeconds" : 59.361621,
      "channel" : 1,
      "noteNumber" : 64,
      "noteName" : "E4",
      "velocity" : 80,
      "durationTicks" : 2880,
      "durationSeconds" : 3.8297820000000016
    }, {
      "type" : "note",
      "tick" : 44640,
      "timeSeconds" : 59.361621,
      "channel" : 1,
      "noteNumber" : 69,
      "noteName" : "A4",
      "velocity" : 80,
      "durationTicks" : 2880,
      "durationSeconds" : 3.8297820000000016
    }, {
      "type" : "note",
      "tick" : 47640,
      "timeSeconds" : 63.35097725,
      "channel" : 0,
      "noteNumber" : 76,
      "noteName" : "E5",
      "velocity" : 80,
      "durationTicks" : 113,
      "durationSeconds" : 0.15026575208333526
    }, {
      "type" : "note",
      "tick" : 47760,
      "timeSeconds" : 63.5105515,
      "channel" : 0,
      "noteNumber" : 79,
      "noteName" : "G5",
      "velocity" : 80,
      "durationTicks" : 113,
      "durationSeconds" : 0.15026575208333526
    }, {
      "type" : "note",
      "tick" : 47880,
      "timeSeconds" : 63.67012575,
      "channel" : 0,
      "noteNumber" : 83,
      "noteName" : "B5",
      "velocity" : 80,
      "durationTicks" : 113,
      "durationSeconds" : 0.15026575208333526
    }, {
      "type" : "note",
      "tick" : 47520,
      "timeSeconds" : 63.191403,
      "channel" : 0,
      "noteNumber" : 86,
      "noteName" : "D6",
      "velocity" : 120,
      "durationTicks" : 479,
      "durationSeconds" : 0.6369672145833292
    }, {
      "type" : "note",
      "tick" : 48120,
      "timeSeconds" : 63.98927425,
      "channel" : 0,
      "noteNumber" : 76,
      "noteName" : "E5",
      "velocity" : 80,
      "durationTicks" : 113,
      "durationSeconds" : 0.15026575208333526
    }, {
      "type" : "note",
      "tick" : 48240,
      "timeSeconds" : 64.1488485,
      "channel" : 0,
      "noteNumber" : 79,
      "noteName" : "G5",
      "velocity" : 80,
      "durationTicks" : 113,
      "durationSeconds" : 0.15026575208332815
    }, {
      "type" : "note",
      "tick" : 48360,
      "timeSeconds" : 64.30842275,
      "channel" : 0,
      "noteNumber" : 71,
      "noteName" : "B4",
      "velocity" : 80,
      "durationTicks" : 113,
      "durationSeconds" : 0.15026575208332815
    }, {
      "type" : "note",
      "tick" : 48000,
      "timeSeconds" : 63.8297,
      "channel" : 0,
      "noteNumber" : 88,
      "noteName" : "E6",
      "velocity" : 120,
      "durationTicks" : 479,
      "durationSeconds" : 0.6369672145833363
    }, {
      "type" : "note",
      "tick" : 48600,
      "timeSeconds" : 64.62757125,
      "channel" : 0,
      "noteNumber" : 76,
      "noteName" : "E5",
      "velocity" : 80,
      "durationTicks" : 113,
      "durationSeconds" : 0.15026575208332815
    }, {
      "type" : "note",
      "tick" : 48720,
      "timeSeconds" : 64.7871455,
      "channel" : 0,
      "noteNumber" : 79,
      "noteName" : "G5",
      "velocity" : 80,
      "durationTicks" : 113,
      "durationSeconds" : 0.15026575208334236
    }, {
      "type" : "note",
      "tick" : 48840,
      "timeSeconds" : 64.94671975,
      "channel" : 0,
      "noteNumber" : 83,
      "noteName" : "B5",
      "velocity" : 80,
      "durationTicks" : 113,
      "durationSeconds" : 0.15026575208332815
    }, {
      "type" : "note",
      "tick" : 48480,
      "timeSeconds" : 64.467997,
      "channel" : 0,
      "noteNumber" : 86,
      "noteName" : "D6",
      "velocity" : 120,
      "durationTicks" : 479,
      "durationSeconds" : 0.6369672145833363
    }, {
      "type" : "note",
      "tick" : 49080,
      "timeSeconds" : 65.26586825,
      "channel" : 0,
      "noteNumber" : 76,
      "noteName" : "E5",
      "velocity" : 80,
      "durationTicks" : 113,
      "durationSeconds" : 0.15026575208334236
    }, {
      "type" : "note",
      "tick" : 49200,
      "timeSeconds" : 65.4254425,
      "channel" : 0,
      "noteNumber" : 79,
      "noteName" : "G5",
      "velocity" : 80,
      "durationTicks" : 113,
      "durationSeconds" : 0.15026575208332815
    }, {
      "type" : "note",
      "tick" : 49320,
      "timeSeconds" : 65.58501675,
      "channel" : 0,
      "noteNumber" : 83,
      "noteName" : "B5",
      "velocity" : 80,
      "durationTicks" : 113,
      "durationSeconds" : 0.15026575208334236
    }, {
      "type" : "note",
      "tick" : 48960,
      "timeSeconds" : 65.106294,
      "channel" : 0,
      "noteNumber" : 88,
      "noteName" : "E6",
      "velocity" : 120,
      "durationTicks" : 479,
      "durationSeconds" : 0.6369672145833221
    }, {
      "type" : "note",
      "tick" : 49560,
      "timeSeconds" : 65.90416525,
      "channel" : 0,
      "noteNumber" : 88,
      "noteName" : "E6",
      "velocity" : 80,
      "durationTicks" : 113,
      "durationSeconds" : 0.15026575208332815
    }, {
      "type" : "note",
      "tick" : 49680,
      "timeSeconds" : 66.0637395,
      "channel" : 0,
      "noteNumber" : 83,
      "noteName" : "B5",
      "velocity" : 80,
      "durationTicks" : 113,
      "durationSeconds" : 0.15026575208334236
    }, {
      "type" : "note",
      "tick" : 49800,
      "timeSeconds" : 66.22331375,
      "channel" : 0,
      "noteNumber" : 79,
      "noteName" : "G5",
      "velocity" : 80,
      "durationTicks" : 113,
      "durationSeconds" : 0.15026575208332815
    }, {
      "type" : "note",
      "tick" : 49440,
      "timeSeconds" : 65.744591,
      "channel" : 0,
      "noteNumber" : 86,
      "noteName" : "D6",
      "velocity" : 120,
      "durationTicks" : 479,
      "durationSeconds" : 0.6369672145833363
    }, {
      "type" : "note",
      "tick" : 50040,
      "timeSeconds" : 66.54246225,
      "channel" : 0,
      "noteNumber" : 81,
      "noteName" : "A5",
      "velocity" : 80,
      "durationTicks" : 113,
      "durationSeconds" : 0.15026575208332815
    }, {
      "type" : "note",
      "tick" : 50160,
      "timeSeconds" : 66.7020365,
      "channel" : 0,
      "noteNumber" : 83,
      "noteName" : "B5",
      "velocity" : 80,
      "durationTicks" : 113,
      "durationSeconds" : 0.15026575208332815
    }, {
      "type" : "note",
      "tick" : 50280,
      "timeSeconds" : 66.86161075,
      "channel" : 0,
      "noteNumber" : 76,
      "noteName" : "E5",
      "velocity" : 80,
      "durationTicks" : 113,
      "durationSeconds" : 0.15026575208334236
    }, {
      "type" : "note",
      "tick" : 49920,
      "timeSeconds" : 66.382888,
      "channel" : 0,
      "noteNumber" : 88,
      "noteName" : "E6",
      "velocity" : 120,
      "durationTicks" : 479,
      "durationSeconds" : 0.6369672145833363
    }, {
      "type" : "note",
      "tick" : 47520,
      "timeSeconds" : 63.191403,
      "channel" : 1,
      "noteNumber" : 43,
      "noteName" : "G2",
      "velocity" : 80,
      "durationTicks" : 2880,
      "durationSeconds" : 3.8297820000000016
    }, {
      "type" : "note",
      "tick" : 47520,
      "timeSeconds" : 63.191403,
      "channel" : 1,
      "noteNumber" : 62,
      "noteName" : "D4",
      "velocity" : 80,
      "durationTicks" : 2880,
      "durationSeconds" : 3.8297820000000016
    }, {
      "type" : "note",
      "tick" : 47520,
      "timeSeconds" : 63.191403,
      "channel" : 1,
      "noteNumber" : 64,
      "noteName" : "E4",
      "velocity" : 80,
      "durationTicks" : 2880,
      "durationSeconds" : 3.8297820000000016
    }, {
      "type" : "note",
      "tick" : 47520,
      "timeSeconds" : 63.191403,
      "channel" : 1,
      "noteNumber" : 67,
      "noteName" : "G4",
      "velocity" : 80,
      "durationTicks" : 2880,
      "durationSeconds" : 3.8297820000000016
    }, {
      "type" : "note",
      "tick" : 47520,
      "timeSeconds" : 63.191403,
      "channel" : 1,
      "noteNumber" : 71,
      "noteName" : "B4",
      "velocity" : 80,
      "durationTicks" : 2880,
      "durationSeconds" : 3.8297820000000016
    }, {
      "type" : "note",
      "tick" : 50520,
      "timeSeconds" : 67.18075925,
      "channel" : 0,
      "noteNumber" : 74,
      "noteName" : "D5",
      "velocity" : 80,
      "durationTicks" : 113,
      "durationSeconds" : 0.15026575208334236
    }, {
      "type" : "note",
      "tick" : 50640,
      "timeSeconds" : 67.3403335,
      "channel" : 0,
      "noteNumber" : 76,
      "noteName" : "E5",
      "velocity" : 80,
      "durationTicks" : 113,
      "durationSeconds" : 0.15026575208332815
    }, {
      "type" : "note",
      "tick" : 50760,
      "timeSeconds" : 67.49990775,
      "channel" : 0,
      "noteNumber" : 77,
      "noteName" : "F5",
      "velocity" : 80,
      "durationTicks" : 113,
      "durationSeconds" : 0.15026575208332815
    }, {
      "type" : "note",
      "tick" : 50400,
      "timeSeconds" : 67.021185,
      "channel" : 0,
      "noteNumber" : 81,
      "noteName" : "A5",
      "velocity" : 120,
      "durationTicks" : 479,
      "durationSeconds" : 0.6369672145833363
    }, {
      "type" : "note",
      "tick" : 51000,
      "timeSeconds" : 67.81905625,
      "channel" : 0,
      "noteNumber" : 74,
      "noteName" : "D5",
      "velocity" : 80,
      "durationTicks" : 113,
      "durationSeconds" : 0.15026575208332815
    }, {
      "type" : "note",
      "tick" : 51120,
      "timeSeconds" : 67.9786305,
      "channel" : 0,
      "noteNumber" : 76,
      "noteName" : "E5",
      "velocity" : 80,
      "durationTicks" : 113,
      "durationSeconds" : 0.15026575208334236
    }, {
      "type" : "note",
      "tick" : 51240,
      "timeSeconds" : 68.13820475,
      "channel" : 0,
      "noteNumber" : 72,
      "noteName" : "C5",
      "velocity" : 80,
      "durationTicks" : 113,
      "durationSeconds" : 0.15026575208332815
    }, {
      "type" : "note",
      "tick" : 50880,
      "timeSeconds" : 67.659482,
      "channel" : 0,
      "noteNumber" : 88,
      "noteName" : "E6",
      "velocity" : 120,
      "durationTicks" : 479,
      "durationSeconds" : 0.6369672145833363
    }, {
      "type" : "note",
      "tick" : 51480,
      "timeSeconds" : 68.45735325,
      "channel" : 0,
      "noteNumber" : 74,
      "noteName" : "D5",
      "velocity" : 80,
      "durationTicks" : 113,
      "durationSeconds" : 0.15026575208334236
    }, {
      "type" : "note",
      "tick" : 51600,
      "timeSeconds" : 68.6169275,
      "channel" : 0,
      "noteNumber" : 76,
      "noteName" : "E5",
      "velocity" : 80,
      "durationTicks" : 113,
      "durationSeconds" : 0.15026575208332815
    }, {
      "type" : "note",
      "tick" : 51720,
      "timeSeconds" : 68.77650175,
      "channel" : 0,
      "noteNumber" : 77,
      "noteName" : "F5",
      "velocity" : 80,
      "durationTicks" : 113,
      "durationSeconds" : 0.15026575208334236
    }, {
      "type" : "note",
      "tick" : 51360,
      "timeSeconds" : 68.297779,
      "channel" : 0,
      "noteNumber" : 81,
      "noteName" : "A5",
      "velocity" : 120,
      "durationTicks" : 479,
      "durationSeconds" : 0.6369672145833221
    }, {
      "type" : "note",
      "tick" : 51960,
      "timeSeconds" : 69.09565025,
      "channel" : 0,
      "noteNumber" : 74,
      "noteName" : "D5",
      "velocity" : 80,
      "durationTicks" : 113,
      "durationSeconds" : 0.15026575208332815
    }, {
      "type" : "note",
      "tick" : 52080,
      "timeSeconds" : 69.2552245,
      "channel" : 0,
      "noteNumber" : 76,
      "noteName" : "E5",
      "velocity" : 80,
      "durationTicks" : 113,
      "durationSeconds" : 0.15026575208334236
    }, {
      "type" : "note",
      "tick" : 52200,
      "timeSeconds" : 69.41479875,
      "channel" : 0,
      "noteNumber" : 77,
      "noteName" : "F5",
      "velocity" : 80,
      "durationTicks" : 113,
      "durationSeconds" : 0.15026575208332815
    }, {
      "type" : "note",
      "tick" : 51840,
      "timeSeconds" : 68.936076,
      "channel" : 0,
      "noteNumber" : 81,
      "noteName" : "A5",
      "velocity" : 120,
      "durationTicks" : 479,
      "durationSeconds" : 0.6369672145833363
    }, {
      "type" : "note",
      "tick" : 52440,
      "timeSeconds" : 69.73394725,
      "channel" : 0,
      "noteNumber" : 84,
      "noteName" : "C6",
      "velocity" : 80,
      "durationTicks" : 113,
      "durationSeconds" : 0.15026575208332815
    }, {
      "type" : "note",
      "tick" : 52560,
      "timeSeconds" : 69.8935215,
      "channel" : 0,
      "noteNumber" : 81,
      "noteName" : "A5",
      "velocity" : 80,
      "durationTicks" : 113,
      "durationSeconds" : 0.15026575208332815
    }, {
      "type" : "note",
      "tick" : 52680,
      "timeSeconds" : 70.05309575,
      "channel" : 0,
      "noteNumber" : 79,
      "noteName" : "G5",
      "velocity" : 80,
      "durationTicks" : 113,
      "durationSeconds" : 0.15026575208334236
    }, {
      "type" : "note",
      "tick" : 52320,
      "timeSeconds" : 69.574373,
      "channel" : 0,
      "noteNumber" : 88,
      "noteName" : "E6",
      "velocity" : 120,
      "durationTicks" : 479,
      "durationSeconds" : 0.6369672145833363
    }, {
      "type" : "note",
      "tick" : 52920,
      "timeSeconds" : 70.37224425,
      "channel" : 0,
      "noteNumber" : 74,
      "noteName" : "D5",
      "velocity" : 80,
      "durationTicks" : 113,
      "durationSeconds" : 0.15026575208334236
    }, {
      "type" : "note",
      "tick" : 53040,
      "timeSeconds" : 70.5318185,
      "channel" : 0,
      "noteNumber" : 76,
      "noteName" : "E5",
      "velocity" : 80,
      "durationTicks" : 113,
      "durationSeconds" : 0.15026575208332815
    }, {
      "type" : "note",
      "tick" : 53160,
      "timeSeconds" : 70.69139275,
      "channel" : 0,
      "noteNumber" : 77,
      "noteName" : "F5",
      "velocity" : 80,
      "durationTicks" : 113,
      "durationSeconds" : 0.15026575208332815
    }, {
      "type" : "note",
      "tick" : 52800,
      "timeSeconds" : 70.21267,
      "channel" : 0,
      "noteNumber" : 81,
      "noteName" : "A5",
      "velocity" : 120,
      "durationTicks" : 479,
      "durationSeconds" : 0.6369672145833363
    }, {
      "type" : "note",
      "tick" : 50400,
      "timeSeconds" : 67.021185,
      "channel" : 1,
      "noteNumber" : 41,
      "noteName" : "F2",
      "velocity" : 80,
      "durationTicks" : 2880,
      "durationSeconds" : 3.8297819999999945
    }, {
      "type" : "note",
      "tick" : 50400,
      "timeSeconds" : 67.021185,
      "channel" : 1,
      "noteNumber" : 60,
      "noteName" : "C4",
      "velocity" : 80,
      "durationTicks" : 2880,
      "durationSeconds" : 3.8297819999999945
    }, {
      "type" : "note",
      "tick" : 50400,
      "timeSeconds" : 67.021185,
      "channel" : 1,
      "noteNumber" : 64,
      "noteName" : "E4",
      "velocity" : 80,
      "durationTicks" : 2880,
      "durationSeconds" : 3.8297819999999945
    }, {
      "type" : "note",
      "tick" : 50400,
      "timeSeconds" : 67.021185,
      "channel" : 1,
      "noteNumber" : 65,
      "noteName" : "F4",
      "velocity" : 80,
      "durationTicks" : 2880,
      "durationSeconds" : 3.8297819999999945
    }, {
      "type" : "note",
      "tick" : 50400,
      "timeSeconds" : 67.021185,
      "channel" : 1,
      "noteNumber" : 69,
      "noteName" : "A4",
      "velocity" : 80,
      "durationTicks" : 2880,
      "durationSeconds" : 3.8297819999999945
    }, {
      "type" : "note",
      "tick" : 53400,
      "timeSeconds" : 71.01054125,
      "channel" : 0,
      "noteNumber" : 74,
      "noteName" : "D5",
      "velocity" : 80,
      "durationTicks" : 113,
      "durationSeconds" : 0.15026575208332815
    }, {
      "type" : "note",
      "tick" : 53520,
      "timeSeconds" : 71.1701155,
      "channel" : 0,
      "noteNumber" : 76,
      "noteName" : "E5",
      "velocity" : 80,
      "durationTicks" : 113,
      "durationSeconds" : 0.15026575208334236
    }, {
      "type" : "note",
      "tick" : 53640,
      "timeSeconds" : 71.32968975,
      "channel" : 0,
      "noteNumber" : 79,
      "noteName" : "G5",
      "velocity" : 80,
      "durationTicks" : 113,
      "durationSeconds" : 0.15026575208332815
    }, {
      "type" : "note",
      "tick" : 53280,
      "timeSeconds" : 70.850967,
      "channel" : 0,
      "noteNumber" : 83,
      "noteName" : "B5",
      "velocity" : 120,
      "durationTicks" : 479,
      "durationSeconds" : 0.6369672145833363
    }, {
      "type" : "note",
      "tick" : 53880,
      "timeSeconds" : 71.64883825,
      "channel" : 0,
      "noteNumber" : 74,
      "noteName" : "D5",
      "velocity" : 80,
      "durationTicks" : 113,
      "durationSeconds" : 0.15026575208334236
    }, {
      "type" : "note",
      "tick" : 54000,
      "timeSeconds" : 71.8084125,
      "channel" : 0,
      "noteNumber" : 76,
      "noteName" : "E5",
      "velocity" : 80,
      "durationTicks" : 113,
      "durationSeconds" : 0.15026575208332815
    }, {
      "type" : "note",
      "tick" : 54120,
      "timeSeconds" : 71.96798675,
      "channel" : 0,
      "noteNumber" : 72,
      "noteName" : "C5",
      "velocity" : 80,
      "durationTicks" : 113,
      "durationSeconds" : 0.15026575208334236
    }, {
      "type" : "note",
      "tick" : 53760,
      "timeSeconds" : 71.489264,
      "channel" : 0,
      "noteNumber" : 88,
      "noteName" : "E6",
      "velocity" : 120,
      "durationTicks" : 479,
      "durationSeconds" : 0.6369672145833221
    }, {
      "type" : "note",
      "tick" : 54360,
      "timeSeconds" : 72.28713525,
      "channel" : 0,
      "noteNumber" : 74,
      "noteName" : "D5",
      "velocity" : 80,
      "durationTicks" : 113,
      "durationSeconds" : 0.15026575208332815
    }, {
      "type" : "note",
      "tick" : 54480,
      "timeSeconds" : 72.4467095,
      "channel" : 0,
      "noteNumber" : 76,
      "noteName" : "E5",
      "velocity" : 80,
      "durationTicks" : 113,
      "durationSeconds" : 0.15026575208334236
    }, {
      "type" : "note",
      "tick" : 54600,
      "timeSeconds" : 72.60628375,
      "channel" : 0,
      "noteNumber" : 79,
      "noteName" : "G5",
      "velocity" : 80,
      "durationTicks" : 113,
      "durationSeconds" : 0.15026575208332815
    }, {
      "type" : "note",
      "tick" : 54240,
      "timeSeconds" : 72.127561,
      "channel" : 0,
      "noteNumber" : 83,
      "noteName" : "B5",
      "velocity" : 120,
      "durationTicks" : 479,
      "durationSeconds" : 0.6369672145833363
    }, {
      "type" : "note",
      "tick" : 54840,
      "timeSeconds" : 72.92543225,
      "channel" : 0,
      "noteNumber" : 74,
      "noteName" : "D5",
      "velocity" : 80,
      "durationTicks" : 113,
      "durationSeconds" : 0.15026575208332815
    }, {
      "type" : "note",
      "tick" : 54960,
      "timeSeconds" : 73.0850065,
      "channel" : 0,
      "noteNumber" : 76,
      "noteName" : "E5",
      "velocity" : 80,
      "durationTicks" : 113,
      "durationSeconds" : 0.15026575208332815
    }, {
      "type" : "note",
      "tick" : 55080,
      "timeSeconds" : 73.24458075,
      "channel" : 0,
      "noteNumber" : 79,
      "noteName" : "G5",
      "velocity" : 80,
      "durationTicks" : 113,
      "durationSeconds" : 0.15026575208334236
    }, {
      "type" : "note",
      "tick" : 54720,
      "timeSeconds" : 72.765858,
      "channel" : 0,
      "noteNumber" : 83,
      "noteName" : "B5",
      "velocity" : 120,
      "durationTicks" : 479,
      "durationSeconds" : 0.6369672145833363
    }, {
      "type" : "note",
      "tick" : 55320,
      "timeSeconds" : 73.56372925,
      "channel" : 0,
      "noteNumber" : 86,
      "noteName" : "D6",
      "velocity" : 80,
      "durationTicks" : 113,
      "durationSeconds" : 0.15026575208334236
    }, {
      "type" : "note",
      "tick" : 55440,
      "timeSeconds" : 73.7233035,
      "channel" : 0,
      "noteNumber" : 81,
      "noteName" : "A5",
      "velocity" : 80,
      "durationTicks" : 113,
      "durationSeconds" : 0.15026575208332815
    }, {
      "type" : "note",
      "tick" : 55560,
      "timeSeconds" : 73.88287775,
      "channel" : 0,
      "noteNumber" : 79,
      "noteName" : "G5",
      "velocity" : 80,
      "durationTicks" : 113,
      "durationSeconds" : 0.15026575208332815
    }, {
      "type" : "note",
      "tick" : 55200,
      "timeSeconds" : 73.404155,
      "channel" : 0,
      "noteNumber" : 88,
      "noteName" : "E6",
      "velocity" : 120,
      "durationTicks" : 479,
      "durationSeconds" : 0.6369672145833363
    }, {
      "type" : "note",
      "tick" : 55800,
      "timeSeconds" : 74.20202625,
      "channel" : 0,
      "noteNumber" : 74,
      "noteName" : "D5",
      "velocity" : 80,
      "durationTicks" : 113,
      "durationSeconds" : 0.15026575208332815
    }, {
      "type" : "note",
      "tick" : 55920,
      "timeSeconds" : 74.3616005,
      "channel" : 0,
      "noteNumber" : 76,
      "noteName" : "E5",
      "velocity" : 80,
      "durationTicks" : 113,
      "durationSeconds" : 0.15026575208334236
    }, {
      "type" : "note",
      "tick" : 56040,
      "timeSeconds" : 74.52117475,
      "channel" : 0,
      "noteNumber" : 79,
      "noteName" : "G5",
      "velocity" : 80,
      "durationTicks" : 113,
      "durationSeconds" : 0.15026575208332815
    }, {
      "type" : "note",
      "tick" : 55680,
      "timeSeconds" : 74.042452,
      "channel" : 0,
      "noteNumber" : 83,
      "noteName" : "B5",
      "velocity" : 120,
      "durationTicks" : 479,
      "durationSeconds" : 0.6369672145833363
    }, {
      "type" : "note",
      "tick" : 53280,
      "timeSeconds" : 70.850967,
      "channel" : 1,
      "noteNumber" : 43,
      "noteName" : "G2",
      "velocity" : 80,
      "durationTicks" : 2880,
      "durationSeconds" : 3.8297820000000087
    }, {
      "type" : "note",
      "tick" : 53280,
      "timeSeconds" : 70.850967,
      "channel" : 1,
      "noteNumber" : 64,
      "noteName" : "E4",
      "velocity" : 80,
      "durationTicks" : 2880,
      "durationSeconds" : 3.8297820000000087
    }, {
      "type" : "note",
      "tick" : 53280,
      "timeSeconds" : 70.850967,
      "channel" : 1,
      "noteNumber" : 67,
      "noteName" : "G4",
      "velocity" : 80,
      "durationTicks" : 2880,
      "durationSeconds" : 3.8297820000000087
    }, {
      "type" : "note",
      "tick" : 53280,
      "timeSeconds" : 70.850967,
      "channel" : 1,
      "noteNumber" : 71,
      "noteName" : "B4",
      "velocity" : 80,
      "durationTicks" : 2880,
      "durationSeconds" : 3.8297820000000087
    }, {
      "type" : "note",
      "tick" : 56280,
      "timeSeconds" : 74.84032325,
      "channel" : 0,
      "noteNumber" : 76,
      "noteName" : "E5",
      "velocity" : 80,
      "durationTicks" : 113,
      "durationSeconds" : 0.15026575208334236
    }, {
      "type" : "note",
      "tick" : 56400,
      "timeSeconds" : 74.9998975,
      "channel" : 0,
      "noteNumber" : 81,
      "noteName" : "A5",
      "velocity" : 80,
      "durationTicks" : 113,
      "durationSeconds" : 0.15026575208332815
    }, {
      "type" : "note",
      "tick" : 56520,
      "timeSeconds" : 75.15947175,
      "channel" : 0,
      "noteNumber" : 83,
      "noteName" : "B5",
      "velocity" : 80,
      "durationTicks" : 113,
      "durationSeconds" : 0.15026575208334236
    }, {
      "type" : "note",
      "tick" : 56160,
      "timeSeconds" : 74.680749,
      "channel" : 0,
      "noteNumber" : 84,
      "noteName" : "C6",
      "velocity" : 120,
      "durationTicks" : 479,
      "durationSeconds" : 0.6369672145833221
    }, {
      "type" : "note",
      "tick" : 56760,
      "timeSeconds" : 75.47862025,
      "channel" : 0,
      "noteNumber" : 76,
      "noteName" : "E5",
      "velocity" : 80,
      "durationTicks" : 113,
      "durationSeconds" : 0.15026575208332815
    }, {
      "type" : "note",
      "tick" : 56880,
      "timeSeconds" : 75.6381945,
      "channel" : 0,
      "noteNumber" : 81,
      "noteName" : "A5",
      "velocity" : 80,
      "durationTicks" : 113,
      "durationSeconds" : 0.15026575208334236
    }, {
      "type" : "note",
      "tick" : 57000,
      "timeSeconds" : 75.79776875,
      "channel" : 0,
      "noteNumber" : 72,
      "noteName" : "C5",
      "velocity" : 80,
      "durationTicks" : 113,
      "durationSeconds" : 0.15026575208332815
    }, {
      "type" : "note",
      "tick" : 56640,
      "timeSeconds" : 75.319046,
      "channel" : 0,
      "noteNumber" : 88,
      "noteName" : "E6",
      "velocity" : 120,
      "durationTicks" : 479,
      "durationSeconds" : 0.6369672145833363
    }, {
      "type" : "note",
      "tick" : 57240,
      "timeSeconds" : 76.11691725,
      "channel" : 0,
      "noteNumber" : 76,
      "noteName" : "E5",
      "velocity" : 80,
      "durationTicks" : 113,
      "durationSeconds" : 0.15026575208332815
    }, {
      "type" : "note",
      "tick" : 57360,
      "timeSeconds" : 76.2764915,
      "channel" : 0,
      "noteNumber" : 81,
      "noteName" : "A5",
      "velocity" : 80,
      "durationTicks" : 113,
      "durationSeconds" : 0.15026575208332815
    }, {
      "type" : "note",
      "tick" : 57480,
      "timeSeconds" : 76.43606575,
      "channel" : 0,
      "noteNumber" : 83,
      "noteName" : "B5",
      "velocity" : 80,
      "durationTicks" : 113,
      "durationSeconds" : 0.15026575208334236
    }, {
      "type" : "note",
      "tick" : 57120,
      "timeSeconds" : 75.957343,
      "channel" : 0,
      "noteNumber" : 84,
      "noteName" : "C6",
      "velocity" : 120,
      "durationTicks" : 479,
      "durationSeconds" : 0.6369672145833363
    }, {
      "type" : "note",
      "tick" : 57720,
      "timeSeconds" : 76.75521425,
      "channel" : 0,
      "noteNumber" : 76,
      "noteName" : "E5",
      "velocity" : 80,
      "durationTicks" : 113,
      "durationSeconds" : 0.15026575208334236
    }, {
      "type" : "note",
      "tick" : 57840,
      "timeSeconds" : 76.9147885,
      "channel" : 0,
      "noteNumber" : 81,
      "noteName" : "A5",
      "velocity" : 80,
      "durationTicks" : 113,
      "durationSeconds" : 0.15026575208332815
    }, {
      "type" : "note",
      "tick" : 57960,
      "timeSeconds" : 77.07436275,
      "channel" : 0,
      "noteNumber" : 83,
      "noteName" : "B5",
      "velocity" : 80,
      "durationTicks" : 113,
      "durationSeconds" : 0.15026575208332815
    }, {
      "type" : "note",
      "tick" : 57600,
      "timeSeconds" : 76.59564,
      "channel" : 0,
      "noteNumber" : 84,
      "noteName" : "C6",
      "velocity" : 120,
      "durationTicks" : 479,
      "durationSeconds" : 0.6369672145833363
    }, {
      "type" : "note",
      "tick" : 58080,
      "timeSeconds" : 77.233937,
      "channel" : 0,
      "noteNumber" : 88,
      "noteName" : "E6",
      "velocity" : 120,
      "durationTicks" : 120,
      "durationSeconds" : 0.1595742500000057
    }, {
      "type" : "note",
      "tick" : 58320,
      "timeSeconds" : 77.5530855,
      "channel" : 0,
      "noteNumber" : 83,
      "noteName" : "B5",
      "velocity" : 80,
      "durationTicks" : 113,
      "durationSeconds" : 0.15026575208334236
    }, {
      "type" : "note",
      "tick" : 58440,
      "timeSeconds" : 77.71265975,
      "channel" : 0,
      "noteNumber" : 81,
      "noteName" : "A5",
      "velocity" : 80,
      "durationTicks" : 113,
      "durationSeconds" : 0.15026575208332815
    }, {
      "type" : "note",
      "tick" : 58200,
      "timeSeconds" : 77.39351125,
      "channel" : 0,
      "noteNumber" : 88,
      "noteName" : "E6",
      "velocity" : 80,
      "durationTicks" : 359,
      "durationSeconds" : 0.4773929645833306
    }, {
      "type" : "note",
      "tick" : 58680,
      "timeSeconds" : 78.03180825,
      "channel" : 0,
      "noteNumber" : 76,
      "noteName" : "E5",
      "velocity" : 80,
      "durationTicks" : 113,
      "durationSeconds" : 0.15026575208334236
    }, {
      "type" : "note",
      "tick" : 58800,
      "timeSeconds" : 78.1913825,
      "channel" : 0,
      "noteNumber" : 81,
      "noteName" : "A5",
      "velocity" : 80,
      "durationTicks" : 113,
      "durationSeconds" : 0.15026575208332815
    }, {
      "type" : "note",
      "tick" : 58920,
      "timeSeconds" : 78.35095675,
      "channel" : 0,
      "noteNumber" : 83,
      "noteName" : "B5",
      "velocity" : 80,
      "durationTicks" : 113,
      "durationSeconds" : 0.15026575208334236
    }, {
      "type" : "note",
      "tick" : 58560,
      "timeSeconds" : 77.872234,
      "channel" : 0,
      "noteNumber" : 84,
      "noteName" : "C6",
      "velocity" : 120,
      "durationTicks" : 479,
      "durationSeconds" : 0.6369672145833221
    }, {
      "type" : "note",
      "tick" : 56160,
      "timeSeconds" : 74.680749,
      "channel" : 1,
      "noteNumber" : 45,
      "noteName" : "A2",
      "velocity" : 80,
      "durationTicks" : 2880,
      "durationSeconds" : 3.8297819999999945
    }, {
      "type" : "note",
      "tick" : 56160,
      "timeSeconds" : 74.680749,
      "channel" : 1,
      "noteNumber" : 60,
      "noteName" : "C4",
      "velocity" : 80,
      "durationTicks" : 2880,
      "durationSeconds" : 3.8297819999999945
    }, {
      "type" : "note",
      "tick" : 56160,
      "timeSeconds" : 74.680749,
      "channel" : 1,
      "noteNumber" : 64,
      "noteName" : "E4",
      "velocity" : 80,
      "durationTicks" : 2880,
      "durationSeconds" : 3.8297819999999945
    }, {
      "type" : "note",
      "tick" : 56160,
      "timeSeconds" : 74.680749,
      "channel" : 1,
      "noteNumber" : 69,
      "noteName" : "A4",
      "velocity" : 80,
      "durationTicks" : 2880,
      "durationSeconds" : 3.8297819999999945
    }, {
      "type" : "note",
      "tick" : 59160,
      "timeSeconds" : 78.67010525,
      "channel" : 0,
      "noteNumber" : 76,
      "noteName" : "E5",
      "velocity" : 80,
      "durationTicks" : 113,
      "durationSeconds" : 0.15026575208332815
    }, {
      "type" : "note",
      "tick" : 59280,
      "timeSeconds" : 78.8296795,
      "channel" : 0,
      "noteNumber" : 79,
      "noteName" : "G5",
      "velocity" : 80,
      "durationTicks" : 113,
      "durationSeconds" : 0.15026575208334236
    }, {
      "type" : "note",
      "tick" : 59400,
      "timeSeconds" : 78.98925375,
      "channel" : 0,
      "noteNumber" : 83,
      "noteName" : "B5",
      "velocity" : 80,
      "durationTicks" : 113,
      "durationSeconds" : 0.15026575208332815
    }, {
      "type" : "note",
      "tick" : 59040,
      "timeSeconds" : 78.510531,
      "channel" : 0,
      "noteNumber" : 86,
      "noteName" : "D6",
      "velocity" : 120,
      "durationTicks" : 479,
      "durationSeconds" : 0.6369672145833363
    }, {
      "type" : "note",
      "tick" : 59640,
      "timeSeconds" : 79.30840225,
      "channel" : 0,
      "noteNumber" : 76,
      "noteName" : "E5",
      "velocity" : 80,
      "durationTicks" : 113,
      "durationSeconds" : 0.15026575208332815
    }, {
      "type" : "note",
      "tick" : 59760,
      "timeSeconds" : 79.4679765,
      "channel" : 0,
      "noteNumber" : 79,
      "noteName" : "G5",
      "velocity" : 80,
      "durationTicks" : 113,
      "durationSeconds" : 0.15026575208332815
    }, {
      "type" : "note",
      "tick" : 59880,
      "timeSeconds" : 79.62755075,
      "channel" : 0,
      "noteNumber" : 71,
      "noteName" : "B4",
      "velocity" : 80,
      "durationTicks" : 113,
      "durationSeconds" : 0.15026575208334236
    }, {
      "type" : "note",
      "tick" : 59520,
      "timeSeconds" : 79.148828,
      "channel" : 0,
      "noteNumber" : 88,
      "noteName" : "E6",
      "velocity" : 120,
      "durationTicks" : 479,
      "durationSeconds" : 0.6369672145833363
    }, {
      "type" : "note",
      "tick" : 60120,
      "timeSeconds" : 79.94669925,
      "channel" : 0,
      "noteNumber" : 76,
      "noteName" : "E5",
      "velocity" : 80,
      "durationTicks" : 113,
      "durationSeconds" : 0.15026575208334236
    }, {
      "type" : "note",
      "tick" : 60240,
      "timeSeconds" : 80.1062735,
      "channel" : 0,
      "noteNumber" : 79,
      "noteName" : "G5",
      "velocity" : 80,
      "durationTicks" : 113,
      "durationSeconds" : 0.15026575208332815
    }, {
      "type" : "note",
      "tick" : 60360,
      "timeSeconds" : 80.26584775,
      "channel" : 0,
      "noteNumber" : 83,
      "noteName" : "B5",
      "velocity" : 80,
      "durationTicks" : 113,
      "durationSeconds" : 0.15026575208332815
    }, {
      "type" : "note",
      "tick" : 60000,
      "timeSeconds" : 79.787125,
      "channel" : 0,
      "noteNumber" : 86,
      "noteName" : "D6",
      "velocity" : 120,
      "durationTicks" : 479,
      "durationSeconds" : 0.6369672145833363
    }, {
      "type" : "note",
      "tick" : 60600,
      "timeSeconds" : 80.58499625,
      "channel" : 0,
      "noteNumber" : 76,
      "noteName" : "E5",
      "velocity" : 80,
      "durationTicks" : 113,
      "durationSeconds" : 0.15026575208332815
    }, {
      "type" : "note",
      "tick" : 60720,
      "timeSeconds" : 80.7445705,
      "channel" : 0,
      "noteNumber" : 79,
      "noteName" : "G5",
      "velocity" : 80,
      "durationTicks" : 113,
      "durationSeconds" : 0.15026575208334236
    }, {
      "type" : "note",
      "tick" : 60840,
      "timeSeconds" : 80.90414475,
      "channel" : 0,
      "noteNumber" : 83,
      "noteName" : "B5",
      "velocity" : 80,
      "durationTicks" : 113,
      "durationSeconds" : 0.15026575208332815
    }, {
      "type" : "note",
      "tick" : 60480,
      "timeSeconds" : 80.425422,
      "channel" : 0,
      "noteNumber" : 88,
      "noteName" : "E6",
      "velocity" : 120,
      "durationTicks" : 479,
      "durationSeconds" : 0.6369672145833363
    }, {
      "type" : "note",
      "tick" : 61080,
      "timeSeconds" : 81.22329325,
      "channel" : 0,
      "noteNumber" : 88,
      "noteName" : "E6",
      "velocity" : 80,
      "durationTicks" : 113,
      "durationSeconds" : 0.15026575208334236
    }, {
      "type" : "note",
      "tick" : 61200,
      "timeSeconds" : 81.3828675,
      "channel" : 0,
      "noteNumber" : 83,
      "noteName" : "B5",
      "velocity" : 80,
      "durationTicks" : 113,
      "durationSeconds" : 0.15026575208332815
    }, {
      "type" : "note",
      "tick" : 61320,
      "timeSeconds" : 81.54244175,
      "channel" : 0,
      "noteNumber" : 79,
      "noteName" : "G5",
      "velocity" : 80,
      "durationTicks" : 113,
      "durationSeconds" : 0.15026575208334236
    }, {
      "type" : "note",
      "tick" : 60960,
      "timeSeconds" : 81.063719,
      "channel" : 0,
      "noteNumber" : 86,
      "noteName" : "D6",
      "velocity" : 120,
      "durationTicks" : 479,
      "durationSeconds" : 0.6369672145833221
    }, {
      "type" : "note",
      "tick" : 61560,
      "timeSeconds" : 81.86159025,
      "channel" : 0,
      "noteNumber" : 81,
      "noteName" : "A5",
      "velocity" : 80,
      "durationTicks" : 113,
      "durationSeconds" : 0.15026575208332815
    }, {
      "type" : "note",
      "tick" : 61680,
      "timeSeconds" : 82.0211645,
      "channel" : 0,
      "noteNumber" : 83,
      "noteName" : "B5",
      "velocity" : 80,
      "durationTicks" : 113,
      "durationSeconds" : 0.15026575208334236
    }, {
      "type" : "note",
      "tick" : 61800,
      "timeSeconds" : 82.18073875,
      "channel" : 0,
      "noteNumber" : 76,
      "noteName" : "E5",
      "velocity" : 80,
      "durationTicks" : 113,
      "durationSeconds" : 0.15026575208332815
    }, {
      "type" : "note",
      "tick" : 61440,
      "timeSeconds" : 81.702016,
      "channel" : 0,
      "noteNumber" : 88,
      "noteName" : "E6",
      "velocity" : 120,
      "durationTicks" : 479,
      "durationSeconds" : 0.6369672145833363
    }, {
      "type" : "note",
      "tick" : 59040,
      "timeSeconds" : 78.510531,
      "channel" : 1,
      "noteNumber" : 43,
      "noteName" : "G2",
      "velocity" : 80,
      "durationTicks" : 2880,
      "durationSeconds" : 3.8297819999999945
    }, {
      "type" : "note",
      "tick" : 59040,
      "timeSeconds" : 78.510531,
      "channel" : 1,
      "noteNumber" : 62,
      "noteName" : "D4",
      "velocity" : 80,
      "durationTicks" : 2880,
      "durationSeconds" : 3.8297819999999945
    }, {
      "type" : "note",
      "tick" : 59040,
      "timeSeconds" : 78.510531,
      "channel" : 1,
      "noteNumber" : 64,
      "noteName" : "E4",
      "velocity" : 80,
      "durationTicks" : 2880,
      "durationSeconds" : 3.8297819999999945
    }, {
      "type" : "note",
      "tick" : 59040,
      "timeSeconds" : 78.510531,
      "channel" : 1,
      "noteNumber" : 67,
      "noteName" : "G4",
      "velocity" : 80,
      "durationTicks" : 2880,
      "durationSeconds" : 3.8297819999999945
    }, {
      "type" : "note",
      "tick" : 59040,
      "timeSeconds" : 78.510531,
      "channel" : 1,
      "noteNumber" : 71,
      "noteName" : "B4",
      "velocity" : 80,
      "durationTicks" : 2880,
      "durationSeconds" : 3.8297819999999945
    }, {
      "type" : "note",
      "tick" : 62040,
      "timeSeconds" : 82.49988725,
      "channel" : 0,
      "noteNumber" : 71,
      "noteName" : "B4",
      "velocity" : 96,
      "durationTicks" : 113,
      "durationSeconds" : 0.15026575208332815
    }, {
      "type" : "note",
      "tick" : 61920,
      "timeSeconds" : 82.340313,
      "channel" : 0,
      "noteNumber" : 69,
      "noteName" : "A4",
      "velocity" : 127,
      "durationTicks" : 239,
      "durationSeconds" : 0.3178187145833391
    }, {
      "type" : "note",
      "tick" : 62280,
      "timeSeconds" : 82.81903575,
      "channel" : 0,
      "noteNumber" : 71,
      "noteName" : "B4",
      "velocity" : 96,
      "durationTicks" : 113,
      "durationSeconds" : 0.15026575208334236
    }, {
      "type" : "note",
      "tick" : 62400,
      "timeSeconds" : 82.97861,
      "channel" : 0,
      "noteNumber" : 69,
      "noteName" : "A4",
      "velocity" : 96,
      "durationTicks" : 113,
      "durationSeconds" : 0.15026575208332815
    }, {
      "type" : "note",
      "tick" : 62520,
      "timeSeconds" : 83.13818425,
      "channel" : 0,
      "noteNumber" : 64,
      "noteName" : "E4",
      "velocity" : 96,
      "durationTicks" : 113,
      "durationSeconds" : 0.15026575208334236
    }, {
      "type" : "note",
      "tick" : 62160,
      "timeSeconds" : 82.6594615,
      "channel" : 0,
      "noteNumber" : 76,
      "noteName" : "E5",
      "velocity" : 127,
      "durationTicks" : 479,
      "durationSeconds" : 0.6369672145833221
    }, {
      "type" : "note",
      "tick" : 62760,
      "timeSeconds" : 83.45733275,
      "channel" : 0,
      "noteNumber" : 71,
      "noteName" : "B4",
      "velocity" : 96,
      "durationTicks" : 113,
      "durationSeconds" : 0.15026575208332815
    }, {
      "type" : "note",
      "tick" : 62640,
      "timeSeconds" : 83.2977585,
      "channel" : 0,
      "noteNumber" : 69,
      "noteName" : "A4",
      "velocity" : 127,
      "durationTicks" : 239,
      "durationSeconds" : 0.3178187145833391
    }, {
      "type" : "note",
      "tick" : 63000,
      "timeSeconds" : 83.77648125,
      "channel" : 0,
      "noteNumber" : 71,
      "noteName" : "B4",
      "velocity" : 96,
      "durationTicks" : 113,
      "durationSeconds" : 0.15026575208332815
    }, {
      "type" : "note",
      "tick" : 63120,
      "timeSeconds" : 83.9360555,
      "channel" : 0,
      "noteNumber" : 69,
      "noteName" : "A4",
      "velocity" : 96,
      "durationTicks" : 113,
      "durationSeconds" : 0.15026575208334236
    }, {
      "type" : "note",
      "tick" : 63240,
      "timeSeconds" : 84.09562975,
      "channel" : 0,
      "noteNumber" : 64,
      "noteName" : "E4",
      "velocity" : 96,
      "durationTicks" : 113,
      "durationSeconds" : 0.15026575208332815
    }, {
      "type" : "note",
      "tick" : 62880,
      "timeSeconds" : 83.616907,
      "channel" : 0,
      "noteNumber" : 76,
      "noteName" : "E5",
      "velocity" : 127,
      "durationTicks" : 479,
      "durationSeconds" : 0.6369672145833363
    }, {
      "type" : "note",
      "tick" : 63480,
      "timeSeconds" : 84.41477825,
      "channel" : 0,
      "noteNumber" : 71,
      "noteName" : "B4",
      "velocity" : 96,
      "durationTicks" : 113,
      "durationSeconds" : 0.15026575208334236
    }, {
      "type" : "note",
      "tick" : 63360,
      "timeSeconds" : 84.255204,
      "channel" : 0,
      "noteNumber" : 69,
      "noteName" : "A4",
      "velocity" : 127,
      "durationTicks" : 239,
      "durationSeconds" : 0.3178187145833249
    }, {
      "type" : "note",
      "tick" : 63720,
      "timeSeconds" : 84.73392675,
      "channel" : 0,
      "noteNumber" : 71,
      "noteName" : "B4",
      "velocity" : 96,
      "durationTicks" : 113,
      "durationSeconds" : 0.15026575208334236
    }, {
      "type" : "note",
      "tick" : 63840,
      "timeSeconds" : 84.893501,
      "channel" : 0,
      "noteNumber" : 69,
      "noteName" : "A4",
      "velocity" : 96,
      "durationTicks" : 113,
      "durationSeconds" : 0.15026575208332815
    }, {
      "type" : "note",
      "tick" : 63960,
      "timeSeconds" : 85.05307525,
      "channel" : 0,
      "noteNumber" : 64,
      "noteName" : "E4",
      "velocity" : 96,
      "durationTicks" : 113,
      "durationSeconds" : 0.15026575208332815
    }, {
      "type" : "note",
      "tick" : 63600,
      "timeSeconds" : 84.5743525,
      "channel" : 0,
      "noteNumber" : 76,
      "noteName" : "E5",
      "velocity" : 127,
      "durationTicks" : 479,
      "durationSeconds" : 0.6369672145833363
    }, {
      "type" : "note",
      "tick" : 64200,
      "timeSeconds" : 85.37222375,
      "channel" : 0,
      "noteNumber" : 71,
      "noteName" : "B4",
      "velocity" : 96,
      "durationTicks" : 113,
      "durationSeconds" : 0.15026575208332815
    }, {
      "type" : "note",
      "tick" : 64080,
      "timeSeconds" : 85.2126495,
      "channel" : 0,
      "noteNumber" : 69,
      "noteName" : "A4",
      "velocity" : 127,
      "durationTicks" : 239,
      "durationSeconds" : 0.3178187145833391
    }, {
      "type" : "note",
      "tick" : 64440,
      "timeSeconds" : 85.69137225,
      "channel" : 0,
      "noteNumber" : 71,
      "noteName" : "B4",
      "velocity" : 96,
      "durationTicks" : 113,
      "durationSeconds" : 0.15026575208332815
    }, {
      "type" : "note",
      "tick" : 64560,
      "timeSeconds" : 85.8509465,
      "channel" : 0,
      "noteNumber" : 69,
      "noteName" : "A4",
      "velocity" : 96,
      "durationTicks" : 113,
      "durationSeconds" : 0.15026575208332815
    }, {
      "type" : "note",
      "tick" : 64680,
      "timeSeconds" : 86.01052075,
      "channel" : 0,
      "noteNumber" : 64,
      "noteName" : "E4",
      "velocity" : 96,
      "durationTicks" : 113,
      "durationSeconds" : 0.15026575208334236
    }, {
      "type" : "note",
      "tick" : 64320,
      "timeSeconds" : 85.531798,
      "channel" : 0,
      "noteNumber" : 76,
      "noteName" : "E5",
      "velocity" : 127,
      "durationTicks" : 479,
      "durationSeconds" : 0.6369672145833363
    }, {
      "type" : "note",
      "tick" : 61920,
      "timeSeconds" : 82.340313,
      "channel" : 1,
      "noteNumber" : 41,
      "noteName" : "F2",
      "velocity" : 96,
      "durationTicks" : 2880,
      "durationSeconds" : 3.8297820000000087
    }, {
      "type" : "note",
      "tick" : 61920,
      "timeSeconds" : 82.340313,
      "channel" : 1,
      "noteNumber" : 60,
      "noteName" : "C4",
      "velocity" : 96,
      "durationTicks" : 2880,
      "durationSeconds" : 3.8297820000000087
    }, {
      "type" : "note",
      "tick" : 61920,
      "timeSeconds" : 82.340313,
      "channel" : 1,
      "noteNumber" : 64,
      "noteName" : "E4",
      "velocity" : 96,
      "durationTicks" : 2880,
      "durationSeconds" : 3.8297820000000087
    }, {
      "type" : "note",
      "tick" : 61920,
      "timeSeconds" : 82.340313,
      "channel" : 1,
      "noteNumber" : 65,
      "noteName" : "F4",
      "velocity" : 96,
      "durationTicks" : 2880,
      "durationSeconds" : 3.8297820000000087
    }, {
      "type" : "note",
      "tick" : 61920,
      "timeSeconds" : 82.340313,
      "channel" : 1,
      "noteNumber" : 69,
      "noteName" : "A4",
      "velocity" : 96,
      "durationTicks" : 2880,
      "durationSeconds" : 3.8297820000000087
    }, {
      "type" : "note",
      "tick" : 64920,
      "timeSeconds" : 86.32966925,
      "channel" : 0,
      "noteNumber" : 74,
      "noteName" : "D5",
      "velocity" : 96,
      "durationTicks" : 113,
      "durationSeconds" : 0.15026575208334236
    }, {
      "type" : "note",
      "tick" : 64800,
      "timeSeconds" : 86.170095,
      "channel" : 0,
      "noteNumber" : 71,
      "noteName" : "B4",
      "velocity" : 127,
      "durationTicks" : 239,
      "durationSeconds" : 0.3178187145833249
    }, {
      "type" : "note",
      "tick" : 65160,
      "timeSeconds" : 86.64881775,
      "channel" : 0,
      "noteNumber" : 74,
      "noteName" : "D5",
      "velocity" : 96,
      "durationTicks" : 113,
      "durationSeconds" : 0.15026575208332815
    }, {
      "type" : "note",
      "tick" : 65280,
      "timeSeconds" : 86.808392,
      "channel" : 0,
      "noteNumber" : 71,
      "noteName" : "B4",
      "velocity" : 96,
      "durationTicks" : 113,
      "durationSeconds" : 0.15026575208334236
    }, {
      "type" : "note",
      "tick" : 65400,
      "timeSeconds" : 86.96796625,
      "channel" : 0,
      "noteNumber" : 64,
      "noteName" : "E4",
      "velocity" : 96,
      "durationTicks" : 113,
      "durationSeconds" : 0.15026575208332815
    }, {
      "type" : "note",
      "tick" : 65040,
      "timeSeconds" : 86.4892435,
      "channel" : 0,
      "noteNumber" : 76,
      "noteName" : "E5",
      "velocity" : 127,
      "durationTicks" : 479,
      "durationSeconds" : 0.6369672145833363
    }, {
      "type" : "note",
      "tick" : 65520,
      "timeSeconds" : 87.1275405,
      "channel" : 0,
      "noteNumber" : 71,
      "noteName" : "B4",
      "velocity" : 127,
      "durationTicks" : 120,
      "durationSeconds" : 0.1595742500000057
    }, {
      "type" : "note",
      "tick" : 64800,
      "timeSeconds" : 86.170095,
      "channel" : 1,
      "noteNumber" : 71,
      "noteName" : "B4",
      "velocity" : 96,
      "durationTicks" : 840,
      "durationSeconds" : 1.1170197499999972
    }, {
      "type" : "note",
      "tick" : 65640,
      "timeSeconds" : 87.28711475,
      "channel" : 0,
      "noteNumber" : 71,
      "noteName" : "B4",
      "velocity" : 96,
      "durationTicks" : 119,
      "durationSeconds" : 0.1582444645833334
    }, {
      "type" : "note",
      "tick" : 65880,
      "timeSeconds" : 87.60626325,
      "channel" : 0,
      "noteNumber" : 74,
      "noteName" : "D5",
      "velocity" : 96,
      "durationTicks" : 113,
      "durationSeconds" : 0.15026575208334236
    }, {
      "type" : "note",
      "tick" : 66000,
      "timeSeconds" : 87.7658375,
      "channel" : 0,
      "noteNumber" : 71,
      "noteName" : "B4",
      "velocity" : 96,
      "durationTicks" : 113,
      "durationSeconds" : 0.15026575208332815
    }, {
      "type" : "note",
      "tick" : 66120,
      "timeSeconds" : 87.92541175,
      "channel" : 0,
      "noteNumber" : 67,
      "noteName" : "G4",
      "velocity" : 96,
      "durationTicks" : 113,
      "durationSeconds" : 0.15026575208334236
    }, {
      "type" : "note",
      "tick" : 65760,
      "timeSeconds" : 87.446689,
      "channel" : 0,
      "noteNumber" : 76,
      "noteName" : "E5",
      "velocity" : 127,
      "durationTicks" : 479,
      "durationSeconds" : 0.6369672145833221
    }, {
      "type" : "note",
      "tick" : 66360,
      "timeSeconds" : 88.24456025,
      "channel" : 0,
      "noteNumber" : 74,
      "noteName" : "D5",
      "velocity" : 96,
      "durationTicks" : 113,
      "durationSeconds" : 0.15026575208332815
    }, {
      "type" : "note",
      "tick" : 66240,
      "timeSeconds" : 88.084986,
      "channel" : 0,
      "noteNumber" : 71,
      "noteName" : "B4",
      "velocity" : 127,
      "durationTicks" : 239,
      "durationSeconds" : 0.3178187145833391
    }, {
      "type" : "note",
      "tick" : 66600,
      "timeSeconds" : 88.56370875,
      "channel" : 0,
      "noteNumber" : 74,
      "noteName" : "D5",
      "velocity" : 96,
      "durationTicks" : 113,
      "durationSeconds" : 0.15026575208332815
    }, {
      "type" : "note",
      "tick" : 66720,
      "timeSeconds" : 88.723283,
      "channel" : 0,
      "noteNumber" : 71,
      "noteName" : "B4",
      "velocity" : 96,
      "durationTicks" : 113,
      "durationSeconds" : 0.15026575208334236
    }, {
      "type" : "note",
      "tick" : 66840,
      "timeSeconds" : 88.88285725,
      "channel" : 0,
      "noteNumber" : 64,
      "noteName" : "E4",
      "velocity" : 96,
      "durationTicks" : 113,
      "durationSeconds" : 0.15026575208332815
    }, {
      "type" : "note",
      "tick" : 66480,
      "timeSeconds" : 88.4041345,
      "channel" : 0,
      "noteNumber" : 76,
      "noteName" : "E5",
      "velocity" : 127,
      "durationTicks" : 479,
      "durationSeconds" : 0.6369672145833363
    }, {
      "type" : "note",
      "tick" : 66960,
      "timeSeconds" : 89.0424315,
      "channel" : 0,
      "noteNumber" : 71,
      "noteName" : "B4",
      "velocity" : 127,
      "durationTicks" : 120,
      "durationSeconds" : 0.15957424999999148
    }, {
      "type" : "note",
      "tick" : 67080,
      "timeSeconds" : 89.20200575,
      "channel" : 0,
      "noteNumber" : 71,
      "noteName" : "B4",
      "velocity" : 96,
      "durationTicks" : 119,
      "durationSeconds" : 0.1582444645833334
    }, {
      "type" : "note",
      "tick" : 67320,
      "timeSeconds" : 89.52115425,
      "channel" : 0,
      "noteNumber" : 74,
      "noteName" : "D5",
      "velocity" : 96,
      "durationTicks" : 113,
      "durationSeconds" : 0.15026575208334236
    }, {
      "type" : "note",
      "tick" : 67440,
      "timeSeconds" : 89.6807285,
      "channel" : 0,
      "noteNumber" : 71,
      "noteName" : "B4",
      "velocity" : 96,
      "durationTicks" : 113,
      "durationSeconds" : 0.15026575208332815
    }, {
      "type" : "note",
      "tick" : 67560,
      "timeSeconds" : 89.84030275,
      "channel" : 0,
      "noteNumber" : 67,
      "noteName" : "G4",
      "velocity" : 96,
      "durationTicks" : 113,
      "durationSeconds" : 0.15026575208332815
    }, {
      "type" : "note",
      "tick" : 67200,
      "timeSeconds" : 89.36158,
      "channel" : 0,
      "noteNumber" : 76,
      "noteName" : "E5",
      "velocity" : 127,
      "durationTicks" : 479,
      "durationSeconds" : 0.6369672145833363
    }, {
      "type" : "note",
      "tick" : 64800,
      "timeSeconds" : 86.170095,
      "channel" : 1,
      "noteNumber" : 43,
      "noteName" : "G2",
      "velocity" : 96,
      "durationTicks" : 2880,
      "durationSeconds" : 3.8297819999999945
    }, {
      "type" : "note",
      "tick" : 64800,
      "timeSeconds" : 86.170095,
      "channel" : 1,
      "noteNumber" : 64,
      "noteName" : "E4",
      "velocity" : 96,
      "durationTicks" : 2880,
      "durationSeconds" : 3.8297819999999945
    }, {
      "type" : "note",
      "tick" : 64800,
      "timeSeconds" : 86.170095,
      "channel" : 1,
      "noteNumber" : 67,
      "noteName" : "G4",
      "velocity" : 96,
      "durationTicks" : 2880,
      "durationSeconds" : 3.8297819999999945
    }, {
      "type" : "note",
      "tick" : 67800,
      "timeSeconds" : 90.15945125,
      "channel" : 0,
      "noteNumber" : 76,
      "noteName" : "E5",
      "velocity" : 96,
      "durationTicks" : 113,
      "durationSeconds" : 0.15026575208332815
    }, {
      "type" : "note",
      "tick" : 67680,
      "timeSeconds" : 89.999877,
      "channel" : 0,
      "noteNumber" : 72,
      "noteName" : "C5",
      "velocity" : 127,
      "durationTicks" : 239,
      "durationSeconds" : 0.3178187145833391
    }, {
      "type" : "note",
      "tick" : 67920,
      "timeSeconds" : 90.3190255,
      "channel" : 0,
      "noteNumber" : 76,
      "noteName" : "E5",
      "velocity" : 127,
      "durationTicks" : 120,
      "durationSeconds" : 0.1595742500000057
    }, {
      "type" : "note",
      "tick" : 68160,
      "timeSeconds" : 90.638174,
      "channel" : 0,
      "noteNumber" : 72,
      "noteName" : "C5",
      "velocity" : 96,
      "durationTicks" : 113,
      "durationSeconds" : 0.15026575208332815
    }, {
      "type" : "note",
      "tick" : 68280,
      "timeSeconds" : 90.79774825,
      "channel" : 0,
      "noteNumber" : 69,
      "noteName" : "A4",
      "velocity" : 96,
      "durationTicks" : 113,
      "durationSeconds" : 0.15026575208334236
    }, {
      "type" : "note",
      "tick" : 68040,
      "timeSeconds" : 90.47859975,
      "channel" : 0,
      "noteNumber" : 76,
      "noteName" : "E5",
      "velocity" : 96,
      "durationTicks" : 359,
      "durationSeconds" : 0.4773929645833306
    }, {
      "type" : "note",
      "tick" : 68520,
      "timeSeconds" : 91.11689675,
      "channel" : 0,
      "noteNumber" : 76,
      "noteName" : "E5",
      "velocity" : 96,
      "durationTicks" : 113,
      "durationSeconds" : 0.15026575208334236
    }, {
      "type" : "note",
      "tick" : 68400,
      "timeSeconds" : 90.9573225,
      "channel" : 0,
      "noteNumber" : 72,
      "noteName" : "C5",
      "velocity" : 127,
      "durationTicks" : 239,
      "durationSeconds" : 0.3178187145833249
    }, {
      "type" : "note",
      "tick" : 68640,
      "timeSeconds" : 91.276471,
      "channel" : 0,
      "noteNumber" : 76,
      "noteName" : "E5",
      "velocity" : 127,
      "durationTicks" : 120,
      "durationSeconds" : 0.1595742500000057
    }, {
      "type" : "note",
      "tick" : 68880,
      "timeSeconds" : 91.5956195,
      "channel" : 0,
      "noteNumber" : 72,
      "noteName" : "C5",
      "velocity" : 96,
      "durationTicks" : 113,
      "durationSeconds" : 0.15026575208334236
    }, {
      "type" : "note",
      "tick" : 69000,
      "timeSeconds" : 91.75519375,
      "channel" : 0,
      "noteNumber" : 69,
      "noteName" : "A4",
      "velocity" : 96,
      "durationTicks" : 113,
      "durationSeconds" : 0.15026575208332815
    }, {
      "type" : "note",
      "tick" : 68760,
      "timeSeconds" : 91.43604525,
      "channel" : 0,
      "noteNumber" : 76,
      "noteName" : "E5",
      "velocity" : 96,
      "durationTicks" : 359,
      "durationSeconds" : 0.4773929645833306
    }, {
      "type" : "note",
      "tick" : 69240,
      "timeSeconds" : 92.07434225,
      "channel" : 0,
      "noteNumber" : 76,
      "noteName" : "E5",
      "velocity" : 96,
      "durationTicks" : 113,
      "durationSeconds" : 0.15026575208332815
    }, {
      "type" : "note",
      "tick" : 69120,
      "timeSeconds" : 91.914768,
      "channel" : 0,
      "noteNumber" : 72,
      "noteName" : "C5",
      "velocity" : 127,
      "durationTicks" : 239,
      "durationSeconds" : 0.3178187145833391
    }, {
      "type" : "note",
      "tick" : 69360,
      "timeSeconds" : 92.2339165,
      "channel" : 0,
      "noteNumber" : 76,
      "noteName" : "E5",
      "velocity" : 127,
      "durationTicks" : 120,
      "durationSeconds" : 0.15957424999999148
    }, {
      "type" : "note",
      "tick" : 69600,
      "timeSeconds" : 92.553065,
      "channel" : 0,
      "noteNumber" : 72,
      "noteName" : "C5",
      "velocity" : 96,
      "durationTicks" : 113,
      "durationSeconds" : 0.15026575208332815
    }, {
      "type" : "note",
      "tick" : 69720,
      "timeSeconds" : 92.71263925,
      "channel" : 0,
      "noteNumber" : 69,
      "noteName" : "A4",
      "velocity" : 96,
      "durationTicks" : 113,
      "durationSeconds" : 0.15026575208334236
    }, {
      "type" : "note",
      "tick" : 69480,
      "timeSeconds" : 92.39349075,
      "channel" : 0,
      "noteNumber" : 76,
      "noteName" : "E5",
      "velocity" : 96,
      "durationTicks" : 359,
      "durationSeconds" : 0.4773929645833306
    }, {
      "type" : "note",
      "tick" : 69960,
      "timeSeconds" : 93.03178775,
      "channel" : 0,
      "noteNumber" : 76,
      "noteName" : "E5",
      "velocity" : 96,
      "durationTicks" : 113,
      "durationSeconds" : 0.15026575208332815
    }, {
      "type" : "note",
      "tick" : 69840,
      "timeSeconds" : 92.8722135,
      "channel" : 0,
      "noteNumber" : 72,
      "noteName" : "C5",
      "velocity" : 127,
      "durationTicks" : 239,
      "durationSeconds" : 0.3178187145833391
    }, {
      "type" : "note",
      "tick" : 70080,
      "timeSeconds" : 93.191362,
      "channel" : 0,
      "noteNumber" : 76,
      "noteName" : "E5",
      "velocity" : 127,
      "durationTicks" : 120,
      "durationSeconds" : 0.1595742500000057
    }, {
      "type" : "note",
      "tick" : 70320,
      "timeSeconds" : 93.5105105,
      "channel" : 0,
      "noteNumber" : 72,
      "noteName" : "C5",
      "velocity" : 96,
      "durationTicks" : 113,
      "durationSeconds" : 0.15026575208334236
    }, {
      "type" : "note",
      "tick" : 70440,
      "timeSeconds" : 93.67008475,
      "channel" : 0,
      "noteNumber" : 69,
      "noteName" : "A4",
      "velocity" : 96,
      "durationTicks" : 113,
      "durationSeconds" : 0.15026575208332815
    }, {
      "type" : "note",
      "tick" : 70200,
      "timeSeconds" : 93.35093625,
      "channel" : 0,
      "noteNumber" : 76,
      "noteName" : "E5",
      "velocity" : 96,
      "durationTicks" : 359,
      "durationSeconds" : 0.4773929645833306
    }, {
      "type" : "note",
      "tick" : 67680,
      "timeSeconds" : 89.999877,
      "channel" : 1,
      "noteNumber" : 45,
      "noteName" : "A2",
      "velocity" : 96,
      "durationTicks" : 2880,
      "durationSeconds" : 3.8297820000000087
    }, {
      "type" : "note",
      "tick" : 67680,
      "timeSeconds" : 89.999877,
      "channel" : 1,
      "noteNumber" : 60,
      "noteName" : "C4",
      "velocity" : 96,
      "durationTicks" : 2880,
      "durationSeconds" : 3.8297820000000087
    }, {
      "type" : "note",
      "tick" : 67680,
      "timeSeconds" : 89.999877,
      "channel" : 1,
      "noteNumber" : 64,
      "noteName" : "E4",
      "velocity" : 96,
      "durationTicks" : 2880,
      "durationSeconds" : 3.8297820000000087
    }, {
      "type" : "note",
      "tick" : 67680,
      "timeSeconds" : 89.999877,
      "channel" : 1,
      "noteNumber" : 69,
      "noteName" : "A4",
      "velocity" : 96,
      "durationTicks" : 2880,
      "durationSeconds" : 3.8297820000000087
    }, {
      "type" : "note",
      "tick" : 70680,
      "timeSeconds" : 93.98923325,
      "channel" : 0,
      "noteNumber" : 67,
      "noteName" : "G4",
      "velocity" : 96,
      "durationTicks" : 113,
      "durationSeconds" : 0.15026575208334236
    }, {
      "type" : "note",
      "tick" : 70560,
      "timeSeconds" : 93.829659,
      "channel" : 0,
      "noteNumber" : 74,
      "noteName" : "D5",
      "velocity" : 127,
      "durationTicks" : 239,
      "durationSeconds" : 0.3178187145833249
    }, {
      "type" : "note",
      "tick" : 70920,
      "timeSeconds" : 94.30838175,
      "channel" : 0,
      "noteNumber" : 74,
      "noteName" : "D5",
      "velocity" : 96,
      "durationTicks" : 113,
      "durationSeconds" : 0.15026575208334236
    }, {
      "type" : "note",
      "tick" : 71040,
      "timeSeconds" : 94.467956,
      "channel" : 0,
      "noteNumber" : 67,
      "noteName" : "G4",
      "velocity" : 96,
      "durationTicks" : 113,
      "durationSeconds" : 0.15026575208332815
    }, {
      "type" : "note",
      "tick" : 71160,
      "timeSeconds" : 94.62753025,
      "channel" : 0,
      "noteNumber" : 62,
      "noteName" : "D4",
      "velocity" : 96,
      "durationTicks" : 113,
      "durationSeconds" : 0.15026575208332815
    }, {
      "type" : "note",
      "tick" : 70800,
      "timeSeconds" : 94.1488075,
      "channel" : 0,
      "noteNumber" : 76,
      "noteName" : "E5",
      "velocity" : 127,
      "durationTicks" : 479,
      "durationSeconds" : 0.6369672145833363
    }, {
      "type" : "note",
      "tick" : 71400,
      "timeSeconds" : 94.94667875,
      "channel" : 0,
      "noteNumber" : 67,
      "noteName" : "G4",
      "velocity" : 96,
      "durationTicks" : 113,
      "durationSeconds" : 0.15026575208332815
    }, {
      "type" : "note",
      "tick" : 71280,
      "timeSeconds" : 94.7871045,
      "channel" : 0,
      "noteNumber" : 74,
      "noteName" : "D5",
      "velocity" : 127,
      "durationTicks" : 239,
      "durationSeconds" : 0.3178187145833391
    }, {
      "type" : "note",
      "tick" : 71520,
      "timeSeconds" : 95.106253,
      "channel" : 0,
      "noteNumber" : 76,
      "noteName" : "E5",
      "velocity" : 127,
      "durationTicks" : 120,
      "durationSeconds" : 0.1595742500000057
    }, {
      "type" : "note",
      "tick" : 71760,
      "timeSeconds" : 95.4254015,
      "channel" : 0,
      "noteNumber" : 74,
      "noteName" : "D5",
      "velocity" : 96,
      "durationTicks" : 113,
      "durationSeconds" : 0.15026575208332815
    }, {
      "type" : "note",
      "tick" : 71880,
      "timeSeconds" : 95.58497575,
      "channel" : 0,
      "noteNumber" : 67,
      "noteName" : "G4",
      "velocity" : 96,
      "durationTicks" : 113,
      "durationSeconds" : 0.15026575208332815
    }, {
      "type" : "note",
      "tick" : 71640,
      "timeSeconds" : 95.26582725,
      "channel" : 0,
      "noteNumber" : 76,
      "noteName" : "E5",
      "velocity" : 96,
      "durationTicks" : 359,
      "durationSeconds" : 0.4773929645833306
    }, {
      "type" : "note",
      "tick" : 72120,
      "timeSeconds" : 95.90412425,
      "channel" : 0,
      "noteNumber" : 67,
      "noteName" : "G4",
      "velocity" : 96,
      "durationTicks" : 113,
      "durationSeconds" : 0.15026575208334236
    }, {
      "type" : "note",
      "tick" : 72000,
      "timeSeconds" : 95.74455,
      "channel" : 0,
      "noteNumber" : 74,
      "noteName" : "D5",
      "velocity" : 127,
      "durationTicks" : 239,
      "durationSeconds" : 0.3178187145833249
    }, {
      "type" : "note",
      "tick" : 72360,
      "timeSeconds" : 96.22327275,
      "channel" : 0,
      "noteNumber" : 74,
      "noteName" : "D5",
      "velocity" : 96,
      "durationTicks" : 113,
      "durationSeconds" : 0.15026575208332815
    }, {
      "type" : "note",
      "tick" : 72480,
      "timeSeconds" : 96.382847,
      "channel" : 0,
      "noteNumber" : 67,
      "noteName" : "G4",
      "velocity" : 96,
      "durationTicks" : 113,
      "durationSeconds" : 0.15026575208332815
    }, {
      "type" : "note",
      "tick" : 72600,
      "timeSeconds" : 96.54242125,
      "channel" : 0,
      "noteNumber" : 62,
      "noteName" : "D4",
      "velocity" : 96,
      "durationTicks" : 113,
      "durationSeconds" : 0.15026575208332815
    }, {
      "type" : "note",
      "tick" : 72240,
      "timeSeconds" : 96.0636985,
      "channel" : 0,
      "noteNumber" : 76,
      "noteName" : "E5",
      "velocity" : 127,
      "durationTicks" : 479,
      "durationSeconds" : 0.6369672145833363
    }, {
      "type" : "note",
      "tick" : 72840,
      "timeSeconds" : 96.86156975,
      "channel" : 0,
      "noteNumber" : 67,
      "noteName" : "G4",
      "velocity" : 96,
      "durationTicks" : 113,
      "durationSeconds" : 0.15026575208332815
    }, {
      "type" : "note",
      "tick" : 72720,
      "timeSeconds" : 96.7019955,
      "channel" : 0,
      "noteNumber" : 74,
      "noteName" : "D5",
      "velocity" : 127,
      "durationTicks" : 239,
      "durationSeconds" : 0.3178187145833391
    }, {
      "type" : "note",
      "tick" : 72960,
      "timeSeconds" : 97.021144,
      "channel" : 0,
      "noteNumber" : 76,
      "noteName" : "E5",
      "velocity" : 127,
      "durationTicks" : 120,
      "durationSeconds" : 0.15957424999999148
    }, {
      "type" : "note",
      "tick" : 73200,
      "timeSeconds" : 97.3402925,
      "channel" : 0,
      "noteNumber" : 74,
      "noteName" : "D5",
      "velocity" : 96,
      "durationTicks" : 113,
      "durationSeconds" : 0.15026575208332815
    }, {
      "type" : "note",
      "tick" : 73320,
      "timeSeconds" : 97.49986675,
      "channel" : 0,
      "noteNumber" : 67,
      "noteName" : "G4",
      "velocity" : 96,
      "durationTicks" : 113,
      "durationSeconds" : 0.15026575208334236
    }, {
      "type" : "note",
      "tick" : 73080,
      "timeSeconds" : 97.18071825,
      "channel" : 0,
      "noteNumber" : 76,
      "noteName" : "E5",
      "velocity" : 96,
      "durationTicks" : 359,
      "durationSeconds" : 0.4773929645833306
    }, {
      "type" : "note",
      "tick" : 70560,
      "timeSeconds" : 93.829659,
      "channel" : 1,
      "noteNumber" : 43,
      "noteName" : "G2",
      "velocity" : 96,
      "durationTicks" : 2880,
      "durationSeconds" : 3.8297819999999945
    }, {
      "type" : "note",
      "tick" : 70560,
      "timeSeconds" : 93.829659,
      "channel" : 1,
      "noteNumber" : 62,
      "noteName" : "D4",
      "velocity" : 96,
      "durationTicks" : 2880,
      "durationSeconds" : 3.8297819999999945
    }, {
      "type" : "note",
      "tick" : 70560,
      "timeSeconds" : 93.829659,
      "channel" : 1,
      "noteNumber" : 64,
      "noteName" : "E4",
      "velocity" : 96,
      "durationTicks" : 2880,
      "durationSeconds" : 3.8297819999999945
    }, {
      "type" : "note",
      "tick" : 70560,
      "timeSeconds" : 93.829659,
      "channel" : 1,
      "noteNumber" : 67,
      "noteName" : "G4",
      "velocity" : 96,
      "durationTicks" : 2880,
      "durationSeconds" : 3.8297819999999945
    }, {
      "type" : "note",
      "tick" : 70560,
      "timeSeconds" : 93.829659,
      "channel" : 1,
      "noteNumber" : 71,
      "noteName" : "B4",
      "velocity" : 96,
      "durationTicks" : 2880,
      "durationSeconds" : 3.8297819999999945
    }, {
      "type" : "note",
      "tick" : 73560,
      "timeSeconds" : 97.81901525,
      "channel" : 0,
      "noteNumber" : 74,
      "noteName" : "D5",
      "velocity" : 112,
      "durationTicks" : 113,
      "durationSeconds" : 0.15026575208332815
    }, {
      "type" : "note",
      "tick" : 73680,
      "timeSeconds" : 97.9785895,
      "channel" : 0,
      "noteNumber" : 76,
      "noteName" : "E5",
      "velocity" : 112,
      "durationTicks" : 113,
      "durationSeconds" : 0.15026575208332815
    }, {
      "type" : "note",
      "tick" : 73800,
      "timeSeconds" : 98.13816375,
      "channel" : 0,
      "noteNumber" : 77,
      "noteName" : "F5",
      "velocity" : 112,
      "durationTicks" : 113,
      "durationSeconds" : 0.15026575208332815
    }, {
      "type" : "note",
      "tick" : 73440,
      "timeSeconds" : 97.659441,
      "channel" : 0,
      "noteNumber" : 81,
      "noteName" : "A5",
      "velocity" : 127,
      "durationTicks" : 479,
      "durationSeconds" : 0.6369672145833363
    }, {
      "type" : "note",
      "tick" : 74040,
      "timeSeconds" : 98.45731225,
      "channel" : 0,
      "noteNumber" : 74,
      "noteName" : "D5",
      "velocity" : 112,
      "durationTicks" : 113,
      "durationSeconds" : 0.15026575208332815
    }, {
      "type" : "note",
      "tick" : 74160,
      "timeSeconds" : 98.6168865,
      "channel" : 0,
      "noteNumber" : 76,
      "noteName" : "E5",
      "velocity" : 112,
      "durationTicks" : 113,
      "durationSeconds" : 0.15026575208332815
    }, {
      "type" : "note",
      "tick" : 74280,
      "timeSeconds" : 98.77646075,
      "channel" : 0,
      "noteNumber" : 72,
      "noteName" : "C5",
      "velocity" : 112,
      "durationTicks" : 113,
      "durationSeconds" : 0.15026575208332815
    }, {
      "type" : "note",
      "tick" : 73920,
      "timeSeconds" : 98.297738,
      "channel" : 0,
      "noteNumber" : 88,
      "noteName" : "E6",
      "velocity" : 127,
      "durationTicks" : 479,
      "durationSeconds" : 0.6369672145833363
    }, {
      "type" : "note",
      "tick" : 74520,
      "timeSeconds" : 99.09560925,
      "channel" : 0,
      "noteNumber" : 74,
      "noteName" : "D5",
      "velocity" : 112,
      "durationTicks" : 113,
      "durationSeconds" : 0.15026575208334236
    }, {
      "type" : "note",
      "tick" : 74640,
      "timeSeconds" : 99.2551835,
      "channel" : 0,
      "noteNumber" : 76,
      "noteName" : "E5",
      "velocity" : 112,
      "durationTicks" : 113,
      "durationSeconds" : 0.15026575208332815
    }, {
      "type" : "note",
      "tick" : 74760,
      "timeSeconds" : 99.41475775,
      "channel" : 0,
      "noteNumber" : 77,
      "noteName" : "F5",
      "velocity" : 112,
      "durationTicks" : 113,
      "durationSeconds" : 0.15026575208332815
    }, {
      "type" : "note",
      "tick" : 74400,
      "timeSeconds" : 98.936035,
      "channel" : 0,
      "noteNumber" : 81,
      "noteName" : "A5",
      "velocity" : 127,
      "durationTicks" : 479,
      "durationSeconds" : 0.6369672145833363
    }, {
      "type" : "note",
      "tick" : 75000,
      "timeSeconds" : 99.73390625,
      "channel" : 0,
      "noteNumber" : 74,
      "noteName" : "D5",
      "velocity" : 112,
      "durationTicks" : 113,
      "durationSeconds" : 0.15026575208332815
    }, {
      "type" : "note",
      "tick" : 75120,
      "timeSeconds" : 99.8934805,
      "channel" : 0,
      "noteNumber" : 76,
      "noteName" : "E5",
      "velocity" : 112,
      "durationTicks" : 113,
      "durationSeconds" : 0.15026575208334236
    }, {
      "type" : "note",
      "tick" : 75240,
      "timeSeconds" : 100.05305475,
      "channel" : 0,
      "noteNumber" : 77,
      "noteName" : "F5",
      "velocity" : 112,
      "durationTicks" : 113,
      "durationSeconds" : 0.15026575208332815
    }, {
      "type" : "note",
      "tick" : 74880,
      "timeSeconds" : 99.574332,
      "channel" : 0,
      "noteNumber" : 81,
      "noteName" : "A5",
      "velocity" : 127,
      "durationTicks" : 479,
      "durationSeconds" : 0.6369672145833363
    }, {
      "type" : "note",
      "tick" : 75480,
      "timeSeconds" : 100.37220325,
      "channel" : 0,
      "noteNumber" : 84,
      "noteName" : "C6",
      "velocity" : 112,
      "durationTicks" : 113,
      "durationSeconds" : 0.15026575208332815
    }, {
      "type" : "note",
      "tick" : 75600,
      "timeSeconds" : 100.5317775,
      "channel" : 0,
      "noteNumber" : 81,
      "noteName" : "A5",
      "velocity" : 112,
      "durationTicks" : 113,
      "durationSeconds" : 0.15026575208332815
    }, {
      "type" : "note",
      "tick" : 75720,
      "timeSeconds" : 100.69135175,
      "channel" : 0,
      "noteNumber" : 79,
      "noteName" : "G5",
      "velocity" : 112,
      "durationTicks" : 113,
      "durationSeconds" : 0.15026575208334236
    }, {
      "type" : "note",
      "tick" : 75360,
      "timeSeconds" : 100.212629,
      "channel" : 0,
      "noteNumber" : 88,
      "noteName" : "E6",
      "velocity" : 127,
      "durationTicks" : 479,
      "durationSeconds" : 0.6369672145833221
    }, {
      "type" : "note",
      "tick" : 75960,
      "timeSeconds" : 101.01050025,
      "channel" : 0,
      "noteNumber" : 74,
      "noteName" : "D5",
      "velocity" : 112,
      "durationTicks" : 113,
      "durationSeconds" : 0.15026575208332815
    }, {
      "type" : "note",
      "tick" : 76080,
      "timeSeconds" : 101.1700745,
      "channel" : 0,
      "noteNumber" : 76,
      "noteName" : "E5",
      "velocity" : 112,
      "durationTicks" : 113,
      "durationSeconds" : 0.15026575208332815
    }, {
      "type" : "note",
      "tick" : 76200,
      "timeSeconds" : 101.32964875,
      "channel" : 0,
      "noteNumber" : 77,
      "noteName" : "F5",
      "velocity" : 112,
      "durationTicks" : 113,
      "durationSeconds" : 0.15026575208332815
    }, {
      "type" : "note",
      "tick" : 75840,
      "timeSeconds" : 100.850926,
      "channel" : 0,
      "noteNumber" : 81,
      "noteName" : "A5",
      "velocity" : 127,
      "durationTicks" : 479,
      "durationSeconds" : 0.6369672145833363
    }, {
      "type" : "note",
      "tick" : 73440,
      "timeSeconds" : 97.659441,
      "channel" : 1,
      "noteNumber" : 41,
      "noteName" : "F2",
      "velocity" : 112,
      "durationTicks" : 2880,
      "durationSeconds" : 3.8297819999999945
    }, {
      "type" : "note",
      "tick" : 73440,
      "timeSeconds" : 97.659441,
      "channel" : 1,
      "noteNumber" : 60,
      "noteName" : "C4",
      "velocity" : 112,
      "durationTicks" : 2880,
      "durationSeconds" : 3.8297819999999945
    }, {
      "type" : "note",
      "tick" : 73440,
      "timeSeconds" : 97.659441,
      "channel" : 1,
      "noteNumber" : 64,
      "noteName" : "E4",
      "velocity" : 112,
      "durationTicks" : 2880,
      "durationSeconds" : 3.8297819999999945
    }, {
      "type" : "note",
      "tick" : 73440,
      "timeSeconds" : 97.659441,
      "channel" : 1,
      "noteNumber" : 65,
      "noteName" : "F4",
      "velocity" : 112,
      "durationTicks" : 2880,
      "durationSeconds" : 3.8297819999999945
    }, {
      "type" : "note",
      "tick" : 73440,
      "timeSeconds" : 97.659441,
      "channel" : 1,
      "noteNumber" : 69,
      "noteName" : "A4",
      "velocity" : 112,
      "durationTicks" : 2880,
      "durationSeconds" : 3.8297819999999945
    }, {
      "type" : "note",
      "tick" : 76440,
      "timeSeconds" : 101.64879725,
      "channel" : 0,
      "noteNumber" : 74,
      "noteName" : "D5",
      "velocity" : 112,
      "durationTicks" : 113,
      "durationSeconds" : 0.15026575208332815
    }, {
      "type" : "note",
      "tick" : 76560,
      "timeSeconds" : 101.8083715,
      "channel" : 0,
      "noteNumber" : 76,
      "noteName" : "E5",
      "velocity" : 112,
      "durationTicks" : 113,
      "durationSeconds" : 0.15026575208332815
    }, {
      "type" : "note",
      "tick" : 76680,
      "timeSeconds" : 101.96794575,
      "channel" : 0,
      "noteNumber" : 79,
      "noteName" : "G5",
      "velocity" : 112,
      "durationTicks" : 113,
      "durationSeconds" : 0.15026575208332815
    }, {
      "type" : "note",
      "tick" : 76320,
      "timeSeconds" : 101.489223,
      "channel" : 0,
      "noteNumber" : 83,
      "noteName" : "B5",
      "velocity" : 127,
      "durationTicks" : 479,
      "durationSeconds" : 0.6369672145833363
    }, {
      "type" : "note",
      "tick" : 76920,
      "timeSeconds" : 102.28709425,
      "channel" : 0,
      "noteNumber" : 74,
      "noteName" : "D5",
      "velocity" : 112,
      "durationTicks" : 113,
      "durationSeconds" : 0.15026575208334236
    }, {
      "type" : "note",
      "tick" : 77040,
      "timeSeconds" : 102.4466685,
      "channel" : 0,
      "noteNumber" : 76,
      "noteName" : "E5",
      "velocity" : 112,
      "durationTicks" : 113,
      "durationSeconds" : 0.15026575208332815
    }, {
      "type" : "note",
      "tick" : 77160,
      "timeSeconds" : 102.60624275,
      "channel" : 0,
      "noteNumber" : 72,
      "noteName" : "C5",
      "velocity" : 112,
      "durationTicks" : 113,
      "durationSeconds" : 0.15026575208332815
    }, {
      "type" : "note",
      "tick" : 76800,
      "timeSeconds" : 102.12752,
      "channel" : 0,
      "noteNumber" : 88,
      "noteName" : "E6",
      "velocity" : 127,
      "durationTicks" : 479,
      "durationSeconds" : 0.6369672145833363
    }, {
      "type" : "note",
      "tick" : 77400,
      "timeSeconds" : 102.92539125,
      "channel" : 0,
      "noteNumber" : 74,
      "noteName" : "D5",
      "velocity" : 112,
      "durationTicks" : 113,
      "durationSeconds" : 0.15026575208332815
    }, {
      "type" : "note",
      "tick" : 77520,
      "timeSeconds" : 103.0849655,
      "channel" : 0,
      "noteNumber" : 76,
      "noteName" : "E5",
      "velocity" : 112,
      "durationTicks" : 113,
      "durationSeconds" : 0.15026575208334236
    }, {
      "type" : "note",
      "tick" : 77640,
      "timeSeconds" : 103.24453975,
      "channel" : 0,
      "noteNumber" : 79,
      "noteName" : "G5",
      "velocity" : 112,
      "durationTicks" : 113,
      "durationSeconds" : 0.15026575208332815
    }, {
      "type" : "note",
      "tick" : 77280,
      "timeSeconds" : 102.765817,
      "channel" : 0,
      "noteNumber" : 83,
      "noteName" : "B5",
      "velocity" : 127,
      "durationTicks" : 479,
      "durationSeconds" : 0.6369672145833363
    }, {
      "type" : "note",
      "tick" : 77880,
      "timeSeconds" : 103.56368825,
      "channel" : 0,
      "noteNumber" : 74,
      "noteName" : "D5",
      "velocity" : 112,
      "durationTicks" : 113,
      "durationSeconds" : 0.15026575208332815
    }, {
      "type" : "note",
      "tick" : 78000,
      "timeSeconds" : 103.7232625,
      "channel" : 0,
      "noteNumber" : 76,
      "noteName" : "E5",
      "velocity" : 112,
      "durationTicks" : 113,
      "durationSeconds" : 0.15026575208332815
    }, {
      "type" : "note",
      "tick" : 78120,
      "timeSeconds" : 103.88283675,
      "channel" : 0,
      "noteNumber" : 79,
      "noteName" : "G5",
      "velocity" : 112,
      "durationTicks" : 113,
      "durationSeconds" : 0.15026575208334236
    }, {
      "type" : "note",
      "tick" : 77760,
      "timeSeconds" : 103.404114,
      "channel" : 0,
      "noteNumber" : 83,
      "noteName" : "B5",
      "velocity" : 127,
      "durationTicks" : 479,
      "durationSeconds" : 0.6369672145833221
    }, {
      "type" : "note",
      "tick" : 78360,
      "timeSeconds" : 104.20198525,
      "channel" : 0,
      "noteNumber" : 86,
      "noteName" : "D6",
      "velocity" : 112,
      "durationTicks" : 113,
      "durationSeconds" : 0.15026575208332815
    }, {
      "type" : "note",
      "tick" : 78480,
      "timeSeconds" : 104.3615595,
      "channel" : 0,
      "noteNumber" : 81,
      "noteName" : "A5",
      "velocity" : 112,
      "durationTicks" : 113,
      "durationSeconds" : 0.15026575208332815
    }, {
      "type" : "note",
      "tick" : 78600,
      "timeSeconds" : 104.52113375,
      "channel" : 0,
      "noteNumber" : 79,
      "noteName" : "G5",
      "velocity" : 112,
      "durationTicks" : 113,
      "durationSeconds" : 0.15026575208332815
    }, {
      "type" : "note",
      "tick" : 78240,
      "timeSeconds" : 104.042411,
      "channel" : 0,
      "noteNumber" : 88,
      "noteName" : "E6",
      "velocity" : 127,
      "durationTicks" : 479,
      "durationSeconds" : 0.6369672145833363
    }, {
      "type" : "note",
      "tick" : 78840,
      "timeSeconds" : 104.84028225,
      "channel" : 0,
      "noteNumber" : 74,
      "noteName" : "D5",
      "velocity" : 112,
      "durationTicks" : 113,
      "durationSeconds" : 0.15026575208332815
    }, {
      "type" : "note",
      "tick" : 78960,
      "timeSeconds" : 104.9998565,
      "channel" : 0,
      "noteNumber" : 76,
      "noteName" : "E5",
      "velocity" : 112,
      "durationTicks" : 113,
      "durationSeconds" : 0.15026575208332815
    }, {
      "type" : "note",
      "tick" : 79080,
      "timeSeconds" : 105.15943075,
      "channel" : 0,
      "noteNumber" : 79,
      "noteName" : "G5",
      "velocity" : 112,
      "durationTicks" : 113,
      "durationSeconds" : 0.15026575208332815
    }, {
      "type" : "note",
      "tick" : 78720,
      "timeSeconds" : 104.680708,
      "channel" : 0,
      "noteNumber" : 83,
      "noteName" : "B5",
      "velocity" : 127,
      "durationTicks" : 479,
      "durationSeconds" : 0.6369672145833363
    }, {
      "type" : "note",
      "tick" : 76320,
      "timeSeconds" : 101.489223,
      "channel" : 1,
      "noteNumber" : 43,
      "noteName" : "G2",
      "velocity" : 112,
      "durationTicks" : 2880,
      "durationSeconds" : 3.8297820000000087
    }, {
      "type" : "note",
      "tick" : 76320,
      "timeSeconds" : 101.489223,
      "channel" : 1,
      "noteNumber" : 64,
      "noteName" : "E4",
      "velocity" : 112,
      "durationTicks" : 2880,
      "durationSeconds" : 3.8297820000000087
    }, {
      "type" : "note",
      "tick" : 76320,
      "timeSeconds" : 101.489223,
      "channel" : 1,
      "noteNumber" : 67,
      "noteName" : "G4",
      "velocity" : 112,
      "durationTicks" : 2880,
      "durationSeconds" : 3.8297820000000087
    }, {
      "type" : "note",
      "tick" : 76320,
      "timeSeconds" : 101.489223,
      "channel" : 1,
      "noteNumber" : 71,
      "noteName" : "B4",
      "velocity" : 112,
      "durationTicks" : 2880,
      "durationSeconds" : 3.8297820000000087
    }, {
      "type" : "note",
      "tick" : 79320,
      "timeSeconds" : 105.47857925,
      "channel" : 0,
      "noteNumber" : 76,
      "noteName" : "E5",
      "velocity" : 112,
      "durationTicks" : 113,
      "durationSeconds" : 0.15026575208334236
    }, {
      "type" : "note",
      "tick" : 79440,
      "timeSeconds" : 105.6381535,
      "channel" : 0,
      "noteNumber" : 81,
      "noteName" : "A5",
      "velocity" : 112,
      "durationTicks" : 113,
      "durationSeconds" : 0.15026575208332815
    }, {
      "type" : "note",
      "tick" : 79560,
      "timeSeconds" : 105.79772775,
      "channel" : 0,
      "noteNumber" : 83,
      "noteName" : "B5",
      "velocity" : 112,
      "durationTicks" : 113,
      "durationSeconds" : 0.15026575208332815
    }, {
      "type" : "note",
      "tick" : 79200,
      "timeSeconds" : 105.319005,
      "channel" : 0,
      "noteNumber" : 84,
      "noteName" : "C6",
      "velocity" : 127,
      "durationTicks" : 479,
      "durationSeconds" : 0.6369672145833221
    }, {
      "type" : "note",
      "tick" : 79800,
      "timeSeconds" : 106.11687625,
      "channel" : 0,
      "noteNumber" : 76,
      "noteName" : "E5",
      "velocity" : 112,
      "durationTicks" : 113,
      "durationSeconds" : 0.15026575208332815
    }, {
      "type" : "note",
      "tick" : 79920,
      "timeSeconds" : 106.2764505,
      "channel" : 0,
      "noteNumber" : 81,
      "noteName" : "A5",
      "velocity" : 112,
      "durationTicks" : 113,
      "durationSeconds" : 0.15026575208334236
    }, {
      "type" : "note",
      "tick" : 80040,
      "timeSeconds" : 106.43602475,
      "channel" : 0,
      "noteNumber" : 72,
      "noteName" : "C5",
      "velocity" : 112,
      "durationTicks" : 113,
      "durationSeconds" : 0.15026575208332815
    }, {
      "type" : "note",
      "tick" : 79680,
      "timeSeconds" : 105.957302,
      "channel" : 0,
      "noteNumber" : 88,
      "noteName" : "E6",
      "velocity" : 127,
      "durationTicks" : 479,
      "durationSeconds" : 0.6369672145833363
    }, {
      "type" : "note",
      "tick" : 80280,
      "timeSeconds" : 106.75517325,
      "channel" : 0,
      "noteNumber" : 76,
      "noteName" : "E5",
      "velocity" : 112,
      "durationTicks" : 113,
      "durationSeconds" : 0.15026575208332815
    }, {
      "type" : "note",
      "tick" : 80400,
      "timeSeconds" : 106.9147475,
      "channel" : 0,
      "noteNumber" : 81,
      "noteName" : "A5",
      "velocity" : 112,
      "durationTicks" : 113,
      "durationSeconds" : 0.15026575208332815
    }, {
      "type" : "note",
      "tick" : 80520,
      "timeSeconds" : 107.07432175,
      "channel" : 0,
      "noteNumber" : 83,
      "noteName" : "B5",
      "velocity" : 112,
      "durationTicks" : 113,
      "durationSeconds" : 0.15026575208334236
    }, {
      "type" : "note",
      "tick" : 80160,
      "timeSeconds" : 106.595599,
      "channel" : 0,
      "noteNumber" : 84,
      "noteName" : "C6",
      "velocity" : 127,
      "durationTicks" : 479,
      "durationSeconds" : 0.6369672145833221
    }, {
      "type" : "note",
      "tick" : 80760,
      "timeSeconds" : 107.39347025,
      "channel" : 0,
      "noteNumber" : 76,
      "noteName" : "E5",
      "velocity" : 112,
      "durationTicks" : 113,
      "durationSeconds" : 0.15026575208334236
    }, {
      "type" : "note",
      "tick" : 80880,
      "timeSeconds" : 107.5530445,
      "channel" : 0,
      "noteNumber" : 81,
      "noteName" : "A5",
      "velocity" : 112,
      "durationTicks" : 113,
      "durationSeconds" : 0.15026575208332815
    }, {
      "type" : "note",
      "tick" : 81000,
      "timeSeconds" : 107.71261875,
      "channel" : 0,
      "noteNumber" : 83,
      "noteName" : "B5",
      "velocity" : 112,
      "durationTicks" : 113,
      "durationSeconds" : 0.15026575208332815
    }, {
      "type" : "note",
      "tick" : 80640,
      "timeSeconds" : 107.233896,
      "channel" : 0,
      "noteNumber" : 84,
      "noteName" : "C6",
      "velocity" : 127,
      "durationTicks" : 479,
      "durationSeconds" : 0.6369672145833363
    }, {
      "type" : "note",
      "tick" : 81120,
      "timeSeconds" : 107.872193,
      "channel" : 0,
      "noteNumber" : 88,
      "noteName" : "E6",
      "velocity" : 127,
      "durationTicks" : 120,
      "durationSeconds" : 0.1595742500000057
    }, {
      "type" : "note",
      "tick" : 81360,
      "timeSeconds" : 108.1913415,
      "channel" : 0,
      "noteNumber" : 83,
      "noteName" : "B5",
      "velocity" : 112,
      "durationTicks" : 113,
      "durationSeconds" : 0.15026575208334236
    }, {
      "type" : "note",
      "tick" : 81480,
      "timeSeconds" : 108.35091575,
      "channel" : 0,
      "noteNumber" : 81,
      "noteName" : "A5",
      "velocity" : 112,
      "durationTicks" : 113,
      "durationSeconds" : 0.15026575208332815
    }, {
      "type" : "note",
      "tick" : 81240,
      "timeSeconds" : 108.03176725,
      "channel" : 0,
      "noteNumber" : 88,
      "noteName" : "E6",
      "velocity" : 112,
      "durationTicks" : 359,
      "durationSeconds" : 0.4773929645833306
    }, {
      "type" : "note",
      "tick" : 81720,
      "timeSeconds" : 108.67006425,
      "channel" : 0,
      "noteNumber" : 76,
      "noteName" : "E5",
      "velocity" : 112,
      "durationTicks" : 113,
      "durationSeconds" : 0.15026575208334236
    }, {
      "type" : "note",
      "tick" : 81840,
      "timeSeconds" : 108.8296385,
      "channel" : 0,
      "noteNumber" : 81,
      "noteName" : "A5",
      "velocity" : 112,
      "durationTicks" : 113,
      "durationSeconds" : 0.15026575208332815
    }, {
      "type" : "note",
      "tick" : 81960,
      "timeSeconds" : 108.98921275,
      "channel" : 0,
      "noteNumber" : 83,
      "noteName" : "B5",
      "velocity" : 112,
      "durationTicks" : 113,
      "durationSeconds" : 0.15026575208334236
    }, {
      "type" : "note",
      "tick" : 81600,
      "timeSeconds" : 108.51049,
      "channel" : 0,
      "noteNumber" : 84,
      "noteName" : "C6",
      "velocity" : 127,
      "durationTicks" : 479,
      "durationSeconds" : 0.6369672145833221
    }, {
      "type" : "note",
      "tick" : 79200,
      "timeSeconds" : 105.319005,
      "channel" : 1,
      "noteNumber" : 45,
      "noteName" : "A2",
      "velocity" : 112,
      "durationTicks" : 2880,
      "durationSeconds" : 3.8297819999999945
    }, {
      "type" : "note",
      "tick" : 79200,
      "timeSeconds" : 105.319005,
      "channel" : 1,
      "noteNumber" : 60,
      "noteName" : "C4",
      "velocity" : 112,
      "durationTicks" : 2880,
      "durationSeconds" : 3.8297819999999945
    }, {
      "type" : "note",
      "tick" : 79200,
      "timeSeconds" : 105.319005,
      "channel" : 1,
      "noteNumber" : 64,
      "noteName" : "E4",
      "velocity" : 112,
      "durationTicks" : 2880,
      "durationSeconds" : 3.8297819999999945
    }, {
      "type" : "note",
      "tick" : 79200,
      "timeSeconds" : 105.319005,
      "channel" : 1,
      "noteNumber" : 69,
      "noteName" : "A4",
      "velocity" : 112,
      "durationTicks" : 2880,
      "durationSeconds" : 3.8297819999999945
    }, {
      "type" : "note",
      "tick" : 82200,
      "timeSeconds" : 109.30836125,
      "channel" : 0,
      "noteNumber" : 76,
      "noteName" : "E5",
      "velocity" : 112,
      "durationTicks" : 113,
      "durationSeconds" : 0.15026575208332815
    }, {
      "type" : "note",
      "tick" : 82320,
      "timeSeconds" : 109.4679355,
      "channel" : 0,
      "noteNumber" : 79,
      "noteName" : "G5",
      "velocity" : 112,
      "durationTicks" : 113,
      "durationSeconds" : 0.15026575208334236
    }, {
      "type" : "note",
      "tick" : 82440,
      "timeSeconds" : 109.62750975,
      "channel" : 0,
      "noteNumber" : 83,
      "noteName" : "B5",
      "velocity" : 112,
      "durationTicks" : 113,
      "durationSeconds" : 0.15026575208332815
    }, {
      "type" : "note",
      "tick" : 82080,
      "timeSeconds" : 109.148787,
      "channel" : 0,
      "noteNumber" : 86,
      "noteName" : "D6",
      "velocity" : 127,
      "durationTicks" : 479,
      "durationSeconds" : 0.6369672145833363
    }, {
      "type" : "note",
      "tick" : 82680,
      "timeSeconds" : 109.94665825,
      "channel" : 0,
      "noteNumber" : 76,
      "noteName" : "E5",
      "velocity" : 112,
      "durationTicks" : 113,
      "durationSeconds" : 0.15026575208332815
    }, {
      "type" : "note",
      "tick" : 82800,
      "timeSeconds" : 110.1062325,
      "channel" : 0,
      "noteNumber" : 79,
      "noteName" : "G5",
      "velocity" : 112,
      "durationTicks" : 113,
      "durationSeconds" : 0.15026575208332815
    }, {
      "type" : "note",
      "tick" : 82920,
      "timeSeconds" : 110.26580675,
      "channel" : 0,
      "noteNumber" : 71,
      "noteName" : "B4",
      "velocity" : 112,
      "durationTicks" : 113,
      "durationSeconds" : 0.15026575208334236
    }, {
      "type" : "note",
      "tick" : 82560,
      "timeSeconds" : 109.787084,
      "channel" : 0,
      "noteNumber" : 88,
      "noteName" : "E6",
      "velocity" : 127,
      "durationTicks" : 479,
      "durationSeconds" : 0.6369672145833363
    }, {
      "type" : "note",
      "tick" : 83160,
      "timeSeconds" : 110.58495525,
      "channel" : 0,
      "noteNumber" : 76,
      "noteName" : "E5",
      "velocity" : 112,
      "durationTicks" : 113,
      "durationSeconds" : 0.15026575208334236
    }, {
      "type" : "note",
      "tick" : 83280,
      "timeSeconds" : 110.7445295,
      "channel" : 0,
      "noteNumber" : 79,
      "noteName" : "G5",
      "velocity" : 112,
      "durationTicks" : 113,
      "durationSeconds" : 0.15026575208332815
    }, {
      "type" : "note",
      "tick" : 83400,
      "timeSeconds" : 110.90410375,
      "channel" : 0,
      "noteNumber" : 83,
      "noteName" : "B5",
      "velocity" : 112,
      "durationTicks" : 113,
      "durationSeconds" : 0.15026575208332815
    }, {
      "type" : "note",
      "tick" : 83040,
      "timeSeconds" : 110.425381,
      "channel" : 0,
      "noteNumber" : 86,
      "noteName" : "D6",
      "velocity" : 127,
      "durationTicks" : 479,
      "durationSeconds" : 0.6369672145833363
    }, {
      "type" : "note",
      "tick" : 83640,
      "timeSeconds" : 111.22325225,
      "channel" : 0,
      "noteNumber" : 76,
      "noteName" : "E5",
      "velocity" : 112,
      "durationTicks" : 113,
      "durationSeconds" : 0.15026575208332815
    }, {
      "type" : "note",
      "tick" : 83760,
      "timeSeconds" : 111.3828265,
      "channel" : 0,
      "noteNumber" : 79,
      "noteName" : "G5",
      "velocity" : 112,
      "durationTicks" : 113,
      "durationSeconds" : 0.15026575208334236
    }, {
      "type" : "note",
      "tick" : 83880,
      "timeSeconds" : 111.54240075,
      "channel" : 0,
      "noteNumber" : 83,
      "noteName" : "B5",
      "velocity" : 112,
      "durationTicks" : 113,
      "durationSeconds" : 0.15026575208332815
    }, {
      "type" : "note",
      "tick" : 83520,
      "timeSeconds" : 111.063678,
      "channel" : 0,
      "noteNumber" : 88,
      "noteName" : "E6",
      "velocity" : 127,
      "durationTicks" : 479,
      "durationSeconds" : 0.6369672145833363
    }, {
      "type" : "note",
      "tick" : 84120,
      "timeSeconds" : 111.86154925,
      "channel" : 0,
      "noteNumber" : 88,
      "noteName" : "E6",
      "velocity" : 112,
      "durationTicks" : 113,
      "durationSeconds" : 0.15026575208334236
    }, {
      "type" : "note",
      "tick" : 84240,
      "timeSeconds" : 112.0211235,
      "channel" : 0,
      "noteNumber" : 83,
      "noteName" : "B5",
      "velocity" : 112,
      "durationTicks" : 113,
      "durationSeconds" : 0.15026575208332815
    }, {
      "type" : "note",
      "tick" : 84360,
      "timeSeconds" : 112.18069775,
      "channel" : 0,
      "noteNumber" : 79,
      "noteName" : "G5",
      "velocity" : 112,
      "durationTicks" : 113,
      "durationSeconds" : 0.15026575208334236
    }, {
      "type" : "note",
      "tick" : 84000,
      "timeSeconds" : 111.701975,
      "channel" : 0,
      "noteNumber" : 86,
      "noteName" : "D6",
      "velocity" : 127,
      "durationTicks" : 479,
      "durationSeconds" : 0.6369672145833221
    }, {
      "type" : "note",
      "tick" : 84600,
      "timeSeconds" : 112.49984625,
      "channel" : 0,
      "noteNumber" : 81,
      "noteName" : "A5",
      "velocity" : 112,
      "durationTicks" : 113,
      "durationSeconds" : 0.15026575208332815
    }, {
      "type" : "note",
      "tick" : 84720,
      "timeSeconds" : 112.6594205,
      "channel" : 0,
      "noteNumber" : 83,
      "noteName" : "B5",
      "velocity" : 112,
      "durationTicks" : 113,
      "durationSeconds" : 0.15026575208334236
    }, {
      "type" : "note",
      "tick" : 84840,
      "timeSeconds" : 112.81899475,
      "channel" : 0,
      "noteNumber" : 76,
      "noteName" : "E5",
      "velocity" : 112,
      "durationTicks" : 113,
      "durationSeconds" : 0.15026575208332815
    }, {
      "type" : "note",
      "tick" : 84480,
      "timeSeconds" : 112.340272,
      "channel" : 0,
      "noteNumber" : 88,
      "noteName" : "E6",
      "velocity" : 127,
      "durationTicks" : 479,
      "durationSeconds" : 0.6369672145833363
    }, {
      "type" : "note",
      "tick" : 82080,
      "timeSeconds" : 109.148787,
      "channel" : 1,
      "noteNumber" : 43,
      "noteName" : "G2",
      "velocity" : 112,
      "durationTicks" : 2880,
      "durationSeconds" : 3.8297819999999945
    }, {
      "type" : "note",
      "tick" : 82080,
      "timeSeconds" : 109.148787,
      "channel" : 1,
      "noteNumber" : 62,
      "noteName" : "D4",
      "velocity" : 112,
      "durationTicks" : 2880,
      "durationSeconds" : 3.8297819999999945
    }, {
      "type" : "note",
      "tick" : 82080,
      "timeSeconds" : 109.148787,
      "channel" : 1,
      "noteNumber" : 64,
      "noteName" : "E4",
      "velocity" : 112,
      "durationTicks" : 2880,
      "durationSeconds" : 3.8297819999999945
    }, {
      "type" : "note",
      "tick" : 82080,
      "timeSeconds" : 109.148787,
      "channel" : 1,
      "noteNumber" : 67,
      "noteName" : "G4",
      "velocity" : 112,
      "durationTicks" : 2880,
      "durationSeconds" : 3.8297819999999945
    }, {
      "type" : "note",
      "tick" : 82080,
      "timeSeconds" : 109.148787,
      "channel" : 1,
      "noteNumber" : 71,
      "noteName" : "B4",
      "velocity" : 112,
      "durationTicks" : 2880,
      "durationSeconds" : 3.8297819999999945
    }, {
      "type" : "note",
      "tick" : 85080,
      "timeSeconds" : 113.13814325,
      "channel" : 0,
      "noteNumber" : 74,
      "noteName" : "D5",
      "velocity" : 112,
      "durationTicks" : 113,
      "durationSeconds" : 0.15026575208332815
    }, {
      "type" : "note",
      "tick" : 85200,
      "timeSeconds" : 113.2977175,
      "channel" : 0,
      "noteNumber" : 76,
      "noteName" : "E5",
      "velocity" : 112,
      "durationTicks" : 113,
      "durationSeconds" : 0.15026575208332815
    }, {
      "type" : "note",
      "tick" : 85320,
      "timeSeconds" : 113.45729175,
      "channel" : 0,
      "noteNumber" : 77,
      "noteName" : "F5",
      "velocity" : 112,
      "durationTicks" : 113,
      "durationSeconds" : 0.15026575208334236
    }, {
      "type" : "note",
      "tick" : 84960,
      "timeSeconds" : 112.978569,
      "channel" : 0,
      "noteNumber" : 81,
      "noteName" : "A5",
      "velocity" : 127,
      "durationTicks" : 479,
      "durationSeconds" : 0.6369672145833363
    }, {
      "type" : "note",
      "tick" : 85560,
      "timeSeconds" : 113.77644025,
      "channel" : 0,
      "noteNumber" : 74,
      "noteName" : "D5",
      "velocity" : 112,
      "durationTicks" : 113,
      "durationSeconds" : 0.15026575208334236
    }, {
      "type" : "note",
      "tick" : 85680,
      "timeSeconds" : 113.9360145,
      "channel" : 0,
      "noteNumber" : 76,
      "noteName" : "E5",
      "velocity" : 112,
      "durationTicks" : 113,
      "durationSeconds" : 0.15026575208332815
    }, {
      "type" : "note",
      "tick" : 85800,
      "timeSeconds" : 114.09558875,
      "channel" : 0,
      "noteNumber" : 72,
      "noteName" : "C5",
      "velocity" : 112,
      "durationTicks" : 113,
      "durationSeconds" : 0.15026575208332815
    }, {
      "type" : "note",
      "tick" : 85440,
      "timeSeconds" : 113.616866,
      "channel" : 0,
      "noteNumber" : 88,
      "noteName" : "E6",
      "velocity" : 127,
      "durationTicks" : 479,
      "durationSeconds" : 0.6369672145833363
    }, {
      "type" : "note",
      "tick" : 86040,
      "timeSeconds" : 114.41473725,
      "channel" : 0,
      "noteNumber" : 74,
      "noteName" : "D5",
      "velocity" : 112,
      "durationTicks" : 113,
      "durationSeconds" : 0.15026575208332815
    }, {
      "type" : "note",
      "tick" : 86160,
      "timeSeconds" : 114.5743115,
      "channel" : 0,
      "noteNumber" : 76,
      "noteName" : "E5",
      "velocity" : 112,
      "durationTicks" : 113,
      "durationSeconds" : 0.15026575208334236
    }, {
      "type" : "note",
      "tick" : 86280,
      "timeSeconds" : 114.73388575,
      "channel" : 0,
      "noteNumber" : 77,
      "noteName" : "F5",
      "velocity" : 112,
      "durationTicks" : 113,
      "durationSeconds" : 0.15026575208332815
    }, {
      "type" : "note",
      "tick" : 85920,
      "timeSeconds" : 114.255163,
      "channel" : 0,
      "noteNumber" : 81,
      "noteName" : "A5",
      "velocity" : 127,
      "durationTicks" : 479,
      "durationSeconds" : 0.6369672145833363
    }, {
      "type" : "note",
      "tick" : 86520,
      "timeSeconds" : 115.05303425,
      "channel" : 0,
      "noteNumber" : 74,
      "noteName" : "D5",
      "velocity" : 112,
      "durationTicks" : 113,
      "durationSeconds" : 0.15026575208334236
    }, {
      "type" : "note",
      "tick" : 86640,
      "timeSeconds" : 115.2126085,
      "channel" : 0,
      "noteNumber" : 76,
      "noteName" : "E5",
      "velocity" : 112,
      "durationTicks" : 113,
      "durationSeconds" : 0.15026575208332815
    }, {
      "type" : "note",
      "tick" : 86760,
      "timeSeconds" : 115.37218275,
      "channel" : 0,
      "noteNumber" : 77,
      "noteName" : "F5",
      "velocity" : 112,
      "durationTicks" : 113,
      "durationSeconds" : 0.15026575208334236
    }, {
      "type" : "note",
      "tick" : 86400,
      "timeSeconds" : 114.89346,
      "channel" : 0,
      "noteNumber" : 81,
      "noteName" : "A5",
      "velocity" : 127,
      "durationTicks" : 479,
      "durationSeconds" : 0.6369672145833221
    }, {
      "type" : "note",
      "tick" : 87000,
      "timeSeconds" : 115.69133125,
      "channel" : 0,
      "noteNumber" : 84,
      "noteName" : "C6",
      "velocity" : 112,
      "durationTicks" : 113,
      "durationSeconds" : 0.15026575208332815
    }, {
      "type" : "note",
      "tick" : 87120,
      "timeSeconds" : 115.8509055,
      "channel" : 0,
      "noteNumber" : 81,
      "noteName" : "A5",
      "velocity" : 112,
      "durationTicks" : 113,
      "durationSeconds" : 0.15026575208334236
    }, {
      "type" : "note",
      "tick" : 87240,
      "timeSeconds" : 116.01047975,
      "channel" : 0,
      "noteNumber" : 79,
      "noteName" : "G5",
      "velocity" : 112,
      "durationTicks" : 113,
      "durationSeconds" : 0.15026575208332815
    }, {
      "type" : "note",
      "tick" : 86880,
      "timeSeconds" : 115.531757,
      "channel" : 0,
      "noteNumber" : 88,
      "noteName" : "E6",
      "velocity" : 127,
      "durationTicks" : 479,
      "durationSeconds" : 0.6369672145833363
    }, {
      "type" : "note",
      "tick" : 87480,
      "timeSeconds" : 116.32962825,
      "channel" : 0,
      "noteNumber" : 74,
      "noteName" : "D5",
      "velocity" : 112,
      "durationTicks" : 113,
      "durationSeconds" : 0.15026575208332815
    }, {
      "type" : "note",
      "tick" : 87600,
      "timeSeconds" : 116.4892025,
      "channel" : 0,
      "noteNumber" : 76,
      "noteName" : "E5",
      "velocity" : 112,
      "durationTicks" : 113,
      "durationSeconds" : 0.15026575208332815
    }, {
      "type" : "note",
      "tick" : 87720,
      "timeSeconds" : 116.64877675,
      "channel" : 0,
      "noteNumber" : 77,
      "noteName" : "F5",
      "velocity" : 112,
      "durationTicks" : 113,
      "durationSeconds" : 0.15026575208334236
    }, {
      "type" : "note",
      "tick" : 87360,
      "timeSeconds" : 116.170054,
      "channel" : 0,
      "noteNumber" : 81,
      "noteName" : "A5",
      "velocity" : 127,
      "durationTicks" : 479,
      "durationSeconds" : 0.6369672145833363
    }, {
      "type" : "note",
      "tick" : 84960,
      "timeSeconds" : 112.978569,
      "channel" : 1,
      "noteNumber" : 41,
      "noteName" : "F2",
      "velocity" : 112,
      "durationTicks" : 2880,
      "durationSeconds" : 3.8297820000000087
    }, {
      "type" : "note",
      "tick" : 84960,
      "timeSeconds" : 112.978569,
      "channel" : 1,
      "noteNumber" : 60,
      "noteName" : "C4",
      "velocity" : 112,
      "durationTicks" : 2880,
      "durationSeconds" : 3.8297820000000087
    }, {
      "type" : "note",
      "tick" : 84960,
      "timeSeconds" : 112.978569,
      "channel" : 1,
      "noteNumber" : 64,
      "noteName" : "E4",
      "velocity" : 112,
      "durationTicks" : 2880,
      "durationSeconds" : 3.8297820000000087
    }, {
      "type" : "note",
      "tick" : 84960,
      "timeSeconds" : 112.978569,
      "channel" : 1,
      "noteNumber" : 65,
      "noteName" : "F4",
      "velocity" : 112,
      "durationTicks" : 2880,
      "durationSeconds" : 3.8297820000000087
    }, {
      "type" : "note",
      "tick" : 84960,
      "timeSeconds" : 112.978569,
      "channel" : 1,
      "noteNumber" : 69,
      "noteName" : "A4",
      "velocity" : 112,
      "durationTicks" : 2880,
      "durationSeconds" : 3.8297820000000087
    }, {
      "type" : "note",
      "tick" : 87960,
      "timeSeconds" : 116.96792525,
      "channel" : 0,
      "noteNumber" : 74,
      "noteName" : "D5",
      "velocity" : 113,
      "durationTicks" : 113,
      "durationSeconds" : 0.15026575208334236
    }, {
      "type" : "note",
      "tick" : 88080,
      "timeSeconds" : 117.1274995,
      "channel" : 0,
      "noteNumber" : 76,
      "noteName" : "E5",
      "velocity" : 114,
      "durationTicks" : 113,
      "durationSeconds" : 0.15026575208332815
    }, {
      "type" : "note",
      "tick" : 88200,
      "timeSeconds" : 117.28707375,
      "channel" : 0,
      "noteNumber" : 79,
      "noteName" : "G5",
      "velocity" : 115,
      "durationTicks" : 113,
      "durationSeconds" : 0.15026575208332815
    }, {
      "type" : "note",
      "tick" : 87840,
      "timeSeconds" : 116.808351,
      "channel" : 0,
      "noteNumber" : 83,
      "noteName" : "B5",
      "velocity" : 127,
      "durationTicks" : 479,
      "durationSeconds" : 0.6369672145833363
    }, {
      "type" : "note",
      "tick" : 88440,
      "timeSeconds" : 117.60622225,
      "channel" : 0,
      "noteNumber" : 74,
      "noteName" : "D5",
      "velocity" : 117,
      "durationTicks" : 113,
      "durationSeconds" : 0.15026575208332815
    }, {
      "type" : "note",
      "tick" : 88560,
      "timeSeconds" : 117.7657965,
      "channel" : 0,
      "noteNumber" : 76,
      "noteName" : "E5",
      "velocity" : 119,
      "durationTicks" : 113,
      "durationSeconds" : 0.15026575208334236
    }, {
      "type" : "note",
      "tick" : 88680,
      "timeSeconds" : 117.92537075,
      "channel" : 0,
      "noteNumber" : 72,
      "noteName" : "C5",
      "velocity" : 120,
      "durationTicks" : 113,
      "durationSeconds" : 0.15026575208332815
    }, {
      "type" : "note",
      "tick" : 88320,
      "timeSeconds" : 117.446648,
      "channel" : 0,
      "noteNumber" : 88,
      "noteName" : "E6",
      "velocity" : 127,
      "durationTicks" : 479,
      "durationSeconds" : 0.6369672145833363
    }, {
      "type" : "note",
      "tick" : 88920,
      "timeSeconds" : 118.24451925,
      "channel" : 0,
      "noteNumber" : 74,
      "noteName" : "D5",
      "velocity" : 122,
      "durationTicks" : 113,
      "durationSeconds" : 0.15026575208334236
    }, {
      "type" : "note",
      "tick" : 89040,
      "timeSeconds" : 118.4040935,
      "channel" : 0,
      "noteNumber" : 76,
      "noteName" : "E5",
      "velocity" : 123,
      "durationTicks" : 113,
      "durationSeconds" : 0.15026575208332815
    }, {
      "type" : "note",
      "tick" : 89160,
      "timeSeconds" : 118.56366775,
      "channel" : 0,
      "noteNumber" : 79,
      "noteName" : "G5",
      "velocity" : 124,
      "durationTicks" : 113,
      "durationSeconds" : 0.15026575208334236
    }, {
      "type" : "note",
      "tick" : 88800,
      "timeSeconds" : 118.084945,
      "channel" : 0,
      "noteNumber" : 83,
      "noteName" : "B5",
      "velocity" : 127,
      "durationTicks" : 479,
      "durationSeconds" : 0.6369672145833221
    }, {
      "type" : "note",
      "tick" : 89280,
      "timeSeconds" : 118.723242,
      "channel" : 0,
      "noteNumber" : 76,
      "noteName" : "E5",
      "velocity" : 126,
      "durationTicks" : 1367,
      "durationSeconds" : 3.635630481250004
    }, {
      "type" : "note",
      "tick" : 89280,
      "timeSeconds" : 118.723242,
      "channel" : 0,
      "noteNumber" : 88,
      "noteName" : "E6",
      "velocity" : 126,
      "durationTicks" : 1367,
      "durationSeconds" : 3.635630481250004
    }, {
      "type" : "note",
      "tick" : 87840,
      "timeSeconds" : 116.808351,
      "channel" : 1,
      "noteNumber" : 43,
      "noteName" : "G2",
      "velocity" : 112,
      "durationTicks" : 2880,
      "durationSeconds" : 5.743340216666667
    }, {
      "type" : "note",
      "tick" : 87840,
      "timeSeconds" : 116.808351,
      "channel" : 1,
      "noteNumber" : 64,
      "noteName" : "E4",
      "velocity" : 112,
      "durationTicks" : 2880,
      "durationSeconds" : 5.743340216666667
    }, {
      "type" : "note",
      "tick" : 87840,
      "timeSeconds" : 116.808351,
      "channel" : 1,
      "noteNumber" : 67,
      "noteName" : "G4",
      "velocity" : 112,
      "durationTicks" : 2880,
      "durationSeconds" : 5.743340216666667
    }, {
      "type" : "note",
      "tick" : 87840,
      "timeSeconds" : 116.808351,
      "channel" : 1,
      "noteNumber" : 71,
      "noteName" : "B4",
      "velocity" : 112,
      "durationTicks" : 2880,
      "durationSeconds" : 5.743340216666667
    } ]
  }, {
    "index" : 1,
    "name" : "Piano\u0000",
    "programChanges" : [ ],
    "events" : [ {
      "type" : "meta",
      "tick" : 0,
      "timeSeconds" : 0.0,
      "text" : "track_name: Piano\u0000"
    }, {
      "type" : "control_change",
      "tick" : 2,
      "timeSeconds" : 0.0026595708333333333,
      "channel" : 0,
      "controller" : 64,
      "value" : 127
    }, {
      "type" : "note",
      "tick" : 0,
      "timeSeconds" : 0.0,
      "channel" : 0,
      "noteNumber" : 41,
      "noteName" : "F2",
      "velocity" : 33,
      "durationTicks" : 2735,
      "durationSeconds" : 3.636963114583333
    }, {
      "type" : "note",
      "tick" : 0,
      "timeSeconds" : 0.0,
      "channel" : 0,
      "noteNumber" : 48,
      "noteName" : "C3",
      "velocity" : 33,
      "durationTicks" : 2735,
      "durationSeconds" : 3.636963114583333
    }, {
      "type" : "note",
      "tick" : 0,
      "timeSeconds" : 0.0,
      "channel" : 0,
      "noteNumber" : 53,
      "noteName" : "F3",
      "velocity" : 33,
      "durationTicks" : 2735,
      "durationSeconds" : 3.636963114583333
    }, {
      "type" : "control_change",
      "tick" : 2881,
      "timeSeconds" : 3.8311117854166667,
      "channel" : 0,
      "controller" : 64,
      "value" : 0
    }, {
      "type" : "control_change",
      "tick" : 2882,
      "timeSeconds" : 3.8324415708333333,
      "channel" : 0,
      "controller" : 64,
      "value" : 127
    }, {
      "type" : "note",
      "tick" : 2880,
      "timeSeconds" : 3.829782,
      "channel" : 0,
      "noteNumber" : 43,
      "noteName" : "G2",
      "velocity" : 33,
      "durationTicks" : 2735,
      "durationSeconds" : 3.6369631145833337
    }, {
      "type" : "note",
      "tick" : 2880,
      "timeSeconds" : 3.829782,
      "channel" : 0,
      "noteNumber" : 50,
      "noteName" : "D3",
      "velocity" : 33,
      "durationTicks" : 2735,
      "durationSeconds" : 3.6369631145833337
    }, {
      "type" : "note",
      "tick" : 2880,
      "timeSeconds" : 3.829782,
      "channel" : 0,
      "noteNumber" : 55,
      "noteName" : "G3",
      "velocity" : 33,
      "durationTicks" : 2735,
      "durationSeconds" : 3.6369631145833337
    }, {
      "type" : "control_change",
      "tick" : 5761,
      "timeSeconds" : 7.6608937854166665,
      "channel" : 0,
      "controller" : 64,
      "value" : 0
    }, {
      "type" : "control_change",
      "tick" : 5762,
      "timeSeconds" : 7.6622235708333335,
      "channel" : 0,
      "controller" : 64,
      "value" : 127
    }, {
      "type" : "note",
      "tick" : 5760,
      "timeSeconds" : 7.659564,
      "channel" : 0,
      "noteNumber" : 45,
      "noteName" : "A2",
      "velocity" : 33,
      "durationTicks" : 2735,
      "durationSeconds" : 3.6369631145833345
    }, {
      "type" : "note",
      "tick" : 5760,
      "timeSeconds" : 7.659564,
      "channel" : 0,
      "noteNumber" : 52,
      "noteName" : "E3",
      "velocity" : 33,
      "durationTicks" : 2735,
      "durationSeconds" : 3.6369631145833345
    }, {
      "type" : "note",
      "tick" : 5760,
      "timeSeconds" : 7.659564,
      "channel" : 0,
      "noteNumber" : 57,
      "noteName" : "A3",
      "velocity" : 33,
      "durationTicks" : 2735,
      "durationSeconds" : 3.6369631145833345
    }, {
      "type" : "control_change",
      "tick" : 8641,
      "timeSeconds" : 11.490675785416666,
      "channel" : 0,
      "controller" : 64,
      "value" : 0
    }, {
      "type" : "control_change",
      "tick" : 8642,
      "timeSeconds" : 11.492005570833333,
      "channel" : 0,
      "controller" : 64,
      "value" : 127
    }, {
      "type" : "note",
      "tick" : 8640,
      "timeSeconds" : 11.489346,
      "channel" : 0,
      "noteNumber" : 43,
      "noteName" : "G2",
      "velocity" : 33,
      "durationTicks" : 2735,
      "durationSeconds" : 3.6369631145833345
    }, {
      "type" : "note",
      "tick" : 8640,
      "timeSeconds" : 11.489346,
      "channel" : 0,
      "noteNumber" : 50,
      "noteName" : "D3",
      "velocity" : 33,
      "durationTicks" : 2735,
      "durationSeconds" : 3.6369631145833345
    }, {
      "type" : "note",
      "tick" : 8640,
      "timeSeconds" : 11.489346,
      "channel" : 0,
      "noteNumber" : 55,
      "noteName" : "G3",
      "velocity" : 33,
      "durationTicks" : 2735,
      "durationSeconds" : 3.6369631145833345
    }, {
      "type" : "control_change",
      "tick" : 11521,
      "timeSeconds" : 15.320457785416666,
      "channel" : 0,
      "controller" : 64,
      "value" : 0
    }, {
      "type" : "control_change",
      "tick" : 11522,
      "timeSeconds" : 15.321787570833333,
      "channel" : 0,
      "controller" : 64,
      "value" : 127
    }, {
      "type" : "note",
      "tick" : 11520,
      "timeSeconds" : 15.319128,
      "channel" : 0,
      "noteNumber" : 41,
      "noteName" : "F2",
      "velocity" : 49,
      "durationTicks" : 2735,
      "durationSeconds" : 3.6369631145833345
    }, {
      "type" : "note",
      "tick" : 11520,
      "timeSeconds" : 15.319128,
      "channel" : 0,
      "noteNumber" : 48,
      "noteName" : "C3",
      "velocity" : 49,
      "durationTicks" : 2735,
      "durationSeconds" : 3.6369631145833345
    }, {
      "type" : "note",
      "tick" : 11520,
      "timeSeconds" : 15.319128,
      "channel" : 0,
      "noteNumber" : 53,
      "noteName" : "F3",
      "velocity" : 49,
      "durationTicks" : 2735,
      "durationSeconds" : 3.6369631145833345
    }, {
      "type" : "control_change",
      "tick" : 14401,
      "timeSeconds" : 19.150239785416666,
      "channel" : 0,
      "controller" : 64,
      "value" : 0
    }, {
      "type" : "control_change",
      "tick" : 14402,
      "timeSeconds" : 19.151569570833335,
      "channel" : 0,
      "controller" : 64,
      "value" : 127
    }, {
      "type" : "note",
      "tick" : 14400,
      "timeSeconds" : 19.14891,
      "channel" : 0,
      "noteNumber" : 43,
      "noteName" : "G2",
      "velocity" : 49,
      "durationTicks" : 2735,
      "durationSeconds" : 3.636963114583331
    }, {
      "type" : "note",
      "tick" : 14400,
      "timeSeconds" : 19.14891,
      "channel" : 0,
      "noteNumber" : 50,
      "noteName" : "D3",
      "velocity" : 49,
      "durationTicks" : 2735,
      "durationSeconds" : 3.636963114583331
    }, {
      "type" : "note",
      "tick" : 14400,
      "timeSeconds" : 19.14891,
      "channel" : 0,
      "noteNumber" : 55,
      "noteName" : "G3",
      "velocity" : 49,
      "durationTicks" : 2735,
      "durationSeconds" : 3.636963114583331
    }, {
      "type" : "control_change",
      "tick" : 17281,
      "timeSeconds" : 22.980021785416668,
      "channel" : 0,
      "controller" : 64,
      "value" : 0
    }, {
      "type" : "control_change",
      "tick" : 17282,
      "timeSeconds" : 22.981351570833333,
      "channel" : 0,
      "controller" : 64,
      "value" : 127
    }, {
      "type" : "note",
      "tick" : 17280,
      "timeSeconds" : 22.978692,
      "channel" : 0,
      "noteNumber" : 45,
      "noteName" : "A2",
      "velocity" : 49,
      "durationTicks" : 2735,
      "durationSeconds" : 3.6369631145833345
    }, {
      "type" : "note",
      "tick" : 17280,
      "timeSeconds" : 22.978692,
      "channel" : 0,
      "noteNumber" : 52,
      "noteName" : "E3",
      "velocity" : 49,
      "durationTicks" : 2735,
      "durationSeconds" : 3.6369631145833345
    }, {
      "type" : "note",
      "tick" : 17280,
      "timeSeconds" : 22.978692,
      "channel" : 0,
      "noteNumber" : 57,
      "noteName" : "A3",
      "velocity" : 49,
      "durationTicks" : 2735,
      "durationSeconds" : 3.6369631145833345
    }, {
      "type" : "control_change",
      "tick" : 20161,
      "timeSeconds" : 26.809803785416666,
      "channel" : 0,
      "controller" : 64,
      "value" : 0
    }, {
      "type" : "control_change",
      "tick" : 20162,
      "timeSeconds" : 26.811133570833334,
      "channel" : 0,
      "controller" : 64,
      "value" : 127
    }, {
      "type" : "note",
      "tick" : 20160,
      "timeSeconds" : 26.808474,
      "channel" : 0,
      "noteNumber" : 43,
      "noteName" : "G2",
      "velocity" : 49,
      "durationTicks" : 2735,
      "durationSeconds" : 3.6369631145833345
    }, {
      "type" : "note",
      "tick" : 20160,
      "timeSeconds" : 26.808474,
      "channel" : 0,
      "noteNumber" : 50,
      "noteName" : "D3",
      "velocity" : 49,
      "durationTicks" : 2735,
      "durationSeconds" : 3.6369631145833345
    }, {
      "type" : "note",
      "tick" : 20160,
      "timeSeconds" : 26.808474,
      "channel" : 0,
      "noteNumber" : 55,
      "noteName" : "G3",
      "velocity" : 49,
      "durationTicks" : 2735,
      "durationSeconds" : 3.6369631145833345
    }, {
      "type" : "control_change",
      "tick" : 23041,
      "timeSeconds" : 30.639585785416667,
      "channel" : 0,
      "controller" : 64,
      "value" : 0
    }, {
      "type" : "control_change",
      "tick" : 23042,
      "timeSeconds" : 30.640915570833332,
      "channel" : 0,
      "controller" : 64,
      "value" : 127
    }, {
      "type" : "note",
      "tick" : 23040,
      "timeSeconds" : 30.638256,
      "channel" : 0,
      "noteNumber" : 64,
      "noteName" : "E4",
      "velocity" : 64,
      "durationTicks" : 119,
      "durationSeconds" : 0.1582444645833334
    }, {
      "type" : "note",
      "tick" : 23160,
      "timeSeconds" : 30.79783025,
      "channel" : 0,
      "noteNumber" : 65,
      "noteName" : "F4",
      "velocity" : 64,
      "durationTicks" : 119,
      "durationSeconds" : 0.1582444645833334
    }, {
      "type" : "note",
      "tick" : 23280,
      "timeSeconds" : 30.9574045,
      "channel" : 0,
      "noteNumber" : 64,
      "noteName" : "E4",
      "velocity" : 64,
      "durationTicks" : 119,
      "durationSeconds" : 0.1582444645833334
    }, {
      "type" : "note",
      "tick" : 23400,
      "timeSeconds" : 31.11697875,
      "channel" : 0,
      "noteNumber" : 65,
      "noteName" : "F4",
      "velocity" : 64,
      "durationTicks" : 119,
      "durationSeconds" : 0.1582444645833334
    }, {
      "type" : "note",
      "tick" : 23520,
      "timeSeconds" : 31.276553,
      "channel" : 0,
      "noteNumber" : 64,
      "noteName" : "E4",
      "velocity" : 64,
      "durationTicks" : 119,
      "durationSeconds" : 0.1582444645833334
    }, {
      "type" : "note",
      "tick" : 23640,
      "timeSeconds" : 31.43612725,
      "channel" : 0,
      "noteNumber" : 65,
      "noteName" : "F4",
      "velocity" : 64,
      "durationTicks" : 119,
      "durationSeconds" : 0.1582444645833334
    }, {
      "type" : "note",
      "tick" : 23760,
      "timeSeconds" : 31.5957015,
      "channel" : 0,
      "noteNumber" : 64,
      "noteName" : "E4",
      "velocity" : 64,
      "durationTicks" : 119,
      "durationSeconds" : 0.1582444645833334
    }, {
      "type" : "note",
      "tick" : 23880,
      "timeSeconds" : 31.75527575,
      "channel" : 0,
      "noteNumber" : 65,
      "noteName" : "F4",
      "velocity" : 64,
      "durationTicks" : 119,
      "durationSeconds" : 0.1582444645833334
    }, {
      "type" : "note",
      "tick" : 24000,
      "timeSeconds" : 31.91485,
      "channel" : 0,
      "noteNumber" : 64,
      "noteName" : "E4",
      "velocity" : 64,
      "durationTicks" : 119,
      "durationSeconds" : 0.1582444645833334
    }, {
      "type" : "note",
      "tick" : 24120,
      "timeSeconds" : 32.07442425,
      "channel" : 0,
      "noteNumber" : 65,
      "noteName" : "F4",
      "velocity" : 64,
      "durationTicks" : 119,
      "durationSeconds" : 0.1582444645833334
    }, {
      "type" : "note",
      "tick" : 24240,
      "timeSeconds" : 32.2339985,
      "channel" : 0,
      "noteNumber" : 64,
      "noteName" : "E4",
      "velocity" : 64,
      "durationTicks" : 119,
      "durationSeconds" : 0.1582444645833334
    }, {
      "type" : "note",
      "tick" : 24360,
      "timeSeconds" : 32.39357275,
      "channel" : 0,
      "noteNumber" : 65,
      "noteName" : "F4",
      "velocity" : 64,
      "durationTicks" : 113,
      "durationSeconds" : 0.15026575208333526
    }, {
      "type" : "control_change",
      "tick" : 24481,
      "timeSeconds" : 32.55447678541667,
      "channel" : 0,
      "controller" : 64,
      "value" : 0
    }, {
      "type" : "control_change",
      "tick" : 24482,
      "timeSeconds" : 32.55580657083333,
      "channel" : 0,
      "controller" : 64,
      "value" : 127
    }, {
      "type" : "note",
      "tick" : 24480,
      "timeSeconds" : 32.553147,
      "channel" : 0,
      "noteNumber" : 64,
      "noteName" : "E4",
      "velocity" : 64,
      "durationTicks" : 119,
      "durationSeconds" : 0.1582444645833334
    }, {
      "type" : "note",
      "tick" : 24600,
      "timeSeconds" : 32.71272125,
      "channel" : 0,
      "noteNumber" : 65,
      "noteName" : "F4",
      "velocity" : 64,
      "durationTicks" : 119,
      "durationSeconds" : 0.1582444645833334
    }, {
      "type" : "note",
      "tick" : 24720,
      "timeSeconds" : 32.8722955,
      "channel" : 0,
      "noteNumber" : 64,
      "noteName" : "E4",
      "velocity" : 64,
      "durationTicks" : 119,
      "durationSeconds" : 0.1582444645833334
    }, {
      "type" : "note",
      "tick" : 24840,
      "timeSeconds" : 33.03186975,
      "channel" : 0,
      "noteNumber" : 65,
      "noteName" : "F4",
      "velocity" : 64,
      "durationTicks" : 119,
      "durationSeconds" : 0.1582444645833334
    }, {
      "type" : "note",
      "tick" : 24960,
      "timeSeconds" : 33.191444,
      "channel" : 0,
      "noteNumber" : 64,
      "noteName" : "E4",
      "velocity" : 64,
      "durationTicks" : 119,
      "durationSeconds" : 0.1582444645833334
    }, {
      "type" : "note",
      "tick" : 25080,
      "timeSeconds" : 33.35101825,
      "channel" : 0,
      "noteNumber" : 65,
      "noteName" : "F4",
      "velocity" : 64,
      "durationTicks" : 119,
      "durationSeconds" : 0.1582444645833334
    }, {
      "type" : "note",
      "tick" : 25200,
      "timeSeconds" : 33.5105925,
      "channel" : 0,
      "noteNumber" : 64,
      "noteName" : "E4",
      "velocity" : 64,
      "durationTicks" : 119,
      "durationSeconds" : 0.1582444645833334
    }, {
      "type" : "note",
      "tick" : 25320,
      "timeSeconds" : 33.67016675,
      "channel" : 0,
      "noteNumber" : 65,
      "noteName" : "F4",
      "velocity" : 64,
      "durationTicks" : 119,
      "durationSeconds" : 0.1582444645833334
    }, {
      "type" : "note",
      "tick" : 25440,
      "timeSeconds" : 33.829741,
      "channel" : 0,
      "noteNumber" : 64,
      "noteName" : "E4",
      "velocity" : 64,
      "durationTicks" : 119,
      "durationSeconds" : 0.1582444645833334
    }, {
      "type" : "note",
      "tick" : 25560,
      "timeSeconds" : 33.98931525,
      "channel" : 0,
      "noteNumber" : 65,
      "noteName" : "F4",
      "velocity" : 64,
      "durationTicks" : 119,
      "durationSeconds" : 0.1582444645833334
    }, {
      "type" : "note",
      "tick" : 25680,
      "timeSeconds" : 34.1488895,
      "channel" : 0,
      "noteNumber" : 64,
      "noteName" : "E4",
      "velocity" : 64,
      "durationTicks" : 119,
      "durationSeconds" : 0.1582444645833334
    }, {
      "type" : "note",
      "tick" : 25800,
      "timeSeconds" : 34.30846375,
      "channel" : 0,
      "noteNumber" : 65,
      "noteName" : "F4",
      "velocity" : 64,
      "durationTicks" : 113,
      "durationSeconds" : 0.15026575208333526
    }, {
      "type" : "control_change",
      "tick" : 25921,
      "timeSeconds" : 34.469367785416665,
      "channel" : 0,
      "controller" : 64,
      "value" : 0
    }, {
      "type" : "control_change",
      "tick" : 25922,
      "timeSeconds" : 34.47069757083333,
      "channel" : 0,
      "controller" : 64,
      "value" : 127
    }, {
      "type" : "note",
      "tick" : 25920,
      "timeSeconds" : 34.468038,
      "channel" : 0,
      "noteNumber" : 64,
      "noteName" : "E4",
      "velocity" : 64,
      "durationTicks" : 119,
      "durationSeconds" : 0.1582444645833334
    }, {
      "type" : "note",
      "tick" : 26040,
      "timeSeconds" : 34.62761225,
      "channel" : 0,
      "noteNumber" : 65,
      "noteName" : "F4",
      "velocity" : 64,
      "durationTicks" : 119,
      "durationSeconds" : 0.1582444645833334
    }, {
      "type" : "note",
      "tick" : 26160,
      "timeSeconds" : 34.7871865,
      "channel" : 0,
      "noteNumber" : 64,
      "noteName" : "E4",
      "velocity" : 64,
      "durationTicks" : 119,
      "durationSeconds" : 0.1582444645833334
    }, {
      "type" : "note",
      "tick" : 26280,
      "timeSeconds" : 34.94676075,
      "channel" : 0,
      "noteNumber" : 65,
      "noteName" : "F4",
      "velocity" : 64,
      "durationTicks" : 119,
      "durationSeconds" : 0.1582444645833334
    }, {
      "type" : "note",
      "tick" : 26400,
      "timeSeconds" : 35.106335,
      "channel" : 0,
      "noteNumber" : 64,
      "noteName" : "E4",
      "velocity" : 64,
      "durationTicks" : 119,
      "durationSeconds" : 0.1582444645833334
    }, {
      "type" : "note",
      "tick" : 26520,
      "timeSeconds" : 35.26590925,
      "channel" : 0,
      "noteNumber" : 65,
      "noteName" : "F4",
      "velocity" : 64,
      "durationTicks" : 119,
      "durationSeconds" : 0.1582444645833334
    }, {
      "type" : "note",
      "tick" : 26640,
      "timeSeconds" : 35.4254835,
      "channel" : 0,
      "noteNumber" : 64,
      "noteName" : "E4",
      "velocity" : 64,
      "durationTicks" : 119,
      "durationSeconds" : 0.1582444645833334
    }, {
      "type" : "note",
      "tick" : 26760,
      "timeSeconds" : 35.58505775,
      "channel" : 0,
      "noteNumber" : 65,
      "noteName" : "F4",
      "velocity" : 64,
      "durationTicks" : 119,
      "durationSeconds" : 0.1582444645833334
    }, {
      "type" : "note",
      "tick" : 26880,
      "timeSeconds" : 35.744632,
      "channel" : 0,
      "noteNumber" : 64,
      "noteName" : "E4",
      "velocity" : 64,
      "durationTicks" : 119,
      "durationSeconds" : 0.1582444645833334
    }, {
      "type" : "note",
      "tick" : 27000,
      "timeSeconds" : 35.90420625,
      "channel" : 0,
      "noteNumber" : 65,
      "noteName" : "F4",
      "velocity" : 64,
      "durationTicks" : 119,
      "durationSeconds" : 0.1582444645833334
    }, {
      "type" : "note",
      "tick" : 27120,
      "timeSeconds" : 36.0637805,
      "channel" : 0,
      "noteNumber" : 64,
      "noteName" : "E4",
      "velocity" : 64,
      "durationTicks" : 119,
      "durationSeconds" : 0.1582444645833334
    }, {
      "type" : "note",
      "tick" : 27240,
      "timeSeconds" : 36.22335475,
      "channel" : 0,
      "noteNumber" : 65,
      "noteName" : "F4",
      "velocity" : 64,
      "durationTicks" : 113,
      "durationSeconds" : 0.15026575208333526
    }, {
      "type" : "control_change",
      "tick" : 27361,
      "timeSeconds" : 36.38425878541667,
      "channel" : 0,
      "controller" : 64,
      "value" : 0
    }, {
      "type" : "control_change",
      "tick" : 27362,
      "timeSeconds" : 36.385588570833335,
      "channel" : 0,
      "controller" : 64,
      "value" : 127
    }, {
      "type" : "note",
      "tick" : 27360,
      "timeSeconds" : 36.382929,
      "channel" : 0,
      "noteNumber" : 64,
      "noteName" : "E4",
      "velocity" : 64,
      "durationTicks" : 119,
      "durationSeconds" : 0.1582444645833334
    }, {
      "type" : "note",
      "tick" : 27480,
      "timeSeconds" : 36.54250325,
      "channel" : 0,
      "noteNumber" : 65,
      "noteName" : "F4",
      "velocity" : 64,
      "durationTicks" : 119,
      "durationSeconds" : 0.1582444645833334
    }, {
      "type" : "note",
      "tick" : 27600,
      "timeSeconds" : 36.7020775,
      "channel" : 0,
      "noteNumber" : 64,
      "noteName" : "E4",
      "velocity" : 64,
      "durationTicks" : 119,
      "durationSeconds" : 0.1582444645833334
    }, {
      "type" : "note",
      "tick" : 27720,
      "timeSeconds" : 36.86165175,
      "channel" : 0,
      "noteNumber" : 65,
      "noteName" : "F4",
      "velocity" : 64,
      "durationTicks" : 119,
      "durationSeconds" : 0.1582444645833334
    }, {
      "type" : "note",
      "tick" : 27840,
      "timeSeconds" : 37.021226,
      "channel" : 0,
      "noteNumber" : 64,
      "noteName" : "E4",
      "velocity" : 64,
      "durationTicks" : 119,
      "durationSeconds" : 0.1582444645833334
    }, {
      "type" : "note",
      "tick" : 27960,
      "timeSeconds" : 37.18080025,
      "channel" : 0,
      "noteNumber" : 65,
      "noteName" : "F4",
      "velocity" : 64,
      "durationTicks" : 119,
      "durationSeconds" : 0.1582444645833334
    }, {
      "type" : "note",
      "tick" : 28080,
      "timeSeconds" : 37.3403745,
      "channel" : 0,
      "noteNumber" : 64,
      "noteName" : "E4",
      "velocity" : 64,
      "durationTicks" : 119,
      "durationSeconds" : 0.1582444645833334
    }, {
      "type" : "note",
      "tick" : 28200,
      "timeSeconds" : 37.49994875,
      "channel" : 0,
      "noteNumber" : 65,
      "noteName" : "F4",
      "velocity" : 64,
      "durationTicks" : 119,
      "durationSeconds" : 0.1582444645833334
    }, {
      "type" : "note",
      "tick" : 28320,
      "timeSeconds" : 37.659523,
      "channel" : 0,
      "noteNumber" : 64,
      "noteName" : "E4",
      "velocity" : 64,
      "durationTicks" : 119,
      "durationSeconds" : 0.1582444645833334
    }, {
      "type" : "note",
      "tick" : 28440,
      "timeSeconds" : 37.81909725,
      "channel" : 0,
      "noteNumber" : 65,
      "noteName" : "F4",
      "velocity" : 64,
      "durationTicks" : 119,
      "durationSeconds" : 0.1582444645833334
    }, {
      "type" : "note",
      "tick" : 28560,
      "timeSeconds" : 37.9786715,
      "channel" : 0,
      "noteNumber" : 64,
      "noteName" : "E4",
      "velocity" : 64,
      "durationTicks" : 119,
      "durationSeconds" : 0.1582444645833334
    }, {
      "type" : "note",
      "tick" : 28680,
      "timeSeconds" : 38.13824575,
      "channel" : 0,
      "noteNumber" : 65,
      "noteName" : "F4",
      "velocity" : 64,
      "durationTicks" : 113,
      "durationSeconds" : 0.15026575208332815
    }, {
      "type" : "control_change",
      "tick" : 28801,
      "timeSeconds" : 38.29914978541667,
      "channel" : 0,
      "controller" : 64,
      "value" : 0
    }, {
      "type" : "control_change",
      "tick" : 28802,
      "timeSeconds" : 38.30047957083333,
      "channel" : 0,
      "controller" : 64,
      "value" : 127
    }, {
      "type" : "note",
      "tick" : 28800,
      "timeSeconds" : 38.29782,
      "channel" : 0,
      "noteNumber" : 64,
      "noteName" : "E4",
      "velocity" : 64,
      "durationTicks" : 119,
      "durationSeconds" : 0.1582444645833334
    }, {
      "type" : "note",
      "tick" : 28920,
      "timeSeconds" : 38.45739425,
      "channel" : 0,
      "noteNumber" : 65,
      "noteName" : "F4",
      "velocity" : 64,
      "durationTicks" : 119,
      "durationSeconds" : 0.1582444645833334
    }, {
      "type" : "note",
      "tick" : 29040,
      "timeSeconds" : 38.6169685,
      "channel" : 0,
      "noteNumber" : 64,
      "noteName" : "E4",
      "velocity" : 64,
      "durationTicks" : 119,
      "durationSeconds" : 0.1582444645833334
    }, {
      "type" : "note",
      "tick" : 29160,
      "timeSeconds" : 38.77654275,
      "channel" : 0,
      "noteNumber" : 65,
      "noteName" : "F4",
      "velocity" : 64,
      "durationTicks" : 119,
      "durationSeconds" : 0.1582444645833334
    }, {
      "type" : "note",
      "tick" : 29280,
      "timeSeconds" : 38.936117,
      "channel" : 0,
      "noteNumber" : 64,
      "noteName" : "E4",
      "velocity" : 64,
      "durationTicks" : 119,
      "durationSeconds" : 0.1582444645833334
    }, {
      "type" : "note",
      "tick" : 29400,
      "timeSeconds" : 39.09569125,
      "channel" : 0,
      "noteNumber" : 65,
      "noteName" : "F4",
      "velocity" : 64,
      "durationTicks" : 119,
      "durationSeconds" : 0.1582444645833334
    }, {
      "type" : "note",
      "tick" : 29520,
      "timeSeconds" : 39.2552655,
      "channel" : 0,
      "noteNumber" : 64,
      "noteName" : "E4",
      "velocity" : 64,
      "durationTicks" : 119,
      "durationSeconds" : 0.1582444645833334
    }, {
      "type" : "note",
      "tick" : 29640,
      "timeSeconds" : 39.41483975,
      "channel" : 0,
      "noteNumber" : 65,
      "noteName" : "F4",
      "velocity" : 64,
      "durationTicks" : 119,
      "durationSeconds" : 0.1582444645833334
    }, {
      "type" : "note",
      "tick" : 29760,
      "timeSeconds" : 39.574414,
      "channel" : 0,
      "noteNumber" : 64,
      "noteName" : "E4",
      "velocity" : 64,
      "durationTicks" : 119,
      "durationSeconds" : 0.1582444645833334
    }, {
      "type" : "note",
      "tick" : 29880,
      "timeSeconds" : 39.73398825,
      "channel" : 0,
      "noteNumber" : 65,
      "noteName" : "F4",
      "velocity" : 64,
      "durationTicks" : 119,
      "durationSeconds" : 0.1582444645833334
    }, {
      "type" : "note",
      "tick" : 30000,
      "timeSeconds" : 39.8935625,
      "channel" : 0,
      "noteNumber" : 64,
      "noteName" : "E4",
      "velocity" : 64,
      "durationTicks" : 119,
      "durationSeconds" : 0.1582444645833334
    }, {
      "type" : "note",
      "tick" : 30120,
      "timeSeconds" : 40.05313675,
      "channel" : 0,
      "noteNumber" : 65,
      "noteName" : "F4",
      "velocity" : 64,
      "durationTicks" : 113,
      "durationSeconds" : 0.15026575208333526
    }, {
      "type" : "control_change",
      "tick" : 30241,
      "timeSeconds" : 40.214040785416664,
      "channel" : 0,
      "controller" : 64,
      "value" : 0
    }, {
      "type" : "control_change",
      "tick" : 30242,
      "timeSeconds" : 40.215370570833336,
      "channel" : 0,
      "controller" : 64,
      "value" : 127
    }, {
      "type" : "note",
      "tick" : 30240,
      "timeSeconds" : 40.212711,
      "channel" : 0,
      "noteNumber" : 60,
      "noteName" : "C4",
      "velocity" : 80,
      "durationTicks" : 113,
      "durationSeconds" : 0.15026575208333526
    }, {
      "type" : "note",
      "tick" : 30360,
      "timeSeconds" : 40.37228525,
      "channel" : 0,
      "noteNumber" : 65,
      "noteName" : "F4",
      "velocity" : 80,
      "durationTicks" : 113,
      "durationSeconds" : 0.15026575208333526
    }, {
      "type" : "note",
      "tick" : 30480,
      "timeSeconds" : 40.5318595,
      "channel" : 0,
      "noteNumber" : 64,
      "noteName" : "E4",
      "velocity" : 80,
      "durationTicks" : 113,
      "durationSeconds" : 0.15026575208332815
    }, {
      "type" : "note",
      "tick" : 30600,
      "timeSeconds" : 40.69143375,
      "channel" : 0,
      "noteNumber" : 57,
      "noteName" : "A3",
      "velocity" : 80,
      "durationTicks" : 113,
      "durationSeconds" : 0.15026575208333526
    }, {
      "type" : "note",
      "tick" : 30720,
      "timeSeconds" : 40.851008,
      "channel" : 0,
      "noteNumber" : 60,
      "noteName" : "C4",
      "velocity" : 80,
      "durationTicks" : 113,
      "durationSeconds" : 0.15026575208333526
    }, {
      "type" : "note",
      "tick" : 30840,
      "timeSeconds" : 41.01058225,
      "channel" : 0,
      "noteNumber" : 65,
      "noteName" : "F4",
      "velocity" : 80,
      "durationTicks" : 113,
      "durationSeconds" : 0.15026575208333526
    }, {
      "type" : "note",
      "tick" : 30960,
      "timeSeconds" : 41.1701565,
      "channel" : 0,
      "noteNumber" : 64,
      "noteName" : "E4",
      "velocity" : 80,
      "durationTicks" : 113,
      "durationSeconds" : 0.15026575208333526
    }, {
      "type" : "note",
      "tick" : 31080,
      "timeSeconds" : 41.32973075,
      "channel" : 0,
      "noteNumber" : 57,
      "noteName" : "A3",
      "velocity" : 80,
      "durationTicks" : 113,
      "durationSeconds" : 0.15026575208332815
    }, {
      "type" : "note",
      "tick" : 31200,
      "timeSeconds" : 41.489305,
      "channel" : 0,
      "noteNumber" : 60,
      "noteName" : "C4",
      "velocity" : 80,
      "durationTicks" : 113,
      "durationSeconds" : 0.15026575208332815
    }, {
      "type" : "note",
      "tick" : 31320,
      "timeSeconds" : 41.64887925,
      "channel" : 0,
      "noteNumber" : 65,
      "noteName" : "F4",
      "velocity" : 80,
      "durationTicks" : 113,
      "durationSeconds" : 0.15026575208333526
    }, {
      "type" : "note",
      "tick" : 31440,
      "timeSeconds" : 41.8084535,
      "channel" : 0,
      "noteNumber" : 64,
      "noteName" : "E4",
      "velocity" : 80,
      "durationTicks" : 113,
      "durationSeconds" : 0.15026575208333526
    }, {
      "type" : "note",
      "tick" : 31560,
      "timeSeconds" : 41.96802775,
      "channel" : 0,
      "noteNumber" : 57,
      "noteName" : "A3",
      "velocity" : 80,
      "durationTicks" : 113,
      "durationSeconds" : 0.15026575208333526
    }, {
      "type" : "note",
      "tick" : 31680,
      "timeSeconds" : 42.127602,
      "channel" : 0,
      "noteNumber" : 60,
      "noteName" : "C4",
      "velocity" : 80,
      "durationTicks" : 113,
      "durationSeconds" : 0.15026575208332815
    }, {
      "type" : "note",
      "tick" : 31800,
      "timeSeconds" : 42.28717625,
      "channel" : 0,
      "noteNumber" : 65,
      "noteName" : "F4",
      "velocity" : 80,
      "durationTicks" : 113,
      "durationSeconds" : 0.15026575208332815
    }, {
      "type" : "note",
      "tick" : 31920,
      "timeSeconds" : 42.4467505,
      "channel" : 0,
      "noteNumber" : 64,
      "noteName" : "E4",
      "velocity" : 80,
      "durationTicks" : 113,
      "durationSeconds" : 0.15026575208333526
    }, {
      "type" : "note",
      "tick" : 32040,
      "timeSeconds" : 42.60632475,
      "channel" : 0,
      "noteNumber" : 57,
      "noteName" : "A3",
      "velocity" : 80,
      "durationTicks" : 113,
      "durationSeconds" : 0.15026575208333526
    }, {
      "type" : "note",
      "tick" : 32160,
      "timeSeconds" : 42.765899,
      "channel" : 0,
      "noteNumber" : 60,
      "noteName" : "C4",
      "velocity" : 80,
      "durationTicks" : 113,
      "durationSeconds" : 0.15026575208333526
    }, {
      "type" : "note",
      "tick" : 32280,
      "timeSeconds" : 42.92547325,
      "channel" : 0,
      "noteNumber" : 65,
      "noteName" : "F4",
      "velocity" : 80,
      "durationTicks" : 113,
      "durationSeconds" : 0.15026575208332815
    }, {
      "type" : "note",
      "tick" : 32400,
      "timeSeconds" : 43.0850475,
      "channel" : 0,
      "noteNumber" : 64,
      "noteName" : "E4",
      "velocity" : 80,
      "durationTicks" : 113,
      "durationSeconds" : 0.15026575208332815
    }, {
      "type" : "note",
      "tick" : 32520,
      "timeSeconds" : 43.24462175,
      "channel" : 0,
      "noteNumber" : 57,
      "noteName" : "A3",
      "velocity" : 80,
      "durationTicks" : 113,
      "durationSeconds" : 0.15026575208333526
    }, {
      "type" : "note",
      "tick" : 32640,
      "timeSeconds" : 43.404196,
      "channel" : 0,
      "noteNumber" : 60,
      "noteName" : "C4",
      "velocity" : 80,
      "durationTicks" : 113,
      "durationSeconds" : 0.15026575208333526
    }, {
      "type" : "note",
      "tick" : 32760,
      "timeSeconds" : 43.56377025,
      "channel" : 0,
      "noteNumber" : 65,
      "noteName" : "F4",
      "velocity" : 80,
      "durationTicks" : 113,
      "durationSeconds" : 0.15026575208333526
    }, {
      "type" : "note",
      "tick" : 30240,
      "timeSeconds" : 40.212711,
      "channel" : 0,
      "noteNumber" : 41,
      "noteName" : "F2",
      "velocity" : 80,
      "durationTicks" : 2735,
      "durationSeconds" : 3.636963114583338
    }, {
      "type" : "note",
      "tick" : 30240,
      "timeSeconds" : 40.212711,
      "channel" : 0,
      "noteNumber" : 48,
      "noteName" : "C3",
      "velocity" : 80,
      "durationTicks" : 2735,
      "durationSeconds" : 3.636963114583338
    }, {
      "type" : "note",
      "tick" : 30240,
      "timeSeconds" : 40.212711,
      "channel" : 0,
      "noteNumber" : 53,
      "noteName" : "F3",
      "velocity" : 80,
      "durationTicks" : 2735,
      "durationSeconds" : 3.636963114583338
    }, {
      "type" : "note",
      "tick" : 32880,
      "timeSeconds" : 43.7233445,
      "channel" : 0,
      "noteNumber" : 64,
      "noteName" : "E4",
      "velocity" : 80,
      "durationTicks" : 113,
      "durationSeconds" : 0.15026575208332815
    }, {
      "type" : "note",
      "tick" : 33000,
      "timeSeconds" : 43.88291875,
      "channel" : 0,
      "noteNumber" : 57,
      "noteName" : "A3",
      "velocity" : 80,
      "durationTicks" : 113,
      "durationSeconds" : 0.15026575208332815
    }, {
      "type" : "control_change",
      "tick" : 33121,
      "timeSeconds" : 44.043822785416666,
      "channel" : 0,
      "controller" : 64,
      "value" : 0
    }, {
      "type" : "control_change",
      "tick" : 33122,
      "timeSeconds" : 44.04515257083333,
      "channel" : 0,
      "controller" : 64,
      "value" : 127
    }, {
      "type" : "note",
      "tick" : 33120,
      "timeSeconds" : 44.042493,
      "channel" : 0,
      "noteNumber" : 59,
      "noteName" : "B3",
      "velocity" : 80,
      "durationTicks" : 113,
      "durationSeconds" : 0.15026575208333526
    }, {
      "type" : "note",
      "tick" : 33240,
      "timeSeconds" : 44.20206725,
      "channel" : 0,
      "noteNumber" : 67,
      "noteName" : "G4",
      "velocity" : 80,
      "durationTicks" : 113,
      "durationSeconds" : 0.15026575208333526
    }, {
      "type" : "note",
      "tick" : 33360,
      "timeSeconds" : 44.3616415,
      "channel" : 0,
      "noteNumber" : 64,
      "noteName" : "E4",
      "velocity" : 80,
      "durationTicks" : 113,
      "durationSeconds" : 0.15026575208333526
    }, {
      "type" : "note",
      "tick" : 33480,
      "timeSeconds" : 44.52121575,
      "channel" : 0,
      "noteNumber" : 55,
      "noteName" : "G3",
      "velocity" : 80,
      "durationTicks" : 113,
      "durationSeconds" : 0.15026575208332815
    }, {
      "type" : "note",
      "tick" : 33600,
      "timeSeconds" : 44.68079,
      "channel" : 0,
      "noteNumber" : 59,
      "noteName" : "B3",
      "velocity" : 80,
      "durationTicks" : 113,
      "durationSeconds" : 0.15026575208332815
    }, {
      "type" : "note",
      "tick" : 33720,
      "timeSeconds" : 44.84036425,
      "channel" : 0,
      "noteNumber" : 67,
      "noteName" : "G4",
      "velocity" : 80,
      "durationTicks" : 113,
      "durationSeconds" : 0.15026575208333526
    }, {
      "type" : "note",
      "tick" : 33840,
      "timeSeconds" : 44.9999385,
      "channel" : 0,
      "noteNumber" : 64,
      "noteName" : "E4",
      "velocity" : 80,
      "durationTicks" : 113,
      "durationSeconds" : 0.15026575208333526
    }, {
      "type" : "note",
      "tick" : 33960,
      "timeSeconds" : 45.15951275,
      "channel" : 0,
      "noteNumber" : 55,
      "noteName" : "G3",
      "velocity" : 80,
      "durationTicks" : 113,
      "durationSeconds" : 0.15026575208333526
    }, {
      "type" : "note",
      "tick" : 34080,
      "timeSeconds" : 45.319087,
      "channel" : 0,
      "noteNumber" : 59,
      "noteName" : "B3",
      "velocity" : 80,
      "durationTicks" : 113,
      "durationSeconds" : 0.15026575208332815
    }, {
      "type" : "note",
      "tick" : 34200,
      "timeSeconds" : 45.47866125,
      "channel" : 0,
      "noteNumber" : 67,
      "noteName" : "G4",
      "velocity" : 80,
      "durationTicks" : 113,
      "durationSeconds" : 0.15026575208332815
    }, {
      "type" : "note",
      "tick" : 34320,
      "timeSeconds" : 45.6382355,
      "channel" : 0,
      "noteNumber" : 64,
      "noteName" : "E4",
      "velocity" : 80,
      "durationTicks" : 113,
      "durationSeconds" : 0.15026575208333526
    }, {
      "type" : "note",
      "tick" : 34440,
      "timeSeconds" : 45.79780975,
      "channel" : 0,
      "noteNumber" : 55,
      "noteName" : "G3",
      "velocity" : 80,
      "durationTicks" : 113,
      "durationSeconds" : 0.15026575208333526
    }, {
      "type" : "note",
      "tick" : 34560,
      "timeSeconds" : 45.957384,
      "channel" : 0,
      "noteNumber" : 59,
      "noteName" : "B3",
      "velocity" : 80,
      "durationTicks" : 113,
      "durationSeconds" : 0.15026575208333526
    }, {
      "type" : "note",
      "tick" : 34680,
      "timeSeconds" : 46.11695825,
      "channel" : 0,
      "noteNumber" : 67,
      "noteName" : "G4",
      "velocity" : 80,
      "durationTicks" : 113,
      "durationSeconds" : 0.15026575208332815
    }, {
      "type" : "note",
      "tick" : 34800,
      "timeSeconds" : 46.2765325,
      "channel" : 0,
      "noteNumber" : 64,
      "noteName" : "E4",
      "velocity" : 80,
      "durationTicks" : 113,
      "durationSeconds" : 0.15026575208332815
    }, {
      "type" : "note",
      "tick" : 34920,
      "timeSeconds" : 46.43610675,
      "channel" : 0,
      "noteNumber" : 55,
      "noteName" : "G3",
      "velocity" : 80,
      "durationTicks" : 113,
      "durationSeconds" : 0.15026575208333526
    }, {
      "type" : "note",
      "tick" : 35040,
      "timeSeconds" : 46.595681,
      "channel" : 0,
      "noteNumber" : 59,
      "noteName" : "B3",
      "velocity" : 80,
      "durationTicks" : 113,
      "durationSeconds" : 0.15026575208333526
    }, {
      "type" : "note",
      "tick" : 35160,
      "timeSeconds" : 46.75525525,
      "channel" : 0,
      "noteNumber" : 67,
      "noteName" : "G4",
      "velocity" : 80,
      "durationTicks" : 113,
      "durationSeconds" : 0.15026575208333526
    }, {
      "type" : "note",
      "tick" : 35280,
      "timeSeconds" : 46.9148295,
      "channel" : 0,
      "noteNumber" : 64,
      "noteName" : "E4",
      "velocity" : 80,
      "durationTicks" : 113,
      "durationSeconds" : 0.15026575208332815
    }, {
      "type" : "note",
      "tick" : 35400,
      "timeSeconds" : 47.07440375,
      "channel" : 0,
      "noteNumber" : 55,
      "noteName" : "G3",
      "velocity" : 80,
      "durationTicks" : 113,
      "durationSeconds" : 0.15026575208332815
    }, {
      "type" : "note",
      "tick" : 35520,
      "timeSeconds" : 47.233978,
      "channel" : 0,
      "noteNumber" : 59,
      "noteName" : "B3",
      "velocity" : 80,
      "durationTicks" : 113,
      "durationSeconds" : 0.15026575208333526
    }, {
      "type" : "note",
      "tick" : 35640,
      "timeSeconds" : 47.39355225,
      "channel" : 0,
      "noteNumber" : 67,
      "noteName" : "G4",
      "velocity" : 80,
      "durationTicks" : 113,
      "durationSeconds" : 0.15026575208333526
    }, {
      "type" : "note",
      "tick" : 33120,
      "timeSeconds" : 44.042493,
      "channel" : 0,
      "noteNumber" : 43,
      "noteName" : "G2",
      "velocity" : 80,
      "durationTicks" : 2735,
      "durationSeconds" : 3.636963114583331
    }, {
      "type" : "note",
      "tick" : 33120,
      "timeSeconds" : 44.042493,
      "channel" : 0,
      "noteNumber" : 52,
      "noteName" : "E3",
      "velocity" : 80,
      "durationTicks" : 2735,
      "durationSeconds" : 3.636963114583331
    }, {
      "type" : "note",
      "tick" : 35760,
      "timeSeconds" : 47.5531265,
      "channel" : 0,
      "noteNumber" : 64,
      "noteName" : "E4",
      "velocity" : 80,
      "durationTicks" : 113,
      "durationSeconds" : 0.15026575208333526
    }, {
      "type" : "note",
      "tick" : 35880,
      "timeSeconds" : 47.71270075,
      "channel" : 0,
      "noteNumber" : 55,
      "noteName" : "G3",
      "velocity" : 80,
      "durationTicks" : 113,
      "durationSeconds" : 0.15026575208332815
    }, {
      "type" : "control_change",
      "tick" : 36001,
      "timeSeconds" : 47.87360478541667,
      "channel" : 0,
      "controller" : 64,
      "value" : 0
    }, {
      "type" : "control_change",
      "tick" : 36002,
      "timeSeconds" : 47.87493457083333,
      "channel" : 0,
      "controller" : 64,
      "value" : 127
    }, {
      "type" : "note",
      "tick" : 36000,
      "timeSeconds" : 47.872275,
      "channel" : 0,
      "noteNumber" : 60,
      "noteName" : "C4",
      "velocity" : 80,
      "durationTicks" : 113,
      "durationSeconds" : 0.15026575208332815
    }, {
      "type" : "note",
      "tick" : 36120,
      "timeSeconds" : 48.03184925,
      "channel" : 0,
      "noteNumber" : 65,
      "noteName" : "F4",
      "velocity" : 80,
      "durationTicks" : 113,
      "durationSeconds" : 0.15026575208333526
    }, {
      "type" : "note",
      "tick" : 36240,
      "timeSeconds" : 48.1914235,
      "channel" : 0,
      "noteNumber" : 64,
      "noteName" : "E4",
      "velocity" : 80,
      "durationTicks" : 113,
      "durationSeconds" : 0.15026575208333526
    }, {
      "type" : "note",
      "tick" : 36360,
      "timeSeconds" : 48.35099775,
      "channel" : 0,
      "noteNumber" : 57,
      "noteName" : "A3",
      "velocity" : 80,
      "durationTicks" : 113,
      "durationSeconds" : 0.15026575208333526
    }, {
      "type" : "note",
      "tick" : 36480,
      "timeSeconds" : 48.510572,
      "channel" : 0,
      "noteNumber" : 60,
      "noteName" : "C4",
      "velocity" : 80,
      "durationTicks" : 113,
      "durationSeconds" : 0.15026575208332815
    }, {
      "type" : "note",
      "tick" : 36600,
      "timeSeconds" : 48.67014625,
      "channel" : 0,
      "noteNumber" : 65,
      "noteName" : "F4",
      "velocity" : 80,
      "durationTicks" : 113,
      "durationSeconds" : 0.15026575208332815
    }, {
      "type" : "note",
      "tick" : 36720,
      "timeSeconds" : 48.8297205,
      "channel" : 0,
      "noteNumber" : 64,
      "noteName" : "E4",
      "velocity" : 80,
      "durationTicks" : 113,
      "durationSeconds" : 0.15026575208333526
    }, {
      "type" : "note",
      "tick" : 36840,
      "timeSeconds" : 48.98929475,
      "channel" : 0,
      "noteNumber" : 57,
      "noteName" : "A3",
      "velocity" : 80,
      "durationTicks" : 113,
      "durationSeconds" : 0.15026575208333526
    }, {
      "type" : "note",
      "tick" : 36960,
      "timeSeconds" : 49.148869,
      "channel" : 0,
      "noteNumber" : 60,
      "noteName" : "C4",
      "velocity" : 80,
      "durationTicks" : 113,
      "durationSeconds" : 0.15026575208333526
    }, {
      "type" : "note",
      "tick" : 37080,
      "timeSeconds" : 49.30844325,
      "channel" : 0,
      "noteNumber" : 65,
      "noteName" : "F4",
      "velocity" : 80,
      "durationTicks" : 113,
      "durationSeconds" : 0.15026575208332815
    }, {
      "type" : "note",
      "tick" : 37200,
      "timeSeconds" : 49.4680175,
      "channel" : 0,
      "noteNumber" : 64,
      "noteName" : "E4",
      "velocity" : 80,
      "durationTicks" : 113,
      "durationSeconds" : 0.15026575208332815
    }, {
      "type" : "note",
      "tick" : 37320,
      "timeSeconds" : 49.62759175,
      "channel" : 0,
      "noteNumber" : 57,
      "noteName" : "A3",
      "velocity" : 80,
      "durationTicks" : 113,
      "durationSeconds" : 0.15026575208333526
    }, {
      "type" : "note",
      "tick" : 37440,
      "timeSeconds" : 49.787166,
      "channel" : 0,
      "noteNumber" : 60,
      "noteName" : "C4",
      "velocity" : 80,
      "durationTicks" : 113,
      "durationSeconds" : 0.15026575208333526
    }, {
      "type" : "note",
      "tick" : 37560,
      "timeSeconds" : 49.94674025,
      "channel" : 0,
      "noteNumber" : 65,
      "noteName" : "F4",
      "velocity" : 80,
      "durationTicks" : 113,
      "durationSeconds" : 0.15026575208333526
    }, {
      "type" : "note",
      "tick" : 37680,
      "timeSeconds" : 50.1063145,
      "channel" : 0,
      "noteNumber" : 64,
      "noteName" : "E4",
      "velocity" : 80,
      "durationTicks" : 113,
      "durationSeconds" : 0.15026575208332815
    }, {
      "type" : "note",
      "tick" : 37800,
      "timeSeconds" : 50.26588875,
      "channel" : 0,
      "noteNumber" : 57,
      "noteName" : "A3",
      "velocity" : 80,
      "durationTicks" : 113,
      "durationSeconds" : 0.15026575208332815
    }, {
      "type" : "note",
      "tick" : 37920,
      "timeSeconds" : 50.425463,
      "channel" : 0,
      "noteNumber" : 60,
      "noteName" : "C4",
      "velocity" : 80,
      "durationTicks" : 113,
      "durationSeconds" : 0.15026575208333526
    }, {
      "type" : "note",
      "tick" : 38040,
      "timeSeconds" : 50.58503725,
      "channel" : 0,
      "noteNumber" : 65,
      "noteName" : "F4",
      "velocity" : 80,
      "durationTicks" : 113,
      "durationSeconds" : 0.15026575208333526
    }, {
      "type" : "note",
      "tick" : 38160,
      "timeSeconds" : 50.7446115,
      "channel" : 0,
      "noteNumber" : 64,
      "noteName" : "E4",
      "velocity" : 80,
      "durationTicks" : 113,
      "durationSeconds" : 0.15026575208333526
    }, {
      "type" : "note",
      "tick" : 38280,
      "timeSeconds" : 50.90418575,
      "channel" : 0,
      "noteNumber" : 57,
      "noteName" : "A3",
      "velocity" : 80,
      "durationTicks" : 113,
      "durationSeconds" : 0.15026575208332815
    }, {
      "type" : "note",
      "tick" : 38400,
      "timeSeconds" : 51.06376,
      "channel" : 0,
      "noteNumber" : 60,
      "noteName" : "C4",
      "velocity" : 80,
      "durationTicks" : 113,
      "durationSeconds" : 0.15026575208332815
    }, {
      "type" : "note",
      "tick" : 38520,
      "timeSeconds" : 51.22333425,
      "channel" : 0,
      "noteNumber" : 65,
      "noteName" : "F4",
      "velocity" : 80,
      "durationTicks" : 113,
      "durationSeconds" : 0.15026575208333526
    }, {
      "type" : "note",
      "tick" : 36000,
      "timeSeconds" : 47.872275,
      "channel" : 0,
      "noteNumber" : 45,
      "noteName" : "A2",
      "velocity" : 80,
      "durationTicks" : 2735,
      "durationSeconds" : 3.636963114583331
    }, {
      "type" : "note",
      "tick" : 36000,
      "timeSeconds" : 47.872275,
      "channel" : 0,
      "noteNumber" : 52,
      "noteName" : "E3",
      "velocity" : 80,
      "durationTicks" : 2735,
      "durationSeconds" : 3.636963114583331
    }, {
      "type" : "note",
      "tick" : 38640,
      "timeSeconds" : 51.3829085,
      "channel" : 0,
      "noteNumber" : 64,
      "noteName" : "E4",
      "velocity" : 80,
      "durationTicks" : 113,
      "durationSeconds" : 0.15026575208333526
    }, {
      "type" : "note",
      "tick" : 38760,
      "timeSeconds" : 51.54248275,
      "channel" : 0,
      "noteNumber" : 57,
      "noteName" : "A3",
      "velocity" : 80,
      "durationTicks" : 113,
      "durationSeconds" : 0.15026575208333526
    }, {
      "type" : "control_change",
      "tick" : 38881,
      "timeSeconds" : 51.70338678541667,
      "channel" : 0,
      "controller" : 64,
      "value" : 0
    }, {
      "type" : "control_change",
      "tick" : 38882,
      "timeSeconds" : 51.704716570833334,
      "channel" : 0,
      "controller" : 64,
      "value" : 127
    }, {
      "type" : "note",
      "tick" : 38880,
      "timeSeconds" : 51.702057,
      "channel" : 0,
      "noteNumber" : 53,
      "noteName" : "F3",
      "velocity" : 80,
      "durationTicks" : 227,
      "durationSeconds" : 0.3018612895833286
    }, {
      "type" : "note",
      "tick" : 39120,
      "timeSeconds" : 52.0212055,
      "channel" : 0,
      "noteNumber" : 53,
      "noteName" : "F3",
      "velocity" : 80,
      "durationTicks" : 227,
      "durationSeconds" : 0.3018612895833357
    }, {
      "type" : "note",
      "tick" : 39360,
      "timeSeconds" : 52.340354,
      "channel" : 0,
      "noteNumber" : 53,
      "noteName" : "F3",
      "velocity" : 80,
      "durationTicks" : 227,
      "durationSeconds" : 0.3018612895833357
    }, {
      "type" : "note",
      "tick" : 39600,
      "timeSeconds" : 52.6595025,
      "channel" : 0,
      "noteNumber" : 53,
      "noteName" : "F3",
      "velocity" : 80,
      "durationTicks" : 227,
      "durationSeconds" : 0.3018612895833286
    }, {
      "type" : "note",
      "tick" : 39840,
      "timeSeconds" : 52.978651,
      "channel" : 0,
      "noteNumber" : 53,
      "noteName" : "F3",
      "velocity" : 80,
      "durationTicks" : 227,
      "durationSeconds" : 0.3018612895833357
    }, {
      "type" : "note",
      "tick" : 38880,
      "timeSeconds" : 51.702057,
      "channel" : 0,
      "noteNumber" : 41,
      "noteName" : "F2",
      "velocity" : 80,
      "durationTicks" : 1367,
      "durationSeconds" : 1.817816664583333
    }, {
      "type" : "note",
      "tick" : 38880,
      "timeSeconds" : 51.702057,
      "channel" : 0,
      "noteNumber" : 48,
      "noteName" : "C3",
      "velocity" : 80,
      "durationTicks" : 1367,
      "durationSeconds" : 1.817816664583333
    }, {
      "type" : "note",
      "tick" : 38880,
      "timeSeconds" : 51.702057,
      "channel" : 0,
      "noteNumber" : 57,
      "noteName" : "A3",
      "velocity" : 80,
      "durationTicks" : 1367,
      "durationSeconds" : 1.817816664583333
    }, {
      "type" : "note",
      "tick" : 40080,
      "timeSeconds" : 53.2977995,
      "channel" : 0,
      "noteNumber" : 53,
      "noteName" : "F3",
      "velocity" : 80,
      "durationTicks" : 227,
      "durationSeconds" : 0.3018612895833286
    }, {
      "type" : "control_change",
      "tick" : 40321,
      "timeSeconds" : 53.618277785416666,
      "channel" : 0,
      "controller" : 64,
      "value" : 0
    }, {
      "type" : "control_change",
      "tick" : 40322,
      "timeSeconds" : 53.61960757083333,
      "channel" : 0,
      "controller" : 64,
      "value" : 127
    }, {
      "type" : "note",
      "tick" : 40320,
      "timeSeconds" : 53.616948,
      "channel" : 0,
      "noteNumber" : 41,
      "noteName" : "F2",
      "velocity" : 80,
      "durationTicks" : 227,
      "durationSeconds" : 0.3018612895833357
    }, {
      "type" : "note",
      "tick" : 40560,
      "timeSeconds" : 53.9360965,
      "channel" : 0,
      "noteNumber" : 41,
      "noteName" : "F2",
      "velocity" : 80,
      "durationTicks" : 227,
      "durationSeconds" : 0.3018612895833357
    }, {
      "type" : "note",
      "tick" : 40800,
      "timeSeconds" : 54.255245,
      "channel" : 0,
      "noteNumber" : 41,
      "noteName" : "F2",
      "velocity" : 80,
      "durationTicks" : 227,
      "durationSeconds" : 0.3018612895833286
    }, {
      "type" : "note",
      "tick" : 41040,
      "timeSeconds" : 54.5743935,
      "channel" : 0,
      "noteNumber" : 41,
      "noteName" : "F2",
      "velocity" : 80,
      "durationTicks" : 227,
      "durationSeconds" : 0.3018612895833357
    }, {
      "type" : "note",
      "tick" : 41280,
      "timeSeconds" : 54.893542,
      "channel" : 0,
      "noteNumber" : 41,
      "noteName" : "F2",
      "velocity" : 80,
      "durationTicks" : 227,
      "durationSeconds" : 0.3018612895833357
    }, {
      "type" : "note",
      "tick" : 40320,
      "timeSeconds" : 53.616948,
      "channel" : 0,
      "noteNumber" : 48,
      "noteName" : "C3",
      "velocity" : 80,
      "durationTicks" : 1367,
      "durationSeconds" : 1.817816664583333
    }, {
      "type" : "note",
      "tick" : 40320,
      "timeSeconds" : 53.616948,
      "channel" : 0,
      "noteNumber" : 57,
      "noteName" : "A3",
      "velocity" : 80,
      "durationTicks" : 1367,
      "durationSeconds" : 1.817816664583333
    }, {
      "type" : "note",
      "tick" : 41520,
      "timeSeconds" : 55.2126905,
      "channel" : 0,
      "noteNumber" : 41,
      "noteName" : "F2",
      "velocity" : 80,
      "durationTicks" : 227,
      "durationSeconds" : 0.3018612895833357
    }, {
      "type" : "control_change",
      "tick" : 41761,
      "timeSeconds" : 55.53316878541666,
      "channel" : 0,
      "controller" : 64,
      "value" : 0
    }, {
      "type" : "control_change",
      "tick" : 41762,
      "timeSeconds" : 55.534498570833335,
      "channel" : 0,
      "controller" : 64,
      "value" : 127
    }, {
      "type" : "note",
      "tick" : 41760,
      "timeSeconds" : 55.531839,
      "channel" : 0,
      "noteNumber" : 55,
      "noteName" : "G3",
      "velocity" : 80,
      "durationTicks" : 227,
      "durationSeconds" : 0.3018612895833357
    }, {
      "type" : "note",
      "tick" : 42000,
      "timeSeconds" : 55.8509875,
      "channel" : 0,
      "noteNumber" : 55,
      "noteName" : "G3",
      "velocity" : 80,
      "durationTicks" : 227,
      "durationSeconds" : 0.3018612895833286
    }, {
      "type" : "note",
      "tick" : 42240,
      "timeSeconds" : 56.170136,
      "channel" : 0,
      "noteNumber" : 55,
      "noteName" : "G3",
      "velocity" : 80,
      "durationTicks" : 227,
      "durationSeconds" : 0.3018612895833357
    }, {
      "type" : "note",
      "tick" : 42480,
      "timeSeconds" : 56.4892845,
      "channel" : 0,
      "noteNumber" : 55,
      "noteName" : "G3",
      "velocity" : 80,
      "durationTicks" : 227,
      "durationSeconds" : 0.3018612895833357
    }, {
      "type" : "note",
      "tick" : 42720,
      "timeSeconds" : 56.808433,
      "channel" : 0,
      "noteNumber" : 55,
      "noteName" : "G3",
      "velocity" : 80,
      "durationTicks" : 227,
      "durationSeconds" : 0.3018612895833357
    }, {
      "type" : "note",
      "tick" : 41760,
      "timeSeconds" : 55.531839,
      "channel" : 0,
      "noteNumber" : 43,
      "noteName" : "G2",
      "velocity" : 80,
      "durationTicks" : 1367,
      "durationSeconds" : 1.817816664583333
    }, {
      "type" : "note",
      "tick" : 41760,
      "timeSeconds" : 55.531839,
      "channel" : 0,
      "noteNumber" : 50,
      "noteName" : "D3",
      "velocity" : 80,
      "durationTicks" : 1367,
      "durationSeconds" : 1.817816664583333
    }, {
      "type" : "note",
      "tick" : 41760,
      "timeSeconds" : 55.531839,
      "channel" : 0,
      "noteNumber" : 59,
      "noteName" : "B3",
      "velocity" : 80,
      "durationTicks" : 1367,
      "durationSeconds" : 1.817816664583333
    }, {
      "type" : "note",
      "tick" : 42960,
      "timeSeconds" : 57.1275815,
      "channel" : 0,
      "noteNumber" : 55,
      "noteName" : "G3",
      "velocity" : 80,
      "durationTicks" : 227,
      "durationSeconds" : 0.3018612895833357
    }, {
      "type" : "control_change",
      "tick" : 43201,
      "timeSeconds" : 57.44805978541667,
      "channel" : 0,
      "controller" : 64,
      "value" : 0
    }, {
      "type" : "control_change",
      "tick" : 43202,
      "timeSeconds" : 57.44938957083333,
      "channel" : 0,
      "controller" : 64,
      "value" : 127
    }, {
      "type" : "note",
      "tick" : 43200,
      "timeSeconds" : 57.44673,
      "channel" : 0,
      "noteNumber" : 43,
      "noteName" : "G2",
      "velocity" : 80,
      "durationTicks" : 227,
      "durationSeconds" : 0.3018612895833286
    }, {
      "type" : "note",
      "tick" : 43440,
      "timeSeconds" : 57.7658785,
      "channel" : 0,
      "noteNumber" : 43,
      "noteName" : "G2",
      "velocity" : 80,
      "durationTicks" : 227,
      "durationSeconds" : 0.3018612895833357
    }, {
      "type" : "note",
      "tick" : 43680,
      "timeSeconds" : 58.085027,
      "channel" : 0,
      "noteNumber" : 43,
      "noteName" : "G2",
      "velocity" : 80,
      "durationTicks" : 227,
      "durationSeconds" : 0.3018612895833357
    }, {
      "type" : "note",
      "tick" : 43920,
      "timeSeconds" : 58.4041755,
      "channel" : 0,
      "noteNumber" : 43,
      "noteName" : "G2",
      "velocity" : 80,
      "durationTicks" : 227,
      "durationSeconds" : 0.3018612895833357
    }, {
      "type" : "note",
      "tick" : 44160,
      "timeSeconds" : 58.723324,
      "channel" : 0,
      "noteNumber" : 43,
      "noteName" : "G2",
      "velocity" : 80,
      "durationTicks" : 227,
      "durationSeconds" : 0.3018612895833357
    }, {
      "type" : "note",
      "tick" : 43200,
      "timeSeconds" : 57.44673,
      "channel" : 0,
      "noteNumber" : 50,
      "noteName" : "D3",
      "velocity" : 80,
      "durationTicks" : 1367,
      "durationSeconds" : 1.817816664583333
    }, {
      "type" : "note",
      "tick" : 43200,
      "timeSeconds" : 57.44673,
      "channel" : 0,
      "noteNumber" : 59,
      "noteName" : "B3",
      "velocity" : 80,
      "durationTicks" : 1367,
      "durationSeconds" : 1.817816664583333
    }, {
      "type" : "note",
      "tick" : 44400,
      "timeSeconds" : 59.0424725,
      "channel" : 0,
      "noteNumber" : 43,
      "noteName" : "G2",
      "velocity" : 80,
      "durationTicks" : 227,
      "durationSeconds" : 0.3018612895833286
    }, {
      "type" : "control_change",
      "tick" : 44641,
      "timeSeconds" : 59.362950785416665,
      "channel" : 0,
      "controller" : 64,
      "value" : 0
    }, {
      "type" : "control_change",
      "tick" : 44642,
      "timeSeconds" : 59.36428057083333,
      "channel" : 0,
      "controller" : 64,
      "value" : 127
    }, {
      "type" : "note",
      "tick" : 44640,
      "timeSeconds" : 59.361621,
      "channel" : 0,
      "noteNumber" : 57,
      "noteName" : "A3",
      "velocity" : 80,
      "durationTicks" : 227,
      "durationSeconds" : 0.3018612895833357
    }, {
      "type" : "note",
      "tick" : 44880,
      "timeSeconds" : 59.6807695,
      "channel" : 0,
      "noteNumber" : 57,
      "noteName" : "A3",
      "velocity" : 80,
      "durationTicks" : 227,
      "durationSeconds" : 0.3018612895833357
    }, {
      "type" : "note",
      "tick" : 45120,
      "timeSeconds" : 59.999918,
      "channel" : 0,
      "noteNumber" : 57,
      "noteName" : "A3",
      "velocity" : 80,
      "durationTicks" : 227,
      "durationSeconds" : 0.3018612895833357
    }, {
      "type" : "note",
      "tick" : 45360,
      "timeSeconds" : 60.3190665,
      "channel" : 0,
      "noteNumber" : 57,
      "noteName" : "A3",
      "velocity" : 80,
      "durationTicks" : 227,
      "durationSeconds" : 0.3018612895833357
    }, {
      "type" : "note",
      "tick" : 45600,
      "timeSeconds" : 60.638215,
      "channel" : 0,
      "noteNumber" : 57,
      "noteName" : "A3",
      "velocity" : 80,
      "durationTicks" : 227,
      "durationSeconds" : 0.3018612895833286
    }, {
      "type" : "note",
      "tick" : 44640,
      "timeSeconds" : 59.361621,
      "channel" : 0,
      "noteNumber" : 45,
      "noteName" : "A2",
      "velocity" : 80,
      "durationTicks" : 1367,
      "durationSeconds" : 1.817816664583333
    }, {
      "type" : "note",
      "tick" : 44640,
      "timeSeconds" : 59.361621,
      "channel" : 0,
      "noteNumber" : 52,
      "noteName" : "E3",
      "velocity" : 80,
      "durationTicks" : 1367,
      "durationSeconds" : 1.817816664583333
    }, {
      "type" : "note",
      "tick" : 44640,
      "timeSeconds" : 59.361621,
      "channel" : 0,
      "noteNumber" : 60,
      "noteName" : "C4",
      "velocity" : 80,
      "durationTicks" : 1367,
      "durationSeconds" : 1.817816664583333
    }, {
      "type" : "note",
      "tick" : 45840,
      "timeSeconds" : 60.9573635,
      "channel" : 0,
      "noteNumber" : 57,
      "noteName" : "A3",
      "velocity" : 80,
      "durationTicks" : 227,
      "durationSeconds" : 0.3018612895833357
    }, {
      "type" : "control_change",
      "tick" : 46081,
      "timeSeconds" : 61.27784178541667,
      "channel" : 0,
      "controller" : 64,
      "value" : 0
    }, {
      "type" : "control_change",
      "tick" : 46082,
      "timeSeconds" : 61.279171570833334,
      "channel" : 0,
      "controller" : 64,
      "value" : 127
    }, {
      "type" : "note",
      "tick" : 46080,
      "timeSeconds" : 61.276512,
      "channel" : 0,
      "noteNumber" : 45,
      "noteName" : "A2",
      "velocity" : 80,
      "durationTicks" : 227,
      "durationSeconds" : 0.3018612895833357
    }, {
      "type" : "note",
      "tick" : 46320,
      "timeSeconds" : 61.5956605,
      "channel" : 0,
      "noteNumber" : 45,
      "noteName" : "A2",
      "velocity" : 80,
      "durationTicks" : 227,
      "durationSeconds" : 0.3018612895833357
    }, {
      "type" : "note",
      "tick" : 46560,
      "timeSeconds" : 61.914809,
      "channel" : 0,
      "noteNumber" : 45,
      "noteName" : "A2",
      "velocity" : 80,
      "durationTicks" : 227,
      "durationSeconds" : 0.3018612895833357
    }, {
      "type" : "note",
      "tick" : 46800,
      "timeSeconds" : 62.2339575,
      "channel" : 0,
      "noteNumber" : 45,
      "noteName" : "A2",
      "velocity" : 80,
      "durationTicks" : 227,
      "durationSeconds" : 0.3018612895833286
    }, {
      "type" : "note",
      "tick" : 47040,
      "timeSeconds" : 62.553106,
      "channel" : 0,
      "noteNumber" : 45,
      "noteName" : "A2",
      "velocity" : 80,
      "durationTicks" : 227,
      "durationSeconds" : 0.3018612895833357
    }, {
      "type" : "note",
      "tick" : 46080,
      "timeSeconds" : 61.276512,
      "channel" : 0,
      "noteNumber" : 52,
      "noteName" : "E3",
      "velocity" : 80,
      "durationTicks" : 1367,
      "durationSeconds" : 1.81781666458334
    }, {
      "type" : "note",
      "tick" : 46080,
      "timeSeconds" : 61.276512,
      "channel" : 0,
      "noteNumber" : 60,
      "noteName" : "C4",
      "velocity" : 80,
      "durationTicks" : 1367,
      "durationSeconds" : 1.81781666458334
    }, {
      "type" : "note",
      "tick" : 47280,
      "timeSeconds" : 62.8722545,
      "channel" : 0,
      "noteNumber" : 45,
      "noteName" : "A2",
      "velocity" : 80,
      "durationTicks" : 227,
      "durationSeconds" : 0.3018612895833357
    }, {
      "type" : "control_change",
      "tick" : 47521,
      "timeSeconds" : 63.192732785416666,
      "channel" : 0,
      "controller" : 64,
      "value" : 0
    }, {
      "type" : "control_change",
      "tick" : 47522,
      "timeSeconds" : 63.19406257083333,
      "channel" : 0,
      "controller" : 64,
      "value" : 127
    }, {
      "type" : "note",
      "tick" : 47520,
      "timeSeconds" : 63.191403,
      "channel" : 0,
      "noteNumber" : 55,
      "noteName" : "G3",
      "velocity" : 80,
      "durationTicks" : 227,
      "durationSeconds" : 0.3018612895833357
    }, {
      "type" : "note",
      "tick" : 47760,
      "timeSeconds" : 63.5105515,
      "channel" : 0,
      "noteNumber" : 55,
      "noteName" : "G3",
      "velocity" : 80,
      "durationTicks" : 227,
      "durationSeconds" : 0.3018612895833357
    }, {
      "type" : "note",
      "tick" : 48000,
      "timeSeconds" : 63.8297,
      "channel" : 0,
      "noteNumber" : 55,
      "noteName" : "G3",
      "velocity" : 80,
      "durationTicks" : 227,
      "durationSeconds" : 0.3018612895833286
    }, {
      "type" : "note",
      "tick" : 48240,
      "timeSeconds" : 64.1488485,
      "channel" : 0,
      "noteNumber" : 55,
      "noteName" : "G3",
      "velocity" : 80,
      "durationTicks" : 227,
      "durationSeconds" : 0.3018612895833286
    }, {
      "type" : "note",
      "tick" : 48480,
      "timeSeconds" : 64.467997,
      "channel" : 0,
      "noteNumber" : 55,
      "noteName" : "G3",
      "velocity" : 80,
      "durationTicks" : 227,
      "durationSeconds" : 0.3018612895833428
    }, {
      "type" : "note",
      "tick" : 47520,
      "timeSeconds" : 63.191403,
      "channel" : 0,
      "noteNumber" : 43,
      "noteName" : "G2",
      "velocity" : 80,
      "durationTicks" : 1367,
      "durationSeconds" : 1.8178166645833258
    }, {
      "type" : "note",
      "tick" : 47520,
      "timeSeconds" : 63.191403,
      "channel" : 0,
      "noteNumber" : 50,
      "noteName" : "D3",
      "velocity" : 80,
      "durationTicks" : 1367,
      "durationSeconds" : 1.8178166645833258
    }, {
      "type" : "note",
      "tick" : 47520,
      "timeSeconds" : 63.191403,
      "channel" : 0,
      "noteNumber" : 59,
      "noteName" : "B3",
      "velocity" : 80,
      "durationTicks" : 1367,
      "durationSeconds" : 1.8178166645833258
    }, {
      "type" : "note",
      "tick" : 48720,
      "timeSeconds" : 64.7871455,
      "channel" : 0,
      "noteNumber" : 55,
      "noteName" : "G3",
      "velocity" : 80,
      "durationTicks" : 227,
      "durationSeconds" : 0.3018612895833428
    }, {
      "type" : "control_change",
      "tick" : 48961,
      "timeSeconds" : 65.10762378541666,
      "channel" : 0,
      "controller" : 64,
      "value" : 0
    }, {
      "type" : "control_change",
      "tick" : 48962,
      "timeSeconds" : 65.10895357083334,
      "channel" : 0,
      "controller" : 64,
      "value" : 127
    }, {
      "type" : "note",
      "tick" : 48960,
      "timeSeconds" : 65.106294,
      "channel" : 0,
      "noteNumber" : 43,
      "noteName" : "G2",
      "velocity" : 80,
      "durationTicks" : 227,
      "durationSeconds" : 0.3018612895833286
    }, {
      "type" : "note",
      "tick" : 49200,
      "timeSeconds" : 65.4254425,
      "channel" : 0,
      "noteNumber" : 43,
      "noteName" : "G2",
      "velocity" : 80,
      "durationTicks" : 227,
      "durationSeconds" : 0.3018612895833286
    }, {
      "type" : "note",
      "tick" : 49440,
      "timeSeconds" : 65.744591,
      "channel" : 0,
      "noteNumber" : 43,
      "noteName" : "G2",
      "velocity" : 80,
      "durationTicks" : 227,
      "durationSeconds" : 0.3018612895833286
    }, {
      "type" : "note",
      "tick" : 49680,
      "timeSeconds" : 66.0637395,
      "channel" : 0,
      "noteNumber" : 43,
      "noteName" : "G2",
      "velocity" : 80,
      "durationTicks" : 227,
      "durationSeconds" : 0.3018612895833428
    }, {
      "type" : "note",
      "tick" : 49920,
      "timeSeconds" : 66.382888,
      "channel" : 0,
      "noteNumber" : 43,
      "noteName" : "G2",
      "velocity" : 80,
      "durationTicks" : 227,
      "durationSeconds" : 0.3018612895833428
    }, {
      "type" : "note",
      "tick" : 48960,
      "timeSeconds" : 65.106294,
      "channel" : 0,
      "noteNumber" : 50,
      "noteName" : "D3",
      "velocity" : 80,
      "durationTicks" : 1367,
      "durationSeconds" : 1.817816664583333
    }, {
      "type" : "note",
      "tick" : 48960,
      "timeSeconds" : 65.106294,
      "channel" : 0,
      "noteNumber" : 59,
      "noteName" : "B3",
      "velocity" : 80,
      "durationTicks" : 1367,
      "durationSeconds" : 1.817816664583333
    }, {
      "type" : "note",
      "tick" : 50160,
      "timeSeconds" : 66.7020365,
      "channel" : 0,
      "noteNumber" : 43,
      "noteName" : "G2",
      "velocity" : 80,
      "durationTicks" : 227,
      "durationSeconds" : 0.3018612895833286
    }, {
      "type" : "control_change",
      "tick" : 50401,
      "timeSeconds" : 67.02251478541666,
      "channel" : 0,
      "controller" : 64,
      "value" : 0
    }, {
      "type" : "control_change",
      "tick" : 50402,
      "timeSeconds" : 67.02384457083333,
      "channel" : 0,
      "controller" : 64,
      "value" : 127
    }, {
      "type" : "note",
      "tick" : 50400,
      "timeSeconds" : 67.021185,
      "channel" : 0,
      "noteNumber" : 53,
      "noteName" : "F3",
      "velocity" : 80,
      "durationTicks" : 227,
      "durationSeconds" : 0.3018612895833286
    }, {
      "type" : "note",
      "tick" : 50640,
      "timeSeconds" : 67.3403335,
      "channel" : 0,
      "noteNumber" : 53,
      "noteName" : "F3",
      "velocity" : 80,
      "durationTicks" : 227,
      "durationSeconds" : 0.3018612895833286
    }, {
      "type" : "note",
      "tick" : 50880,
      "timeSeconds" : 67.659482,
      "channel" : 0,
      "noteNumber" : 53,
      "noteName" : "F3",
      "velocity" : 80,
      "durationTicks" : 227,
      "durationSeconds" : 0.3018612895833428
    }, {
      "type" : "note",
      "tick" : 51120,
      "timeSeconds" : 67.9786305,
      "channel" : 0,
      "noteNumber" : 53,
      "noteName" : "F3",
      "velocity" : 80,
      "durationTicks" : 227,
      "durationSeconds" : 0.3018612895833428
    }, {
      "type" : "note",
      "tick" : 51360,
      "timeSeconds" : 68.297779,
      "channel" : 0,
      "noteNumber" : 53,
      "noteName" : "F3",
      "velocity" : 80,
      "durationTicks" : 227,
      "durationSeconds" : 0.3018612895833286
    }, {
      "type" : "note",
      "tick" : 50400,
      "timeSeconds" : 67.021185,
      "channel" : 0,
      "noteNumber" : 41,
      "noteName" : "F2",
      "velocity" : 80,
      "durationTicks" : 1367,
      "durationSeconds" : 1.817816664583333
    }, {
      "type" : "note",
      "tick" : 50400,
      "timeSeconds" : 67.021185,
      "channel" : 0,
      "noteNumber" : 48,
      "noteName" : "C3",
      "velocity" : 80,
      "durationTicks" : 1367,
      "durationSeconds" : 1.817816664583333
    }, {
      "type" : "note",
      "tick" : 50400,
      "timeSeconds" : 67.021185,
      "channel" : 0,
      "noteNumber" : 57,
      "noteName" : "A3",
      "velocity" : 80,
      "durationTicks" : 1367,
      "durationSeconds" : 1.817816664583333
    }, {
      "type" : "note",
      "tick" : 51600,
      "timeSeconds" : 68.6169275,
      "channel" : 0,
      "noteNumber" : 53,
      "noteName" : "F3",
      "velocity" : 80,
      "durationTicks" : 227,
      "durationSeconds" : 0.3018612895833286
    }, {
      "type" : "control_change",
      "tick" : 51841,
      "timeSeconds" : 68.93740578541667,
      "channel" : 0,
      "controller" : 64,
      "value" : 0
    }, {
      "type" : "control_change",
      "tick" : 51842,
      "timeSeconds" : 68.93873557083333,
      "channel" : 0,
      "controller" : 64,
      "value" : 127
    }, {
      "type" : "note",
      "tick" : 51840,
      "timeSeconds" : 68.936076,
      "channel" : 0,
      "noteNumber" : 41,
      "noteName" : "F2",
      "velocity" : 80,
      "durationTicks" : 227,
      "durationSeconds" : 0.3018612895833286
    }, {
      "type" : "note",
      "tick" : 52080,
      "timeSeconds" : 69.2552245,
      "channel" : 0,
      "noteNumber" : 41,
      "noteName" : "F2",
      "velocity" : 80,
      "durationTicks" : 227,
      "durationSeconds" : 0.3018612895833428
    }, {
      "type" : "note",
      "tick" : 52320,
      "timeSeconds" : 69.574373,
      "channel" : 0,
      "noteNumber" : 41,
      "noteName" : "F2",
      "velocity" : 80,
      "durationTicks" : 227,
      "durationSeconds" : 0.3018612895833428
    }, {
      "type" : "note",
      "tick" : 52560,
      "timeSeconds" : 69.8935215,
      "channel" : 0,
      "noteNumber" : 41,
      "noteName" : "F2",
      "velocity" : 80,
      "durationTicks" : 227,
      "durationSeconds" : 0.3018612895833286
    }, {
      "type" : "note",
      "tick" : 52800,
      "timeSeconds" : 70.21267,
      "channel" : 0,
      "noteNumber" : 41,
      "noteName" : "F2",
      "velocity" : 80,
      "durationTicks" : 227,
      "durationSeconds" : 0.3018612895833286
    }, {
      "type" : "note",
      "tick" : 51840,
      "timeSeconds" : 68.936076,
      "channel" : 0,
      "noteNumber" : 48,
      "noteName" : "C3",
      "velocity" : 80,
      "durationTicks" : 1367,
      "durationSeconds" : 1.817816664583333
    }, {
      "type" : "note",
      "tick" : 51840,
      "timeSeconds" : 68.936076,
      "channel" : 0,
      "noteNumber" : 57,
      "noteName" : "A3",
      "velocity" : 80,
      "durationTicks" : 1367,
      "durationSeconds" : 1.817816664583333
    }, {
      "type" : "note",
      "tick" : 53040,
      "timeSeconds" : 70.5318185,
      "channel" : 0,
      "noteNumber" : 41,
      "noteName" : "F2",
      "velocity" : 80,
      "durationTicks" : 227,
      "durationSeconds" : 0.3018612895833286
    }, {
      "type" : "control_change",
      "tick" : 53281,
      "timeSeconds" : 70.85229678541667,
      "channel" : 0,
      "controller" : 64,
      "value" : 0
    }, {
      "type" : "control_change",
      "tick" : 53282,
      "timeSeconds" : 70.85362657083333,
      "channel" : 0,
      "controller" : 64,
      "value" : 127
    }, {
      "type" : "note",
      "tick" : 53280,
      "timeSeconds" : 70.850967,
      "channel" : 0,
      "noteNumber" : 55,
      "noteName" : "G3",
      "velocity" : 80,
      "durationTicks" : 227,
      "durationSeconds" : 0.3018612895833428
    }, {
      "type" : "note",
      "tick" : 53520,
      "timeSeconds" : 71.1701155,
      "channel" : 0,
      "noteNumber" : 55,
      "noteName" : "G3",
      "velocity" : 80,
      "durationTicks" : 227,
      "durationSeconds" : 0.3018612895833428
    }, {
      "type" : "note",
      "tick" : 53760,
      "timeSeconds" : 71.489264,
      "channel" : 0,
      "noteNumber" : 55,
      "noteName" : "G3",
      "velocity" : 80,
      "durationTicks" : 227,
      "durationSeconds" : 0.3018612895833286
    }, {
      "type" : "note",
      "tick" : 54000,
      "timeSeconds" : 71.8084125,
      "channel" : 0,
      "noteNumber" : 55,
      "noteName" : "G3",
      "velocity" : 80,
      "durationTicks" : 227,
      "durationSeconds" : 0.3018612895833286
    }, {
      "type" : "note",
      "tick" : 54240,
      "timeSeconds" : 72.127561,
      "channel" : 0,
      "noteNumber" : 55,
      "noteName" : "G3",
      "velocity" : 80,
      "durationTicks" : 227,
      "durationSeconds" : 0.3018612895833286
    }, {
      "type" : "note",
      "tick" : 53280,
      "timeSeconds" : 70.850967,
      "channel" : 0,
      "noteNumber" : 43,
      "noteName" : "G2",
      "velocity" : 80,
      "durationTicks" : 1367,
      "durationSeconds" : 1.817816664583333
    }, {
      "type" : "note",
      "tick" : 53280,
      "timeSeconds" : 70.850967,
      "channel" : 0,
      "noteNumber" : 50,
      "noteName" : "D3",
      "velocity" : 80,
      "durationTicks" : 1367,
      "durationSeconds" : 1.817816664583333
    }, {
      "type" : "note",
      "tick" : 53280,
      "timeSeconds" : 70.850967,
      "channel" : 0,
      "noteNumber" : 59,
      "noteName" : "B3",
      "velocity" : 80,
      "durationTicks" : 1367,
      "durationSeconds" : 1.817816664583333
    }, {
      "type" : "note",
      "tick" : 54480,
      "timeSeconds" : 72.4467095,
      "channel" : 0,
      "noteNumber" : 55,
      "noteName" : "G3",
      "velocity" : 80,
      "durationTicks" : 227,
      "durationSeconds" : 0.3018612895833428
    }, {
      "type" : "control_change",
      "tick" : 54721,
      "timeSeconds" : 72.76718778541667,
      "channel" : 0,
      "controller" : 64,
      "value" : 0
    }, {
      "type" : "control_change",
      "tick" : 54722,
      "timeSeconds" : 72.76851757083334,
      "channel" : 0,
      "controller" : 64,
      "value" : 127
    }, {
      "type" : "note",
      "tick" : 54720,
      "timeSeconds" : 72.765858,
      "channel" : 0,
      "noteNumber" : 43,
      "noteName" : "G2",
      "velocity" : 80,
      "durationTicks" : 227,
      "durationSeconds" : 0.3018612895833428
    }, {
      "type" : "note",
      "tick" : 54960,
      "timeSeconds" : 73.0850065,
      "channel" : 0,
      "noteNumber" : 43,
      "noteName" : "G2",
      "velocity" : 80,
      "durationTicks" : 227,
      "durationSeconds" : 0.3018612895833286
    }, {
      "type" : "note",
      "tick" : 55200,
      "timeSeconds" : 73.404155,
      "channel" : 0,
      "noteNumber" : 43,
      "noteName" : "G2",
      "velocity" : 80,
      "durationTicks" : 227,
      "durationSeconds" : 0.3018612895833286
    }, {
      "type" : "note",
      "tick" : 55440,
      "timeSeconds" : 73.7233035,
      "channel" : 0,
      "noteNumber" : 43,
      "noteName" : "G2",
      "velocity" : 80,
      "durationTicks" : 227,
      "durationSeconds" : 0.3018612895833286
    }, {
      "type" : "note",
      "tick" : 55680,
      "timeSeconds" : 74.042452,
      "channel" : 0,
      "noteNumber" : 43,
      "noteName" : "G2",
      "velocity" : 80,
      "durationTicks" : 227,
      "durationSeconds" : 0.3018612895833428
    }, {
      "type" : "note",
      "tick" : 54720,
      "timeSeconds" : 72.765858,
      "channel" : 0,
      "noteNumber" : 50,
      "noteName" : "D3",
      "velocity" : 80,
      "durationTicks" : 1367,
      "durationSeconds" : 1.817816664583333
    }, {
      "type" : "note",
      "tick" : 54720,
      "timeSeconds" : 72.765858,
      "channel" : 0,
      "noteNumber" : 59,
      "noteName" : "B3",
      "velocity" : 80,
      "durationTicks" : 1367,
      "durationSeconds" : 1.817816664583333
    }, {
      "type" : "note",
      "tick" : 55920,
      "timeSeconds" : 74.3616005,
      "channel" : 0,
      "noteNumber" : 43,
      "noteName" : "G2",
      "velocity" : 80,
      "durationTicks" : 227,
      "durationSeconds" : 0.3018612895833428
    }, {
      "type" : "control_change",
      "tick" : 56161,
      "timeSeconds" : 74.68207878541666,
      "channel" : 0,
      "controller" : 64,
      "value" : 0
    }, {
      "type" : "control_change",
      "tick" : 56162,
      "timeSeconds" : 74.68340857083334,
      "channel" : 0,
      "controller" : 64,
      "value" : 127
    }, {
      "type" : "note",
      "tick" : 56160,
      "timeSeconds" : 74.680749,
      "channel" : 0,
      "noteNumber" : 57,
      "noteName" : "A3",
      "velocity" : 80,
      "durationTicks" : 227,
      "durationSeconds" : 0.3018612895833286
    }, {
      "type" : "note",
      "tick" : 56400,
      "timeSeconds" : 74.9998975,
      "channel" : 0,
      "noteNumber" : 57,
      "noteName" : "A3",
      "velocity" : 80,
      "durationTicks" : 227,
      "durationSeconds" : 0.3018612895833286
    }, {
      "type" : "note",
      "tick" : 56640,
      "timeSeconds" : 75.319046,
      "channel" : 0,
      "noteNumber" : 55,
      "noteName" : "G3",
      "velocity" : 80,
      "durationTicks" : 227,
      "durationSeconds" : 0.3018612895833286
    }, {
      "type" : "note",
      "tick" : 56880,
      "timeSeconds" : 75.6381945,
      "channel" : 0,
      "noteNumber" : 57,
      "noteName" : "A3",
      "velocity" : 80,
      "durationTicks" : 227,
      "durationSeconds" : 0.3018612895833428
    }, {
      "type" : "note",
      "tick" : 57120,
      "timeSeconds" : 75.957343,
      "channel" : 0,
      "noteNumber" : 57,
      "noteName" : "A3",
      "velocity" : 80,
      "durationTicks" : 227,
      "durationSeconds" : 0.3018612895833428
    }, {
      "type" : "note",
      "tick" : 56160,
      "timeSeconds" : 74.680749,
      "channel" : 0,
      "noteNumber" : 45,
      "noteName" : "A2",
      "velocity" : 80,
      "durationTicks" : 1367,
      "durationSeconds" : 1.817816664583333
    }, {
      "type" : "note",
      "tick" : 56160,
      "timeSeconds" : 74.680749,
      "channel" : 0,
      "noteNumber" : 52,
      "noteName" : "E3",
      "velocity" : 80,
      "durationTicks" : 1367,
      "durationSeconds" : 1.817816664583333
    }, {
      "type" : "note",
      "tick" : 56160,
      "timeSeconds" : 74.680749,
      "channel" : 0,
      "noteNumber" : 60,
      "noteName" : "C4",
      "velocity" : 80,
      "durationTicks" : 1367,
      "durationSeconds" : 1.817816664583333
    }, {
      "type" : "note",
      "tick" : 57360,
      "timeSeconds" : 76.2764915,
      "channel" : 0,
      "noteNumber" : 57,
      "noteName" : "A3",
      "velocity" : 80,
      "durationTicks" : 227,
      "durationSeconds" : 0.3018612895833286
    }, {
      "type" : "control_change",
      "tick" : 57601,
      "timeSeconds" : 76.59696978541666,
      "channel" : 0,
      "controller" : 64,
      "value" : 0
    }, {
      "type" : "control_change",
      "tick" : 57602,
      "timeSeconds" : 76.59829957083333,
      "channel" : 0,
      "controller" : 64,
      "value" : 127
    }, {
      "type" : "note",
      "tick" : 57600,
      "timeSeconds" : 76.59564,
      "channel" : 0,
      "noteNumber" : 45,
      "noteName" : "A2",
      "velocity" : 80,
      "durationTicks" : 227,
      "durationSeconds" : 0.3018612895833286
    }, {
      "type" : "note",
      "tick" : 57840,
      "timeSeconds" : 76.9147885,
      "channel" : 0,
      "noteNumber" : 45,
      "noteName" : "A2",
      "velocity" : 80,
      "durationTicks" : 227,
      "durationSeconds" : 0.3018612895833286
    }, {
      "type" : "note",
      "tick" : 58080,
      "timeSeconds" : 77.233937,
      "channel" : 0,
      "noteNumber" : 45,
      "noteName" : "A2",
      "velocity" : 80,
      "durationTicks" : 227,
      "durationSeconds" : 0.3018612895833428
    }, {
      "type" : "note",
      "tick" : 58320,
      "timeSeconds" : 77.5530855,
      "channel" : 0,
      "noteNumber" : 45,
      "noteName" : "A2",
      "velocity" : 80,
      "durationTicks" : 227,
      "durationSeconds" : 0.3018612895833428
    }, {
      "type" : "note",
      "tick" : 58560,
      "timeSeconds" : 77.872234,
      "channel" : 0,
      "noteNumber" : 45,
      "noteName" : "A2",
      "velocity" : 80,
      "durationTicks" : 227,
      "durationSeconds" : 0.3018612895833286
    }, {
      "type" : "note",
      "tick" : 57600,
      "timeSeconds" : 76.59564,
      "channel" : 0,
      "noteNumber" : 52,
      "noteName" : "E3",
      "velocity" : 80,
      "durationTicks" : 1367,
      "durationSeconds" : 1.817816664583333
    }, {
      "type" : "note",
      "tick" : 57600,
      "timeSeconds" : 76.59564,
      "channel" : 0,
      "noteNumber" : 60,
      "noteName" : "C4",
      "velocity" : 80,
      "durationTicks" : 1367,
      "durationSeconds" : 1.817816664583333
    }, {
      "type" : "note",
      "tick" : 58800,
      "timeSeconds" : 78.1913825,
      "channel" : 0,
      "noteNumber" : 45,
      "noteName" : "A2",
      "velocity" : 80,
      "durationTicks" : 227,
      "durationSeconds" : 0.3018612895833286
    }, {
      "type" : "control_change",
      "tick" : 59041,
      "timeSeconds" : 78.51186078541667,
      "channel" : 0,
      "controller" : 64,
      "value" : 0
    }, {
      "type" : "control_change",
      "tick" : 59042,
      "timeSeconds" : 78.51319057083333,
      "channel" : 0,
      "controller" : 64,
      "value" : 127
    }, {
      "type" : "note",
      "tick" : 59040,
      "timeSeconds" : 78.510531,
      "channel" : 0,
      "noteNumber" : 55,
      "noteName" : "G3",
      "velocity" : 80,
      "durationTicks" : 227,
      "durationSeconds" : 0.3018612895833286
    }, {
      "type" : "note",
      "tick" : 59280,
      "timeSeconds" : 78.8296795,
      "channel" : 0,
      "noteNumber" : 55,
      "noteName" : "G3",
      "velocity" : 80,
      "durationTicks" : 227,
      "durationSeconds" : 0.3018612895833428
    }, {
      "type" : "note",
      "tick" : 59520,
      "timeSeconds" : 79.148828,
      "channel" : 0,
      "noteNumber" : 55,
      "noteName" : "G3",
      "velocity" : 80,
      "durationTicks" : 227,
      "durationSeconds" : 0.3018612895833428
    }, {
      "type" : "note",
      "tick" : 59760,
      "timeSeconds" : 79.4679765,
      "channel" : 0,
      "noteNumber" : 55,
      "noteName" : "G3",
      "velocity" : 80,
      "durationTicks" : 227,
      "durationSeconds" : 0.3018612895833286
    }, {
      "type" : "note",
      "tick" : 60000,
      "timeSeconds" : 79.787125,
      "channel" : 0,
      "noteNumber" : 55,
      "noteName" : "G3",
      "velocity" : 80,
      "durationTicks" : 227,
      "durationSeconds" : 0.3018612895833286
    }, {
      "type" : "note",
      "tick" : 59040,
      "timeSeconds" : 78.510531,
      "channel" : 0,
      "noteNumber" : 43,
      "noteName" : "G2",
      "velocity" : 80,
      "durationTicks" : 1367,
      "durationSeconds" : 1.817816664583333
    }, {
      "type" : "note",
      "tick" : 59040,
      "timeSeconds" : 78.510531,
      "channel" : 0,
      "noteNumber" : 50,
      "noteName" : "D3",
      "velocity" : 80,
      "durationTicks" : 1367,
      "durationSeconds" : 1.817816664583333
    }, {
      "type" : "note",
      "tick" : 59040,
      "timeSeconds" : 78.510531,
      "channel" : 0,
      "noteNumber" : 59,
      "noteName" : "B3",
      "velocity" : 80,
      "durationTicks" : 1367,
      "durationSeconds" : 1.817816664583333
    }, {
      "type" : "note",
      "tick" : 60240,
      "timeSeconds" : 80.1062735,
      "channel" : 0,
      "noteNumber" : 55,
      "noteName" : "G3",
      "velocity" : 80,
      "durationTicks" : 227,
      "durationSeconds" : 0.3018612895833286
    }, {
      "type" : "control_change",
      "tick" : 60481,
      "timeSeconds" : 80.42675178541667,
      "channel" : 0,
      "controller" : 64,
      "value" : 0
    }, {
      "type" : "control_change",
      "tick" : 60482,
      "timeSeconds" : 80.42808157083333,
      "channel" : 0,
      "controller" : 64,
      "value" : 127
    }, {
      "type" : "note",
      "tick" : 60480,
      "timeSeconds" : 80.425422,
      "channel" : 0,
      "noteNumber" : 43,
      "noteName" : "G2",
      "velocity" : 80,
      "durationTicks" : 227,
      "durationSeconds" : 0.3018612895833428
    }, {
      "type" : "note",
      "tick" : 60720,
      "timeSeconds" : 80.7445705,
      "channel" : 0,
      "noteNumber" : 43,
      "noteName" : "G2",
      "velocity" : 80,
      "durationTicks" : 227,
      "durationSeconds" : 0.3018612895833428
    }, {
      "type" : "note",
      "tick" : 60960,
      "timeSeconds" : 81.063719,
      "channel" : 0,
      "noteNumber" : 43,
      "noteName" : "G2",
      "velocity" : 80,
      "durationTicks" : 227,
      "durationSeconds" : 0.3018612895833286
    }, {
      "type" : "note",
      "tick" : 61200,
      "timeSeconds" : 81.3828675,
      "channel" : 0,
      "noteNumber" : 43,
      "noteName" : "G2",
      "velocity" : 80,
      "durationTicks" : 227,
      "durationSeconds" : 0.3018612895833286
    }, {
      "type" : "note",
      "tick" : 61440,
      "timeSeconds" : 81.702016,
      "channel" : 0,
      "noteNumber" : 43,
      "noteName" : "G2",
      "velocity" : 80,
      "durationTicks" : 227,
      "durationSeconds" : 0.3018612895833286
    }, {
      "type" : "note",
      "tick" : 60480,
      "timeSeconds" : 80.425422,
      "channel" : 0,
      "noteNumber" : 50,
      "noteName" : "D3",
      "velocity" : 80,
      "durationTicks" : 1367,
      "durationSeconds" : 1.817816664583333
    }, {
      "type" : "note",
      "tick" : 60480,
      "timeSeconds" : 80.425422,
      "channel" : 0,
      "noteNumber" : 59,
      "noteName" : "B3",
      "velocity" : 80,
      "durationTicks" : 1367,
      "durationSeconds" : 1.817816664583333
    }, {
      "type" : "note",
      "tick" : 61680,
      "timeSeconds" : 82.0211645,
      "channel" : 0,
      "noteNumber" : 43,
      "noteName" : "G2",
      "velocity" : 80,
      "durationTicks" : 227,
      "durationSeconds" : 0.3018612895833428
    }, {
      "type" : "control_change",
      "tick" : 61921,
      "timeSeconds" : 82.34164278541667,
      "channel" : 0,
      "controller" : 64,
      "value" : 0
    }, {
      "type" : "control_change",
      "tick" : 61922,
      "timeSeconds" : 82.34297257083334,
      "channel" : 0,
      "controller" : 64,
      "value" : 127
    }, {
      "type" : "note",
      "tick" : 62040,
      "timeSeconds" : 82.49988725,
      "channel" : 0,
      "noteNumber" : 45,
      "noteName" : "A2",
      "velocity" : 96,
      "durationTicks" : 113,
      "durationSeconds" : 0.15026575208332815
    }, {
      "type" : "note",
      "tick" : 62160,
      "timeSeconds" : 82.6594615,
      "channel" : 0,
      "noteNumber" : 48,
      "noteName" : "C3",
      "velocity" : 96,
      "durationTicks" : 113,
      "durationSeconds" : 0.15026575208332815
    }, {
      "type" : "note",
      "tick" : 62280,
      "timeSeconds" : 82.81903575,
      "channel" : 0,
      "noteNumber" : 57,
      "noteName" : "A3",
      "velocity" : 96,
      "durationTicks" : 113,
      "durationSeconds" : 0.15026575208334236
    }, {
      "type" : "note",
      "tick" : 62400,
      "timeSeconds" : 82.97861,
      "channel" : 0,
      "noteNumber" : 48,
      "noteName" : "C3",
      "velocity" : 96,
      "durationTicks" : 113,
      "durationSeconds" : 0.15026575208332815
    }, {
      "type" : "note",
      "tick" : 61920,
      "timeSeconds" : 82.340313,
      "channel" : 0,
      "noteNumber" : 29,
      "noteName" : "F1",
      "velocity" : 96,
      "durationTicks" : 683,
      "durationSeconds" : 0.9082434395833445
    }, {
      "type" : "note",
      "tick" : 61920,
      "timeSeconds" : 82.340313,
      "channel" : 0,
      "noteNumber" : 41,
      "noteName" : "F2",
      "velocity" : 96,
      "durationTicks" : 683,
      "durationSeconds" : 0.9082434395833445
    }, {
      "type" : "note",
      "tick" : 62520,
      "timeSeconds" : 83.13818425,
      "channel" : 0,
      "noteNumber" : 45,
      "noteName" : "A2",
      "velocity" : 96,
      "durationTicks" : 113,
      "durationSeconds" : 0.15026575208334236
    }, {
      "type" : "note",
      "tick" : 62760,
      "timeSeconds" : 83.45733275,
      "channel" : 0,
      "noteNumber" : 45,
      "noteName" : "A2",
      "velocity" : 96,
      "durationTicks" : 113,
      "durationSeconds" : 0.15026575208332815
    }, {
      "type" : "note",
      "tick" : 62880,
      "timeSeconds" : 83.616907,
      "channel" : 0,
      "noteNumber" : 48,
      "noteName" : "C3",
      "velocity" : 96,
      "durationTicks" : 113,
      "durationSeconds" : 0.15026575208334236
    }, {
      "type" : "note",
      "tick" : 63000,
      "timeSeconds" : 83.77648125,
      "channel" : 0,
      "noteNumber" : 57,
      "noteName" : "A3",
      "velocity" : 96,
      "durationTicks" : 113,
      "durationSeconds" : 0.15026575208332815
    }, {
      "type" : "note",
      "tick" : 63120,
      "timeSeconds" : 83.9360555,
      "channel" : 0,
      "noteNumber" : 48,
      "noteName" : "C3",
      "velocity" : 96,
      "durationTicks" : 113,
      "durationSeconds" : 0.15026575208334236
    }, {
      "type" : "note",
      "tick" : 62640,
      "timeSeconds" : 83.2977585,
      "channel" : 0,
      "noteNumber" : 41,
      "noteName" : "F2",
      "velocity" : 96,
      "durationTicks" : 683,
      "durationSeconds" : 0.9082434395833303
    }, {
      "type" : "note",
      "tick" : 63240,
      "timeSeconds" : 84.09562975,
      "channel" : 0,
      "noteNumber" : 45,
      "noteName" : "A2",
      "velocity" : 96,
      "durationTicks" : 113,
      "durationSeconds" : 0.15026575208332815
    }, {
      "type" : "note",
      "tick" : 63480,
      "timeSeconds" : 84.41477825,
      "channel" : 0,
      "noteNumber" : 45,
      "noteName" : "A2",
      "velocity" : 96,
      "durationTicks" : 113,
      "durationSeconds" : 0.15026575208334236
    }, {
      "type" : "note",
      "tick" : 63600,
      "timeSeconds" : 84.5743525,
      "channel" : 0,
      "noteNumber" : 48,
      "noteName" : "C3",
      "velocity" : 96,
      "durationTicks" : 113,
      "durationSeconds" : 0.15026575208332815
    }, {
      "type" : "note",
      "tick" : 63720,
      "timeSeconds" : 84.73392675,
      "channel" : 0,
      "noteNumber" : 57,
      "noteName" : "A3",
      "velocity" : 96,
      "durationTicks" : 113,
      "durationSeconds" : 0.15026575208334236
    }, {
      "type" : "note",
      "tick" : 63840,
      "timeSeconds" : 84.893501,
      "channel" : 0,
      "noteNumber" : 48,
      "noteName" : "C3",
      "velocity" : 96,
      "durationTicks" : 113,
      "durationSeconds" : 0.15026575208332815
    }, {
      "type" : "note",
      "tick" : 63360,
      "timeSeconds" : 84.255204,
      "channel" : 0,
      "noteNumber" : 41,
      "noteName" : "F2",
      "velocity" : 96,
      "durationTicks" : 683,
      "durationSeconds" : 0.9082434395833303
    }, {
      "type" : "note",
      "tick" : 63960,
      "timeSeconds" : 85.05307525,
      "channel" : 0,
      "noteNumber" : 45,
      "noteName" : "A2",
      "velocity" : 96,
      "durationTicks" : 113,
      "durationSeconds" : 0.15026575208332815
    }, {
      "type" : "note",
      "tick" : 64200,
      "timeSeconds" : 85.37222375,
      "channel" : 0,
      "noteNumber" : 45,
      "noteName" : "A2",
      "velocity" : 96,
      "durationTicks" : 113,
      "durationSeconds" : 0.15026575208332815
    }, {
      "type" : "note",
      "tick" : 64320,
      "timeSeconds" : 85.531798,
      "channel" : 0,
      "noteNumber" : 48,
      "noteName" : "C3",
      "velocity" : 96,
      "durationTicks" : 113,
      "durationSeconds" : 0.15026575208334236
    }, {
      "type" : "note",
      "tick" : 64440,
      "timeSeconds" : 85.69137225,
      "channel" : 0,
      "noteNumber" : 57,
      "noteName" : "A3",
      "velocity" : 96,
      "durationTicks" : 113,
      "durationSeconds" : 0.15026575208332815
    }, {
      "type" : "note",
      "tick" : 64560,
      "timeSeconds" : 85.8509465,
      "channel" : 0,
      "noteNumber" : 48,
      "noteName" : "C3",
      "velocity" : 96,
      "durationTicks" : 113,
      "durationSeconds" : 0.15026575208332815
    }, {
      "type" : "note",
      "tick" : 64080,
      "timeSeconds" : 85.2126495,
      "channel" : 0,
      "noteNumber" : 41,
      "noteName" : "F2",
      "velocity" : 96,
      "durationTicks" : 683,
      "durationSeconds" : 0.9082434395833303
    }, {
      "type" : "note",
      "tick" : 64680,
      "timeSeconds" : 86.01052075,
      "channel" : 0,
      "noteNumber" : 45,
      "noteName" : "A2",
      "velocity" : 96,
      "durationTicks" : 113,
      "durationSeconds" : 0.15026575208334236
    }, {
      "type" : "control_change",
      "tick" : 64801,
      "timeSeconds" : 86.17142478541666,
      "channel" : 0,
      "controller" : 64,
      "value" : 0
    }, {
      "type" : "control_change",
      "tick" : 64802,
      "timeSeconds" : 86.17275457083333,
      "channel" : 0,
      "controller" : 64,
      "value" : 127
    }, {
      "type" : "note",
      "tick" : 64920,
      "timeSeconds" : 86.32966925,
      "channel" : 0,
      "noteNumber" : 47,
      "noteName" : "B2",
      "velocity" : 96,
      "durationTicks" : 113,
      "durationSeconds" : 0.15026575208334236
    }, {
      "type" : "note",
      "tick" : 65040,
      "timeSeconds" : 86.4892435,
      "channel" : 0,
      "noteNumber" : 50,
      "noteName" : "D3",
      "velocity" : 96,
      "durationTicks" : 113,
      "durationSeconds" : 0.15026575208332815
    }, {
      "type" : "note",
      "tick" : 65160,
      "timeSeconds" : 86.64881775,
      "channel" : 0,
      "noteNumber" : 55,
      "noteName" : "G3",
      "velocity" : 96,
      "durationTicks" : 113,
      "durationSeconds" : 0.15026575208332815
    }, {
      "type" : "note",
      "tick" : 65280,
      "timeSeconds" : 86.808392,
      "channel" : 0,
      "noteNumber" : 50,
      "noteName" : "D3",
      "velocity" : 96,
      "durationTicks" : 113,
      "durationSeconds" : 0.15026575208334236
    }, {
      "type" : "note",
      "tick" : 64800,
      "timeSeconds" : 86.170095,
      "channel" : 0,
      "noteNumber" : 31,
      "noteName" : "G1",
      "velocity" : 96,
      "durationTicks" : 683,
      "durationSeconds" : 0.9082434395833303
    }, {
      "type" : "note",
      "tick" : 64800,
      "timeSeconds" : 86.170095,
      "channel" : 0,
      "noteNumber" : 43,
      "noteName" : "G2",
      "velocity" : 96,
      "durationTicks" : 683,
      "durationSeconds" : 0.9082434395833303
    }, {
      "type" : "note",
      "tick" : 65400,
      "timeSeconds" : 86.96796625,
      "channel" : 0,
      "noteNumber" : 47,
      "noteName" : "B2",
      "velocity" : 96,
      "durationTicks" : 113,
      "durationSeconds" : 0.15026575208332815
    }, {
      "type" : "note",
      "tick" : 65640,
      "timeSeconds" : 87.28711475,
      "channel" : 0,
      "noteNumber" : 47,
      "noteName" : "B2",
      "velocity" : 96,
      "durationTicks" : 113,
      "durationSeconds" : 0.15026575208332815
    }, {
      "type" : "note",
      "tick" : 65760,
      "timeSeconds" : 87.446689,
      "channel" : 0,
      "noteNumber" : 50,
      "noteName" : "D3",
      "velocity" : 96,
      "durationTicks" : 113,
      "durationSeconds" : 0.15026575208332815
    }, {
      "type" : "note",
      "tick" : 65880,
      "timeSeconds" : 87.60626325,
      "channel" : 0,
      "noteNumber" : 55,
      "noteName" : "G3",
      "velocity" : 96,
      "durationTicks" : 113,
      "durationSeconds" : 0.15026575208334236
    }, {
      "type" : "note",
      "tick" : 66000,
      "timeSeconds" : 87.7658375,
      "channel" : 0,
      "noteNumber" : 50,
      "noteName" : "D3",
      "velocity" : 96,
      "durationTicks" : 113,
      "durationSeconds" : 0.15026575208332815
    }, {
      "type" : "note",
      "tick" : 65520,
      "timeSeconds" : 87.1275405,
      "channel" : 0,
      "noteNumber" : 43,
      "noteName" : "G2",
      "velocity" : 96,
      "durationTicks" : 683,
      "durationSeconds" : 0.9082434395833445
    }, {
      "type" : "note",
      "tick" : 66120,
      "timeSeconds" : 87.92541175,
      "channel" : 0,
      "noteNumber" : 47,
      "noteName" : "B2",
      "velocity" : 96,
      "durationTicks" : 113,
      "durationSeconds" : 0.15026575208334236
    }, {
      "type" : "note",
      "tick" : 66360,
      "timeSeconds" : 88.24456025,
      "channel" : 0,
      "noteNumber" : 47,
      "noteName" : "B2",
      "velocity" : 96,
      "durationTicks" : 113,
      "durationSeconds" : 0.15026575208332815
    }, {
      "type" : "note",
      "tick" : 66480,
      "timeSeconds" : 88.4041345,
      "channel" : 0,
      "noteNumber" : 50,
      "noteName" : "D3",
      "velocity" : 96,
      "durationTicks" : 113,
      "durationSeconds" : 0.15026575208334236
    }, {
      "type" : "note",
      "tick" : 66600,
      "timeSeconds" : 88.56370875,
      "channel" : 0,
      "noteNumber" : 55,
      "noteName" : "G3",
      "velocity" : 96,
      "durationTicks" : 113,
      "durationSeconds" : 0.15026575208332815
    }, {
      "type" : "note",
      "tick" : 66720,
      "timeSeconds" : 88.723283,
      "channel" : 0,
      "noteNumber" : 50,
      "noteName" : "D3",
      "velocity" : 96,
      "durationTicks" : 113,
      "durationSeconds" : 0.15026575208334236
    }, {
      "type" : "note",
      "tick" : 66240,
      "timeSeconds" : 88.084986,
      "channel" : 0,
      "noteNumber" : 43,
      "noteName" : "G2",
      "velocity" : 96,
      "durationTicks" : 683,
      "durationSeconds" : 0.9082434395833303
    }, {
      "type" : "note",
      "tick" : 66840,
      "timeSeconds" : 88.88285725,
      "channel" : 0,
      "noteNumber" : 47,
      "noteName" : "B2",
      "velocity" : 96,
      "durationTicks" : 113,
      "durationSeconds" : 0.15026575208332815
    }, {
      "type" : "note",
      "tick" : 67080,
      "timeSeconds" : 89.20200575,
      "channel" : 0,
      "noteNumber" : 47,
      "noteName" : "B2",
      "velocity" : 96,
      "durationTicks" : 113,
      "durationSeconds" : 0.15026575208334236
    }, {
      "type" : "note",
      "tick" : 67200,
      "timeSeconds" : 89.36158,
      "channel" : 0,
      "noteNumber" : 50,
      "noteName" : "D3",
      "velocity" : 96,
      "durationTicks" : 113,
      "durationSeconds" : 0.15026575208332815
    }, {
      "type" : "note",
      "tick" : 67320,
      "timeSeconds" : 89.52115425,
      "channel" : 0,
      "noteNumber" : 55,
      "noteName" : "G3",
      "velocity" : 96,
      "durationTicks" : 113,
      "durationSeconds" : 0.15026575208334236
    }, {
      "type" : "note",
      "tick" : 67440,
      "timeSeconds" : 89.6807285,
      "channel" : 0,
      "noteNumber" : 50,
      "noteName" : "D3",
      "velocity" : 96,
      "durationTicks" : 113,
      "durationSeconds" : 0.15026575208332815
    }, {
      "type" : "note",
      "tick" : 66960,
      "timeSeconds" : 89.0424315,
      "channel" : 0,
      "noteNumber" : 43,
      "noteName" : "G2",
      "velocity" : 96,
      "durationTicks" : 683,
      "durationSeconds" : 0.9082434395833303
    }, {
      "type" : "note",
      "tick" : 67560,
      "timeSeconds" : 89.84030275,
      "channel" : 0,
      "noteNumber" : 47,
      "noteName" : "B2",
      "velocity" : 96,
      "durationTicks" : 113,
      "durationSeconds" : 0.15026575208332815
    }, {
      "type" : "control_change",
      "tick" : 67681,
      "timeSeconds" : 90.00120678541667,
      "channel" : 0,
      "controller" : 64,
      "value" : 0
    }, {
      "type" : "control_change",
      "tick" : 67682,
      "timeSeconds" : 90.00253657083333,
      "channel" : 0,
      "controller" : 64,
      "value" : 127
    }, {
      "type" : "note",
      "tick" : 67800,
      "timeSeconds" : 90.15945125,
      "channel" : 0,
      "noteNumber" : 48,
      "noteName" : "C3",
      "velocity" : 96,
      "durationTicks" : 113,
      "durationSeconds" : 0.15026575208332815
    }, {
      "type" : "note",
      "tick" : 67920,
      "timeSeconds" : 90.3190255,
      "channel" : 0,
      "noteNumber" : 52,
      "noteName" : "E3",
      "velocity" : 96,
      "durationTicks" : 113,
      "durationSeconds" : 0.15026575208334236
    }, {
      "type" : "note",
      "tick" : 68040,
      "timeSeconds" : 90.47859975,
      "channel" : 0,
      "noteNumber" : 57,
      "noteName" : "A3",
      "velocity" : 96,
      "durationTicks" : 113,
      "durationSeconds" : 0.15026575208332815
    }, {
      "type" : "note",
      "tick" : 68160,
      "timeSeconds" : 90.638174,
      "channel" : 0,
      "noteNumber" : 52,
      "noteName" : "E3",
      "velocity" : 96,
      "durationTicks" : 113,
      "durationSeconds" : 0.15026575208332815
    }, {
      "type" : "note",
      "tick" : 67680,
      "timeSeconds" : 89.999877,
      "channel" : 0,
      "noteNumber" : 33,
      "noteName" : "A1",
      "velocity" : 96,
      "durationTicks" : 683,
      "durationSeconds" : 0.9082434395833303
    }, {
      "type" : "note",
      "tick" : 67680,
      "timeSeconds" : 89.999877,
      "channel" : 0,
      "noteNumber" : 45,
      "noteName" : "A2",
      "velocity" : 96,
      "durationTicks" : 683,
      "durationSeconds" : 0.9082434395833303
    }, {
      "type" : "note",
      "tick" : 68280,
      "timeSeconds" : 90.79774825,
      "channel" : 0,
      "noteNumber" : 48,
      "noteName" : "C3",
      "velocity" : 96,
      "durationTicks" : 113,
      "durationSeconds" : 0.15026575208334236
    }, {
      "type" : "note",
      "tick" : 68520,
      "timeSeconds" : 91.11689675,
      "channel" : 0,
      "noteNumber" : 48,
      "noteName" : "C3",
      "velocity" : 96,
      "durationTicks" : 113,
      "durationSeconds" : 0.15026575208334236
    }, {
      "type" : "note",
      "tick" : 68640,
      "timeSeconds" : 91.276471,
      "channel" : 0,
      "noteNumber" : 52,
      "noteName" : "E3",
      "velocity" : 96,
      "durationTicks" : 113,
      "durationSeconds" : 0.15026575208332815
    }, {
      "type" : "note",
      "tick" : 68760,
      "timeSeconds" : 91.43604525,
      "channel" : 0,
      "noteNumber" : 57,
      "noteName" : "A3",
      "velocity" : 96,
      "durationTicks" : 113,
      "durationSeconds" : 0.15026575208332815
    }, {
      "type" : "note",
      "tick" : 68880,
      "timeSeconds" : 91.5956195,
      "channel" : 0,
      "noteNumber" : 52,
      "noteName" : "E3",
      "velocity" : 96,
      "durationTicks" : 113,
      "durationSeconds" : 0.15026575208334236
    }, {
      "type" : "note",
      "tick" : 68400,
      "timeSeconds" : 90.9573225,
      "channel" : 0,
      "noteNumber" : 45,
      "noteName" : "A2",
      "velocity" : 96,
      "durationTicks" : 683,
      "durationSeconds" : 0.9082434395833303
    }, {
      "type" : "note",
      "tick" : 69000,
      "timeSeconds" : 91.75519375,
      "channel" : 0,
      "noteNumber" : 48,
      "noteName" : "C3",
      "velocity" : 96,
      "durationTicks" : 113,
      "durationSeconds" : 0.15026575208332815
    }, {
      "type" : "note",
      "tick" : 69240,
      "timeSeconds" : 92.07434225,
      "channel" : 0,
      "noteNumber" : 48,
      "noteName" : "C3",
      "velocity" : 96,
      "durationTicks" : 113,
      "durationSeconds" : 0.15026575208332815
    }, {
      "type" : "note",
      "tick" : 69360,
      "timeSeconds" : 92.2339165,
      "channel" : 0,
      "noteNumber" : 52,
      "noteName" : "E3",
      "velocity" : 96,
      "durationTicks" : 113,
      "durationSeconds" : 0.15026575208332815
    }, {
      "type" : "note",
      "tick" : 69480,
      "timeSeconds" : 92.39349075,
      "channel" : 0,
      "noteNumber" : 57,
      "noteName" : "A3",
      "velocity" : 96,
      "durationTicks" : 113,
      "durationSeconds" : 0.15026575208334236
    }, {
      "type" : "note",
      "tick" : 69600,
      "timeSeconds" : 92.553065,
      "channel" : 0,
      "noteNumber" : 52,
      "noteName" : "E3",
      "velocity" : 96,
      "durationTicks" : 113,
      "durationSeconds" : 0.15026575208332815
    }, {
      "type" : "note",
      "tick" : 69120,
      "timeSeconds" : 91.914768,
      "channel" : 0,
      "noteNumber" : 45,
      "noteName" : "A2",
      "velocity" : 96,
      "durationTicks" : 683,
      "durationSeconds" : 0.9082434395833445
    }, {
      "type" : "note",
      "tick" : 69720,
      "timeSeconds" : 92.71263925,
      "channel" : 0,
      "noteNumber" : 48,
      "noteName" : "C3",
      "velocity" : 96,
      "durationTicks" : 113,
      "durationSeconds" : 0.15026575208334236
    }, {
      "type" : "note",
      "tick" : 69960,
      "timeSeconds" : 93.03178775,
      "channel" : 0,
      "noteNumber" : 48,
      "noteName" : "C3",
      "velocity" : 96,
      "durationTicks" : 113,
      "durationSeconds" : 0.15026575208332815
    }, {
      "type" : "note",
      "tick" : 70080,
      "timeSeconds" : 93.191362,
      "channel" : 0,
      "noteNumber" : 52,
      "noteName" : "E3",
      "velocity" : 96,
      "durationTicks" : 113,
      "durationSeconds" : 0.15026575208334236
    }, {
      "type" : "note",
      "tick" : 70200,
      "timeSeconds" : 93.35093625,
      "channel" : 0,
      "noteNumber" : 57,
      "noteName" : "A3",
      "velocity" : 96,
      "durationTicks" : 113,
      "durationSeconds" : 0.15026575208332815
    }, {
      "type" : "note",
      "tick" : 70320,
      "timeSeconds" : 93.5105105,
      "channel" : 0,
      "noteNumber" : 52,
      "noteName" : "E3",
      "velocity" : 96,
      "durationTicks" : 113,
      "durationSeconds" : 0.15026575208334236
    }, {
      "type" : "note",
      "tick" : 69840,
      "timeSeconds" : 92.8722135,
      "channel" : 0,
      "noteNumber" : 45,
      "noteName" : "A2",
      "velocity" : 96,
      "durationTicks" : 683,
      "durationSeconds" : 0.9082434395833303
    }, {
      "type" : "note",
      "tick" : 70440,
      "timeSeconds" : 93.67008475,
      "channel" : 0,
      "noteNumber" : 48,
      "noteName" : "C3",
      "velocity" : 96,
      "durationTicks" : 113,
      "durationSeconds" : 0.15026575208332815
    }, {
      "type" : "control_change",
      "tick" : 70561,
      "timeSeconds" : 93.83098878541666,
      "channel" : 0,
      "controller" : 64,
      "value" : 0
    }, {
      "type" : "control_change",
      "tick" : 70562,
      "timeSeconds" : 93.83231857083334,
      "channel" : 0,
      "controller" : 64,
      "value" : 127
    }, {
      "type" : "note",
      "tick" : 70680,
      "timeSeconds" : 93.98923325,
      "channel" : 0,
      "noteNumber" : 50,
      "noteName" : "D3",
      "velocity" : 96,
      "durationTicks" : 113,
      "durationSeconds" : 0.15026575208334236
    }, {
      "type" : "note",
      "tick" : 70800,
      "timeSeconds" : 94.1488075,
      "channel" : 0,
      "noteNumber" : 55,
      "noteName" : "G3",
      "velocity" : 96,
      "durationTicks" : 113,
      "durationSeconds" : 0.15026575208332815
    }, {
      "type" : "note",
      "tick" : 70920,
      "timeSeconds" : 94.30838175,
      "channel" : 0,
      "noteNumber" : 62,
      "noteName" : "D4",
      "velocity" : 96,
      "durationTicks" : 113,
      "durationSeconds" : 0.15026575208334236
    }, {
      "type" : "note",
      "tick" : 71040,
      "timeSeconds" : 94.467956,
      "channel" : 0,
      "noteNumber" : 55,
      "noteName" : "G3",
      "velocity" : 96,
      "durationTicks" : 113,
      "durationSeconds" : 0.15026575208332815
    }, {
      "type" : "note",
      "tick" : 70560,
      "timeSeconds" : 93.829659,
      "channel" : 0,
      "noteNumber" : 31,
      "noteName" : "G1",
      "velocity" : 96,
      "durationTicks" : 683,
      "durationSeconds" : 0.9082434395833303
    }, {
      "type" : "note",
      "tick" : 70560,
      "timeSeconds" : 93.829659,
      "channel" : 0,
      "noteNumber" : 43,
      "noteName" : "G2",
      "velocity" : 96,
      "durationTicks" : 683,
      "durationSeconds" : 0.9082434395833303
    }, {
      "type" : "note",
      "tick" : 71160,
      "timeSeconds" : 94.62753025,
      "channel" : 0,
      "noteNumber" : 50,
      "noteName" : "D3",
      "velocity" : 96,
      "durationTicks" : 113,
      "durationSeconds" : 0.15026575208332815
    }, {
      "type" : "note",
      "tick" : 71400,
      "timeSeconds" : 94.94667875,
      "channel" : 0,
      "noteNumber" : 50,
      "noteName" : "D3",
      "velocity" : 96,
      "durationTicks" : 113,
      "durationSeconds" : 0.15026575208332815
    }, {
      "type" : "note",
      "tick" : 71520,
      "timeSeconds" : 95.106253,
      "channel" : 0,
      "noteNumber" : 55,
      "noteName" : "G3",
      "velocity" : 96,
      "durationTicks" : 113,
      "durationSeconds" : 0.15026575208334236
    }, {
      "type" : "note",
      "tick" : 71640,
      "timeSeconds" : 95.26582725,
      "channel" : 0,
      "noteNumber" : 62,
      "noteName" : "D4",
      "velocity" : 96,
      "durationTicks" : 113,
      "durationSeconds" : 0.15026575208332815
    }, {
      "type" : "note",
      "tick" : 71760,
      "timeSeconds" : 95.4254015,
      "channel" : 0,
      "noteNumber" : 55,
      "noteName" : "G3",
      "velocity" : 96,
      "durationTicks" : 113,
      "durationSeconds" : 0.15026575208332815
    }, {
      "type" : "note",
      "tick" : 71280,
      "timeSeconds" : 94.7871045,
      "channel" : 0,
      "noteNumber" : 43,
      "noteName" : "G2",
      "velocity" : 96,
      "durationTicks" : 683,
      "durationSeconds" : 0.9082434395833303
    }, {
      "type" : "note",
      "tick" : 71880,
      "timeSeconds" : 95.58497575,
      "channel" : 0,
      "noteNumber" : 50,
      "noteName" : "D3",
      "velocity" : 96,
      "durationTicks" : 113,
      "durationSeconds" : 0.15026575208332815
    }, {
      "type" : "note",
      "tick" : 72120,
      "timeSeconds" : 95.90412425,
      "channel" : 0,
      "noteNumber" : 50,
      "noteName" : "D3",
      "velocity" : 96,
      "durationTicks" : 113,
      "durationSeconds" : 0.15026575208334236
    }, {
      "type" : "note",
      "tick" : 72240,
      "timeSeconds" : 96.0636985,
      "channel" : 0,
      "noteNumber" : 55,
      "noteName" : "G3",
      "velocity" : 96,
      "durationTicks" : 113,
      "durationSeconds" : 0.15026575208332815
    }, {
      "type" : "note",
      "tick" : 72360,
      "timeSeconds" : 96.22327275,
      "channel" : 0,
      "noteNumber" : 62,
      "noteName" : "D4",
      "velocity" : 96,
      "durationTicks" : 113,
      "durationSeconds" : 0.15026575208332815
    }, {
      "type" : "note",
      "tick" : 72480,
      "timeSeconds" : 96.382847,
      "channel" : 0,
      "noteNumber" : 55,
      "noteName" : "G3",
      "velocity" : 96,
      "durationTicks" : 113,
      "durationSeconds" : 0.15026575208332815
    }, {
      "type" : "note",
      "tick" : 72000,
      "timeSeconds" : 95.74455,
      "channel" : 0,
      "noteNumber" : 43,
      "noteName" : "G2",
      "velocity" : 96,
      "durationTicks" : 683,
      "durationSeconds" : 0.9082434395833303
    }, {
      "type" : "note",
      "tick" : 72600,
      "timeSeconds" : 96.54242125,
      "channel" : 0,
      "noteNumber" : 50,
      "noteName" : "D3",
      "velocity" : 96,
      "durationTicks" : 113,
      "durationSeconds" : 0.15026575208332815
    }, {
      "type" : "note",
      "tick" : 72840,
      "timeSeconds" : 96.86156975,
      "channel" : 0,
      "noteNumber" : 50,
      "noteName" : "D3",
      "velocity" : 96,
      "durationTicks" : 113,
      "durationSeconds" : 0.15026575208332815
    }, {
      "type" : "note",
      "tick" : 72960,
      "timeSeconds" : 97.021144,
      "channel" : 0,
      "noteNumber" : 55,
      "noteName" : "G3",
      "velocity" : 96,
      "durationTicks" : 113,
      "durationSeconds" : 0.15026575208332815
    }, {
      "type" : "note",
      "tick" : 73080,
      "timeSeconds" : 97.18071825,
      "channel" : 0,
      "noteNumber" : 62,
      "noteName" : "D4",
      "velocity" : 96,
      "durationTicks" : 113,
      "durationSeconds" : 0.15026575208332815
    }, {
      "type" : "note",
      "tick" : 73200,
      "timeSeconds" : 97.3402925,
      "channel" : 0,
      "noteNumber" : 55,
      "noteName" : "G3",
      "velocity" : 96,
      "durationTicks" : 113,
      "durationSeconds" : 0.15026575208332815
    }, {
      "type" : "note",
      "tick" : 72720,
      "timeSeconds" : 96.7019955,
      "channel" : 0,
      "noteNumber" : 43,
      "noteName" : "G2",
      "velocity" : 96,
      "durationTicks" : 683,
      "durationSeconds" : 0.9082434395833445
    }, {
      "type" : "note",
      "tick" : 73320,
      "timeSeconds" : 97.49986675,
      "channel" : 0,
      "noteNumber" : 50,
      "noteName" : "D3",
      "velocity" : 96,
      "durationTicks" : 113,
      "durationSeconds" : 0.15026575208334236
    }, {
      "type" : "control_change",
      "tick" : 73441,
      "timeSeconds" : 97.66077078541667,
      "channel" : 0,
      "controller" : 64,
      "value" : 0
    }, {
      "type" : "control_change",
      "tick" : 73442,
      "timeSeconds" : 97.66210057083333,
      "channel" : 0,
      "controller" : 64,
      "value" : 127
    }, {
      "type" : "note",
      "tick" : 73560,
      "timeSeconds" : 97.81901525,
      "channel" : 0,
      "noteNumber" : 45,
      "noteName" : "A2",
      "velocity" : 112,
      "durationTicks" : 113,
      "durationSeconds" : 0.15026575208332815
    }, {
      "type" : "note",
      "tick" : 73680,
      "timeSeconds" : 97.9785895,
      "channel" : 0,
      "noteNumber" : 48,
      "noteName" : "C3",
      "velocity" : 112,
      "durationTicks" : 113,
      "durationSeconds" : 0.15026575208332815
    }, {
      "type" : "note",
      "tick" : 73440,
      "timeSeconds" : 97.659441,
      "channel" : 0,
      "noteNumber" : 29,
      "noteName" : "F1",
      "velocity" : 112,
      "durationTicks" : 455,
      "durationSeconds" : 0.6050523645833294
    }, {
      "type" : "note",
      "tick" : 73440,
      "timeSeconds" : 97.659441,
      "channel" : 0,
      "noteNumber" : 41,
      "noteName" : "F2",
      "velocity" : 112,
      "durationTicks" : 455,
      "durationSeconds" : 0.6050523645833294
    }, {
      "type" : "note",
      "tick" : 73800,
      "timeSeconds" : 98.13816375,
      "channel" : 0,
      "noteNumber" : 57,
      "noteName" : "A3",
      "velocity" : 112,
      "durationTicks" : 113,
      "durationSeconds" : 0.15026575208332815
    }, {
      "type" : "note",
      "tick" : 74040,
      "timeSeconds" : 98.45731225,
      "channel" : 0,
      "noteNumber" : 45,
      "noteName" : "A2",
      "velocity" : 112,
      "durationTicks" : 113,
      "durationSeconds" : 0.15026575208332815
    }, {
      "type" : "note",
      "tick" : 74160,
      "timeSeconds" : 98.6168865,
      "channel" : 0,
      "noteNumber" : 48,
      "noteName" : "C3",
      "velocity" : 112,
      "durationTicks" : 113,
      "durationSeconds" : 0.15026575208332815
    }, {
      "type" : "note",
      "tick" : 73920,
      "timeSeconds" : 98.297738,
      "channel" : 0,
      "noteNumber" : 41,
      "noteName" : "F2",
      "velocity" : 112,
      "durationTicks" : 455,
      "durationSeconds" : 0.6050523645833437
    }, {
      "type" : "note",
      "tick" : 74280,
      "timeSeconds" : 98.77646075,
      "channel" : 0,
      "noteNumber" : 57,
      "noteName" : "A3",
      "velocity" : 112,
      "durationTicks" : 113,
      "durationSeconds" : 0.15026575208332815
    }, {
      "type" : "note",
      "tick" : 74520,
      "timeSeconds" : 99.09560925,
      "channel" : 0,
      "noteNumber" : 45,
      "noteName" : "A2",
      "velocity" : 112,
      "durationTicks" : 113,
      "durationSeconds" : 0.15026575208334236
    }, {
      "type" : "note",
      "tick" : 74640,
      "timeSeconds" : 99.2551835,
      "channel" : 0,
      "noteNumber" : 48,
      "noteName" : "C3",
      "velocity" : 112,
      "durationTicks" : 113,
      "durationSeconds" : 0.15026575208332815
    }, {
      "type" : "note",
      "tick" : 74400,
      "timeSeconds" : 98.936035,
      "channel" : 0,
      "noteNumber" : 41,
      "noteName" : "F2",
      "velocity" : 112,
      "durationTicks" : 455,
      "durationSeconds" : 0.6050523645833294
    }, {
      "type" : "note",
      "tick" : 74760,
      "timeSeconds" : 99.41475775,
      "channel" : 0,
      "noteNumber" : 57,
      "noteName" : "A3",
      "velocity" : 112,
      "durationTicks" : 113,
      "durationSeconds" : 0.15026575208332815
    }, {
      "type" : "control_change",
      "tick" : 74881,
      "timeSeconds" : 99.57566178541667,
      "channel" : 0,
      "controller" : 64,
      "value" : 0
    }, {
      "type" : "control_change",
      "tick" : 74882,
      "timeSeconds" : 99.57699157083333,
      "channel" : 0,
      "controller" : 64,
      "value" : 127
    }, {
      "type" : "note",
      "tick" : 75000,
      "timeSeconds" : 99.73390625,
      "channel" : 0,
      "noteNumber" : 45,
      "noteName" : "A2",
      "velocity" : 112,
      "durationTicks" : 113,
      "durationSeconds" : 0.15026575208332815
    }, {
      "type" : "note",
      "tick" : 75120,
      "timeSeconds" : 99.8934805,
      "channel" : 0,
      "noteNumber" : 48,
      "noteName" : "C3",
      "velocity" : 112,
      "durationTicks" : 113,
      "durationSeconds" : 0.15026575208334236
    }, {
      "type" : "note",
      "tick" : 74880,
      "timeSeconds" : 99.574332,
      "channel" : 0,
      "noteNumber" : 29,
      "noteName" : "F1",
      "velocity" : 112,
      "durationTicks" : 455,
      "durationSeconds" : 0.6050523645833294
    }, {
      "type" : "note",
      "tick" : 74880,
      "timeSeconds" : 99.574332,
      "channel" : 0,
      "noteNumber" : 41,
      "noteName" : "F2",
      "velocity" : 112,
      "durationTicks" : 455,
      "durationSeconds" : 0.6050523645833294
    }, {
      "type" : "note",
      "tick" : 75240,
      "timeSeconds" : 100.05305475,
      "channel" : 0,
      "noteNumber" : 57,
      "noteName" : "A3",
      "velocity" : 112,
      "durationTicks" : 113,
      "durationSeconds" : 0.15026575208332815
    }, {
      "type" : "note",
      "tick" : 75480,
      "timeSeconds" : 100.37220325,
      "channel" : 0,
      "noteNumber" : 45,
      "noteName" : "A2",
      "velocity" : 112,
      "durationTicks" : 113,
      "durationSeconds" : 0.15026575208332815
    }, {
      "type" : "note",
      "tick" : 75600,
      "timeSeconds" : 100.5317775,
      "channel" : 0,
      "noteNumber" : 48,
      "noteName" : "C3",
      "velocity" : 112,
      "durationTicks" : 113,
      "durationSeconds" : 0.15026575208332815
    }, {
      "type" : "note",
      "tick" : 75360,
      "timeSeconds" : 100.212629,
      "channel" : 0,
      "noteNumber" : 41,
      "noteName" : "F2",
      "velocity" : 112,
      "durationTicks" : 455,
      "durationSeconds" : 0.6050523645833294
    }, {
      "type" : "note",
      "tick" : 75720,
      "timeSeconds" : 100.69135175,
      "channel" : 0,
      "noteNumber" : 57,
      "noteName" : "A3",
      "velocity" : 112,
      "durationTicks" : 113,
      "durationSeconds" : 0.15026575208334236
    }, {
      "type" : "note",
      "tick" : 75960,
      "timeSeconds" : 101.01050025,
      "channel" : 0,
      "noteNumber" : 45,
      "noteName" : "A2",
      "velocity" : 112,
      "durationTicks" : 113,
      "durationSeconds" : 0.15026575208332815
    }, {
      "type" : "note",
      "tick" : 76080,
      "timeSeconds" : 101.1700745,
      "channel" : 0,
      "noteNumber" : 48,
      "noteName" : "C3",
      "velocity" : 112,
      "durationTicks" : 113,
      "durationSeconds" : 0.15026575208332815
    }, {
      "type" : "note",
      "tick" : 75840,
      "timeSeconds" : 100.850926,
      "channel" : 0,
      "noteNumber" : 41,
      "noteName" : "F2",
      "velocity" : 112,
      "durationTicks" : 455,
      "durationSeconds" : 0.6050523645833294
    }, {
      "type" : "note",
      "tick" : 76200,
      "timeSeconds" : 101.32964875,
      "channel" : 0,
      "noteNumber" : 57,
      "noteName" : "A3",
      "velocity" : 112,
      "durationTicks" : 113,
      "durationSeconds" : 0.15026575208332815
    }, {
      "type" : "control_change",
      "tick" : 76321,
      "timeSeconds" : 101.49055278541667,
      "channel" : 0,
      "controller" : 64,
      "value" : 0
    }, {
      "type" : "control_change",
      "tick" : 76322,
      "timeSeconds" : 101.49188257083334,
      "channel" : 0,
      "controller" : 64,
      "value" : 127
    }, {
      "type" : "note",
      "tick" : 76440,
      "timeSeconds" : 101.64879725,
      "channel" : 0,
      "noteNumber" : 47,
      "noteName" : "B2",
      "velocity" : 112,
      "durationTicks" : 113,
      "durationSeconds" : 0.15026575208332815
    }, {
      "type" : "note",
      "tick" : 76560,
      "timeSeconds" : 101.8083715,
      "channel" : 0,
      "noteNumber" : 50,
      "noteName" : "D3",
      "velocity" : 112,
      "durationTicks" : 113,
      "durationSeconds" : 0.15026575208332815
    }, {
      "type" : "note",
      "tick" : 76320,
      "timeSeconds" : 101.489223,
      "channel" : 0,
      "noteNumber" : 31,
      "noteName" : "G1",
      "velocity" : 112,
      "durationTicks" : 455,
      "durationSeconds" : 0.6050523645833437
    }, {
      "type" : "note",
      "tick" : 76320,
      "timeSeconds" : 101.489223,
      "channel" : 0,
      "noteNumber" : 43,
      "noteName" : "G2",
      "velocity" : 112,
      "durationTicks" : 455,
      "durationSeconds" : 0.6050523645833437
    }, {
      "type" : "note",
      "tick" : 76680,
      "timeSeconds" : 101.96794575,
      "channel" : 0,
      "noteNumber" : 55,
      "noteName" : "G3",
      "velocity" : 112,
      "durationTicks" : 113,
      "durationSeconds" : 0.15026575208332815
    }, {
      "type" : "note",
      "tick" : 76920,
      "timeSeconds" : 102.28709425,
      "channel" : 0,
      "noteNumber" : 47,
      "noteName" : "B2",
      "velocity" : 112,
      "durationTicks" : 113,
      "durationSeconds" : 0.15026575208334236
    }, {
      "type" : "note",
      "tick" : 77040,
      "timeSeconds" : 102.4466685,
      "channel" : 0,
      "noteNumber" : 50,
      "noteName" : "D3",
      "velocity" : 112,
      "durationTicks" : 113,
      "durationSeconds" : 0.15026575208332815
    }, {
      "type" : "note",
      "tick" : 76800,
      "timeSeconds" : 102.12752,
      "channel" : 0,
      "noteNumber" : 43,
      "noteName" : "G2",
      "velocity" : 112,
      "durationTicks" : 455,
      "durationSeconds" : 0.6050523645833294
    }, {
      "type" : "note",
      "tick" : 77160,
      "timeSeconds" : 102.60624275,
      "channel" : 0,
      "noteNumber" : 55,
      "noteName" : "G3",
      "velocity" : 112,
      "durationTicks" : 113,
      "durationSeconds" : 0.15026575208332815
    }, {
      "type" : "note",
      "tick" : 77400,
      "timeSeconds" : 102.92539125,
      "channel" : 0,
      "noteNumber" : 47,
      "noteName" : "B2",
      "velocity" : 112,
      "durationTicks" : 113,
      "durationSeconds" : 0.15026575208332815
    }, {
      "type" : "note",
      "tick" : 77520,
      "timeSeconds" : 103.0849655,
      "channel" : 0,
      "noteNumber" : 50,
      "noteName" : "D3",
      "velocity" : 112,
      "durationTicks" : 113,
      "durationSeconds" : 0.15026575208334236
    }, {
      "type" : "note",
      "tick" : 77280,
      "timeSeconds" : 102.765817,
      "channel" : 0,
      "noteNumber" : 43,
      "noteName" : "G2",
      "velocity" : 112,
      "durationTicks" : 455,
      "durationSeconds" : 0.6050523645833294
    }, {
      "type" : "note",
      "tick" : 77640,
      "timeSeconds" : 103.24453975,
      "channel" : 0,
      "noteNumber" : 55,
      "noteName" : "G3",
      "velocity" : 112,
      "durationTicks" : 113,
      "durationSeconds" : 0.15026575208332815
    }, {
      "type" : "control_change",
      "tick" : 77761,
      "timeSeconds" : 103.40544378541667,
      "channel" : 0,
      "controller" : 64,
      "value" : 0
    }, {
      "type" : "control_change",
      "tick" : 77762,
      "timeSeconds" : 103.40677357083334,
      "channel" : 0,
      "controller" : 64,
      "value" : 127
    }, {
      "type" : "note",
      "tick" : 77880,
      "timeSeconds" : 103.56368825,
      "channel" : 0,
      "noteNumber" : 47,
      "noteName" : "B2",
      "velocity" : 112,
      "durationTicks" : 113,
      "durationSeconds" : 0.15026575208332815
    }, {
      "type" : "note",
      "tick" : 78000,
      "timeSeconds" : 103.7232625,
      "channel" : 0,
      "noteNumber" : 50,
      "noteName" : "D3",
      "velocity" : 112,
      "durationTicks" : 113,
      "durationSeconds" : 0.15026575208332815
    }, {
      "type" : "note",
      "tick" : 77760,
      "timeSeconds" : 103.404114,
      "channel" : 0,
      "noteNumber" : 31,
      "noteName" : "G1",
      "velocity" : 112,
      "durationTicks" : 455,
      "durationSeconds" : 0.6050523645833294
    }, {
      "type" : "note",
      "tick" : 77760,
      "timeSeconds" : 103.404114,
      "channel" : 0,
      "noteNumber" : 43,
      "noteName" : "G2",
      "velocity" : 112,
      "durationTicks" : 455,
      "durationSeconds" : 0.6050523645833294
    }, {
      "type" : "note",
      "tick" : 78120,
      "timeSeconds" : 103.88283675,
      "channel" : 0,
      "noteNumber" : 55,
      "noteName" : "G3",
      "velocity" : 112,
      "durationTicks" : 113,
      "durationSeconds" : 0.15026575208334236
    }, {
      "type" : "note",
      "tick" : 78360,
      "timeSeconds" : 104.20198525,
      "channel" : 0,
      "noteNumber" : 47,
      "noteName" : "B2",
      "velocity" : 112,
      "durationTicks" : 113,
      "durationSeconds" : 0.15026575208332815
    }, {
      "type" : "note",
      "tick" : 78480,
      "timeSeconds" : 104.3615595,
      "channel" : 0,
      "noteNumber" : 50,
      "noteName" : "D3",
      "velocity" : 112,
      "durationTicks" : 113,
      "durationSeconds" : 0.15026575208332815
    }, {
      "type" : "note",
      "tick" : 78240,
      "timeSeconds" : 104.042411,
      "channel" : 0,
      "noteNumber" : 43,
      "noteName" : "G2",
      "velocity" : 112,
      "durationTicks" : 455,
      "durationSeconds" : 0.6050523645833294
    }, {
      "type" : "note",
      "tick" : 78600,
      "timeSeconds" : 104.52113375,
      "channel" : 0,
      "noteNumber" : 55,
      "noteName" : "G3",
      "velocity" : 112,
      "durationTicks" : 113,
      "durationSeconds" : 0.15026575208332815
    }, {
      "type" : "note",
      "tick" : 78840,
      "timeSeconds" : 104.84028225,
      "channel" : 0,
      "noteNumber" : 47,
      "noteName" : "B2",
      "velocity" : 112,
      "durationTicks" : 113,
      "durationSeconds" : 0.15026575208332815
    }, {
      "type" : "note",
      "tick" : 78960,
      "timeSeconds" : 104.9998565,
      "channel" : 0,
      "noteNumber" : 50,
      "noteName" : "D3",
      "velocity" : 112,
      "durationTicks" : 113,
      "durationSeconds" : 0.15026575208332815
    }, {
      "type" : "note",
      "tick" : 78720,
      "timeSeconds" : 104.680708,
      "channel" : 0,
      "noteNumber" : 43,
      "noteName" : "G2",
      "velocity" : 112,
      "durationTicks" : 455,
      "durationSeconds" : 0.6050523645833437
    }, {
      "type" : "note",
      "tick" : 79080,
      "timeSeconds" : 105.15943075,
      "channel" : 0,
      "noteNumber" : 55,
      "noteName" : "G3",
      "velocity" : 112,
      "durationTicks" : 113,
      "durationSeconds" : 0.15026575208332815
    }, {
      "type" : "control_change",
      "tick" : 79201,
      "timeSeconds" : 105.32033478541666,
      "channel" : 0,
      "controller" : 64,
      "value" : 0
    }, {
      "type" : "control_change",
      "tick" : 79202,
      "timeSeconds" : 105.32166457083333,
      "channel" : 0,
      "controller" : 64,
      "value" : 127
    }, {
      "type" : "note",
      "tick" : 79320,
      "timeSeconds" : 105.47857925,
      "channel" : 0,
      "noteNumber" : 48,
      "noteName" : "C3",
      "velocity" : 112,
      "durationTicks" : 113,
      "durationSeconds" : 0.15026575208334236
    }, {
      "type" : "note",
      "tick" : 79440,
      "timeSeconds" : 105.6381535,
      "channel" : 0,
      "noteNumber" : 52,
      "noteName" : "E3",
      "velocity" : 112,
      "durationTicks" : 113,
      "durationSeconds" : 0.15026575208332815
    }, {
      "type" : "note",
      "tick" : 79200,
      "timeSeconds" : 105.319005,
      "channel" : 0,
      "noteNumber" : 33,
      "noteName" : "A1",
      "velocity" : 112,
      "durationTicks" : 455,
      "durationSeconds" : 0.6050523645833294
    }, {
      "type" : "note",
      "tick" : 79200,
      "timeSeconds" : 105.319005,
      "channel" : 0,
      "noteNumber" : 45,
      "noteName" : "A2",
      "velocity" : 112,
      "durationTicks" : 455,
      "durationSeconds" : 0.6050523645833294
    }, {
      "type" : "note",
      "tick" : 79560,
      "timeSeconds" : 105.79772775,
      "channel" : 0,
      "noteNumber" : 57,
      "noteName" : "A3",
      "velocity" : 112,
      "durationTicks" : 113,
      "durationSeconds" : 0.15026575208332815
    }, {
      "type" : "note",
      "tick" : 79800,
      "timeSeconds" : 106.11687625,
      "channel" : 0,
      "noteNumber" : 48,
      "noteName" : "C3",
      "velocity" : 112,
      "durationTicks" : 113,
      "durationSeconds" : 0.15026575208332815
    }, {
      "type" : "note",
      "tick" : 79920,
      "timeSeconds" : 106.2764505,
      "channel" : 0,
      "noteNumber" : 52,
      "noteName" : "E3",
      "velocity" : 112,
      "durationTicks" : 113,
      "durationSeconds" : 0.15026575208334236
    }, {
      "type" : "note",
      "tick" : 79680,
      "timeSeconds" : 105.957302,
      "channel" : 0,
      "noteNumber" : 45,
      "noteName" : "A2",
      "velocity" : 112,
      "durationTicks" : 455,
      "durationSeconds" : 0.6050523645833294
    }, {
      "type" : "note",
      "tick" : 80040,
      "timeSeconds" : 106.43602475,
      "channel" : 0,
      "noteNumber" : 57,
      "noteName" : "A3",
      "velocity" : 112,
      "durationTicks" : 113,
      "durationSeconds" : 0.15026575208332815
    }, {
      "type" : "note",
      "tick" : 80280,
      "timeSeconds" : 106.75517325,
      "channel" : 0,
      "noteNumber" : 48,
      "noteName" : "C3",
      "velocity" : 112,
      "durationTicks" : 113,
      "durationSeconds" : 0.15026575208332815
    }, {
      "type" : "note",
      "tick" : 80400,
      "timeSeconds" : 106.9147475,
      "channel" : 0,
      "noteNumber" : 52,
      "noteName" : "E3",
      "velocity" : 112,
      "durationTicks" : 113,
      "durationSeconds" : 0.15026575208332815
    }, {
      "type" : "note",
      "tick" : 80160,
      "timeSeconds" : 106.595599,
      "channel" : 0,
      "noteNumber" : 45,
      "noteName" : "A2",
      "velocity" : 112,
      "durationTicks" : 455,
      "durationSeconds" : 0.6050523645833294
    }, {
      "type" : "note",
      "tick" : 80520,
      "timeSeconds" : 107.07432175,
      "channel" : 0,
      "noteNumber" : 57,
      "noteName" : "A3",
      "velocity" : 112,
      "durationTicks" : 113,
      "durationSeconds" : 0.15026575208334236
    }, {
      "type" : "control_change",
      "tick" : 80641,
      "timeSeconds" : 107.23522578541667,
      "channel" : 0,
      "controller" : 64,
      "value" : 0
    }, {
      "type" : "control_change",
      "tick" : 80642,
      "timeSeconds" : 107.23655557083333,
      "channel" : 0,
      "controller" : 64,
      "value" : 127
    }, {
      "type" : "note",
      "tick" : 80760,
      "timeSeconds" : 107.39347025,
      "channel" : 0,
      "noteNumber" : 48,
      "noteName" : "C3",
      "velocity" : 112,
      "durationTicks" : 113,
      "durationSeconds" : 0.15026575208334236
    }, {
      "type" : "note",
      "tick" : 80880,
      "timeSeconds" : 107.5530445,
      "channel" : 0,
      "noteNumber" : 52,
      "noteName" : "E3",
      "velocity" : 112,
      "durationTicks" : 113,
      "durationSeconds" : 0.15026575208332815
    }, {
      "type" : "note",
      "tick" : 80640,
      "timeSeconds" : 107.233896,
      "channel" : 0,
      "noteNumber" : 33,
      "noteName" : "A1",
      "velocity" : 112,
      "durationTicks" : 455,
      "durationSeconds" : 0.6050523645833294
    }, {
      "type" : "note",
      "tick" : 80640,
      "timeSeconds" : 107.233896,
      "channel" : 0,
      "noteNumber" : 45,
      "noteName" : "A2",
      "velocity" : 112,
      "durationTicks" : 455,
      "durationSeconds" : 0.6050523645833294
    }, {
      "type" : "note",
      "tick" : 81000,
      "timeSeconds" : 107.71261875,
      "channel" : 0,
      "noteNumber" : 57,
      "noteName" : "A3",
      "velocity" : 112,
      "durationTicks" : 113,
      "durationSeconds" : 0.15026575208332815
    }, {
      "type" : "note",
      "tick" : 81240,
      "timeSeconds" : 108.03176725,
      "channel" : 0,
      "noteNumber" : 48,
      "noteName" : "C3",
      "velocity" : 112,
      "durationTicks" : 113,
      "durationSeconds" : 0.15026575208332815
    }, {
      "type" : "note",
      "tick" : 81360,
      "timeSeconds" : 108.1913415,
      "channel" : 0,
      "noteNumber" : 52,
      "noteName" : "E3",
      "velocity" : 112,
      "durationTicks" : 113,
      "durationSeconds" : 0.15026575208334236
    }, {
      "type" : "note",
      "tick" : 81120,
      "timeSeconds" : 107.872193,
      "channel" : 0,
      "noteNumber" : 45,
      "noteName" : "A2",
      "velocity" : 112,
      "durationTicks" : 455,
      "durationSeconds" : 0.6050523645833437
    }, {
      "type" : "note",
      "tick" : 81480,
      "timeSeconds" : 108.35091575,
      "channel" : 0,
      "noteNumber" : 57,
      "noteName" : "A3",
      "velocity" : 112,
      "durationTicks" : 113,
      "durationSeconds" : 0.15026575208332815
    }, {
      "type" : "note",
      "tick" : 81720,
      "timeSeconds" : 108.67006425,
      "channel" : 0,
      "noteNumber" : 48,
      "noteName" : "C3",
      "velocity" : 112,
      "durationTicks" : 113,
      "durationSeconds" : 0.15026575208334236
    }, {
      "type" : "note",
      "tick" : 81840,
      "timeSeconds" : 108.8296385,
      "channel" : 0,
      "noteNumber" : 52,
      "noteName" : "E3",
      "velocity" : 112,
      "durationTicks" : 113,
      "durationSeconds" : 0.15026575208332815
    }, {
      "type" : "note",
      "tick" : 81600,
      "timeSeconds" : 108.51049,
      "channel" : 0,
      "noteNumber" : 45,
      "noteName" : "A2",
      "velocity" : 112,
      "durationTicks" : 455,
      "durationSeconds" : 0.6050523645833294
    }, {
      "type" : "note",
      "tick" : 81960,
      "timeSeconds" : 108.98921275,
      "channel" : 0,
      "noteNumber" : 57,
      "noteName" : "A3",
      "velocity" : 112,
      "durationTicks" : 113,
      "durationSeconds" : 0.15026575208334236
    }, {
      "type" : "control_change",
      "tick" : 82081,
      "timeSeconds" : 109.15011678541667,
      "channel" : 0,
      "controller" : 64,
      "value" : 0
    }, {
      "type" : "control_change",
      "tick" : 82082,
      "timeSeconds" : 109.15144657083333,
      "channel" : 0,
      "controller" : 64,
      "value" : 127
    }, {
      "type" : "note",
      "tick" : 82200,
      "timeSeconds" : 109.30836125,
      "channel" : 0,
      "noteNumber" : 47,
      "noteName" : "B2",
      "velocity" : 112,
      "durationTicks" : 113,
      "durationSeconds" : 0.15026575208332815
    }, {
      "type" : "note",
      "tick" : 82320,
      "timeSeconds" : 109.4679355,
      "channel" : 0,
      "noteNumber" : 50,
      "noteName" : "D3",
      "velocity" : 112,
      "durationTicks" : 113,
      "durationSeconds" : 0.15026575208334236
    }, {
      "type" : "note",
      "tick" : 82080,
      "timeSeconds" : 109.148787,
      "channel" : 0,
      "noteNumber" : 31,
      "noteName" : "G1",
      "velocity" : 112,
      "durationTicks" : 455,
      "durationSeconds" : 0.6050523645833294
    }, {
      "type" : "note",
      "tick" : 82080,
      "timeSeconds" : 109.148787,
      "channel" : 0,
      "noteNumber" : 43,
      "noteName" : "G2",
      "velocity" : 112,
      "durationTicks" : 455,
      "durationSeconds" : 0.6050523645833294
    }, {
      "type" : "note",
      "tick" : 82440,
      "timeSeconds" : 109.62750975,
      "channel" : 0,
      "noteNumber" : 62,
      "noteName" : "D4",
      "velocity" : 112,
      "durationTicks" : 113,
      "durationSeconds" : 0.15026575208332815
    }, {
      "type" : "note",
      "tick" : 82680,
      "timeSeconds" : 109.94665825,
      "channel" : 0,
      "noteNumber" : 47,
      "noteName" : "B2",
      "velocity" : 112,
      "durationTicks" : 113,
      "durationSeconds" : 0.15026575208332815
    }, {
      "type" : "note",
      "tick" : 82800,
      "timeSeconds" : 110.1062325,
      "channel" : 0,
      "noteNumber" : 50,
      "noteName" : "D3",
      "velocity" : 112,
      "durationTicks" : 113,
      "durationSeconds" : 0.15026575208332815
    }, {
      "type" : "note",
      "tick" : 82560,
      "timeSeconds" : 109.787084,
      "channel" : 0,
      "noteNumber" : 43,
      "noteName" : "G2",
      "velocity" : 112,
      "durationTicks" : 455,
      "durationSeconds" : 0.6050523645833437
    }, {
      "type" : "note",
      "tick" : 82920,
      "timeSeconds" : 110.26580675,
      "channel" : 0,
      "noteNumber" : 62,
      "noteName" : "D4",
      "velocity" : 112,
      "durationTicks" : 113,
      "durationSeconds" : 0.15026575208334236
    }, {
      "type" : "note",
      "tick" : 83160,
      "timeSeconds" : 110.58495525,
      "channel" : 0,
      "noteNumber" : 47,
      "noteName" : "B2",
      "velocity" : 112,
      "durationTicks" : 113,
      "durationSeconds" : 0.15026575208334236
    }, {
      "type" : "note",
      "tick" : 83280,
      "timeSeconds" : 110.7445295,
      "channel" : 0,
      "noteNumber" : 50,
      "noteName" : "D3",
      "velocity" : 112,
      "durationTicks" : 113,
      "durationSeconds" : 0.15026575208332815
    }, {
      "type" : "note",
      "tick" : 83040,
      "timeSeconds" : 110.425381,
      "channel" : 0,
      "noteNumber" : 43,
      "noteName" : "G2",
      "velocity" : 112,
      "durationTicks" : 455,
      "durationSeconds" : 0.6050523645833294
    }, {
      "type" : "note",
      "tick" : 83400,
      "timeSeconds" : 110.90410375,
      "channel" : 0,
      "noteNumber" : 62,
      "noteName" : "D4",
      "velocity" : 112,
      "durationTicks" : 113,
      "durationSeconds" : 0.15026575208332815
    }, {
      "type" : "control_change",
      "tick" : 83521,
      "timeSeconds" : 111.06500778541667,
      "channel" : 0,
      "controller" : 64,
      "value" : 0
    }, {
      "type" : "control_change",
      "tick" : 83522,
      "timeSeconds" : 111.06633757083333,
      "channel" : 0,
      "controller" : 64,
      "value" : 127
    }, {
      "type" : "note",
      "tick" : 83640,
      "timeSeconds" : 111.22325225,
      "channel" : 0,
      "noteNumber" : 47,
      "noteName" : "B2",
      "velocity" : 112,
      "durationTicks" : 113,
      "durationSeconds" : 0.15026575208332815
    }, {
      "type" : "note",
      "tick" : 83760,
      "timeSeconds" : 111.3828265,
      "channel" : 0,
      "noteNumber" : 50,
      "noteName" : "D3",
      "velocity" : 112,
      "durationTicks" : 113,
      "durationSeconds" : 0.15026575208334236
    }, {
      "type" : "note",
      "tick" : 83520,
      "timeSeconds" : 111.063678,
      "channel" : 0,
      "noteNumber" : 31,
      "noteName" : "G1",
      "velocity" : 112,
      "durationTicks" : 455,
      "durationSeconds" : 0.6050523645833437
    }, {
      "type" : "note",
      "tick" : 83520,
      "timeSeconds" : 111.063678,
      "channel" : 0,
      "noteNumber" : 43,
      "noteName" : "G2",
      "velocity" : 112,
      "durationTicks" : 455,
      "durationSeconds" : 0.6050523645833437
    }, {
      "type" : "note",
      "tick" : 83880,
      "timeSeconds" : 111.54240075,
      "channel" : 0,
      "noteNumber" : 62,
      "noteName" : "D4",
      "velocity" : 112,
      "durationTicks" : 113,
      "durationSeconds" : 0.15026575208332815
    }, {
      "type" : "note",
      "tick" : 84120,
      "timeSeconds" : 111.86154925,
      "channel" : 0,
      "noteNumber" : 47,
      "noteName" : "B2",
      "velocity" : 112,
      "durationTicks" : 113,
      "durationSeconds" : 0.15026575208334236
    }, {
      "type" : "note",
      "tick" : 84240,
      "timeSeconds" : 112.0211235,
      "channel" : 0,
      "noteNumber" : 50,
      "noteName" : "D3",
      "velocity" : 112,
      "durationTicks" : 113,
      "durationSeconds" : 0.15026575208332815
    }, {
      "type" : "note",
      "tick" : 84000,
      "timeSeconds" : 111.701975,
      "channel" : 0,
      "noteNumber" : 43,
      "noteName" : "G2",
      "velocity" : 112,
      "durationTicks" : 455,
      "durationSeconds" : 0.6050523645833294
    }, {
      "type" : "note",
      "tick" : 84360,
      "timeSeconds" : 112.18069775,
      "channel" : 0,
      "noteNumber" : 62,
      "noteName" : "D4",
      "velocity" : 112,
      "durationTicks" : 113,
      "durationSeconds" : 0.15026575208334236
    }, {
      "type" : "note",
      "tick" : 84600,
      "timeSeconds" : 112.49984625,
      "channel" : 0,
      "noteNumber" : 47,
      "noteName" : "B2",
      "velocity" : 112,
      "durationTicks" : 113,
      "durationSeconds" : 0.15026575208332815
    }, {
      "type" : "note",
      "tick" : 84720,
      "timeSeconds" : 112.6594205,
      "channel" : 0,
      "noteNumber" : 50,
      "noteName" : "D3",
      "velocity" : 112,
      "durationTicks" : 113,
      "durationSeconds" : 0.15026575208334236
    }, {
      "type" : "note",
      "tick" : 84480,
      "timeSeconds" : 112.340272,
      "channel" : 0,
      "noteNumber" : 43,
      "noteName" : "G2",
      "velocity" : 112,
      "durationTicks" : 455,
      "durationSeconds" : 0.6050523645833294
    }, {
      "type" : "note",
      "tick" : 84840,
      "timeSeconds" : 112.81899475,
      "channel" : 0,
      "noteNumber" : 62,
      "noteName" : "D4",
      "velocity" : 112,
      "durationTicks" : 113,
      "durationSeconds" : 0.15026575208332815
    }, {
      "type" : "control_change",
      "tick" : 84961,
      "timeSeconds" : 112.97989878541667,
      "channel" : 0,
      "controller" : 64,
      "value" : 0
    }, {
      "type" : "control_change",
      "tick" : 84962,
      "timeSeconds" : 112.98122857083334,
      "channel" : 0,
      "controller" : 64,
      "value" : 127
    }, {
      "type" : "note",
      "tick" : 85080,
      "timeSeconds" : 113.13814325,
      "channel" : 0,
      "noteNumber" : 45,
      "noteName" : "A2",
      "velocity" : 112,
      "durationTicks" : 113,
      "durationSeconds" : 0.15026575208332815
    }, {
      "type" : "note",
      "tick" : 85200,
      "timeSeconds" : 113.2977175,
      "channel" : 0,
      "noteNumber" : 48,
      "noteName" : "C3",
      "velocity" : 112,
      "durationTicks" : 113,
      "durationSeconds" : 0.15026575208332815
    }, {
      "type" : "note",
      "tick" : 84960,
      "timeSeconds" : 112.978569,
      "channel" : 0,
      "noteNumber" : 29,
      "noteName" : "F1",
      "velocity" : 112,
      "durationTicks" : 455,
      "durationSeconds" : 0.6050523645833437
    }, {
      "type" : "note",
      "tick" : 84960,
      "timeSeconds" : 112.978569,
      "channel" : 0,
      "noteNumber" : 41,
      "noteName" : "F2",
      "velocity" : 112,
      "durationTicks" : 455,
      "durationSeconds" : 0.6050523645833437
    }, {
      "type" : "note",
      "tick" : 85320,
      "timeSeconds" : 113.45729175,
      "channel" : 0,
      "noteNumber" : 57,
      "noteName" : "A3",
      "velocity" : 112,
      "durationTicks" : 113,
      "durationSeconds" : 0.15026575208334236
    }, {
      "type" : "note",
      "tick" : 85560,
      "timeSeconds" : 113.77644025,
      "channel" : 0,
      "noteNumber" : 45,
      "noteName" : "A2",
      "velocity" : 112,
      "durationTicks" : 113,
      "durationSeconds" : 0.15026575208334236
    }, {
      "type" : "note",
      "tick" : 85680,
      "timeSeconds" : 113.9360145,
      "channel" : 0,
      "noteNumber" : 48,
      "noteName" : "C3",
      "velocity" : 112,
      "durationTicks" : 113,
      "durationSeconds" : 0.15026575208332815
    }, {
      "type" : "note",
      "tick" : 85440,
      "timeSeconds" : 113.616866,
      "channel" : 0,
      "noteNumber" : 41,
      "noteName" : "F2",
      "velocity" : 112,
      "durationTicks" : 455,
      "durationSeconds" : 0.6050523645833294
    }, {
      "type" : "note",
      "tick" : 85800,
      "timeSeconds" : 114.09558875,
      "channel" : 0,
      "noteNumber" : 57,
      "noteName" : "A3",
      "velocity" : 112,
      "durationTicks" : 113,
      "durationSeconds" : 0.15026575208332815
    }, {
      "type" : "note",
      "tick" : 86040,
      "timeSeconds" : 114.41473725,
      "channel" : 0,
      "noteNumber" : 45,
      "noteName" : "A2",
      "velocity" : 112,
      "durationTicks" : 113,
      "durationSeconds" : 0.15026575208332815
    }, {
      "type" : "note",
      "tick" : 86160,
      "timeSeconds" : 114.5743115,
      "channel" : 0,
      "noteNumber" : 48,
      "noteName" : "C3",
      "velocity" : 112,
      "durationTicks" : 113,
      "durationSeconds" : 0.15026575208334236
    }, {
      "type" : "note",
      "tick" : 85920,
      "timeSeconds" : 114.255163,
      "channel" : 0,
      "noteNumber" : 41,
      "noteName" : "F2",
      "velocity" : 112,
      "durationTicks" : 455,
      "durationSeconds" : 0.6050523645833437
    }, {
      "type" : "note",
      "tick" : 86280,
      "timeSeconds" : 114.73388575,
      "channel" : 0,
      "noteNumber" : 57,
      "noteName" : "A3",
      "velocity" : 112,
      "durationTicks" : 113,
      "durationSeconds" : 0.15026575208332815
    }, {
      "type" : "control_change",
      "tick" : 86401,
      "timeSeconds" : 114.89478978541666,
      "channel" : 0,
      "controller" : 64,
      "value" : 0
    }, {
      "type" : "control_change",
      "tick" : 86402,
      "timeSeconds" : 114.89611957083333,
      "channel" : 0,
      "controller" : 64,
      "value" : 127
    }, {
      "type" : "note",
      "tick" : 86520,
      "timeSeconds" : 115.05303425,
      "channel" : 0,
      "noteNumber" : 45,
      "noteName" : "A2",
      "velocity" : 112,
      "durationTicks" : 113,
      "durationSeconds" : 0.15026575208334236
    }, {
      "type" : "note",
      "tick" : 86640,
      "timeSeconds" : 115.2126085,
      "channel" : 0,
      "noteNumber" : 48,
      "noteName" : "C3",
      "velocity" : 112,
      "durationTicks" : 113,
      "durationSeconds" : 0.15026575208332815
    }, {
      "type" : "note",
      "tick" : 86400,
      "timeSeconds" : 114.89346,
      "channel" : 0,
      "noteNumber" : 29,
      "noteName" : "F1",
      "velocity" : 112,
      "durationTicks" : 455,
      "durationSeconds" : 0.6050523645833294
    }, {
      "type" : "note",
      "tick" : 86400,
      "timeSeconds" : 114.89346,
      "channel" : 0,
      "noteNumber" : 41,
      "noteName" : "F2",
      "velocity" : 112,
      "durationTicks" : 455,
      "durationSeconds" : 0.6050523645833294
    }, {
      "type" : "note",
      "tick" : 86760,
      "timeSeconds" : 115.37218275,
      "channel" : 0,
      "noteNumber" : 57,
      "noteName" : "A3",
      "velocity" : 112,
      "durationTicks" : 113,
      "durationSeconds" : 0.15026575208334236
    }, {
      "type" : "note",
      "tick" : 87000,
      "timeSeconds" : 115.69133125,
      "channel" : 0,
      "noteNumber" : 45,
      "noteName" : "A2",
      "velocity" : 112,
      "durationTicks" : 113,
      "durationSeconds" : 0.15026575208332815
    }, {
      "type" : "note",
      "tick" : 87120,
      "timeSeconds" : 115.8509055,
      "channel" : 0,
      "noteNumber" : 48,
      "noteName" : "C3",
      "velocity" : 112,
      "durationTicks" : 113,
      "durationSeconds" : 0.15026575208334236
    }, {
      "type" : "note",
      "tick" : 86880,
      "timeSeconds" : 115.531757,
      "channel" : 0,
      "noteNumber" : 41,
      "noteName" : "F2",
      "velocity" : 112,
      "durationTicks" : 455,
      "durationSeconds" : 0.6050523645833294
    }, {
      "type" : "note",
      "tick" : 87240,
      "timeSeconds" : 116.01047975,
      "channel" : 0,
      "noteNumber" : 57,
      "noteName" : "A3",
      "velocity" : 112,
      "durationTicks" : 113,
      "durationSeconds" : 0.15026575208332815
    }, {
      "type" : "note",
      "tick" : 87480,
      "timeSeconds" : 116.32962825,
      "channel" : 0,
      "noteNumber" : 45,
      "noteName" : "A2",
      "velocity" : 112,
      "durationTicks" : 113,
      "durationSeconds" : 0.15026575208332815
    }, {
      "type" : "note",
      "tick" : 87600,
      "timeSeconds" : 116.4892025,
      "channel" : 0,
      "noteNumber" : 48,
      "noteName" : "C3",
      "velocity" : 112,
      "durationTicks" : 113,
      "durationSeconds" : 0.15026575208332815
    }, {
      "type" : "note",
      "tick" : 87360,
      "timeSeconds" : 116.170054,
      "channel" : 0,
      "noteNumber" : 41,
      "noteName" : "F2",
      "velocity" : 112,
      "durationTicks" : 455,
      "durationSeconds" : 0.6050523645833437
    }, {
      "type" : "note",
      "tick" : 87720,
      "timeSeconds" : 116.64877675,
      "channel" : 0,
      "noteNumber" : 57,
      "noteName" : "A3",
      "velocity" : 112,
      "durationTicks" : 113,
      "durationSeconds" : 0.15026575208334236
    }, {
      "type" : "control_change",
      "tick" : 87841,
      "timeSeconds" : 116.80968078541666,
      "channel" : 0,
      "controller" : 64,
      "value" : 0
    }, {
      "type" : "control_change",
      "tick" : 87842,
      "timeSeconds" : 116.81101057083333,
      "channel" : 0,
      "controller" : 64,
      "value" : 127
    }, {
      "type" : "note",
      "tick" : 87960,
      "timeSeconds" : 116.96792525,
      "channel" : 0,
      "noteNumber" : 47,
      "noteName" : "B2",
      "velocity" : 113,
      "durationTicks" : 113,
      "durationSeconds" : 0.15026575208334236
    }, {
      "type" : "note",
      "tick" : 88080,
      "timeSeconds" : 117.1274995,
      "channel" : 0,
      "noteNumber" : 50,
      "noteName" : "D3",
      "velocity" : 114,
      "durationTicks" : 113,
      "durationSeconds" : 0.15026575208332815
    }, {
      "type" : "note",
      "tick" : 87840,
      "timeSeconds" : 116.808351,
      "channel" : 0,
      "noteNumber" : 31,
      "noteName" : "G1",
      "velocity" : 112,
      "durationTicks" : 455,
      "durationSeconds" : 0.6050523645833294
    }, {
      "type" : "note",
      "tick" : 87840,
      "timeSeconds" : 116.808351,
      "channel" : 0,
      "noteNumber" : 43,
      "noteName" : "G2",
      "velocity" : 112,
      "durationTicks" : 455,
      "durationSeconds" : 0.6050523645833294
    }, {
      "type" : "note",
      "tick" : 88200,
      "timeSeconds" : 117.28707375,
      "channel" : 0,
      "noteNumber" : 55,
      "noteName" : "G3",
      "velocity" : 115,
      "durationTicks" : 113,
      "durationSeconds" : 0.15026575208332815
    }, {
      "type" : "note",
      "tick" : 88440,
      "timeSeconds" : 117.60622225,
      "channel" : 0,
      "noteNumber" : 47,
      "noteName" : "B2",
      "velocity" : 117,
      "durationTicks" : 113,
      "durationSeconds" : 0.15026575208332815
    }, {
      "type" : "note",
      "tick" : 88560,
      "timeSeconds" : 117.7657965,
      "channel" : 0,
      "noteNumber" : 50,
      "noteName" : "D3",
      "velocity" : 119,
      "durationTicks" : 113,
      "durationSeconds" : 0.15026575208334236
    }, {
      "type" : "note",
      "tick" : 88320,
      "timeSeconds" : 117.446648,
      "channel" : 0,
      "noteNumber" : 43,
      "noteName" : "G2",
      "velocity" : 116,
      "durationTicks" : 455,
      "durationSeconds" : 0.6050523645833437
    }, {
      "type" : "note",
      "tick" : 88680,
      "timeSeconds" : 117.92537075,
      "channel" : 0,
      "noteNumber" : 55,
      "noteName" : "G3",
      "velocity" : 120,
      "durationTicks" : 113,
      "durationSeconds" : 0.15026575208332815
    }, {
      "type" : "note",
      "tick" : 88920,
      "timeSeconds" : 118.24451925,
      "channel" : 0,
      "noteNumber" : 47,
      "noteName" : "B2",
      "velocity" : 122,
      "durationTicks" : 113,
      "durationSeconds" : 0.15026575208334236
    }, {
      "type" : "note",
      "tick" : 89040,
      "timeSeconds" : 118.4040935,
      "channel" : 0,
      "noteNumber" : 50,
      "noteName" : "D3",
      "velocity" : 123,
      "durationTicks" : 113,
      "durationSeconds" : 0.15026575208332815
    }, {
      "type" : "note",
      "tick" : 88800,
      "timeSeconds" : 118.084945,
      "channel" : 0,
      "noteNumber" : 43,
      "noteName" : "G2",
      "velocity" : 121,
      "durationTicks" : 455,
      "durationSeconds" : 0.6050523645833294
    }, {
      "type" : "note",
      "tick" : 89160,
      "timeSeconds" : 118.56366775,
      "channel" : 0,
      "noteNumber" : 55,
      "noteName" : "G3",
      "velocity" : 124,
      "durationTicks" : 113,
      "durationSeconds" : 0.15026575208334236
    }, {
      "type" : "control_change",
      "tick" : 89281,
      "timeSeconds" : 118.72590156875,
      "channel" : 0,
      "controller" : 64,
      "value" : 0
    }, {
      "type" : "control_change",
      "tick" : 89282,
      "timeSeconds" : 118.7285611375,
      "channel" : 0,
      "controller" : 64,
      "value" : 127
    }, {
      "type" : "note",
      "tick" : 89280,
      "timeSeconds" : 118.723242,
      "channel" : 0,
      "noteNumber" : 28,
      "noteName" : "E1",
      "velocity" : 126,
      "durationTicks" : 1367,
      "durationSeconds" : 3.635630481250004
    }, {
      "type" : "note",
      "tick" : 89280,
      "timeSeconds" : 118.723242,
      "channel" : 0,
      "noteNumber" : 40,
      "noteName" : "E2",
      "velocity" : 126,
      "durationTicks" : 1367,
      "durationSeconds" : 3.635630481250004
    }, {
      "type" : "control_change",
      "tick" : 90720,
      "timeSeconds" : 122.55169121666667,
      "channel" : 0,
      "controller" : 64,
      "value" : 0
    } ]
  } ]
}